<?xml version="1.0" encoding="UTF-8" standalone="no"?><svg xmlns="http://www.w3.org/2000/svg" xmlns:xlink="http://www.w3.org/1999/xlink" contentScriptType="application/ecmascript" contentStyleType="text/css" height="475px" preserveAspectRatio="xMidYMid" style="width:912px;height:475px;" version="1.1" viewBox="0 0 912 475" width="912px" zoomAndPan="magnify"><defs><filter height="300%" id="f1jkbexh9k14ux" width="300%" x="-1" y="-1"><feGaussianBlur result="blurOut" stdDeviation="2.0"/><feColorMatrix in="blurOut" result="blurOut2" type="matrix" values="0 0 0 0 0 0 0 0 0 0 0 0 0 0 0 0 0 0 .4 0"/><feOffset dx="4.0" dy="4.0" in="blurOut2" result="blurOut3"/><feBlend in="SourceGraphic" in2="blurOut3" mode="normal"/></filter></defs><g><!--cluster com.vaadin.flow.data.provider--><polygon fill="#FFFFFF" filter="url(#f1jkbexh9k14ux)" points="22,24,267,24,274,46.2969,890,46.2969,890,463,22,463,22,24" style="stroke: #000000; stroke-width: 1.5;"/><line style="stroke: #000000; stroke-width: 1.5;" x1="22" x2="274" y1="46.2969" y2="46.2969"/><text fill="#000000" font-family="sans-serif" font-size="14" font-weight="bold" lengthAdjust="spacingAndGlyphs" textLength="239" x="26" y="38.9951">com.vaadin.flow.data.provider</text><!--class DataProvider--><rect fill="#FEFECE" filter="url(#f1jkbexh9k14ux)" height="32" id="DataProvider" style="stroke: #A80036; stroke-width: 1.5;" width="138" x="409" y="59"/><ellipse cx="424" cy="75" fill="#B4A7E5" rx="11" ry="11" style="stroke: #A80036; stroke-width: 1.0;"/><path d="M424.9531,71.7813 L424.9531,78.2969 L426.6719,78.2969 C427.125,78.2969 427.2656,78.3281 427.4375,78.4531 C427.6719,78.625 427.7813,78.875 427.7813,79.1563 C427.7813,79.7188 427.4219,80 426.6719,80 L421.5313,80 C421.125,80 420.9219,79.9531 420.7656,79.8281 C420.5469,79.6719 420.4063,79.4063 420.4063,79.1563 C420.4063,78.8594 420.5625,78.5781 420.8125,78.4219 C420.9688,78.3125 421.0938,78.2969 421.5313,78.2969 L423.25,78.2969 L423.25,71.7813 L421.5313,71.7813 C421.1094,71.7813 420.9219,71.75 420.7656,71.6406 C420.5469,71.4688 420.4063,71.2188 420.4063,70.9375 C420.4063,70.6563 420.5625,70.3594 420.8125,70.2031 C420.9688,70.1094 421.0938,70.0938 421.5313,70.0938 L426.6719,70.0938 C427.125,70.0938 427.2656,70.125 427.4375,70.2344 C427.6719,70.4063 427.7813,70.6719 427.7813,70.9375 C427.7813,71.2344 427.6406,71.5156 427.375,71.6719 C427.25,71.75 427.0625,71.7813 426.6719,71.7813 Z "/><text fill="#000000" font-family="sans-serif" font-size="12" font-style="italic" lengthAdjust="spacingAndGlyphs" textLength="80" x="438" y="79.1543">DataProvider</text><rect fill="#FFFFFF" height="15.9688" style="stroke: #000000; stroke-width: 1.0; stroke-dasharray: 2.0,2.0;" width="24" x="526" y="56"/><text fill="#000000" font-family="sans-serif" font-size="12" font-style="italic" lengthAdjust="spacingAndGlyphs" textLength="22" x="527" y="68.1387">T, F</text><!--class ConfigurableFilterDataProvider--><rect fill="#FEFECE" filter="url(#f1jkbexh9k14ux)" height="52.8047" id="ConfigurableFilterDataProvider" style="stroke: #A80036; stroke-width: 1.5;" width="265" x="608.5" y="151"/><ellipse cx="623.5" cy="167" fill="#B4A7E5" rx="11" ry="11" style="stroke: #A80036; stroke-width: 1.0;"/><path d="M624.4531,163.7813 L624.4531,170.2969 L626.1719,170.2969 C626.625,170.2969 626.7656,170.3281 626.9375,170.4531 C627.1719,170.625 627.2813,170.875 627.2813,171.1563 C627.2813,171.7188 626.9219,172 626.1719,172 L621.0313,172 C620.625,172 620.4219,171.9531 620.2656,171.8281 C620.0469,171.6719 619.9063,171.4063 619.9063,171.1563 C619.9063,170.8594 620.0625,170.5781 620.3125,170.4219 C620.4688,170.3125 620.5938,170.2969 621.0313,170.2969 L622.75,170.2969 L622.75,163.7813 L621.0313,163.7813 C620.6094,163.7813 620.4219,163.75 620.2656,163.6406 C620.0469,163.4688 619.9063,163.2188 619.9063,162.9375 C619.9063,162.6563 620.0625,162.3594 620.3125,162.2031 C620.4688,162.1094 620.5938,162.0938 621.0313,162.0938 L626.1719,162.0938 C626.625,162.0938 626.7656,162.125 626.9375,162.2344 C627.1719,162.4063 627.2813,162.6719 627.2813,162.9375 C627.2813,163.2344 627.1406,163.5156 626.875,163.6719 C626.75,163.75 626.5625,163.7813 626.1719,163.7813 Z "/><text fill="#000000" font-family="sans-serif" font-size="12" font-style="italic" lengthAdjust="spacingAndGlyphs" textLength="190" x="637.5" y="171.1543">ConfigurableFilterDataProvider</text><rect fill="#FFFFFF" height="15.9688" style="stroke: #000000; stroke-width: 1.0; stroke-dasharray: 2.0,2.0;" width="41" x="835.5" y="148"/><text fill="#000000" font-family="sans-serif" font-size="12" font-style="italic" lengthAdjust="spacingAndGlyphs" textLength="39" x="836.5" y="160.1387">T, Q, C</text><line style="stroke: #A80036; stroke-width: 1.5;" x1="609.5" x2="872.5" y1="183" y2="183"/><ellipse cx="619.5" cy="194.9023" fill="#84BE84" rx="3" ry="3" style="stroke: #038048; stroke-width: 1.0;"/><text fill="#000000" font-family="sans-serif" font-size="11" font-style="italic" lengthAdjust="spacingAndGlyphs" textLength="95" x="628.5" y="197.2104">setFilter(filter: C)</text><!--class InMemoryDataProvider--><rect fill="#FEFECE" filter="url(#f1jkbexh9k14ux)" height="91.2188" id="InMemoryDataProvider" style="stroke: #A80036; stroke-width: 1.5;" width="309" x="551.5" y="264"/><ellipse cx="625.75" cy="280" fill="#B4A7E5" rx="11" ry="11" style="stroke: #A80036; stroke-width: 1.0;"/><path d="M626.7031,276.7813 L626.7031,283.2969 L628.4219,283.2969 C628.875,283.2969 629.0156,283.3281 629.1875,283.4531 C629.4219,283.625 629.5313,283.875 629.5313,284.1563 C629.5313,284.7188 629.1719,285 628.4219,285 L623.2813,285 C622.875,285 622.6719,284.9531 622.5156,284.8281 C622.2969,284.6719 622.1563,284.4063 622.1563,284.1563 C622.1563,283.8594 622.3125,283.5781 622.5625,283.4219 C622.7188,283.3125 622.8438,283.2969 623.2813,283.2969 L625,283.2969 L625,276.7813 L623.2813,276.7813 C622.8594,276.7813 622.6719,276.75 622.5156,276.6406 C622.2969,276.4688 622.1563,276.2188 622.1563,275.9375 C622.1563,275.6563 622.3125,275.3594 622.5625,275.2031 C622.7188,275.1094 622.8438,275.0938 623.2813,275.0938 L628.4219,275.0938 C628.875,275.0938 629.0156,275.125 629.1875,275.2344 C629.4219,275.4063 629.5313,275.6719 629.5313,275.9375 C629.5313,276.2344 629.3906,276.5156 629.125,276.6719 C629,276.75 628.8125,276.7813 628.4219,276.7813 Z "/><text fill="#000000" font-family="sans-serif" font-size="12" font-style="italic" lengthAdjust="spacingAndGlyphs" textLength="141" x="646.25" y="284.1543">InMemoryDataProvider</text><rect fill="#FFFFFF" height="15.9688" style="stroke: #000000; stroke-width: 1.0; stroke-dasharray: 2.0,2.0;" width="9" x="854.5" y="261"/><text fill="#000000" font-family="sans-serif" font-size="12" font-style="italic" lengthAdjust="spacingAndGlyphs" textLength="7" x="855.5" y="273.1387">T</text><line style="stroke: #A80036; stroke-width: 1.5;" x1="552.5" x2="859.5" y1="296" y2="296"/><ellipse cx="562.5" cy="307.9023" fill="#84BE84" rx="3" ry="3" style="stroke: #038048; stroke-width: 1.0;"/><text fill="#000000" font-family="sans-serif" font-size="11" font-style="italic" lengthAdjust="spacingAndGlyphs" textLength="140" x="571.5" y="310.2104">getFilter(): Predicate&lt;T&gt;</text><ellipse cx="562.5" cy="320.707" fill="#84BE84" rx="3" ry="3" style="stroke: #038048; stroke-width: 1.0;"/><text fill="#000000" font-family="sans-serif" font-size="11" font-style="italic" lengthAdjust="spacingAndGlyphs" textLength="218" x="571.5" y="323.0151">getSortComparator(): Comparator&lt;T&gt;</text><ellipse cx="562.5" cy="333.5117" fill="#84BE84" rx="3" ry="3" style="stroke: #038048; stroke-width: 1.0;"/><text fill="#000000" font-family="sans-serif" font-size="11" font-style="italic" lengthAdjust="spacingAndGlyphs" textLength="165" x="571.5" y="335.8198">setFilter(filter: Predicate&lt;T&gt;)</text><ellipse cx="562.5" cy="346.3164" fill="#84BE84" rx="3" ry="3" style="stroke: #038048; stroke-width: 1.0;"/><text fill="#000000" font-family="sans-serif" font-size="11" font-style="italic" lengthAdjust="spacingAndGlyphs" textLength="283" x="571.5" y="348.6245">setSortComparator(comparator: Comparator&lt;T&gt;)</text><!--class AbstractDataProvider--><rect fill="#FEFECE" filter="url(#f1jkbexh9k14ux)" height="32" id="AbstractDataProvider" style="stroke: #A80036; stroke-width: 1.5;" width="190" x="383" y="161.5"/><ellipse cx="398" cy="177.5" fill="#A9DCDF" rx="11" ry="11" style="stroke: #A80036; stroke-width: 1.0;"/><path d="M399.5781,179.3125 L395.5313,179.3125 L395.1406,180.2969 L395.5313,180.2969 C395.9844,180.2969 396.125,180.3281 396.2969,180.4531 C396.5156,180.625 396.6406,180.875 396.6406,181.1563 C396.6406,181.4375 396.5,181.7344 396.2344,181.875 C396.1094,181.9688 395.8906,182 395.5313,182 L393.2656,182 C392.5156,182 392.1406,181.7188 392.1406,181.1563 C392.1406,180.8594 392.2969,180.5781 392.5469,180.4219 C392.7031,180.3125 392.8594,180.2969 393.2813,180.2969 L395.9219,173.7813 L394.8438,173.7813 C394.4063,173.7813 394.2344,173.75 394.0625,173.6406 C393.8438,173.4688 393.7031,173.2188 393.7031,172.9375 C393.7031,172.6563 393.8594,172.375 394.1094,172.2031 C394.2656,172.1094 394.3906,172.0938 394.8438,172.0938 L398.5156,172.0938 L401.9063,180.2969 C402.375,180.2969 402.5313,180.3281 402.7031,180.4688 C402.9219,180.625 403.0625,180.875 403.0625,181.1563 C403.0625,181.4375 402.9063,181.7344 402.6563,181.875 C402.5156,181.9688 402.2969,182 401.9375,182 L399.5781,182 C399.1563,182 398.9531,181.9531 398.8125,181.8281 C398.5938,181.6719 398.4531,181.4219 398.4531,181.1563 C398.4531,180.8594 398.6094,180.5781 398.8594,180.4219 C399.0156,180.3125 399.125,180.2969 399.5781,180.2969 L399.9688,180.2969 Z M398.875,177.6094 L397.5469,174.3438 L396.2031,177.6094 Z "/><text fill="#000000" font-family="sans-serif" font-size="12" font-style="italic" lengthAdjust="spacingAndGlyphs" textLength="132" x="412" y="181.6543">AbstractDataProvider</text><rect fill="#FFFFFF" height="15.9688" style="stroke: #000000; stroke-width: 1.0; stroke-dasharray: 2.0,2.0;" width="24" x="552" y="158.5"/><text fill="#000000" font-family="sans-serif" font-size="12" font-style="italic" lengthAdjust="spacingAndGlyphs" textLength="22" x="553" y="170.6387">T, F</text><!--class ListDataProvider--><rect fill="#FEFECE" filter="url(#f1jkbexh9k14ux)" height="32" id="ListDataProvider" style="stroke: #A80036; stroke-width: 1.5;" width="145" x="525.5" y="415"/><ellipse cx="540.5" cy="431" fill="#ADD1B2" rx="11" ry="11" style="stroke: #A80036; stroke-width: 1.0;"/><path d="M542.8438,426.6719 L543.0156,426.75 C543.2344,426.4375 543.4375,426.3438 543.7344,426.3438 C544.0313,426.3438 544.3125,426.4844 544.4688,426.75 C544.5625,426.9063 544.5781,427.0313 544.5781,427.4688 L544.5781,428.8906 C544.5781,429.3125 544.5469,429.5 544.4375,429.6563 C544.2656,429.875 544,430.0156 543.7344,430.0156 C543.5156,430.0156 543.2813,429.9063 543.1406,429.7656 C543,429.6406 542.9688,429.5156 542.9063,429.1094 C542.8125,428.7031 542.6406,428.4844 542.1563,428.2031 C541.6875,427.9531 541.0781,427.7969 540.5,427.7969 C538.7656,427.7969 537.5156,429.1094 537.5156,430.8906 L537.5156,431.9844 C537.5156,433.6875 538.8125,434.7813 540.8594,434.7813 C541.625,434.7813 542.3125,434.6563 542.7344,434.3906 C542.9219,434.2969 542.9219,434.2969 543.375,433.8125 C543.5625,433.625 543.7656,433.5469 543.9844,433.5469 C544.4531,433.5469 544.8438,433.9375 544.8438,434.3906 C544.8438,434.7813 544.5156,435.2344 543.9375,435.6406 C543.1875,436.1875 542.0313,436.4844 540.8125,436.4844 C537.9219,436.4844 535.8125,434.5938 535.8125,432.0156 L535.8125,430.8906 C535.8125,428.1719 537.8125,426.0938 540.4375,426.0938 C541.3125,426.0938 541.9063,426.2344 542.8438,426.6719 Z "/><text fill="#000000" font-family="sans-serif" font-size="12" lengthAdjust="spacingAndGlyphs" textLength="102" x="554.5" y="435.1543">ListDataProvider</text><rect fill="#FFFFFF" height="15.9688" style="stroke: #000000; stroke-width: 1.0; stroke-dasharray: 2.0,2.0;" width="9" x="664.5" y="412"/><text fill="#000000" font-family="sans-serif" font-size="12" font-style="italic" lengthAdjust="spacingAndGlyphs" textLength="7" x="665.5" y="424.1387">T</text><!--class BackEndDataProvider--><rect fill="#FEFECE" filter="url(#f1jkbexh9k14ux)" height="52.8047" id="BackEndDataProvider" style="stroke: #A80036; stroke-width: 1.5;" width="310" x="38" y="151"/><ellipse cx="108.75" cy="167" fill="#B4A7E5" rx="11" ry="11" style="stroke: #A80036; stroke-width: 1.0;"/><path d="M109.7031,163.7813 L109.7031,170.2969 L111.4219,170.2969 C111.875,170.2969 112.0156,170.3281 112.1875,170.4531 C112.4219,170.625 112.5313,170.875 112.5313,171.1563 C112.5313,171.7188 112.1719,172 111.4219,172 L106.2813,172 C105.875,172 105.6719,171.9531 105.5156,171.8281 C105.2969,171.6719 105.1563,171.4063 105.1563,171.1563 C105.1563,170.8594 105.3125,170.5781 105.5625,170.4219 C105.7188,170.3125 105.8438,170.2969 106.2813,170.2969 L108,170.2969 L108,163.7813 L106.2813,163.7813 C105.8594,163.7813 105.6719,163.75 105.5156,163.6406 C105.2969,163.4688 105.1563,163.2188 105.1563,162.9375 C105.1563,162.6563 105.3125,162.3594 105.5625,162.2031 C105.7188,162.1094 105.8438,162.0938 106.2813,162.0938 L111.4219,162.0938 C111.875,162.0938 112.0156,162.125 112.1875,162.2344 C112.4219,162.4063 112.5313,162.6719 112.5313,162.9375 C112.5313,163.2344 112.3906,163.5156 112.125,163.6719 C112,163.75 111.8125,163.7813 111.4219,163.7813 Z "/><text fill="#000000" font-family="sans-serif" font-size="12" font-style="italic" lengthAdjust="spacingAndGlyphs" textLength="134" x="129.25" y="171.1543">BackEndDataProvider</text><rect fill="#FFFFFF" height="15.9688" style="stroke: #000000; stroke-width: 1.0; stroke-dasharray: 2.0,2.0;" width="24" x="327" y="148"/><text fill="#000000" font-family="sans-serif" font-size="12" font-style="italic" lengthAdjust="spacingAndGlyphs" textLength="22" x="328" y="160.1387">T, F</text><line style="stroke: #A80036; stroke-width: 1.5;" x1="39" x2="347" y1="183" y2="183"/><ellipse cx="49" cy="194.9023" fill="#84BE84" rx="3" ry="3" style="stroke: #038048; stroke-width: 1.0;"/><text fill="#000000" font-family="sans-serif" font-size="11" font-style="italic" lengthAdjust="spacingAndGlyphs" textLength="284" x="58" y="197.2104">setSortOrders(sortOrders: List&lt;QuerySortOrder&gt;)</text><!--class AbstractBackEndDataProvider--><rect fill="#FEFECE" filter="url(#f1jkbexh9k14ux)" height="32" id="AbstractBackEndDataProvider" style="stroke: #A80036; stroke-width: 1.5;" width="244" x="140" y="293.5"/><ellipse cx="155" cy="309.5" fill="#A9DCDF" rx="11" ry="11" style="stroke: #A80036; stroke-width: 1.0;"/><path d="M156.5781,311.3125 L152.5313,311.3125 L152.1406,312.2969 L152.5313,312.2969 C152.9844,312.2969 153.125,312.3281 153.2969,312.4531 C153.5156,312.625 153.6406,312.875 153.6406,313.1563 C153.6406,313.4375 153.5,313.7344 153.2344,313.875 C153.1094,313.9688 152.8906,314 152.5313,314 L150.2656,314 C149.5156,314 149.1406,313.7188 149.1406,313.1563 C149.1406,312.8594 149.2969,312.5781 149.5469,312.4219 C149.7031,312.3125 149.8594,312.2969 150.2813,312.2969 L152.9219,305.7813 L151.8438,305.7813 C151.4063,305.7813 151.2344,305.75 151.0625,305.6406 C150.8438,305.4688 150.7031,305.2188 150.7031,304.9375 C150.7031,304.6563 150.8594,304.375 151.1094,304.2031 C151.2656,304.1094 151.3906,304.0938 151.8438,304.0938 L155.5156,304.0938 L158.9063,312.2969 C159.375,312.2969 159.5313,312.3281 159.7031,312.4688 C159.9219,312.625 160.0625,312.875 160.0625,313.1563 C160.0625,313.4375 159.9063,313.7344 159.6563,313.875 C159.5156,313.9688 159.2969,314 158.9375,314 L156.5781,314 C156.1563,314 155.9531,313.9531 155.8125,313.8281 C155.5938,313.6719 155.4531,313.4219 155.4531,313.1563 C155.4531,312.8594 155.6094,312.5781 155.8594,312.4219 C156.0156,312.3125 156.125,312.2969 156.5781,312.2969 L156.9688,312.2969 Z M155.875,309.6094 L154.5469,306.3438 L153.2031,309.6094 Z "/><text fill="#000000" font-family="sans-serif" font-size="12" font-style="italic" lengthAdjust="spacingAndGlyphs" textLength="186" x="169" y="313.6543">AbstractBackEndDataProvider</text><rect fill="#FFFFFF" height="15.9688" style="stroke: #000000; stroke-width: 1.0; stroke-dasharray: 2.0,2.0;" width="24" x="363" y="290.5"/><text fill="#000000" font-family="sans-serif" font-size="12" font-style="italic" lengthAdjust="spacingAndGlyphs" textLength="22" x="364" y="302.6387">T, F</text><!--link DataProvider to ConfigurableFilterDataProvider--><path d="M536.185,98.234 C577.001,113.831 631.666,134.72 674.255,150.995 " fill="none" id="DataProvider-ConfigurableFilterDataProvider" style="stroke: #A80036; stroke-width: 1.0;"/><polygon fill="none" points="533.557,104.724,517.374,91.046,538.555,91.646,533.557,104.724" style="stroke: #A80036; stroke-width: 1.0;"/><!--link ConfigurableFilterDataProvider to InMemoryDataProvider--><path d="M728.778,223.895 C725.286,236.867 721.484,250.989 718.004,263.912 " fill="none" id="ConfigurableFilterDataProvider-InMemoryDataProvider" style="stroke: #A80036; stroke-width: 1.0;"/><polygon fill="none" points="722.126,221.676,734.085,204.184,735.645,225.316,722.126,221.676" style="stroke: #A80036; stroke-width: 1.0;"/><!--link DataProvider to AbstractDataProvider--><path d="M478,111.28 C478,128.455 478,148.198 478,161.422 " fill="none" id="DataProvider-AbstractDataProvider" style="stroke: #A80036; stroke-width: 1.0; stroke-dasharray: 7.0,7.0;"/><polygon fill="none" points="471,111.264,478,91.264,485,111.264,471,111.264" style="stroke: #A80036; stroke-width: 1.0;"/><!--link AbstractDataProvider to ListDataProvider--><path d="M484.834,213.785 C492.949,250.656 508.672,309.38 534,355 C546.796,378.047 567.357,400.5061 581.71,414.7448 " fill="none" id="AbstractDataProvider-ListDataProvider" style="stroke: #A80036; stroke-width: 1.0;"/><polygon fill="none" points="477.93,214.965,480.746,193.963,491.642,212.137,477.93,214.965" style="stroke: #A80036; stroke-width: 1.0;"/><!--link InMemoryDataProvider to ListDataProvider--><path d="M651.92,370.338 C637.019,386.8261 622.126,403.3054 611.779,414.7534 " fill="none" id="InMemoryDataProvider-ListDataProvider" style="stroke: #A80036; stroke-width: 1.0; stroke-dasharray: 7.0,7.0;"/><polygon fill="none" points="646.874,365.482,665.478,355.337,657.261,374.869,646.874,365.482" style="stroke: #A80036; stroke-width: 1.0;"/><!--link DataProvider to BackEndDataProvider--><path d="M416.45,97.704 C372.066,113.356 312.004,134.535 265.328,150.995 " fill="none" id="DataProvider-BackEndDataProvider" style="stroke: #A80036; stroke-width: 1.0;"/><polygon fill="none" points="414.143,91.096,435.333,91.046,418.799,104.299,414.143,91.096" style="stroke: #A80036; stroke-width: 1.0;"/><!--link AbstractDataProvider to AbstractBackEndDataProvider--><path d="M435.43,204.121 C391.165,230.762 323.366,271.567 287.04,293.43 " fill="none" id="AbstractDataProvider-AbstractBackEndDataProvider" style="stroke: #A80036; stroke-width: 1.0;"/><polygon fill="none" points="432.054,197.983,452.799,193.667,439.273,209.978,432.054,197.983" style="stroke: #A80036; stroke-width: 1.0;"/><!--link BackEndDataProvider to AbstractBackEndDataProvider--><path d="M216.028,221.887 C229.144,246.597 244.756,276.011 253.996,293.421 " fill="none" id="BackEndDataProvider-AbstractBackEndDataProvider" style="stroke: #A80036; stroke-width: 1.0; stroke-dasharray: 7.0,7.0;"/><polygon fill="none" points="209.826,225.131,206.632,204.184,222.192,218.568,209.826,225.131" style="stroke: #A80036; stroke-width: 1.0;"/><!--
@startuml
package "com.vaadin.flow.data.provider" {
 interface DataProvider<T, F>
 interface ConfigurableFilterDataProvider<T, Q, C> {
  + {abstract} setFilter(filter: C)
 }
 interface InMemoryDataProvider<T> {
  + {abstract} getFilter(): Predicate<T>
  + {abstract} getSortComparator(): Comparator<T>
  + {abstract} setFilter(filter: Predicate<T>)
  + {abstract} setSortComparator(comparator: Comparator<T>)
 }
 abstract class AbstractDataProvider<T, F>
 class ListDataProvider<T>
 interface BackEndDataProvider<T, F> {
  + {abstract} setSortOrders(sortOrders: List<QuerySortOrder>)
 }
 abstract class AbstractBackEndDataProvider<T, F>
}
ConfigurableFilterDataProvider -up-|> DataProvider
InMemoryDataProvider -up-|> ConfigurableFilterDataProvider
AbstractDataProvider .up.|> DataProvider
ListDataProvider -up-|> AbstractDataProvider
ListDataProvider .up.|> InMemoryDataProvider
BackEndDataProvider -up-|> DataProvider
AbstractBackEndDataProvider -up-|> AbstractDataProvider
AbstractBackEndDataProvider .up.|> BackEndDataProvider
hide empty members
@enduml

PlantUML version 1.2018.08(Sun Jun 24 12:31:00 UTC 2018)
(GPL source distribution)
Java Runtime: Java(TM) SE Runtime Environment
JVM: Java HotSpot(TM) 64-Bit Server VM
Java Version: 1.7.0_25-b15
Operating System: Linux
Default Encoding: UTF-8
Language: en
Country: US
--></g></svg>