<?xml version="1.0" encoding="UTF-8" standalone="no"?><svg xmlns="http://www.w3.org/2000/svg" xmlns:xlink="http://www.w3.org/1999/xlink" contentScriptType="application/ecmascript" contentStyleType="text/css" preserveAspectRatio="xMidYMid" version="1.1" viewBox="0 0 408 84" zoomAndPan="magnify"><defs><filter height="300%" id="f1t2zbmy19gbe" width="300%" x="-1" y="-1"><feGaussianBlur result="blurOut" stdDeviation="2.0"/><feColorMatrix in="blurOut" result="blurOut2" type="matrix" values="0 0 0 0 0 0 0 0 0 0 0 0 0 0 0 0 0 0 .4 0"/><feOffset dx="4.0" dy="4.0" in="blurOut2" result="blurOut3"/><feBlend in="SourceGraphic" in2="blurOut3" mode="normal"/></filter></defs><g><!--class Object--><rect fill="#FEFECE" filter="url(#f1t2zbmy19gbe)" height="32" id="Object" style="stroke: #A80036; stroke-width: 1.5;" width="72" x="6" y="25"/><ellipse cx="21" cy="41" fill="#ADD1B2" rx="11" ry="11" style="stroke: #A80036; stroke-width: 1.0;"/><path d="M23.3438,36.6719 L23.5156,36.75 C23.7344,36.4375 23.9375,36.3438 24.2344,36.3438 C24.5313,36.3438 24.8125,36.4844 24.9688,36.75 C25.0625,36.9063 25.0781,37.0313 25.0781,37.4688 L25.0781,38.8906 C25.0781,39.3125 25.0469,39.5 24.9375,39.6563 C24.7656,39.875 24.5,40.0156 24.2344,40.0156 C24.0156,40.0156 23.7813,39.9063 23.6406,39.7656 C23.5,39.6406 23.4688,39.5156 23.4063,39.1094 C23.3125,38.7031 23.1406,38.4844 22.6563,38.2031 C22.1875,37.9531 21.5781,37.7969 21,37.7969 C19.2656,37.7969 18.0156,39.1094 18.0156,40.8906 L18.0156,41.9844 C18.0156,43.6875 19.3125,44.7813 21.3594,44.7813 C22.125,44.7813 22.8125,44.6563 23.2344,44.3906 C23.4219,44.2969 23.4219,44.2969 23.875,43.8125 C24.0625,43.625 24.2656,43.5469 24.4844,43.5469 C24.9531,43.5469 25.3438,43.9375 25.3438,44.3906 C25.3438,44.7813 25.0156,45.2344 24.4375,45.6406 C23.6875,46.1875 22.5313,46.4844 21.3125,46.4844 C18.4219,46.4844 16.3125,44.5938 16.3125,42.0156 L16.3125,40.8906 C16.3125,38.1719 18.3125,36.0938 20.9375,36.0938 C21.8125,36.0938 22.4063,36.2344 23.3438,36.6719 Z "/><text fill="#000000" font-family="sans-serif" font-size="12" lengthAdjust="spacingAndGlyphs" textLength="40" x="35" y="45.1543">Object</text><!--class Subject--><rect fill="#FEFECE" filter="url(#f1t2zbmy19gbe)" height="32" id="Subject" style="stroke: #A80036; stroke-width: 1.5;" width="79" x="318.5" y="25"/><ellipse cx="333.5" cy="41" fill="#B4A7E5" rx="11" ry="11" style="stroke: #A80036; stroke-width: 1.0;"/><path d="M334.4531,37.7813 L334.4531,44.2969 L336.1719,44.2969 C336.625,44.2969 336.7656,44.3281 336.9375,44.4531 C337.1719,44.625 337.2813,44.875 337.2813,45.1563 C337.2813,45.7188 336.9219,46 336.1719,46 L331.0313,46 C330.625,46 330.4219,45.9531 330.2656,45.8281 C330.0469,45.6719 329.9063,45.4063 329.9063,45.1563 C329.9063,44.8594 330.0625,44.5781 330.3125,44.4219 C330.4688,44.3125 330.5938,44.2969 331.0313,44.2969 L332.75,44.2969 L332.75,37.7813 L331.0313,37.7813 C330.6094,37.7813 330.4219,37.75 330.2656,37.6406 C330.0469,37.4688 329.9063,37.2188 329.9063,36.9375 C329.9063,36.6563 330.0625,36.3594 330.3125,36.2031 C330.4688,36.1094 330.5938,36.0938 331.0313,36.0938 L336.1719,36.0938 C336.625,36.0938 336.7656,36.125 336.9375,36.2344 C337.1719,36.4063 337.2813,36.6719 337.2813,36.9375 C337.2813,37.2344 337.1406,37.5156 336.875,37.6719 C336.75,37.75 336.5625,37.7813 336.1719,37.7813 Z "/><text fill="#000000" font-family="sans-serif" font-size="12" font-style="italic" lengthAdjust="spacingAndGlyphs" textLength="47" x="347.5" y="45.1543">Subject</text><!--class EventBus--><rect fill="#FEFECE" filter="url(#f1t2zbmy19gbe)" height="65.6094" id="EventBus" style="stroke: #A80036; stroke-width: 1.5;" width="170" x="113" y="8"/><ellipse cx="164.75" cy="24" fill="#ADD1B2" rx="11" ry="11" style="stroke: #A80036; stroke-width: 1.0;"/><path d="M167.0938,19.6719 L167.2656,19.75 C167.4844,19.4375 167.6875,19.3438 167.9844,19.3438 C168.2813,19.3438 168.5625,19.4844 168.7188,19.75 C168.8125,19.9063 168.8281,20.0313 168.8281,20.4688 L168.8281,21.8906 C168.8281,22.3125 168.7969,22.5 168.6875,22.6563 C168.5156,22.875 168.25,23.0156 167.9844,23.0156 C167.7656,23.0156 167.5313,22.9063 167.3906,22.7656 C167.25,22.6406 167.2188,22.5156 167.1563,22.1094 C167.0625,21.7031 166.8906,21.4844 166.4063,21.2031 C165.9375,20.9531 165.3281,20.7969 164.75,20.7969 C163.0156,20.7969 161.7656,22.1094 161.7656,23.8906 L161.7656,24.9844 C161.7656,26.6875 163.0625,27.7813 165.1094,27.7813 C165.875,27.7813 166.5625,27.6563 166.9844,27.3906 C167.1719,27.2969 167.1719,27.2969 167.625,26.8125 C167.8125,26.625 168.0156,26.5469 168.2344,26.5469 C168.7031,26.5469 169.0938,26.9375 169.0938,27.3906 C169.0938,27.7813 168.7656,28.2344 168.1875,28.6406 C167.4375,29.1875 166.2813,29.4844 165.0625,29.4844 C162.1719,29.4844 160.0625,27.5938 160.0625,25.0156 L160.0625,23.8906 C160.0625,21.1719 162.0625,19.0938 164.6875,19.0938 C165.5625,19.0938 166.1563,19.2344 167.0938,19.6719 Z "/><text fill="#000000" font-family="sans-serif" font-size="12" lengthAdjust="spacingAndGlyphs" textLength="58" x="185.25" y="28.1543">EventBus</text><line style="stroke: #A80036; stroke-width: 1.5;" x1="114" x2="282" y1="40" y2="40"/><ellipse cx="124" cy="51.9023" fill="#84BE84" rx="3" ry="3" style="stroke: #038048; stroke-width: 1.0;"/><text fill="#000000" font-family="sans-serif" font-size="11" lengthAdjust="spacingAndGlyphs" textLength="144" x="133" y="54.2104">register(Object:observer)</text><ellipse cx="124" cy="64.707" fill="#84BE84" rx="3" ry="3" style="stroke: #038048; stroke-width: 1.0;"/><text fill="#000000" font-family="sans-serif" font-size="11" lengthAdjust="spacingAndGlyphs" textLength="49" x="133" y="67.0151">publish()</text><!--link Object to EventBus--><path d="M83.3957,41 C93.2207,41 103.0458,41 112.871,41 " fill="none" id="Object-EventBus" style="stroke: #A80036; stroke-width: 1.0;"/><polygon fill="#A80036" points="78.2578,41,87.2578,45,83.2578,41,87.2578,37,78.2578,41" style="stroke: #A80036; stroke-width: 1.0;"/><text fill="#000000" font-family="sans-serif" font-size="13" lengthAdjust="spacingAndGlyphs" textLength="7" x="86.0851" y="36.6034">*</text><!--link EventBus to Subject--><path d="M288.509,41 C298.447,41 308.385,41 318.322,41 " fill="none" id="EventBus-Subject" style="stroke: #A80036; stroke-width: 1.0;"/><polygon fill="#A80036" points="283.312,41,292.312,45,288.312,41,292.312,37,283.312,41" style="stroke: #A80036; stroke-width: 1.0;"/><text fill="#000000" font-family="sans-serif" font-size="13" lengthAdjust="spacingAndGlyphs" textLength="8" x="290.9873" y="37.4449">1</text><!--
@startuml
class Object
interface Subject
class EventBus {
 + register(Object:observer)
 + publish()
}

EventBus -left-> "*" Object
Subject -left-> "1" EventBus

hide empty attributes
hide empty methods
@enduml

PlantUML version 1.2017.20beta1(Unknown compile time)
(GPL source distribution)
Java Runtime: Java(TM) SE Runtime Environment
JVM: Java HotSpot(TM) 64-Bit Server VM
Java Version: 1.7.0_25-b15
Operating System: Linux
Default Encoding: UTF-8
Language: en
Country: US
--></g></svg>