<?xml version="1.0" encoding="UTF-8" standalone="no"?><svg xmlns="http://www.w3.org/2000/svg" xmlns:xlink="http://www.w3.org/1999/xlink" contentScriptType="application/ecmascript" contentStyleType="text/css" height="371px" preserveAspectRatio="xMidYMid" style="width:674px;height:371px;" version="1.1" viewBox="0 0 674 371" width="674px" zoomAndPan="magnify"><defs><filter height="300%" id="f187gejawhp0mq" width="300%" x="-1" y="-1"><feGaussianBlur result="blurOut" stdDeviation="2.0"/><feColorMatrix in="blurOut" result="blurOut2" type="matrix" values="0 0 0 0 0 0 0 0 0 0 0 0 0 0 0 0 0 0 .4 0"/><feOffset dx="4.0" dy="4.0" in="blurOut2" result="blurOut3"/><feBlend in="SourceGraphic" in2="blurOut3" mode="normal"/></filter></defs><g><!--cluster com.vaadin.flow.component--><polygon fill="#FFFFFF" filter="url(#f187gejawhp0mq)" points="22,24,250,24,257,46.2969,652,46.2969,652,359,22,359,22,24" style="stroke: #000000; stroke-width: 1.5;"/><line style="stroke: #000000; stroke-width: 1.5;" x1="22" x2="257" y1="46.2969" y2="46.2969"/><text fill="#000000" font-family="sans-serif" font-size="14" font-weight="bold" lengthAdjust="spacingAndGlyphs" textLength="222" x="26" y="38.9951">com.vaadin.flow.component</text><!--cluster notification--><polygon fill="#FFFFFF" filter="url(#f187gejawhp0mq)" points="46,116,140,116,147,138.2969,628,138.2969,628,335,46,335,46,116" style="stroke: #000000; stroke-width: 1.5;"/><line style="stroke: #000000; stroke-width: 1.5;" x1="46" x2="147" y1="138.2969" y2="138.2969"/><text fill="#000000" font-family="sans-serif" font-size="14" font-weight="bold" lengthAdjust="spacingAndGlyphs" textLength="88" x="50" y="130.9951">notification</text><!--class HasComponents--><rect fill="#FEFECE" filter="url(#f187gejawhp0mq)" height="32" id="HasComponents" style="stroke: #A80036; stroke-width: 1.5;" width="133" x="263.5" y="59"/><ellipse cx="278.5" cy="75" fill="#B4A7E5" rx="11" ry="11" style="stroke: #A80036; stroke-width: 1.0;"/><path d="M279.4531,71.7813 L279.4531,78.2969 L281.1719,78.2969 C281.625,78.2969 281.7656,78.3281 281.9375,78.4531 C282.1719,78.625 282.2813,78.875 282.2813,79.1563 C282.2813,79.7188 281.9219,80 281.1719,80 L276.0313,80 C275.625,80 275.4219,79.9531 275.2656,79.8281 C275.0469,79.6719 274.9063,79.4063 274.9063,79.1563 C274.9063,78.8594 275.0625,78.5781 275.3125,78.4219 C275.4688,78.3125 275.5938,78.2969 276.0313,78.2969 L277.75,78.2969 L277.75,71.7813 L276.0313,71.7813 C275.6094,71.7813 275.4219,71.75 275.2656,71.6406 C275.0469,71.4688 274.9063,71.2188 274.9063,70.9375 C274.9063,70.6563 275.0625,70.3594 275.3125,70.2031 C275.4688,70.1094 275.5938,70.0938 276.0313,70.0938 L281.1719,70.0938 C281.625,70.0938 281.7656,70.125 281.9375,70.2344 C282.1719,70.4063 282.2813,70.6719 282.2813,70.9375 C282.2813,71.2344 282.1406,71.5156 281.875,71.6719 C281.75,71.75 281.5625,71.7813 281.1719,71.7813 Z "/><text fill="#000000" font-family="sans-serif" font-size="12" font-style="italic" lengthAdjust="spacingAndGlyphs" textLength="101" x="292.5" y="79.1543">HasComponents</text><!--class Component--><rect fill="#FEFECE" filter="url(#f187gejawhp0mq)" height="32" id="Component" style="stroke: #A80036; stroke-width: 1.5;" width="104" x="124" y="59"/><ellipse cx="139" cy="75" fill="#A9DCDF" rx="11" ry="11" style="stroke: #A80036; stroke-width: 1.0;"/><path d="M140.5781,76.8125 L136.5313,76.8125 L136.1406,77.7969 L136.5313,77.7969 C136.9844,77.7969 137.125,77.8281 137.2969,77.9531 C137.5156,78.125 137.6406,78.375 137.6406,78.6563 C137.6406,78.9375 137.5,79.2344 137.2344,79.375 C137.1094,79.4688 136.8906,79.5 136.5313,79.5 L134.2656,79.5 C133.5156,79.5 133.1406,79.2188 133.1406,78.6563 C133.1406,78.3594 133.2969,78.0781 133.5469,77.9219 C133.7031,77.8125 133.8594,77.7969 134.2813,77.7969 L136.9219,71.2813 L135.8438,71.2813 C135.4063,71.2813 135.2344,71.25 135.0625,71.1406 C134.8438,70.9688 134.7031,70.7188 134.7031,70.4375 C134.7031,70.1563 134.8594,69.875 135.1094,69.7031 C135.2656,69.6094 135.3906,69.5938 135.8438,69.5938 L139.5156,69.5938 L142.9063,77.7969 C143.375,77.7969 143.5313,77.8281 143.7031,77.9688 C143.9219,78.125 144.0625,78.375 144.0625,78.6563 C144.0625,78.9375 143.9063,79.2344 143.6563,79.375 C143.5156,79.4688 143.2969,79.5 142.9375,79.5 L140.5781,79.5 C140.1563,79.5 139.9531,79.4531 139.8125,79.3281 C139.5938,79.1719 139.4531,78.9219 139.4531,78.6563 C139.4531,78.3594 139.6094,78.0781 139.8594,77.9219 C140.0156,77.8125 140.125,77.7969 140.5781,77.7969 L140.9688,77.7969 Z M139.875,75.1094 L138.5469,71.8438 L137.2031,75.1094 Z "/><text fill="#000000" font-family="sans-serif" font-size="12" font-style="italic" lengthAdjust="spacingAndGlyphs" textLength="72" x="153" y="79.1543">Component</text><!--class Notification--><rect fill="#FEFECE" filter="url(#f187gejawhp0mq)" height="168.0469" id="Notification" style="stroke: #A80036; stroke-width: 1.5;" width="381" x="62.5" y="151"/><ellipse cx="213.25" cy="167" fill="#ADD1B2" rx="11" ry="11" style="stroke: #A80036; stroke-width: 1.0;"/><path d="M215.5938,162.6719 L215.7656,162.75 C215.9844,162.4375 216.1875,162.3438 216.4844,162.3438 C216.7813,162.3438 217.0625,162.4844 217.2188,162.75 C217.3125,162.9063 217.3281,163.0313 217.3281,163.4688 L217.3281,164.8906 C217.3281,165.3125 217.2969,165.5 217.1875,165.6563 C217.0156,165.875 216.75,166.0156 216.4844,166.0156 C216.2656,166.0156 216.0313,165.9063 215.8906,165.7656 C215.75,165.6406 215.7188,165.5156 215.6563,165.1094 C215.5625,164.7031 215.3906,164.4844 214.9063,164.2031 C214.4375,163.9531 213.8281,163.7969 213.25,163.7969 C211.5156,163.7969 210.2656,165.1094 210.2656,166.8906 L210.2656,167.9844 C210.2656,169.6875 211.5625,170.7813 213.6094,170.7813 C214.375,170.7813 215.0625,170.6563 215.4844,170.3906 C215.6719,170.2969 215.6719,170.2969 216.125,169.8125 C216.3125,169.625 216.5156,169.5469 216.7344,169.5469 C217.2031,169.5469 217.5938,169.9375 217.5938,170.3906 C217.5938,170.7813 217.2656,171.2344 216.6875,171.6406 C215.9375,172.1875 214.7813,172.4844 213.5625,172.4844 C210.6719,172.4844 208.5625,170.5938 208.5625,168.0156 L208.5625,166.8906 C208.5625,164.1719 210.5625,162.0938 213.1875,162.0938 C214.0625,162.0938 214.6563,162.2344 215.5938,162.6719 Z "/><text fill="#000000" font-family="sans-serif" font-size="12" lengthAdjust="spacingAndGlyphs" textLength="71" x="233.75" y="171.1543">Notification</text><line style="stroke: #A80036; stroke-width: 1.5;" x1="63.5" x2="442.5" y1="183" y2="183"/><ellipse cx="73.5" cy="194.9023" fill="#84BE84" rx="3" ry="3" style="stroke: #038048; stroke-width: 1.0;"/><text fill="#000000" font-family="sans-serif" font-size="11" lengthAdjust="spacingAndGlyphs" text-decoration="underline" textLength="172" x="82.5" y="197.2104">show(text: String): Notification</text><line style="stroke: #000000; stroke-width: 1.0;" x1="82.5" x2="254.5" y1="199.2104" y2="199.2104"/><ellipse cx="73.5" cy="207.707" fill="#84BE84" rx="3" ry="3" style="stroke: #038048; stroke-width: 1.0;"/><text fill="#000000" font-family="sans-serif" font-size="11" lengthAdjust="spacingAndGlyphs" text-decoration="underline" textLength="355" x="82.5" y="210.0151">show(text: String, duration: int, position: Position): Notification</text><line style="stroke: #000000; stroke-width: 1.0;" x1="82.5" x2="437.5" y1="212.0151" y2="212.0151"/><ellipse cx="73.5" cy="220.5117" fill="#84BE84" rx="3" ry="3" style="stroke: #038048; stroke-width: 1.0;"/><text fill="#000000" font-family="sans-serif" font-size="11" lengthAdjust="spacingAndGlyphs" textLength="71" x="82.5" y="222.8198">Notification()</text><ellipse cx="73.5" cy="233.3164" fill="#84BE84" rx="3" ry="3" style="stroke: #038048; stroke-width: 1.0;"/><text fill="#000000" font-family="sans-serif" font-size="11" lengthAdjust="spacingAndGlyphs" textLength="226" x="82.5" y="235.6245">Notification(components: Component...)</text><ellipse cx="73.5" cy="246.1211" fill="#84BE84" rx="3" ry="3" style="stroke: #038048; stroke-width: 1.0;"/><text fill="#000000" font-family="sans-serif" font-size="11" lengthAdjust="spacingAndGlyphs" textLength="134" x="82.5" y="248.4292">Notification(text: String)</text><ellipse cx="73.5" cy="258.9258" fill="#84BE84" rx="3" ry="3" style="stroke: #038048; stroke-width: 1.0;"/><text fill="#000000" font-family="sans-serif" font-size="11" lengthAdjust="spacingAndGlyphs" textLength="211" x="82.5" y="261.2339">Notification(text: String, duration: int)</text><ellipse cx="73.5" cy="271.7305" fill="#84BE84" rx="3" ry="3" style="stroke: #038048; stroke-width: 1.0;"/><text fill="#000000" font-family="sans-serif" font-size="11" lengthAdjust="spacingAndGlyphs" textLength="317" x="82.5" y="274.0386">Notification(text: String, duration: int, position: Position)</text><ellipse cx="73.5" cy="284.5352" fill="#84BE84" rx="3" ry="3" style="stroke: #038048; stroke-width: 1.0;"/><text fill="#000000" font-family="sans-serif" font-size="11" lengthAdjust="spacingAndGlyphs" textLength="36" x="82.5" y="286.8433">open()</text><ellipse cx="73.5" cy="297.3398" fill="#84BE84" rx="3" ry="3" style="stroke: #038048; stroke-width: 1.0;"/><text fill="#000000" font-family="sans-serif" font-size="11" lengthAdjust="spacingAndGlyphs" textLength="38" x="82.5" y="299.6479">close()</text><ellipse cx="73.5" cy="310.1445" fill="#84BE84" rx="3" ry="3" style="stroke: #038048; stroke-width: 1.0;"/><text fill="#000000" font-family="sans-serif" font-size="11" lengthAdjust="spacingAndGlyphs" textLength="115" x="82.5" y="312.4526">isOpened(): boolean</text><!--class Position--><rect fill="#FEFECE" filter="url(#f187gejawhp0mq)" height="155.2422" id="Position" style="stroke: #A80036; stroke-width: 1.5;" width="133" x="478.5" y="157.5"/><ellipse cx="516.45" cy="173.5" fill="#EB937F" rx="11" ry="11" style="stroke: #A80036; stroke-width: 1.0;"/><path d="M514.7469,174.375 L514.7469,176.7969 L519.1063,176.7969 L519.1063,175.9219 C519.1063,175.4375 519.1375,175.2969 519.2469,175.1406 C519.4188,174.8906 519.6844,174.7813 519.95,174.7813 C520.2313,174.7813 520.5125,174.9375 520.6844,175.1875 C520.7625,175.3438 520.7938,175.4844 520.7938,175.9219 L520.7938,178.5 L512.7938,178.5 C512.4031,178.5 512.1688,178.4531 512.0281,178.3281 C511.8094,178.1719 511.6688,177.9219 511.6688,177.6563 C511.6688,177.3594 511.825,177.0938 512.075,176.9219 C512.2313,176.8125 512.3875,176.7969 512.7938,176.7969 L513.0438,176.7969 L513.0438,170.2813 L512.7938,170.2813 C512.3719,170.2813 512.1844,170.25 512.0281,170.1406 C511.8094,169.9688 511.6688,169.7188 511.6688,169.4375 C511.6688,169.1563 511.825,168.8594 512.075,168.7031 C512.2313,168.6094 512.3563,168.5938 512.7938,168.5938 L520.4188,168.5938 L520.4188,171.1406 C520.4188,171.6094 520.3875,171.75 520.2781,171.9219 C520.1063,172.1406 519.8406,172.2813 519.575,172.2813 C519.2938,172.2813 519.0125,172.125 518.8406,171.875 C518.7625,171.7188 518.7313,171.5469 518.7313,171.1406 L518.7313,170.2813 L514.7469,170.2813 L514.7469,172.6875 L516.2,172.6875 L516.2,172.5625 C516.2,172.1094 516.2313,171.9531 516.3406,171.7813 C516.5125,171.5625 516.7781,171.4219 517.0281,171.4219 C517.4813,171.4219 517.7938,171.7344 517.8563,172.2031 C517.8719,172.3594 517.8719,172.4063 517.8719,172.5625 L517.8719,174.4844 C517.8719,174.9375 517.8406,175.0938 517.7156,175.25 C517.5594,175.4688 517.2938,175.6094 517.0438,175.6094 C516.7469,175.6094 516.4656,175.4531 516.3094,175.2031 C516.2313,175.0469 516.2,174.8906 516.2,174.4844 L516.2,174.375 Z "/><text fill="#000000" font-family="sans-serif" font-size="12" lengthAdjust="spacingAndGlyphs" textLength="50" x="535.55" y="177.6543">Position</text><line style="stroke: #A80036; stroke-width: 1.5;" x1="479.5" x2="610.5" y1="189.5" y2="189.5"/><ellipse cx="489.5" cy="201.4023" fill="none" rx="3" ry="3" style="stroke: #038048; stroke-width: 1.0;"/><text fill="#000000" font-family="sans-serif" font-size="11" lengthAdjust="spacingAndGlyphs" text-decoration="underline" textLength="81" x="498.5" y="203.7104">TOP_STRETCH</text><line style="stroke: #000000; stroke-width: 1.0;" x1="498.5" x2="579.5" y1="205.7104" y2="205.7104"/><ellipse cx="489.5" cy="214.207" fill="none" rx="3" ry="3" style="stroke: #038048; stroke-width: 1.0;"/><text fill="#000000" font-family="sans-serif" font-size="11" lengthAdjust="spacingAndGlyphs" text-decoration="underline" textLength="65" x="498.5" y="216.5151">TOP_START</text><line style="stroke: #000000; stroke-width: 1.0;" x1="498.5" x2="563.5" y1="218.5151" y2="218.5151"/><ellipse cx="489.5" cy="227.0117" fill="none" rx="3" ry="3" style="stroke: #038048; stroke-width: 1.0;"/><text fill="#000000" font-family="sans-serif" font-size="11" lengthAdjust="spacingAndGlyphs" text-decoration="underline" textLength="73" x="498.5" y="229.3198">TOP_CENTER</text><line style="stroke: #000000; stroke-width: 1.0;" x1="498.5" x2="571.5" y1="231.3198" y2="231.3198"/><ellipse cx="489.5" cy="239.8164" fill="none" rx="3" ry="3" style="stroke: #038048; stroke-width: 1.0;"/><text fill="#000000" font-family="sans-serif" font-size="11" lengthAdjust="spacingAndGlyphs" text-decoration="underline" textLength="52" x="498.5" y="242.1245">TOP_END</text><line style="stroke: #000000; stroke-width: 1.0;" x1="498.5" x2="550.5" y1="244.1245" y2="244.1245"/><ellipse cx="489.5" cy="252.6211" fill="none" rx="3" ry="3" style="stroke: #038048; stroke-width: 1.0;"/><text fill="#000000" font-family="sans-serif" font-size="11" lengthAdjust="spacingAndGlyphs" text-decoration="underline" textLength="41" x="498.5" y="254.9292">MIDDLE</text><line style="stroke: #000000; stroke-width: 1.0;" x1="498.5" x2="539.5" y1="256.9292" y2="256.9292"/><ellipse cx="489.5" cy="265.4258" fill="none" rx="3" ry="3" style="stroke: #038048; stroke-width: 1.0;"/><text fill="#000000" font-family="sans-serif" font-size="11" lengthAdjust="spacingAndGlyphs" text-decoration="underline" textLength="91" x="498.5" y="267.7339">BOTTOM_START</text><line style="stroke: #000000; stroke-width: 1.0;" x1="498.5" x2="589.5" y1="269.7339" y2="269.7339"/><ellipse cx="489.5" cy="278.2305" fill="none" rx="3" ry="3" style="stroke: #038048; stroke-width: 1.0;"/><text fill="#000000" font-family="sans-serif" font-size="11" lengthAdjust="spacingAndGlyphs" text-decoration="underline" textLength="99" x="498.5" y="280.5386">BOTTOM_CENTER</text><line style="stroke: #000000; stroke-width: 1.0;" x1="498.5" x2="597.5" y1="282.5386" y2="282.5386"/><ellipse cx="489.5" cy="291.0352" fill="none" rx="3" ry="3" style="stroke: #038048; stroke-width: 1.0;"/><text fill="#000000" font-family="sans-serif" font-size="11" lengthAdjust="spacingAndGlyphs" text-decoration="underline" textLength="78" x="498.5" y="293.3433">BOTTOM_END</text><line style="stroke: #000000; stroke-width: 1.0;" x1="498.5" x2="576.5" y1="295.3433" y2="295.3433"/><ellipse cx="489.5" cy="303.8398" fill="none" rx="3" ry="3" style="stroke: #038048; stroke-width: 1.0;"/><text fill="#000000" font-family="sans-serif" font-size="11" lengthAdjust="spacingAndGlyphs" text-decoration="underline" textLength="107" x="498.5" y="306.1479">BOTTOM_STRETCH</text><line style="stroke: #000000; stroke-width: 1.0;" x1="498.5" x2="605.5" y1="308.1479" y2="308.1479"/><!--link Notification to Position--><path d="M458.821,235 C465.271,235 471.722,235 478.172,235 " fill="none" id="Notification-Position" style="stroke: #A80036; stroke-width: 1.0;"/><ellipse cx="451.77" cy="234.9992" fill="#FFFFFF" rx="8" ry="8" style="stroke: #A80036; stroke-width: 1.0;"/><line style="stroke: #A80036; stroke-width: 1.0;" x1="459.77" x2="443.77" y1="234.9985" y2="235"/><line style="stroke: #A80036; stroke-width: 1.0;" x1="451.7708" x2="451.7692" y1="242.9992" y2="226.9992"/><!--link Component to Notification--><path d="M192.23,109.302 C198.202,121.557 205.263,136.047 212.421,150.735 " fill="none" id="Component-Notification" style="stroke: #A80036; stroke-width: 1.0;"/><polygon fill="none" points="185.852,112.195,183.383,91.15,198.437,106.062,185.852,112.195" style="stroke: #A80036; stroke-width: 1.0;"/><!--link HasComponents to Notification--><path d="M313.77,109.302 C307.798,121.557 300.737,136.047 293.579,150.735 " fill="none" id="HasComponents-Notification" style="stroke: #A80036; stroke-width: 1.0; stroke-dasharray: 7.0,7.0;"/><polygon fill="none" points="307.563,106.062,322.617,91.15,320.148,112.195,307.563,106.062" style="stroke: #A80036; stroke-width: 1.0;"/><!--
@startuml
package "com.vaadin.flow.component" {
 interface HasComponents
 abstract class Component
 package notification {
  class Notification {
   + {static} show(text: String): Notification
   + {static} show(text: String, duration: int, position: Position): Notification
   + Notification()
   + Notification(components: Component...)
   + Notification(text: String)
   + Notification(text: String, duration: int)
   + Notification(text: String, duration: int, position: Position)
   + open()
   + close()
   + isOpened(): boolean   
  }

  enum Position {
    + {static} TOP_STRETCH
    + {static} TOP_START
    + {static} TOP_CENTER
    + {static} TOP_END
    + {static} MIDDLE
    + {static} BOTTOM_START
    + {static} BOTTOM_CENTER
    + {static} BOTTOM_END
    + {static} BOTTOM_STRETCH
  }
 }
}
Position -right+ Notification
Notification -up-|> Component
Notification .up.|> HasComponents
hide empty members
@enduml

PlantUML version 1.2018.08(Sun Jun 24 12:31:00 UTC 2018)
(GPL source distribution)
Java Runtime: Java(TM) SE Runtime Environment
JVM: Java HotSpot(TM) 64-Bit Server VM
Java Version: 1.7.0_25-b15
Operating System: Linux
Default Encoding: UTF-8
Language: en
Country: US
--></g></svg>