<?xml version="1.0" encoding="UTF-8" standalone="no"?><svg xmlns="http://www.w3.org/2000/svg" xmlns:xlink="http://www.w3.org/1999/xlink" contentScriptType="application/ecmascript" contentStyleType="text/css" height="373px" preserveAspectRatio="xMidYMid" style="width:563px;height:373px;" version="1.1" viewBox="0 0 563 373" width="563px" zoomAndPan="magnify"><defs><filter height="300%" id="f1vxgykztxu9x3" width="300%" x="-1" y="-1"><feGaussianBlur result="blurOut" stdDeviation="2.0"/><feColorMatrix in="blurOut" result="blurOut2" type="matrix" values="0 0 0 0 0 0 0 0 0 0 0 0 0 0 0 0 0 0 .4 0"/><feOffset dx="4.0" dy="4.0" in="blurOut2" result="blurOut3"/><feBlend in="SourceGraphic" in2="blurOut3" mode="normal"/></filter></defs><g><!--cluster com.vaadin.flow.router--><polygon fill="#FFFFFF" filter="url(#f1vxgykztxu9x3)" points="22,165,211,165,218,187.2969,501,187.2969,501,361,22,361,22,165" style="stroke: #000000; stroke-width: 1.5;"/><line style="stroke: #000000; stroke-width: 1.5;" x1="22" x2="218" y1="187.2969" y2="187.2969"/><text fill="#000000" font-family="sans-serif" font-size="14" font-weight="bold" lengthAdjust="spacingAndGlyphs" textLength="183" x="26" y="179.9951">com.vaadin.flow.router</text><!--cluster java.util--><polygon fill="#FFFFFF" filter="url(#f1vxgykztxu9x3)" points="321,24,387,24,394,46.2969,541,46.2969,541,141,321,141,321,24" style="stroke: #000000; stroke-width: 1.5;"/><line style="stroke: #000000; stroke-width: 1.5;" x1="321" x2="394" y1="46.2969" y2="46.2969"/><text fill="#000000" font-family="sans-serif" font-size="14" font-weight="bold" lengthAdjust="spacingAndGlyphs" textLength="60" x="325" y="38.9951">java.util</text><!--class HasUrlParameter--><rect fill="#FEFECE" filter="url(#f1vxgykztxu9x3)" height="52.8047" id="HasUrlParameter" style="stroke: #A80036; stroke-width: 1.5;" width="304" x="38" y="200"/><ellipse cx="127.75" cy="216" fill="#B4A7E5" rx="11" ry="11" style="stroke: #A80036; stroke-width: 1.0;"/><path d="M128.7031,212.7813 L128.7031,219.2969 L130.4219,219.2969 C130.875,219.2969 131.0156,219.3281 131.1875,219.4531 C131.4219,219.625 131.5313,219.875 131.5313,220.1563 C131.5313,220.7188 131.1719,221 130.4219,221 L125.2813,221 C124.875,221 124.6719,220.9531 124.5156,220.8281 C124.2969,220.6719 124.1563,220.4063 124.1563,220.1563 C124.1563,219.8594 124.3125,219.5781 124.5625,219.4219 C124.7188,219.3125 124.8438,219.2969 125.2813,219.2969 L127,219.2969 L127,212.7813 L125.2813,212.7813 C124.8594,212.7813 124.6719,212.75 124.5156,212.6406 C124.2969,212.4688 124.1563,212.2188 124.1563,211.9375 C124.1563,211.6563 124.3125,211.3594 124.5625,211.2031 C124.7188,211.1094 124.8438,211.0938 125.2813,211.0938 L130.4219,211.0938 C130.875,211.0938 131.0156,211.125 131.1875,211.2344 C131.4219,211.4063 131.5313,211.6719 131.5313,211.9375 C131.5313,212.2344 131.3906,212.5156 131.125,212.6719 C131,212.75 130.8125,212.7813 130.4219,212.7813 Z "/><text fill="#000000" font-family="sans-serif" font-size="12" font-style="italic" lengthAdjust="spacingAndGlyphs" textLength="105" x="148.25" y="220.1543">HasUrlParameter</text><rect fill="#FFFFFF" height="15.9688" style="stroke: #000000; stroke-width: 1.0; stroke-dasharray: 2.0,2.0;" width="9" x="336" y="197"/><text fill="#000000" font-family="sans-serif" font-size="12" font-style="italic" lengthAdjust="spacingAndGlyphs" textLength="7" x="337" y="209.1387">T</text><line style="stroke: #A80036; stroke-width: 1.5;" x1="39" x2="341" y1="232" y2="232"/><ellipse cx="49" cy="243.9023" fill="#84BE84" rx="3" ry="3" style="stroke: #038048; stroke-width: 1.0;"/><text fill="#000000" font-family="sans-serif" font-size="11" font-style="italic" lengthAdjust="spacingAndGlyphs" textLength="278" x="58" y="246.2104">setParameter(event: BeforeEvent, parameter: T)</text><!--class BeforeEvent--><rect fill="#FEFECE" filter="url(#f1vxgykztxu9x3)" height="32" id="BeforeEvent" style="stroke: #A80036; stroke-width: 1.5;" width="108" x="377" y="210.5"/><ellipse cx="392" cy="226.5" fill="#A9DCDF" rx="11" ry="11" style="stroke: #A80036; stroke-width: 1.0;"/><path d="M393.5781,228.3125 L389.5313,228.3125 L389.1406,229.2969 L389.5313,229.2969 C389.9844,229.2969 390.125,229.3281 390.2969,229.4531 C390.5156,229.625 390.6406,229.875 390.6406,230.1563 C390.6406,230.4375 390.5,230.7344 390.2344,230.875 C390.1094,230.9688 389.8906,231 389.5313,231 L387.2656,231 C386.5156,231 386.1406,230.7188 386.1406,230.1563 C386.1406,229.8594 386.2969,229.5781 386.5469,229.4219 C386.7031,229.3125 386.8594,229.2969 387.2813,229.2969 L389.9219,222.7813 L388.8438,222.7813 C388.4063,222.7813 388.2344,222.75 388.0625,222.6406 C387.8438,222.4688 387.7031,222.2188 387.7031,221.9375 C387.7031,221.6563 387.8594,221.375 388.1094,221.2031 C388.2656,221.1094 388.3906,221.0938 388.8438,221.0938 L392.5156,221.0938 L395.9063,229.2969 C396.375,229.2969 396.5313,229.3281 396.7031,229.4688 C396.9219,229.625 397.0625,229.875 397.0625,230.1563 C397.0625,230.4375 396.9063,230.7344 396.6563,230.875 C396.5156,230.9688 396.2969,231 395.9375,231 L393.5781,231 C393.1563,231 392.9531,230.9531 392.8125,230.8281 C392.5938,230.6719 392.4531,230.4219 392.4531,230.1563 C392.4531,229.8594 392.6094,229.5781 392.8594,229.4219 C393.0156,229.3125 393.125,229.2969 393.5781,229.2969 L393.9688,229.2969 Z M392.875,226.6094 L391.5469,223.3438 L390.2031,226.6094 Z "/><text fill="#000000" font-family="sans-serif" font-size="12" font-style="italic" lengthAdjust="spacingAndGlyphs" textLength="76" x="406" y="230.6543">BeforeEvent</text><!--class OptionalParameter--><rect fill="#FEFECE" filter="url(#f1vxgykztxu9x3)" height="32" id="OptionalParameter" style="stroke: #A80036; stroke-width: 1.5;" width="150" x="115" y="313"/><ellipse cx="130" cy="329" fill="#E3664A" rx="11" ry="11" style="stroke: #A80036; stroke-width: 1.0;"/><path d="M131.9219,326.25 L131.9219,325.7031 C131.9219,324.5781 131.1875,323.7969 130.1406,323.7969 C128.7031,323.7969 127.6406,325.4375 127.6406,327.6094 L127.6406,330.2656 C127.6406,331.5625 127.9219,332.6094 128.5,333.4063 C128.9063,334 129.4375,334.2656 130.1875,334.2656 C130.9375,334.2656 131.6094,334.0469 131.9375,333.7188 C132.1719,333.4688 132.2656,333.4219 132.4688,333.4219 C132.8438,333.4219 133.1406,333.7344 133.1406,334.125 C133.1406,334.9219 131.75,335.5781 130.1406,335.5781 C128.7344,335.5781 127.8125,335.0156 127.0938,333.7656 C126.5781,332.8438 126.2969,331.625 126.2969,330.375 L126.2969,327.5156 C126.2969,324.5781 127.9063,322.4531 130.1094,322.4531 C131.9531,322.4531 133.2656,323.8125 133.2656,325.7031 L133.2656,330.4844 C133.5313,330.6094 133.6563,330.7969 133.6563,331.0781 C133.6563,331.5625 133.3438,331.7813 132.7188,331.7813 L131.9219,331.7813 L131.9219,331.7188 C131.6563,331.7656 131.5156,331.7813 131.3594,331.7813 C129.9063,331.7813 128.7031,330.5625 128.7031,329.1563 C128.7031,327.5781 130.0156,326.3906 131.9219,326.25 Z M131.9219,330.3594 L131.9219,327.625 C130.7969,327.7344 130.0469,328.3438 130.0469,329.1719 C130.0469,329.875 130.6563,330.4063 131.4844,330.4063 C131.5938,330.4063 131.6875,330.4063 131.9219,330.3594 Z "/><text fill="#000000" font-family="sans-serif" font-size="12" lengthAdjust="spacingAndGlyphs" textLength="118" x="144" y="333.1543">OptionalParameter</text><!--class WildcardParameter--><rect fill="#FEFECE" filter="url(#f1vxgykztxu9x3)" height="32" id="WildcardParameter" style="stroke: #A80036; stroke-width: 1.5;" width="151" x="300.5" y="313"/><ellipse cx="315.5" cy="329" fill="#E3664A" rx="11" ry="11" style="stroke: #A80036; stroke-width: 1.0;"/><path d="M317.4219,326.25 L317.4219,325.7031 C317.4219,324.5781 316.6875,323.7969 315.6406,323.7969 C314.2031,323.7969 313.1406,325.4375 313.1406,327.6094 L313.1406,330.2656 C313.1406,331.5625 313.4219,332.6094 314,333.4063 C314.4063,334 314.9375,334.2656 315.6875,334.2656 C316.4375,334.2656 317.1094,334.0469 317.4375,333.7188 C317.6719,333.4688 317.7656,333.4219 317.9688,333.4219 C318.3438,333.4219 318.6406,333.7344 318.6406,334.125 C318.6406,334.9219 317.25,335.5781 315.6406,335.5781 C314.2344,335.5781 313.3125,335.0156 312.5938,333.7656 C312.0781,332.8438 311.7969,331.625 311.7969,330.375 L311.7969,327.5156 C311.7969,324.5781 313.4063,322.4531 315.6094,322.4531 C317.4531,322.4531 318.7656,323.8125 318.7656,325.7031 L318.7656,330.4844 C319.0313,330.6094 319.1563,330.7969 319.1563,331.0781 C319.1563,331.5625 318.8438,331.7813 318.2188,331.7813 L317.4219,331.7813 L317.4219,331.7188 C317.1563,331.7656 317.0156,331.7813 316.8594,331.7813 C315.4063,331.7813 314.2031,330.5625 314.2031,329.1563 C314.2031,327.5781 315.5156,326.3906 317.4219,326.25 Z M317.4219,330.3594 L317.4219,327.625 C316.2969,327.7344 315.5469,328.3438 315.5469,329.1719 C315.5469,329.875 316.1563,330.4063 316.9844,330.4063 C317.0938,330.4063 317.1875,330.4063 317.4219,330.3594 Z "/><text fill="#000000" font-family="sans-serif" font-size="12" lengthAdjust="spacingAndGlyphs" textLength="119" x="329.5" y="333.1543">WildcardParameter</text><!--class EventObject--><rect fill="#FEFECE" filter="url(#f1vxgykztxu9x3)" height="65.6094" id="EventObject" style="stroke: #A80036; stroke-width: 1.5;" width="188" x="337" y="59"/><ellipse cx="389.25" cy="75" fill="#ADD1B2" rx="11" ry="11" style="stroke: #A80036; stroke-width: 1.0;"/><path d="M391.5938,70.6719 L391.7656,70.75 C391.9844,70.4375 392.1875,70.3438 392.4844,70.3438 C392.7813,70.3438 393.0625,70.4844 393.2188,70.75 C393.3125,70.9063 393.3281,71.0313 393.3281,71.4688 L393.3281,72.8906 C393.3281,73.3125 393.2969,73.5 393.1875,73.6563 C393.0156,73.875 392.75,74.0156 392.4844,74.0156 C392.2656,74.0156 392.0313,73.9063 391.8906,73.7656 C391.75,73.6406 391.7188,73.5156 391.6563,73.1094 C391.5625,72.7031 391.3906,72.4844 390.9063,72.2031 C390.4375,71.9531 389.8281,71.7969 389.25,71.7969 C387.5156,71.7969 386.2656,73.1094 386.2656,74.8906 L386.2656,75.9844 C386.2656,77.6875 387.5625,78.7813 389.6094,78.7813 C390.375,78.7813 391.0625,78.6563 391.4844,78.3906 C391.6719,78.2969 391.6719,78.2969 392.125,77.8125 C392.3125,77.625 392.5156,77.5469 392.7344,77.5469 C393.2031,77.5469 393.5938,77.9375 393.5938,78.3906 C393.5938,78.7813 393.2656,79.2344 392.6875,79.6406 C391.9375,80.1875 390.7813,80.4844 389.5625,80.4844 C386.6719,80.4844 384.5625,78.5938 384.5625,76.0156 L384.5625,74.8906 C384.5625,72.1719 386.5625,70.0938 389.1875,70.0938 C390.0625,70.0938 390.6563,70.2344 391.5938,70.6719 Z "/><text fill="#000000" font-family="sans-serif" font-size="12" lengthAdjust="spacingAndGlyphs" textLength="75" x="409.75" y="79.1543">EventObject</text><line style="stroke: #A80036; stroke-width: 1.5;" x1="338" x2="524" y1="91" y2="91"/><ellipse cx="348" cy="102.9023" fill="#84BE84" rx="3" ry="3" style="stroke: #038048; stroke-width: 1.0;"/><text fill="#000000" font-family="sans-serif" font-size="11" lengthAdjust="spacingAndGlyphs" textLength="162" x="357" y="105.2104">EventSource(source: Object)</text><ellipse cx="348" cy="115.707" fill="#84BE84" rx="3" ry="3" style="stroke: #038048; stroke-width: 1.0;"/><text fill="#000000" font-family="sans-serif" font-size="11" lengthAdjust="spacingAndGlyphs" textLength="110" x="357" y="118.0151">getSource(): Object</text><!--link EventObject to BeforeEvent--><path d="M431,145.159 C431,168.629 431,194.573 431,210.458 " fill="none" id="EventObject-BeforeEvent" style="stroke: #A80036; stroke-width: 1.0;"/><polygon fill="none" points="424,145.075,431,125.075,438,145.075,424,145.075" style="stroke: #A80036; stroke-width: 1.0;"/><!--link HasUrlParameter to BeforeEvent--><path d="M342.037,226.5 C351.901,226.5 361.766,226.5 371.63,226.5 " fill="none" id="HasUrlParameter-BeforeEvent" style="stroke: #A80036; stroke-width: 1.0; stroke-dasharray: 7.0,7.0;"/><polygon fill="#A80036" points="376.788,226.5,367.788,222.5,371.788,226.5,367.788,230.5,376.788,226.5" style="stroke: #A80036; stroke-width: 1.0;"/><!--link HasUrlParameter to OptionalParameter--><!--link OptionalParameter to WildcardParameter--><!--
@startuml
package "com.vaadin.flow.router" {
 interface HasUrlParameter<T> {
  + {abstract} setParameter(event: BeforeEvent, parameter: T)
 }
 abstract class BeforeEvent
 annotation OptionalParameter
 annotation WildcardParameter
}
package "java.util" {
 class EventObject {
  + EventSource(source: Object)
  + getSource(): Object
 }
}
BeforeEvent -up-|> EventObject
HasUrlParameter .right.> BeforeEvent
OptionalParameter -[hidden]up- HasUrlParameter
OptionalParameter -[hidden]right- WildcardParameter
hide empty members
@enduml

PlantUML version 1.2018.08(Sun Jun 24 12:31:00 UTC 2018)
(GPL source distribution)
Java Runtime: Java(TM) SE Runtime Environment
JVM: Java HotSpot(TM) 64-Bit Server VM
Java Version: 1.7.0_25-b15
Operating System: Linux
Default Encoding: UTF-8
Language: en
Country: US
--></g></svg>