<?xml version="1.0" encoding="UTF-8" standalone="no"?><svg xmlns="http://www.w3.org/2000/svg" xmlns:xlink="http://www.w3.org/1999/xlink" contentScriptType="application/ecmascript" contentStyleType="text/css" height="609px" preserveAspectRatio="xMidYMid" style="width:830px;height:609px;" version="1.1" viewBox="0 0 830 609" width="830px" zoomAndPan="magnify"><defs><filter height="300%" id="f1dz9qfxgx9dsn" width="300%" x="-1" y="-1"><feGaussianBlur result="blurOut" stdDeviation="2.0"/><feColorMatrix in="blurOut" result="blurOut2" type="matrix" values="0 0 0 0 0 0 0 0 0 0 0 0 0 0 0 0 0 0 .4 0"/><feOffset dx="4.0" dy="4.0" in="blurOut2" result="blurOut3"/><feBlend in="SourceGraphic" in2="blurOut3" mode="normal"/></filter></defs><g><!--cluster com.vaadin.flow--><polygon fill="#FFFFFF" filter="url(#f1dz9qfxgx9dsn)" points="22,24,156,24,163,46.2969,808,46.2969,808,597,22,597,22,24" style="stroke: #000000; stroke-width: 1.5;"/><line style="stroke: #000000; stroke-width: 1.5;" x1="22" x2="163" y1="46.2969" y2="46.2969"/><text fill="#000000" font-family="sans-serif" font-size="14" font-weight="bold" lengthAdjust="spacingAndGlyphs" textLength="128" x="26" y="38.9951">com.vaadin.flow</text><!--cluster router--><polygon fill="#FFFFFF" filter="url(#f1dz9qfxgx9dsn)" points="46,392,102,392,109,414.2969,784,414.2969,784,573,46,573,46,392" style="stroke: #000000; stroke-width: 1.5;"/><line style="stroke: #000000; stroke-width: 1.5;" x1="46" x2="109" y1="414.2969" y2="414.2969"/><text fill="#000000" font-family="sans-serif" font-size="14" font-weight="bold" lengthAdjust="spacingAndGlyphs" textLength="50" x="50" y="406.9951">router</text><!--cluster component--><polygon fill="#FFFFFF" filter="url(#f1dz9qfxgx9dsn)" points="81,67,176,67,183,89.2969,585,89.2969,585,368,81,368,81,67" style="stroke: #000000; stroke-width: 1.5;"/><line style="stroke: #000000; stroke-width: 1.5;" x1="81" x2="183" y1="89.2969" y2="89.2969"/><text fill="#000000" font-family="sans-serif" font-size="14" font-weight="bold" lengthAdjust="spacingAndGlyphs" textLength="89" x="85" y="81.9951">component</text><!--class RouterLink--><rect fill="#FEFECE" filter="url(#f1dz9qfxgx9dsn)" height="129.6328" id="RouterLink" style="stroke: #A80036; stroke-width: 1.5;" width="529" x="62.5" y="427"/><ellipse cx="289.75" cy="443" fill="#ADD1B2" rx="11" ry="11" style="stroke: #A80036; stroke-width: 1.0;"/><path d="M292.0938,438.6719 L292.2656,438.75 C292.4844,438.4375 292.6875,438.3438 292.9844,438.3438 C293.2813,438.3438 293.5625,438.4844 293.7188,438.75 C293.8125,438.9063 293.8281,439.0313 293.8281,439.4688 L293.8281,440.8906 C293.8281,441.3125 293.7969,441.5 293.6875,441.6563 C293.5156,441.875 293.25,442.0156 292.9844,442.0156 C292.7656,442.0156 292.5313,441.9063 292.3906,441.7656 C292.25,441.6406 292.2188,441.5156 292.1563,441.1094 C292.0625,440.7031 291.8906,440.4844 291.4063,440.2031 C290.9375,439.9531 290.3281,439.7969 289.75,439.7969 C288.0156,439.7969 286.7656,441.1094 286.7656,442.8906 L286.7656,443.9844 C286.7656,445.6875 288.0625,446.7813 290.1094,446.7813 C290.875,446.7813 291.5625,446.6563 291.9844,446.3906 C292.1719,446.2969 292.1719,446.2969 292.625,445.8125 C292.8125,445.625 293.0156,445.5469 293.2344,445.5469 C293.7031,445.5469 294.0938,445.9375 294.0938,446.3906 C294.0938,446.7813 293.7656,447.2344 293.1875,447.6406 C292.4375,448.1875 291.2813,448.4844 290.0625,448.4844 C287.1719,448.4844 285.0625,446.5938 285.0625,444.0156 L285.0625,442.8906 C285.0625,440.1719 287.0625,438.0938 289.6875,438.0938 C290.5625,438.0938 291.1563,438.2344 292.0938,438.6719 Z "/><text fill="#000000" font-family="sans-serif" font-size="12" lengthAdjust="spacingAndGlyphs" textLength="66" x="310.25" y="447.1543">RouterLink</text><line style="stroke: #A80036; stroke-width: 1.5;" x1="63.5" x2="590.5" y1="459" y2="459"/><ellipse cx="73.5" cy="470.9023" fill="#84BE84" rx="3" ry="3" style="stroke: #038048; stroke-width: 1.0;"/><text fill="#000000" font-family="sans-serif" font-size="11" lengthAdjust="spacingAndGlyphs" textLength="67" x="82.5" y="473.2104">RouterLink()</text><ellipse cx="73.5" cy="483.707" fill="#84BE84" rx="3" ry="3" style="stroke: #038048; stroke-width: 1.0;"/><text fill="#000000" font-family="sans-serif" font-size="11" lengthAdjust="spacingAndGlyphs" textLength="503" x="82.5" y="486.0151">RouterLink(router: Router, text: String, navigationTarget: Class&lt;? extends Component&gt;)</text><ellipse cx="73.5" cy="496.5117" fill="#84BE84" rx="3" ry="3" style="stroke: #038048; stroke-width: 1.0;"/><text fill="#000000" font-family="sans-serif" font-size="11" lengthAdjust="spacingAndGlyphs" textLength="415" x="82.5" y="498.8198">RouterLink(text: String, navigationTarget: Class&lt;? extends Component&gt;)</text><ellipse cx="73.5" cy="509.3164" fill="#84BE84" rx="3" ry="3" style="stroke: #038048; stroke-width: 1.0;"/><text fill="#000000" font-family="sans-serif" font-size="11" lengthAdjust="spacingAndGlyphs" textLength="92" x="82.5" y="511.6245">getHref(): String</text><ellipse cx="73.5" cy="522.1211" fill="#84BE84" rx="3" ry="3" style="stroke: #038048; stroke-width: 1.0;"/><text fill="#000000" font-family="sans-serif" font-size="11" lengthAdjust="spacingAndGlyphs" textLength="301" x="82.5" y="524.4292">getQueryParameters(): Optional&lt;QueryParameters&gt;</text><ellipse cx="73.5" cy="534.9258" fill="#84BE84" rx="3" ry="3" style="stroke: #038048; stroke-width: 1.0;"/><text fill="#000000" font-family="sans-serif" font-size="11" lengthAdjust="spacingAndGlyphs" textLength="335" x="82.5" y="537.2339">setQueryParameters(queryParameters: QueryParameters)</text><ellipse cx="73.5" cy="547.7305" fill="#84BE84" rx="3" ry="3" style="stroke: #038048; stroke-width: 1.0;"/><text fill="#000000" font-family="sans-serif" font-size="11" lengthAdjust="spacingAndGlyphs" textLength="494" x="82.5" y="550.0386">setRoute(router: Router, text: String, navigationTarget: Class&lt;? extends Component&gt;)</text><!--class QueryParameters--><rect fill="#FEFECE" filter="url(#f1dz9qfxgx9dsn)" height="32" id="QueryParameters" style="stroke: #A80036; stroke-width: 1.5;" width="141" x="626.5" y="476"/><ellipse cx="641.5" cy="492" fill="#ADD1B2" rx="11" ry="11" style="stroke: #A80036; stroke-width: 1.0;"/><path d="M643.8438,487.6719 L644.0156,487.75 C644.2344,487.4375 644.4375,487.3438 644.7344,487.3438 C645.0313,487.3438 645.3125,487.4844 645.4688,487.75 C645.5625,487.9063 645.5781,488.0313 645.5781,488.4688 L645.5781,489.8906 C645.5781,490.3125 645.5469,490.5 645.4375,490.6563 C645.2656,490.875 645,491.0156 644.7344,491.0156 C644.5156,491.0156 644.2813,490.9063 644.1406,490.7656 C644,490.6406 643.9688,490.5156 643.9063,490.1094 C643.8125,489.7031 643.6406,489.4844 643.1563,489.2031 C642.6875,488.9531 642.0781,488.7969 641.5,488.7969 C639.7656,488.7969 638.5156,490.1094 638.5156,491.8906 L638.5156,492.9844 C638.5156,494.6875 639.8125,495.7813 641.8594,495.7813 C642.625,495.7813 643.3125,495.6563 643.7344,495.3906 C643.9219,495.2969 643.9219,495.2969 644.375,494.8125 C644.5625,494.625 644.7656,494.5469 644.9844,494.5469 C645.4531,494.5469 645.8438,494.9375 645.8438,495.3906 C645.8438,495.7813 645.5156,496.2344 644.9375,496.6406 C644.1875,497.1875 643.0313,497.4844 641.8125,497.4844 C638.9219,497.4844 636.8125,495.5938 636.8125,493.0156 L636.8125,491.8906 C636.8125,489.1719 638.8125,487.0938 641.4375,487.0938 C642.3125,487.0938 642.9063,487.2344 643.8438,487.6719 Z "/><text fill="#000000" font-family="sans-serif" font-size="12" lengthAdjust="spacingAndGlyphs" textLength="109" x="655.5" y="496.1543">QueryParameters</text><!--class HasElement--><rect fill="#FEFECE" filter="url(#f1dz9qfxgx9dsn)" height="32" id="HasElement" style="stroke: #A80036; stroke-width: 1.5;" width="106" x="304" y="102"/><ellipse cx="319" cy="118" fill="#B4A7E5" rx="11" ry="11" style="stroke: #A80036; stroke-width: 1.0;"/><path d="M319.9531,114.7813 L319.9531,121.2969 L321.6719,121.2969 C322.125,121.2969 322.2656,121.3281 322.4375,121.4531 C322.6719,121.625 322.7813,121.875 322.7813,122.1563 C322.7813,122.7188 322.4219,123 321.6719,123 L316.5313,123 C316.125,123 315.9219,122.9531 315.7656,122.8281 C315.5469,122.6719 315.4063,122.4063 315.4063,122.1563 C315.4063,121.8594 315.5625,121.5781 315.8125,121.4219 C315.9688,121.3125 316.0938,121.2969 316.5313,121.2969 L318.25,121.2969 L318.25,114.7813 L316.5313,114.7813 C316.1094,114.7813 315.9219,114.75 315.7656,114.6406 C315.5469,114.4688 315.4063,114.2188 315.4063,113.9375 C315.4063,113.6563 315.5625,113.3594 315.8125,113.2031 C315.9688,113.1094 316.0938,113.0938 316.5313,113.0938 L321.6719,113.0938 C322.125,113.0938 322.2656,113.125 322.4375,113.2344 C322.6719,113.4063 322.7813,113.6719 322.7813,113.9375 C322.7813,114.2344 322.6406,114.5156 322.375,114.6719 C322.25,114.75 322.0625,114.7813 321.6719,114.7813 Z "/><text fill="#000000" font-family="sans-serif" font-size="12" font-style="italic" lengthAdjust="spacingAndGlyphs" textLength="74" x="333" y="122.1543">HasElement</text><!--class HasText--><rect fill="#FEFECE" filter="url(#f1dz9qfxgx9dsn)" height="65.6094" id="HasText" style="stroke: #A80036; stroke-width: 1.5;" width="182" x="97" y="194"/><ellipse cx="158.75" cy="210" fill="#B4A7E5" rx="11" ry="11" style="stroke: #A80036; stroke-width: 1.0;"/><path d="M159.7031,206.7813 L159.7031,213.2969 L161.4219,213.2969 C161.875,213.2969 162.0156,213.3281 162.1875,213.4531 C162.4219,213.625 162.5313,213.875 162.5313,214.1563 C162.5313,214.7188 162.1719,215 161.4219,215 L156.2813,215 C155.875,215 155.6719,214.9531 155.5156,214.8281 C155.2969,214.6719 155.1563,214.4063 155.1563,214.1563 C155.1563,213.8594 155.3125,213.5781 155.5625,213.4219 C155.7188,213.3125 155.8438,213.2969 156.2813,213.2969 L158,213.2969 L158,206.7813 L156.2813,206.7813 C155.8594,206.7813 155.6719,206.75 155.5156,206.6406 C155.2969,206.4688 155.1563,206.2188 155.1563,205.9375 C155.1563,205.6563 155.3125,205.3594 155.5625,205.2031 C155.7188,205.1094 155.8438,205.0938 156.2813,205.0938 L161.4219,205.0938 C161.875,205.0938 162.0156,205.125 162.1875,205.2344 C162.4219,205.4063 162.5313,205.6719 162.5313,205.9375 C162.5313,206.2344 162.3906,206.5156 162.125,206.6719 C162,206.75 161.8125,206.7813 161.4219,206.7813 Z "/><text fill="#000000" font-family="sans-serif" font-size="12" font-style="italic" lengthAdjust="spacingAndGlyphs" textLength="50" x="179.25" y="214.1543">HasText</text><line style="stroke: #A80036; stroke-width: 1.5;" x1="98" x2="278" y1="226" y2="226"/><ellipse cx="108" cy="237.9023" fill="#84BE84" rx="3" ry="3" style="stroke: #038048; stroke-width: 1.0;"/><text fill="#000000" font-family="sans-serif" font-size="11" font-style="italic" lengthAdjust="spacingAndGlyphs" textLength="39" x="117" y="240.2104">default</text><text fill="#000000" font-family="sans-serif" font-size="11" lengthAdjust="spacingAndGlyphs" textLength="92" x="160" y="240.2104">getText(): String</text><ellipse cx="108" cy="250.707" fill="#84BE84" rx="3" ry="3" style="stroke: #038048; stroke-width: 1.0;"/><text fill="#000000" font-family="sans-serif" font-size="11" font-style="italic" lengthAdjust="spacingAndGlyphs" textLength="39" x="117" y="253.0151">default</text><text fill="#000000" font-family="sans-serif" font-size="11" lengthAdjust="spacingAndGlyphs" textLength="113" x="160" y="253.0151">setText(text: String)</text><!--class HasComponents--><rect fill="#FEFECE" filter="url(#f1dz9qfxgx9dsn)" height="32" id="HasComponents" style="stroke: #A80036; stroke-width: 1.5;" width="133" x="435.5" y="211"/><ellipse cx="450.5" cy="227" fill="#B4A7E5" rx="11" ry="11" style="stroke: #A80036; stroke-width: 1.0;"/><path d="M451.4531,223.7813 L451.4531,230.2969 L453.1719,230.2969 C453.625,230.2969 453.7656,230.3281 453.9375,230.4531 C454.1719,230.625 454.2813,230.875 454.2813,231.1563 C454.2813,231.7188 453.9219,232 453.1719,232 L448.0313,232 C447.625,232 447.4219,231.9531 447.2656,231.8281 C447.0469,231.6719 446.9063,231.4063 446.9063,231.1563 C446.9063,230.8594 447.0625,230.5781 447.3125,230.4219 C447.4688,230.3125 447.5938,230.2969 448.0313,230.2969 L449.75,230.2969 L449.75,223.7813 L448.0313,223.7813 C447.6094,223.7813 447.4219,223.75 447.2656,223.6406 C447.0469,223.4688 446.9063,223.2188 446.9063,222.9375 C446.9063,222.6563 447.0625,222.3594 447.3125,222.2031 C447.4688,222.1094 447.5938,222.0938 448.0313,222.0938 L453.1719,222.0938 C453.625,222.0938 453.7656,222.125 453.9375,222.2344 C454.1719,222.4063 454.2813,222.6719 454.2813,222.9375 C454.2813,223.2344 454.1406,223.5156 453.875,223.6719 C453.75,223.75 453.5625,223.7813 453.1719,223.7813 Z "/><text fill="#000000" font-family="sans-serif" font-size="12" font-style="italic" lengthAdjust="spacingAndGlyphs" textLength="101" x="464.5" y="231.1543">HasComponents</text><!--class HasStyle--><rect fill="#FEFECE" filter="url(#f1dz9qfxgx9dsn)" height="32" id="HasStyle" style="stroke: #A80036; stroke-width: 1.5;" width="86" x="314" y="211"/><ellipse cx="329" cy="227" fill="#B4A7E5" rx="11" ry="11" style="stroke: #A80036; stroke-width: 1.0;"/><path d="M329.9531,223.7813 L329.9531,230.2969 L331.6719,230.2969 C332.125,230.2969 332.2656,230.3281 332.4375,230.4531 C332.6719,230.625 332.7813,230.875 332.7813,231.1563 C332.7813,231.7188 332.4219,232 331.6719,232 L326.5313,232 C326.125,232 325.9219,231.9531 325.7656,231.8281 C325.5469,231.6719 325.4063,231.4063 325.4063,231.1563 C325.4063,230.8594 325.5625,230.5781 325.8125,230.4219 C325.9688,230.3125 326.0938,230.2969 326.5313,230.2969 L328.25,230.2969 L328.25,223.7813 L326.5313,223.7813 C326.1094,223.7813 325.9219,223.75 325.7656,223.6406 C325.5469,223.4688 325.4063,223.2188 325.4063,222.9375 C325.4063,222.6563 325.5625,222.3594 325.8125,222.2031 C325.9688,222.1094 326.0938,222.0938 326.5313,222.0938 L331.6719,222.0938 C332.125,222.0938 332.2656,222.125 332.4375,222.2344 C332.6719,222.4063 332.7813,222.6719 332.7813,222.9375 C332.7813,223.2344 332.6406,223.5156 332.375,223.6719 C332.25,223.75 332.0625,223.7813 331.6719,223.7813 Z "/><text fill="#000000" font-family="sans-serif" font-size="12" font-style="italic" lengthAdjust="spacingAndGlyphs" textLength="54" x="343" y="231.1543">HasStyle</text><!--class Component--><rect fill="#FEFECE" filter="url(#f1dz9qfxgx9dsn)" height="32" id="Component" style="stroke: #A80036; stroke-width: 1.5;" width="104" x="141" y="320"/><ellipse cx="156" cy="336" fill="#ADD1B2" rx="11" ry="11" style="stroke: #A80036; stroke-width: 1.0;"/><path d="M158.3438,331.6719 L158.5156,331.75 C158.7344,331.4375 158.9375,331.3438 159.2344,331.3438 C159.5313,331.3438 159.8125,331.4844 159.9688,331.75 C160.0625,331.9063 160.0781,332.0313 160.0781,332.4688 L160.0781,333.8906 C160.0781,334.3125 160.0469,334.5 159.9375,334.6563 C159.7656,334.875 159.5,335.0156 159.2344,335.0156 C159.0156,335.0156 158.7813,334.9063 158.6406,334.7656 C158.5,334.6406 158.4688,334.5156 158.4063,334.1094 C158.3125,333.7031 158.1406,333.4844 157.6563,333.2031 C157.1875,332.9531 156.5781,332.7969 156,332.7969 C154.2656,332.7969 153.0156,334.1094 153.0156,335.8906 L153.0156,336.9844 C153.0156,338.6875 154.3125,339.7813 156.3594,339.7813 C157.125,339.7813 157.8125,339.6563 158.2344,339.3906 C158.4219,339.2969 158.4219,339.2969 158.875,338.8125 C159.0625,338.625 159.2656,338.5469 159.4844,338.5469 C159.9531,338.5469 160.3438,338.9375 160.3438,339.3906 C160.3438,339.7813 160.0156,340.2344 159.4375,340.6406 C158.6875,341.1875 157.5313,341.4844 156.3125,341.4844 C153.4219,341.4844 151.3125,339.5938 151.3125,337.0156 L151.3125,335.8906 C151.3125,333.1719 153.3125,331.0938 155.9375,331.0938 C156.8125,331.0938 157.4063,331.2344 158.3438,331.6719 Z "/><text fill="#000000" font-family="sans-serif" font-size="12" lengthAdjust="spacingAndGlyphs" textLength="72" x="170" y="340.1543">Component</text><!--link HasElement to HasText--><path d="M316.016,144.948 C292.793,159.652 263.538,178.174 238.86,193.799 " fill="none" id="HasElement-HasText" style="stroke: #A80036; stroke-width: 1.0;"/><polygon fill="none" points="312.502,138.888,333.145,134.104,319.992,150.717,312.502,138.888" style="stroke: #A80036; stroke-width: 1.0;"/><!--link HasElement to HasStyle--><path d="M357,154.454 C357,173.537 357,196.088 357,210.698 " fill="none" id="HasElement-HasStyle" style="stroke: #A80036; stroke-width: 1.0;"/><polygon fill="none" points="350,154.331,357,134.33,364,154.33,350,154.331" style="stroke: #A80036; stroke-width: 1.0;"/><!--link HasElement to HasComponents--><path d="M393.785,146.145 C421.652,166.709 458.904,194.198 481.637,210.973 " fill="none" id="HasElement-HasComponents" style="stroke: #A80036; stroke-width: 1.0;"/><polygon fill="none" points="389.404,151.611,377.467,134.104,397.717,140.346,389.404,151.611" style="stroke: #A80036; stroke-width: 1.0;"/><!--link HasText to RouterLink--><path d="M231.228,275.923 C242.189,289.55 253.306,304.827 262,320 C281.184,353.482 296.8,393.7 307.913,426.719 " fill="none" id="HasText-RouterLink" style="stroke: #A80036; stroke-width: 1.0; stroke-dasharray: 7.0,7.0;"/><polygon fill="none" points="225.571,280.07,218.11,260.237,236.311,271.088,225.571,280.07" style="stroke: #A80036; stroke-width: 1.0;"/><!--link HasComponents to RouterLink--><path d="M480.649,260.087 C453.182,301.366 404.831,374.032 369.688,426.846 " fill="none" id="HasComponents-RouterLink" style="stroke: #A80036; stroke-width: 1.0; stroke-dasharray: 7.0,7.0;"/><polygon fill="none" points="474.928,256.05,491.835,243.277,486.583,263.805,474.928,256.05" style="stroke: #A80036; stroke-width: 1.0;"/><!--link HasStyle to RouterLink--><path d="M352.983,263.22 C348.221,304.963 340.193,375.343 334.318,426.846 " fill="none" id="HasStyle-RouterLink" style="stroke: #A80036; stroke-width: 1.0; stroke-dasharray: 7.0,7.0;"/><polygon fill="none" points="346.036,262.355,355.257,243.277,359.946,263.941,346.036,262.355" style="stroke: #A80036; stroke-width: 1.0;"/><!--link Component to RouterLink--><path d="M219.276,367.198 C234.085,384.217 253.17,406.151 271.153,426.817 " fill="none" id="Component-RouterLink" style="stroke: #A80036; stroke-width: 1.0;"/><polygon fill="none" points="213.94,371.729,206.092,352.047,224.502,362.54,213.94,371.729" style="stroke: #A80036; stroke-width: 1.0;"/><!--link RouterLink to QueryParameters--><path d="M591.854,492 C601.647,492 611.44,492 621.233,492 " fill="none" id="RouterLink-QueryParameters" style="stroke: #A80036; stroke-width: 1.0;"/><polygon fill="#A80036" points="626.355,492,617.355,488,621.355,492,617.355,496,626.355,492" style="stroke: #A80036; stroke-width: 1.0;"/><!--link HasText to Component--><!--
@startuml
package "com.vaadin.flow" {
 package router {
  class RouterLink {
   + RouterLink()
   + RouterLink(router: Router, text: String, navigationTarget: Class<? extends Component>)
   + RouterLink(text: String, navigationTarget: Class<? extends Component>)
   + getHref(): String
   + getQueryParameters(): Optional<QueryParameters>
   + setQueryParameters(queryParameters: QueryParameters)
   + setRoute(router: Router, text: String, navigationTarget: Class<? extends Component>)
  }
  class QueryParameters
 }
 package component {
  interface HasElement
  interface HasText {
   + <i>default</i> getText(): String
   + <i>default</i> setText(text: String)
  }
  interface HasComponents
  interface HasStyle
  class Component
 }
}
HasText -up-|> HasElement
HasStyle -up-|> HasElement
HasComponents -up-|> HasElement
RouterLink .up.|> HasText
RouterLink .up.|> HasComponents
RouterLink .up.|> HasStyle
RouterLink -up-|> Component
RouterLink -right-> QueryParameters
Component -[hidden]up- HasText
hide empty members
@enduml

PlantUML version 1.2018.08(Sun Jun 24 12:31:00 UTC 2018)
(GPL source distribution)
Java Runtime: Java(TM) SE Runtime Environment
JVM: Java HotSpot(TM) 64-Bit Server VM
Java Version: 1.7.0_25-b15
Operating System: Linux
Default Encoding: UTF-8
Language: en
Country: US
--></g></svg>