<?xml version="1.0" encoding="UTF-8" standalone="no"?><svg xmlns="http://www.w3.org/2000/svg" xmlns:xlink="http://www.w3.org/1999/xlink" contentScriptType="application/ecmascript" contentStyleType="text/css" height="299px" preserveAspectRatio="xMidYMid" style="width:486px;height:299px;" version="1.1" viewBox="0 0 486 299" width="486px" zoomAndPan="magnify"><defs><filter height="300%" id="fg0kjjxgtapf9" width="300%" x="-1" y="-1"><feGaussianBlur result="blurOut" stdDeviation="2.0"/><feColorMatrix in="blurOut" result="blurOut2" type="matrix" values="0 0 0 0 0 0 0 0 0 0 0 0 0 0 0 0 0 0 .4 0"/><feOffset dx="4.0" dy="4.0" in="blurOut2" result="blurOut3"/><feBlend in="SourceGraphic" in2="blurOut3" mode="normal"/></filter></defs><g><!--cluster com.vaadin.flow--><polygon fill="#FFFFFF" filter="url(#fg0kjjxgtapf9)" points="22,24,156,24,163,46.2969,464,46.2969,464,287,22,287,22,24" style="stroke: #000000; stroke-width: 1.5;"/><line style="stroke: #000000; stroke-width: 1.5;" x1="22" x2="163" y1="46.2969" y2="46.2969"/><text fill="#000000" font-family="sans-serif" font-size="14" font-weight="bold" lengthAdjust="spacingAndGlyphs" textLength="128" x="26" y="38.9951">com.vaadin.flow</text><!--cluster server--><polygon fill="#FFFFFF" filter="url(#fg0kjjxgtapf9)" points="290,169.5,348,169.5,355,191.7969,440,191.7969,440,252.5,290,252.5,290,169.5" style="stroke: #000000; stroke-width: 1.5;"/><line style="stroke: #000000; stroke-width: 1.5;" x1="290" x2="355" y1="191.7969" y2="191.7969"/><text fill="#000000" font-family="sans-serif" font-size="14" font-weight="bold" lengthAdjust="spacingAndGlyphs" textLength="52" x="294" y="184.4951">server</text><!--cluster component--><polygon fill="#FFFFFF" filter="url(#fg0kjjxgtapf9)" points="46,67,141,67,148,89.2969,266,89.2969,266,263,46,263,46,67" style="stroke: #000000; stroke-width: 1.5;"/><line style="stroke: #000000; stroke-width: 1.5;" x1="46" x2="148" y1="89.2969" y2="89.2969"/><text fill="#000000" font-family="sans-serif" font-size="14" font-weight="bold" lengthAdjust="spacingAndGlyphs" textLength="89" x="50" y="81.9951">component</text><!--class VaadinServlet--><rect fill="#FEFECE" filter="url(#fg0kjjxgtapf9)" height="32" id="VaadinServlet" style="stroke: #A80036; stroke-width: 1.5;" width="118" x="306" y="204.5"/><ellipse cx="321" cy="220.5" fill="#ADD1B2" rx="11" ry="11" style="stroke: #A80036; stroke-width: 1.0;"/><path d="M323.3438,216.1719 L323.5156,216.25 C323.7344,215.9375 323.9375,215.8438 324.2344,215.8438 C324.5313,215.8438 324.8125,215.9844 324.9688,216.25 C325.0625,216.4063 325.0781,216.5313 325.0781,216.9688 L325.0781,218.3906 C325.0781,218.8125 325.0469,219 324.9375,219.1563 C324.7656,219.375 324.5,219.5156 324.2344,219.5156 C324.0156,219.5156 323.7813,219.4063 323.6406,219.2656 C323.5,219.1406 323.4688,219.0156 323.4063,218.6094 C323.3125,218.2031 323.1406,217.9844 322.6563,217.7031 C322.1875,217.4531 321.5781,217.2969 321,217.2969 C319.2656,217.2969 318.0156,218.6094 318.0156,220.3906 L318.0156,221.4844 C318.0156,223.1875 319.3125,224.2813 321.3594,224.2813 C322.125,224.2813 322.8125,224.1563 323.2344,223.8906 C323.4219,223.7969 323.4219,223.7969 323.875,223.3125 C324.0625,223.125 324.2656,223.0469 324.4844,223.0469 C324.9531,223.0469 325.3438,223.4375 325.3438,223.8906 C325.3438,224.2813 325.0156,224.7344 324.4375,225.1406 C323.6875,225.6875 322.5313,225.9844 321.3125,225.9844 C318.4219,225.9844 316.3125,224.0938 316.3125,221.5156 L316.3125,220.3906 C316.3125,217.6719 318.3125,215.5938 320.9375,215.5938 C321.8125,215.5938 322.4063,215.7344 323.3438,216.1719 Z "/><text fill="#000000" font-family="sans-serif" font-size="12" lengthAdjust="spacingAndGlyphs" textLength="86" x="335" y="224.6543">VaadinServlet</text><!--class UI--><rect fill="#FEFECE" filter="url(#fg0kjjxgtapf9)" height="52.8047" id="UI" style="stroke: #A80036; stroke-width: 1.5;" width="187" x="62.5" y="194"/><ellipse cx="145.75" cy="210" fill="#ADD1B2" rx="11" ry="11" style="stroke: #A80036; stroke-width: 1.0;"/><path d="M148.0938,205.6719 L148.2656,205.75 C148.4844,205.4375 148.6875,205.3438 148.9844,205.3438 C149.2813,205.3438 149.5625,205.4844 149.7188,205.75 C149.8125,205.9063 149.8281,206.0313 149.8281,206.4688 L149.8281,207.8906 C149.8281,208.3125 149.7969,208.5 149.6875,208.6563 C149.5156,208.875 149.25,209.0156 148.9844,209.0156 C148.7656,209.0156 148.5313,208.9063 148.3906,208.7656 C148.25,208.6406 148.2188,208.5156 148.1563,208.1094 C148.0625,207.7031 147.8906,207.4844 147.4063,207.2031 C146.9375,206.9531 146.3281,206.7969 145.75,206.7969 C144.0156,206.7969 142.7656,208.1094 142.7656,209.8906 L142.7656,210.9844 C142.7656,212.6875 144.0625,213.7813 146.1094,213.7813 C146.875,213.7813 147.5625,213.6563 147.9844,213.3906 C148.1719,213.2969 148.1719,213.2969 148.625,212.8125 C148.8125,212.625 149.0156,212.5469 149.2344,212.5469 C149.7031,212.5469 150.0938,212.9375 150.0938,213.3906 C150.0938,213.7813 149.7656,214.2344 149.1875,214.6406 C148.4375,215.1875 147.2813,215.4844 146.0625,215.4844 C143.1719,215.4844 141.0625,213.5938 141.0625,211.0156 L141.0625,209.8906 C141.0625,207.1719 143.0625,205.0938 145.6875,205.0938 C146.5625,205.0938 147.1563,205.2344 148.0938,205.6719 Z "/><text fill="#000000" font-family="sans-serif" font-size="12" lengthAdjust="spacingAndGlyphs" textLength="12" x="166.25" y="214.1543">UI</text><line style="stroke: #A80036; stroke-width: 1.5;" x1="63.5" x2="248.5" y1="226" y2="226"/><polygon fill="#FFFF44" points="73.5,232.9023,77.5,236.9023,73.5,240.9023,69.5,236.9023" style="stroke: #B38D22; stroke-width: 1.0;"/><text fill="#000000" font-family="sans-serif" font-size="11" lengthAdjust="spacingAndGlyphs" textLength="161" x="82.5" y="240.2104">init(request: VaadinRequest)</text><!--class Component--><rect fill="#FEFECE" filter="url(#fg0kjjxgtapf9)" height="32" id="Component" style="stroke: #A80036; stroke-width: 1.5;" width="104" x="104" y="102"/><ellipse cx="119" cy="118" fill="#A9DCDF" rx="11" ry="11" style="stroke: #A80036; stroke-width: 1.0;"/><path d="M120.5781,119.8125 L116.5313,119.8125 L116.1406,120.7969 L116.5313,120.7969 C116.9844,120.7969 117.125,120.8281 117.2969,120.9531 C117.5156,121.125 117.6406,121.375 117.6406,121.6563 C117.6406,121.9375 117.5,122.2344 117.2344,122.375 C117.1094,122.4688 116.8906,122.5 116.5313,122.5 L114.2656,122.5 C113.5156,122.5 113.1406,122.2188 113.1406,121.6563 C113.1406,121.3594 113.2969,121.0781 113.5469,120.9219 C113.7031,120.8125 113.8594,120.7969 114.2813,120.7969 L116.9219,114.2813 L115.8438,114.2813 C115.4063,114.2813 115.2344,114.25 115.0625,114.1406 C114.8438,113.9688 114.7031,113.7188 114.7031,113.4375 C114.7031,113.1563 114.8594,112.875 115.1094,112.7031 C115.2656,112.6094 115.3906,112.5938 115.8438,112.5938 L119.5156,112.5938 L122.9063,120.7969 C123.375,120.7969 123.5313,120.8281 123.7031,120.9688 C123.9219,121.125 124.0625,121.375 124.0625,121.6563 C124.0625,121.9375 123.9063,122.2344 123.6563,122.375 C123.5156,122.4688 123.2969,122.5 122.9375,122.5 L120.5781,122.5 C120.1563,122.5 119.9531,122.4531 119.8125,122.3281 C119.5938,122.1719 119.4531,121.9219 119.4531,121.6563 C119.4531,121.3594 119.6094,121.0781 119.8594,120.9219 C120.0156,120.8125 120.125,120.7969 120.5781,120.7969 L120.9688,120.7969 Z M119.875,118.1094 L118.5469,114.8438 L117.2031,118.1094 Z "/><text fill="#000000" font-family="sans-serif" font-size="12" font-style="italic" lengthAdjust="spacingAndGlyphs" textLength="72" x="133" y="122.1543">Component</text><!--link Component to UI--><path d="M156,154.638 C156,167.603 156,181.989 156,193.912 " fill="none" id="Component-UI" style="stroke: #A80036; stroke-width: 1.0;"/><polygon fill="none" points="149,154.264,156,134.264,163,154.264,149,154.264" style="stroke: #A80036; stroke-width: 1.0;"/><!--link UI to VaadinServlet--><path d="M255.114,220.5 C271.958,220.5 288.801,220.5 305.645,220.5 " fill="none" id="UI-VaadinServlet" style="stroke: #A80036; stroke-width: 1.0; stroke-dasharray: 7.0,7.0;"/><polygon fill="#A80036" points="249.887,220.5,258.887,224.5,254.887,220.5,258.887,216.5,249.887,220.5" style="stroke: #A80036; stroke-width: 1.0;"/><!--
@startuml
package "com.vaadin.flow" {
 package server {
  class VaadinServlet
 }
 package component {
  class UI {
   # init(request: VaadinRequest)
  }
  abstract class Component
  UI -up-|> Component
 }
 VaadinServlet .left.> UI
}
hide empty members
@enduml

PlantUML version 1.2018.08(Sun Jun 24 12:31:00 UTC 2018)
(GPL source distribution)
Java Runtime: Java(TM) SE Runtime Environment
JVM: Java HotSpot(TM) 64-Bit Server VM
Java Version: 1.7.0_25-b15
Operating System: Linux
Default Encoding: UTF-8
Language: en
Country: US
--></g></svg>