<?xml version="1.0" encoding="UTF-8" standalone="no"?><svg xmlns="http://www.w3.org/2000/svg" xmlns:xlink="http://www.w3.org/1999/xlink" contentScriptType="application/ecmascript" contentStyleType="text/css" height="626px" preserveAspectRatio="xMidYMid" style="width:1184px;height:626px;" version="1.1" viewBox="0 0 1184 626" width="1184px" zoomAndPan="magnify"><defs><filter height="300%" id="f1wilzhy1p0iq7" width="300%" x="-1" y="-1"><feGaussianBlur result="blurOut" stdDeviation="2.0"/><feColorMatrix in="blurOut" result="blurOut2" type="matrix" values="0 0 0 0 0 0 0 0 0 0 0 0 0 0 0 0 0 0 .4 0"/><feOffset dx="4.0" dy="4.0" in="blurOut2" result="blurOut3"/><feBlend in="SourceGraphic" in2="blurOut3" mode="normal"/></filter></defs><g><!--cluster com.vaadin.flow.data.binder--><polygon fill="#FFFFFF" filter="url(#f1wilzhy1p0iq7)" points="22,131,251,131,258,153.2969,1162,153.2969,1162,614,22,614,22,131" style="stroke: #000000; stroke-width: 1.5;"/><line style="stroke: #000000; stroke-width: 1.5;" x1="22" x2="258" y1="153.2969" y2="153.2969"/><text fill="#000000" font-family="sans-serif" font-size="14" font-weight="bold" lengthAdjust="spacingAndGlyphs" textLength="223" x="26" y="145.9951">com.vaadin.flow.data.binder</text><!--cluster java.util.function--><polygon fill="#FFFFFF" filter="url(#f1wilzhy1p0iq7)" points="614,24,750,24,757,46.2969,932,46.2969,932,107,614,107,614,24" style="stroke: #000000; stroke-width: 1.5;"/><line style="stroke: #000000; stroke-width: 1.5;" x1="614" x2="757" y1="46.2969" y2="46.2969"/><text fill="#000000" font-family="sans-serif" font-size="14" font-weight="bold" lengthAdjust="spacingAndGlyphs" textLength="130" x="618" y="38.9951">java.util.function</text><!--class HasValidator--><rect fill="#FEFECE" filter="url(#f1wilzhy1p0iq7)" height="32" id="HasValidator" style="stroke: #A80036; stroke-width: 1.5;" width="111" x="38.5" y="202"/><ellipse cx="53.5" cy="218" fill="#B4A7E5" rx="11" ry="11" style="stroke: #A80036; stroke-width: 1.0;"/><path d="M54.4531,214.7813 L54.4531,221.2969 L56.1719,221.2969 C56.625,221.2969 56.7656,221.3281 56.9375,221.4531 C57.1719,221.625 57.2813,221.875 57.2813,222.1563 C57.2813,222.7188 56.9219,223 56.1719,223 L51.0313,223 C50.625,223 50.4219,222.9531 50.2656,222.8281 C50.0469,222.6719 49.9063,222.4063 49.9063,222.1563 C49.9063,221.8594 50.0625,221.5781 50.3125,221.4219 C50.4688,221.3125 50.5938,221.2969 51.0313,221.2969 L52.75,221.2969 L52.75,214.7813 L51.0313,214.7813 C50.6094,214.7813 50.4219,214.75 50.2656,214.6406 C50.0469,214.4688 49.9063,214.2188 49.9063,213.9375 C49.9063,213.6563 50.0625,213.3594 50.3125,213.2031 C50.4688,213.1094 50.5938,213.0938 51.0313,213.0938 L56.1719,213.0938 C56.625,213.0938 56.7656,213.125 56.9375,213.2344 C57.1719,213.4063 57.2813,213.6719 57.2813,213.9375 C57.2813,214.2344 57.1406,214.5156 56.875,214.6719 C56.75,214.75 56.5625,214.7813 56.1719,214.7813 Z "/><text fill="#000000" font-family="sans-serif" font-size="12" font-style="italic" lengthAdjust="spacingAndGlyphs" textLength="79" x="67.5" y="222.1543">HasValidator</text><!--class Validator--><rect fill="#FEFECE" filter="url(#f1wilzhy1p0iq7)" height="104.0234" id="Validator" style="stroke: #A80036; stroke-width: 1.5;" width="694" x="185" y="166"/><ellipse cx="494.25" cy="182" fill="#B4A7E5" rx="11" ry="11" style="stroke: #A80036; stroke-width: 1.0;"/><path d="M495.2031,178.7813 L495.2031,185.2969 L496.9219,185.2969 C497.375,185.2969 497.5156,185.3281 497.6875,185.4531 C497.9219,185.625 498.0313,185.875 498.0313,186.1563 C498.0313,186.7188 497.6719,187 496.9219,187 L491.7813,187 C491.375,187 491.1719,186.9531 491.0156,186.8281 C490.7969,186.6719 490.6563,186.4063 490.6563,186.1563 C490.6563,185.8594 490.8125,185.5781 491.0625,185.4219 C491.2188,185.3125 491.3438,185.2969 491.7813,185.2969 L493.5,185.2969 L493.5,178.7813 L491.7813,178.7813 C491.3594,178.7813 491.1719,178.75 491.0156,178.6406 C490.7969,178.4688 490.6563,178.2188 490.6563,177.9375 C490.6563,177.6563 490.8125,177.3594 491.0625,177.2031 C491.2188,177.1094 491.3438,177.0938 491.7813,177.0938 L496.9219,177.0938 C497.375,177.0938 497.5156,177.125 497.6875,177.2344 C497.9219,177.4063 498.0313,177.6719 498.0313,177.9375 C498.0313,178.2344 497.8906,178.5156 497.625,178.6719 C497.5,178.75 497.3125,178.7813 496.9219,178.7813 Z "/><text fill="#000000" font-family="sans-serif" font-size="12" font-style="italic" lengthAdjust="spacingAndGlyphs" textLength="56" x="514.75" y="186.1543">Validator</text><rect fill="#FFFFFF" height="15.9688" style="stroke: #000000; stroke-width: 1.0; stroke-dasharray: 2.0,2.0;" width="9" x="873" y="163"/><text fill="#000000" font-family="sans-serif" font-size="12" font-style="italic" lengthAdjust="spacingAndGlyphs" textLength="7" x="874" y="175.1387">T</text><line style="stroke: #A80036; stroke-width: 1.5;" x1="186" x2="878" y1="198" y2="198"/><ellipse cx="196" cy="209.9023" fill="#84BE84" rx="3" ry="3" style="stroke: #038048; stroke-width: 1.0;"/><text fill="#000000" font-family="sans-serif" font-size="11" lengthAdjust="spacingAndGlyphs" text-decoration="underline" textLength="536" x="205" y="212.2104">&lt;T&gt; from(guard: Predicate&lt;T&gt;, errorMessageProvider: ErrorMessageProvider): Validator&lt;T&gt;</text><line style="stroke: #000000; stroke-width: 1.0;" x1="205" x2="741" y1="214.2104" y2="214.2104"/><ellipse cx="196" cy="222.707" fill="#84BE84" rx="3" ry="3" style="stroke: #038048; stroke-width: 1.0;"/><text fill="#000000" font-family="sans-serif" font-size="11" lengthAdjust="spacingAndGlyphs" text-decoration="underline" textLength="668" x="205" y="225.0151">&lt;T&gt; from(guard: Predicate&lt;T&gt;, errorMessageProvider: ErrorMessageProvider, errorLevel: ErrorLevel): Validator&lt;T&gt;</text><line style="stroke: #000000; stroke-width: 1.0;" x1="205" x2="873" y1="227.0151" y2="227.0151"/><ellipse cx="196" cy="235.5117" fill="#84BE84" rx="3" ry="3" style="stroke: #038048; stroke-width: 1.0;"/><text fill="#000000" font-family="sans-serif" font-size="11" lengthAdjust="spacingAndGlyphs" text-decoration="underline" textLength="396" x="205" y="237.8198">&lt;T&gt; from(guard: Predicate&lt;T&gt;, errorMessage: String): Validator&lt;T&gt;</text><line style="stroke: #000000; stroke-width: 1.0;" x1="205" x2="601" y1="239.8198" y2="239.8198"/><ellipse cx="196" cy="248.3164" fill="#84BE84" rx="3" ry="3" style="stroke: #038048; stroke-width: 1.0;"/><text fill="#000000" font-family="sans-serif" font-size="11" lengthAdjust="spacingAndGlyphs" text-decoration="underline" textLength="528" x="205" y="250.6245">&lt;T&gt; from(guard: Predicate&lt;T&gt;, errorMessage: String, errorLevel: ErrorLevel): Validator&lt;T&gt;</text><line style="stroke: #000000; stroke-width: 1.0;" x1="205" x2="733" y1="252.6245" y2="252.6245"/><ellipse cx="196" cy="261.1211" fill="#84BE84" rx="3" ry="3" style="stroke: #038048; stroke-width: 1.0;"/><text fill="#000000" font-family="sans-serif" font-size="11" font-style="italic" lengthAdjust="spacingAndGlyphs" textLength="318" x="205" y="263.4292">apply(value: T, context: ValueContext): ValidationResult</text><!--class ErrorLevel--><rect fill="#FEFECE" filter="url(#f1wilzhy1p0iq7)" height="104.0234" id="ErrorLevel" style="stroke: #A80036; stroke-width: 1.5;" width="94" x="485" y="330"/><ellipse cx="500" cy="346" fill="#EB937F" rx="11" ry="11" style="stroke: #A80036; stroke-width: 1.0;"/><path d="M498.2969,346.875 L498.2969,349.2969 L502.6563,349.2969 L502.6563,348.4219 C502.6563,347.9375 502.6875,347.7969 502.7969,347.6406 C502.9688,347.3906 503.2344,347.2813 503.5,347.2813 C503.7813,347.2813 504.0625,347.4375 504.2344,347.6875 C504.3125,347.8438 504.3438,347.9844 504.3438,348.4219 L504.3438,351 L496.3438,351 C495.9531,351 495.7188,350.9531 495.5781,350.8281 C495.3594,350.6719 495.2188,350.4219 495.2188,350.1563 C495.2188,349.8594 495.375,349.5938 495.625,349.4219 C495.7813,349.3125 495.9375,349.2969 496.3438,349.2969 L496.5938,349.2969 L496.5938,342.7813 L496.3438,342.7813 C495.9219,342.7813 495.7344,342.75 495.5781,342.6406 C495.3594,342.4688 495.2188,342.2188 495.2188,341.9375 C495.2188,341.6563 495.375,341.3594 495.625,341.2031 C495.7813,341.1094 495.9063,341.0938 496.3438,341.0938 L503.9688,341.0938 L503.9688,343.6406 C503.9688,344.1094 503.9375,344.25 503.8281,344.4219 C503.6563,344.6406 503.3906,344.7813 503.125,344.7813 C502.8438,344.7813 502.5625,344.625 502.3906,344.375 C502.3125,344.2188 502.2813,344.0469 502.2813,343.6406 L502.2813,342.7813 L498.2969,342.7813 L498.2969,345.1875 L499.75,345.1875 L499.75,345.0625 C499.75,344.6094 499.7813,344.4531 499.8906,344.2813 C500.0625,344.0625 500.3281,343.9219 500.5781,343.9219 C501.0313,343.9219 501.3438,344.2344 501.4063,344.7031 C501.4219,344.8594 501.4219,344.9063 501.4219,345.0625 L501.4219,346.9844 C501.4219,347.4375 501.3906,347.5938 501.2656,347.75 C501.1094,347.9688 500.8438,348.1094 500.5938,348.1094 C500.2969,348.1094 500.0156,347.9531 499.8594,347.7031 C499.7813,347.5469 499.75,347.3906 499.75,346.9844 L499.75,346.875 Z "/><text fill="#000000" font-family="sans-serif" font-size="12" lengthAdjust="spacingAndGlyphs" textLength="62" x="514" y="350.1543">ErrorLevel</text><line style="stroke: #A80036; stroke-width: 1.5;" x1="486" x2="578" y1="362" y2="362"/><ellipse cx="496" cy="373.9023" fill="none" rx="3" ry="3" style="stroke: #038048; stroke-width: 1.0;"/><text fill="#000000" font-family="sans-serif" font-size="11" lengthAdjust="spacingAndGlyphs" text-decoration="underline" textLength="26" x="505" y="376.2104">INFO</text><line style="stroke: #000000; stroke-width: 1.0;" x1="505" x2="531" y1="378.2104" y2="378.2104"/><ellipse cx="496" cy="386.707" fill="none" rx="3" ry="3" style="stroke: #038048; stroke-width: 1.0;"/><text fill="#000000" font-family="sans-serif" font-size="11" lengthAdjust="spacingAndGlyphs" text-decoration="underline" textLength="51" x="505" y="389.0151">WARNING</text><line style="stroke: #000000; stroke-width: 1.0;" x1="505" x2="556" y1="391.0151" y2="391.0151"/><ellipse cx="496" cy="399.5117" fill="none" rx="3" ry="3" style="stroke: #038048; stroke-width: 1.0;"/><text fill="#000000" font-family="sans-serif" font-size="11" lengthAdjust="spacingAndGlyphs" text-decoration="underline" textLength="37" x="505" y="401.8198">ERROR</text><line style="stroke: #000000; stroke-width: 1.0;" x1="505" x2="542" y1="403.8198" y2="403.8198"/><ellipse cx="496" cy="412.3164" fill="none" rx="3" ry="3" style="stroke: #038048; stroke-width: 1.0;"/><text fill="#000000" font-family="sans-serif" font-size="11" lengthAdjust="spacingAndGlyphs" text-decoration="underline" textLength="49" x="505" y="414.6245">CRITICAL</text><line style="stroke: #000000; stroke-width: 1.0;" x1="505" x2="554" y1="416.6245" y2="416.6245"/><ellipse cx="496" cy="425.1211" fill="none" rx="3" ry="3" style="stroke: #038048; stroke-width: 1.0;"/><text fill="#000000" font-family="sans-serif" font-size="11" lengthAdjust="spacingAndGlyphs" text-decoration="underline" textLength="46" x="505" y="427.4292">SYSTEM</text><line style="stroke: #000000; stroke-width: 1.0;" x1="505" x2="551" y1="429.4292" y2="429.4292"/><!--class ValidationResult--><rect fill="#FEFECE" filter="url(#f1wilzhy1p0iq7)" height="104.0234" id="ValidationResult" style="stroke: #A80036; stroke-width: 1.5;" width="422" x="321" y="494"/><ellipse cx="477.75" cy="510" fill="#B4A7E5" rx="11" ry="11" style="stroke: #A80036; stroke-width: 1.0;"/><path d="M478.7031,506.7813 L478.7031,513.2969 L480.4219,513.2969 C480.875,513.2969 481.0156,513.3281 481.1875,513.4531 C481.4219,513.625 481.5313,513.875 481.5313,514.1563 C481.5313,514.7188 481.1719,515 480.4219,515 L475.2813,515 C474.875,515 474.6719,514.9531 474.5156,514.8281 C474.2969,514.6719 474.1563,514.4063 474.1563,514.1563 C474.1563,513.8594 474.3125,513.5781 474.5625,513.4219 C474.7188,513.3125 474.8438,513.2969 475.2813,513.2969 L477,513.2969 L477,506.7813 L475.2813,506.7813 C474.8594,506.7813 474.6719,506.75 474.5156,506.6406 C474.2969,506.4688 474.1563,506.2188 474.1563,505.9375 C474.1563,505.6563 474.3125,505.3594 474.5625,505.2031 C474.7188,505.1094 474.8438,505.0938 475.2813,505.0938 L480.4219,505.0938 C480.875,505.0938 481.0156,505.125 481.1875,505.2344 C481.4219,505.4063 481.5313,505.6719 481.5313,505.9375 C481.5313,506.2344 481.3906,506.5156 481.125,506.6719 C481,506.75 480.8125,506.7813 480.4219,506.7813 Z "/><text fill="#000000" font-family="sans-serif" font-size="12" font-style="italic" lengthAdjust="spacingAndGlyphs" textLength="100" x="498.25" y="514.1543">ValidationResult</text><line style="stroke: #A80036; stroke-width: 1.5;" x1="322" x2="742" y1="526" y2="526"/><ellipse cx="332" cy="537.9023" fill="#84BE84" rx="3" ry="3" style="stroke: #038048; stroke-width: 1.0;"/><text fill="#000000" font-family="sans-serif" font-size="11" lengthAdjust="spacingAndGlyphs" text-decoration="underline" textLength="396" x="341" y="540.2104">create(errorMessage: String, errorLevel: ErrorLevel): ValidationResult</text><line style="stroke: #000000; stroke-width: 1.0;" x1="341" x2="737" y1="542.2104" y2="542.2104"/><ellipse cx="332" cy="550.707" fill="#84BE84" rx="3" ry="3" style="stroke: #038048; stroke-width: 1.0;"/><text fill="#000000" font-family="sans-serif" font-size="11" lengthAdjust="spacingAndGlyphs" text-decoration="underline" textLength="257" x="341" y="553.0151">error(errorMessage: String): ValidationResult</text><line style="stroke: #000000; stroke-width: 1.0;" x1="341" x2="598" y1="555.0151" y2="555.0151"/><ellipse cx="332" cy="563.5117" fill="#84BE84" rx="3" ry="3" style="stroke: #038048; stroke-width: 1.0;"/><text fill="#000000" font-family="sans-serif" font-size="11" lengthAdjust="spacingAndGlyphs" text-decoration="underline" textLength="119" x="341" y="565.8198">ok(): ValidationResult</text><line style="stroke: #000000; stroke-width: 1.0;" x1="341" x2="460" y1="567.8198" y2="567.8198"/><ellipse cx="332" cy="576.3164" fill="#84BE84" rx="3" ry="3" style="stroke: #038048; stroke-width: 1.0;"/><text fill="#000000" font-family="sans-serif" font-size="11" font-style="italic" lengthAdjust="spacingAndGlyphs" textLength="217" x="341" y="578.6245">getErrorLevel(): Optional&lt;ErrorLevel&gt;</text><ellipse cx="332" cy="589.1211" fill="#84BE84" rx="3" ry="3" style="stroke: #038048; stroke-width: 1.0;"/><text fill="#000000" font-family="sans-serif" font-size="11" font-style="italic" lengthAdjust="spacingAndGlyphs" textLength="145" x="341" y="591.4292">getErrorMessage(): String</text><!--class ErrorMessageProvider--><rect fill="#FEFECE" filter="url(#f1wilzhy1p0iq7)" height="52.8047" id="ErrorMessageProvider" style="stroke: #A80036; stroke-width: 1.5;" width="232" x="914" y="191.5"/><ellipse cx="958.25" cy="207.5" fill="#B4A7E5" rx="11" ry="11" style="stroke: #A80036; stroke-width: 1.0;"/><path d="M959.2031,204.2813 L959.2031,210.7969 L960.9219,210.7969 C961.375,210.7969 961.5156,210.8281 961.6875,210.9531 C961.9219,211.125 962.0313,211.375 962.0313,211.6563 C962.0313,212.2188 961.6719,212.5 960.9219,212.5 L955.7813,212.5 C955.375,212.5 955.1719,212.4531 955.0156,212.3281 C954.7969,212.1719 954.6563,211.9063 954.6563,211.6563 C954.6563,211.3594 954.8125,211.0781 955.0625,210.9219 C955.2188,210.8125 955.3438,210.7969 955.7813,210.7969 L957.5,210.7969 L957.5,204.2813 L955.7813,204.2813 C955.3594,204.2813 955.1719,204.25 955.0156,204.1406 C954.7969,203.9688 954.6563,203.7188 954.6563,203.4375 C954.6563,203.1563 954.8125,202.8594 955.0625,202.7031 C955.2188,202.6094 955.3438,202.5938 955.7813,202.5938 L960.9219,202.5938 C961.375,202.5938 961.5156,202.625 961.6875,202.7344 C961.9219,202.9063 962.0313,203.1719 962.0313,203.4375 C962.0313,203.7344 961.8906,204.0156 961.625,204.1719 C961.5,204.25 961.3125,204.2813 960.9219,204.2813 Z "/><text fill="#000000" font-family="sans-serif" font-size="12" font-style="italic" lengthAdjust="spacingAndGlyphs" textLength="135" x="978.75" y="211.6543">ErrorMessageProvider</text><line style="stroke: #A80036; stroke-width: 1.5;" x1="915" x2="1145" y1="223.5" y2="223.5"/><ellipse cx="925" cy="235.4023" fill="#84BE84" rx="3" ry="3" style="stroke: #038048; stroke-width: 1.0;"/><text fill="#000000" font-family="sans-serif" font-size="11" font-style="italic" lengthAdjust="spacingAndGlyphs" textLength="206" x="934" y="237.7104">apply(context: ValueContext): String</text><!--class ValueContext--><rect fill="#FEFECE" filter="url(#f1wilzhy1p0iq7)" height="78.4141" id="ValueContext" style="stroke: #A80036; stroke-width: 1.5;" width="177" x="941.5" y="343"/><ellipse cx="984.4" cy="359" fill="#ADD1B2" rx="11" ry="11" style="stroke: #A80036; stroke-width: 1.0;"/><path d="M986.7438,354.6719 L986.9156,354.75 C987.1344,354.4375 987.3375,354.3438 987.6344,354.3438 C987.9313,354.3438 988.2125,354.4844 988.3688,354.75 C988.4625,354.9063 988.4781,355.0313 988.4781,355.4688 L988.4781,356.8906 C988.4781,357.3125 988.4469,357.5 988.3375,357.6563 C988.1656,357.875 987.9,358.0156 987.6344,358.0156 C987.4156,358.0156 987.1813,357.9063 987.0406,357.7656 C986.9,357.6406 986.8688,357.5156 986.8063,357.1094 C986.7125,356.7031 986.5406,356.4844 986.0563,356.2031 C985.5875,355.9531 984.9781,355.7969 984.4,355.7969 C982.6656,355.7969 981.4156,357.1094 981.4156,358.8906 L981.4156,359.9844 C981.4156,361.6875 982.7125,362.7813 984.7594,362.7813 C985.525,362.7813 986.2125,362.6563 986.6344,362.3906 C986.8219,362.2969 986.8219,362.2969 987.275,361.8125 C987.4625,361.625 987.6656,361.5469 987.8844,361.5469 C988.3531,361.5469 988.7438,361.9375 988.7438,362.3906 C988.7438,362.7813 988.4156,363.2344 987.8375,363.6406 C987.0875,364.1875 985.9313,364.4844 984.7125,364.4844 C981.8219,364.4844 979.7125,362.5938 979.7125,360.0156 L979.7125,358.8906 C979.7125,356.1719 981.7125,354.0938 984.3375,354.0938 C985.2125,354.0938 985.8063,354.2344 986.7438,354.6719 Z "/><text fill="#000000" font-family="sans-serif" font-size="12" lengthAdjust="spacingAndGlyphs" textLength="83" x="1004.6" y="363.1543">ValueContext</text><line style="stroke: #A80036; stroke-width: 1.5;" x1="942.5" x2="1117.5" y1="375" y2="375"/><rect fill="none" height="6" style="stroke: #C82930; stroke-width: 1.0;" width="6" x="949.5" y="383.9023"/><text fill="#000000" font-family="sans-serif" font-size="11" lengthAdjust="spacingAndGlyphs" textLength="136" x="961.5" y="389.2104">component: Component</text><rect fill="none" height="6" style="stroke: #C82930; stroke-width: 1.0;" width="6" x="949.5" y="396.707"/><text fill="#000000" font-family="sans-serif" font-size="11" lengthAdjust="spacingAndGlyphs" textLength="151" x="961.5" y="402.0151">hasValue: HasValue&lt;?, ?&gt;</text><rect fill="none" height="6" style="stroke: #C82930; stroke-width: 1.0;" width="6" x="949.5" y="409.5117"/><text fill="#000000" font-family="sans-serif" font-size="11" lengthAdjust="spacingAndGlyphs" textLength="77" x="961.5" y="414.8198">locale: Locale</text><!--class BiFunction--><rect fill="#FEFECE" filter="url(#f1wilzhy1p0iq7)" height="32" id="BiFunction" style="stroke: #A80036; stroke-width: 1.5;" width="141" x="630.5" y="59"/><ellipse cx="645.5" cy="75" fill="#B4A7E5" rx="11" ry="11" style="stroke: #A80036; stroke-width: 1.0;"/><path d="M646.4531,71.7813 L646.4531,78.2969 L648.1719,78.2969 C648.625,78.2969 648.7656,78.3281 648.9375,78.4531 C649.1719,78.625 649.2813,78.875 649.2813,79.1563 C649.2813,79.7188 648.9219,80 648.1719,80 L643.0313,80 C642.625,80 642.4219,79.9531 642.2656,79.8281 C642.0469,79.6719 641.9063,79.4063 641.9063,79.1563 C641.9063,78.8594 642.0625,78.5781 642.3125,78.4219 C642.4688,78.3125 642.5938,78.2969 643.0313,78.2969 L644.75,78.2969 L644.75,71.7813 L643.0313,71.7813 C642.6094,71.7813 642.4219,71.75 642.2656,71.6406 C642.0469,71.4688 641.9063,71.2188 641.9063,70.9375 C641.9063,70.6563 642.0625,70.3594 642.3125,70.2031 C642.4688,70.1094 642.5938,70.0938 643.0313,70.0938 L648.1719,70.0938 C648.625,70.0938 648.7656,70.125 648.9375,70.2344 C649.1719,70.4063 649.2813,70.6719 649.2813,70.9375 C649.2813,71.2344 649.1406,71.5156 648.875,71.6719 C648.75,71.75 648.5625,71.7813 648.1719,71.7813 Z "/><text fill="#000000" font-family="sans-serif" font-size="12" font-style="italic" lengthAdjust="spacingAndGlyphs" textLength="65" x="659.5" y="79.1543">BiFunction</text><rect fill="#FFFFFF" height="15.9688" style="stroke: #000000; stroke-width: 1.0; stroke-dasharray: 2.0,2.0;" width="42" x="732.5" y="56"/><text fill="#000000" font-family="sans-serif" font-size="12" font-style="italic" lengthAdjust="spacingAndGlyphs" textLength="40" x="733.5" y="68.1387">T, U, R</text><!--class Function--><rect fill="#FEFECE" filter="url(#f1wilzhy1p0iq7)" height="32" id="Function" style="stroke: #A80036; stroke-width: 1.5;" width="109" x="806.5" y="59"/><ellipse cx="821.5" cy="75" fill="#B4A7E5" rx="11" ry="11" style="stroke: #A80036; stroke-width: 1.0;"/><path d="M822.4531,71.7813 L822.4531,78.2969 L824.1719,78.2969 C824.625,78.2969 824.7656,78.3281 824.9375,78.4531 C825.1719,78.625 825.2813,78.875 825.2813,79.1563 C825.2813,79.7188 824.9219,80 824.1719,80 L819.0313,80 C818.625,80 818.4219,79.9531 818.2656,79.8281 C818.0469,79.6719 817.9063,79.4063 817.9063,79.1563 C817.9063,78.8594 818.0625,78.5781 818.3125,78.4219 C818.4688,78.3125 818.5938,78.2969 819.0313,78.2969 L820.75,78.2969 L820.75,71.7813 L819.0313,71.7813 C818.6094,71.7813 818.4219,71.75 818.2656,71.6406 C818.0469,71.4688 817.9063,71.2188 817.9063,70.9375 C817.9063,70.6563 818.0625,70.3594 818.3125,70.2031 C818.4688,70.1094 818.5938,70.0938 819.0313,70.0938 L824.1719,70.0938 C824.625,70.0938 824.7656,70.125 824.9375,70.2344 C825.1719,70.4063 825.2813,70.6719 825.2813,70.9375 C825.2813,71.2344 825.1406,71.5156 824.875,71.6719 C824.75,71.75 824.5625,71.7813 824.1719,71.7813 Z "/><text fill="#000000" font-family="sans-serif" font-size="12" font-style="italic" lengthAdjust="spacingAndGlyphs" textLength="54" x="835.5" y="79.1543">Function</text><rect fill="#FFFFFF" height="15.9688" style="stroke: #000000; stroke-width: 1.0; stroke-dasharray: 2.0,2.0;" width="21" x="897.5" y="56"/><text fill="#000000" font-family="sans-serif" font-size="12" font-style="italic" lengthAdjust="spacingAndGlyphs" textLength="19" x="898.5" y="68.1387">T,R</text><!--link BiFunction to Validator--><path d="M667.287,104.127 C646.169,121.746 618.323,144.979 593.386,165.784 " fill="none" id="BiFunction-Validator" style="stroke: #A80036; stroke-width: 1.0;"/><polygon fill="none" points="663.073,98.527,682.914,91.089,672.041,109.277,663.073,98.527" style="stroke: #A80036; stroke-width: 1.0;"/><!--link Function to ErrorMessageProvider--><path d="M894.797,104.198 C925.273,129.624 969.71,166.699 999.218,191.318 " fill="none" id="Function-ErrorMessageProvider" style="stroke: #A80036; stroke-width: 1.0;"/><polygon fill="none" points="889.959,109.277,879.086,91.089,898.927,98.527,889.959,109.277" style="stroke: #A80036; stroke-width: 1.0;"/><!--link HasValidator to Validator--><path d="M149.605,218 C159.569,218 169.534,218 179.498,218 " fill="none" id="HasValidator-Validator" style="stroke: #A80036; stroke-width: 1.0; stroke-dasharray: 7.0,7.0;"/><polygon fill="#A80036" points="184.708,218,175.708,214,179.708,218,175.708,222,184.708,218" style="stroke: #A80036; stroke-width: 1.0;"/><!--link Validator to ErrorMessageProvider--><path d="M879.238,218 C889.101,218 898.964,218 908.827,218 " fill="none" id="Validator-ErrorMessageProvider" style="stroke: #A80036; stroke-width: 1.0; stroke-dasharray: 7.0,7.0;"/><polygon fill="#A80036" points="913.984,218,904.984,214,908.984,218,904.984,222,913.984,218" style="stroke: #A80036; stroke-width: 1.0;"/><!--link Validator to ErrorLevel--><path d="M532,270.258 C532,287.479 532,306.784 532,324.392 " fill="none" id="Validator-ErrorLevel" style="stroke: #A80036; stroke-width: 1.0; stroke-dasharray: 7.0,7.0;"/><polygon fill="#A80036" points="532,329.798,536,320.798,532,324.798,528,320.798,532,329.798" style="stroke: #A80036; stroke-width: 1.0;"/><!--link ErrorLevel to ValidationResult--><path d="M532,439.665 C532,457.277 532,476.581 532,493.798 " fill="none" id="ErrorLevel-ValidationResult" style="stroke: #A80036; stroke-width: 1.0; stroke-dasharray: 7.0,7.0;"/><polygon fill="#A80036" points="532,434.258,528,443.258,532,439.258,536,443.258,532,434.258" style="stroke: #A80036; stroke-width: 1.0;"/><!--link ErrorMessageProvider to ValueContext--><path d="M1030,244.669 C1030,269.634 1030,308.03 1030,337.72 " fill="none" id="ErrorMessageProvider-ValueContext" style="stroke: #A80036; stroke-width: 1.0; stroke-dasharray: 7.0,7.0;"/><polygon fill="#A80036" points="1030,342.781,1034,333.781,1030,337.781,1026,333.781,1030,342.781" style="stroke: #A80036; stroke-width: 1.0;"/><!--
@startuml
package "com.vaadin.flow.data.binder" {
 interface HasValidator
 interface Validator<T> {
  + {static} <T> from(guard: Predicate<T>, errorMessageProvider: ErrorMessageProvider): Validator<T>
  + {static} <T> from(guard: Predicate<T>, errorMessageProvider: ErrorMessageProvider, errorLevel: ErrorLevel): Validator<T>
  + {static} <T> from(guard: Predicate<T>, errorMessage: String): Validator<T>
  + {static} <T> from(guard: Predicate<T>, errorMessage: String, errorLevel: ErrorLevel): Validator<T>
  + {abstract} apply(value: T, context: ValueContext): ValidationResult
 }
 enum ErrorLevel {
  + {static} INFO
  + {static} WARNING
  + {static} ERROR
  + {static} CRITICAL
  + {static} SYSTEM
 }
 interface ValidationResult {
  + {static}create(errorMessage: String, errorLevel: ErrorLevel): ValidationResult
  + {static}error(errorMessage: String): ValidationResult
  + {static}ok(): ValidationResult
  + {abstract} getErrorLevel(): Optional<ErrorLevel>
  + {abstract} getErrorMessage(): String
 }
 interface ErrorMessageProvider {
  + {abstract} apply(context: ValueContext): String
 }
 class ValueContext {
  - component: Component
  - hasValue: HasValue<?, ?>
  - locale: Locale
 }
}
package "java.util.function" {
 interface BiFunction<T, U, R>
 interface Function<T,R>
}
Validator -up-|> BiFunction
ErrorMessageProvider -up-|> Function
HasValidator .right.> Validator
Validator .right.> ErrorMessageProvider
Validator .down.> ErrorLevel
ValidationResult .up.> ErrorLevel
ErrorMessageProvider .down.> ValueContext
hide empty members
@enduml

PlantUML version 1.2018.08(Sun Jun 24 12:31:00 UTC 2018)
(GPL source distribution)
Java Runtime: Java(TM) SE Runtime Environment
JVM: Java HotSpot(TM) 64-Bit Server VM
Java Version: 1.7.0_25-b15
Operating System: Linux
Default Encoding: UTF-8
Language: en
Country: US
--></g></svg>