<?xml version="1.0" encoding="UTF-8" standalone="no"?><svg xmlns="http://www.w3.org/2000/svg" xmlns:xlink="http://www.w3.org/1999/xlink" contentScriptType="application/ecmascript" contentStyleType="text/css" preserveAspectRatio="none" version="1.1" viewBox="0 0 883 400" zoomAndPan="magnify"><defs><filter height="300%" id="f1fvjibqb7mndr" width="300%" x="-1" y="-1"><feGaussianBlur result="blurOut" stdDeviation="2.0"/><feColorMatrix in="blurOut" result="blurOut2" type="matrix" values="0 0 0 0 0 0 0 0 0 0 0 0 0 0 0 0 0 0 .4 0"/><feOffset dx="4.0" dy="4.0" in="blurOut2" result="blurOut3"/><feBlend in="SourceGraphic" in2="blurOut3" mode="normal"/></filter></defs><g><!--class ErrorMessage--><rect fill="#FEFECE" filter="url(#f1fvjibqb7mndr)" height="65.6094" id="ErrorMessage" style="stroke: #A80036; stroke-width: 1.5;" width="185" x="309" y="8"/><ellipse cx="354.75" cy="24" fill="#B4A7E5" rx="11" ry="11" style="stroke: #A80036; stroke-width: 1.0;"/><path d="M355.7031,20.7813 L355.7031,27.2969 L357.4219,27.2969 C357.875,27.2969 358.0156,27.3281 358.1875,27.4531 C358.4219,27.625 358.5313,27.875 358.5313,28.1563 C358.5313,28.7188 358.1719,29 357.4219,29 L352.2813,29 C351.875,29 351.6719,28.9531 351.5156,28.8281 C351.2969,28.6719 351.1563,28.4063 351.1563,28.1563 C351.1563,27.8594 351.3125,27.5781 351.5625,27.4219 C351.7188,27.3125 351.8438,27.2969 352.2813,27.2969 L354,27.2969 L354,20.7813 L352.2813,20.7813 C351.8594,20.7813 351.6719,20.75 351.5156,20.6406 C351.2969,20.4688 351.1563,20.2188 351.1563,19.9375 C351.1563,19.6563 351.3125,19.3594 351.5625,19.2031 C351.7188,19.1094 351.8438,19.0938 352.2813,19.0938 L357.4219,19.0938 C357.875,19.0938 358.0156,19.125 358.1875,19.2344 C358.4219,19.4063 358.5313,19.6719 358.5313,19.9375 C358.5313,20.2344 358.3906,20.5156 358.125,20.6719 C358,20.75 357.8125,20.7813 357.4219,20.7813 Z "/><text fill="#000000" font-family="sans-serif" font-size="12" font-style="italic" lengthAdjust="spacingAndGlyphs" textLength="85" x="375.25" y="28.1543">ErrorMessage</text><line style="stroke: #A80036; stroke-width: 1.5;" x1="310" x2="493" y1="40" y2="40"/><ellipse cx="320" cy="51.9023" fill="#84BE84" rx="3" ry="3" style="stroke: #038048; stroke-width: 1.0;"/><text fill="#000000" font-family="sans-serif" font-size="11" font-style="italic" lengthAdjust="spacingAndGlyphs" textLength="85" x="329" y="54.2104">getErrorLevel()</text><ellipse cx="320" cy="64.707" fill="#84BE84" rx="3" ry="3" style="stroke: #038048; stroke-width: 1.0;"/><text fill="#000000" font-family="sans-serif" font-size="11" font-style="italic" lengthAdjust="spacingAndGlyphs" textLength="159" x="329" y="67.0151">getFormattedHtmlMessage()</text><!--class AbstractErrorMessage--><rect fill="#FEFECE" filter="url(#f1fvjibqb7mndr)" height="129.6328" id="AbstractErrorMessage" style="stroke: #A80036; stroke-width: 1.5;" width="351" x="226" y="134"/><ellipse cx="328.75" cy="150" fill="#A9DCDF" rx="11" ry="11" style="stroke: #A80036; stroke-width: 1.0;"/><path d="M330.3281,151.8125 L326.2813,151.8125 L325.8906,152.7969 L326.2813,152.7969 C326.7344,152.7969 326.875,152.8281 327.0469,152.9531 C327.2656,153.125 327.3906,153.375 327.3906,153.6563 C327.3906,153.9375 327.25,154.2344 326.9844,154.375 C326.8594,154.4688 326.6406,154.5 326.2813,154.5 L324.0156,154.5 C323.2656,154.5 322.8906,154.2188 322.8906,153.6563 C322.8906,153.3594 323.0469,153.0781 323.2969,152.9219 C323.4531,152.8125 323.6094,152.7969 324.0313,152.7969 L326.6719,146.2813 L325.5938,146.2813 C325.1563,146.2813 324.9844,146.25 324.8125,146.1406 C324.5938,145.9688 324.4531,145.7188 324.4531,145.4375 C324.4531,145.1563 324.6094,144.875 324.8594,144.7031 C325.0156,144.6094 325.1406,144.5938 325.5938,144.5938 L329.2656,144.5938 L332.6563,152.7969 C333.125,152.7969 333.2813,152.8281 333.4531,152.9688 C333.6719,153.125 333.8125,153.375 333.8125,153.6563 C333.8125,153.9375 333.6563,154.2344 333.4063,154.375 C333.2656,154.4688 333.0469,154.5 332.6875,154.5 L330.3281,154.5 C329.9063,154.5 329.7031,154.4531 329.5625,154.3281 C329.3438,154.1719 329.2031,153.9219 329.2031,153.6563 C329.2031,153.3594 329.3594,153.0781 329.6094,152.9219 C329.7656,152.8125 329.875,152.7969 330.3281,152.7969 L330.7188,152.7969 Z M329.625,150.1094 L328.2969,146.8438 L326.9531,150.1094 Z "/><text fill="#000000" font-family="sans-serif" font-size="12" font-style="italic" lengthAdjust="spacingAndGlyphs" textLength="137" x="349.25" y="154.1543">AbstractErrorMessage</text><line style="stroke: #A80036; stroke-width: 1.5;" x1="227" x2="576" y1="166" y2="166"/><ellipse cx="237" cy="177.9023" fill="#84BE84" rx="3" ry="3" style="stroke: #038048; stroke-width: 1.0;"/><text fill="#000000" font-family="sans-serif" font-size="11" lengthAdjust="spacingAndGlyphs" text-decoration="underline" textLength="325" x="246" y="180.2104">getErrorMessageForException(t:Throwable)ErrorMessage</text><line style="stroke: #000000; stroke-width: 1.0;" x1="246" x2="571" y1="182.2104" y2="182.2104"/><polygon fill="#FFFF44" points="237,185.707,241,189.707,237,193.707,233,189.707" style="stroke: #B38D22; stroke-width: 1.0;"/><text fill="#000000" font-family="sans-serif" font-size="11" lengthAdjust="spacingAndGlyphs" textLength="198" x="246" y="193.0151">AbstractErrorMessage(msg:String)</text><polygon fill="#FFFF44" points="237,198.5117,241,202.5117,237,206.5117,233,202.5117" style="stroke: #B38D22; stroke-width: 1.0;"/><text fill="#000000" font-family="sans-serif" font-size="11" lengthAdjust="spacingAndGlyphs" textLength="183" x="246" y="205.8198">addCause(cause:ErrorMessage)</text><polygon fill="#FFFF44" points="237,211.3164,241,215.3164,237,219.3164,233,215.3164" style="stroke: #B38D22; stroke-width: 1.0;"/><text fill="#000000" font-family="sans-serif" font-size="11" lengthAdjust="spacingAndGlyphs" textLength="195" x="246" y="218.6245">getCauses(): List&lt;ErrorMessage&gt;</text><ellipse cx="237" cy="229.1211" fill="#84BE84" rx="3" ry="3" style="stroke: #038048; stroke-width: 1.0;"/><text fill="#000000" font-family="sans-serif" font-size="11" lengthAdjust="spacingAndGlyphs" textLength="199" x="246" y="231.4292">getFormattedHtmlMessage():String</text><ellipse cx="237" cy="241.9258" fill="#84BE84" rx="3" ry="3" style="stroke: #038048; stroke-width: 1.0;"/><text fill="#000000" font-family="sans-serif" font-size="11" lengthAdjust="spacingAndGlyphs" textLength="119" x="246" y="244.2339">getMessage(): String</text><polygon fill="#FFFF44" points="237,249.7305,241,253.7305,237,257.7305,233,253.7305" style="stroke: #B38D22; stroke-width: 1.0;"/><text fill="#000000" font-family="sans-serif" font-size="11" lengthAdjust="spacingAndGlyphs" textLength="172" x="246" y="257.0386">setErrorLevel(level:ErrorLevel)</text><!--class UserError--><rect fill="#FEFECE" filter="url(#f1fvjibqb7mndr)" height="65.6094" id="UserError" style="stroke: #A80036; stroke-width: 1.5;" width="467" x="7" y="324"/><ellipse cx="206.25" cy="340" fill="#ADD1B2" rx="11" ry="11" style="stroke: #A80036; stroke-width: 1.0;"/><path d="M208.5938,335.6719 L208.7656,335.75 C208.9844,335.4375 209.1875,335.3438 209.4844,335.3438 C209.7813,335.3438 210.0625,335.4844 210.2188,335.75 C210.3125,335.9063 210.3281,336.0313 210.3281,336.4688 L210.3281,337.8906 C210.3281,338.3125 210.2969,338.5 210.1875,338.6563 C210.0156,338.875 209.75,339.0156 209.4844,339.0156 C209.2656,339.0156 209.0313,338.9063 208.8906,338.7656 C208.75,338.6406 208.7188,338.5156 208.6563,338.1094 C208.5625,337.7031 208.3906,337.4844 207.9063,337.2031 C207.4375,336.9531 206.8281,336.7969 206.25,336.7969 C204.5156,336.7969 203.2656,338.1094 203.2656,339.8906 L203.2656,340.9844 C203.2656,342.6875 204.5625,343.7813 206.6094,343.7813 C207.375,343.7813 208.0625,343.6563 208.4844,343.3906 C208.6719,343.2969 208.6719,343.2969 209.125,342.8125 C209.3125,342.625 209.5156,342.5469 209.7344,342.5469 C210.2031,342.5469 210.5938,342.9375 210.5938,343.3906 C210.5938,343.7813 210.2656,344.2344 209.6875,344.6406 C208.9375,345.1875 207.7813,345.4844 206.5625,345.4844 C203.6719,345.4844 201.5625,343.5938 201.5625,341.0156 L201.5625,339.8906 C201.5625,337.1719 203.5625,335.0938 206.1875,335.0938 C207.0625,335.0938 207.6563,335.2344 208.5938,335.6719 Z "/><text fill="#000000" font-family="sans-serif" font-size="12" lengthAdjust="spacingAndGlyphs" textLength="60" x="226.75" y="344.1543">UserError</text><line style="stroke: #A80036; stroke-width: 1.5;" x1="8" x2="473" y1="356" y2="356"/><ellipse cx="18" cy="367.9023" fill="#84BE84" rx="3" ry="3" style="stroke: #038048; stroke-width: 1.0;"/><text fill="#000000" font-family="sans-serif" font-size="11" lengthAdjust="spacingAndGlyphs" textLength="203" x="27" y="370.2104">UserError(textErrorMessage:String)</text><ellipse cx="18" cy="380.707" fill="#84BE84" rx="3" ry="3" style="stroke: #038048; stroke-width: 1.0;"/><text fill="#000000" font-family="sans-serif" font-size="11" lengthAdjust="spacingAndGlyphs" textLength="441" x="27" y="383.0151">UserError(message:String, contentMode:ContentMode, errorLevel:ErrorLevel)</text><!--class SystemError--><rect fill="#FEFECE" filter="url(#f1fvjibqb7mndr)" height="32" id="SystemError" style="stroke: #A80036; stroke-width: 1.5;" width="108" x="509.5" y="341"/><ellipse cx="524.5" cy="357" fill="#ADD1B2" rx="11" ry="11" style="stroke: #A80036; stroke-width: 1.0;"/><path d="M526.8438,352.6719 L527.0156,352.75 C527.2344,352.4375 527.4375,352.3438 527.7344,352.3438 C528.0313,352.3438 528.3125,352.4844 528.4688,352.75 C528.5625,352.9063 528.5781,353.0313 528.5781,353.4688 L528.5781,354.8906 C528.5781,355.3125 528.5469,355.5 528.4375,355.6563 C528.2656,355.875 528,356.0156 527.7344,356.0156 C527.5156,356.0156 527.2813,355.9063 527.1406,355.7656 C527,355.6406 526.9688,355.5156 526.9063,355.1094 C526.8125,354.7031 526.6406,354.4844 526.1563,354.2031 C525.6875,353.9531 525.0781,353.7969 524.5,353.7969 C522.7656,353.7969 521.5156,355.1094 521.5156,356.8906 L521.5156,357.9844 C521.5156,359.6875 522.8125,360.7813 524.8594,360.7813 C525.625,360.7813 526.3125,360.6563 526.7344,360.3906 C526.9219,360.2969 526.9219,360.2969 527.375,359.8125 C527.5625,359.625 527.7656,359.5469 527.9844,359.5469 C528.4531,359.5469 528.8438,359.9375 528.8438,360.3906 C528.8438,360.7813 528.5156,361.2344 527.9375,361.6406 C527.1875,362.1875 526.0313,362.4844 524.8125,362.4844 C521.9219,362.4844 519.8125,360.5938 519.8125,358.0156 L519.8125,356.8906 C519.8125,354.1719 521.8125,352.0938 524.4375,352.0938 C525.3125,352.0938 525.9063,352.2344 526.8438,352.6719 Z "/><text fill="#000000" font-family="sans-serif" font-size="12" lengthAdjust="spacingAndGlyphs" textLength="76" x="538.5" y="361.1543">SystemError</text><!--class ErrorLevel--><rect fill="#FEFECE" filter="url(#f1fvjibqb7mndr)" height="104.0234" id="ErrorLevel" style="stroke: #A80036; stroke-width: 1.5;" width="185" x="6" y="147"/><ellipse cx="21" cy="163" fill="#EB937F" rx="11" ry="11" style="stroke: #A80036; stroke-width: 1.0;"/><path d="M19.2969,163.875 L19.2969,166.2969 L23.6563,166.2969 L23.6563,165.4219 C23.6563,164.9375 23.6875,164.7969 23.7969,164.6406 C23.9688,164.3906 24.2344,164.2813 24.5,164.2813 C24.7813,164.2813 25.0625,164.4375 25.2344,164.6875 C25.3125,164.8438 25.3438,164.9844 25.3438,165.4219 L25.3438,168 L17.3438,168 C16.9531,168 16.7188,167.9531 16.5781,167.8281 C16.3594,167.6719 16.2188,167.4219 16.2188,167.1563 C16.2188,166.8594 16.375,166.5938 16.625,166.4219 C16.7813,166.3125 16.9375,166.2969 17.3438,166.2969 L17.5938,166.2969 L17.5938,159.7813 L17.3438,159.7813 C16.9219,159.7813 16.7344,159.75 16.5781,159.6406 C16.3594,159.4688 16.2188,159.2188 16.2188,158.9375 C16.2188,158.6563 16.375,158.3594 16.625,158.2031 C16.7813,158.1094 16.9063,158.0938 17.3438,158.0938 L24.9688,158.0938 L24.9688,160.6406 C24.9688,161.1094 24.9375,161.25 24.8281,161.4219 C24.6563,161.6406 24.3906,161.7813 24.125,161.7813 C23.8438,161.7813 23.5625,161.625 23.3906,161.375 C23.3125,161.2188 23.2813,161.0469 23.2813,160.6406 L23.2813,159.7813 L19.2969,159.7813 L19.2969,162.1875 L20.75,162.1875 L20.75,162.0625 C20.75,161.6094 20.7813,161.4531 20.8906,161.2813 C21.0625,161.0625 21.3281,160.9219 21.5781,160.9219 C22.0313,160.9219 22.3438,161.2344 22.4063,161.7031 C22.4219,161.8594 22.4219,161.9063 22.4219,162.0625 L22.4219,163.9844 C22.4219,164.4375 22.3906,164.5938 22.2656,164.75 C22.1094,164.9688 21.8438,165.1094 21.5938,165.1094 C21.2969,165.1094 21.0156,164.9531 20.8594,164.7031 C20.7813,164.5469 20.75,164.3906 20.75,163.9844 L20.75,163.875 Z "/><text fill="#000000" font-family="sans-serif" font-size="12" lengthAdjust="spacingAndGlyphs" textLength="153" x="35" y="167.1543">ErrorMessage.ErrorLevel</text><line style="stroke: #A80036; stroke-width: 1.5;" x1="7" x2="190" y1="179" y2="179"/><ellipse cx="17" cy="190.9023" fill="none" rx="3" ry="3" style="stroke: #038048; stroke-width: 1.0;"/><text fill="#000000" font-family="sans-serif" font-size="11" lengthAdjust="spacingAndGlyphs" text-decoration="underline" textLength="49" x="26" y="193.2104">CRITICAL</text><line style="stroke: #000000; stroke-width: 1.0;" x1="26" x2="75" y1="195.2104" y2="195.2104"/><ellipse cx="17" cy="203.707" fill="none" rx="3" ry="3" style="stroke: #038048; stroke-width: 1.0;"/><text fill="#000000" font-family="sans-serif" font-size="11" lengthAdjust="spacingAndGlyphs" text-decoration="underline" textLength="37" x="26" y="206.0151">ERROR</text><line style="stroke: #000000; stroke-width: 1.0;" x1="26" x2="63" y1="208.0151" y2="208.0151"/><ellipse cx="17" cy="216.5117" fill="none" rx="3" ry="3" style="stroke: #038048; stroke-width: 1.0;"/><text fill="#000000" font-family="sans-serif" font-size="11" lengthAdjust="spacingAndGlyphs" text-decoration="underline" textLength="76" x="26" y="218.8198">INFORMATION</text><line style="stroke: #000000; stroke-width: 1.0;" x1="26" x2="102" y1="220.8198" y2="220.8198"/><ellipse cx="17" cy="229.3164" fill="none" rx="3" ry="3" style="stroke: #038048; stroke-width: 1.0;"/><text fill="#000000" font-family="sans-serif" font-size="11" lengthAdjust="spacingAndGlyphs" text-decoration="underline" textLength="83" x="26" y="231.6245">SYSTEMERROR</text><line style="stroke: #000000; stroke-width: 1.0;" x1="26" x2="109" y1="233.6245" y2="233.6245"/><ellipse cx="17" cy="242.1211" fill="none" rx="3" ry="3" style="stroke: #038048; stroke-width: 1.0;"/><text fill="#000000" font-family="sans-serif" font-size="11" lengthAdjust="spacingAndGlyphs" text-decoration="underline" textLength="51" x="26" y="244.4292">WARNING</text><line style="stroke: #000000; stroke-width: 1.0;" x1="26" x2="77" y1="246.4292" y2="246.4292"/><!--class ContentMode--><rect fill="#FEFECE" filter="url(#f1fvjibqb7mndr)" height="78.4141" id="ContentMode" style="stroke: #A80036; stroke-width: 1.5;" width="260" x="612.5" y="160"/><ellipse cx="627.5" cy="176" fill="#EB937F" rx="11" ry="11" style="stroke: #A80036; stroke-width: 1.0;"/><path d="M625.7969,176.875 L625.7969,179.2969 L630.1563,179.2969 L630.1563,178.4219 C630.1563,177.9375 630.1875,177.7969 630.2969,177.6406 C630.4688,177.3906 630.7344,177.2813 631,177.2813 C631.2813,177.2813 631.5625,177.4375 631.7344,177.6875 C631.8125,177.8438 631.8438,177.9844 631.8438,178.4219 L631.8438,181 L623.8438,181 C623.4531,181 623.2188,180.9531 623.0781,180.8281 C622.8594,180.6719 622.7188,180.4219 622.7188,180.1563 C622.7188,179.8594 622.875,179.5938 623.125,179.4219 C623.2813,179.3125 623.4375,179.2969 623.8438,179.2969 L624.0938,179.2969 L624.0938,172.7813 L623.8438,172.7813 C623.4219,172.7813 623.2344,172.75 623.0781,172.6406 C622.8594,172.4688 622.7188,172.2188 622.7188,171.9375 C622.7188,171.6563 622.875,171.3594 623.125,171.2031 C623.2813,171.1094 623.4063,171.0938 623.8438,171.0938 L631.4688,171.0938 L631.4688,173.6406 C631.4688,174.1094 631.4375,174.25 631.3281,174.4219 C631.1563,174.6406 630.8906,174.7813 630.625,174.7813 C630.3438,174.7813 630.0625,174.625 629.8906,174.375 C629.8125,174.2188 629.7813,174.0469 629.7813,173.6406 L629.7813,172.7813 L625.7969,172.7813 L625.7969,175.1875 L627.25,175.1875 L627.25,175.0625 C627.25,174.6094 627.2813,174.4531 627.3906,174.2813 C627.5625,174.0625 627.8281,173.9219 628.0781,173.9219 C628.5313,173.9219 628.8438,174.2344 628.9063,174.7031 C628.9219,174.8594 628.9219,174.9063 628.9219,175.0625 L628.9219,176.9844 C628.9219,177.4375 628.8906,177.5938 628.7656,177.75 C628.6094,177.9688 628.3438,178.1094 628.0938,178.1094 C627.7969,178.1094 627.5156,177.9531 627.3594,177.7031 C627.2813,177.5469 627.25,177.3906 627.25,176.9844 L627.25,176.875 Z "/><text fill="#000000" font-family="sans-serif" font-size="12" lengthAdjust="spacingAndGlyphs" textLength="228" x="641.5" y="180.1543">AbstractErrorMessage.ContentMode</text><line style="stroke: #A80036; stroke-width: 1.5;" x1="613.5" x2="871.5" y1="192" y2="192"/><ellipse cx="623.5" cy="203.9023" fill="none" rx="3" ry="3" style="stroke: #038048; stroke-width: 1.0;"/><text fill="#000000" font-family="sans-serif" font-size="11" lengthAdjust="spacingAndGlyphs" text-decoration="underline" textLength="88" x="632.5" y="206.2104">PREFORMATTED</text><line style="stroke: #000000; stroke-width: 1.0;" x1="632.5" x2="720.5" y1="208.2104" y2="208.2104"/><ellipse cx="623.5" cy="216.707" fill="none" rx="3" ry="3" style="stroke: #038048; stroke-width: 1.0;"/><text fill="#000000" font-family="sans-serif" font-size="11" lengthAdjust="spacingAndGlyphs" text-decoration="underline" textLength="28" x="632.5" y="219.0151">TEXT</text><line style="stroke: #000000; stroke-width: 1.0;" x1="632.5" x2="660.5" y1="221.0151" y2="221.0151"/><ellipse cx="623.5" cy="229.5117" fill="none" rx="3" ry="3" style="stroke: #038048; stroke-width: 1.0;"/><text fill="#000000" font-family="sans-serif" font-size="11" lengthAdjust="spacingAndGlyphs" text-decoration="underline" textLength="30" x="632.5" y="231.8198">HTML</text><line style="stroke: #000000; stroke-width: 1.0;" x1="632.5" x2="662.5" y1="233.8198" y2="233.8198"/><!--link AbstractErrorMessage to UserError--><path d="M320.585,278.402 C304.011,294.4615 287.46,310.4982 273.743,323.7891 " fill="none" id="AbstractErrorMessage-UserError" style="stroke: #A80036; stroke-width: 1.0;"/><polygon fill="none" points="315.851,273.242,335.086,264.352,325.593,283.296,315.851,273.242" style="stroke: #A80036; stroke-width: 1.0;"/><!--link AbstractErrorMessage to SystemError--><path d="M482.876,278.362 C507.697,302.2639 532.471,326.1203 547.875,340.9535 " fill="none" id="AbstractErrorMessage-SystemError" style="stroke: #A80036; stroke-width: 1.0;"/><polygon fill="none" points="477.878,283.267,468.327,264.352,487.589,273.182,477.878,283.267" style="stroke: #A80036; stroke-width: 1.0;"/><!--link ErrorMessage to AbstractErrorMessage--><path d="M401.5,94.397 C401.5,107.055 401.5,120.725 401.5,133.854 " fill="none" id="ErrorMessage-AbstractErrorMessage" style="stroke: #A80036; stroke-width: 1.0; stroke-dasharray: 7.0,7.0;"/><polygon fill="none" points="394.5,94.323,401.5,74.323,408.5,94.323,394.5,94.323" style="stroke: #A80036; stroke-width: 1.0;"/><!--link ErrorLevel to AbstractErrorMessage--><path d="M196.24,199 C206.037,199 215.835,199 225.632,199 " fill="none" id="ErrorLevel-AbstractErrorMessage" style="stroke: #A80036; stroke-width: 1.0; stroke-dasharray: 7.0,7.0;"/><polygon fill="#A80036" points="191.116,199,200.116,203,196.116,199,200.116,195,191.116,199" style="stroke: #A80036; stroke-width: 1.0;"/><!--link AbstractErrorMessage to ContentMode--><path d="M577.328,199 C587.309,199 597.291,199 607.272,199 " fill="none" id="AbstractErrorMessage-ContentMode" style="stroke: #A80036; stroke-width: 1.0; stroke-dasharray: 7.0,7.0;"/><polygon fill="#A80036" points="612.492,199,603.492,195,607.492,199,603.492,203,612.492,199" style="stroke: #A80036; stroke-width: 1.0;"/><!--
@startuml
interface ErrorMessage {
 + {abstract} getErrorLevel()
 + {abstract} getFormattedHtmlMessage()
}
abstract class AbstractErrorMessage {
 + {static} getErrorMessageForException(t:Throwable)ErrorMessage 
 # AbstractErrorMessage(msg:String)
 # addCause(cause:ErrorMessage)
 # getCauses(): List<ErrorMessage>
 + getFormattedHtmlMessage():String
 + getMessage(): String
 # setErrorLevel(level:ErrorLevel)
}
class UserError {
 + UserError(textErrorMessage:String)
 + UserError(message:String, contentMode:ContentMode, errorLevel:ErrorLevel)
}
class SystemError
enum "ErrorMessage.ErrorLevel" as ErrorLevel {
 + {static} CRITICAL
 + {static} ERROR
 + {static} INFORMATION
 + {static} SYSTEMERROR
 + {static} WARNING
}
enum "AbstractErrorMessage.ContentMode" as ContentMode {
 + {static} PREFORMATTED
 + {static} TEXT
 + {static} HTML
}

UserError -up-|> AbstractErrorMessage
SystemError -up-|> AbstractErrorMessage
AbstractErrorMessage .up.|> ErrorMessage
AbstractErrorMessage .left.> ErrorLevel
AbstractErrorMessage .right.> ContentMode
hide empty attributes
hide empty methods
@enduml

PlantUML version 1.2017.16(Sun Sep 03 10:53:37 UTC 2017)
(GPL source distribution)
Java Runtime: Java(TM) SE Runtime Environment
JVM: Java HotSpot(TM) 64-Bit Server VM
Java Version: 1.7.0_25-b15
Operating System: Linux
Default Encoding: UTF-8
Language: en
Country: US
--></g></svg>