<?xml version="1.0" encoding="UTF-8" standalone="no"?><svg xmlns="http://www.w3.org/2000/svg" xmlns:xlink="http://www.w3.org/1999/xlink" contentScriptType="application/ecmascript" contentStyleType="text/css" preserveAspectRatio="none" version="1.1" viewBox="0 0 590 302" zoomAndPan="magnify"><defs><filter height="300%" id="f1bwwz78l2f9u0" width="300%" x="-1" y="-1"><feGaussianBlur result="blurOut" stdDeviation="2.0"/><feColorMatrix in="blurOut" result="blurOut2" type="matrix" values="0 0 0 0 0 0 0 0 0 0 0 0 0 0 0 0 0 0 .4 0"/><feOffset dx="4.0" dy="4.0" in="blurOut2" result="blurOut3"/><feBlend in="SourceGraphic" in2="blurOut3" mode="normal"/></filter></defs><g><!--class ErrorHandler--><rect fill="#FEFECE" filter="url(#f1bwwz78l2f9u0)" height="52.8047" id="ErrorHandler" style="stroke: #A80036; stroke-width: 1.5;" width="160" x="286.5" y="100"/><ellipse cx="323.1" cy="116" fill="#B4A7E5" rx="11" ry="11" style="stroke: #A80036; stroke-width: 1.0;"/><path d="M324.0531,112.7813 L324.0531,119.2969 L325.7719,119.2969 C326.225,119.2969 326.3656,119.3281 326.5375,119.4531 C326.7719,119.625 326.8813,119.875 326.8813,120.1563 C326.8813,120.7188 326.5219,121 325.7719,121 L320.6313,121 C320.225,121 320.0219,120.9531 319.8656,120.8281 C319.6469,120.6719 319.5063,120.4063 319.5063,120.1563 C319.5063,119.8594 319.6625,119.5781 319.9125,119.4219 C320.0688,119.3125 320.1938,119.2969 320.6313,119.2969 L322.35,119.2969 L322.35,112.7813 L320.6313,112.7813 C320.2094,112.7813 320.0219,112.75 319.8656,112.6406 C319.6469,112.4688 319.5063,112.2188 319.5063,111.9375 C319.5063,111.6563 319.6625,111.3594 319.9125,111.2031 C320.0688,111.1094 320.1938,111.0938 320.6313,111.0938 L325.7719,111.0938 C326.225,111.0938 326.3656,111.125 326.5375,111.2344 C326.7719,111.4063 326.8813,111.6719 326.8813,111.9375 C326.8813,112.2344 326.7406,112.5156 326.475,112.6719 C326.35,112.75 326.1625,112.7813 325.7719,112.7813 Z "/><text fill="#000000" font-family="sans-serif" font-size="12" font-style="italic" lengthAdjust="spacingAndGlyphs" textLength="80" x="341.9" y="120.1543">ErrorHandler</text><line style="stroke: #A80036; stroke-width: 1.5;" x1="287.5" x2="445.5" y1="132" y2="132"/><ellipse cx="297.5" cy="143.9023" fill="#84BE84" rx="3" ry="3" style="stroke: #038048; stroke-width: 1.0;"/><text fill="#000000" font-family="sans-serif" font-size="11" font-style="italic" lengthAdjust="spacingAndGlyphs" textLength="134" x="306.5" y="146.2104">error(event:ErrorEvent)</text><!--class DefaultErrorHandler--><rect fill="#FEFECE" filter="url(#f1bwwz78l2f9u0)" height="78.4141" id="DefaultErrorHandler" style="stroke: #A80036; stroke-width: 1.5;" width="378" x="177.5" y="213"/><ellipse cx="299.75" cy="229" fill="#ADD1B2" rx="11" ry="11" style="stroke: #A80036; stroke-width: 1.0;"/><path d="M302.0938,224.6719 L302.2656,224.75 C302.4844,224.4375 302.6875,224.3438 302.9844,224.3438 C303.2813,224.3438 303.5625,224.4844 303.7188,224.75 C303.8125,224.9063 303.8281,225.0313 303.8281,225.4688 L303.8281,226.8906 C303.8281,227.3125 303.7969,227.5 303.6875,227.6563 C303.5156,227.875 303.25,228.0156 302.9844,228.0156 C302.7656,228.0156 302.5313,227.9063 302.3906,227.7656 C302.25,227.6406 302.2188,227.5156 302.1563,227.1094 C302.0625,226.7031 301.8906,226.4844 301.4063,226.2031 C300.9375,225.9531 300.3281,225.7969 299.75,225.7969 C298.0156,225.7969 296.7656,227.1094 296.7656,228.8906 L296.7656,229.9844 C296.7656,231.6875 298.0625,232.7813 300.1094,232.7813 C300.875,232.7813 301.5625,232.6563 301.9844,232.3906 C302.1719,232.2969 302.1719,232.2969 302.625,231.8125 C302.8125,231.625 303.0156,231.5469 303.2344,231.5469 C303.7031,231.5469 304.0938,231.9375 304.0938,232.3906 C304.0938,232.7813 303.7656,233.2344 303.1875,233.6406 C302.4375,234.1875 301.2813,234.4844 300.0625,234.4844 C297.1719,234.4844 295.0625,232.5938 295.0625,230.0156 L295.0625,228.8906 C295.0625,226.1719 297.0625,224.0938 299.6875,224.0938 C300.5625,224.0938 301.1563,224.2344 302.0938,224.6719 Z "/><text fill="#000000" font-family="sans-serif" font-size="12" lengthAdjust="spacingAndGlyphs" textLength="125" x="320.25" y="233.1543">DefaultErrorHandler</text><line style="stroke: #A80036; stroke-width: 1.5;" x1="178.5" x2="554.5" y1="245" y2="245"/><ellipse cx="188.5" cy="256.9023" fill="#84BE84" rx="3" ry="3" style="stroke: #038048; stroke-width: 1.0;"/><text fill="#000000" font-family="sans-serif" font-size="11" lengthAdjust="spacingAndGlyphs" text-decoration="underline" textLength="157" x="197.5" y="259.2104">doDefault(event:ErrorEvent)</text><line style="stroke: #000000; stroke-width: 1.0;" x1="197.5" x2="354.5" y1="261.2104" y2="261.2104"/><ellipse cx="188.5" cy="269.707" fill="#84BE84" rx="3" ry="3" style="stroke: #038048; stroke-width: 1.0;"/><text fill="#000000" font-family="sans-serif" font-size="11" lengthAdjust="spacingAndGlyphs" text-decoration="underline" textLength="352" x="197.5" y="272.0151">findAbstractComponent(event:ErrorEvent):AbstractComponent</text><line style="stroke: #000000; stroke-width: 1.0;" x1="197.5" x2="549.5" y1="274.0151" y2="274.0151"/><ellipse cx="188.5" cy="282.5117" fill="#84BE84" rx="3" ry="3" style="stroke: #038048; stroke-width: 1.0;"/><text fill="#000000" font-family="sans-serif" font-size="11" lengthAdjust="spacingAndGlyphs" textLength="132" x="197.5" y="284.8198">error(event:ErrorEvent)</text><!--class UI--><rect fill="#FEFECE" filter="url(#f1bwwz78l2f9u0)" height="52.8047" id="UI" style="stroke: #A80036; stroke-width: 1.5;" width="245" x="6" y="100"/><ellipse cx="118.25" cy="116" fill="#ADD1B2" rx="11" ry="11" style="stroke: #A80036; stroke-width: 1.0;"/><path d="M120.5938,111.6719 L120.7656,111.75 C120.9844,111.4375 121.1875,111.3438 121.4844,111.3438 C121.7813,111.3438 122.0625,111.4844 122.2188,111.75 C122.3125,111.9063 122.3281,112.0313 122.3281,112.4688 L122.3281,113.8906 C122.3281,114.3125 122.2969,114.5 122.1875,114.6563 C122.0156,114.875 121.75,115.0156 121.4844,115.0156 C121.2656,115.0156 121.0313,114.9063 120.8906,114.7656 C120.75,114.6406 120.7188,114.5156 120.6563,114.1094 C120.5625,113.7031 120.3906,113.4844 119.9063,113.2031 C119.4375,112.9531 118.8281,112.7969 118.25,112.7969 C116.5156,112.7969 115.2656,114.1094 115.2656,115.8906 L115.2656,116.9844 C115.2656,118.6875 116.5625,119.7813 118.6094,119.7813 C119.375,119.7813 120.0625,119.6563 120.4844,119.3906 C120.6719,119.2969 120.6719,119.2969 121.125,118.8125 C121.3125,118.625 121.5156,118.5469 121.7344,118.5469 C122.2031,118.5469 122.5938,118.9375 122.5938,119.3906 C122.5938,119.7813 122.2656,120.2344 121.6875,120.6406 C120.9375,121.1875 119.7813,121.4844 118.5625,121.4844 C115.6719,121.4844 113.5625,119.5938 113.5625,117.0156 L113.5625,115.8906 C113.5625,113.1719 115.5625,111.0938 118.1875,111.0938 C119.0625,111.0938 119.6563,111.2344 120.5938,111.6719 Z "/><text fill="#000000" font-family="sans-serif" font-size="12" lengthAdjust="spacingAndGlyphs" textLength="12" x="138.75" y="120.1543">UI</text><line style="stroke: #A80036; stroke-width: 1.5;" x1="7" x2="250" y1="132" y2="132"/><ellipse cx="17" cy="143.9023" fill="#84BE84" rx="3" ry="3" style="stroke: #038048; stroke-width: 1.0;"/><text fill="#000000" font-family="sans-serif" font-size="11" lengthAdjust="spacingAndGlyphs" textLength="219" x="26" y="146.2104">setErrorHandler(handler:ErrorHandler)</text><!--class ErrorEvent--><rect fill="#FEFECE" filter="url(#f1bwwz78l2f9u0)" height="32" id="ErrorEvent" style="stroke: #A80036; stroke-width: 1.5;" width="98" x="481.5" y="110.5"/><ellipse cx="496.5" cy="126.5" fill="#ADD1B2" rx="11" ry="11" style="stroke: #A80036; stroke-width: 1.0;"/><path d="M498.8438,122.1719 L499.0156,122.25 C499.2344,121.9375 499.4375,121.8438 499.7344,121.8438 C500.0313,121.8438 500.3125,121.9844 500.4688,122.25 C500.5625,122.4063 500.5781,122.5313 500.5781,122.9688 L500.5781,124.3906 C500.5781,124.8125 500.5469,125 500.4375,125.1563 C500.2656,125.375 500,125.5156 499.7344,125.5156 C499.5156,125.5156 499.2813,125.4063 499.1406,125.2656 C499,125.1406 498.9688,125.0156 498.9063,124.6094 C498.8125,124.2031 498.6406,123.9844 498.1563,123.7031 C497.6875,123.4531 497.0781,123.2969 496.5,123.2969 C494.7656,123.2969 493.5156,124.6094 493.5156,126.3906 L493.5156,127.4844 C493.5156,129.1875 494.8125,130.2813 496.8594,130.2813 C497.625,130.2813 498.3125,130.1563 498.7344,129.8906 C498.9219,129.7969 498.9219,129.7969 499.375,129.3125 C499.5625,129.125 499.7656,129.0469 499.9844,129.0469 C500.4531,129.0469 500.8438,129.4375 500.8438,129.8906 C500.8438,130.2813 500.5156,130.7344 499.9375,131.1406 C499.1875,131.6875 498.0313,131.9844 496.8125,131.9844 C493.9219,131.9844 491.8125,130.0938 491.8125,127.5156 L491.8125,126.3906 C491.8125,123.6719 493.8125,121.5938 496.4375,121.5938 C497.3125,121.5938 497.9063,121.7344 498.8438,122.1719 Z "/><text fill="#000000" font-family="sans-serif" font-size="12" lengthAdjust="spacingAndGlyphs" textLength="66" x="510.5" y="130.6543">ErrorEvent</text><!--class Throwable--><rect fill="#FEFECE" filter="url(#f1bwwz78l2f9u0)" height="32" id="Throwable" style="stroke: #A80036; stroke-width: 1.5;" width="96" x="482.5" y="8"/><ellipse cx="497.5" cy="24" fill="#ADD1B2" rx="11" ry="11" style="stroke: #A80036; stroke-width: 1.0;"/><path d="M499.8438,19.6719 L500.0156,19.75 C500.2344,19.4375 500.4375,19.3438 500.7344,19.3438 C501.0313,19.3438 501.3125,19.4844 501.4688,19.75 C501.5625,19.9063 501.5781,20.0313 501.5781,20.4688 L501.5781,21.8906 C501.5781,22.3125 501.5469,22.5 501.4375,22.6563 C501.2656,22.875 501,23.0156 500.7344,23.0156 C500.5156,23.0156 500.2813,22.9063 500.1406,22.7656 C500,22.6406 499.9688,22.5156 499.9063,22.1094 C499.8125,21.7031 499.6406,21.4844 499.1563,21.2031 C498.6875,20.9531 498.0781,20.7969 497.5,20.7969 C495.7656,20.7969 494.5156,22.1094 494.5156,23.8906 L494.5156,24.9844 C494.5156,26.6875 495.8125,27.7813 497.8594,27.7813 C498.625,27.7813 499.3125,27.6563 499.7344,27.3906 C499.9219,27.2969 499.9219,27.2969 500.375,26.8125 C500.5625,26.625 500.7656,26.5469 500.9844,26.5469 C501.4531,26.5469 501.8438,26.9375 501.8438,27.3906 C501.8438,27.7813 501.5156,28.2344 500.9375,28.6406 C500.1875,29.1875 499.0313,29.4844 497.8125,29.4844 C494.9219,29.4844 492.8125,27.5938 492.8125,25.0156 L492.8125,23.8906 C492.8125,21.1719 494.8125,19.0938 497.4375,19.0938 C498.3125,19.0938 498.9063,19.2344 499.8438,19.6719 Z "/><text fill="#000000" font-family="sans-serif" font-size="12" lengthAdjust="spacingAndGlyphs" textLength="64" x="511.5" y="28.1543">Throwable</text><!--link ErrorHandler to DefaultErrorHandler--><path d="M366.5,173.486 C366.5,186.421 366.5,200.3457 366.5,212.7749 " fill="none" id="ErrorHandler-DefaultErrorHandler" style="stroke: #A80036; stroke-width: 1.0; stroke-dasharray: 7.0,7.0;"/><polygon fill="none" points="359.5,173.089,366.5,153.089,373.5,173.089,359.5,173.089" style="stroke: #A80036; stroke-width: 1.0;"/><!--link UI to ErrorHandler--><path d="M251.219,126.5 C261.189,126.5 271.159,126.5 281.13,126.5 " fill="none" id="UI-ErrorHandler" style="stroke: #A80036; stroke-width: 1.0; stroke-dasharray: 7.0,7.0;"/><polygon fill="#A80036" points="286.344,126.5,277.344,122.5,281.344,126.5,277.344,130.5,286.344,126.5" style="stroke: #A80036; stroke-width: 1.0;"/><!--link Throwable to ErrorEvent--><path d="M530.5,45.439 C530.5,64.707 530.5,93.135 530.5,110.422 " fill="none" id="Throwable-ErrorEvent" style="stroke: #A80036; stroke-width: 1.0;"/><polygon fill="#A80036" points="530.5,40.264,526.5,49.264,530.5,45.264,534.5,49.264,530.5,40.264" style="stroke: #A80036; stroke-width: 1.0;"/><text fill="#000000" font-family="sans-serif" font-size="13" lengthAdjust="spacingAndGlyphs" textLength="8" x="521.225" y="59.9268">1</text><!--link ErrorHandler to ErrorEvent--><path d="M446.578,126.5 C456.442,126.5 466.305,126.5 476.169,126.5 " fill="none" id="ErrorHandler-ErrorEvent" style="stroke: #A80036; stroke-width: 1.0; stroke-dasharray: 7.0,7.0;"/><polygon fill="#A80036" points="481.327,126.5,472.327,122.5,476.327,126.5,472.327,130.5,481.327,126.5" style="stroke: #A80036; stroke-width: 1.0;"/><!--
@startuml
interface ErrorHandler {
 + {abstract} error(event:ErrorEvent) 
}
class DefaultErrorHandler {
 + {static} doDefault(event:ErrorEvent)
 + {static} findAbstractComponent(event:ErrorEvent):AbstractComponent
 + error(event:ErrorEvent)
}
class UI {
 + setErrorHandler(handler:ErrorHandler)
}
class ErrorEvent
class Throwable
DefaultErrorHandler .up.|> ErrorHandler
UI .right.> ErrorHandler
ErrorEvent -up-> "1" Throwable
ErrorHandler .right.> ErrorEvent 

hide empty attributes
hide empty methods
@enduml

PlantUML version 1.2017.16(Sun Sep 03 10:53:37 UTC 2017)
(GPL source distribution)
Java Runtime: Java(TM) SE Runtime Environment
JVM: Java HotSpot(TM) 64-Bit Server VM
Java Version: 1.7.0_25-b15
Operating System: Linux
Default Encoding: UTF-8
Language: en
Country: US
--></g></svg>