<?xml version="1.0" encoding="UTF-8" standalone="no"?><svg xmlns="http://www.w3.org/2000/svg" xmlns:xlink="http://www.w3.org/1999/xlink" contentScriptType="application/ecmascript" contentStyleType="text/css" height="798px" preserveAspectRatio="none" style="width:1185px;height:798px;" version="1.1" viewBox="0 0 1185 798" width="1185px" zoomAndPan="magnify"><defs><filter height="300%" id="frtlbat3xvzah" width="300%" x="-1" y="-1"><feGaussianBlur result="blurOut" stdDeviation="2.0"/><feColorMatrix in="blurOut" result="blurOut2" type="matrix" values="0 0 0 0 0 0 0 0 0 0 0 0 0 0 0 0 0 0 .4 0"/><feOffset dx="4.0" dy="4.0" in="blurOut2" result="blurOut3"/><feBlend in="SourceGraphic" in2="blurOut3" mode="normal"/></filter></defs><g><!--cluster com.vaadin.ui--><polygon fill="#FFFFFF" filter="url(#frtlbat3xvzah)" points="22,24,136,24,143,46.2969,1163,46.2969,1163,786,22,786,22,24" style="stroke: #000000; stroke-width: 2.0;"/><line style="stroke: #000000; stroke-width: 2.0;" x1="22" x2="143" y1="46.2969" y2="46.2969"/><text fill="#000000" font-family="sans-serif" font-size="14" font-weight="bold" lengthAdjust="spacingAndGlyphs" textLength="108" x="26" y="38.9951">com.vaadin.ui</text><!--cluster renderers--><polygon fill="#FFFFFF" filter="url(#frtlbat3xvzah)" points="829,553,915,553,922,575.2969,1075,575.2969,1075,762,829,762,829,553" style="stroke: #000000; stroke-width: 2.0;"/><line style="stroke: #000000; stroke-width: 2.0;" x1="829" x2="922" y1="575.2969" y2="575.2969"/><text fill="#000000" font-family="sans-serif" font-size="14" font-weight="bold" lengthAdjust="spacingAndGlyphs" textLength="80" x="833" y="567.9951">renderers</text><!--class Grid--><rect fill="#FEFECE" filter="url(#frtlbat3xvzah)" height="468.9453" id="Grid" style="stroke: #A80036; stroke-width: 1.5;" width="684" x="38" y="59"/><ellipse cx="357.75" cy="75" fill="#ADD1B2" rx="11" ry="11" style="stroke: #A80036; stroke-width: 1.0;"/><path d="M360.0938,70.6719 L360.2656,70.75 C360.4844,70.4375 360.6875,70.3438 360.9844,70.3438 C361.2813,70.3438 361.5625,70.4844 361.7188,70.75 C361.8125,70.9063 361.8281,71.0313 361.8281,71.4688 L361.8281,72.8906 C361.8281,73.3125 361.7969,73.5 361.6875,73.6563 C361.5156,73.875 361.25,74.0156 360.9844,74.0156 C360.7656,74.0156 360.5313,73.9063 360.3906,73.7656 C360.25,73.6406 360.2188,73.5156 360.1563,73.1094 C360.0625,72.7031 359.8906,72.4844 359.4063,72.2031 C358.9375,71.9531 358.3281,71.7969 357.75,71.7969 C356.0156,71.7969 354.7656,73.1094 354.7656,74.8906 L354.7656,75.9844 C354.7656,77.6875 356.0625,78.7813 358.1094,78.7813 C358.875,78.7813 359.5625,78.6563 359.9844,78.3906 C360.1719,78.2969 360.1719,78.2969 360.625,77.8125 C360.8125,77.625 361.0156,77.5469 361.2344,77.5469 C361.7031,77.5469 362.0938,77.9375 362.0938,78.3906 C362.0938,78.7813 361.7656,79.2344 361.1875,79.6406 C360.4375,80.1875 359.2813,80.4844 358.0625,80.4844 C355.1719,80.4844 353.0625,78.5938 353.0625,76.0156 L353.0625,74.8906 C353.0625,72.1719 355.0625,70.0938 357.6875,70.0938 C358.5625,70.0938 359.1563,70.2344 360.0938,70.6719 Z "/><text fill="#000000" font-family="sans-serif" font-size="12" lengthAdjust="spacingAndGlyphs" textLength="25" x="378.25" y="79.1543">Grid</text><rect fill="#FFFFFF" height="15.9688" style="stroke: #000000; stroke-width: 1.0; stroke-dasharray: 2.0,2.0;" width="9" x="716" y="56"/><text fill="#000000" font-family="sans-serif" font-size="12" font-style="italic" lengthAdjust="spacingAndGlyphs" textLength="7" x="717" y="68.1387">T</text><line style="stroke: #A80036; stroke-width: 1.5;" x1="39" x2="721" y1="91" y2="91"/><ellipse cx="49" cy="102.9023" fill="#84BE84" rx="3" ry="3" style="stroke: #038048; stroke-width: 1.0;"/><text fill="#000000" font-family="sans-serif" font-size="11" lengthAdjust="spacingAndGlyphs" textLength="32" x="58" y="105.2104">Grid()</text><ellipse cx="49" cy="115.707" fill="#84BE84" rx="3" ry="3" style="stroke: #038048; stroke-width: 1.0;"/><text fill="#000000" font-family="sans-serif" font-size="11" lengthAdjust="spacingAndGlyphs" textLength="152" x="58" y="118.0151">Grid(beanType: Class&lt;T&gt;)</text><ellipse cx="49" cy="128.5117" fill="#84BE84" rx="3" ry="3" style="stroke: #038048; stroke-width: 1.0;"/><text fill="#000000" font-family="sans-serif" font-size="11" lengthAdjust="spacingAndGlyphs" textLength="220" x="58" y="130.8198">Grid(dataProvider: DataProvider&lt;T,?&gt;)</text><ellipse cx="49" cy="141.3164" fill="#84BE84" rx="3" ry="3" style="stroke: #038048; stroke-width: 1.0;"/><text fill="#000000" font-family="sans-serif" font-size="11" lengthAdjust="spacingAndGlyphs" textLength="243" x="58" y="143.6245">Grid(caption: String, items: Collection&lt;T&gt;)</text><ellipse cx="49" cy="154.1211" fill="#84BE84" rx="3" ry="3" style="stroke: #038048; stroke-width: 1.0;"/><text fill="#000000" font-family="sans-serif" font-size="11" lengthAdjust="spacingAndGlyphs" textLength="311" x="58" y="156.4292">Grid(caption: String, dataProvider: DataProvider&lt;T,?&gt;)</text><line style="stroke: #A80036; stroke-width: 1.0; stroke-dasharray: 1.0,2.0;" x1="39" x2="721" y1="163.0234" y2="163.0234"/><ellipse cx="49" cy="174.9258" fill="#84BE84" rx="3" ry="3" style="stroke: #038048; stroke-width: 1.0;"/><text fill="#000000" font-family="sans-serif" font-size="11" lengthAdjust="spacingAndGlyphs" textLength="285" x="58" y="177.2339">addColumn(propertyName: String): Column&lt;T, ?&gt;</text><ellipse cx="49" cy="187.7305" fill="#84BE84" rx="3" ry="3" style="stroke: #038048; stroke-width: 1.0;"/><text fill="#000000" font-family="sans-serif" font-size="11" lengthAdjust="spacingAndGlyphs" textLength="532" x="58" y="190.0386">addColumn(propertyName: String, renderer: AbstractRenderer&lt;? super T,?&gt;): Column&lt;T, ?&gt;</text><ellipse cx="49" cy="200.5352" fill="#84BE84" rx="3" ry="3" style="stroke: #038048; stroke-width: 1.0;"/><text fill="#000000" font-family="sans-serif" font-size="11" lengthAdjust="spacingAndGlyphs" textLength="389" x="58" y="202.8433">addColumn(identifier: String, column: Column&lt;T,?&gt;): Column&lt;T, ?&gt;</text><ellipse cx="49" cy="213.3398" fill="#84BE84" rx="3" ry="3" style="stroke: #038048; stroke-width: 1.0;"/><text fill="#000000" font-family="sans-serif" font-size="11" lengthAdjust="spacingAndGlyphs" textLength="361" x="58" y="215.6479">addColumn(valueProvider: ValueProvider&lt;T,V&gt;): Column&lt;T, ?&gt;</text><ellipse cx="49" cy="226.1445" fill="#84BE84" rx="3" ry="3" style="stroke: #038048; stroke-width: 1.0;"/><text fill="#000000" font-family="sans-serif" font-size="11" lengthAdjust="spacingAndGlyphs" textLength="658" x="58" y="228.4526">addColumn(valueProvider: ValueProvider&lt;T,V&gt;, rendered: AbstractRenderer&lt;? super T,? super V&gt;): Column&lt;T, ?&gt;</text><ellipse cx="49" cy="238.9492" fill="#84BE84" rx="3" ry="3" style="stroke: #038048; stroke-width: 1.0;"/><text fill="#000000" font-family="sans-serif" font-size="11" lengthAdjust="spacingAndGlyphs" textLength="248" x="58" y="241.2573">getColumn(columnId: String): Column&lt;T,?&gt;</text><ellipse cx="49" cy="251.7539" fill="#84BE84" rx="3" ry="3" style="stroke: #038048; stroke-width: 1.0;"/><text fill="#000000" font-family="sans-serif" font-size="11" lengthAdjust="spacingAndGlyphs" textLength="200" x="58" y="254.062">getColumns(): List&lt;Column&lt;T,?&gt;&gt;</text><ellipse cx="49" cy="264.5586" fill="#84BE84" rx="3" ry="3" style="stroke: #038048; stroke-width: 1.0;"/><text fill="#000000" font-family="sans-serif" font-size="11" lengthAdjust="spacingAndGlyphs" textLength="221" x="58" y="266.8667">removeColumn(column: Column&lt;T,?&gt;)</text><ellipse cx="49" cy="277.3633" fill="#84BE84" rx="3" ry="3" style="stroke: #038048; stroke-width: 1.0;"/><text fill="#000000" font-family="sans-serif" font-size="11" lengthAdjust="spacingAndGlyphs" textLength="187" x="58" y="279.6714">removeColumn(columnId: String)</text><line style="stroke: #A80036; stroke-width: 1.0; stroke-dasharray: 1.0,2.0;" x1="39" x2="721" y1="286.2656" y2="286.2656"/><ellipse cx="49" cy="298.168" fill="#84BE84" rx="3" ry="3" style="stroke: #038048; stroke-width: 1.0;"/><text fill="#000000" font-family="sans-serif" font-size="11" lengthAdjust="spacingAndGlyphs" textLength="219" x="58" y="300.4761">addHeaderRowAt(row: int): HeaderRow</text><ellipse cx="49" cy="310.9727" fill="#84BE84" rx="3" ry="3" style="stroke: #038048; stroke-width: 1.0;"/><text fill="#000000" font-family="sans-serif" font-size="11" lengthAdjust="spacingAndGlyphs" textLength="209" x="58" y="313.2808">addFooterRowAt(row: int): FooterRow</text><ellipse cx="49" cy="323.7773" fill="#84BE84" rx="3" ry="3" style="stroke: #038048; stroke-width: 1.0;"/><text fill="#000000" font-family="sans-serif" font-size="11" lengthAdjust="spacingAndGlyphs" textLength="186" x="58" y="326.0854">appendHeaderRow(): HeaderRow</text><ellipse cx="49" cy="336.582" fill="#84BE84" rx="3" ry="3" style="stroke: #038048; stroke-width: 1.0;"/><text fill="#000000" font-family="sans-serif" font-size="11" lengthAdjust="spacingAndGlyphs" textLength="176" x="58" y="338.8901">appendFooterRow(): FooterRow</text><ellipse cx="49" cy="349.3867" fill="#84BE84" rx="3" ry="3" style="stroke: #038048; stroke-width: 1.0;"/><text fill="#000000" font-family="sans-serif" font-size="11" lengthAdjust="spacingAndGlyphs" textLength="191" x="58" y="351.6948">prependHeaderRow(): HeaderRow</text><ellipse cx="49" cy="362.1914" fill="#84BE84" rx="3" ry="3" style="stroke: #038048; stroke-width: 1.0;"/><text fill="#000000" font-family="sans-serif" font-size="11" lengthAdjust="spacingAndGlyphs" textLength="181" x="58" y="364.4995">prependFooterRow(): FooterRow</text><ellipse cx="49" cy="374.9961" fill="#84BE84" rx="3" ry="3" style="stroke: #038048; stroke-width: 1.0;"/><text fill="#000000" font-family="sans-serif" font-size="11" lengthAdjust="spacingAndGlyphs" textLength="208" x="58" y="377.3042">removeHeaderRow(row: HeaderRow)</text><ellipse cx="49" cy="387.8008" fill="#84BE84" rx="3" ry="3" style="stroke: #038048; stroke-width: 1.0;"/><text fill="#000000" font-family="sans-serif" font-size="11" lengthAdjust="spacingAndGlyphs" textLength="198" x="58" y="390.1089">removeFooterRow(row: FooterRow)</text><ellipse cx="49" cy="400.6055" fill="#84BE84" rx="3" ry="3" style="stroke: #038048; stroke-width: 1.0;"/><text fill="#000000" font-family="sans-serif" font-size="11" lengthAdjust="spacingAndGlyphs" textLength="167" x="58" y="402.9136">removeHeaderRow(index: int)</text><ellipse cx="49" cy="413.4102" fill="#84BE84" rx="3" ry="3" style="stroke: #038048; stroke-width: 1.0;"/><text fill="#000000" font-family="sans-serif" font-size="11" lengthAdjust="spacingAndGlyphs" textLength="162" x="58" y="415.7183">removeFooterRow(index: int)</text><line style="stroke: #A80036; stroke-width: 1.0; stroke-dasharray: 1.0,2.0;" x1="39" x2="721" y1="422.3125" y2="422.3125"/><ellipse cx="49" cy="434.2148" fill="#84BE84" rx="3" ry="3" style="stroke: #038048; stroke-width: 1.0;"/><text fill="#000000" font-family="sans-serif" font-size="11" lengthAdjust="spacingAndGlyphs" textLength="219" x="58" y="436.5229">getDataProvider(): DataProvider&lt;T, ?&gt;</text><ellipse cx="49" cy="447.0195" fill="#84BE84" rx="3" ry="3" style="stroke: #038048; stroke-width: 1.0;"/><text fill="#000000" font-family="sans-serif" font-size="11" lengthAdjust="spacingAndGlyphs" textLength="291" x="58" y="449.3276">setDataProvider(dataProvider: DataProvider&lt;T, ?&gt;)</text><line style="stroke: #A80036; stroke-width: 1.0; stroke-dasharray: 1.0,2.0;" x1="39" x2="721" y1="455.9219" y2="455.9219"/><ellipse cx="49" cy="467.8242" fill="#84BE84" rx="3" ry="3" style="stroke: #038048; stroke-width: 1.0;"/><text fill="#000000" font-family="sans-serif" font-size="11" lengthAdjust="spacingAndGlyphs" textLength="169" x="58" y="470.1323">sort(userOriginated: boolean)</text><ellipse cx="49" cy="480.6289" fill="#84BE84" rx="3" ry="3" style="stroke: #038048; stroke-width: 1.0;"/><text fill="#000000" font-family="sans-serif" font-size="11" lengthAdjust="spacingAndGlyphs" textLength="158" x="58" y="482.937">sort(column: Column&lt;T,?&gt;)</text><ellipse cx="49" cy="493.4336" fill="#84BE84" rx="3" ry="3" style="stroke: #038048; stroke-width: 1.0;"/><text fill="#000000" font-family="sans-serif" font-size="11" lengthAdjust="spacingAndGlyphs" textLength="297" x="58" y="495.7417">sort(column: Column&lt;T,?&gt;, direction: SortDirection)</text><ellipse cx="49" cy="506.2383" fill="#84BE84" rx="3" ry="3" style="stroke: #038048; stroke-width: 1.0;"/><text fill="#000000" font-family="sans-serif" font-size="11" lengthAdjust="spacingAndGlyphs" textLength="124" x="58" y="508.5464">sort(columnId: String)</text><ellipse cx="49" cy="519.043" fill="#84BE84" rx="3" ry="3" style="stroke: #038048; stroke-width: 1.0;"/><text fill="#000000" font-family="sans-serif" font-size="11" lengthAdjust="spacingAndGlyphs" textLength="263" x="58" y="521.3511">sort(columnId: String, direction: SortDirection)</text><!--class Column--><rect fill="#FEFECE" filter="url(#frtlbat3xvzah)" height="180.8516" id="Column" style="stroke: #A80036; stroke-width: 1.5;" width="389" x="757.5" y="203"/><ellipse cx="911.25" cy="219" fill="#ADD1B2" rx="11" ry="11" style="stroke: #A80036; stroke-width: 1.0;"/><path d="M913.5938,214.6719 L913.7656,214.75 C913.9844,214.4375 914.1875,214.3438 914.4844,214.3438 C914.7813,214.3438 915.0625,214.4844 915.2188,214.75 C915.3125,214.9063 915.3281,215.0313 915.3281,215.4688 L915.3281,216.8906 C915.3281,217.3125 915.2969,217.5 915.1875,217.6563 C915.0156,217.875 914.75,218.0156 914.4844,218.0156 C914.2656,218.0156 914.0313,217.9063 913.8906,217.7656 C913.75,217.6406 913.7188,217.5156 913.6563,217.1094 C913.5625,216.7031 913.3906,216.4844 912.9063,216.2031 C912.4375,215.9531 911.8281,215.7969 911.25,215.7969 C909.5156,215.7969 908.2656,217.1094 908.2656,218.8906 L908.2656,219.9844 C908.2656,221.6875 909.5625,222.7813 911.6094,222.7813 C912.375,222.7813 913.0625,222.6563 913.4844,222.3906 C913.6719,222.2969 913.6719,222.2969 914.125,221.8125 C914.3125,221.625 914.5156,221.5469 914.7344,221.5469 C915.2031,221.5469 915.5938,221.9375 915.5938,222.3906 C915.5938,222.7813 915.2656,223.2344 914.6875,223.6406 C913.9375,224.1875 912.7813,224.4844 911.5625,224.4844 C908.6719,224.4844 906.5625,222.5938 906.5625,220.0156 L906.5625,218.8906 C906.5625,216.1719 908.5625,214.0938 911.1875,214.0938 C912.0625,214.0938 912.6563,214.2344 913.5938,214.6719 Z "/><text fill="#000000" font-family="sans-serif" font-size="12" lengthAdjust="spacingAndGlyphs" textLength="46" x="931.75" y="223.1543">Column</text><rect fill="#FFFFFF" height="15.9688" style="stroke: #000000; stroke-width: 1.0; stroke-dasharray: 2.0,2.0;" width="25" x="1124.5" y="200"/><text fill="#000000" font-family="sans-serif" font-size="12" font-style="italic" lengthAdjust="spacingAndGlyphs" textLength="23" x="1125.5" y="212.1387">T, V</text><line style="stroke: #A80036; stroke-width: 1.5;" x1="758.5" x2="1145.5" y1="235" y2="235"/><ellipse cx="768.5" cy="246.9023" fill="#84BE84" rx="3" ry="3" style="stroke: #038048; stroke-width: 1.0;"/><text fill="#000000" font-family="sans-serif" font-size="11" lengthAdjust="spacingAndGlyphs" textLength="116" x="777.5" y="249.2104">isEditable(): boolean</text><ellipse cx="768.5" cy="259.707" fill="#84BE84" rx="3" ry="3" style="stroke: #038048; stroke-width: 1.0;"/><text fill="#000000" font-family="sans-serif" font-size="11" lengthAdjust="spacingAndGlyphs" textLength="113" x="777.5" y="262.0151">isHidable(): boolean</text><ellipse cx="768.5" cy="272.5117" fill="#84BE84" rx="3" ry="3" style="stroke: #038048; stroke-width: 1.0;"/><text fill="#000000" font-family="sans-serif" font-size="11" lengthAdjust="spacingAndGlyphs" textLength="110" x="777.5" y="274.8198">isHidden(): boolean</text><ellipse cx="768.5" cy="285.3164" fill="#84BE84" rx="3" ry="3" style="stroke: #038048; stroke-width: 1.0;"/><text fill="#000000" font-family="sans-serif" font-size="11" lengthAdjust="spacingAndGlyphs" textLength="124" x="777.5" y="287.6245">isResizable(): boolean</text><ellipse cx="768.5" cy="298.1211" fill="#84BE84" rx="3" ry="3" style="stroke: #038048; stroke-width: 1.0;"/><text fill="#000000" font-family="sans-serif" font-size="11" lengthAdjust="spacingAndGlyphs" textLength="119" x="777.5" y="300.4292">isSortable(): boolean</text><ellipse cx="768.5" cy="310.9258" fill="#84BE84" rx="3" ry="3" style="stroke: #038048; stroke-width: 1.0;"/><text fill="#000000" font-family="sans-serif" font-size="11" lengthAdjust="spacingAndGlyphs" textLength="169" x="777.5" y="313.2339">setEditable(editable: boolean)</text><ellipse cx="768.5" cy="323.7305" fill="#84BE84" rx="3" ry="3" style="stroke: #038048; stroke-width: 1.0;"/><text fill="#000000" font-family="sans-serif" font-size="11" lengthAdjust="spacingAndGlyphs" textLength="162" x="777.5" y="326.0386">setHidable(hidable: boolean)</text><ellipse cx="768.5" cy="336.5352" fill="#84BE84" rx="3" ry="3" style="stroke: #038048; stroke-width: 1.0;"/><text fill="#000000" font-family="sans-serif" font-size="11" lengthAdjust="spacingAndGlyphs" textLength="156" x="777.5" y="338.8433">setHidden(hidden: boolean)</text><ellipse cx="768.5" cy="349.3398" fill="#84BE84" rx="3" ry="3" style="stroke: #038048; stroke-width: 1.0;"/><text fill="#000000" font-family="sans-serif" font-size="11" lengthAdjust="spacingAndGlyphs" textLength="178" x="777.5" y="351.6479">setResizable(resiable: boolean)</text><ellipse cx="768.5" cy="362.1445" fill="#84BE84" rx="3" ry="3" style="stroke: #038048; stroke-width: 1.0;"/><text fill="#000000" font-family="sans-serif" font-size="11" lengthAdjust="spacingAndGlyphs" textLength="363" x="777.5" y="364.4526">setRenderer(renderer: Renderer&lt;? extends V&gt;): Column&lt;T, V&gt;</text><ellipse cx="768.5" cy="374.9492" fill="#84BE84" rx="3" ry="3" style="stroke: #038048; stroke-width: 1.0;"/><text fill="#000000" font-family="sans-serif" font-size="11" lengthAdjust="spacingAndGlyphs" textLength="174" x="777.5" y="377.2573">setSortable(sortable: boolean)</text><!--class Renderer--><rect fill="#FEFECE" filter="url(#frtlbat3xvzah)" height="65.6094" id="Renderer" style="stroke: #A80036; stroke-width: 1.5;" width="214" x="845" y="588"/><ellipse cx="913.25" cy="604" fill="#B4A7E5" rx="11" ry="11" style="stroke: #A80036; stroke-width: 1.0;"/><path d="M914.2031,600.7813 L914.2031,607.2969 L915.9219,607.2969 C916.375,607.2969 916.5156,607.3281 916.6875,607.4531 C916.9219,607.625 917.0313,607.875 917.0313,608.1563 C917.0313,608.7188 916.6719,609 915.9219,609 L910.7813,609 C910.375,609 910.1719,608.9531 910.0156,608.8281 C909.7969,608.6719 909.6563,608.4063 909.6563,608.1563 C909.6563,607.8594 909.8125,607.5781 910.0625,607.4219 C910.2188,607.3125 910.3438,607.2969 910.7813,607.2969 L912.5,607.2969 L912.5,600.7813 L910.7813,600.7813 C910.3594,600.7813 910.1719,600.75 910.0156,600.6406 C909.7969,600.4688 909.6563,600.2188 909.6563,599.9375 C909.6563,599.6563 909.8125,599.3594 910.0625,599.2031 C910.2188,599.1094 910.3438,599.0938 910.7813,599.0938 L915.9219,599.0938 C916.375,599.0938 916.5156,599.125 916.6875,599.2344 C916.9219,599.4063 917.0313,599.6719 917.0313,599.9375 C917.0313,600.2344 916.8906,600.5156 916.625,600.6719 C916.5,600.75 916.3125,600.7813 915.9219,600.7813 Z "/><text fill="#000000" font-family="sans-serif" font-size="12" font-style="italic" lengthAdjust="spacingAndGlyphs" textLength="58" x="933.75" y="608.1543">Renderer</text><rect fill="#FFFFFF" height="15.9688" style="stroke: #000000; stroke-width: 1.0; stroke-dasharray: 2.0,2.0;" width="9" x="1053" y="585"/><text fill="#000000" font-family="sans-serif" font-size="12" font-style="italic" lengthAdjust="spacingAndGlyphs" textLength="7" x="1054" y="597.1387">T</text><line style="stroke: #A80036; stroke-width: 1.5;" x1="846" x2="1058" y1="620" y2="620"/><ellipse cx="856" cy="631.9023" fill="#84BE84" rx="3" ry="3" style="stroke: #038048; stroke-width: 1.0;"/><text fill="#000000" font-family="sans-serif" font-size="11" font-style="italic" lengthAdjust="spacingAndGlyphs" textLength="188" x="865" y="634.2104">getPresentationType(): Class&lt;T&gt;</text><ellipse cx="856" cy="644.707" fill="#84BE84" rx="3" ry="3" style="stroke: #038048; stroke-width: 1.0;"/><text fill="#000000" font-family="sans-serif" font-size="11" font-style="italic" lengthAdjust="spacingAndGlyphs" textLength="131" x="865" y="647.0151">encode(t: T): JsonValue</text><!--class AbstractRenderer--><rect fill="#FEFECE" filter="url(#frtlbat3xvzah)" height="32" id="AbstractRenderer" style="stroke: #A80036; stroke-width: 1.5;" width="169" x="867.5" y="714"/><ellipse cx="882.5" cy="730" fill="#A9DCDF" rx="11" ry="11" style="stroke: #A80036; stroke-width: 1.0;"/><path d="M884.0781,731.8125 L880.0313,731.8125 L879.6406,732.7969 L880.0313,732.7969 C880.4844,732.7969 880.625,732.8281 880.7969,732.9531 C881.0156,733.125 881.1406,733.375 881.1406,733.6563 C881.1406,733.9375 881,734.2344 880.7344,734.375 C880.6094,734.4688 880.3906,734.5 880.0313,734.5 L877.7656,734.5 C877.0156,734.5 876.6406,734.2188 876.6406,733.6563 C876.6406,733.3594 876.7969,733.0781 877.0469,732.9219 C877.2031,732.8125 877.3594,732.7969 877.7813,732.7969 L880.4219,726.2813 L879.3438,726.2813 C878.9063,726.2813 878.7344,726.25 878.5625,726.1406 C878.3438,725.9688 878.2031,725.7188 878.2031,725.4375 C878.2031,725.1563 878.3594,724.875 878.6094,724.7031 C878.7656,724.6094 878.8906,724.5938 879.3438,724.5938 L883.0156,724.5938 L886.4063,732.7969 C886.875,732.7969 887.0313,732.8281 887.2031,732.9688 C887.4219,733.125 887.5625,733.375 887.5625,733.6563 C887.5625,733.9375 887.4063,734.2344 887.1563,734.375 C887.0156,734.4688 886.7969,734.5 886.4375,734.5 L884.0781,734.5 C883.6563,734.5 883.4531,734.4531 883.3125,734.3281 C883.0938,734.1719 882.9531,733.9219 882.9531,733.6563 C882.9531,733.3594 883.1094,733.0781 883.3594,732.9219 C883.5156,732.8125 883.625,732.7969 884.0781,732.7969 L884.4688,732.7969 Z M883.375,730.1094 L882.0469,726.8438 L880.7031,730.1094 Z "/><text fill="#000000" font-family="sans-serif" font-size="12" font-style="italic" lengthAdjust="spacingAndGlyphs" textLength="110" x="896.5" y="734.1543">AbstractRenderer</text><rect fill="#FFFFFF" height="15.9688" style="stroke: #000000; stroke-width: 1.0; stroke-dasharray: 2.0,2.0;" width="25" x="1014.5" y="711"/><text fill="#000000" font-family="sans-serif" font-size="12" font-style="italic" lengthAdjust="spacingAndGlyphs" textLength="23" x="1015.5" y="723.1387">T, V</text><!--link Grid to Column--><path d="M722.139,462.599 C768.426,451.424 814.713,426.43 861,387.615 " fill="none" id="Grid-Column" style="stroke: #A80036; stroke-width: 1.0;"/><polygon fill="#A80036" points="864.904,384.308,855.4509,387.0719,861.0884,387.5393,860.621,393.1768,864.904,384.308" style="stroke: #A80036; stroke-width: 1.0;"/><text fill="#000000" font-family="sans-serif" font-size="13" lengthAdjust="spacingAndGlyphs" textLength="7" x="850.9677" y="403.9124">*</text><!--link Grid to Column--><path d="M722.139,124.401 C765.823,134.948 809.508,157.804 853.193,192.969 " fill="none" id="Grid-Column" style="stroke: #A80036; stroke-width: 1.0;"/><ellipse cx="858.7487" cy="197.582" fill="#FFFFFF" rx="8" ry="8" style="stroke: #A80036; stroke-width: 1.0;"/><line style="stroke: #A80036; stroke-width: 1.0;" x1="852.5934" x2="864.904" y1="192.472" y2="202.692"/><line style="stroke: #A80036; stroke-width: 1.0;" x1="863.8587" x2="853.6387" y1="191.4267" y2="203.7373"/><!--link Column to Renderer--><path d="M952,384.306 C952,449.668 952,534.82 952,582.83 " fill="none" id="Column-Renderer" style="stroke: #A80036; stroke-width: 1.0; stroke-dasharray: 7.0,7.0;"/><polygon fill="#A80036" points="952,587.927,956,578.927,952,582.927,948,578.927,952,587.927" style="stroke: #A80036; stroke-width: 1.0;"/><!--link Renderer to AbstractRenderer--><path d="M952,674.143 C952,688.7 952,703.3913 952,713.9018 " fill="none" id="Renderer-AbstractRenderer" style="stroke: #A80036; stroke-width: 1.0;"/><polygon fill="none" points="945,674.104,952,654.104,959,674.103,945,674.104" style="stroke: #A80036; stroke-width: 1.0;"/><!--
@startuml
package "com.vaadin.ui" {
 class Grid<T> {
  + Grid()
  + Grid(beanType: Class<T>)
  + Grid(dataProvider: DataProvider<T,?>)
  + Grid(caption: String, items: Collection<T>)
  + Grid(caption: String, dataProvider: DataProvider<T,?>)
....
  + addColumn(propertyName: String): Column<T, ?>
  + addColumn(propertyName: String, renderer: AbstractRenderer<? super T,?>): Column<T, ?>
  + addColumn(identifier: String, column: Column<T,?>): Column<T, ?>
  + addColumn(valueProvider: ValueProvider<T,V>): Column<T, ?>
  + addColumn(valueProvider: ValueProvider<T,V>, rendered: AbstractRenderer<? super T,? super V>): Column<T, ?>
  + getColumn(columnId: String): Column<T,?>
  + getColumns(): List<Column<T,?>>
  + removeColumn(column: Column<T,?>)
  + removeColumn(columnId: String)
....
  + addHeaderRowAt(row: int): HeaderRow
  + addFooterRowAt(row: int): FooterRow
  + appendHeaderRow(): HeaderRow
  + appendFooterRow(): FooterRow
  + prependHeaderRow(): HeaderRow
  + prependFooterRow(): FooterRow
  + removeHeaderRow(row: HeaderRow)
  + removeFooterRow(row: FooterRow)
  + removeHeaderRow(index: int)
  + removeFooterRow(index: int)
....
  + getDataProvider(): DataProvider<T, ?>
  + setDataProvider(dataProvider: DataProvider<T, ?>)
....
  + sort(userOriginated: boolean)
  + sort(column: Column<T,?>)
  + sort(column: Column<T,?>, direction: SortDirection)
  + sort(columnId: String)
  + sort(columnId: String, direction: SortDirection)
 }
 class Column<T, V> {
  + isEditable(): boolean
  + isHidable(): boolean
  + isHidden(): boolean
  + isResizable(): boolean
  + isSortable(): boolean
  + setEditable(editable: boolean)
  + setHidable(hidable: boolean)
  + setHidden(hidden: boolean)
  + setResizable(resiable: boolean)
  + setRenderer(renderer: Renderer<? extends V>): Column<T, V>
  + setSortable(sortable: boolean)
 }
 package "renderers" {
  interface Renderer<T> {
   + {abstract} getPresentationType(): Class<T>
   + {abstract} encode(t: T): JsonValue
  }
  abstract class AbstractRenderer<T, V>
 }
}

Grid - -> "*" Column
Grid -+ Column
Column ..> Renderer
AbstractRenderer -up-|> Renderer

hide empty attributes
hide empty methods
@enduml

PlantUML version 1.2017.16(Sun Sep 03 10:53:37 UTC 2017)
(GPL source distribution)
Java Runtime: Java(TM) SE Runtime Environment
JVM: Java HotSpot(TM) 64-Bit Server VM
Java Version: 1.7.0_25-b15
Operating System: Linux
Default Encoding: UTF-8
Language: en
Country: US
--></g></svg>