<?xml version="1.0" encoding="UTF-8" standalone="no"?><svg xmlns="http://www.w3.org/2000/svg" xmlns:xlink="http://www.w3.org/1999/xlink" contentScriptType="application/ecmascript" contentStyleType="text/css" preserveAspectRatio="true" version="1.1" viewBox="0 0 1002 604" zoomAndPan="magnify"><defs><filter height="300%" id="fqmzm4zhh39n9" width="300%" x="-1" y="-1"><feGaussianBlur result="blurOut" stdDeviation="2.0"/><feColorMatrix in="blurOut" result="blurOut2" type="matrix" values="0 0 0 0 0 0 0 0 0 0 0 0 0 0 0 0 0 0 .4 0"/><feOffset dx="4.0" dy="4.0" in="blurOut2" result="blurOut3"/><feBlend in="SourceGraphic" in2="blurOut3" mode="normal"/></filter></defs><g><!--cluster com.vaadin--><polygon fill="#FFFFFF" filter="url(#fqmzm4zhh39n9)" points="22,24.5,117,24.5,124,46.7969,980,46.7969,980,592,22,592,22,24.5" style="stroke: #000000; stroke-width: 2.0;"/><line style="stroke: #000000; stroke-width: 2.0;" x1="22" x2="124" y1="46.7969" y2="46.7969"/><text fill="#000000" font-family="sans-serif" font-size="14" font-weight="bold" lengthAdjust="spacingAndGlyphs" textLength="89" x="26" y="39.4951">com.vaadin</text><!--cluster data--><polygon fill="#FFFFFF" filter="url(#fqmzm4zhh39n9)" points="46,67.5,86,67.5,93,89.7969,764,89.7969,764,500,46,500,46,67.5" style="stroke: #000000; stroke-width: 2.0;"/><line style="stroke: #000000; stroke-width: 2.0;" x1="46" x2="93" y1="89.7969" y2="89.7969"/><text fill="#000000" font-family="sans-serif" font-size="14" font-weight="bold" lengthAdjust="spacingAndGlyphs" textLength="34" x="50" y="82.4951">data</text><!--cluster provider--><polygon fill="#FFFFFF" filter="url(#fqmzm4zhh39n9)" points="70,110.5,143,110.5,150,132.7969,410,132.7969,410,476,70,476,70,110.5" style="stroke: #000000; stroke-width: 2.0;"/><line style="stroke: #000000; stroke-width: 2.0;" x1="70" x2="150" y1="132.7969" y2="132.7969"/><text fill="#000000" font-family="sans-serif" font-size="14" font-weight="bold" lengthAdjust="spacingAndGlyphs" textLength="67" x="74" y="125.4951">provider</text><!--cluster ui--><polygon fill="#FFFFFF" filter="url(#fqmzm4zhh39n9)" points="788,321,808,321,815,343.2969,956,343.2969,956,568,788,568,788,321" style="stroke: #000000; stroke-width: 2.0;"/><line style="stroke: #000000; stroke-width: 2.0;" x1="788" x2="815" y1="343.2969" y2="343.2969"/><text fill="#000000" font-family="sans-serif" font-size="14" font-weight="bold" lengthAdjust="spacingAndGlyphs" textLength="14" x="792" y="335.9951">ui</text><!--class HasItems--><rect fill="#FEFECE" filter="url(#fqmzm4zhh39n9)" height="91.2188" id="HasItems" style="stroke: #A80036; stroke-width: 1.5;" width="247" x="464.5" y="133"/><ellipse cx="549.75" cy="149" fill="#B4A7E5" rx="11" ry="11" style="stroke: #A80036; stroke-width: 1.0;"/><path d="M550.7031,145.7813 L550.7031,152.2969 L552.4219,152.2969 C552.875,152.2969 553.0156,152.3281 553.1875,152.4531 C553.4219,152.625 553.5313,152.875 553.5313,153.1563 C553.5313,153.7188 553.1719,154 552.4219,154 L547.2813,154 C546.875,154 546.6719,153.9531 546.5156,153.8281 C546.2969,153.6719 546.1563,153.4063 546.1563,153.1563 C546.1563,152.8594 546.3125,152.5781 546.5625,152.4219 C546.7188,152.3125 546.8438,152.2969 547.2813,152.2969 L549,152.2969 L549,145.7813 L547.2813,145.7813 C546.8594,145.7813 546.6719,145.75 546.5156,145.6406 C546.2969,145.4688 546.1563,145.2188 546.1563,144.9375 C546.1563,144.6563 546.3125,144.3594 546.5625,144.2031 C546.7188,144.1094 546.8438,144.0938 547.2813,144.0938 L552.4219,144.0938 C552.875,144.0938 553.0156,144.125 553.1875,144.2344 C553.4219,144.4063 553.5313,144.6719 553.5313,144.9375 C553.5313,145.2344 553.3906,145.5156 553.125,145.6719 C553,145.75 552.8125,145.7813 552.4219,145.7813 Z "/><text fill="#000000" font-family="sans-serif" font-size="12" font-style="italic" lengthAdjust="spacingAndGlyphs" textLength="57" x="570.25" y="153.1543">HasItems</text><rect fill="#FFFFFF" height="15.9688" style="stroke: #000000; stroke-width: 1.0; stroke-dasharray: 2.0,2.0;" width="9" x="705.5" y="130"/><text fill="#000000" font-family="sans-serif" font-size="12" font-style="italic" lengthAdjust="spacingAndGlyphs" textLength="7" x="706.5" y="142.1387">T</text><line style="stroke: #A80036; stroke-width: 1.5;" x1="465.5" x2="710.5" y1="165" y2="165"/><ellipse cx="475.5" cy="176.9023" fill="#84BE84" rx="3" ry="3" style="stroke: #038048; stroke-width: 1.0;"/><text fill="#000000" font-family="sans-serif" font-size="11" font-style="italic" lengthAdjust="spacingAndGlyphs" textLength="221" x="484.5" y="179.2104">getDataProvider(): DataProvider&lt;T, ?&gt;</text><ellipse cx="475.5" cy="189.707" fill="#84BE84" rx="3" ry="3" style="stroke: #038048; stroke-width: 1.0;"/><text fill="#000000" font-family="sans-serif" font-size="11" font-style="italic" lengthAdjust="spacingAndGlyphs" textLength="175" x="484.5" y="192.0151">setItems(items: Collection&lt;T&gt;)</text><ellipse cx="475.5" cy="202.5117" fill="#84BE84" rx="3" ry="3" style="stroke: #038048; stroke-width: 1.0;"/><text fill="#000000" font-family="sans-serif" font-size="11" font-style="italic" lengthAdjust="spacingAndGlyphs" textLength="214" x="484.5" y="204.8198">setItems(streamOfItems: Stream&lt;T&gt;)</text><ellipse cx="475.5" cy="215.3164" fill="#84BE84" rx="3" ry="3" style="stroke: #038048; stroke-width: 1.0;"/><text fill="#000000" font-family="sans-serif" font-size="11" font-style="italic" lengthAdjust="spacingAndGlyphs" textLength="114" x="484.5" y="217.6245">setItems(items: T...)</text><!--class HasDataProvider--><rect fill="#FEFECE" filter="url(#fqmzm4zhh39n9)" height="52.8047" id="HasDataProvider" style="stroke: #A80036; stroke-width: 1.5;" width="319" x="428.5" y="345.5"/><ellipse cx="526.75" cy="361.5" fill="#B4A7E5" rx="11" ry="11" style="stroke: #A80036; stroke-width: 1.0;"/><path d="M527.7031,358.2813 L527.7031,364.7969 L529.4219,364.7969 C529.875,364.7969 530.0156,364.8281 530.1875,364.9531 C530.4219,365.125 530.5313,365.375 530.5313,365.6563 C530.5313,366.2188 530.1719,366.5 529.4219,366.5 L524.2813,366.5 C523.875,366.5 523.6719,366.4531 523.5156,366.3281 C523.2969,366.1719 523.1563,365.9063 523.1563,365.6563 C523.1563,365.3594 523.3125,365.0781 523.5625,364.9219 C523.7188,364.8125 523.8438,364.7969 524.2813,364.7969 L526,364.7969 L526,358.2813 L524.2813,358.2813 C523.8594,358.2813 523.6719,358.25 523.5156,358.1406 C523.2969,357.9688 523.1563,357.7188 523.1563,357.4375 C523.1563,357.1563 523.3125,356.8594 523.5625,356.7031 C523.7188,356.6094 523.8438,356.5938 524.2813,356.5938 L529.4219,356.5938 C529.875,356.5938 530.0156,356.625 530.1875,356.7344 C530.4219,356.9063 530.5313,357.1719 530.5313,357.4375 C530.5313,357.7344 530.3906,358.0156 530.125,358.1719 C530,358.25 529.8125,358.2813 529.4219,358.2813 Z "/><text fill="#000000" font-family="sans-serif" font-size="12" font-style="italic" lengthAdjust="spacingAndGlyphs" textLength="103" x="547.25" y="365.6543">HasDataProvider</text><rect fill="#FFFFFF" height="15.9688" style="stroke: #000000; stroke-width: 1.0; stroke-dasharray: 2.0,2.0;" width="9" x="741.5" y="342.5"/><text fill="#000000" font-family="sans-serif" font-size="12" font-style="italic" lengthAdjust="spacingAndGlyphs" textLength="7" x="742.5" y="354.6387">T</text><line style="stroke: #A80036; stroke-width: 1.5;" x1="429.5" x2="746.5" y1="377.5" y2="377.5"/><ellipse cx="439.5" cy="389.4023" fill="#84BE84" rx="3" ry="3" style="stroke: #038048; stroke-width: 1.0;"/><text fill="#000000" font-family="sans-serif" font-size="11" font-style="italic" lengthAdjust="spacingAndGlyphs" textLength="293" x="448.5" y="391.7104">setDataProvider(dataProvider: DataProvider&lt;T, ?&gt;)</text><!--class DataProvider--><rect fill="#FEFECE" filter="url(#fqmzm4zhh39n9)" height="65.6094" id="DataProvider" style="stroke: #A80036; stroke-width: 1.5;" width="251" x="128.5" y="145.5"/><ellipse cx="196.75" cy="161.5" fill="#B4A7E5" rx="11" ry="11" style="stroke: #A80036; stroke-width: 1.0;"/><path d="M197.7031,158.2813 L197.7031,164.7969 L199.4219,164.7969 C199.875,164.7969 200.0156,164.8281 200.1875,164.9531 C200.4219,165.125 200.5313,165.375 200.5313,165.6563 C200.5313,166.2188 200.1719,166.5 199.4219,166.5 L194.2813,166.5 C193.875,166.5 193.6719,166.4531 193.5156,166.3281 C193.2969,166.1719 193.1563,165.9063 193.1563,165.6563 C193.1563,165.3594 193.3125,165.0781 193.5625,164.9219 C193.7188,164.8125 193.8438,164.7969 194.2813,164.7969 L196,164.7969 L196,158.2813 L194.2813,158.2813 C193.8594,158.2813 193.6719,158.25 193.5156,158.1406 C193.2969,157.9688 193.1563,157.7188 193.1563,157.4375 C193.1563,157.1563 193.3125,156.8594 193.5625,156.7031 C193.7188,156.6094 193.8438,156.5938 194.2813,156.5938 L199.4219,156.5938 C199.875,156.5938 200.0156,156.625 200.1875,156.7344 C200.4219,156.9063 200.5313,157.1719 200.5313,157.4375 C200.5313,157.7344 200.3906,158.0156 200.125,158.1719 C200,158.25 199.8125,158.2813 199.4219,158.2813 Z "/><text fill="#000000" font-family="sans-serif" font-size="12" font-style="italic" lengthAdjust="spacingAndGlyphs" textLength="80" x="217.25" y="165.6543">DataProvider</text><rect fill="#FFFFFF" height="15.9688" style="stroke: #000000; stroke-width: 1.0; stroke-dasharray: 2.0,2.0;" width="24" x="358.5" y="142.5"/><text fill="#000000" font-family="sans-serif" font-size="12" font-style="italic" lengthAdjust="spacingAndGlyphs" textLength="22" x="359.5" y="154.6387">T, F</text><line style="stroke: #A80036; stroke-width: 1.5;" x1="129.5" x2="378.5" y1="177.5" y2="177.5"/><ellipse cx="139.5" cy="189.4023" fill="#84BE84" rx="3" ry="3" style="stroke: #038048; stroke-width: 1.0;"/><text fill="#000000" font-family="sans-serif" font-size="11" font-style="italic" lengthAdjust="spacingAndGlyphs" textLength="225" x="148.5" y="191.7104">fetch(query: Query&lt;T, F&gt;): Stream&lt;T&gt;</text><ellipse cx="139.5" cy="202.207" fill="#84BE84" rx="3" ry="3" style="stroke: #038048; stroke-width: 1.0;"/><text fill="#000000" font-family="sans-serif" font-size="11" font-style="italic" lengthAdjust="spacingAndGlyphs" textLength="145" x="148.5" y="204.5151">size(query: Query&lt;T, F&gt;)</text><!--class Query--><rect fill="#FEFECE" filter="url(#fqmzm4zhh39n9)" height="176.0469" id="Query" style="stroke: #A80036; stroke-width: 1.5;" width="307" x="86.5" y="284"/><ellipse cx="204.75" cy="300" fill="#ADD1B2" rx="11" ry="11" style="stroke: #A80036; stroke-width: 1.0;"/><path d="M207.0938,295.6719 L207.2656,295.75 C207.4844,295.4375 207.6875,295.3438 207.9844,295.3438 C208.2813,295.3438 208.5625,295.4844 208.7188,295.75 C208.8125,295.9063 208.8281,296.0313 208.8281,296.4688 L208.8281,297.8906 C208.8281,298.3125 208.7969,298.5 208.6875,298.6563 C208.5156,298.875 208.25,299.0156 207.9844,299.0156 C207.7656,299.0156 207.5313,298.9063 207.3906,298.7656 C207.25,298.6406 207.2188,298.5156 207.1563,298.1094 C207.0625,297.7031 206.8906,297.4844 206.4063,297.2031 C205.9375,296.9531 205.3281,296.7969 204.75,296.7969 C203.0156,296.7969 201.7656,298.1094 201.7656,299.8906 L201.7656,300.9844 C201.7656,302.6875 203.0625,303.7813 205.1094,303.7813 C205.875,303.7813 206.5625,303.6563 206.9844,303.3906 C207.1719,303.2969 207.1719,303.2969 207.625,302.8125 C207.8125,302.625 208.0156,302.5469 208.2344,302.5469 C208.7031,302.5469 209.0938,302.9375 209.0938,303.3906 C209.0938,303.7813 208.7656,304.2344 208.1875,304.6406 C207.4375,305.1875 206.2813,305.4844 205.0625,305.4844 C202.1719,305.4844 200.0625,303.5938 200.0625,301.0156 L200.0625,299.8906 C200.0625,297.1719 202.0625,295.0938 204.6875,295.0938 C205.5625,295.0938 206.1563,295.2344 207.0938,295.6719 Z "/><text fill="#000000" font-family="sans-serif" font-size="12" lengthAdjust="spacingAndGlyphs" textLength="36" x="225.25" y="304.1543">Query</text><rect fill="#FFFFFF" height="15.9688" style="stroke: #000000; stroke-width: 1.0; stroke-dasharray: 2.0,2.0;" width="24" x="372.5" y="281"/><text fill="#000000" font-family="sans-serif" font-size="12" font-style="italic" lengthAdjust="spacingAndGlyphs" textLength="22" x="373.5" y="293.1387">T, F</text><line style="stroke: #A80036; stroke-width: 1.5;" x1="87.5" x2="392.5" y1="316" y2="316"/><ellipse cx="97.5" cy="327.9023" fill="#84BE84" rx="3" ry="3" style="stroke: #038048; stroke-width: 1.0;"/><text fill="#000000" font-family="sans-serif" font-size="11" lengthAdjust="spacingAndGlyphs" textLength="42" x="106.5" y="330.2104">Query()</text><ellipse cx="97.5" cy="340.707" fill="#84BE84" rx="3" ry="3" style="stroke: #038048; stroke-width: 1.0;"/><text fill="#000000" font-family="sans-serif" font-size="11" lengthAdjust="spacingAndGlyphs" textLength="82" x="106.5" y="343.0151">Query(filter: F)</text><ellipse cx="97.5" cy="366.3164" fill="#84BE84" rx="3" ry="3" style="stroke: #038048; stroke-width: 1.0;"/><text fill="#000000" font-family="sans-serif" font-size="11" lengthAdjust="spacingAndGlyphs" textLength="151" x="106.5" y="355.8198">Query(offset: int, limit: int,</text><text fill="#000000" font-family="sans-serif" font-size="11" lengthAdjust="spacingAndGlyphs" textLength="204" x="138.5" y="368.6245">sortOrders: List&lt;QuerySortOrder&gt;,</text><text fill="#000000" font-family="sans-serif" font-size="11" lengthAdjust="spacingAndGlyphs" textLength="249" x="138.5" y="381.4292">inMemorySorting: Comparator&lt;T&gt;, filter: F)</text><line style="stroke: #A80036; stroke-width: 1.0; stroke-dasharray: 1.0,2.0;" x1="87.5" x2="392.5" y1="388.0234" y2="388.0234"/><ellipse cx="97.5" cy="399.9258" fill="#84BE84" rx="3" ry="3" style="stroke: #038048; stroke-width: 1.0;"/><text fill="#000000" font-family="sans-serif" font-size="11" lengthAdjust="spacingAndGlyphs" textLength="133" x="106.5" y="402.2339">getFilter(): Optional&lt;F&gt;</text><ellipse cx="97.5" cy="412.7305" fill="#84BE84" rx="3" ry="3" style="stroke: #038048; stroke-width: 1.0;"/><text fill="#000000" font-family="sans-serif" font-size="11" lengthAdjust="spacingAndGlyphs" textLength="223" x="106.5" y="415.0386">getInMemorySorting(): Comparator&lt;T&gt;</text><ellipse cx="97.5" cy="425.5352" fill="#84BE84" rx="3" ry="3" style="stroke: #038048; stroke-width: 1.0;"/><text fill="#000000" font-family="sans-serif" font-size="11" lengthAdjust="spacingAndGlyphs" textLength="75" x="106.5" y="427.8433">getLimit(): int</text><ellipse cx="97.5" cy="438.3398" fill="#84BE84" rx="3" ry="3" style="stroke: #038048; stroke-width: 1.0;"/><text fill="#000000" font-family="sans-serif" font-size="11" lengthAdjust="spacingAndGlyphs" textLength="83" x="106.5" y="440.6479">getOffset(): int</text><ellipse cx="97.5" cy="451.1445" fill="#84BE84" rx="3" ry="3" style="stroke: #038048; stroke-width: 1.0;"/><text fill="#000000" font-family="sans-serif" font-size="11" lengthAdjust="spacingAndGlyphs" textLength="227" x="106.5" y="453.4526">getSortOrders(): List&lt;QuerySortOrder&gt;</text><!--class AbstractListing--><rect fill="#FEFECE" filter="url(#fqmzm4zhh39n9)" height="32" id="AbstractListing" style="stroke: #A80036; stroke-width: 1.5;" width="135" x="804.5" y="356"/><ellipse cx="819.5" cy="372" fill="#A9DCDF" rx="11" ry="11" style="stroke: #A80036; stroke-width: 1.0;"/><path d="M821.0781,373.8125 L817.0313,373.8125 L816.6406,374.7969 L817.0313,374.7969 C817.4844,374.7969 817.625,374.8281 817.7969,374.9531 C818.0156,375.125 818.1406,375.375 818.1406,375.6563 C818.1406,375.9375 818,376.2344 817.7344,376.375 C817.6094,376.4688 817.3906,376.5 817.0313,376.5 L814.7656,376.5 C814.0156,376.5 813.6406,376.2188 813.6406,375.6563 C813.6406,375.3594 813.7969,375.0781 814.0469,374.9219 C814.2031,374.8125 814.3594,374.7969 814.7813,374.7969 L817.4219,368.2813 L816.3438,368.2813 C815.9063,368.2813 815.7344,368.25 815.5625,368.1406 C815.3438,367.9688 815.2031,367.7188 815.2031,367.4375 C815.2031,367.1563 815.3594,366.875 815.6094,366.7031 C815.7656,366.6094 815.8906,366.5938 816.3438,366.5938 L820.0156,366.5938 L823.4063,374.7969 C823.875,374.7969 824.0313,374.8281 824.2031,374.9688 C824.4219,375.125 824.5625,375.375 824.5625,375.6563 C824.5625,375.9375 824.4063,376.2344 824.1563,376.375 C824.0156,376.4688 823.7969,376.5 823.4375,376.5 L821.0781,376.5 C820.6563,376.5 820.4531,376.4531 820.3125,376.3281 C820.0938,376.1719 819.9531,375.9219 819.9531,375.6563 C819.9531,375.3594 820.1094,375.0781 820.3594,374.9219 C820.5156,374.8125 820.625,374.7969 821.0781,374.7969 L821.4688,374.7969 Z M820.375,372.1094 L819.0469,368.8438 L817.7031,372.1094 Z "/><text fill="#000000" font-family="sans-serif" font-size="12" font-style="italic" lengthAdjust="spacingAndGlyphs" textLength="92" x="833.5" y="376.1543">AbstractListing</text><rect fill="#FFFFFF" height="15.9688" style="stroke: #000000; stroke-width: 1.0; stroke-dasharray: 2.0,2.0;" width="9" x="933.5" y="353"/><text fill="#000000" font-family="sans-serif" font-size="12" font-style="italic" lengthAdjust="spacingAndGlyphs" textLength="7" x="934.5" y="365.1387">T</text><!--class Grid--><rect fill="#FEFECE" filter="url(#fqmzm4zhh39n9)" height="32" id="Grid" style="stroke: #A80036; stroke-width: 1.5;" width="68" x="821" y="520"/><ellipse cx="836" cy="536" fill="#ADD1B2" rx="11" ry="11" style="stroke: #A80036; stroke-width: 1.0;"/><path d="M838.3438,531.6719 L838.5156,531.75 C838.7344,531.4375 838.9375,531.3438 839.2344,531.3438 C839.5313,531.3438 839.8125,531.4844 839.9688,531.75 C840.0625,531.9063 840.0781,532.0313 840.0781,532.4688 L840.0781,533.8906 C840.0781,534.3125 840.0469,534.5 839.9375,534.6563 C839.7656,534.875 839.5,535.0156 839.2344,535.0156 C839.0156,535.0156 838.7813,534.9063 838.6406,534.7656 C838.5,534.6406 838.4688,534.5156 838.4063,534.1094 C838.3125,533.7031 838.1406,533.4844 837.6563,533.2031 C837.1875,532.9531 836.5781,532.7969 836,532.7969 C834.2656,532.7969 833.0156,534.1094 833.0156,535.8906 L833.0156,536.9844 C833.0156,538.6875 834.3125,539.7813 836.3594,539.7813 C837.125,539.7813 837.8125,539.6563 838.2344,539.3906 C838.4219,539.2969 838.4219,539.2969 838.875,538.8125 C839.0625,538.625 839.2656,538.5469 839.4844,538.5469 C839.9531,538.5469 840.3438,538.9375 840.3438,539.3906 C840.3438,539.7813 840.0156,540.2344 839.4375,540.6406 C838.6875,541.1875 837.5313,541.4844 836.3125,541.4844 C833.4219,541.4844 831.3125,539.5938 831.3125,537.0156 L831.3125,535.8906 C831.3125,533.1719 833.3125,531.0938 835.9375,531.0938 C836.8125,531.0938 837.4063,531.2344 838.3438,531.6719 Z "/><text fill="#000000" font-family="sans-serif" font-size="12" lengthAdjust="spacingAndGlyphs" textLength="25" x="850" y="540.1543">Grid</text><rect fill="#FFFFFF" height="15.9688" style="stroke: #000000; stroke-width: 1.0; stroke-dasharray: 2.0,2.0;" width="9" x="883" y="517"/><text fill="#000000" font-family="sans-serif" font-size="12" font-style="italic" lengthAdjust="spacingAndGlyphs" textLength="7" x="884" y="529.1387">T</text><!--link HasItems to DataProvider--><path d="M464.248,178.5 C437.788,178.5 411.328,178.5 384.868,178.5 " fill="none" id="HasItems-DataProvider" style="stroke: #A80036; stroke-width: 1.0; stroke-dasharray: 7.0,7.0;"/><polygon fill="#A80036" points="379.576,178.5,388.576,182.5,384.576,178.5,388.576,174.5,379.576,178.5" style="stroke: #A80036; stroke-width: 1.0;"/><!--link DataProvider to Query--><path d="M251.657,211.553 C250.298,230.141 248.51,254.592 246.744,278.745 " fill="none" id="DataProvider-Query" style="stroke: #A80036; stroke-width: 1.0; stroke-dasharray: 7.0,7.0;"/><polygon fill="#A80036" points="246.368,283.893,251.013,275.2083,246.7323,278.9063,243.0343,274.6255,246.368,283.893" style="stroke: #A80036; stroke-width: 1.0;"/><!--link HasItems to AbstractListing--><path d="M686.298,234.522 C712.043,249.832 739.454,266.955 764,284 C797.422,307.209 833.784,337.69 854.638,355.727 " fill="none" id="HasItems-AbstractListing" style="stroke: #A80036; stroke-width: 1.0; stroke-dasharray: 7.0,7.0;"/><polygon fill="none" points="682.491,240.404,668.796,224.235,689.585,228.335,682.491,240.404" style="stroke: #A80036; stroke-width: 1.0;"/><!--link HasItems to HasDataProvider--><path d="M588,244.475 C588,279.126 588,319.794 588,345.48 " fill="none" id="HasItems-HasDataProvider" style="stroke: #A80036; stroke-width: 1.0;"/><polygon fill="none" points="581,244.398,588,224.398,595,244.398,581,244.398" style="stroke: #A80036; stroke-width: 1.0;"/><!--link AbstractListing to Grid--><path d="M868.307,408.189 C864.666,442.889 859.271,494.301 856.607,519.6819 " fill="none" id="AbstractListing-Grid" style="stroke: #A80036; stroke-width: 1.0;"/><polygon fill="none" points="861.352,407.401,870.401,388.241,875.275,408.862,861.352,407.401" style="stroke: #A80036; stroke-width: 1.0;"/><!--link Grid to HasDataProvider--><path d="M820.973,522.8928 C810.209,518.6411 798.41,513.5314 788,508 C734.184,479.405 676.948,439.715 637.556,410.774 " fill="none" id="Grid-HasDataProvider" style="stroke: #A80036; stroke-width: 1.0; stroke-dasharray: 7.0,7.0;"/><polygon fill="none" points="633.189,416.249,621.31,398.702,641.539,405.012,633.189,416.249" style="stroke: #A80036; stroke-width: 1.0;"/><!--
@startuml
package "com.vaadin" {
 package "data" {
  interface HasItems<T> {
   + {abstract} getDataProvider(): DataProvider<T, ?>
   + {abstract} setItems(items: Collection<T>)
   + {abstract} setItems(streamOfItems: Stream<T>)
   + {abstract} setItems(items: T...)
  }
  interface HasDataProvider<T> {
   + {abstract} setDataProvider(dataProvider: DataProvider<T, ?>)
  }
  package "provider" {
   interface DataProvider<T, F> {
    + {abstract} fetch(query: Query<T, F>): Stream<T>
    + {abstract} size(query: Query<T, F>)
   }
   class Query<T, F> {
    + Query()
    + Query(filter: F)
    + Query(offset: int, limit: int,\n\tsortOrders: List<QuerySortOrder>,\n\tinMemorySorting: Comparator<T>, filter: F)
....
    + getFilter(): Optional<F>
    + getInMemorySorting(): Comparator<T>
    + getLimit(): int
    + getOffset(): int
    + getSortOrders(): List<QuerySortOrder>
   }
  }
 }
 package "ui" {
  abstract class AbstractListing<T>
  class Grid<T>
 }
}

HasItems .right.> DataProvider
DataProvider ..> Query
AbstractListing .up.|> HasItems
HasDataProvider -up-|> HasItems
Grid -up-|> AbstractListing
Grid ..|> HasDataProvider

hide empty attributes
hide empty methods
@enduml

PlantUML version 1.2017.18(Fri Oct 06 16:56:32 UTC 2017)
(GPL source distribution)
Java Runtime: Java(TM) SE Runtime Environment
JVM: Java HotSpot(TM) 64-Bit Server VM
Java Version: 1.7.0_25-b15
Operating System: Linux
Default Encoding: UTF-8
Language: en
Country: US
--></g></svg>