<?xml version="1.0" encoding="UTF-8" standalone="no"?><svg xmlns="http://www.w3.org/2000/svg" xmlns:xlink="http://www.w3.org/1999/xlink" contentScriptType="application/ecmascript" contentStyleType="text/css" height="515px" preserveAspectRatio="none" style="width:780px;height:515px;" version="1.1" viewBox="0 0 780 515" width="780px" zoomAndPan="magnify"><defs><filter height="300%" id="f1wn0wxdv0x261" width="300%" x="-1" y="-1"><feGaussianBlur result="blurOut" stdDeviation="2.0"/><feColorMatrix in="blurOut" result="blurOut2" type="matrix" values="0 0 0 0 0 0 0 0 0 0 0 0 0 0 0 0 0 0 .4 0"/><feOffset dx="4.0" dy="4.0" in="blurOut2" result="blurOut3"/><feBlend in="SourceGraphic" in2="blurOut3" mode="normal"/></filter></defs><g><!--cluster com.vaadin.navigator--><polygon fill="#FFFFFF" filter="url(#f1wn0wxdv0x261)" points="22,24,196,24,203,46.2969,758,46.2969,758,503,22,503,22,24" style="stroke: #000000; stroke-width: 2.0;"/><line style="stroke: #000000; stroke-width: 2.0;" x1="22" x2="203" y1="46.2969" y2="46.2969"/><text fill="#000000" font-family="sans-serif" font-size="14" font-weight="bold" lengthAdjust="spacingAndGlyphs" textLength="168" x="26" y="38.9951">com.vaadin.navigator</text><!--class Navigator--><rect fill="#FEFECE" filter="url(#f1wn0wxdv0x261)" height="204.8516" id="Navigator" style="stroke: #A80036; stroke-width: 1.5;" width="472" x="38" y="59"/><ellipse cx="239.75" cy="75" fill="#ADD1B2" rx="11" ry="11" style="stroke: #A80036; stroke-width: 1.0;"/><path d="M242.0938,70.6719 L242.2656,70.75 C242.4844,70.4375 242.6875,70.3438 242.9844,70.3438 C243.2813,70.3438 243.5625,70.4844 243.7188,70.75 C243.8125,70.9063 243.8281,71.0313 243.8281,71.4688 L243.8281,72.8906 C243.8281,73.3125 243.7969,73.5 243.6875,73.6563 C243.5156,73.875 243.25,74.0156 242.9844,74.0156 C242.7656,74.0156 242.5313,73.9063 242.3906,73.7656 C242.25,73.6406 242.2188,73.5156 242.1563,73.1094 C242.0625,72.7031 241.8906,72.4844 241.4063,72.2031 C240.9375,71.9531 240.3281,71.7969 239.75,71.7969 C238.0156,71.7969 236.7656,73.1094 236.7656,74.8906 L236.7656,75.9844 C236.7656,77.6875 238.0625,78.7813 240.1094,78.7813 C240.875,78.7813 241.5625,78.6563 241.9844,78.3906 C242.1719,78.2969 242.1719,78.2969 242.625,77.8125 C242.8125,77.625 243.0156,77.5469 243.2344,77.5469 C243.7031,77.5469 244.0938,77.9375 244.0938,78.3906 C244.0938,78.7813 243.7656,79.2344 243.1875,79.6406 C242.4375,80.1875 241.2813,80.4844 240.0625,80.4844 C237.1719,80.4844 235.0625,78.5938 235.0625,76.0156 L235.0625,74.8906 C235.0625,72.1719 237.0625,70.0938 239.6875,70.0938 C240.5625,70.0938 241.1563,70.2344 242.0938,70.6719 Z "/><text fill="#000000" font-family="sans-serif" font-size="12" lengthAdjust="spacingAndGlyphs" textLength="60" x="260.25" y="79.1543">Navigator</text><line style="stroke: #A80036; stroke-width: 1.5;" x1="39" x2="509" y1="91" y2="91"/><ellipse cx="49" cy="102.9023" fill="#84BE84" rx="3" ry="3" style="stroke: #038048; stroke-width: 1.0;"/><text fill="#000000" font-family="sans-serif" font-size="11" lengthAdjust="spacingAndGlyphs" textLength="280" x="58" y="105.2104">Navigator(ui: UI, container: ComponentContainer)</text><ellipse cx="49" cy="115.707" fill="#84BE84" rx="3" ry="3" style="stroke: #038048; stroke-width: 1.0;"/><text fill="#000000" font-family="sans-serif" font-size="11" lengthAdjust="spacingAndGlyphs" textLength="446" x="58" y="118.0151">Navigator(ui: UI, stateManager: NavigationStateManager, display: ViewDisplay)</text><ellipse cx="49" cy="128.5117" fill="#84BE84" rx="3" ry="3" style="stroke: #038048; stroke-width: 1.0;"/><text fill="#000000" font-family="sans-serif" font-size="11" lengthAdjust="spacingAndGlyphs" textLength="315" x="58" y="130.8198">Navigator(ui: UI, container: SingleComponentContainer)</text><ellipse cx="49" cy="141.3164" fill="#84BE84" rx="3" ry="3" style="stroke: #038048; stroke-width: 1.0;"/><text fill="#000000" font-family="sans-serif" font-size="11" lengthAdjust="spacingAndGlyphs" textLength="214" x="58" y="143.6245">Navigator(ui: UI, display: ViewDisplay)</text><line style="stroke: #A80036; stroke-width: 1.0; stroke-dasharray: 1.0,2.0;" x1="39" x2="509" y1="150.2188" y2="150.2188"/><ellipse cx="49" cy="162.1211" fill="#84BE84" rx="3" ry="3" style="stroke: #038048; stroke-width: 1.0;"/><text fill="#000000" font-family="sans-serif" font-size="11" lengthAdjust="spacingAndGlyphs" textLength="56" x="58" y="164.4292">getUI(): UI</text><line style="stroke: #A80036; stroke-width: 1.0; stroke-dasharray: 1.0,2.0;" x1="39" x2="509" y1="171.0234" y2="171.0234"/><ellipse cx="49" cy="182.9258" fill="#84BE84" rx="3" ry="3" style="stroke: #038048; stroke-width: 1.0;"/><text fill="#000000" font-family="sans-serif" font-size="11" lengthAdjust="spacingAndGlyphs" textLength="200" x="58" y="185.2339">navigateTo(navigationState: String)</text><line style="stroke: #A80036; stroke-width: 1.0; stroke-dasharray: 1.0,2.0;" x1="39" x2="509" y1="191.8281" y2="191.8281"/><ellipse cx="49" cy="203.7305" fill="#84BE84" rx="3" ry="3" style="stroke: #038048; stroke-width: 1.0;"/><text fill="#000000" font-family="sans-serif" font-size="11" lengthAdjust="spacingAndGlyphs" textLength="363" x="58" y="206.0386">addView(viewName: String, viewClass: Class&lt;? extends View&gt;)</text><ellipse cx="49" cy="216.5352" fill="#84BE84" rx="3" ry="3" style="stroke: #038048; stroke-width: 1.0;"/><text fill="#000000" font-family="sans-serif" font-size="11" lengthAdjust="spacingAndGlyphs" textLength="222" x="58" y="218.8433">addView(viewName: String, view: View)</text><ellipse cx="49" cy="229.3398" fill="#84BE84" rx="3" ry="3" style="stroke: #038048; stroke-width: 1.0;"/><text fill="#000000" font-family="sans-serif" font-size="11" lengthAdjust="spacingAndGlyphs" textLength="177" x="58" y="231.6479">removeView(viewName: String)</text><ellipse cx="49" cy="242.1445" fill="#84BE84" rx="3" ry="3" style="stroke: #038048; stroke-width: 1.0;"/><text fill="#000000" font-family="sans-serif" font-size="11" lengthAdjust="spacingAndGlyphs" textLength="281" x="58" y="244.4526">setErrorView(viewClass: Class&lt;? extends View&gt;)</text><ellipse cx="49" cy="254.9492" fill="#84BE84" rx="3" ry="3" style="stroke: #038048; stroke-width: 1.0;"/><text fill="#000000" font-family="sans-serif" font-size="11" lengthAdjust="spacingAndGlyphs" textLength="140" x="58" y="257.2573">setErrorView(view: View)</text><!--class View--><rect fill="#FEFECE" filter="url(#f1wn0wxdv0x261)" height="32" id="View" style="stroke: #A80036; stroke-width: 1.5;" width="61" x="549.5" y="351.5"/><ellipse cx="564.5" cy="367.5" fill="#B4A7E5" rx="11" ry="11" style="stroke: #A80036; stroke-width: 1.0;"/><path d="M565.4531,364.2813 L565.4531,370.7969 L567.1719,370.7969 C567.625,370.7969 567.7656,370.8281 567.9375,370.9531 C568.1719,371.125 568.2813,371.375 568.2813,371.6563 C568.2813,372.2188 567.9219,372.5 567.1719,372.5 L562.0313,372.5 C561.625,372.5 561.4219,372.4531 561.2656,372.3281 C561.0469,372.1719 560.9063,371.9063 560.9063,371.6563 C560.9063,371.3594 561.0625,371.0781 561.3125,370.9219 C561.4688,370.8125 561.5938,370.7969 562.0313,370.7969 L563.75,370.7969 L563.75,364.2813 L562.0313,364.2813 C561.6094,364.2813 561.4219,364.25 561.2656,364.1406 C561.0469,363.9688 560.9063,363.7188 560.9063,363.4375 C560.9063,363.1563 561.0625,362.8594 561.3125,362.7031 C561.4688,362.6094 561.5938,362.5938 562.0313,362.5938 L567.1719,362.5938 C567.625,362.5938 567.7656,362.625 567.9375,362.7344 C568.1719,362.9063 568.2813,363.1719 568.2813,363.4375 C568.2813,363.7344 568.1406,364.0156 567.875,364.1719 C567.75,364.25 567.5625,364.2813 567.1719,364.2813 Z "/><text fill="#000000" font-family="sans-serif" font-size="12" font-style="italic" lengthAdjust="spacingAndGlyphs" textLength="29" x="578.5" y="371.6543">View</text><!--class ViewDisplay--><rect fill="#FEFECE" filter="url(#f1wn0wxdv0x261)" height="52.8047" id="ViewDisplay" style="stroke: #A80036; stroke-width: 1.5;" width="151" x="590.5" y="135"/><ellipse cx="626.2" cy="151" fill="#B4A7E5" rx="11" ry="11" style="stroke: #A80036; stroke-width: 1.0;"/><path d="M627.1531,147.7813 L627.1531,154.2969 L628.8719,154.2969 C629.325,154.2969 629.4656,154.3281 629.6375,154.4531 C629.8719,154.625 629.9813,154.875 629.9813,155.1563 C629.9813,155.7188 629.6219,156 628.8719,156 L623.7313,156 C623.325,156 623.1219,155.9531 622.9656,155.8281 C622.7469,155.6719 622.6063,155.4063 622.6063,155.1563 C622.6063,154.8594 622.7625,154.5781 623.0125,154.4219 C623.1688,154.3125 623.2938,154.2969 623.7313,154.2969 L625.45,154.2969 L625.45,147.7813 L623.7313,147.7813 C623.3094,147.7813 623.1219,147.75 622.9656,147.6406 C622.7469,147.4688 622.6063,147.2188 622.6063,146.9375 C622.6063,146.6563 622.7625,146.3594 623.0125,146.2031 C623.1688,146.1094 623.2938,146.0938 623.7313,146.0938 L628.8719,146.0938 C629.325,146.0938 629.4656,146.125 629.6375,146.2344 C629.8719,146.4063 629.9813,146.6719 629.9813,146.9375 C629.9813,147.2344 629.8406,147.5156 629.575,147.6719 C629.45,147.75 629.2625,147.7813 628.8719,147.7813 Z "/><text fill="#000000" font-family="sans-serif" font-size="12" font-style="italic" lengthAdjust="spacingAndGlyphs" textLength="73" x="644.8" y="155.1543">ViewDisplay</text><line style="stroke: #A80036; stroke-width: 1.5;" x1="591.5" x2="740.5" y1="167" y2="167"/><ellipse cx="601.5" cy="178.9023" fill="#84BE84" rx="3" ry="3" style="stroke: #038048; stroke-width: 1.0;"/><text fill="#000000" font-family="sans-serif" font-size="11" font-style="italic" lengthAdjust="spacingAndGlyphs" textLength="125" x="610.5" y="181.2104">showView(view: View)</text><!--class NavigationStateManager--><rect fill="#FEFECE" filter="url(#f1wn0wxdv0x261)" height="52.8047" id="NavigationStateManager" style="stroke: #A80036; stroke-width: 1.5;" width="223" x="259.5" y="341"/><ellipse cx="290.7" cy="357" fill="#B4A7E5" rx="11" ry="11" style="stroke: #A80036; stroke-width: 1.0;"/><path d="M291.6531,353.7813 L291.6531,360.2969 L293.3719,360.2969 C293.825,360.2969 293.9656,360.3281 294.1375,360.4531 C294.3719,360.625 294.4813,360.875 294.4813,361.1563 C294.4813,361.7188 294.1219,362 293.3719,362 L288.2313,362 C287.825,362 287.6219,361.9531 287.4656,361.8281 C287.2469,361.6719 287.1063,361.4063 287.1063,361.1563 C287.1063,360.8594 287.2625,360.5781 287.5125,360.4219 C287.6688,360.3125 287.7938,360.2969 288.2313,360.2969 L289.95,360.2969 L289.95,353.7813 L288.2313,353.7813 C287.8094,353.7813 287.6219,353.75 287.4656,353.6406 C287.2469,353.4688 287.1063,353.2188 287.1063,352.9375 C287.1063,352.6563 287.2625,352.3594 287.5125,352.2031 C287.6688,352.1094 287.7938,352.0938 288.2313,352.0938 L293.3719,352.0938 C293.825,352.0938 293.9656,352.125 294.1375,352.2344 C294.3719,352.4063 294.4813,352.6719 294.4813,352.9375 C294.4813,353.2344 294.3406,353.5156 294.075,353.6719 C293.95,353.75 293.7625,353.7813 293.3719,353.7813 Z "/><text fill="#000000" font-family="sans-serif" font-size="12" font-style="italic" lengthAdjust="spacingAndGlyphs" textLength="155" x="308.3" y="361.1543">NavigationStateManager</text><line style="stroke: #A80036; stroke-width: 1.5;" x1="260.5" x2="481.5" y1="373" y2="373"/><ellipse cx="270.5" cy="384.9023" fill="#84BE84" rx="3" ry="3" style="stroke: #038048; stroke-width: 1.0;"/><text fill="#000000" font-family="sans-serif" font-size="11" font-style="italic" lengthAdjust="spacingAndGlyphs" textLength="197" x="279.5" y="387.2104">setNavigator(navigator: Navigator)</text><!--class UriFragmentManager--><rect fill="#FEFECE" filter="url(#f1wn0wxdv0x261)" height="32" id="UriFragmentManager" style="stroke: #A80036; stroke-width: 1.5;" width="164" x="179" y="455"/><ellipse cx="194" cy="471" fill="#ADD1B2" rx="11" ry="11" style="stroke: #A80036; stroke-width: 1.0;"/><path d="M196.3438,466.6719 L196.5156,466.75 C196.7344,466.4375 196.9375,466.3438 197.2344,466.3438 C197.5313,466.3438 197.8125,466.4844 197.9688,466.75 C198.0625,466.9063 198.0781,467.0313 198.0781,467.4688 L198.0781,468.8906 C198.0781,469.3125 198.0469,469.5 197.9375,469.6563 C197.7656,469.875 197.5,470.0156 197.2344,470.0156 C197.0156,470.0156 196.7813,469.9063 196.6406,469.7656 C196.5,469.6406 196.4688,469.5156 196.4063,469.1094 C196.3125,468.7031 196.1406,468.4844 195.6563,468.2031 C195.1875,467.9531 194.5781,467.7969 194,467.7969 C192.2656,467.7969 191.0156,469.1094 191.0156,470.8906 L191.0156,471.9844 C191.0156,473.6875 192.3125,474.7813 194.3594,474.7813 C195.125,474.7813 195.8125,474.6563 196.2344,474.3906 C196.4219,474.2969 196.4219,474.2969 196.875,473.8125 C197.0625,473.625 197.2656,473.5469 197.4844,473.5469 C197.9531,473.5469 198.3438,473.9375 198.3438,474.3906 C198.3438,474.7813 198.0156,475.2344 197.4375,475.6406 C196.6875,476.1875 195.5313,476.4844 194.3125,476.4844 C191.4219,476.4844 189.3125,474.5938 189.3125,472.0156 L189.3125,470.8906 C189.3125,468.1719 191.3125,466.0938 193.9375,466.0938 C194.8125,466.0938 195.4063,466.2344 196.3438,466.6719 Z "/><text fill="#000000" font-family="sans-serif" font-size="12" lengthAdjust="spacingAndGlyphs" textLength="132" x="208" y="475.1543">UriFragmentManager</text><!--link Navigator to View--><path d="M426.552,264.201 C475.151,296.601 523.811,329.04 552.916,348.444 " fill="none" id="Navigator-View" style="stroke: #A80036; stroke-width: 1.0;"/><polygon fill="#A80036" points="557.417,351.444,552.1467,343.1239,553.2565,348.6708,547.7096,349.7807,557.417,351.444" style="stroke: #A80036; stroke-width: 1.0;"/><text fill="#000000" font-family="sans-serif" font-size="13" lengthAdjust="spacingAndGlyphs" textLength="75" x="490" y="307.0669">currentView</text><text fill="#000000" font-family="sans-serif" font-size="13" lengthAdjust="spacingAndGlyphs" textLength="8" x="540.2791" y="340.4363">1</text><!--link ViewDisplay to View--><path d="M657.51,188.15 C647.328,218.094 629.216,268.887 610,311 C604.48,323.098 597.448,336.203 591.58,346.64 " fill="none" id="ViewDisplay-View" style="stroke: #A80036; stroke-width: 1.0; stroke-dasharray: 7.0,7.0;"/><polygon fill="#A80036" points="588.976,351.234,596.8939,345.3768,591.4416,346.8842,589.9342,341.4319,588.976,351.234" style="stroke: #A80036; stroke-width: 1.0;"/><!--link Navigator to ViewDisplay--><path d="M510.227,161.5 C537.022,161.5 562.769,161.5 585.347,161.5 " fill="none" id="Navigator-ViewDisplay" style="stroke: #A80036; stroke-width: 1.0;"/><polygon fill="#A80036" points="590.414,161.5,581.414,157.5,585.414,161.5,581.414,165.5,590.414,161.5" style="stroke: #A80036; stroke-width: 1.0;"/><text fill="#000000" font-family="sans-serif" font-size="13" lengthAdjust="spacingAndGlyphs" textLength="44" x="528.25" y="154.5669">display</text><text fill="#000000" font-family="sans-serif" font-size="13" lengthAdjust="spacingAndGlyphs" textLength="8" x="574.5798" y="157.8448">1</text><!--link Navigator to NavigationStateManager--><path d="M257.371,264.186 C258.692,280.642 262.693,296.889 271,311 C277.447,321.952 286.921,330.896 297.506,338.153 " fill="none" id="Navigator-NavigationStateManager" style="stroke: #A80036; stroke-width: 1.0;"/><polygon fill="#A80036" points="301.775,340.954,296.4448,332.6721,297.5946,338.2109,292.0559,339.3607,301.775,340.954" style="stroke: #A80036; stroke-width: 1.0;"/><text fill="#000000" font-family="sans-serif" font-size="13" lengthAdjust="spacingAndGlyphs" textLength="89" x="272" y="307.0669">stateManager</text><text fill="#000000" font-family="sans-serif" font-size="13" lengthAdjust="spacingAndGlyphs" textLength="8" x="275.9264" y="329.7622">1</text><!--link NavigationStateManager to Navigator--><path d="M372.539,340.996 C372.59,326.786 371.296,308.989 366,294 C362.985,285.466 359.253,276.981 355.036,268.669 " fill="none" id="NavigationStateManager-Navigator" style="stroke: #A80036; stroke-width: 1.0; stroke-dasharray: 7.0,7.0;"/><polygon fill="#A80036" points="352.644,264.07,353.247,273.9004,354.9506,268.5062,360.3449,270.2098,352.644,264.07" style="stroke: #A80036; stroke-width: 1.0;"/><!--link Navigator to UriFragmentManager--><path d="M245.984,279.06 C240.349,315.806 237.392,356.572 242,394 C244.642,415.463 251.332,439.5823 256.022,454.779 " fill="none" id="Navigator-UriFragmentManager" style="stroke: #A80036; stroke-width: 1.0;"/><ellipse cx="247.1487" cy="272.013" fill="#FFFFFF" rx="8" ry="8" style="stroke: #A80036; stroke-width: 1.0;"/><line style="stroke: #A80036; stroke-width: 1.0;" x1="245.8444" x2="248.453" y1="279.9059" y2="264.12"/><line style="stroke: #A80036; stroke-width: 1.0;" x1="239.2557" x2="255.0416" y1="270.7086" y2="273.3173"/><!--link NavigationStateManager to UriFragmentManager--><path d="M328.275,407.924 C310.485,424.3384 290.891,442.4186 277.461,454.8113 " fill="none" id="NavigationStateManager-UriFragmentManager" style="stroke: #A80036; stroke-width: 1.0;"/><polygon fill="none" points="323.797,402.531,343.242,394.113,333.291,412.82,323.797,402.531" style="stroke: #A80036; stroke-width: 1.0;"/><!--
@startuml
package "com.vaadin.navigator" {
 class Navigator {
  + Navigator(ui: UI, container: ComponentContainer)
  + Navigator(ui: UI, stateManager: NavigationStateManager, display: ViewDisplay)
  + Navigator(ui: UI, container: SingleComponentContainer)
  + Navigator(ui: UI, display: ViewDisplay)
....
  + getUI(): UI
....
  + navigateTo(navigationState: String)
....
  + addView(viewName: String, viewClass: Class<? extends View>)
  + addView(viewName: String, view: View)
  + removeView(viewName: String)
  + setErrorView(viewClass: Class<? extends View>)
  + setErrorView(view: View)
 }
 interface View
 interface ViewDisplay {
  + {abstract} showView(view: View)
 }
 interface NavigationStateManager {
  + {abstract} setNavigator(navigator: Navigator)
 }
 class UriFragmentManager
}


Navigator - -> "1" View: currentView
ViewDisplay ..> View
Navigator -right-> "1" ViewDisplay: display
Navigator - -> "1" NavigationStateManager: stateManager
NavigationStateManager ..> Navigator
Navigator +- UriFragmentManager
UriFragmentManager -up-|> NavigationStateManager

hide empty attributes
hide empty methods
@enduml

PlantUML version 1.2017.19beta12(Unknown compile time)
(GPL source distribution)
Java Runtime: Java(TM) SE Runtime Environment
JVM: Java HotSpot(TM) 64-Bit Server VM
Java Version: 1.7.0_25-b15
Operating System: Linux
Default Encoding: UTF-8
Language: en
Country: US
--></g></svg>