<?xml version="1.0" encoding="UTF-8" standalone="no"?><svg xmlns="http://www.w3.org/2000/svg" xmlns:xlink="http://www.w3.org/1999/xlink" contentScriptType="application/ecmascript" contentStyleType="text/css" preserveAspectRatio="none" version="1.1" viewBox="0 0 332 248" zoomAndPan="magnify"><defs><filter height="300%" id="f1katqj2fc9td5" width="300%" x="-1" y="-1"><feGaussianBlur result="blurOut" stdDeviation="2.0"/><feColorMatrix in="blurOut" result="blurOut2" type="matrix" values="0 0 0 0 0 0 0 0 0 0 0 0 0 0 0 0 0 0 .4 0"/><feOffset dx="4.0" dy="4.0" in="blurOut2" result="blurOut3"/><feBlend in="SourceGraphic" in2="blurOut3" mode="normal"/></filter></defs><g><!--class Notification--><rect fill="#FEFECE" filter="url(#f1katqj2fc9td5)" height="78.4141" id="Notification" style="stroke: #A80036; stroke-width: 1.5;" width="315" x="6" y="8"/><ellipse cx="123.75" cy="24" fill="#ADD1B2" rx="11" ry="11" style="stroke: #A80036; stroke-width: 1.0;"/><path d="M126.0938,19.6719 L126.2656,19.75 C126.4844,19.4375 126.6875,19.3438 126.9844,19.3438 C127.2813,19.3438 127.5625,19.4844 127.7188,19.75 C127.8125,19.9063 127.8281,20.0313 127.8281,20.4688 L127.8281,21.8906 C127.8281,22.3125 127.7969,22.5 127.6875,22.6563 C127.5156,22.875 127.25,23.0156 126.9844,23.0156 C126.7656,23.0156 126.5313,22.9063 126.3906,22.7656 C126.25,22.6406 126.2188,22.5156 126.1563,22.1094 C126.0625,21.7031 125.8906,21.4844 125.4063,21.2031 C124.9375,20.9531 124.3281,20.7969 123.75,20.7969 C122.0156,20.7969 120.7656,22.1094 120.7656,23.8906 L120.7656,24.9844 C120.7656,26.6875 122.0625,27.7813 124.1094,27.7813 C124.875,27.7813 125.5625,27.6563 125.9844,27.3906 C126.1719,27.2969 126.1719,27.2969 126.625,26.8125 C126.8125,26.625 127.0156,26.5469 127.2344,26.5469 C127.7031,26.5469 128.0938,26.9375 128.0938,27.3906 C128.0938,27.7813 127.7656,28.2344 127.1875,28.6406 C126.4375,29.1875 125.2813,29.4844 124.0625,29.4844 C121.1719,29.4844 119.0625,27.5938 119.0625,25.0156 L119.0625,23.8906 C119.0625,21.1719 121.0625,19.0938 123.6875,19.0938 C124.5625,19.0938 125.1563,19.2344 126.0938,19.6719 Z "/><text fill="#000000" font-family="sans-serif" font-size="12" lengthAdjust="spacingAndGlyphs" textLength="71" x="144.25" y="28.1543">Notification</text><line style="stroke: #A80036; stroke-width: 1.5;" x1="7" x2="320" y1="40" y2="40"/><ellipse cx="17" cy="51.9023" fill="#84BE84" rx="3" ry="3" style="stroke: #038048; stroke-width: 1.0;"/><text fill="#000000" font-family="sans-serif" font-size="11" lengthAdjust="spacingAndGlyphs" text-decoration="underline" textLength="117" x="26" y="54.2104">show(String:caption)</text><line style="stroke: #000000; stroke-width: 1.0;" x1="26" x2="143" y1="56.2104" y2="56.2104"/><ellipse cx="17" cy="64.707" fill="#84BE84" rx="3" ry="3" style="stroke: #038048; stroke-width: 1.0;"/><text fill="#000000" font-family="sans-serif" font-size="11" lengthAdjust="spacingAndGlyphs" text-decoration="underline" textLength="180" x="26" y="67.0151">show(String:caption, Type:type)</text><line style="stroke: #000000; stroke-width: 1.0;" x1="26" x2="206" y1="69.0151" y2="69.0151"/><ellipse cx="17" cy="77.5117" fill="#84BE84" rx="3" ry="3" style="stroke: #038048; stroke-width: 1.0;"/><text fill="#000000" font-family="sans-serif" font-size="11" lengthAdjust="spacingAndGlyphs" text-decoration="underline" textLength="289" x="26" y="79.8198">show(String:caption, String:description, Type:type)</text><line style="stroke: #000000; stroke-width: 1.0;" x1="26" x2="315" y1="81.8198" y2="81.8198"/><!--class Type--><rect fill="#FEFECE" filter="url(#f1katqj2fc9td5)" height="91.2188" id="Type" style="stroke: #A80036; stroke-width: 1.5;" width="154" x="86.5" y="146"/><ellipse cx="144.75" cy="162" fill="#EB937F" rx="11" ry="11" style="stroke: #A80036; stroke-width: 1.0;"/><path d="M143.0469,162.875 L143.0469,165.2969 L147.4063,165.2969 L147.4063,164.4219 C147.4063,163.9375 147.4375,163.7969 147.5469,163.6406 C147.7188,163.3906 147.9844,163.2813 148.25,163.2813 C148.5313,163.2813 148.8125,163.4375 148.9844,163.6875 C149.0625,163.8438 149.0938,163.9844 149.0938,164.4219 L149.0938,167 L141.0938,167 C140.7031,167 140.4688,166.9531 140.3281,166.8281 C140.1094,166.6719 139.9688,166.4219 139.9688,166.1563 C139.9688,165.8594 140.125,165.5938 140.375,165.4219 C140.5313,165.3125 140.6875,165.2969 141.0938,165.2969 L141.3438,165.2969 L141.3438,158.7813 L141.0938,158.7813 C140.6719,158.7813 140.4844,158.75 140.3281,158.6406 C140.1094,158.4688 139.9688,158.2188 139.9688,157.9375 C139.9688,157.6563 140.125,157.3594 140.375,157.2031 C140.5313,157.1094 140.6563,157.0938 141.0938,157.0938 L148.7188,157.0938 L148.7188,159.6406 C148.7188,160.1094 148.6875,160.25 148.5781,160.4219 C148.4063,160.6406 148.1406,160.7813 147.875,160.7813 C147.5938,160.7813 147.3125,160.625 147.1406,160.375 C147.0625,160.2188 147.0313,160.0469 147.0313,159.6406 L147.0313,158.7813 L143.0469,158.7813 L143.0469,161.1875 L144.5,161.1875 L144.5,161.0625 C144.5,160.6094 144.5313,160.4531 144.6406,160.2813 C144.8125,160.0625 145.0781,159.9219 145.3281,159.9219 C145.7813,159.9219 146.0938,160.2344 146.1563,160.7031 C146.1719,160.8594 146.1719,160.9063 146.1719,161.0625 L146.1719,162.9844 C146.1719,163.4375 146.1406,163.5938 146.0156,163.75 C145.8594,163.9688 145.5938,164.1094 145.3438,164.1094 C145.0469,164.1094 144.7656,163.9531 144.6094,163.7031 C144.5313,163.5469 144.5,163.3906 144.5,162.9844 L144.5,162.875 Z "/><text fill="#000000" font-family="sans-serif" font-size="12" lengthAdjust="spacingAndGlyphs" textLength="29" x="165.25" y="166.1543">Type</text><line style="stroke: #A80036; stroke-width: 1.5;" x1="87.5" x2="239.5" y1="178" y2="178"/><ellipse cx="97.5" cy="189.9023" fill="none" rx="3" ry="3" style="stroke: #038048; stroke-width: 1.0;"/><text fill="#000000" font-family="sans-serif" font-size="11" lengthAdjust="spacingAndGlyphs" text-decoration="underline" textLength="128" x="106.5" y="192.2104">HUMANIZED_MESSAGE</text><line style="stroke: #000000; stroke-width: 1.0;" x1="106.5" x2="234.5" y1="194.2104" y2="194.2104"/><ellipse cx="97.5" cy="202.707" fill="none" rx="3" ry="3" style="stroke: #038048; stroke-width: 1.0;"/><text fill="#000000" font-family="sans-serif" font-size="11" lengthAdjust="spacingAndGlyphs" text-decoration="underline" textLength="112" x="106.5" y="205.0151">WARNING_MESSAGE</text><line style="stroke: #000000; stroke-width: 1.0;" x1="106.5" x2="218.5" y1="207.0151" y2="207.0151"/><ellipse cx="97.5" cy="215.5117" fill="none" rx="3" ry="3" style="stroke: #038048; stroke-width: 1.0;"/><text fill="#000000" font-family="sans-serif" font-size="11" lengthAdjust="spacingAndGlyphs" text-decoration="underline" textLength="98" x="106.5" y="217.8198">ERROR_MESSAGE</text><line style="stroke: #000000; stroke-width: 1.0;" x1="106.5" x2="204.5" y1="219.8198" y2="219.8198"/><ellipse cx="97.5" cy="228.3164" fill="none" rx="3" ry="3" style="stroke: #038048; stroke-width: 1.0;"/><text fill="#000000" font-family="sans-serif" font-size="11" lengthAdjust="spacingAndGlyphs" text-decoration="underline" textLength="112" x="106.5" y="230.6245">TRAY_NOTIFICATION</text><line style="stroke: #000000; stroke-width: 1.0;" x1="106.5" x2="218.5" y1="232.6245" y2="232.6245"/><!--link Notification to Type--><path d="M163.5,86.187 C163.5,102.992 163.5,122.949 163.5,140.8859 " fill="none" id="Notification-Type" style="stroke: #A80036; stroke-width: 1.0; stroke-dasharray: 7.0,7.0;"/><polygon fill="#A80036" points="163.5,145.887,167.5,136.887,163.5,140.887,159.5,136.887,163.5,145.887" style="stroke: #A80036; stroke-width: 1.0;"/><!--
@startuml
class Notification {
 + {static} show(String:caption)
 + {static} show(String:caption, Type:type)
 + {static} show(String:caption, String:description, Type:type)
}

enum Type {
  + {static} HUMANIZED_MESSAGE
  + {static} WARNING_MESSAGE
  + {static} ERROR_MESSAGE
  + {static} TRAY_NOTIFICATION
}

Notification ..> Type

hide empty attributes
hide empty methods
@enduml

PlantUML version 1.2017.16(Sun Sep 03 10:53:37 UTC 2017)
(GPL source distribution)
Java Runtime: Java(TM) SE Runtime Environment
JVM: Java HotSpot(TM) 64-Bit Server VM
Java Version: 1.7.0_25-b15
Operating System: Linux
Default Encoding: UTF-8
Language: en
Country: US
--></g></svg>