<?xml version="1.0" encoding="UTF-8" standalone="no"?><svg xmlns="http://www.w3.org/2000/svg" xmlns:xlink="http://www.w3.org/1999/xlink" contentScriptType="application/ecmascript" contentStyleType="text/css" preserveAspectRatio="none" version="1.1" viewBox="0 0 530 504" zoomAndPan="magnify"><defs><filter height="300%" id="f1aj3pz8qfjvvn" width="300%" x="-1" y="-1"><feGaussianBlur result="blurOut" stdDeviation="2.0"/><feColorMatrix in="blurOut" result="blurOut2" type="matrix" values="0 0 0 0 0 0 0 0 0 0 0 0 0 0 0 0 0 0 .4 0"/><feOffset dx="4.0" dy="4.0" in="blurOut2" result="blurOut3"/><feBlend in="SourceGraphic" in2="blurOut3" mode="normal"/></filter></defs><g><!--class Property--><rect fill="#FEFECE" filter="url(#f1aj3pz8qfjvvn)" height="104.0234" id="Property" style="stroke: #A80036; stroke-width: 1.5;" width="213" x="6" y="159"/><ellipse cx="76.25" cy="175" fill="#B4A7E5" rx="11" ry="11" style="stroke: #A80036; stroke-width: 1.0;"/><path d="M77.2031,171.7813 L77.2031,178.2969 L78.9219,178.2969 C79.375,178.2969 79.5156,178.3281 79.6875,178.4531 C79.9219,178.625 80.0313,178.875 80.0313,179.1563 C80.0313,179.7188 79.6719,180 78.9219,180 L73.7813,180 C73.375,180 73.1719,179.9531 73.0156,179.8281 C72.7969,179.6719 72.6563,179.4063 72.6563,179.1563 C72.6563,178.8594 72.8125,178.5781 73.0625,178.4219 C73.2188,178.3125 73.3438,178.2969 73.7813,178.2969 L75.5,178.2969 L75.5,171.7813 L73.7813,171.7813 C73.3594,171.7813 73.1719,171.75 73.0156,171.6406 C72.7969,171.4688 72.6563,171.2188 72.6563,170.9375 C72.6563,170.6563 72.8125,170.3594 73.0625,170.2031 C73.2188,170.1094 73.3438,170.0938 73.7813,170.0938 L78.9219,170.0938 C79.375,170.0938 79.5156,170.125 79.6875,170.2344 C79.9219,170.4063 80.0313,170.6719 80.0313,170.9375 C80.0313,171.2344 79.8906,171.5156 79.625,171.6719 C79.5,171.75 79.3125,171.7813 78.9219,171.7813 Z "/><text fill="#000000" font-family="sans-serif" font-size="12" font-style="italic" lengthAdjust="spacingAndGlyphs" textLength="53" x="96.75" y="179.1543">Property</text><rect fill="#FFFFFF" height="15.9688" style="stroke: #000000; stroke-width: 1.0; stroke-dasharray: 2.0,2.0;" width="9" x="213" y="156"/><text fill="#000000" font-family="sans-serif" font-size="12" font-style="italic" lengthAdjust="spacingAndGlyphs" textLength="7" x="214" y="168.1387">T</text><line style="stroke: #A80036; stroke-width: 1.5;" x1="7" x2="218" y1="191" y2="191"/><ellipse cx="17" cy="202.9023" fill="#84BE84" rx="3" ry="3" style="stroke: #038048; stroke-width: 1.0;"/><text fill="#000000" font-family="sans-serif" font-size="11" font-style="italic" lengthAdjust="spacingAndGlyphs" textLength="176" x="26" y="205.2104">getType(): Class&lt;? extends T&gt;</text><ellipse cx="17" cy="215.707" fill="#84BE84" rx="3" ry="3" style="stroke: #038048; stroke-width: 1.0;"/><text fill="#000000" font-family="sans-serif" font-size="11" font-style="italic" lengthAdjust="spacingAndGlyphs" textLength="73" x="26" y="218.0151">getValue(): T</text><ellipse cx="17" cy="228.5117" fill="#84BE84" rx="3" ry="3" style="stroke: #038048; stroke-width: 1.0;"/><text fill="#000000" font-family="sans-serif" font-size="11" font-style="italic" lengthAdjust="spacingAndGlyphs" textLength="125" x="26" y="230.8198">isReadOnly(): boolean</text><ellipse cx="17" cy="241.3164" fill="#84BE84" rx="3" ry="3" style="stroke: #038048; stroke-width: 1.0;"/><text fill="#000000" font-family="sans-serif" font-size="11" font-style="italic" lengthAdjust="spacingAndGlyphs" textLength="187" x="26" y="243.6245">setReadOnly(newStatus:boolean)</text><ellipse cx="17" cy="254.1211" fill="#84BE84" rx="3" ry="3" style="stroke: #038048; stroke-width: 1.0;"/><text fill="#000000" font-family="sans-serif" font-size="11" font-style="italic" lengthAdjust="spacingAndGlyphs" textLength="123" x="26" y="256.4292">setValue(newValue:T)</text><!--class AbstractProperty--><rect fill="#FEFECE" filter="url(#f1aj3pz8qfjvvn)" height="32" id="AbstractProperty" style="stroke: #A80036; stroke-width: 1.5;" width="148" x="29.5" y="346"/><ellipse cx="44.5" cy="362" fill="#A9DCDF" rx="11" ry="11" style="stroke: #A80036; stroke-width: 1.0;"/><path d="M46.0781,363.8125 L42.0313,363.8125 L41.6406,364.7969 L42.0313,364.7969 C42.4844,364.7969 42.625,364.8281 42.7969,364.9531 C43.0156,365.125 43.1406,365.375 43.1406,365.6563 C43.1406,365.9375 43,366.2344 42.7344,366.375 C42.6094,366.4688 42.3906,366.5 42.0313,366.5 L39.7656,366.5 C39.0156,366.5 38.6406,366.2188 38.6406,365.6563 C38.6406,365.3594 38.7969,365.0781 39.0469,364.9219 C39.2031,364.8125 39.3594,364.7969 39.7813,364.7969 L42.4219,358.2813 L41.3438,358.2813 C40.9063,358.2813 40.7344,358.25 40.5625,358.1406 C40.3438,357.9688 40.2031,357.7188 40.2031,357.4375 C40.2031,357.1563 40.3594,356.875 40.6094,356.7031 C40.7656,356.6094 40.8906,356.5938 41.3438,356.5938 L45.0156,356.5938 L48.4063,364.7969 C48.875,364.7969 49.0313,364.8281 49.2031,364.9688 C49.4219,365.125 49.5625,365.375 49.5625,365.6563 C49.5625,365.9375 49.4063,366.2344 49.1563,366.375 C49.0156,366.4688 48.7969,366.5 48.4375,366.5 L46.0781,366.5 C45.6563,366.5 45.4531,366.4531 45.3125,366.3281 C45.0938,366.1719 44.9531,365.9219 44.9531,365.6563 C44.9531,365.3594 45.1094,365.0781 45.3594,364.9219 C45.5156,364.8125 45.625,364.7969 46.0781,364.7969 L46.4688,364.7969 Z M45.375,362.1094 L44.0469,358.8438 L42.7031,362.1094 Z "/><text fill="#000000" font-family="sans-serif" font-size="12" font-style="italic" lengthAdjust="spacingAndGlyphs" textLength="105" x="58.5" y="366.1543">AbstractProperty</text><rect fill="#FFFFFF" height="15.9688" style="stroke: #000000; stroke-width: 1.0; stroke-dasharray: 2.0,2.0;" width="9" x="171.5" y="343"/><text fill="#000000" font-family="sans-serif" font-size="12" font-style="italic" lengthAdjust="spacingAndGlyphs" textLength="7" x="172.5" y="355.1387">T</text><!--class ObjectProperty--><rect fill="#FEFECE" filter="url(#f1aj3pz8qfjvvn)" height="32" id="ObjectProperty" style="stroke: #A80036; stroke-width: 1.5;" width="136" x="35.5" y="461"/><ellipse cx="50.5" cy="477" fill="#ADD1B2" rx="11" ry="11" style="stroke: #A80036; stroke-width: 1.0;"/><path d="M52.8438,472.6719 L53.0156,472.75 C53.2344,472.4375 53.4375,472.3438 53.7344,472.3438 C54.0313,472.3438 54.3125,472.4844 54.4688,472.75 C54.5625,472.9063 54.5781,473.0313 54.5781,473.4688 L54.5781,474.8906 C54.5781,475.3125 54.5469,475.5 54.4375,475.6563 C54.2656,475.875 54,476.0156 53.7344,476.0156 C53.5156,476.0156 53.2813,475.9063 53.1406,475.7656 C53,475.6406 52.9688,475.5156 52.9063,475.1094 C52.8125,474.7031 52.6406,474.4844 52.1563,474.2031 C51.6875,473.9531 51.0781,473.7969 50.5,473.7969 C48.7656,473.7969 47.5156,475.1094 47.5156,476.8906 L47.5156,477.9844 C47.5156,479.6875 48.8125,480.7813 50.8594,480.7813 C51.625,480.7813 52.3125,480.6563 52.7344,480.3906 C52.9219,480.2969 52.9219,480.2969 53.375,479.8125 C53.5625,479.625 53.7656,479.5469 53.9844,479.5469 C54.4531,479.5469 54.8438,479.9375 54.8438,480.3906 C54.8438,480.7813 54.5156,481.2344 53.9375,481.6406 C53.1875,482.1875 52.0313,482.4844 50.8125,482.4844 C47.9219,482.4844 45.8125,480.5938 45.8125,478.0156 L45.8125,476.8906 C45.8125,474.1719 47.8125,472.0938 50.4375,472.0938 C51.3125,472.0938 51.9063,472.2344 52.8438,472.6719 Z "/><text fill="#000000" font-family="sans-serif" font-size="12" lengthAdjust="spacingAndGlyphs" textLength="93" x="64.5" y="481.1543">ObjectProperty</text><rect fill="#FFFFFF" height="15.9688" style="stroke: #000000; stroke-width: 1.0; stroke-dasharray: 2.0,2.0;" width="9" x="165.5" y="458"/><text fill="#000000" font-family="sans-serif" font-size="12" font-style="italic" lengthAdjust="spacingAndGlyphs" textLength="7" x="166.5" y="470.1387">T</text><!--class Item--><rect fill="#FEFECE" filter="url(#f1aj3pz8qfjvvn)" height="91.2188" id="Item" style="stroke: #A80036; stroke-width: 1.5;" width="342" x="177.5" y="8"/><ellipse cx="330.25" cy="24" fill="#B4A7E5" rx="11" ry="11" style="stroke: #A80036; stroke-width: 1.0;"/><path d="M331.2031,20.7813 L331.2031,27.2969 L332.9219,27.2969 C333.375,27.2969 333.5156,27.3281 333.6875,27.4531 C333.9219,27.625 334.0313,27.875 334.0313,28.1563 C334.0313,28.7188 333.6719,29 332.9219,29 L327.7813,29 C327.375,29 327.1719,28.9531 327.0156,28.8281 C326.7969,28.6719 326.6563,28.4063 326.6563,28.1563 C326.6563,27.8594 326.8125,27.5781 327.0625,27.4219 C327.2188,27.3125 327.3438,27.2969 327.7813,27.2969 L329.5,27.2969 L329.5,20.7813 L327.7813,20.7813 C327.3594,20.7813 327.1719,20.75 327.0156,20.6406 C326.7969,20.4688 326.6563,20.2188 326.6563,19.9375 C326.6563,19.6563 326.8125,19.3594 327.0625,19.2031 C327.2188,19.1094 327.3438,19.0938 327.7813,19.0938 L332.9219,19.0938 C333.375,19.0938 333.5156,19.125 333.6875,19.2344 C333.9219,19.4063 334.0313,19.6719 334.0313,19.9375 C334.0313,20.2344 333.8906,20.5156 333.625,20.6719 C333.5,20.75 333.3125,20.7813 332.9219,20.7813 Z "/><text fill="#000000" font-family="sans-serif" font-size="12" font-style="italic" lengthAdjust="spacingAndGlyphs" textLength="28" x="350.75" y="28.1543">Item</text><line style="stroke: #A80036; stroke-width: 1.5;" x1="178.5" x2="518.5" y1="40" y2="40"/><ellipse cx="188.5" cy="51.9023" fill="#84BE84" rx="3" ry="3" style="stroke: #038048; stroke-width: 1.0;"/><text fill="#000000" font-family="sans-serif" font-size="11" font-style="italic" lengthAdjust="spacingAndGlyphs" textLength="316" x="197.5" y="54.2104">addItemProperty(id:Object, property:Property): boolean</text><ellipse cx="188.5" cy="64.707" fill="#84BE84" rx="3" ry="3" style="stroke: #038048; stroke-width: 1.0;"/><text fill="#000000" font-family="sans-serif" font-size="11" font-style="italic" lengthAdjust="spacingAndGlyphs" textLength="207" x="197.5" y="67.0151">getItemProperty(id:Object): Property</text><ellipse cx="188.5" cy="77.5117" fill="#84BE84" rx="3" ry="3" style="stroke: #038048; stroke-width: 1.0;"/><text fill="#000000" font-family="sans-serif" font-size="11" font-style="italic" lengthAdjust="spacingAndGlyphs" textLength="203" x="197.5" y="79.8198">getItemPropertyIds(): Collection&lt;?&gt;</text><ellipse cx="188.5" cy="90.3164" fill="#84BE84" rx="3" ry="3" style="stroke: #038048; stroke-width: 1.0;"/><text fill="#000000" font-family="sans-serif" font-size="11" font-style="italic" lengthAdjust="spacingAndGlyphs" textLength="229" x="197.5" y="92.6245">removeItemProperty(id:Object): boolean</text><!--class PropertysetItem--><rect fill="#FEFECE" filter="url(#f1aj3pz8qfjvvn)" height="32" id="PropertysetItem" style="stroke: #A80036; stroke-width: 1.5;" width="151" x="273" y="195"/><ellipse cx="288" cy="211" fill="#ADD1B2" rx="11" ry="11" style="stroke: #A80036; stroke-width: 1.0;"/><path d="M290.3438,206.6719 L290.5156,206.75 C290.7344,206.4375 290.9375,206.3438 291.2344,206.3438 C291.5313,206.3438 291.8125,206.4844 291.9688,206.75 C292.0625,206.9063 292.0781,207.0313 292.0781,207.4688 L292.0781,208.8906 C292.0781,209.3125 292.0469,209.5 291.9375,209.6563 C291.7656,209.875 291.5,210.0156 291.2344,210.0156 C291.0156,210.0156 290.7813,209.9063 290.6406,209.7656 C290.5,209.6406 290.4688,209.5156 290.4063,209.1094 C290.3125,208.7031 290.1406,208.4844 289.6563,208.2031 C289.1875,207.9531 288.5781,207.7969 288,207.7969 C286.2656,207.7969 285.0156,209.1094 285.0156,210.8906 L285.0156,211.9844 C285.0156,213.6875 286.3125,214.7813 288.3594,214.7813 C289.125,214.7813 289.8125,214.6563 290.2344,214.3906 C290.4219,214.2969 290.4219,214.2969 290.875,213.8125 C291.0625,213.625 291.2656,213.5469 291.4844,213.5469 C291.9531,213.5469 292.3438,213.9375 292.3438,214.3906 C292.3438,214.7813 292.0156,215.2344 291.4375,215.6406 C290.6875,216.1875 289.5313,216.4844 288.3125,216.4844 C285.4219,216.4844 283.3125,214.5938 283.3125,212.0156 L283.3125,210.8906 C283.3125,208.1719 285.3125,206.0938 287.9375,206.0938 C288.8125,206.0938 289.4063,206.2344 290.3438,206.6719 Z "/><text fill="#000000" font-family="sans-serif" font-size="12" lengthAdjust="spacingAndGlyphs" textLength="100" x="302" y="215.1543">PropertysetItem</text><rect fill="#FFFFFF" height="15.9688" style="stroke: #000000; stroke-width: 1.0; stroke-dasharray: 2.0,2.0;" width="17" x="410" y="192"/><text fill="#000000" font-family="sans-serif" font-size="12" font-style="italic" lengthAdjust="spacingAndGlyphs" textLength="15" x="411" y="204.1387">BT</text><!--class BeanItem--><rect fill="#FEFECE" filter="url(#f1aj3pz8qfjvvn)" height="78.4141" id="BeanItem" style="stroke: #A80036; stroke-width: 1.5;" width="291" x="213" y="323"/><ellipse cx="315.25" cy="339" fill="#ADD1B2" rx="11" ry="11" style="stroke: #A80036; stroke-width: 1.0;"/><path d="M317.5938,334.6719 L317.7656,334.75 C317.9844,334.4375 318.1875,334.3438 318.4844,334.3438 C318.7813,334.3438 319.0625,334.4844 319.2188,334.75 C319.3125,334.9063 319.3281,335.0313 319.3281,335.4688 L319.3281,336.8906 C319.3281,337.3125 319.2969,337.5 319.1875,337.6563 C319.0156,337.875 318.75,338.0156 318.4844,338.0156 C318.2656,338.0156 318.0313,337.9063 317.8906,337.7656 C317.75,337.6406 317.7188,337.5156 317.6563,337.1094 C317.5625,336.7031 317.3906,336.4844 316.9063,336.2031 C316.4375,335.9531 315.8281,335.7969 315.25,335.7969 C313.5156,335.7969 312.2656,337.1094 312.2656,338.8906 L312.2656,339.9844 C312.2656,341.6875 313.5625,342.7813 315.6094,342.7813 C316.375,342.7813 317.0625,342.6563 317.4844,342.3906 C317.6719,342.2969 317.6719,342.2969 318.125,341.8125 C318.3125,341.625 318.5156,341.5469 318.7344,341.5469 C319.2031,341.5469 319.5938,341.9375 319.5938,342.3906 C319.5938,342.7813 319.2656,343.2344 318.6875,343.6406 C317.9375,344.1875 316.7813,344.4844 315.5625,344.4844 C312.6719,344.4844 310.5625,342.5938 310.5625,340.0156 L310.5625,338.8906 C310.5625,336.1719 312.5625,334.0938 315.1875,334.0938 C316.0625,334.0938 316.6563,334.2344 317.5938,334.6719 Z "/><text fill="#000000" font-family="sans-serif" font-size="12" lengthAdjust="spacingAndGlyphs" textLength="59" x="335.75" y="343.1543">BeanItem</text><rect fill="#FFFFFF" height="15.9688" style="stroke: #000000; stroke-width: 1.0; stroke-dasharray: 2.0,2.0;" width="17" x="490" y="320"/><text fill="#000000" font-family="sans-serif" font-size="12" font-style="italic" lengthAdjust="spacingAndGlyphs" textLength="15" x="491" y="332.1387">BT</text><line style="stroke: #A80036; stroke-width: 1.5;" x1="214" x2="503" y1="355" y2="355"/><ellipse cx="224" cy="366.9023" fill="#84BE84" rx="3" ry="3" style="stroke: #038048; stroke-width: 1.0;"/><text fill="#000000" font-family="sans-serif" font-size="11" lengthAdjust="spacingAndGlyphs" textLength="109" x="233" y="369.2104">BeanItem(bean:BT)</text><ellipse cx="224" cy="379.707" fill="#84BE84" rx="3" ry="3" style="stroke: #038048; stroke-width: 1.0;"/><text fill="#000000" font-family="sans-serif" font-size="11" lengthAdjust="spacingAndGlyphs" textLength="265" x="233" y="382.0151">BeanItem(bean:BT, propertyIds:Collection&lt;?&gt;)</text><ellipse cx="224" cy="392.5117" fill="#84BE84" rx="3" ry="3" style="stroke: #038048; stroke-width: 1.0;"/><text fill="#000000" font-family="sans-serif" font-size="11" lengthAdjust="spacingAndGlyphs" textLength="232" x="233" y="394.8198">BeanItem(bean:BT, propertyIds:String...)</text><!--link PropertysetItem to BeanItem--><path d="M350.855,247.087 C352.383,269.855 354.374,299.52 355.941,322.87 " fill="none" id="PropertysetItem-BeanItem" style="stroke: #A80036; stroke-width: 1.0;"/><polygon fill="none" points="343.869,247.531,349.514,227.107,357.838,246.593,343.869,247.531" style="stroke: #A80036; stroke-width: 1.0;"/><!--link Item to PropertysetItem--><path d="M348.5,119.143 C348.5,146.929 348.5,177.014 348.5,194.648 " fill="none" id="Item-PropertysetItem" style="stroke: #A80036; stroke-width: 1.0; stroke-dasharray: 7.0,7.0;"/><polygon fill="none" points="341.5,119.06,348.5,99.06,355.5,119.06,341.5,119.06" style="stroke: #A80036; stroke-width: 1.0;"/><!--link Property to PropertysetItem--><path d="M224.447,211 C240.591,211 256.734,211 272.877,211 " fill="none" id="Property-PropertysetItem" style="stroke: #A80036; stroke-width: 1.0;"/><polygon fill="#A80036" points="219.438,211,228.438,215,224.438,211,228.438,207,219.438,211" style="stroke: #A80036; stroke-width: 1.0;"/><text fill="#000000" font-family="sans-serif" font-size="13" lengthAdjust="spacingAndGlyphs" textLength="7" x="226.8581" y="207.5667">*</text><!--link Property to AbstractProperty--><path d="M108.18,283.527 C106.765,306.951 105.3261,330.767 104.4245,345.694 " fill="none" id="Property-AbstractProperty" style="stroke: #A80036; stroke-width: 1.0; stroke-dasharray: 7.0,7.0;"/><polygon fill="none" points="101.2095,282.819,109.403,263.277,115.184,283.663,101.2095,282.819" style="stroke: #A80036; stroke-width: 1.0;"/><!--link AbstractProperty to ObjectProperty--><path d="M103.5,398.4989 C103.5,419.3932 103.5,444.7551 103.5,460.6409 " fill="none" id="AbstractProperty-ObjectProperty" style="stroke: #A80036; stroke-width: 1.0;"/><polygon fill="none" points="96.5001,398.2397,103.5,378.24,110.5,398.2396,96.5001,398.2397" style="stroke: #A80036; stroke-width: 1.0;"/><!--
@startuml
interface Property<T> {
 + {abstract} getType(): Class<? extends T>
 + {abstract} getValue(): T
 + {abstract} isReadOnly(): boolean
 + {abstract} setReadOnly(newStatus:boolean)
 + {abstract} setValue(newValue:T) 
}
abstract class AbstractProperty<T>
class ObjectProperty<T>
interface Item {
 + {abstract} addItemProperty(id:Object, property:Property): boolean
 + {abstract} getItemProperty(id:Object): Property
 + {abstract} getItemPropertyIds(): Collection<?>
 + {abstract} removeItemProperty(id:Object): boolean 
}
class PropertysetItem<BT>
class BeanItem<BT> {
 + BeanItem(bean:BT)
 + BeanItem(bean:BT, propertyIds:Collection<?>)
 + BeanItem(bean:BT, propertyIds:String...)
}

BeanItem -up-|> PropertysetItem
PropertysetItem .up.|> Item
PropertysetItem -left-> "*" Property
AbstractProperty .up.|> Property
ObjectProperty -up-|> AbstractProperty

hide empty attributes
hide empty methods
@enduml

PlantUML version 1.2017.16(Sun Sep 03 10:53:37 UTC 2017)
(GPL source distribution)
Java Runtime: Java(TM) SE Runtime Environment
JVM: Java HotSpot(TM) 64-Bit Server VM
Java Version: 1.7.0_25-b15
Operating System: Linux
Default Encoding: UTF-8
Language: en
Country: US
--></g></svg>