<?xml version="1.0" encoding="UTF-8" standalone="no"?><svg xmlns="http://www.w3.org/2000/svg" xmlns:xlink="http://www.w3.org/1999/xlink" contentScriptType="application/ecmascript" contentStyleType="text/css" preserveAspectRatio="none" version="1.1" viewBox="0 0 284 349" zoomAndPan="magnify"><defs><filter height="300%" id="f1tpx5y0rpjs24" width="300%" x="-1" y="-1"><feGaussianBlur result="blurOut" stdDeviation="2.0"/><feColorMatrix in="blurOut" result="blurOut2" type="matrix" values="0 0 0 0 0 0 0 0 0 0 0 0 0 0 0 0 0 0 .4 0"/><feOffset dx="4.0" dy="4.0" in="blurOut2" result="blurOut3"/><feBlend in="SourceGraphic" in2="blurOut3" mode="normal"/></filter></defs><g><!--cluster com.vaadin.ui--><polygon fill="#FFFFFF" filter="url(#f1tpx5y0rpjs24)" points="22,24,136,24,143,46.2969,262,46.2969,262,337,22,337,22,24" style="stroke: #000000; stroke-width: 2.0;"/><line style="stroke: #000000; stroke-width: 2.0;" x1="22" x2="143" y1="46.2969" y2="46.2969"/><text fill="#000000" font-family="sans-serif" font-size="14" font-weight="bold" lengthAdjust="spacingAndGlyphs" textLength="108" x="26" y="38.9951">com.vaadin.ui</text><!--class Component--><rect fill="#FEFECE" filter="url(#f1tpx5y0rpjs24)" height="32" id="Component" style="stroke: #A80036; stroke-width: 1.5;" width="104" x="90" y="59"/><ellipse cx="105" cy="75" fill="#B4A7E5" rx="11" ry="11" style="stroke: #A80036; stroke-width: 1.0;"/><path d="M105.9531,71.7813 L105.9531,78.2969 L107.6719,78.2969 C108.125,78.2969 108.2656,78.3281 108.4375,78.4531 C108.6719,78.625 108.7813,78.875 108.7813,79.1563 C108.7813,79.7188 108.4219,80 107.6719,80 L102.5313,80 C102.125,80 101.9219,79.9531 101.7656,79.8281 C101.5469,79.6719 101.4063,79.4063 101.4063,79.1563 C101.4063,78.8594 101.5625,78.5781 101.8125,78.4219 C101.9688,78.3125 102.0938,78.2969 102.5313,78.2969 L104.25,78.2969 L104.25,71.7813 L102.5313,71.7813 C102.1094,71.7813 101.9219,71.75 101.7656,71.6406 C101.5469,71.4688 101.4063,71.2188 101.4063,70.9375 C101.4063,70.6563 101.5625,70.3594 101.8125,70.2031 C101.9688,70.1094 102.0938,70.0938 102.5313,70.0938 L107.6719,70.0938 C108.125,70.0938 108.2656,70.125 108.4375,70.2344 C108.6719,70.4063 108.7813,70.6719 108.7813,70.9375 C108.7813,71.2344 108.6406,71.5156 108.375,71.6719 C108.25,71.75 108.0625,71.7813 107.6719,71.7813 Z "/><text fill="#000000" font-family="sans-serif" font-size="12" font-style="italic" lengthAdjust="spacingAndGlyphs" textLength="72" x="119" y="79.1543">Component</text><!--class AbstractComponent--><rect fill="#FEFECE" filter="url(#f1tpx5y0rpjs24)" height="32" id="AbstractComponent" style="stroke: #A80036; stroke-width: 1.5;" width="156" x="64" y="151"/><ellipse cx="79" cy="167" fill="#A9DCDF" rx="11" ry="11" style="stroke: #A80036; stroke-width: 1.0;"/><path d="M80.5781,168.8125 L76.5313,168.8125 L76.1406,169.7969 L76.5313,169.7969 C76.9844,169.7969 77.125,169.8281 77.2969,169.9531 C77.5156,170.125 77.6406,170.375 77.6406,170.6563 C77.6406,170.9375 77.5,171.2344 77.2344,171.375 C77.1094,171.4688 76.8906,171.5 76.5313,171.5 L74.2656,171.5 C73.5156,171.5 73.1406,171.2188 73.1406,170.6563 C73.1406,170.3594 73.2969,170.0781 73.5469,169.9219 C73.7031,169.8125 73.8594,169.7969 74.2813,169.7969 L76.9219,163.2813 L75.8438,163.2813 C75.4063,163.2813 75.2344,163.25 75.0625,163.1406 C74.8438,162.9688 74.7031,162.7188 74.7031,162.4375 C74.7031,162.1563 74.8594,161.875 75.1094,161.7031 C75.2656,161.6094 75.3906,161.5938 75.8438,161.5938 L79.5156,161.5938 L82.9063,169.7969 C83.375,169.7969 83.5313,169.8281 83.7031,169.9688 C83.9219,170.125 84.0625,170.375 84.0625,170.6563 C84.0625,170.9375 83.9063,171.2344 83.6563,171.375 C83.5156,171.4688 83.2969,171.5 82.9375,171.5 L80.5781,171.5 C80.1563,171.5 79.9531,171.4531 79.8125,171.3281 C79.5938,171.1719 79.4531,170.9219 79.4531,170.6563 C79.4531,170.3594 79.6094,170.0781 79.8594,169.9219 C80.0156,169.8125 80.125,169.7969 80.5781,169.7969 L80.9688,169.7969 Z M79.875,167.1094 L78.5469,163.8438 L77.2031,167.1094 Z "/><text fill="#000000" font-family="sans-serif" font-size="12" font-style="italic" lengthAdjust="spacingAndGlyphs" textLength="124" x="93" y="171.1543">AbstractComponent</text><!--class UI--><rect fill="#FEFECE" filter="url(#f1tpx5y0rpjs24)" height="78.4141" id="UI" style="stroke: #A80036; stroke-width: 1.5;" width="207" x="38.5" y="243"/><ellipse cx="131.75" cy="259" fill="#ADD1B2" rx="11" ry="11" style="stroke: #A80036; stroke-width: 1.0;"/><path d="M134.0938,254.6719 L134.2656,254.75 C134.4844,254.4375 134.6875,254.3438 134.9844,254.3438 C135.2813,254.3438 135.5625,254.4844 135.7188,254.75 C135.8125,254.9063 135.8281,255.0313 135.8281,255.4688 L135.8281,256.8906 C135.8281,257.3125 135.7969,257.5 135.6875,257.6563 C135.5156,257.875 135.25,258.0156 134.9844,258.0156 C134.7656,258.0156 134.5313,257.9063 134.3906,257.7656 C134.25,257.6406 134.2188,257.5156 134.1563,257.1094 C134.0625,256.7031 133.8906,256.4844 133.4063,256.2031 C132.9375,255.9531 132.3281,255.7969 131.75,255.7969 C130.0156,255.7969 128.7656,257.1094 128.7656,258.8906 L128.7656,259.9844 C128.7656,261.6875 130.0625,262.7813 132.1094,262.7813 C132.875,262.7813 133.5625,262.6563 133.9844,262.3906 C134.1719,262.2969 134.1719,262.2969 134.625,261.8125 C134.8125,261.625 135.0156,261.5469 135.2344,261.5469 C135.7031,261.5469 136.0938,261.9375 136.0938,262.3906 C136.0938,262.7813 135.7656,263.2344 135.1875,263.6406 C134.4375,264.1875 133.2813,264.4844 132.0625,264.4844 C129.1719,264.4844 127.0625,262.5938 127.0625,260.0156 L127.0625,258.8906 C127.0625,256.1719 129.0625,254.0938 131.6875,254.0938 C132.5625,254.0938 133.1563,254.2344 134.0938,254.6719 Z "/><text fill="#000000" font-family="sans-serif" font-size="12" lengthAdjust="spacingAndGlyphs" textLength="12" x="152.25" y="263.1543">UI</text><line style="stroke: #A80036; stroke-width: 1.5;" x1="39.5" x2="244.5" y1="275" y2="275"/><ellipse cx="49.5" cy="286.9023" fill="#84BE84" rx="3" ry="3" style="stroke: #038048; stroke-width: 1.0;"/><text fill="#000000" font-family="sans-serif" font-size="11" lengthAdjust="spacingAndGlyphs" text-decoration="underline" textLength="84" x="58.5" y="289.2104">getCurrent():UI</text><line style="stroke: #000000; stroke-width: 1.0;" x1="58.5" x2="142.5" y1="291.2104" y2="291.2104"/><polygon fill="#FFFF44" points="49.5,294.707,53.5,298.707,49.5,302.707,45.5,298.707" style="stroke: #B38D22; stroke-width: 1.0;"/><text fill="#000000" font-family="sans-serif" font-size="11" font-style="italic" lengthAdjust="spacingAndGlyphs" textLength="157" x="58.5" y="302.0151">init(request:VaadinRequest)</text><ellipse cx="49.5" cy="312.5117" fill="#84BE84" rx="3" ry="3" style="stroke: #038048; stroke-width: 1.0;"/><text fill="#000000" font-family="sans-serif" font-size="11" lengthAdjust="spacingAndGlyphs" textLength="181" x="58.5" y="314.8198">setContent(content:Component)</text><!--link Component to AbstractComponent--><path d="M142,111.615 C142,125.31 142,140.22 142,150.958 " fill="none" id="Component-AbstractComponent" style="stroke: #A80036; stroke-width: 1.0; stroke-dasharray: 7.0,7.0;"/><polygon fill="none" points="135,111.267,142,91.267,149,111.267,135,111.267" style="stroke: #A80036; stroke-width: 1.0;"/><!--link AbstractComponent to UI--><path d="M142,203.357 C142,215.862 142,229.982 142,242.719 " fill="none" id="AbstractComponent-UI" style="stroke: #A80036; stroke-width: 1.0;"/><polygon fill="none" points="135,203.24,142,183.24,149,203.24,135,203.24" style="stroke: #A80036; stroke-width: 1.0;"/><!--
@startuml
package com.vaadin.ui {
 interface Component
 abstract class AbstractComponent
 class UI {
  + {static} getCurrent():UI
  # {abstract} init(request:VaadinRequest)
  + setContent(content:Component) 
 }
}

AbstractComponent .up.|> Component
UI -up-|> AbstractComponent
hide empty attributes
hide empty methods
@enduml

PlantUML version 1.2017.16(Sun Sep 03 10:53:37 UTC 2017)
(GPL source distribution)
Java Runtime: Java(TM) SE Runtime Environment
JVM: Java HotSpot(TM) 64-Bit Server VM
Java Version: 1.7.0_25-b15
Operating System: Linux
Default Encoding: UTF-8
Language: en
Country: US
--></g></svg>