<?xml version="1.0" encoding="UTF-8" standalone="no"?><svg xmlns="http://www.w3.org/2000/svg" xmlns:xlink="http://www.w3.org/1999/xlink" contentScriptType="application/ecmascript" contentStyleType="text/css" preserveAspectRatio="true" version="1.1" viewBox="0 0 987 177" zoomAndPan="magnify"><defs><filter height="300%" id="f865t0yagq80f" width="300%" x="-1" y="-1"><feGaussianBlur result="blurOut" stdDeviation="2.0"/><feColorMatrix in="blurOut" result="blurOut2" type="matrix" values="0 0 0 0 0 0 0 0 0 0 0 0 0 0 0 0 0 0 .4 0"/><feOffset dx="4.0" dy="4.0" in="blurOut2" result="blurOut3"/><feBlend in="SourceGraphic" in2="blurOut3" mode="normal"/></filter></defs><g><!--class PViewer--><rect fill="#FEFECE" filter="url(#f865t0yagq80f)" height="65.6094" id="PViewer" style="stroke: #A80036; stroke-width: 1.5;" width="306" x="6" y="8"/><ellipse cx="105.25" cy="24" fill="#B4A7E5" rx="11" ry="11" style="stroke: #A80036; stroke-width: 1.0;"/><path d="M106.2031,20.7813 L106.2031,27.2969 L107.9219,27.2969 C108.375,27.2969 108.5156,27.3281 108.6875,27.4531 C108.9219,27.625 109.0313,27.875 109.0313,28.1563 C109.0313,28.7188 108.6719,29 107.9219,29 L102.7813,29 C102.375,29 102.1719,28.9531 102.0156,28.8281 C101.7969,28.6719 101.6563,28.4063 101.6563,28.1563 C101.6563,27.8594 101.8125,27.5781 102.0625,27.4219 C102.2188,27.3125 102.3438,27.2969 102.7813,27.2969 L104.5,27.2969 L104.5,20.7813 L102.7813,20.7813 C102.3594,20.7813 102.1719,20.75 102.0156,20.6406 C101.7969,20.4688 101.6563,20.2188 101.6563,19.9375 C101.6563,19.6563 101.8125,19.3594 102.0625,19.2031 C102.2188,19.1094 102.3438,19.0938 102.7813,19.0938 L107.9219,19.0938 C108.375,19.0938 108.5156,19.125 108.6875,19.2344 C108.9219,19.4063 109.0313,19.6719 109.0313,19.9375 C109.0313,20.2344 108.8906,20.5156 108.625,20.6719 C108.5,20.75 108.3125,20.7813 107.9219,20.7813 Z "/><text fill="#000000" font-family="sans-serif" font-size="12" font-style="italic" lengthAdjust="spacingAndGlyphs" textLength="99" x="125.75" y="28.1543">Property.Viewer</text><line style="stroke: #A80036; stroke-width: 1.5;" x1="7" x2="311" y1="40" y2="40"/><ellipse cx="17" cy="51.9023" fill="#84BE84" rx="3" ry="3" style="stroke: #038048; stroke-width: 1.0;"/><text fill="#000000" font-family="sans-serif" font-size="11" font-style="italic" lengthAdjust="spacingAndGlyphs" textLength="280" x="26" y="54.2104">setPropertyDataSource(newDataSource:Property)</text><ellipse cx="17" cy="64.707" fill="#84BE84" rx="3" ry="3" style="stroke: #038048; stroke-width: 1.0;"/><text fill="#000000" font-family="sans-serif" font-size="11" font-style="italic" lengthAdjust="spacingAndGlyphs" textLength="193" x="26" y="67.0151">getPropertyDataSource():Property</text><!--class IViewer--><rect fill="#FEFECE" filter="url(#f865t0yagq80f)" height="65.6094" id="IViewer" style="stroke: #A80036; stroke-width: 1.5;" width="282" x="694" y="8"/><ellipse cx="793.75" cy="24" fill="#B4A7E5" rx="11" ry="11" style="stroke: #A80036; stroke-width: 1.0;"/><path d="M794.7031,20.7813 L794.7031,27.2969 L796.4219,27.2969 C796.875,27.2969 797.0156,27.3281 797.1875,27.4531 C797.4219,27.625 797.5313,27.875 797.5313,28.1563 C797.5313,28.7188 797.1719,29 796.4219,29 L791.2813,29 C790.875,29 790.6719,28.9531 790.5156,28.8281 C790.2969,28.6719 790.1563,28.4063 790.1563,28.1563 C790.1563,27.8594 790.3125,27.5781 790.5625,27.4219 C790.7188,27.3125 790.8438,27.2969 791.2813,27.2969 L793,27.2969 L793,20.7813 L791.2813,20.7813 C790.8594,20.7813 790.6719,20.75 790.5156,20.6406 C790.2969,20.4688 790.1563,20.2188 790.1563,19.9375 C790.1563,19.6563 790.3125,19.3594 790.5625,19.2031 C790.7188,19.1094 790.8438,19.0938 791.2813,19.0938 L796.4219,19.0938 C796.875,19.0938 797.0156,19.125 797.1875,19.2344 C797.4219,19.4063 797.5313,19.6719 797.5313,19.9375 C797.5313,20.2344 797.3906,20.5156 797.125,20.6719 C797,20.75 796.8125,20.7813 796.4219,20.7813 Z "/><text fill="#000000" font-family="sans-serif" font-size="12" font-style="italic" lengthAdjust="spacingAndGlyphs" textLength="74" x="814.25" y="28.1543">Item.Viewer</text><line style="stroke: #A80036; stroke-width: 1.5;" x1="695" x2="975" y1="40" y2="40"/><ellipse cx="705" cy="51.9023" fill="#84BE84" rx="3" ry="3" style="stroke: #038048; stroke-width: 1.0;"/><text fill="#000000" font-family="sans-serif" font-size="11" font-style="italic" lengthAdjust="spacingAndGlyphs" textLength="256" x="714" y="54.2104">setPropertyDataSource(newDataSource:Item)</text><ellipse cx="705" cy="64.707" fill="#84BE84" rx="3" ry="3" style="stroke: #038048; stroke-width: 1.0;"/><text fill="#000000" font-family="sans-serif" font-size="11" font-style="italic" lengthAdjust="spacingAndGlyphs" textLength="169" x="714" y="67.0151">getPropertyDataSource():Item</text><!--class CViewer--><rect fill="#FEFECE" filter="url(#f865t0yagq80f)" height="65.6094" id="CViewer" style="stroke: #A80036; stroke-width: 1.5;" width="312" x="347" y="8"/><ellipse cx="445.25" cy="24" fill="#B4A7E5" rx="11" ry="11" style="stroke: #A80036; stroke-width: 1.0;"/><path d="M446.2031,20.7813 L446.2031,27.2969 L447.9219,27.2969 C448.375,27.2969 448.5156,27.3281 448.6875,27.4531 C448.9219,27.625 449.0313,27.875 449.0313,28.1563 C449.0313,28.7188 448.6719,29 447.9219,29 L442.7813,29 C442.375,29 442.1719,28.9531 442.0156,28.8281 C441.7969,28.6719 441.6563,28.4063 441.6563,28.1563 C441.6563,27.8594 441.8125,27.5781 442.0625,27.4219 C442.2188,27.3125 442.3438,27.2969 442.7813,27.2969 L444.5,27.2969 L444.5,20.7813 L442.7813,20.7813 C442.3594,20.7813 442.1719,20.75 442.0156,20.6406 C441.7969,20.4688 441.6563,20.2188 441.6563,19.9375 C441.6563,19.6563 441.8125,19.3594 442.0625,19.2031 C442.2188,19.1094 442.3438,19.0938 442.7813,19.0938 L447.9219,19.0938 C448.375,19.0938 448.5156,19.125 448.6875,19.2344 C448.9219,19.4063 449.0313,19.6719 449.0313,19.9375 C449.0313,20.2344 448.8906,20.5156 448.625,20.6719 C448.5,20.75 448.3125,20.7813 447.9219,20.7813 Z "/><text fill="#000000" font-family="sans-serif" font-size="12" font-style="italic" lengthAdjust="spacingAndGlyphs" textLength="107" x="465.75" y="28.1543">Container.Viewer</text><line style="stroke: #A80036; stroke-width: 1.5;" x1="348" x2="658" y1="40" y2="40"/><ellipse cx="358" cy="51.9023" fill="#84BE84" rx="3" ry="3" style="stroke: #038048; stroke-width: 1.0;"/><text fill="#000000" font-family="sans-serif" font-size="11" font-style="italic" lengthAdjust="spacingAndGlyphs" textLength="286" x="367" y="54.2104">setPropertyDataSource(newDataSource:Container)</text><ellipse cx="358" cy="64.707" fill="#84BE84" rx="3" ry="3" style="stroke: #038048; stroke-width: 1.0;"/><text fill="#000000" font-family="sans-serif" font-size="11" font-style="italic" lengthAdjust="spacingAndGlyphs" textLength="199" x="367" y="67.0151">getPropertyDataSource():Container</text><!--class AbstractField--><rect fill="#FEFECE" filter="url(#f865t0yagq80f)" height="32" id="AbstractField" style="stroke: #A80036; stroke-width: 1.5;" width="124" x="97" y="134"/><ellipse cx="112" cy="150" fill="#A9DCDF" rx="11" ry="11" style="stroke: #A80036; stroke-width: 1.0;"/><path d="M113.5781,151.8125 L109.5313,151.8125 L109.1406,152.7969 L109.5313,152.7969 C109.9844,152.7969 110.125,152.8281 110.2969,152.9531 C110.5156,153.125 110.6406,153.375 110.6406,153.6563 C110.6406,153.9375 110.5,154.2344 110.2344,154.375 C110.1094,154.4688 109.8906,154.5 109.5313,154.5 L107.2656,154.5 C106.5156,154.5 106.1406,154.2188 106.1406,153.6563 C106.1406,153.3594 106.2969,153.0781 106.5469,152.9219 C106.7031,152.8125 106.8594,152.7969 107.2813,152.7969 L109.9219,146.2813 L108.8438,146.2813 C108.4063,146.2813 108.2344,146.25 108.0625,146.1406 C107.8438,145.9688 107.7031,145.7188 107.7031,145.4375 C107.7031,145.1563 107.8594,144.875 108.1094,144.7031 C108.2656,144.6094 108.3906,144.5938 108.8438,144.5938 L112.5156,144.5938 L115.9063,152.7969 C116.375,152.7969 116.5313,152.8281 116.7031,152.9688 C116.9219,153.125 117.0625,153.375 117.0625,153.6563 C117.0625,153.9375 116.9063,154.2344 116.6563,154.375 C116.5156,154.4688 116.2969,154.5 115.9375,154.5 L113.5781,154.5 C113.1563,154.5 112.9531,154.4531 112.8125,154.3281 C112.5938,154.1719 112.4531,153.9219 112.4531,153.6563 C112.4531,153.3594 112.6094,153.0781 112.8594,152.9219 C113.0156,152.8125 113.125,152.7969 113.5781,152.7969 L113.9688,152.7969 Z M112.875,150.1094 L111.5469,146.8438 L110.2031,150.1094 Z "/><text fill="#000000" font-family="sans-serif" font-size="12" font-style="italic" lengthAdjust="spacingAndGlyphs" textLength="81" x="126" y="154.1543">AbstractField</text><rect fill="#FFFFFF" height="15.9688" style="stroke: #000000; stroke-width: 1.0; stroke-dasharray: 2.0,2.0;" width="9" x="215" y="131"/><text fill="#000000" font-family="sans-serif" font-size="12" font-style="italic" lengthAdjust="spacingAndGlyphs" textLength="7" x="216" y="143.1387">T</text><!--class AbstractSelect--><rect fill="#FEFECE" filter="url(#f865t0yagq80f)" height="32" id="AbstractSelect" style="stroke: #A80036; stroke-width: 1.5;" width="134" x="436" y="134"/><ellipse cx="451" cy="150" fill="#A9DCDF" rx="11" ry="11" style="stroke: #A80036; stroke-width: 1.0;"/><path d="M452.5781,151.8125 L448.5313,151.8125 L448.1406,152.7969 L448.5313,152.7969 C448.9844,152.7969 449.125,152.8281 449.2969,152.9531 C449.5156,153.125 449.6406,153.375 449.6406,153.6563 C449.6406,153.9375 449.5,154.2344 449.2344,154.375 C449.1094,154.4688 448.8906,154.5 448.5313,154.5 L446.2656,154.5 C445.5156,154.5 445.1406,154.2188 445.1406,153.6563 C445.1406,153.3594 445.2969,153.0781 445.5469,152.9219 C445.7031,152.8125 445.8594,152.7969 446.2813,152.7969 L448.9219,146.2813 L447.8438,146.2813 C447.4063,146.2813 447.2344,146.25 447.0625,146.1406 C446.8438,145.9688 446.7031,145.7188 446.7031,145.4375 C446.7031,145.1563 446.8594,144.875 447.1094,144.7031 C447.2656,144.6094 447.3906,144.5938 447.8438,144.5938 L451.5156,144.5938 L454.9063,152.7969 C455.375,152.7969 455.5313,152.8281 455.7031,152.9688 C455.9219,153.125 456.0625,153.375 456.0625,153.6563 C456.0625,153.9375 455.9063,154.2344 455.6563,154.375 C455.5156,154.4688 455.2969,154.5 454.9375,154.5 L452.5781,154.5 C452.1563,154.5 451.9531,154.4531 451.8125,154.3281 C451.5938,154.1719 451.4531,153.9219 451.4531,153.6563 C451.4531,153.3594 451.6094,153.0781 451.8594,152.9219 C452.0156,152.8125 452.125,152.7969 452.5781,152.7969 L452.9688,152.7969 Z M451.875,150.1094 L450.5469,146.8438 L449.2031,150.1094 Z "/><text fill="#000000" font-family="sans-serif" font-size="12" font-style="italic" lengthAdjust="spacingAndGlyphs" textLength="91" x="465" y="154.1543">AbstractSelect</text><rect fill="#FFFFFF" height="15.9688" style="stroke: #000000; stroke-width: 1.0; stroke-dasharray: 2.0,2.0;" width="9" x="564" y="131"/><text fill="#000000" font-family="sans-serif" font-size="12" font-style="italic" lengthAdjust="spacingAndGlyphs" textLength="7" x="565" y="143.1387">T</text><!--link CViewer to AbstractSelect--><path d="M503,94.1433 C503,108.7003 503,123.3913 503,133.9018 " fill="none" id="CViewer-AbstractSelect" style="stroke: #A80036; stroke-width: 1.0; stroke-dasharray: 7.0,7.0;"/><polygon fill="none" points="496,94.1036,503,74.1035,510,94.1035,496,94.1036" style="stroke: #A80036; stroke-width: 1.0;"/><!--link PViewer to AbstractField--><path d="M159,94.1433 C159,108.7003 159,123.3913 159,133.9018 " fill="none" id="PViewer-AbstractField" style="stroke: #A80036; stroke-width: 1.0; stroke-dasharray: 7.0,7.0;"/><polygon fill="none" points="152,94.1036,159,74.1035,166,94.1035,152,94.1036" style="stroke: #A80036; stroke-width: 1.0;"/><!--
@startuml
interface "Property.Viewer" as PViewer {
 + {abstract}setPropertyDataSource(newDataSource:Property)
 + {abstract} getPropertyDataSource():Property
}
interface "Item.Viewer" as IViewer {
 + {abstract}setPropertyDataSource(newDataSource:Item)
 + {abstract} getPropertyDataSource():Item
}
interface "Container.Viewer" as CViewer {
 + {abstract}setPropertyDataSource(newDataSource:Container)
 + {abstract} getPropertyDataSource():Container
}
abstract class AbstractField<T>
abstract class AbstractSelect<T>

AbstractSelect .up.|> CViewer
AbstractField .up.|> PViewer

hide empty attributes
hide empty methods
@enduml

PlantUML version 1.2017.16(Sun Sep 03 10:53:37 UTC 2017)
(GPL source distribution)
Java Runtime: Java(TM) SE Runtime Environment
JVM: Java HotSpot(TM) 64-Bit Server VM
Java Version: 1.7.0_25-b15
Operating System: Linux
Default Encoding: UTF-8
Language: en
Country: US
--></g></svg>