<?xml version="1.0" encoding="UTF-8" standalone="no"?><svg xmlns="http://www.w3.org/2000/svg" xmlns:xlink="http://www.w3.org/1999/xlink" contentScriptType="application/ecmascript" contentStyleType="text/css" preserveAspectRatio="true" version="1.1" viewBox="0 0 1073 542" zoomAndPan="magnify"><defs><filter height="300%" id="f45cv26to7gam" width="300%" x="-1" y="-1"><feGaussianBlur result="blurOut" stdDeviation="2.0"/><feColorMatrix in="blurOut" result="blurOut2" type="matrix" values="0 0 0 0 0 0 0 0 0 0 0 0 0 0 0 0 0 0 .4 0"/><feOffset dx="4.0" dy="4.0" in="blurOut2" result="blurOut3"/><feBlend in="SourceGraphic" in2="blurOut3" mode="normal"/></filter></defs><g><!--cluster com.vaadin.data.provider--><polygon fill="#FFFFFF" filter="url(#f45cv26to7gam)" points="22,24,228,24,235,46.2969,1051,46.2969,1051,530,22,530,22,24" style="stroke: #000000; stroke-width: 2.0;"/><line style="stroke: #000000; stroke-width: 2.0;" x1="22" x2="235" y1="46.2969" y2="46.2969"/><text fill="#000000" font-family="sans-serif" font-size="14" font-weight="bold" lengthAdjust="spacingAndGlyphs" textLength="200" x="26" y="38.9951">com.vaadin.data.provider</text><!--class DataProvider--><rect fill="#FEFECE" filter="url(#f45cv26to7gam)" height="65.6094" id="DataProvider" style="stroke: #A80036; stroke-width: 1.5;" width="251" x="438.5" y="65"/><ellipse cx="506.75" cy="81" fill="#B4A7E5" rx="11" ry="11" style="stroke: #A80036; stroke-width: 1.0;"/><path d="M507.7031,77.7813 L507.7031,84.2969 L509.4219,84.2969 C509.875,84.2969 510.0156,84.3281 510.1875,84.4531 C510.4219,84.625 510.5313,84.875 510.5313,85.1563 C510.5313,85.7188 510.1719,86 509.4219,86 L504.2813,86 C503.875,86 503.6719,85.9531 503.5156,85.8281 C503.2969,85.6719 503.1563,85.4063 503.1563,85.1563 C503.1563,84.8594 503.3125,84.5781 503.5625,84.4219 C503.7188,84.3125 503.8438,84.2969 504.2813,84.2969 L506,84.2969 L506,77.7813 L504.2813,77.7813 C503.8594,77.7813 503.6719,77.75 503.5156,77.6406 C503.2969,77.4688 503.1563,77.2188 503.1563,76.9375 C503.1563,76.6563 503.3125,76.3594 503.5625,76.2031 C503.7188,76.1094 503.8438,76.0938 504.2813,76.0938 L509.4219,76.0938 C509.875,76.0938 510.0156,76.125 510.1875,76.2344 C510.4219,76.4063 510.5313,76.6719 510.5313,76.9375 C510.5313,77.2344 510.3906,77.5156 510.125,77.6719 C510,77.75 509.8125,77.7813 509.4219,77.7813 Z "/><text fill="#000000" font-family="sans-serif" font-size="12" font-style="italic" lengthAdjust="spacingAndGlyphs" textLength="80" x="527.25" y="85.1543">DataProvider</text><rect fill="#FFFFFF" height="15.9688" style="stroke: #000000; stroke-width: 1.0; stroke-dasharray: 2.0,2.0;" width="24" x="668.5" y="62"/><text fill="#000000" font-family="sans-serif" font-size="12" font-style="italic" lengthAdjust="spacingAndGlyphs" textLength="22" x="669.5" y="74.1387">T, F</text><line style="stroke: #A80036; stroke-width: 1.5;" x1="439.5" x2="688.5" y1="97" y2="97"/><ellipse cx="449.5" cy="108.9023" fill="#84BE84" rx="3" ry="3" style="stroke: #038048; stroke-width: 1.0;"/><text fill="#000000" font-family="sans-serif" font-size="11" font-style="italic" lengthAdjust="spacingAndGlyphs" textLength="225" x="458.5" y="111.2104">fetch(query: Query&lt;T, F&gt;): Stream&lt;T&gt;</text><ellipse cx="449.5" cy="121.707" fill="#84BE84" rx="3" ry="3" style="stroke: #038048; stroke-width: 1.0;"/><text fill="#000000" font-family="sans-serif" font-size="11" font-style="italic" lengthAdjust="spacingAndGlyphs" textLength="145" x="458.5" y="124.0151">size(query: Query&lt;T, F&gt;)</text><!--class ConfigurableFilterDataProvider--><rect fill="#FEFECE" filter="url(#f45cv26to7gam)" height="52.8047" id="ConfigurableFilterDataProvider" style="stroke: #A80036; stroke-width: 1.5;" width="264" x="540" y="197"/><ellipse cx="555" cy="213" fill="#B4A7E5" rx="11" ry="11" style="stroke: #A80036; stroke-width: 1.0;"/><path d="M555.9531,209.7813 L555.9531,216.2969 L557.6719,216.2969 C558.125,216.2969 558.2656,216.3281 558.4375,216.4531 C558.6719,216.625 558.7813,216.875 558.7813,217.1563 C558.7813,217.7188 558.4219,218 557.6719,218 L552.5313,218 C552.125,218 551.9219,217.9531 551.7656,217.8281 C551.5469,217.6719 551.4063,217.4063 551.4063,217.1563 C551.4063,216.8594 551.5625,216.5781 551.8125,216.4219 C551.9688,216.3125 552.0938,216.2969 552.5313,216.2969 L554.25,216.2969 L554.25,209.7813 L552.5313,209.7813 C552.1094,209.7813 551.9219,209.75 551.7656,209.6406 C551.5469,209.4688 551.4063,209.2188 551.4063,208.9375 C551.4063,208.6563 551.5625,208.3594 551.8125,208.2031 C551.9688,208.1094 552.0938,208.0938 552.5313,208.0938 L557.6719,208.0938 C558.125,208.0938 558.2656,208.125 558.4375,208.2344 C558.6719,208.4063 558.7813,208.6719 558.7813,208.9375 C558.7813,209.2344 558.6406,209.5156 558.375,209.6719 C558.25,209.75 558.0625,209.7813 557.6719,209.7813 Z "/><text fill="#000000" font-family="sans-serif" font-size="12" font-style="italic" lengthAdjust="spacingAndGlyphs" textLength="190" x="569" y="217.1543">ConfigurableFilterDataProvider</text><rect fill="#FFFFFF" height="15.9688" style="stroke: #000000; stroke-width: 1.0; stroke-dasharray: 2.0,2.0;" width="40" x="767" y="194"/><text fill="#000000" font-family="sans-serif" font-size="12" font-style="italic" lengthAdjust="spacingAndGlyphs" textLength="38" x="768" y="206.1387">T, F, C</text><line style="stroke: #A80036; stroke-width: 1.5;" x1="541" x2="803" y1="229" y2="229"/><ellipse cx="551" cy="240.9023" fill="#84BE84" rx="3" ry="3" style="stroke: #038048; stroke-width: 1.0;"/><text fill="#000000" font-family="sans-serif" font-size="11" font-style="italic" lengthAdjust="spacingAndGlyphs" textLength="91" x="560" y="243.2104">setFilter(filter:C)</text><!--class BackEndDataProvider--><rect fill="#FEFECE" filter="url(#f45cv26to7gam)" height="52.8047" id="BackEndDataProvider" style="stroke: #A80036; stroke-width: 1.5;" width="310" x="725" y="71.5"/><ellipse cx="795.75" cy="87.5" fill="#B4A7E5" rx="11" ry="11" style="stroke: #A80036; stroke-width: 1.0;"/><path d="M796.7031,84.2813 L796.7031,90.7969 L798.4219,90.7969 C798.875,90.7969 799.0156,90.8281 799.1875,90.9531 C799.4219,91.125 799.5313,91.375 799.5313,91.6563 C799.5313,92.2188 799.1719,92.5 798.4219,92.5 L793.2813,92.5 C792.875,92.5 792.6719,92.4531 792.5156,92.3281 C792.2969,92.1719 792.1563,91.9063 792.1563,91.6563 C792.1563,91.3594 792.3125,91.0781 792.5625,90.9219 C792.7188,90.8125 792.8438,90.7969 793.2813,90.7969 L795,90.7969 L795,84.2813 L793.2813,84.2813 C792.8594,84.2813 792.6719,84.25 792.5156,84.1406 C792.2969,83.9688 792.1563,83.7188 792.1563,83.4375 C792.1563,83.1563 792.3125,82.8594 792.5625,82.7031 C792.7188,82.6094 792.8438,82.5938 793.2813,82.5938 L798.4219,82.5938 C798.875,82.5938 799.0156,82.625 799.1875,82.7344 C799.4219,82.9063 799.5313,83.1719 799.5313,83.4375 C799.5313,83.7344 799.3906,84.0156 799.125,84.1719 C799,84.25 798.8125,84.2813 798.4219,84.2813 Z "/><text fill="#000000" font-family="sans-serif" font-size="12" font-style="italic" lengthAdjust="spacingAndGlyphs" textLength="134" x="816.25" y="91.6543">BackEndDataProvider</text><rect fill="#FFFFFF" height="15.9688" style="stroke: #000000; stroke-width: 1.0; stroke-dasharray: 2.0,2.0;" width="24" x="1014" y="68.5"/><text fill="#000000" font-family="sans-serif" font-size="12" font-style="italic" lengthAdjust="spacingAndGlyphs" textLength="22" x="1015" y="80.6387">T, F</text><line style="stroke: #A80036; stroke-width: 1.5;" x1="726" x2="1034" y1="103.5" y2="103.5"/><ellipse cx="736" cy="115.4023" fill="#84BE84" rx="3" ry="3" style="stroke: #038048; stroke-width: 1.0;"/><text fill="#000000" font-family="sans-serif" font-size="11" font-style="italic" lengthAdjust="spacingAndGlyphs" textLength="284" x="745" y="117.7104">setSortOrders(sortOrders: List&lt;QuerySortOrder&gt;)</text><!--class HierarchicalDataProvider--><rect fill="#FEFECE" filter="url(#f45cv26to7gam)" height="78.4141" id="HierarchicalDataProvider" style="stroke: #A80036; stroke-width: 1.5;" width="365" x="38.5" y="59"/><ellipse cx="126.75" cy="75" fill="#B4A7E5" rx="11" ry="11" style="stroke: #A80036; stroke-width: 1.0;"/><path d="M127.7031,71.7813 L127.7031,78.2969 L129.4219,78.2969 C129.875,78.2969 130.0156,78.3281 130.1875,78.4531 C130.4219,78.625 130.5313,78.875 130.5313,79.1563 C130.5313,79.7188 130.1719,80 129.4219,80 L124.2813,80 C123.875,80 123.6719,79.9531 123.5156,79.8281 C123.2969,79.6719 123.1563,79.4063 123.1563,79.1563 C123.1563,78.8594 123.3125,78.5781 123.5625,78.4219 C123.7188,78.3125 123.8438,78.2969 124.2813,78.2969 L126,78.2969 L126,71.7813 L124.2813,71.7813 C123.8594,71.7813 123.6719,71.75 123.5156,71.6406 C123.2969,71.4688 123.1563,71.2188 123.1563,70.9375 C123.1563,70.6563 123.3125,70.3594 123.5625,70.2031 C123.7188,70.1094 123.8438,70.0938 124.2813,70.0938 L129.4219,70.0938 C129.875,70.0938 130.0156,70.125 130.1875,70.2344 C130.4219,70.4063 130.5313,70.6719 130.5313,70.9375 C130.5313,71.2344 130.3906,71.5156 130.125,71.6719 C130,71.75 129.8125,71.7813 129.4219,71.7813 Z "/><text fill="#000000" font-family="sans-serif" font-size="12" font-style="italic" lengthAdjust="spacingAndGlyphs" textLength="154" x="147.25" y="79.1543">HierarchicalDataProvider</text><rect fill="#FFFFFF" height="15.9688" style="stroke: #000000; stroke-width: 1.0; stroke-dasharray: 2.0,2.0;" width="24" x="382.5" y="56"/><text fill="#000000" font-family="sans-serif" font-size="12" font-style="italic" lengthAdjust="spacingAndGlyphs" textLength="22" x="383.5" y="68.1387">T, F</text><line style="stroke: #A80036; stroke-width: 1.5;" x1="39.5" x2="402.5" y1="91" y2="91"/><ellipse cx="49.5" cy="102.9023" fill="#84BE84" rx="3" ry="3" style="stroke: #038048; stroke-width: 1.0;"/><text fill="#000000" font-family="sans-serif" font-size="11" font-style="italic" lengthAdjust="spacingAndGlyphs" textLength="291" x="58.5" y="105.2104">getChildCount(query: HierarchicalQuery&lt;T, F&gt;): int</text><ellipse cx="49.5" cy="115.707" fill="#84BE84" rx="3" ry="3" style="stroke: #038048; stroke-width: 1.0;"/><text fill="#000000" font-family="sans-serif" font-size="11" font-style="italic" lengthAdjust="spacingAndGlyphs" textLength="339" x="58.5" y="118.0151">fetchChildren(query: HierarchicalQuery&lt;T, F&gt;): Stream&lt;T&gt;</text><ellipse cx="49.5" cy="128.5117" fill="#84BE84" rx="3" ry="3" style="stroke: #038048; stroke-width: 1.0;"/><text fill="#000000" font-family="sans-serif" font-size="11" font-style="italic" lengthAdjust="spacingAndGlyphs" textLength="168" x="58.5" y="130.8198">hasChildren(item: T): boolean</text><!--class InMemoryDataProvider--><rect fill="#FEFECE" filter="url(#f45cv26to7gam)" height="78.4141" id="InMemoryDataProvider" style="stroke: #A80036; stroke-width: 1.5;" width="374" x="553" y="310"/><ellipse cx="659.75" cy="326" fill="#B4A7E5" rx="11" ry="11" style="stroke: #A80036; stroke-width: 1.0;"/><path d="M660.7031,322.7813 L660.7031,329.2969 L662.4219,329.2969 C662.875,329.2969 663.0156,329.3281 663.1875,329.4531 C663.4219,329.625 663.5313,329.875 663.5313,330.1563 C663.5313,330.7188 663.1719,331 662.4219,331 L657.2813,331 C656.875,331 656.6719,330.9531 656.5156,330.8281 C656.2969,330.6719 656.1563,330.4063 656.1563,330.1563 C656.1563,329.8594 656.3125,329.5781 656.5625,329.4219 C656.7188,329.3125 656.8438,329.2969 657.2813,329.2969 L659,329.2969 L659,322.7813 L657.2813,322.7813 C656.8594,322.7813 656.6719,322.75 656.5156,322.6406 C656.2969,322.4688 656.1563,322.2188 656.1563,321.9375 C656.1563,321.6563 656.3125,321.3594 656.5625,321.2031 C656.7188,321.1094 656.8438,321.0938 657.2813,321.0938 L662.4219,321.0938 C662.875,321.0938 663.0156,321.125 663.1875,321.2344 C663.4219,321.4063 663.5313,321.6719 663.5313,321.9375 C663.5313,322.2344 663.3906,322.5156 663.125,322.6719 C663,322.75 662.8125,322.7813 662.4219,322.7813 Z "/><text fill="#000000" font-family="sans-serif" font-size="12" font-style="italic" lengthAdjust="spacingAndGlyphs" textLength="141" x="680.25" y="330.1543">InMemoryDataProvider</text><rect fill="#FFFFFF" height="15.9688" style="stroke: #000000; stroke-width: 1.0; stroke-dasharray: 2.0,2.0;" width="9" x="921" y="307"/><text fill="#000000" font-family="sans-serif" font-size="12" font-style="italic" lengthAdjust="spacingAndGlyphs" textLength="7" x="922" y="319.1387">T</text><line style="stroke: #A80036; stroke-width: 1.5;" x1="554" x2="926" y1="342" y2="342"/><ellipse cx="564" cy="353.9023" fill="#84BE84" rx="3" ry="3" style="stroke: #038048; stroke-width: 1.0;"/><text fill="#000000" font-family="sans-serif" font-size="11" font-style="italic" lengthAdjust="spacingAndGlyphs" textLength="205" x="573" y="356.2104">getFilter(): SerializablePredicate&lt;T&gt;</text><ellipse cx="564" cy="366.707" fill="#84BE84" rx="3" ry="3" style="stroke: #038048; stroke-width: 1.0;"/><text fill="#000000" font-family="sans-serif" font-size="11" font-style="italic" lengthAdjust="spacingAndGlyphs" textLength="283" x="573" y="369.0151">getSortComparator(): SerializableComparator&lt;T&gt;</text><ellipse cx="564" cy="379.5117" fill="#84BE84" rx="3" ry="3" style="stroke: #038048; stroke-width: 1.0;"/><text fill="#000000" font-family="sans-serif" font-size="11" font-style="italic" lengthAdjust="spacingAndGlyphs" textLength="348" x="573" y="381.8198">setSortComparator(comparator: SerializableComparator&lt;T&gt;)</text><!--class AbstractDataProvider--><rect fill="#FEFECE" filter="url(#f45cv26to7gam)" height="32" id="AbstractDataProvider" style="stroke: #A80036; stroke-width: 1.5;" width="164" x="354" y="333"/><ellipse cx="369" cy="349" fill="#A9DCDF" rx="11" ry="11" style="stroke: #A80036; stroke-width: 1.0;"/><path d="M370.5781,350.8125 L366.5313,350.8125 L366.1406,351.7969 L366.5313,351.7969 C366.9844,351.7969 367.125,351.8281 367.2969,351.9531 C367.5156,352.125 367.6406,352.375 367.6406,352.6563 C367.6406,352.9375 367.5,353.2344 367.2344,353.375 C367.1094,353.4688 366.8906,353.5 366.5313,353.5 L364.2656,353.5 C363.5156,353.5 363.1406,353.2188 363.1406,352.6563 C363.1406,352.3594 363.2969,352.0781 363.5469,351.9219 C363.7031,351.8125 363.8594,351.7969 364.2813,351.7969 L366.9219,345.2813 L365.8438,345.2813 C365.4063,345.2813 365.2344,345.25 365.0625,345.1406 C364.8438,344.9688 364.7031,344.7188 364.7031,344.4375 C364.7031,344.1563 364.8594,343.875 365.1094,343.7031 C365.2656,343.6094 365.3906,343.5938 365.8438,343.5938 L369.5156,343.5938 L372.9063,351.7969 C373.375,351.7969 373.5313,351.8281 373.7031,351.9688 C373.9219,352.125 374.0625,352.375 374.0625,352.6563 C374.0625,352.9375 373.9063,353.2344 373.6563,353.375 C373.5156,353.4688 373.2969,353.5 372.9375,353.5 L370.5781,353.5 C370.1563,353.5 369.9531,353.4531 369.8125,353.3281 C369.5938,353.1719 369.4531,352.9219 369.4531,352.6563 C369.4531,352.3594 369.6094,352.0781 369.8594,351.9219 C370.0156,351.8125 370.125,351.7969 370.5781,351.7969 L370.9688,351.7969 Z M369.875,349.1094 L368.5469,345.8438 L367.2031,349.1094 Z "/><text fill="#000000" font-family="sans-serif" font-size="12" font-style="italic" lengthAdjust="spacingAndGlyphs" textLength="132" x="383" y="353.1543">AbstractDataProvider</text><!--class ListDataProvider--><rect fill="#FEFECE" filter="url(#f45cv26to7gam)" height="65.6094" id="ListDataProvider" style="stroke: #A80036; stroke-width: 1.5;" width="247" x="464.5" y="448"/><ellipse cx="527.25" cy="464" fill="#ADD1B2" rx="11" ry="11" style="stroke: #A80036; stroke-width: 1.0;"/><path d="M529.5938,459.6719 L529.7656,459.75 C529.9844,459.4375 530.1875,459.3438 530.4844,459.3438 C530.7813,459.3438 531.0625,459.4844 531.2188,459.75 C531.3125,459.9063 531.3281,460.0313 531.3281,460.4688 L531.3281,461.8906 C531.3281,462.3125 531.2969,462.5 531.1875,462.6563 C531.0156,462.875 530.75,463.0156 530.4844,463.0156 C530.2656,463.0156 530.0313,462.9063 529.8906,462.7656 C529.75,462.6406 529.7188,462.5156 529.6563,462.1094 C529.5625,461.7031 529.3906,461.4844 528.9063,461.2031 C528.4375,460.9531 527.8281,460.7969 527.25,460.7969 C525.5156,460.7969 524.2656,462.1094 524.2656,463.8906 L524.2656,464.9844 C524.2656,466.6875 525.5625,467.7813 527.6094,467.7813 C528.375,467.7813 529.0625,467.6563 529.4844,467.3906 C529.6719,467.2969 529.6719,467.2969 530.125,466.8125 C530.3125,466.625 530.5156,466.5469 530.7344,466.5469 C531.2031,466.5469 531.5938,466.9375 531.5938,467.3906 C531.5938,467.7813 531.2656,468.2344 530.6875,468.6406 C529.9375,469.1875 528.7813,469.4844 527.5625,469.4844 C524.6719,469.4844 522.5625,467.5938 522.5625,465.0156 L522.5625,463.8906 C522.5625,461.1719 524.5625,459.0938 527.1875,459.0938 C528.0625,459.0938 528.6563,459.2344 529.5938,459.6719 Z "/><text fill="#000000" font-family="sans-serif" font-size="12" lengthAdjust="spacingAndGlyphs" textLength="102" x="547.75" y="468.1543">ListDataProvider</text><rect fill="#FFFFFF" height="15.9688" style="stroke: #000000; stroke-width: 1.0; stroke-dasharray: 2.0,2.0;" width="9" x="705.5" y="445"/><text fill="#000000" font-family="sans-serif" font-size="12" font-style="italic" lengthAdjust="spacingAndGlyphs" textLength="7" x="706.5" y="457.1387">T</text><line style="stroke: #A80036; stroke-width: 1.5;" x1="465.5" x2="710.5" y1="480" y2="480"/><ellipse cx="475.5" cy="491.9023" fill="#84BE84" rx="3" ry="3" style="stroke: #038048; stroke-width: 1.0;"/><text fill="#000000" font-family="sans-serif" font-size="11" lengthAdjust="spacingAndGlyphs" textLength="221" x="484.5" y="494.2104">ListDataProvider(items: Collection&lt;T&gt;)</text><ellipse cx="475.5" cy="504.707" fill="#84BE84" rx="3" ry="3" style="stroke: #038048; stroke-width: 1.0;"/><text fill="#000000" font-family="sans-serif" font-size="11" lengthAdjust="spacingAndGlyphs" textLength="146" x="484.5" y="507.0151">getItems(): Collection&lt;T&gt;</text><!--link DataProvider to ConfigurableFilterDataProvider--><path d="M605.337,146.269 C620.336,163.421 636.716,182.152 649.486,196.755 " fill="none" id="DataProvider-ConfigurableFilterDataProvider" style="stroke: #A80036; stroke-width: 1.0;"/><polygon fill="none" points="599.99,150.789,592.094,131.126,610.529,141.573,599.99,150.789" style="stroke: #A80036; stroke-width: 1.0;"/><!--link DataProvider to BackEndDataProvider--><path d="M709.746,98 C714.806,98 719.866,98 724.926,98 " fill="none" id="DataProvider-BackEndDataProvider" style="stroke: #A80036; stroke-width: 1.0;"/><polygon fill="none" points="709.598,105,689.598,98,709.598,91,709.598,105" style="stroke: #A80036; stroke-width: 1.0;"/><!--link HierarchicalDataProvider to DataProvider--><path d="M403.554,98 C408.445,98 413.337,98 418.228,98 " fill="none" id="HierarchicalDataProvider-DataProvider" style="stroke: #A80036; stroke-width: 1.0;"/><polygon fill="none" points="418.338,91,438.338,98,418.338,105,418.338,91" style="stroke: #A80036; stroke-width: 1.0;"/><!--link ConfigurableFilterDataProvider to InMemoryDataProvider--><path d="M695.766,267.663 C703.316,281.376 711.609,296.436 718.953,309.775 " fill="none" id="ConfigurableFilterDataProvider-InMemoryDataProvider" style="stroke: #A80036; stroke-width: 1.0;"/><polygon fill="none" points="689.604,270.985,686.09,250.089,701.868,264.233,689.604,270.985" style="stroke: #A80036; stroke-width: 1.0;"/><!--link DataProvider to AbstractDataProvider--><path d="M538.244,149.104 C508.737,206.503 462.104,297.22 443.769,332.887 " fill="none" id="DataProvider-AbstractDataProvider" style="stroke: #A80036; stroke-width: 1.0; stroke-dasharray: 7.0,7.0;"/><polygon fill="none" points="532.159,145.63,547.528,131.043,544.61,152.03,532.159,145.63" style="stroke: #A80036; stroke-width: 1.0;"/><!--link AbstractDataProvider to ListDataProvider--><path d="M469.112,378.32 C493.065,398.806 525.468,426.518 550.396,447.8384 " fill="none" id="AbstractDataProvider-ListDataProvider" style="stroke: #A80036; stroke-width: 1.0;"/><polygon fill="none" points="464.383,383.486,453.734,365.167,473.483,372.847,464.383,383.486" style="stroke: #A80036; stroke-width: 1.0;"/><!--link InMemoryDataProvider to ListDataProvider--><path d="M679.95,401.359 C661.691,416.975 642.147,433.69 625.793,447.6772 " fill="none" id="InMemoryDataProvider-ListDataProvider" style="stroke: #A80036; stroke-width: 1.0; stroke-dasharray: 7.0,7.0;"/><polygon fill="none" points="675.468,395.981,695.217,388.301,684.568,406.62,675.468,395.981" style="stroke: #A80036; stroke-width: 1.0;"/><!--
@startuml
package "com.vaadin.data.provider" {
  interface DataProvider<T, F> {
   + {abstract} fetch(query: Query<T, F>): Stream<T>
   + {abstract} size(query: Query<T, F>)
  }
 interface ConfigurableFilterDataProvider<T, F, C> {
  + {abstract} setFilter(filter:C)
 }
 interface BackEndDataProvider<T, F> {
  + {abstract} setSortOrders(sortOrders: List<QuerySortOrder>)
 }
 interface HierarchicalDataProvider<T, F> {
  + {abstract} getChildCount(query: HierarchicalQuery<T, F>): int
  + {abstract} fetchChildren(query: HierarchicalQuery<T, F>): Stream<T>
  + {abstract} hasChildren(item: T): boolean
 }
 interface InMemoryDataProvider<T> {
  + {abstract} getFilter(): SerializablePredicate<T>
  + {abstract} getSortComparator(): SerializableComparator<T>
  + {abstract} setSortComparator(comparator: SerializableComparator<T>)
 }
 abstract class AbstractDataProvider
 class ListDataProvider<T> {
  + ListDataProvider(items: Collection<T>)
  + getItems(): Collection<T>
 }
 ConfigurableFilterDataProvider -up-|> DataProvider
 BackEndDataProvider -left-|> DataProvider
 HierarchicalDataProvider -right-|> DataProvider
 InMemoryDataProvider -up-|> ConfigurableFilterDataProvider
 AbstractDataProvider .up.|> DataProvider
 ListDataProvider -up-|> AbstractDataProvider
 ListDataProvider .up.|> InMemoryDataProvider
}
hide empty attributes
hide empty methods
@enduml

PlantUML version 1.2017.18(Fri Oct 06 16:56:32 UTC 2017)
(GPL source distribution)
Java Runtime: Java(TM) SE Runtime Environment
JVM: Java HotSpot(TM) 64-Bit Server VM
Java Version: 1.7.0_25-b15
Operating System: Linux
Default Encoding: UTF-8
Language: en
Country: US
--></g></svg>