<?xml version="1.0" encoding="UTF-8" standalone="no"?><svg xmlns="http://www.w3.org/2000/svg" xmlns:xlink="http://www.w3.org/1999/xlink" contentScriptType="application/ecmascript" contentStyleType="text/css" height="785px" preserveAspectRatio="none" style="width:1239px;height:785px;" version="1.1" viewBox="0 0 1239 785" width="1239px" zoomAndPan="magnify"><defs><filter height="300%" id="fxewlcnatbcii" width="300%" x="-1" y="-1"><feGaussianBlur result="blurOut" stdDeviation="2.0"/><feColorMatrix in="blurOut" result="blurOut2" type="matrix" values="0 0 0 0 0 0 0 0 0 0 0 0 0 0 0 0 0 0 .4 0"/><feOffset dx="4.0" dy="4.0" in="blurOut2" result="blurOut3"/><feBlend in="SourceGraphic" in2="blurOut3" mode="normal"/></filter></defs><g><!--cluster com.vaadin.ui--><polygon fill="#FFFFFF" filter="url(#fxewlcnatbcii)" points="22,24,136,24,143,46.2969,1217,46.2969,1217,773,22,773,22,24" style="stroke: #000000; stroke-width: 2.0;"/><line style="stroke: #000000; stroke-width: 2.0;" x1="22" x2="143" y1="46.2969" y2="46.2969"/><text fill="#000000" font-family="sans-serif" font-size="14" font-weight="bold" lengthAdjust="spacingAndGlyphs" textLength="108" x="26" y="38.9951">com.vaadin.ui</text><!--cluster renderers--><polygon fill="#FFFFFF" filter="url(#fxewlcnatbcii)" points="742,553,828,553,835,575.2969,988,575.2969,988,749,742,749,742,553" style="stroke: #000000; stroke-width: 2.0;"/><line style="stroke: #000000; stroke-width: 2.0;" x1="742" x2="835" y1="575.2969" y2="575.2969"/><text fill="#000000" font-family="sans-serif" font-size="14" font-weight="bold" lengthAdjust="spacingAndGlyphs" textLength="80" x="746" y="567.9951">renderers</text><!--class Grid--><rect fill="#FEFECE" filter="url(#fxewlcnatbcii)" height="468.9453" id="Grid" style="stroke: #A80036; stroke-width: 1.5;" width="684" x="38" y="59"/><ellipse cx="357.75" cy="75" fill="#ADD1B2" rx="11" ry="11" style="stroke: #A80036; stroke-width: 1.0;"/><path d="M360.0938,70.6719 L360.2656,70.75 C360.4844,70.4375 360.6875,70.3438 360.9844,70.3438 C361.2813,70.3438 361.5625,70.4844 361.7188,70.75 C361.8125,70.9063 361.8281,71.0313 361.8281,71.4688 L361.8281,72.8906 C361.8281,73.3125 361.7969,73.5 361.6875,73.6563 C361.5156,73.875 361.25,74.0156 360.9844,74.0156 C360.7656,74.0156 360.5313,73.9063 360.3906,73.7656 C360.25,73.6406 360.2188,73.5156 360.1563,73.1094 C360.0625,72.7031 359.8906,72.4844 359.4063,72.2031 C358.9375,71.9531 358.3281,71.7969 357.75,71.7969 C356.0156,71.7969 354.7656,73.1094 354.7656,74.8906 L354.7656,75.9844 C354.7656,77.6875 356.0625,78.7813 358.1094,78.7813 C358.875,78.7813 359.5625,78.6563 359.9844,78.3906 C360.1719,78.2969 360.1719,78.2969 360.625,77.8125 C360.8125,77.625 361.0156,77.5469 361.2344,77.5469 C361.7031,77.5469 362.0938,77.9375 362.0938,78.3906 C362.0938,78.7813 361.7656,79.2344 361.1875,79.6406 C360.4375,80.1875 359.2813,80.4844 358.0625,80.4844 C355.1719,80.4844 353.0625,78.5938 353.0625,76.0156 L353.0625,74.8906 C353.0625,72.1719 355.0625,70.0938 357.6875,70.0938 C358.5625,70.0938 359.1563,70.2344 360.0938,70.6719 Z "/><text fill="#000000" font-family="sans-serif" font-size="12" lengthAdjust="spacingAndGlyphs" textLength="25" x="378.25" y="79.1543">Grid</text><rect fill="#FFFFFF" height="15.9688" style="stroke: #000000; stroke-width: 1.0; stroke-dasharray: 2.0,2.0;" width="9" x="716" y="56"/><text fill="#000000" font-family="sans-serif" font-size="12" font-style="italic" lengthAdjust="spacingAndGlyphs" textLength="7" x="717" y="68.1387">T</text><line style="stroke: #A80036; stroke-width: 1.5;" x1="39" x2="721" y1="91" y2="91"/><ellipse cx="49" cy="102.9023" fill="#84BE84" rx="3" ry="3" style="stroke: #038048; stroke-width: 1.0;"/><text fill="#000000" font-family="sans-serif" font-size="11" lengthAdjust="spacingAndGlyphs" textLength="32" x="58" y="105.2104">Grid()</text><ellipse cx="49" cy="115.707" fill="#84BE84" rx="3" ry="3" style="stroke: #038048; stroke-width: 1.0;"/><text fill="#000000" font-family="sans-serif" font-size="11" lengthAdjust="spacingAndGlyphs" textLength="152" x="58" y="118.0151">Grid(beanType: Class&lt;T&gt;)</text><ellipse cx="49" cy="128.5117" fill="#84BE84" rx="3" ry="3" style="stroke: #038048; stroke-width: 1.0;"/><text fill="#000000" font-family="sans-serif" font-size="11" lengthAdjust="spacingAndGlyphs" textLength="220" x="58" y="130.8198">Grid(dataProvider: DataProvider&lt;T,?&gt;)</text><ellipse cx="49" cy="141.3164" fill="#84BE84" rx="3" ry="3" style="stroke: #038048; stroke-width: 1.0;"/><text fill="#000000" font-family="sans-serif" font-size="11" lengthAdjust="spacingAndGlyphs" textLength="243" x="58" y="143.6245">Grid(caption: String, items: Collection&lt;T&gt;)</text><ellipse cx="49" cy="154.1211" fill="#84BE84" rx="3" ry="3" style="stroke: #038048; stroke-width: 1.0;"/><text fill="#000000" font-family="sans-serif" font-size="11" lengthAdjust="spacingAndGlyphs" textLength="311" x="58" y="156.4292">Grid(caption: String, dataProvider: DataProvider&lt;T,?&gt;)</text><line style="stroke: #A80036; stroke-width: 1.0; stroke-dasharray: 1.0,2.0;" x1="39" x2="721" y1="163.0234" y2="163.0234"/><ellipse cx="49" cy="174.9258" fill="#84BE84" rx="3" ry="3" style="stroke: #038048; stroke-width: 1.0;"/><text fill="#000000" font-family="sans-serif" font-size="11" lengthAdjust="spacingAndGlyphs" textLength="285" x="58" y="177.2339">addColumn(propertyName: String): Column&lt;T, ?&gt;</text><ellipse cx="49" cy="187.7305" fill="#84BE84" rx="3" ry="3" style="stroke: #038048; stroke-width: 1.0;"/><text fill="#000000" font-family="sans-serif" font-size="11" lengthAdjust="spacingAndGlyphs" textLength="532" x="58" y="190.0386">addColumn(propertyName: String, renderer: AbstractRenderer&lt;? super T,?&gt;): Column&lt;T, ?&gt;</text><ellipse cx="49" cy="200.5352" fill="#84BE84" rx="3" ry="3" style="stroke: #038048; stroke-width: 1.0;"/><text fill="#000000" font-family="sans-serif" font-size="11" lengthAdjust="spacingAndGlyphs" textLength="389" x="58" y="202.8433">addColumn(identifier: String, column: Column&lt;T,?&gt;): Column&lt;T, ?&gt;</text><ellipse cx="49" cy="213.3398" fill="#84BE84" rx="3" ry="3" style="stroke: #038048; stroke-width: 1.0;"/><text fill="#000000" font-family="sans-serif" font-size="11" lengthAdjust="spacingAndGlyphs" textLength="361" x="58" y="215.6479">addColumn(valueProvider: ValueProvider&lt;T,V&gt;): Column&lt;T, ?&gt;</text><ellipse cx="49" cy="226.1445" fill="#84BE84" rx="3" ry="3" style="stroke: #038048; stroke-width: 1.0;"/><text fill="#000000" font-family="sans-serif" font-size="11" lengthAdjust="spacingAndGlyphs" textLength="658" x="58" y="228.4526">addColumn(valueProvider: ValueProvider&lt;T,V&gt;, rendered: AbstractRenderer&lt;? super T,? super V&gt;): Column&lt;T, ?&gt;</text><ellipse cx="49" cy="238.9492" fill="#84BE84" rx="3" ry="3" style="stroke: #038048; stroke-width: 1.0;"/><text fill="#000000" font-family="sans-serif" font-size="11" lengthAdjust="spacingAndGlyphs" textLength="248" x="58" y="241.2573">getColumn(columnId: String): Column&lt;T,?&gt;</text><ellipse cx="49" cy="251.7539" fill="#84BE84" rx="3" ry="3" style="stroke: #038048; stroke-width: 1.0;"/><text fill="#000000" font-family="sans-serif" font-size="11" lengthAdjust="spacingAndGlyphs" textLength="200" x="58" y="254.062">getColumns(): List&lt;Column&lt;T,?&gt;&gt;</text><ellipse cx="49" cy="264.5586" fill="#84BE84" rx="3" ry="3" style="stroke: #038048; stroke-width: 1.0;"/><text fill="#000000" font-family="sans-serif" font-size="11" lengthAdjust="spacingAndGlyphs" textLength="221" x="58" y="266.8667">removeColumn(column: Column&lt;T,?&gt;)</text><ellipse cx="49" cy="277.3633" fill="#84BE84" rx="3" ry="3" style="stroke: #038048; stroke-width: 1.0;"/><text fill="#000000" font-family="sans-serif" font-size="11" lengthAdjust="spacingAndGlyphs" textLength="187" x="58" y="279.6714">removeColumn(columnId: String)</text><line style="stroke: #A80036; stroke-width: 1.0; stroke-dasharray: 1.0,2.0;" x1="39" x2="721" y1="286.2656" y2="286.2656"/><ellipse cx="49" cy="298.168" fill="#84BE84" rx="3" ry="3" style="stroke: #038048; stroke-width: 1.0;"/><text fill="#000000" font-family="sans-serif" font-size="11" lengthAdjust="spacingAndGlyphs" textLength="219" x="58" y="300.4761">addHeaderRowAt(row: int): HeaderRow</text><ellipse cx="49" cy="310.9727" fill="#84BE84" rx="3" ry="3" style="stroke: #038048; stroke-width: 1.0;"/><text fill="#000000" font-family="sans-serif" font-size="11" lengthAdjust="spacingAndGlyphs" textLength="209" x="58" y="313.2808">addFooterRowAt(row: int): FooterRow</text><ellipse cx="49" cy="323.7773" fill="#84BE84" rx="3" ry="3" style="stroke: #038048; stroke-width: 1.0;"/><text fill="#000000" font-family="sans-serif" font-size="11" lengthAdjust="spacingAndGlyphs" textLength="186" x="58" y="326.0854">appendHeaderRow(): HeaderRow</text><ellipse cx="49" cy="336.582" fill="#84BE84" rx="3" ry="3" style="stroke: #038048; stroke-width: 1.0;"/><text fill="#000000" font-family="sans-serif" font-size="11" lengthAdjust="spacingAndGlyphs" textLength="176" x="58" y="338.8901">appendFooterRow(): FooterRow</text><ellipse cx="49" cy="349.3867" fill="#84BE84" rx="3" ry="3" style="stroke: #038048; stroke-width: 1.0;"/><text fill="#000000" font-family="sans-serif" font-size="11" lengthAdjust="spacingAndGlyphs" textLength="191" x="58" y="351.6948">prependHeaderRow(): HeaderRow</text><ellipse cx="49" cy="362.1914" fill="#84BE84" rx="3" ry="3" style="stroke: #038048; stroke-width: 1.0;"/><text fill="#000000" font-family="sans-serif" font-size="11" lengthAdjust="spacingAndGlyphs" textLength="181" x="58" y="364.4995">prependFooterRow(): FooterRow</text><ellipse cx="49" cy="374.9961" fill="#84BE84" rx="3" ry="3" style="stroke: #038048; stroke-width: 1.0;"/><text fill="#000000" font-family="sans-serif" font-size="11" lengthAdjust="spacingAndGlyphs" textLength="208" x="58" y="377.3042">removeHeaderRow(row: HeaderRow)</text><ellipse cx="49" cy="387.8008" fill="#84BE84" rx="3" ry="3" style="stroke: #038048; stroke-width: 1.0;"/><text fill="#000000" font-family="sans-serif" font-size="11" lengthAdjust="spacingAndGlyphs" textLength="198" x="58" y="390.1089">removeFooterRow(row: FooterRow)</text><ellipse cx="49" cy="400.6055" fill="#84BE84" rx="3" ry="3" style="stroke: #038048; stroke-width: 1.0;"/><text fill="#000000" font-family="sans-serif" font-size="11" lengthAdjust="spacingAndGlyphs" textLength="167" x="58" y="402.9136">removeHeaderRow(index: int)</text><ellipse cx="49" cy="413.4102" fill="#84BE84" rx="3" ry="3" style="stroke: #038048; stroke-width: 1.0;"/><text fill="#000000" font-family="sans-serif" font-size="11" lengthAdjust="spacingAndGlyphs" textLength="162" x="58" y="415.7183">removeFooterRow(index: int)</text><line style="stroke: #A80036; stroke-width: 1.0; stroke-dasharray: 1.0,2.0;" x1="39" x2="721" y1="422.3125" y2="422.3125"/><ellipse cx="49" cy="434.2148" fill="#84BE84" rx="3" ry="3" style="stroke: #038048; stroke-width: 1.0;"/><text fill="#000000" font-family="sans-serif" font-size="11" lengthAdjust="spacingAndGlyphs" textLength="219" x="58" y="436.5229">getDataProvider(): DataProvider&lt;T, ?&gt;</text><ellipse cx="49" cy="447.0195" fill="#84BE84" rx="3" ry="3" style="stroke: #038048; stroke-width: 1.0;"/><text fill="#000000" font-family="sans-serif" font-size="11" lengthAdjust="spacingAndGlyphs" textLength="291" x="58" y="449.3276">setDataProvider(dataProvider: DataProvider&lt;T, ?&gt;)</text><line style="stroke: #A80036; stroke-width: 1.0; stroke-dasharray: 1.0,2.0;" x1="39" x2="721" y1="455.9219" y2="455.9219"/><ellipse cx="49" cy="467.8242" fill="#84BE84" rx="3" ry="3" style="stroke: #038048; stroke-width: 1.0;"/><text fill="#000000" font-family="sans-serif" font-size="11" lengthAdjust="spacingAndGlyphs" textLength="169" x="58" y="470.1323">sort(userOriginated: boolean)</text><ellipse cx="49" cy="480.6289" fill="#84BE84" rx="3" ry="3" style="stroke: #038048; stroke-width: 1.0;"/><text fill="#000000" font-family="sans-serif" font-size="11" lengthAdjust="spacingAndGlyphs" textLength="158" x="58" y="482.937">sort(column: Column&lt;T,?&gt;)</text><ellipse cx="49" cy="493.4336" fill="#84BE84" rx="3" ry="3" style="stroke: #038048; stroke-width: 1.0;"/><text fill="#000000" font-family="sans-serif" font-size="11" lengthAdjust="spacingAndGlyphs" textLength="297" x="58" y="495.7417">sort(column: Column&lt;T,?&gt;, direction: SortDirection)</text><ellipse cx="49" cy="506.2383" fill="#84BE84" rx="3" ry="3" style="stroke: #038048; stroke-width: 1.0;"/><text fill="#000000" font-family="sans-serif" font-size="11" lengthAdjust="spacingAndGlyphs" textLength="124" x="58" y="508.5464">sort(columnId: String)</text><ellipse cx="49" cy="519.043" fill="#84BE84" rx="3" ry="3" style="stroke: #038048; stroke-width: 1.0;"/><text fill="#000000" font-family="sans-serif" font-size="11" lengthAdjust="spacingAndGlyphs" textLength="263" x="58" y="521.3511">sort(columnId: String, direction: SortDirection)</text><!--class Column--><rect fill="#FEFECE" filter="url(#fxewlcnatbcii)" height="283.2891" id="Column" style="stroke: #A80036; stroke-width: 1.5;" width="443" x="757.5" y="152"/><ellipse cx="938.25" cy="168" fill="#ADD1B2" rx="11" ry="11" style="stroke: #A80036; stroke-width: 1.0;"/><path d="M940.5938,163.6719 L940.7656,163.75 C940.9844,163.4375 941.1875,163.3438 941.4844,163.3438 C941.7813,163.3438 942.0625,163.4844 942.2188,163.75 C942.3125,163.9063 942.3281,164.0313 942.3281,164.4688 L942.3281,165.8906 C942.3281,166.3125 942.2969,166.5 942.1875,166.6563 C942.0156,166.875 941.75,167.0156 941.4844,167.0156 C941.2656,167.0156 941.0313,166.9063 940.8906,166.7656 C940.75,166.6406 940.7188,166.5156 940.6563,166.1094 C940.5625,165.7031 940.3906,165.4844 939.9063,165.2031 C939.4375,164.9531 938.8281,164.7969 938.25,164.7969 C936.5156,164.7969 935.2656,166.1094 935.2656,167.8906 L935.2656,168.9844 C935.2656,170.6875 936.5625,171.7813 938.6094,171.7813 C939.375,171.7813 940.0625,171.6563 940.4844,171.3906 C940.6719,171.2969 940.6719,171.2969 941.125,170.8125 C941.3125,170.625 941.5156,170.5469 941.7344,170.5469 C942.2031,170.5469 942.5938,170.9375 942.5938,171.3906 C942.5938,171.7813 942.2656,172.2344 941.6875,172.6406 C940.9375,173.1875 939.7813,173.4844 938.5625,173.4844 C935.6719,173.4844 933.5625,171.5938 933.5625,169.0156 L933.5625,167.8906 C933.5625,165.1719 935.5625,163.0938 938.1875,163.0938 C939.0625,163.0938 939.6563,163.2344 940.5938,163.6719 Z "/><text fill="#000000" font-family="sans-serif" font-size="12" lengthAdjust="spacingAndGlyphs" textLength="46" x="958.75" y="172.1543">Column</text><rect fill="#FFFFFF" height="15.9688" style="stroke: #000000; stroke-width: 1.0; stroke-dasharray: 2.0,2.0;" width="25" x="1178.5" y="149"/><text fill="#000000" font-family="sans-serif" font-size="12" font-style="italic" lengthAdjust="spacingAndGlyphs" textLength="23" x="1179.5" y="161.1387">T, V</text><line style="stroke: #A80036; stroke-width: 1.5;" x1="758.5" x2="1199.5" y1="184" y2="184"/><ellipse cx="768.5" cy="195.9023" fill="#84BE84" rx="3" ry="3" style="stroke: #038048; stroke-width: 1.0;"/><text fill="#000000" font-family="sans-serif" font-size="11" lengthAdjust="spacingAndGlyphs" textLength="111" x="777.5" y="198.2104">getCaption(): String</text><ellipse cx="768.5" cy="208.707" fill="#84BE84" rx="3" ry="3" style="stroke: #038048; stroke-width: 1.0;"/><text fill="#000000" font-family="sans-serif" font-size="11" lengthAdjust="spacingAndGlyphs" textLength="415" x="777.5" y="211.0151">getComparator(sortDirection: SortDirection): SerializableComparator&lt;T&gt;</text><ellipse cx="768.5" cy="221.5117" fill="#84BE84" rx="3" ry="3" style="stroke: #038048; stroke-width: 1.0;"/><text fill="#000000" font-family="sans-serif" font-size="11" lengthAdjust="spacingAndGlyphs" textLength="78" x="777.5" y="223.8198">getId(): String</text><ellipse cx="768.5" cy="234.3164" fill="#84BE84" rx="3" ry="3" style="stroke: #038048; stroke-width: 1.0;"/><text fill="#000000" font-family="sans-serif" font-size="11" lengthAdjust="spacingAndGlyphs" textLength="162" x="777.5" y="236.6245">getRenderer(): Renderer&lt;?&gt;</text><ellipse cx="768.5" cy="247.1211" fill="#84BE84" rx="3" ry="3" style="stroke: #038048; stroke-width: 1.0;"/><text fill="#000000" font-family="sans-serif" font-size="11" lengthAdjust="spacingAndGlyphs" textLength="373" x="777.5" y="249.4292">getSortOrder(direction: SortDirection): Stream&lt;QuerySortOrder&gt;</text><ellipse cx="768.5" cy="259.9258" fill="#84BE84" rx="3" ry="3" style="stroke: #038048; stroke-width: 1.0;"/><text fill="#000000" font-family="sans-serif" font-size="11" lengthAdjust="spacingAndGlyphs" textLength="234" x="777.5" y="262.2339">getValueProvider():  ValueProvider&lt;T, V&gt;</text><ellipse cx="768.5" cy="272.7305" fill="#84BE84" rx="3" ry="3" style="stroke: #038048; stroke-width: 1.0;"/><text fill="#000000" font-family="sans-serif" font-size="11" lengthAdjust="spacingAndGlyphs" textLength="116" x="777.5" y="275.0386">isEditable(): boolean</text><ellipse cx="768.5" cy="285.5352" fill="#84BE84" rx="3" ry="3" style="stroke: #038048; stroke-width: 1.0;"/><text fill="#000000" font-family="sans-serif" font-size="11" lengthAdjust="spacingAndGlyphs" textLength="110" x="777.5" y="287.8433">isHidden(): boolean</text><ellipse cx="768.5" cy="298.3398" fill="#84BE84" rx="3" ry="3" style="stroke: #038048; stroke-width: 1.0;"/><text fill="#000000" font-family="sans-serif" font-size="11" lengthAdjust="spacingAndGlyphs" textLength="124" x="777.5" y="300.6479">isResizable(): boolean</text><ellipse cx="768.5" cy="311.1445" fill="#84BE84" rx="3" ry="3" style="stroke: #038048; stroke-width: 1.0;"/><text fill="#000000" font-family="sans-serif" font-size="11" lengthAdjust="spacingAndGlyphs" textLength="119" x="777.5" y="313.4526">isSortable(): boolean</text><ellipse cx="768.5" cy="323.9492" fill="#84BE84" rx="3" ry="3" style="stroke: #038048; stroke-width: 1.0;"/><text fill="#000000" font-family="sans-serif" font-size="11" lengthAdjust="spacingAndGlyphs" textLength="243" x="777.5" y="326.2573">setCaption(caption: String): Column&lt;T, V&gt;</text><ellipse cx="768.5" cy="336.7539" fill="#84BE84" rx="3" ry="3" style="stroke: #038048; stroke-width: 1.0;"/><text fill="#000000" font-family="sans-serif" font-size="11" lengthAdjust="spacingAndGlyphs" textLength="417" x="777.5" y="339.062">setComparator(comparator: SerializableComparator&lt;T&gt;): Column&lt;T, V&gt;</text><ellipse cx="768.5" cy="349.5586" fill="#84BE84" rx="3" ry="3" style="stroke: #038048; stroke-width: 1.0;"/><text fill="#000000" font-family="sans-serif" font-size="11" lengthAdjust="spacingAndGlyphs" textLength="260" x="777.5" y="351.8667">setEditable(boolean: editable): Column&lt;T, V&gt;</text><ellipse cx="768.5" cy="362.3633" fill="#84BE84" rx="3" ry="3" style="stroke: #038048; stroke-width: 1.0;"/><text fill="#000000" font-family="sans-serif" font-size="11" lengthAdjust="spacingAndGlyphs" textLength="247" x="777.5" y="364.6714">setHidden(boolean: hidden): Column&lt;T, V&gt;</text><ellipse cx="768.5" cy="375.168" fill="#84BE84" rx="3" ry="3" style="stroke: #038048; stroke-width: 1.0;"/><text fill="#000000" font-family="sans-serif" font-size="11" lengthAdjust="spacingAndGlyphs" textLength="179" x="777.5" y="377.4761">setId(id: String): Column&lt;T, V&gt;</text><ellipse cx="768.5" cy="387.9727" fill="#84BE84" rx="3" ry="3" style="stroke: #038048; stroke-width: 1.0;"/><text fill="#000000" font-family="sans-serif" font-size="11" lengthAdjust="spacingAndGlyphs" textLength="351" x="777.5" y="390.2808">setRenderer(renderer: Renderer&lt;? super V&gt;): Column&lt;T, V&gt;</text><ellipse cx="768.5" cy="400.7773" fill="#84BE84" rx="3" ry="3" style="stroke: #038048; stroke-width: 1.0;"/><text fill="#000000" font-family="sans-serif" font-size="11" lengthAdjust="spacingAndGlyphs" textLength="274" x="777.5" y="403.0854">setResizable(resizable: boolean): Column&lt;T, V&gt;</text><ellipse cx="768.5" cy="413.582" fill="#84BE84" rx="3" ry="3" style="stroke: #038048; stroke-width: 1.0;"/><text fill="#000000" font-family="sans-serif" font-size="11" lengthAdjust="spacingAndGlyphs" textLength="265" x="777.5" y="415.8901">setSortable(sortable: boolean): Column&lt;T, V&gt;</text><ellipse cx="768.5" cy="426.3867" fill="#84BE84" rx="3" ry="3" style="stroke: #038048; stroke-width: 1.0;"/><text fill="#000000" font-family="sans-serif" font-size="11" lengthAdjust="spacingAndGlyphs" textLength="380" x="777.5" y="428.6948">setSortOrderProvider(provider: SortOrderProvider): Column&lt;T, V&gt;</text><!--class Renderer--><rect fill="#FEFECE" filter="url(#fxewlcnatbcii)" height="52.8047" id="Renderer" style="stroke: #A80036; stroke-width: 1.5;" width="214" x="758" y="588"/><ellipse cx="826.25" cy="604" fill="#B4A7E5" rx="11" ry="11" style="stroke: #A80036; stroke-width: 1.0;"/><path d="M827.2031,600.7813 L827.2031,607.2969 L828.9219,607.2969 C829.375,607.2969 829.5156,607.3281 829.6875,607.4531 C829.9219,607.625 830.0313,607.875 830.0313,608.1563 C830.0313,608.7188 829.6719,609 828.9219,609 L823.7813,609 C823.375,609 823.1719,608.9531 823.0156,608.8281 C822.7969,608.6719 822.6563,608.4063 822.6563,608.1563 C822.6563,607.8594 822.8125,607.5781 823.0625,607.4219 C823.2188,607.3125 823.3438,607.2969 823.7813,607.2969 L825.5,607.2969 L825.5,600.7813 L823.7813,600.7813 C823.3594,600.7813 823.1719,600.75 823.0156,600.6406 C822.7969,600.4688 822.6563,600.2188 822.6563,599.9375 C822.6563,599.6563 822.8125,599.3594 823.0625,599.2031 C823.2188,599.1094 823.3438,599.0938 823.7813,599.0938 L828.9219,599.0938 C829.375,599.0938 829.5156,599.125 829.6875,599.2344 C829.9219,599.4063 830.0313,599.6719 830.0313,599.9375 C830.0313,600.2344 829.8906,600.5156 829.625,600.6719 C829.5,600.75 829.3125,600.7813 828.9219,600.7813 Z "/><text fill="#000000" font-family="sans-serif" font-size="12" font-style="italic" lengthAdjust="spacingAndGlyphs" textLength="58" x="846.75" y="608.1543">Renderer</text><rect fill="#FFFFFF" height="15.9688" style="stroke: #000000; stroke-width: 1.0; stroke-dasharray: 2.0,2.0;" width="9" x="966" y="585"/><text fill="#000000" font-family="sans-serif" font-size="12" font-style="italic" lengthAdjust="spacingAndGlyphs" textLength="7" x="967" y="597.1387">T</text><line style="stroke: #A80036; stroke-width: 1.5;" x1="759" x2="971" y1="620" y2="620"/><ellipse cx="769" cy="631.9023" fill="#84BE84" rx="3" ry="3" style="stroke: #038048; stroke-width: 1.0;"/><text fill="#000000" font-family="sans-serif" font-size="11" font-style="italic" lengthAdjust="spacingAndGlyphs" textLength="188" x="778" y="634.2104">getPresentationType(): Class&lt;T&gt;</text><!--class AbstractRenderer--><rect fill="#FEFECE" filter="url(#fxewlcnatbcii)" height="32" id="AbstractRenderer" style="stroke: #A80036; stroke-width: 1.5;" width="169" x="769.5" y="701"/><ellipse cx="784.5" cy="717" fill="#A9DCDF" rx="11" ry="11" style="stroke: #A80036; stroke-width: 1.0;"/><path d="M786.0781,718.8125 L782.0313,718.8125 L781.6406,719.7969 L782.0313,719.7969 C782.4844,719.7969 782.625,719.8281 782.7969,719.9531 C783.0156,720.125 783.1406,720.375 783.1406,720.6563 C783.1406,720.9375 783,721.2344 782.7344,721.375 C782.6094,721.4688 782.3906,721.5 782.0313,721.5 L779.7656,721.5 C779.0156,721.5 778.6406,721.2188 778.6406,720.6563 C778.6406,720.3594 778.7969,720.0781 779.0469,719.9219 C779.2031,719.8125 779.3594,719.7969 779.7813,719.7969 L782.4219,713.2813 L781.3438,713.2813 C780.9063,713.2813 780.7344,713.25 780.5625,713.1406 C780.3438,712.9688 780.2031,712.7188 780.2031,712.4375 C780.2031,712.1563 780.3594,711.875 780.6094,711.7031 C780.7656,711.6094 780.8906,711.5938 781.3438,711.5938 L785.0156,711.5938 L788.4063,719.7969 C788.875,719.7969 789.0313,719.8281 789.2031,719.9688 C789.4219,720.125 789.5625,720.375 789.5625,720.6563 C789.5625,720.9375 789.4063,721.2344 789.1563,721.375 C789.0156,721.4688 788.7969,721.5 788.4375,721.5 L786.0781,721.5 C785.6563,721.5 785.4531,721.4531 785.3125,721.3281 C785.0938,721.1719 784.9531,720.9219 784.9531,720.6563 C784.9531,720.3594 785.1094,720.0781 785.3594,719.9219 C785.5156,719.8125 785.625,719.7969 786.0781,719.7969 L786.4688,719.7969 Z M785.375,717.1094 L784.0469,713.8438 L782.7031,717.1094 Z "/><text fill="#000000" font-family="sans-serif" font-size="12" font-style="italic" lengthAdjust="spacingAndGlyphs" textLength="110" x="798.5" y="721.1543">AbstractRenderer</text><rect fill="#FFFFFF" height="15.9688" style="stroke: #000000; stroke-width: 1.0; stroke-dasharray: 2.0,2.0;" width="25" x="916.5" y="698"/><text fill="#000000" font-family="sans-serif" font-size="12" font-style="italic" lengthAdjust="spacingAndGlyphs" textLength="23" x="917.5" y="710.1387">T, V</text><!--link Column to Grid--><path d="M807.184,437.409 C778.857,451.593 750.529,461.056 722.202,465.8 " fill="none" id="Column-Grid" style="stroke: #A80036; stroke-width: 1.0;"/><polygon fill="#A80036" points="811.73,435.093,801.895,435.6156,807.2751,437.3633,805.5275,442.7434,811.73,435.093" style="stroke: #A80036; stroke-width: 1.0;"/><text fill="#000000" font-family="sans-serif" font-size="13" lengthAdjust="spacingAndGlyphs" textLength="7" x="795.391" y="455.3091">*</text><!--link Grid to Column--><path d="M722.202,121.2 C747.499,125.436 772.795,133.436 798.091,145.2 " fill="none" id="Grid-Column" style="stroke: #A80036; stroke-width: 1.0;"/><ellipse cx="804.5513" cy="148.3763" fill="#FFFFFF" rx="8" ry="8" style="stroke: #A80036; stroke-width: 1.0;"/><line style="stroke: #A80036; stroke-width: 1.0;" x1="797.3725" x2="811.73" y1="144.8456" y2="151.907"/><line style="stroke: #A80036; stroke-width: 1.0;" x1="808.082" x2="801.0206" y1="141.1976" y2="155.555"/><!--link Column to Renderer--><path d="M928.666,435.347 C908.939,490.548 888.132,548.771 875.872,583.079 " fill="none" id="Column-Renderer" style="stroke: #A80036; stroke-width: 1.0; stroke-dasharray: 7.0,7.0;"/><polygon fill="#A80036" points="874.126,587.963,880.9216,580.8342,875.8088,583.2547,873.3883,578.1418,874.126,587.963" style="stroke: #A80036; stroke-width: 1.0;"/><!--link Grid to AbstractRenderer--><path d="M611.372,528.199 C653.351,567.201 697.609,606.238 741,641 C767.703,662.392 800.5,683.664 823.869,698.0594 " fill="none" id="Grid-AbstractRenderer" style="stroke: #A80036; stroke-width: 1.0; stroke-dasharray: 7.0,7.0;"/><polygon fill="#A80036" points="828.412,700.8448,822.8291,692.7311,824.1491,698.2318,818.6484,699.5518,828.412,700.8448" style="stroke: #A80036; stroke-width: 1.0;"/><!--link Renderer to AbstractRenderer--><path d="M860.008,661.11 C858.447,675.368 856.832,690.1294 855.669,700.7482 " fill="none" id="Renderer-AbstractRenderer" style="stroke: #A80036; stroke-width: 1.0;"/><polygon fill="none" points="853.061,660.24,862.196,641.12,866.978,661.763,853.061,660.24" style="stroke: #A80036; stroke-width: 1.0;"/><!--
@startuml
package "com.vaadin.ui" {
 class Grid<T> {
  + Grid()
  + Grid(beanType: Class<T>)
  + Grid(dataProvider: DataProvider<T,?>)
  + Grid(caption: String, items: Collection<T>)
  + Grid(caption: String, dataProvider: DataProvider<T,?>)
....
  + addColumn(propertyName: String): Column<T, ?>
  + addColumn(propertyName: String, renderer: AbstractRenderer<? super T,?>): Column<T, ?>
  + addColumn(identifier: String, column: Column<T,?>): Column<T, ?>
  + addColumn(valueProvider: ValueProvider<T,V>): Column<T, ?>
  + addColumn(valueProvider: ValueProvider<T,V>, rendered: AbstractRenderer<? super T,? super V>): Column<T, ?>
  + getColumn(columnId: String): Column<T,?>
  + getColumns(): List<Column<T,?>>
  + removeColumn(column: Column<T,?>)
  + removeColumn(columnId: String)
....
  + addHeaderRowAt(row: int): HeaderRow
  + addFooterRowAt(row: int): FooterRow
  + appendHeaderRow(): HeaderRow
  + appendFooterRow(): FooterRow
  + prependHeaderRow(): HeaderRow
  + prependFooterRow(): FooterRow
  + removeHeaderRow(row: HeaderRow)
  + removeFooterRow(row: FooterRow)
  + removeHeaderRow(index: int)
  + removeFooterRow(index: int)
....
  + getDataProvider(): DataProvider<T, ?>
  + setDataProvider(dataProvider: DataProvider<T, ?>)
....
  + sort(userOriginated: boolean)
  + sort(column: Column<T,?>)
  + sort(column: Column<T,?>, direction: SortDirection)
  + sort(columnId: String)
  + sort(columnId: String, direction: SortDirection)
 }
 class Column<T, V> {
  + getCaption(): String
  + getComparator(sortDirection: SortDirection): SerializableComparator<T>
  + getId(): String
  + getRenderer(): Renderer<?>
  + getSortOrder(direction: SortDirection): Stream<QuerySortOrder>
  + getValueProvider():  ValueProvider<T, V>
  + isEditable(): boolean
  + isHidden(): boolean
  + isResizable(): boolean
  + isSortable(): boolean
  + setCaption(caption: String): Column<T, V>
  + setComparator(comparator: SerializableComparator<T>): Column<T, V>
  + setEditable(boolean: editable): Column<T, V>
  + setHidden(boolean: hidden): Column<T, V>
  + setId(id: String): Column<T, V>
  + setRenderer(renderer: Renderer<? super V>): Column<T, V>
  + setResizable(resizable: boolean): Column<T, V>
  + setSortable(sortable: boolean): Column<T, V>
  + setSortOrderProvider(provider: SortOrderProvider): Column<T, V>
 }
 package "renderers" {
  interface Renderer<T> {
   + {abstract} getPresentationType(): Class<T>
  }
  abstract class AbstractRenderer<T, V>
 }
}

Grid -up-> "*" Column
Grid -+ Column
Column ..> Renderer
Grid ..> AbstractRenderer
AbstractRenderer -up-|> Renderer

hide empty attributes
hide empty methods
@enduml

PlantUML version 1.2017.18(Fri Oct 06 16:56:32 UTC 2017)
(GPL source distribution)
Java Runtime: Java(TM) SE Runtime Environment
JVM: Java HotSpot(TM) 64-Bit Server VM
Java Version: 1.7.0_25-b15
Operating System: Linux
Default Encoding: UTF-8
Language: en
Country: US
--></g></svg>