<?xml version="1.0" encoding="UTF-8" standalone="no"?><svg xmlns="http://www.w3.org/2000/svg" xmlns:xlink="http://www.w3.org/1999/xlink" contentScriptType="application/ecmascript" contentStyleType="text/css" preserveAspectRatio="true" version="1.1" viewBox="0 0 452 334" zoomAndPan="magnify"><defs><filter height="300%" id="f1u24nosumcwk9" width="300%" x="-1" y="-1"><feGaussianBlur result="blurOut" stdDeviation="2.0"/><feColorMatrix in="blurOut" result="blurOut2" type="matrix" values="0 0 0 0 0 0 0 0 0 0 0 0 0 0 0 0 0 0 .4 0"/><feOffset dx="4.0" dy="4.0" in="blurOut2" result="blurOut3"/><feBlend in="SourceGraphic" in2="blurOut3" mode="normal"/></filter></defs><g><!--cluster com.vaadin.data--><polygon fill="#FFFFFF" filter="url(#f1u24nosumcwk9)" points="22,24,156,24,163,46.2969,430,46.2969,430,322,22,322,22,24" style="stroke: #000000; stroke-width: 2.0;"/><line style="stroke: #000000; stroke-width: 2.0;" x1="22" x2="163" y1="46.2969" y2="46.2969"/><text fill="#000000" font-family="sans-serif" font-size="14" font-weight="bold" lengthAdjust="spacingAndGlyphs" textLength="128" x="26" y="38.9951">com.vaadin.data</text><!--class HasValue--><rect fill="#FEFECE" filter="url(#f1u24nosumcwk9)" height="155.2422" id="HasValue" style="stroke: #A80036; stroke-width: 1.5;" width="375" x="38.5" y="59"/><ellipse cx="192.75" cy="75" fill="#B4A7E5" rx="11" ry="11" style="stroke: #A80036; stroke-width: 1.0;"/><path d="M193.7031,71.7813 L193.7031,78.2969 L195.4219,78.2969 C195.875,78.2969 196.0156,78.3281 196.1875,78.4531 C196.4219,78.625 196.5313,78.875 196.5313,79.1563 C196.5313,79.7188 196.1719,80 195.4219,80 L190.2813,80 C189.875,80 189.6719,79.9531 189.5156,79.8281 C189.2969,79.6719 189.1563,79.4063 189.1563,79.1563 C189.1563,78.8594 189.3125,78.5781 189.5625,78.4219 C189.7188,78.3125 189.8438,78.2969 190.2813,78.2969 L192,78.2969 L192,71.7813 L190.2813,71.7813 C189.8594,71.7813 189.6719,71.75 189.5156,71.6406 C189.2969,71.4688 189.1563,71.2188 189.1563,70.9375 C189.1563,70.6563 189.3125,70.3594 189.5625,70.2031 C189.7188,70.1094 189.8438,70.0938 190.2813,70.0938 L195.4219,70.0938 C195.875,70.0938 196.0156,70.125 196.1875,70.2344 C196.4219,70.4063 196.5313,70.6719 196.5313,70.9375 C196.5313,71.2344 196.3906,71.5156 196.125,71.6719 C196,71.75 195.8125,71.7813 195.4219,71.7813 Z "/><text fill="#000000" font-family="sans-serif" font-size="12" font-style="italic" lengthAdjust="spacingAndGlyphs" textLength="58" x="213.25" y="79.1543">HasValue</text><line style="stroke: #A80036; stroke-width: 1.5;" x1="39.5" x2="412.5" y1="91" y2="91"/><ellipse cx="49.5" cy="102.9023" fill="#84BE84" rx="3" ry="3" style="stroke: #038048; stroke-width: 1.0;"/><text fill="#000000" font-family="sans-serif" font-size="11" font-style="italic" lengthAdjust="spacingAndGlyphs" textLength="345" x="58.5" y="105.2104">addValueChangeListener(listener: ValueChangeListener&lt;V&gt;)</text><ellipse cx="49.5" cy="115.707" fill="#84BE84" rx="3" ry="3" style="stroke: #038048; stroke-width: 1.0;"/><text fill="#000000" font-family="sans-serif" font-size="11" font-style="italic" lengthAdjust="spacingAndGlyphs" textLength="36" x="58.5" y="118.0151">clear()</text><ellipse cx="49.5" cy="128.5117" fill="#84BE84" rx="3" ry="3" style="stroke: #038048; stroke-width: 1.0;"/><text fill="#000000" font-family="sans-serif" font-size="11" font-style="italic" lengthAdjust="spacingAndGlyphs" textLength="74" x="58.5" y="130.8198">getValue(): V</text><ellipse cx="49.5" cy="141.3164" fill="#84BE84" rx="3" ry="3" style="stroke: #038048; stroke-width: 1.0;"/><text fill="#000000" font-family="sans-serif" font-size="11" font-style="italic" lengthAdjust="spacingAndGlyphs" textLength="104" x="58.5" y="143.6245">setValue(value: V)</text><ellipse cx="49.5" cy="154.1211" fill="#84BE84" rx="3" ry="3" style="stroke: #038048; stroke-width: 1.0;"/><text fill="#000000" font-family="sans-serif" font-size="11" font-style="italic" lengthAdjust="spacingAndGlyphs" textLength="106" x="58.5" y="156.4292">isEmpty(): boolean</text><ellipse cx="49.5" cy="166.9258" fill="#84BE84" rx="3" ry="3" style="stroke: #038048; stroke-width: 1.0;"/><text fill="#000000" font-family="sans-serif" font-size="11" font-style="italic" lengthAdjust="spacingAndGlyphs" textLength="125" x="58.5" y="169.2339">isReadOnly(): boolean</text><ellipse cx="49.5" cy="179.7305" fill="#84BE84" rx="3" ry="3" style="stroke: #038048; stroke-width: 1.0;"/><text fill="#000000" font-family="sans-serif" font-size="11" font-style="italic" lengthAdjust="spacingAndGlyphs" textLength="185" x="58.5" y="182.0386">setReadOnly(boolean: readOnly)</text><ellipse cx="49.5" cy="192.5352" fill="#84BE84" rx="3" ry="3" style="stroke: #038048; stroke-width: 1.0;"/><text fill="#000000" font-family="sans-serif" font-size="11" font-style="italic" lengthAdjust="spacingAndGlyphs" textLength="207" x="58.5" y="194.8433">isRequiredIndicatorVisible(): boolean</text><ellipse cx="49.5" cy="205.3398" fill="#84BE84" rx="3" ry="3" style="stroke: #038048; stroke-width: 1.0;"/><text fill="#000000" font-family="sans-serif" font-size="11" font-style="italic" lengthAdjust="spacingAndGlyphs" textLength="349" x="58.5" y="207.6479">setRequiredIndicatorVisible(requiredIndicatorVisible: boolean)</text><!--class ValueChangeEvent--><rect fill="#FEFECE" filter="url(#f1u24nosumcwk9)" height="32" id="ValueChangeEvent" style="stroke: #A80036; stroke-width: 1.5;" width="150" x="50" y="274"/><ellipse cx="65" cy="290" fill="#ADD1B2" rx="11" ry="11" style="stroke: #A80036; stroke-width: 1.0;"/><path d="M67.3438,285.6719 L67.5156,285.75 C67.7344,285.4375 67.9375,285.3438 68.2344,285.3438 C68.5313,285.3438 68.8125,285.4844 68.9688,285.75 C69.0625,285.9063 69.0781,286.0313 69.0781,286.4688 L69.0781,287.8906 C69.0781,288.3125 69.0469,288.5 68.9375,288.6563 C68.7656,288.875 68.5,289.0156 68.2344,289.0156 C68.0156,289.0156 67.7813,288.9063 67.6406,288.7656 C67.5,288.6406 67.4688,288.5156 67.4063,288.1094 C67.3125,287.7031 67.1406,287.4844 66.6563,287.2031 C66.1875,286.9531 65.5781,286.7969 65,286.7969 C63.2656,286.7969 62.0156,288.1094 62.0156,289.8906 L62.0156,290.9844 C62.0156,292.6875 63.3125,293.7813 65.3594,293.7813 C66.125,293.7813 66.8125,293.6563 67.2344,293.3906 C67.4219,293.2969 67.4219,293.2969 67.875,292.8125 C68.0625,292.625 68.2656,292.5469 68.4844,292.5469 C68.9531,292.5469 69.3438,292.9375 69.3438,293.3906 C69.3438,293.7813 69.0156,294.2344 68.4375,294.6406 C67.6875,295.1875 66.5313,295.4844 65.3125,295.4844 C62.4219,295.4844 60.3125,293.5938 60.3125,291.0156 L60.3125,289.8906 C60.3125,287.1719 62.3125,285.0938 64.9375,285.0938 C65.8125,285.0938 66.4063,285.2344 67.3438,285.6719 Z "/><text fill="#000000" font-family="sans-serif" font-size="12" lengthAdjust="spacingAndGlyphs" textLength="118" x="79" y="294.1543">ValueChangeEvent</text><!--class ValueChangeListener--><rect fill="#FEFECE" filter="url(#f1u24nosumcwk9)" height="32" id="ValueChangeListener" style="stroke: #A80036; stroke-width: 1.5;" width="165" x="235.5" y="274"/><ellipse cx="250.5" cy="290" fill="#B4A7E5" rx="11" ry="11" style="stroke: #A80036; stroke-width: 1.0;"/><path d="M251.4531,286.7813 L251.4531,293.2969 L253.1719,293.2969 C253.625,293.2969 253.7656,293.3281 253.9375,293.4531 C254.1719,293.625 254.2813,293.875 254.2813,294.1563 C254.2813,294.7188 253.9219,295 253.1719,295 L248.0313,295 C247.625,295 247.4219,294.9531 247.2656,294.8281 C247.0469,294.6719 246.9063,294.4063 246.9063,294.1563 C246.9063,293.8594 247.0625,293.5781 247.3125,293.4219 C247.4688,293.3125 247.5938,293.2969 248.0313,293.2969 L249.75,293.2969 L249.75,286.7813 L248.0313,286.7813 C247.6094,286.7813 247.4219,286.75 247.2656,286.6406 C247.0469,286.4688 246.9063,286.2188 246.9063,285.9375 C246.9063,285.6563 247.0625,285.3594 247.3125,285.2031 C247.4688,285.1094 247.5938,285.0938 248.0313,285.0938 L253.1719,285.0938 C253.625,285.0938 253.7656,285.125 253.9375,285.2344 C254.1719,285.4063 254.2813,285.6719 254.2813,285.9375 C254.2813,286.2344 254.1406,286.5156 253.875,286.6719 C253.75,286.75 253.5625,286.7813 253.1719,286.7813 Z "/><text fill="#000000" font-family="sans-serif" font-size="12" font-style="italic" lengthAdjust="spacingAndGlyphs" textLength="133" x="264.5" y="294.1543">ValueChangeListener</text><!--link HasValue to ValueChangeEvent--><path d="M166.42,226.87 C154.274,245.0886 142.853,262.2203 135.093,273.8608 " fill="none" id="HasValue-ValueChangeEvent" style="stroke: #A80036; stroke-width: 1.0;"/><ellipse cx="170.4702" cy="220.7943" fill="#FFFFFF" rx="8" ry="8" style="stroke: #A80036; stroke-width: 1.0;"/><line style="stroke: #A80036; stroke-width: 1.0;" x1="166.0324" x2="174.908" y1="227.4506" y2="214.138"/><line style="stroke: #A80036; stroke-width: 1.0;" x1="163.8139" x2="177.1265" y1="216.3565" y2="225.2321"/><!--link HasValue to ValueChangeListener--><path d="M280.43,227.133 C291.434,245.2532 301.772,262.2763 308.807,273.8608 " fill="none" id="HasValue-ValueChangeListener" style="stroke: #A80036; stroke-width: 1.0;"/><ellipse cx="276.6913" cy="220.976" fill="#FFFFFF" rx="8" ry="8" style="stroke: #A80036; stroke-width: 1.0;"/><line style="stroke: #A80036; stroke-width: 1.0;" x1="280.8436" x2="272.539" y1="227.814" y2="214.138"/><line style="stroke: #A80036; stroke-width: 1.0;" x1="269.8533" x2="283.5293" y1="225.1283" y2="216.8237"/><!--
@startuml
package "com.vaadin.data" {
 interface HasValue {
  {abstract} + addValueChangeListener(listener: ValueChangeListener<V>)
  {abstract} +   clear()
  {abstract} +   getValue(): V
  {abstract} +   setValue(value: V)
  {abstract} +   isEmpty(): boolean
  {abstract} +   isReadOnly(): boolean
  {abstract} +   setReadOnly(boolean: readOnly)
  {abstract} +   isRequiredIndicatorVisible(): boolean
  {abstract} +   setRequiredIndicatorVisible(requiredIndicatorVisible: boolean)
 }
 class ValueChangeEvent
 interface ValueChangeListener
}

HasValue +-down- ValueChangeEvent
HasValue +-down- ValueChangeListener

hide empty attributes
hide empty methods
@enduml

PlantUML version 1.2017.18beta8(Unknown compile time)
(GPL source distribution)
Java Runtime: Java(TM) SE Runtime Environment
JVM: Java HotSpot(TM) 64-Bit Server VM
Java Version: 1.7.0_25-b15
Operating System: Linux
Default Encoding: UTF-8
Language: en
Country: US
--></g></svg>