<?xml version="1.0" encoding="UTF-8" standalone="no"?><svg xmlns="http://www.w3.org/2000/svg" xmlns:xlink="http://www.w3.org/1999/xlink" contentScriptType="application/ecmascript" contentStyleType="text/css" height="303px" preserveAspectRatio="none" style="width:242px;height:303px;" version="1.1" viewBox="0 0 242 303" width="242px" zoomAndPan="magnify"><defs><filter height="300%" id="f1co43mrplev8f" width="300%" x="-1" y="-1"><feGaussianBlur result="blurOut" stdDeviation="2.0"/><feColorMatrix in="blurOut" result="blurOut2" type="matrix" values="0 0 0 0 0 0 0 0 0 0 0 0 0 0 0 0 0 0 .4 0"/><feOffset dx="4.0" dy="4.0" in="blurOut2" result="blurOut3"/><feBlend in="SourceGraphic" in2="blurOut3" mode="normal"/></filter></defs><g><!--cluster com.vaadin.ui--><polygon fill="#FFFFFF" filter="url(#f1co43mrplev8f)" points="22,24,136,24,143,46.2969,220,46.2969,220,291,22,291,22,24" style="stroke: #000000; stroke-width: 2.0;"/><line style="stroke: #000000; stroke-width: 2.0;" x1="22" x2="143" y1="46.2969" y2="46.2969"/><text fill="#000000" font-family="sans-serif" font-size="14" font-weight="bold" lengthAdjust="spacingAndGlyphs" textLength="108" x="26" y="38.9951">com.vaadin.ui</text><!--class Component--><rect fill="#FEFECE" filter="url(#f1co43mrplev8f)" height="32" id="Component" style="stroke: #A80036; stroke-width: 1.5;" width="104" x="69" y="59"/><ellipse cx="84" cy="75" fill="#B4A7E5" rx="11" ry="11" style="stroke: #A80036; stroke-width: 1.0;"/><path d="M84.9531,71.7813 L84.9531,78.2969 L86.6719,78.2969 C87.125,78.2969 87.2656,78.3281 87.4375,78.4531 C87.6719,78.625 87.7813,78.875 87.7813,79.1563 C87.7813,79.7188 87.4219,80 86.6719,80 L81.5313,80 C81.125,80 80.9219,79.9531 80.7656,79.8281 C80.5469,79.6719 80.4063,79.4063 80.4063,79.1563 C80.4063,78.8594 80.5625,78.5781 80.8125,78.4219 C80.9688,78.3125 81.0938,78.2969 81.5313,78.2969 L83.25,78.2969 L83.25,71.7813 L81.5313,71.7813 C81.1094,71.7813 80.9219,71.75 80.7656,71.6406 C80.5469,71.4688 80.4063,71.2188 80.4063,70.9375 C80.4063,70.6563 80.5625,70.3594 80.8125,70.2031 C80.9688,70.1094 81.0938,70.0938 81.5313,70.0938 L86.6719,70.0938 C87.125,70.0938 87.2656,70.125 87.4375,70.2344 C87.6719,70.4063 87.7813,70.6719 87.7813,70.9375 C87.7813,71.2344 87.6406,71.5156 87.375,71.6719 C87.25,71.75 87.0625,71.7813 86.6719,71.7813 Z "/><text fill="#000000" font-family="sans-serif" font-size="12" font-style="italic" lengthAdjust="spacingAndGlyphs" textLength="72" x="98" y="79.1543">Component</text><!--class ComponentContainer--><rect fill="#FEFECE" filter="url(#f1co43mrplev8f)" height="32" id="ComponentContainer" style="stroke: #A80036; stroke-width: 1.5;" width="165" x="38.5" y="151"/><ellipse cx="53.5" cy="167" fill="#B4A7E5" rx="11" ry="11" style="stroke: #A80036; stroke-width: 1.0;"/><path d="M54.4531,163.7813 L54.4531,170.2969 L56.1719,170.2969 C56.625,170.2969 56.7656,170.3281 56.9375,170.4531 C57.1719,170.625 57.2813,170.875 57.2813,171.1563 C57.2813,171.7188 56.9219,172 56.1719,172 L51.0313,172 C50.625,172 50.4219,171.9531 50.2656,171.8281 C50.0469,171.6719 49.9063,171.4063 49.9063,171.1563 C49.9063,170.8594 50.0625,170.5781 50.3125,170.4219 C50.4688,170.3125 50.5938,170.2969 51.0313,170.2969 L52.75,170.2969 L52.75,163.7813 L51.0313,163.7813 C50.6094,163.7813 50.4219,163.75 50.2656,163.6406 C50.0469,163.4688 49.9063,163.2188 49.9063,162.9375 C49.9063,162.6563 50.0625,162.3594 50.3125,162.2031 C50.4688,162.1094 50.5938,162.0938 51.0313,162.0938 L56.1719,162.0938 C56.625,162.0938 56.7656,162.125 56.9375,162.2344 C57.1719,162.4063 57.2813,162.6719 57.2813,162.9375 C57.2813,163.2344 57.1406,163.5156 56.875,163.6719 C56.75,163.75 56.5625,163.7813 56.1719,163.7813 Z "/><text fill="#000000" font-family="sans-serif" font-size="12" font-style="italic" lengthAdjust="spacingAndGlyphs" textLength="133" x="67.5" y="171.1543">ComponentContainer</text><!--class Layout--><rect fill="#FEFECE" filter="url(#f1co43mrplev8f)" height="32" id="Layout" style="stroke: #A80036; stroke-width: 1.5;" width="75" x="83.5" y="243"/><ellipse cx="98.5" cy="259" fill="#B4A7E5" rx="11" ry="11" style="stroke: #A80036; stroke-width: 1.0;"/><path d="M99.4531,255.7813 L99.4531,262.2969 L101.1719,262.2969 C101.625,262.2969 101.7656,262.3281 101.9375,262.4531 C102.1719,262.625 102.2813,262.875 102.2813,263.1563 C102.2813,263.7188 101.9219,264 101.1719,264 L96.0313,264 C95.625,264 95.4219,263.9531 95.2656,263.8281 C95.0469,263.6719 94.9063,263.4063 94.9063,263.1563 C94.9063,262.8594 95.0625,262.5781 95.3125,262.4219 C95.4688,262.3125 95.5938,262.2969 96.0313,262.2969 L97.75,262.2969 L97.75,255.7813 L96.0313,255.7813 C95.6094,255.7813 95.4219,255.75 95.2656,255.6406 C95.0469,255.4688 94.9063,255.2188 94.9063,254.9375 C94.9063,254.6563 95.0625,254.3594 95.3125,254.2031 C95.4688,254.1094 95.5938,254.0938 96.0313,254.0938 L101.1719,254.0938 C101.625,254.0938 101.7656,254.125 101.9375,254.2344 C102.1719,254.4063 102.2813,254.6719 102.2813,254.9375 C102.2813,255.2344 102.1406,255.5156 101.875,255.6719 C101.75,255.75 101.5625,255.7813 101.1719,255.7813 Z "/><text fill="#000000" font-family="sans-serif" font-size="12" font-style="italic" lengthAdjust="spacingAndGlyphs" textLength="43" x="112.5" y="263.1543">Layout</text><!--link ComponentContainer to Layout--><path d="M121,203.615 C121,217.3102 121,232.2196 121,242.9582 " fill="none" id="ComponentContainer-Layout" style="stroke: #A80036; stroke-width: 1.0; stroke-dasharray: 7.0,7.0;"/><polygon fill="none" points="114,203.267,121,183.267,128,203.267,114,203.267" style="stroke: #A80036; stroke-width: 1.0;"/><!--link Component to ComponentContainer--><path d="M121,111.615 C121,125.31 121,140.22 121,150.958 " fill="none" id="Component-ComponentContainer" style="stroke: #A80036; stroke-width: 1.0; stroke-dasharray: 7.0,7.0;"/><polygon fill="none" points="114,111.267,121,91.267,128,111.267,114,111.267" style="stroke: #A80036; stroke-width: 1.0;"/><!--
@startuml
package com.vaadin.ui {
 interface Component
 interface ComponentContainer
 interface Layout
}

Layout .up.|> ComponentContainer
ComponentContainer .up.|> Component

hide empty attributes
hide empty methods
@enduml

PlantUML version 1.2017.16(Sun Sep 03 10:53:37 UTC 2017)
(GPL source distribution)
Java Runtime: Java(TM) SE Runtime Environment
JVM: Java HotSpot(TM) 64-Bit Server VM
Java Version: 1.7.0_25-b15
Operating System: Linux
Default Encoding: UTF-8
Language: en
Country: US
--></g></svg>