<?xml version="1.0" encoding="UTF-8" standalone="no"?><svg xmlns="http://www.w3.org/2000/svg" xmlns:xlink="http://www.w3.org/1999/xlink" contentScriptType="application/ecmascript" contentStyleType="text/css" preserveAspectRatio="true" version="1.1" viewBox="0 0 539 235" zoomAndPan="magnify"><defs><filter height="300%" id="f1fsfja6cceez7" width="300%" x="-1" y="-1"><feGaussianBlur result="blurOut" stdDeviation="2.0"/><feColorMatrix in="blurOut" result="blurOut2" type="matrix" values="0 0 0 0 0 0 0 0 0 0 0 0 0 0 0 0 0 0 .4 0"/><feOffset dx="4.0" dy="4.0" in="blurOut2" result="blurOut3"/><feBlend in="SourceGraphic" in2="blurOut3" mode="normal"/></filter></defs><g><!--class Observer--><rect fill="#FEFECE" filter="url(#f1fsfja6cceez7)" height="52.8047" id="Observer" style="stroke: #A80036; stroke-width: 1.5;" width="86" x="210.5" y="20.5"/><ellipse cx="225.5" cy="36.5" fill="#B4A7E5" rx="11" ry="11" style="stroke: #A80036; stroke-width: 1.0;"/><path d="M226.4531,33.2813 L226.4531,39.7969 L228.1719,39.7969 C228.625,39.7969 228.7656,39.8281 228.9375,39.9531 C229.1719,40.125 229.2813,40.375 229.2813,40.6563 C229.2813,41.2188 228.9219,41.5 228.1719,41.5 L223.0313,41.5 C222.625,41.5 222.4219,41.4531 222.2656,41.3281 C222.0469,41.1719 221.9063,40.9063 221.9063,40.6563 C221.9063,40.3594 222.0625,40.0781 222.3125,39.9219 C222.4688,39.8125 222.5938,39.7969 223.0313,39.7969 L224.75,39.7969 L224.75,33.2813 L223.0313,33.2813 C222.6094,33.2813 222.4219,33.25 222.2656,33.1406 C222.0469,32.9688 221.9063,32.7188 221.9063,32.4375 C221.9063,32.1563 222.0625,31.8594 222.3125,31.7031 C222.4688,31.6094 222.5938,31.5938 223.0313,31.5938 L228.1719,31.5938 C228.625,31.5938 228.7656,31.625 228.9375,31.7344 C229.1719,31.9063 229.2813,32.1719 229.2813,32.4375 C229.2813,32.7344 229.1406,33.0156 228.875,33.1719 C228.75,33.25 228.5625,33.2813 228.1719,33.2813 Z "/><text fill="#000000" font-family="sans-serif" font-size="12" font-style="italic" lengthAdjust="spacingAndGlyphs" textLength="54" x="239.5" y="40.6543">Observer</text><line style="stroke: #A80036; stroke-width: 1.5;" x1="211.5" x2="295.5" y1="52.5" y2="52.5"/><ellipse cx="221.5" cy="64.4023" fill="#84BE84" rx="3" ry="3" style="stroke: #038048; stroke-width: 1.0;"/><text fill="#000000" font-family="sans-serif" font-size="11" font-style="italic" lengthAdjust="spacingAndGlyphs" textLength="54" x="230.5" y="66.7104">onEvent()</text><!--class Subject--><rect fill="#FEFECE" filter="url(#f1fsfja6cceez7)" height="78.4141" id="Subject" style="stroke: #A80036; stroke-width: 1.5;" width="169" x="6" y="8"/><ellipse cx="62.75" cy="24" fill="#B4A7E5" rx="11" ry="11" style="stroke: #A80036; stroke-width: 1.0;"/><path d="M63.7031,20.7813 L63.7031,27.2969 L65.4219,27.2969 C65.875,27.2969 66.0156,27.3281 66.1875,27.4531 C66.4219,27.625 66.5313,27.875 66.5313,28.1563 C66.5313,28.7188 66.1719,29 65.4219,29 L60.2813,29 C59.875,29 59.6719,28.9531 59.5156,28.8281 C59.2969,28.6719 59.1563,28.4063 59.1563,28.1563 C59.1563,27.8594 59.3125,27.5781 59.5625,27.4219 C59.7188,27.3125 59.8438,27.2969 60.2813,27.2969 L62,27.2969 L62,20.7813 L60.2813,20.7813 C59.8594,20.7813 59.6719,20.75 59.5156,20.6406 C59.2969,20.4688 59.1563,20.2188 59.1563,19.9375 C59.1563,19.6563 59.3125,19.3594 59.5625,19.2031 C59.7188,19.1094 59.8438,19.0938 60.2813,19.0938 L65.4219,19.0938 C65.875,19.0938 66.0156,19.125 66.1875,19.2344 C66.4219,19.4063 66.5313,19.6719 66.5313,19.9375 C66.5313,20.2344 66.3906,20.5156 66.125,20.6719 C66,20.75 65.8125,20.7813 65.4219,20.7813 Z "/><text fill="#000000" font-family="sans-serif" font-size="12" font-style="italic" lengthAdjust="spacingAndGlyphs" textLength="47" x="83.25" y="28.1543">Subject</text><line style="stroke: #A80036; stroke-width: 1.5;" x1="7" x2="174" y1="40" y2="40"/><ellipse cx="17" cy="51.9023" fill="#84BE84" rx="3" ry="3" style="stroke: #038048; stroke-width: 1.0;"/><text fill="#000000" font-family="sans-serif" font-size="11" font-style="italic" lengthAdjust="spacingAndGlyphs" textLength="129" x="26" y="54.2104">register(obs:Observer)</text><ellipse cx="17" cy="64.707" fill="#84BE84" rx="3" ry="3" style="stroke: #038048; stroke-width: 1.0;"/><text fill="#000000" font-family="sans-serif" font-size="11" font-style="italic" lengthAdjust="spacingAndGlyphs" textLength="143" x="26" y="67.0151">unregister(obs:Observer)</text><ellipse cx="17" cy="77.5117" fill="#84BE84" rx="3" ry="3" style="stroke: #038048; stroke-width: 1.0;"/><text fill="#000000" font-family="sans-serif" font-size="11" font-style="italic" lengthAdjust="spacingAndGlyphs" textLength="59" x="26" y="79.8198">fireEvent()</text><!--class ConcreteSubject--><rect fill="#FEFECE" filter="url(#f1fsfja6cceez7)" height="78.4141" id="ConcreteSubject" style="stroke: #A80036; stroke-width: 1.5;" width="171" x="86" y="146"/><ellipse cx="116.75" cy="162" fill="#ADD1B2" rx="11" ry="11" style="stroke: #A80036; stroke-width: 1.0;"/><path d="M119.0938,157.6719 L119.2656,157.75 C119.4844,157.4375 119.6875,157.3438 119.9844,157.3438 C120.2813,157.3438 120.5625,157.4844 120.7188,157.75 C120.8125,157.9063 120.8281,158.0313 120.8281,158.4688 L120.8281,159.8906 C120.8281,160.3125 120.7969,160.5 120.6875,160.6563 C120.5156,160.875 120.25,161.0156 119.9844,161.0156 C119.7656,161.0156 119.5313,160.9063 119.3906,160.7656 C119.25,160.6406 119.2188,160.5156 119.1563,160.1094 C119.0625,159.7031 118.8906,159.4844 118.4063,159.2031 C117.9375,158.9531 117.3281,158.7969 116.75,158.7969 C115.0156,158.7969 113.7656,160.1094 113.7656,161.8906 L113.7656,162.9844 C113.7656,164.6875 115.0625,165.7813 117.1094,165.7813 C117.875,165.7813 118.5625,165.6563 118.9844,165.3906 C119.1719,165.2969 119.1719,165.2969 119.625,164.8125 C119.8125,164.625 120.0156,164.5469 120.2344,164.5469 C120.7031,164.5469 121.0938,164.9375 121.0938,165.3906 C121.0938,165.7813 120.7656,166.2344 120.1875,166.6406 C119.4375,167.1875 118.2813,167.4844 117.0625,167.4844 C114.1719,167.4844 112.0625,165.5938 112.0625,163.0156 L112.0625,161.8906 C112.0625,159.1719 114.0625,157.0938 116.6875,157.0938 C117.5625,157.0938 118.1563,157.2344 119.0938,157.6719 Z "/><text fill="#000000" font-family="sans-serif" font-size="12" lengthAdjust="spacingAndGlyphs" textLength="104" x="134.25" y="166.1543">ConcreteSubject</text><line style="stroke: #A80036; stroke-width: 1.5;" x1="87" x2="256" y1="178" y2="178"/><ellipse cx="97" cy="189.9023" fill="#84BE84" rx="3" ry="3" style="stroke: #038048; stroke-width: 1.0;"/><text fill="#000000" font-family="sans-serif" font-size="11" lengthAdjust="spacingAndGlyphs" textLength="131" x="106" y="192.2104">register(obs:Observer)</text><ellipse cx="97" cy="202.707" fill="#84BE84" rx="3" ry="3" style="stroke: #038048; stroke-width: 1.0;"/><text fill="#000000" font-family="sans-serif" font-size="11" lengthAdjust="spacingAndGlyphs" textLength="145" x="106" y="205.0151">unregister(obs:Observer)</text><ellipse cx="97" cy="215.5117" fill="#84BE84" rx="3" ry="3" style="stroke: #038048; stroke-width: 1.0;"/><text fill="#000000" font-family="sans-serif" font-size="11" lengthAdjust="spacingAndGlyphs" textLength="58" x="106" y="217.8198">fireEvent()</text><polygon fill="#FBFB77" filter="url(#f1fsfja6cceez7)" points="292,165,292,205.2656,517,205.2656,517,175,507,165,292,165" style="stroke: #A80036; stroke-width: 1.0;"/><polygon fill="#FBFB77" points="292,165,292,181,257.055,185,292,189,292,205.2656,517,205.2656,517,175,507,165,292,165" style="stroke: #A80036; stroke-width: 1.0;"/><line style="stroke: #A80036; stroke-width: 1.0;" x1="507" x2="507" y1="165" y2="175"/><line style="stroke: #A80036; stroke-width: 1.0;" x1="517" x2="507" y1="175" y2="175"/><text fill="#000000" font-family="sans-serif" font-size="13" font-style="italic" lengthAdjust="spacingAndGlyphs" textLength="67" x="298" y="182.0669">fireEvent()</text><text fill="#000000" font-family="sans-serif" font-size="13" lengthAdjust="spacingAndGlyphs" textLength="133" x="369" y="182.0669">loops over observers</text><text fill="#000000" font-family="sans-serif" font-size="13" lengthAdjust="spacingAndGlyphs" textLength="56" x="298" y="197.1997">and calls</text><text fill="#000000" font-family="sans-serif" font-size="13" font-style="italic" lengthAdjust="spacingAndGlyphs" textLength="63" x="358" y="197.1997">onEvent()</text><!--link Subject to Observer--><path d="M175.184,47 C185.17,47 195.156,47 205.143,47 " fill="none" id="Subject-Observer" style="stroke: #A80036; stroke-width: 1.0; stroke-dasharray: 7.0,7.0;"/><polygon fill="#A80036" points="210.365,47,201.365,43,205.365,47,201.365,51,210.365,47" style="stroke: #A80036; stroke-width: 1.0;"/><!--link Subject to ConcreteSubject--><path d="M123.579,103.539 C131.987,117.657 140.837,132.5164 148.612,145.5703 " fill="none" id="Subject-ConcreteSubject" style="stroke: #A80036; stroke-width: 1.0; stroke-dasharray: 7.0,7.0;"/><polygon fill="none" points="117.499,107.011,113.279,86.246,129.527,99.847,117.499,107.011" style="stroke: #A80036; stroke-width: 1.0;"/><!--link Observer to ConcreteSubject--><path d="M235.41,78.002 C223.352,98.001 207.4,124.4585 194.45,145.937 " fill="none" id="Observer-ConcreteSubject" style="stroke: #A80036; stroke-width: 1.0;"/><polygon fill="#A80036" points="238.076,73.581,230.0034,79.2231,235.4943,77.8629,236.8544,83.3538,238.076,73.581" style="stroke: #A80036; stroke-width: 1.0;"/><text fill="#000000" font-family="sans-serif" font-size="13" lengthAdjust="spacingAndGlyphs" textLength="7" x="226.6998" y="93.5671">*</text><!--
@startuml
interface Observer {
 + {abstract} onEvent()
}
interface Subject {
 + {abstract} register(obs:Observer)
 + {abstract} unregister(obs:Observer)
 + {abstract} fireEvent()
}
class ConcreteSubject {
 + register(obs:Observer)
 + unregister(obs:Observer)
 + fireEvent()
}

Subject .right.> Observer
ConcreteSubject .up.|> Subject
ConcreteSubject -up-> "*" Observer

note right of ConcreteSubject: <i>fireEvent()</i> loops over observers\nand calls <i>onEvent()</i>


hide empty attributes
hide empty methods
@enduml

PlantUML version 1.2017.16(Sun Sep 03 10:53:37 UTC 2017)
(GPL source distribution)
Java Runtime: Java(TM) SE Runtime Environment
JVM: Java HotSpot(TM) 64-Bit Server VM
Java Version: 1.7.0_25-b15
Operating System: Linux
Default Encoding: UTF-8
Language: en
Country: US
--></g></svg>