<?xml version="1.0" encoding="UTF-8" standalone="no"?>
<svg xmlns="http://www.w3.org/2000/svg" xmlns:xlink="http://www.w3.org/1999/xlink" contentScriptType="application/ecmascript" contentStyleType="text/css" height="685px" preserveAspectRatio="none" style="width:1035px;height:685px;" version="1.1" viewBox="0 0 1035 685" width="1035px" zoomAndPan="magnify"><defs><filter height="300%" id="fwhd34i3gbiif" width="300%" x="-1" y="-1"><feGaussianBlur result="blurOut" stdDeviation="2.0"/><feColorMatrix in="blurOut" result="blurOut2" type="matrix" values="0 0 0 0 0 0 0 0 0 0 0 0 0 0 0 0 0 0 .4 0"/><feOffset dx="4.0" dy="4.0" in="blurOut2" result="blurOut3"/><feBlend in="SourceGraphic" in2="blurOut3" mode="normal"/></filter></defs><g><!--cluster com.vaadin.flow.data.binder--><polygon fill="#FFFFFF" filter="url(#fwhd34i3gbiif)" points="22,24,251,24,258,46.2969,1013,46.2969,1013,673,22,673,22,24" style="stroke: #000000; stroke-width: 1.5;"/><line style="stroke: #000000; stroke-width: 1.5;" x1="22" x2="258" y1="46.2969" y2="46.2969"/><text fill="#000000" font-family="sans-serif" font-size="14" font-weight="bold" lengthAdjust="spacingAndGlyphs" textLength="223" x="26" y="38.9951">com.vaadin.flow.data.binder</text><!--class BindingValidationStatusHandler--><rect fill="#FEFECE" filter="url(#fwhd34i3gbiif)" height="52.8047" id="BindingValidationStatusHandler" style="stroke: #A80036; stroke-width: 1.5;" width="357" x="199.5" y="559.5"/><ellipse cx="275.25" cy="575.5" fill="#B4A7E5" rx="11" ry="11" style="stroke: #A80036; stroke-width: 1.0;"/><path d="M276.2031,572.2813 L276.2031,578.7969 L277.9219,578.7969 C278.375,578.7969 278.5156,578.8281 278.6875,578.9531 C278.9219,579.125 279.0313,579.375 279.0313,579.6563 C279.0313,580.2188 278.6719,580.5 277.9219,580.5 L272.7813,580.5 C272.375,580.5 272.1719,580.4531 272.0156,580.3281 C271.7969,580.1719 271.6563,579.9063 271.6563,579.6563 C271.6563,579.3594 271.8125,579.0781 272.0625,578.9219 C272.2188,578.8125 272.3438,578.7969 272.7813,578.7969 L274.5,578.7969 L274.5,572.2813 L272.7813,572.2813 C272.3594,572.2813 272.1719,572.25 272.0156,572.1406 C271.7969,571.9688 271.6563,571.7188 271.6563,571.4375 C271.6563,571.1563 271.8125,570.8594 272.0625,570.7031 C272.2188,570.6094 272.3438,570.5938 272.7813,570.5938 L277.9219,570.5938 C278.375,570.5938 278.5156,570.625 278.6875,570.7344 C278.9219,570.9063 279.0313,571.1719 279.0313,571.4375 C279.0313,571.7344 278.8906,572.0156 278.625,572.1719 C278.5,572.25 278.3125,572.2813 277.9219,572.2813 Z "/><text fill="#000000" font-family="sans-serif" font-size="12" font-style="italic" lengthAdjust="spacingAndGlyphs" textLength="197" x="295.75" y="579.6543">BindingValidationStatusHandler</text><line style="stroke: #A80036; stroke-width: 1.5;" x1="200.5" x2="555.5" y1="591.5" y2="591.5"/><ellipse cx="210.5" cy="603.4023" fill="#84BE84" rx="3" ry="3" style="stroke: #038048; stroke-width: 1.0;"/><text fill="#000000" font-family="sans-serif" font-size="11" font-style="italic" lengthAdjust="spacingAndGlyphs" textLength="331" x="219.5" y="605.7104"> statusChange(statusChange: BindingValidationStatus&lt;?&gt;)</text><!--class BindingValidationStatus--><rect fill="#FEFECE" filter="url(#fwhd34i3gbiif)" height="142.4375" id="BindingValidationStatus" style="stroke: #A80036; stroke-width: 1.5;" width="405" x="591.5" y="515"/><ellipse cx="709.75" cy="531" fill="#ADD1B2" rx="11" ry="11" style="stroke: #A80036; stroke-width: 1.0;"/><path d="M712.0938,526.6719 L712.2656,526.75 C712.4844,526.4375 712.6875,526.3438 712.9844,526.3438 C713.2813,526.3438 713.5625,526.4844 713.7188,526.75 C713.8125,526.9063 713.8281,527.0313 713.8281,527.4688 L713.8281,528.8906 C713.8281,529.3125 713.7969,529.5 713.6875,529.6563 C713.5156,529.875 713.25,530.0156 712.9844,530.0156 C712.7656,530.0156 712.5313,529.9063 712.3906,529.7656 C712.25,529.6406 712.2188,529.5156 712.1563,529.1094 C712.0625,528.7031 711.8906,528.4844 711.4063,528.2031 C710.9375,527.9531 710.3281,527.7969 709.75,527.7969 C708.0156,527.7969 706.7656,529.1094 706.7656,530.8906 L706.7656,531.9844 C706.7656,533.6875 708.0625,534.7813 710.1094,534.7813 C710.875,534.7813 711.5625,534.6563 711.9844,534.3906 C712.1719,534.2969 712.1719,534.2969 712.625,533.8125 C712.8125,533.625 713.0156,533.5469 713.2344,533.5469 C713.7031,533.5469 714.0938,533.9375 714.0938,534.3906 C714.0938,534.7813 713.7656,535.2344 713.1875,535.6406 C712.4375,536.1875 711.2813,536.4844 710.0625,536.4844 C707.1719,536.4844 705.0625,534.5938 705.0625,532.0156 L705.0625,530.8906 C705.0625,528.1719 707.0625,526.0938 709.6875,526.0938 C710.5625,526.0938 711.1563,526.2344 712.0938,526.6719 Z "/><text fill="#000000" font-family="sans-serif" font-size="12" lengthAdjust="spacingAndGlyphs" textLength="149" x="730.25" y="535.1543">BindingValidationStatus</text><rect fill="#FFFFFF" height="15.9688" style="stroke: #000000; stroke-width: 1.0; stroke-dasharray: 2.0,2.0;" width="9" x="990.5" y="512"/><text fill="#000000" font-family="sans-serif" font-size="12" font-style="italic" lengthAdjust="spacingAndGlyphs" textLength="7" x="991.5" y="524.1387">T</text><line style="stroke: #A80036; stroke-width: 1.5;" x1="592.5" x2="995.5" y1="547" y2="547"/><ellipse cx="602.5" cy="558.9023" fill="#84BE84" rx="3" ry="3" style="stroke: #038048; stroke-width: 1.0;"/><text fill="#000000" font-family="sans-serif" font-size="11" lengthAdjust="spacingAndGlyphs" textLength="379" x="611.5" y="561.2104">BindingValidationStatus(result: Result&lt;T&gt;, source: Binding&lt;?, T&gt;)</text><ellipse cx="602.5" cy="571.707" fill="#84BE84" rx="3" ry="3" style="stroke: #038048; stroke-width: 1.0;"/><text fill="#000000" font-family="sans-serif" font-size="11" lengthAdjust="spacingAndGlyphs" textLength="157" x="611.5" y="574.0151">getBinding(): Binding&lt;?, T&gt;</text><ellipse cx="602.5" cy="584.5117" fill="#84BE84" rx="3" ry="3" style="stroke: #038048; stroke-width: 1.0;"/><text fill="#000000" font-family="sans-serif" font-size="11" lengthAdjust="spacingAndGlyphs" textLength="151" x="611.5" y="586.8198">getField(): HasValue&lt;?, ?&gt;</text><ellipse cx="602.5" cy="597.3164" fill="#84BE84" rx="3" ry="3" style="stroke: #038048; stroke-width: 1.0;"/><text fill="#000000" font-family="sans-serif" font-size="11" lengthAdjust="spacingAndGlyphs" textLength="184" x="611.5" y="599.6245">getMessage(): Optional&lt;String&gt;</text><ellipse cx="602.5" cy="610.1211" fill="#84BE84" rx="3" ry="3" style="stroke: #038048; stroke-width: 1.0;"/><text fill="#000000" font-family="sans-serif" font-size="11" lengthAdjust="spacingAndGlyphs" textLength="224" x="611.5" y="612.4292">getResult(): Optional&lt;ValidationResult&gt;</text><ellipse cx="602.5" cy="622.9258" fill="#84BE84" rx="3" ry="3" style="stroke: #038048; stroke-width: 1.0;"/><text fill="#000000" font-family="sans-serif" font-size="11" lengthAdjust="spacingAndGlyphs" textLength="108" x="611.5" y="625.2339">getStatus(): Status</text><ellipse cx="602.5" cy="635.7305" fill="#84BE84" rx="3" ry="3" style="stroke: #038048; stroke-width: 1.0;"/><text fill="#000000" font-family="sans-serif" font-size="11" lengthAdjust="spacingAndGlyphs" textLength="259" x="611.5" y="638.0386">getValidationResults(): List&lt;ValidationResult&gt;</text><ellipse cx="602.5" cy="648.5352" fill="#84BE84" rx="3" ry="3" style="stroke: #038048; stroke-width: 1.0;"/><text fill="#000000" font-family="sans-serif" font-size="11" lengthAdjust="spacingAndGlyphs" textLength="100" x="611.5" y="650.8433">isError(): boolean</text><!--class Binder--><rect fill="#FEFECE" filter="url(#fwhd34i3gbiif)" height="193.6563" id="Binder" style="stroke: #A80036; stroke-width: 1.5;" width="406" x="351" y="59"/><ellipse cx="523.75" cy="75" fill="#ADD1B2" rx="11" ry="11" style="stroke: #A80036; stroke-width: 1.0;"/><path d="M526.0938,70.6719 L526.2656,70.75 C526.4844,70.4375 526.6875,70.3438 526.9844,70.3438 C527.2813,70.3438 527.5625,70.4844 527.7188,70.75 C527.8125,70.9063 527.8281,71.0313 527.8281,71.4688 L527.8281,72.8906 C527.8281,73.3125 527.7969,73.5 527.6875,73.6563 C527.5156,73.875 527.25,74.0156 526.9844,74.0156 C526.7656,74.0156 526.5313,73.9063 526.3906,73.7656 C526.25,73.6406 526.2188,73.5156 526.1563,73.1094 C526.0625,72.7031 525.8906,72.4844 525.4063,72.2031 C524.9375,71.9531 524.3281,71.7969 523.75,71.7969 C522.0156,71.7969 520.7656,73.1094 520.7656,74.8906 L520.7656,75.9844 C520.7656,77.6875 522.0625,78.7813 524.1094,78.7813 C524.875,78.7813 525.5625,78.6563 525.9844,78.3906 C526.1719,78.2969 526.1719,78.2969 526.625,77.8125 C526.8125,77.625 527.0156,77.5469 527.2344,77.5469 C527.7031,77.5469 528.0938,77.9375 528.0938,78.3906 C528.0938,78.7813 527.7656,79.2344 527.1875,79.6406 C526.4375,80.1875 525.2813,80.4844 524.0625,80.4844 C521.1719,80.4844 519.0625,78.5938 519.0625,76.0156 L519.0625,74.8906 C519.0625,72.1719 521.0625,70.0938 523.6875,70.0938 C524.5625,70.0938 525.1563,70.2344 526.0938,70.6719 Z "/><text fill="#000000" font-family="sans-serif" font-size="12" lengthAdjust="spacingAndGlyphs" textLength="40" x="544.25" y="79.1543">Binder</text><rect fill="#FFFFFF" height="15.9688" style="stroke: #000000; stroke-width: 1.0; stroke-dasharray: 2.0,2.0;" width="10" x="750" y="56"/><text fill="#000000" font-family="sans-serif" font-size="12" font-style="italic" lengthAdjust="spacingAndGlyphs" textLength="8" x="751" y="68.1387">B</text><line style="stroke: #A80036; stroke-width: 1.5;" x1="352" x2="756" y1="91" y2="91"/><ellipse cx="362" cy="102.9023" fill="#84BE84" rx="3" ry="3" style="stroke: #038048; stroke-width: 1.0;"/><text fill="#000000" font-family="sans-serif" font-size="11" lengthAdjust="spacingAndGlyphs" textLength="45" x="371" y="105.2104">Binder()</text><ellipse cx="362" cy="115.707" fill="#84BE84" rx="3" ry="3" style="stroke: #038048; stroke-width: 1.0;"/><text fill="#000000" font-family="sans-serif" font-size="11" lengthAdjust="spacingAndGlyphs" textLength="111" x="371" y="118.0151">Binder(clazz: Class)</text><ellipse cx="362" cy="128.5117" fill="#84BE84" rx="3" ry="3" style="stroke: #038048; stroke-width: 1.0;"/><text fill="#000000" font-family="sans-serif" font-size="11" lengthAdjust="spacingAndGlyphs" textLength="299" x="371" y="130.8198">Binder(clazz: Class, scanNestedDefinitions: boolean)</text><ellipse cx="362" cy="141.3164" fill="#84BE84" rx="3" ry="3" style="stroke: #038048; stroke-width: 1.0;"/><text fill="#000000" font-family="sans-serif" font-size="11" lengthAdjust="spacingAndGlyphs" textLength="320" x="371" y="143.6245">&lt;V&gt; forField(field: HasValue&lt;V&gt;): BindingBuilder&lt;B, V&gt;</text><ellipse cx="362" cy="154.1211" fill="#84BE84" rx="3" ry="3" style="stroke: #038048; stroke-width: 1.0;"/><text fill="#000000" font-family="sans-serif" font-size="11" lengthAdjust="spacingAndGlyphs" textLength="380" x="371" y="156.4292">&lt;V&gt; forMemberField(field: HasValue&lt;?, V&gt;): BindingBuilder&lt;B, V&gt;</text><ellipse cx="362" cy="166.9258" fill="#84BE84" rx="3" ry="3" style="stroke: #038048; stroke-width: 1.0;"/><text fill="#000000" font-family="sans-serif" font-size="11" lengthAdjust="spacingAndGlyphs" textLength="71" x="371" y="169.2339">getBean(): B</text><ellipse cx="362" cy="179.7305" fill="#84BE84" rx="3" ry="3" style="stroke: #038048; stroke-width: 1.0;"/><text fill="#000000" font-family="sans-serif" font-size="11" lengthAdjust="spacingAndGlyphs" textLength="98" x="371" y="182.0386">isValid(): boolean</text><ellipse cx="362" cy="192.5352" fill="#84BE84" rx="3" ry="3" style="stroke: #038048; stroke-width: 1.0;"/><text fill="#000000" font-family="sans-serif" font-size="11" lengthAdjust="spacingAndGlyphs" textLength="107" x="371" y="194.8433">readBean(bean: B)</text><ellipse cx="362" cy="205.3398" fill="#84BE84" rx="3" ry="3" style="stroke: #038048; stroke-width: 1.0;"/><text fill="#000000" font-family="sans-serif" font-size="11" lengthAdjust="spacingAndGlyphs" textLength="80" x="371" y="207.6479">removeBean()</text><ellipse cx="362" cy="218.1445" fill="#84BE84" rx="3" ry="3" style="stroke: #038048; stroke-width: 1.0;"/><text fill="#000000" font-family="sans-serif" font-size="11" lengthAdjust="spacingAndGlyphs" textLength="99" x="371" y="220.4526">setBean(bean: B)</text><ellipse cx="362" cy="230.9492" fill="#84BE84" rx="3" ry="3" style="stroke: #038048; stroke-width: 1.0;"/><text fill="#000000" font-family="sans-serif" font-size="11" lengthAdjust="spacingAndGlyphs" textLength="109" x="371" y="233.2573">writeBean(bean: B)</text><ellipse cx="362" cy="243.7539" fill="#84BE84" rx="3" ry="3" style="stroke: #038048; stroke-width: 1.0;"/><text fill="#000000" font-family="sans-serif" font-size="11" lengthAdjust="spacingAndGlyphs" textLength="143" x="371" y="246.062">writeBeanIfValid(bean: B)</text><!--class Binding--><rect fill="#FEFECE" filter="url(#fwhd34i3gbiif)" height="142.4375" id="Binding" style="stroke: #A80036; stroke-width: 1.5;" width="372" x="625" y="313"/><ellipse cx="770.25" cy="329" fill="#B4A7E5" rx="11" ry="11" style="stroke: #A80036; stroke-width: 1.0;"/><path d="M771.2031,325.7813 L771.2031,332.2969 L772.9219,332.2969 C773.375,332.2969 773.5156,332.3281 773.6875,332.4531 C773.9219,332.625 774.0313,332.875 774.0313,333.1563 C774.0313,333.7188 773.6719,334 772.9219,334 L767.7813,334 C767.375,334 767.1719,333.9531 767.0156,333.8281 C766.7969,333.6719 766.6563,333.4063 766.6563,333.1563 C766.6563,332.8594 766.8125,332.5781 767.0625,332.4219 C767.2188,332.3125 767.3438,332.2969 767.7813,332.2969 L769.5,332.2969 L769.5,325.7813 L767.7813,325.7813 C767.3594,325.7813 767.1719,325.75 767.0156,325.6406 C766.7969,325.4688 766.6563,325.2188 766.6563,324.9375 C766.6563,324.6563 766.8125,324.3594 767.0625,324.2031 C767.2188,324.1094 767.3438,324.0938 767.7813,324.0938 L772.9219,324.0938 C773.375,324.0938 773.5156,324.125 773.6875,324.2344 C773.9219,324.4063 774.0313,324.6719 774.0313,324.9375 C774.0313,325.2344 773.8906,325.5156 773.625,325.6719 C773.5,325.75 773.3125,325.7813 772.9219,325.7813 Z "/><text fill="#000000" font-family="sans-serif" font-size="12" font-style="italic" lengthAdjust="spacingAndGlyphs" textLength="46" x="790.75" y="333.1543">Binding</text><rect fill="#FFFFFF" height="15.9688" style="stroke: #000000; stroke-width: 1.0; stroke-dasharray: 2.0,2.0;" width="25" x="975" y="310"/><text fill="#000000" font-family="sans-serif" font-size="12" font-style="italic" lengthAdjust="spacingAndGlyphs" textLength="23" x="976" y="322.1387">B, T</text><line style="stroke: #A80036; stroke-width: 1.5;" x1="626" x2="996" y1="345" y2="345"/><ellipse cx="636" cy="356.9023" fill="#84BE84" rx="3" ry="3" style="stroke: #038048; stroke-width: 1.0;"/><text fill="#000000" font-family="sans-serif" font-size="11" font-style="italic" lengthAdjust="spacingAndGlyphs" textLength="151" x="645" y="359.2104">getField(): HasValue&lt;?, ?&gt;</text><ellipse cx="636" cy="369.707" fill="#84BE84" rx="3" ry="3" style="stroke: #038048; stroke-width: 1.0;"/><text fill="#000000" font-family="sans-serif" font-size="11" font-style="italic" lengthAdjust="spacingAndGlyphs" textLength="346" x="645" y="372.0151">getValidationStatusHandler(): BindingValidationStatusHandler</text><ellipse cx="636" cy="382.5117" fill="#84BE84" rx="3" ry="3" style="stroke: #038048; stroke-width: 1.0;"/><text fill="#000000" font-family="sans-serif" font-size="11" font-style="italic" lengthAdjust="spacingAndGlyphs" textLength="125" x="645" y="384.8198">isReadOnly(): boolean</text><ellipse cx="636" cy="395.3164" fill="#84BE84" rx="3" ry="3" style="stroke: #038048; stroke-width: 1.0;"/><text fill="#000000" font-family="sans-serif" font-size="11" font-style="italic" lengthAdjust="spacingAndGlyphs" textLength="185" x="645" y="397.6245">setReadOnly(readOnly: boolean)</text><ellipse cx="636" cy="408.1211" fill="#84BE84" rx="3" ry="3" style="stroke: #038048; stroke-width: 1.0;"/><text fill="#000000" font-family="sans-serif" font-size="11" font-style="italic" lengthAdjust="spacingAndGlyphs" textLength="78" x="645" y="410.4292">read(bean: B)</text><ellipse cx="636" cy="420.9258" fill="#84BE84" rx="3" ry="3" style="stroke: #038048; stroke-width: 1.0;"/><text fill="#000000" font-family="sans-serif" font-size="11" font-style="italic" lengthAdjust="spacingAndGlyphs" textLength="46" x="645" y="423.2339">unbind()</text><ellipse cx="636" cy="433.7305" fill="#84BE84" rx="3" ry="3" style="stroke: #038048; stroke-width: 1.0;"/><text fill="#000000" font-family="sans-serif" font-size="11" font-style="italic" lengthAdjust="spacingAndGlyphs" textLength="323" x="645" y="436.0386">validate(fireEvent: boolean): BindingValidationStatus&lt;T&gt;</text><ellipse cx="636" cy="446.5352" fill="#84BE84" rx="3" ry="3" style="stroke: #038048; stroke-width: 1.0;"/><text fill="#000000" font-family="sans-serif" font-size="11" lengthAdjust="spacingAndGlyphs" textLength="219" x="645" y="448.8433">validate(): BindingValidationStatus&lt;T&gt;</text><!--class BindingBuilder--><rect fill="#FEFECE" filter="url(#fwhd34i3gbiif)" height="129.6328" id="BindingBuilder" style="stroke: #A80036; stroke-width: 1.5;" width="551" x="38.5" y="319"/><ellipse cx="251.75" cy="335" fill="#B4A7E5" rx="11" ry="11" style="stroke: #A80036; stroke-width: 1.0;"/><path d="M252.7031,331.7813 L252.7031,338.2969 L254.4219,338.2969 C254.875,338.2969 255.0156,338.3281 255.1875,338.4531 C255.4219,338.625 255.5313,338.875 255.5313,339.1563 C255.5313,339.7188 255.1719,340 254.4219,340 L249.2813,340 C248.875,340 248.6719,339.9531 248.5156,339.8281 C248.2969,339.6719 248.1563,339.4063 248.1563,339.1563 C248.1563,338.8594 248.3125,338.5781 248.5625,338.4219 C248.7188,338.3125 248.8438,338.2969 249.2813,338.2969 L251,338.2969 L251,331.7813 L249.2813,331.7813 C248.8594,331.7813 248.6719,331.75 248.5156,331.6406 C248.2969,331.4688 248.1563,331.2188 248.1563,330.9375 C248.1563,330.6563 248.3125,330.3594 248.5625,330.2031 C248.7188,330.1094 248.8438,330.0938 249.2813,330.0938 L254.4219,330.0938 C254.875,330.0938 255.0156,330.125 255.1875,330.2344 C255.4219,330.4063 255.5313,330.6719 255.5313,330.9375 C255.5313,331.2344 255.3906,331.5156 255.125,331.6719 C255,331.75 254.8125,331.7813 254.4219,331.7813 Z "/><text fill="#000000" font-family="sans-serif" font-size="12" font-style="italic" lengthAdjust="spacingAndGlyphs" textLength="89" x="272.25" y="339.1543">BindingBuilder</text><rect fill="#FFFFFF" height="15.9688" style="stroke: #000000; stroke-width: 1.0; stroke-dasharray: 2.0,2.0;" width="25" x="567.5" y="316"/><text fill="#000000" font-family="sans-serif" font-size="12" font-style="italic" lengthAdjust="spacingAndGlyphs" textLength="23" x="568.5" y="328.1387">B, T</text><line style="stroke: #A80036; stroke-width: 1.5;" x1="39.5" x2="588.5" y1="351" y2="351"/><ellipse cx="49.5" cy="362.9023" fill="#84BE84" rx="3" ry="3" style="stroke: #038048; stroke-width: 1.0;"/><text fill="#000000" font-family="sans-serif" font-size="11" font-style="italic" lengthAdjust="spacingAndGlyphs" textLength="246" x="58.5" y="365.2104">bind(propertyName: String): Binding&lt;B, T&gt;</text><ellipse cx="49.5" cy="375.707" fill="#84BE84" rx="3" ry="3" style="stroke: #038048; stroke-width: 1.0;"/><text fill="#000000" font-family="sans-serif" font-size="11" font-style="italic" lengthAdjust="spacingAndGlyphs" textLength="410" x="58.5" y="378.0151">bind(getter: ValueProvider&lt;B, T&gt;, setter: Setter&lt;B, T&gt;): Binding&lt;B, T&gt;</text><ellipse cx="49.5" cy="388.5117" fill="#84BE84" rx="3" ry="3" style="stroke: #038048; stroke-width: 1.0;"/><text fill="#000000" font-family="sans-serif" font-size="11" font-style="italic" lengthAdjust="spacingAndGlyphs" textLength="151" x="58.5" y="390.8198">getField(): HasValue&lt;?, ?&gt;</text><ellipse cx="49.5" cy="401.3164" fill="#84BE84" rx="3" ry="3" style="stroke: #038048; stroke-width: 1.0;"/><text fill="#000000" font-family="sans-serif" font-size="11" font-style="italic" lengthAdjust="spacingAndGlyphs" textLength="381" x="58.5" y="403.6245">withConverter(converter: Converter&lt;T, N&gt;): BindingBuilder&lt;B, N&gt;</text><ellipse cx="49.5" cy="414.1211" fill="#84BE84" rx="3" ry="3" style="stroke: #038048; stroke-width: 1.0;"/><text fill="#000000" font-family="sans-serif" font-size="11" font-style="italic" lengthAdjust="spacingAndGlyphs" textLength="390" x="58.5" y="416.4292">withNullRepresentation(nullRepresentation: T): BindingBuilder&lt;B, T&gt;</text><ellipse cx="49.5" cy="426.9258" fill="#84BE84" rx="3" ry="3" style="stroke: #038048; stroke-width: 1.0;"/><text fill="#000000" font-family="sans-serif" font-size="11" font-style="italic" lengthAdjust="spacingAndGlyphs" textLength="525" x="58.5" y="429.2339">withValidationStatusHandler(handler: BindingValidationStatusHandler): BindingBuilder&lt;B, T&gt;</text><ellipse cx="49.5" cy="439.7305" fill="#84BE84" rx="3" ry="3" style="stroke: #038048; stroke-width: 1.0;"/><text fill="#000000" font-family="sans-serif" font-size="11" font-style="italic" lengthAdjust="spacingAndGlyphs" textLength="393" x="58.5" y="442.0386">withValidator(validator: Validator&lt;? super T&gt;): BindingBuilder&lt;B, T&gt;</text><!--link Binder to Binding--><path d="M674.647,263.094 C693.878,280.006 713.345,297.124 731.315,312.927 " fill="none" id="Binder-Binding" style="stroke: #A80036; stroke-width: 1.0;"/><ellipse cx="669.3715" cy="258.455" fill="#FFFFFF" rx="8" ry="8" style="stroke: #A80036; stroke-width: 1.0;"/><line style="stroke: #A80036; stroke-width: 1.0;" x1="675.379" x2="663.364" y1="263.7379" y2="253.172"/><line style="stroke: #A80036; stroke-width: 1.0;" x1="664.0886" x2="674.6545" y1="264.4625" y2="252.4474"/><!--link Binder to BindingBuilder--><path d="M440.752,263.642 C420.666,282.556 400.327,301.709 381.995,318.971 " fill="none" id="Binder-BindingBuilder" style="stroke: #A80036; stroke-width: 1.0;"/><ellipse cx="446.0454" cy="258.656" fill="#FFFFFF" rx="8" ry="8" style="stroke: #A80036; stroke-width: 1.0;"/><line style="stroke: #A80036; stroke-width: 1.0;" x1="440.2209" x2="451.87" y1="264.14" y2="253.172"/><line style="stroke: #A80036; stroke-width: 1.0;" x1="440.5614" x2="451.5294" y1="252.8314" y2="264.4806"/><!--link Binding to BindingValidationStatusHandler--><path d="M659.253,455.091 C583.022,490.302 494.993,530.962 438.015,557.28 " fill="none" id="Binding-BindingValidationStatusHandler" style="stroke: #A80036; stroke-width: 1.0; stroke-dasharray: 7.0,7.0;"/><polygon fill="#A80036" points="433.284,559.465,443.1318,559.3222,437.8231,557.3683,439.777,552.0596,433.284,559.465" style="stroke: #A80036; stroke-width: 1.0;"/><!--link BindingValidationStatusHandler to BindingValidationStatus--><path d="M556.75,586 C566.483,586 576.217,586 585.95,586 " fill="none" id="BindingValidationStatusHandler-BindingValidationStatus" style="stroke: #A80036; stroke-width: 1.0; stroke-dasharray: 7.0,7.0;"/><polygon fill="#A80036" points="591.04,586,582.04,582,586.04,586,582.04,590,591.04,586" style="stroke: #A80036; stroke-width: 1.0;"/><!--link BindingBuilder to BindingValidationStatusHandler--><path d="M334.514,449.107 C345.804,484.387 359.293,526.539 368.222,554.443 " fill="none" id="BindingBuilder-BindingValidationStatusHandler" style="stroke: #A80036; stroke-width: 1.0; stroke-dasharray: 7.0,7.0;"/><polygon fill="#A80036" points="369.834,559.483,370.8995,549.692,368.3096,554.7211,363.2804,552.1311,369.834,559.483" style="stroke: #A80036; stroke-width: 1.0;"/><!--link Binding to BindingValidationStatus--><path d="M805.03,455.231 C803.526,472.927 801.906,491.991 800.382,509.915 " fill="none" id="Binding-BindingValidationStatus" style="stroke: #A80036; stroke-width: 1.0; stroke-dasharray: 7.0,7.0;"/><polygon fill="#A80036" points="799.955,514.938,804.7042,506.3098,800.3792,509.956,796.733,505.6311,799.955,514.938" style="stroke: #A80036; stroke-width: 1.0;"/><!--link BindingBuilder to Binding--><path d="M589.68,384 C599.618,384 609.557,384 619.496,384 " fill="none" id="BindingBuilder-Binding" style="stroke: #A80036; stroke-width: 1.0; stroke-dasharray: 7.0,7.0;"/><polygon fill="#A80036" points="624.693,384,615.693,380,619.693,384,615.693,388,624.693,384" style="stroke: #A80036; stroke-width: 1.0;"/><!--
@startuml
package com.vaadin.flow.data.binder {
 interface BindingValidationStatusHandler {
  + {abstract} statusChange(statusChange: BindingValidationStatus<?>)
 }
 class BindingValidationStatus<T> {
  + BindingValidationStatus(result: Result<T>, source: Binding<?, T>)
  + getBinding(): Binding<?, T>
  + getField(): HasValue<?, ?> 
  + getMessage(): Optional<String>
  + getResult(): Optional<ValidationResult>
  + getStatus(): Status
  + getValidationResults(): List<ValidationResult>
  + isError(): boolean
 }
 class Binder<B> {
  + Binder()
  + Binder(clazz: Class)
  + Binder(clazz: Class, scanNestedDefinitions: boolean)
  + <V> forField(field: HasValue<V>): BindingBuilder<B, V>
  + <V> forMemberField(field: HasValue<?, V>): BindingBuilder<B, V>
  + getBean(): B
  + isValid(): boolean
  + readBean(bean: B)
  + removeBean()
  + setBean(bean: B)  
  + writeBean(bean: B)
  + writeBeanIfValid(bean: B)
 }
 interface Binding<B, T> {
  +{abstract}getField(): HasValue<?, ?>
  +{abstract}getValidationStatusHandler(): BindingValidationStatusHandler
  +{abstract}isReadOnly(): boolean
  +{abstract}setReadOnly(readOnly: boolean)
  +{abstract}read(bean: B)
  +{abstract}unbind()
  +{abstract}validate(fireEvent: boolean): BindingValidationStatus<T>
  + validate(): BindingValidationStatus<T>
 }
 interface BindingBuilder<B, T> {
  +{abstract}bind(propertyName: String): Binding<B, T>
  +{abstract}bind(getter: ValueProvider<B, T>, setter: Setter<B, T>): Binding<B, T>
  +{abstract}getField(): HasValue<?, ?>
  +{abstract}withConverter(converter: Converter<T, N>): BindingBuilder<B, N>
  +{abstract}withNullRepresentation(nullRepresentation: T): BindingBuilder<B, T>
  +{abstract}withValidationStatusHandler(handler: BindingValidationStatusHandler): BindingBuilder<B, T>
  +{abstract}withValidator(validator: Validator<? super T>): BindingBuilder<B, T>
 }
}

Binder +-down- Binding
Binder +-down- BindingBuilder
Binding .down.> BindingValidationStatusHandler
BindingValidationStatusHandler .right.> BindingValidationStatus
BindingBuilder .down.> BindingValidationStatusHandler
Binding .down.> BindingValidationStatus
BindingBuilder .right.> Binding
hide empty members
@enduml

PlantUML version 1.2019.08(Sat Jul 13 19:25:14 UTC 2019)
(GPL source distribution)
Java Runtime: Java(TM) SE Runtime Environment
JVM: Java HotSpot(TM) 64-Bit Server VM
Java Version: 1.7.0_25-b15
Operating System: Linux
Default Encoding: UTF-8
Language: en
Country: US
--></g></svg>