<?xml version="1.0" encoding="UTF-8" standalone="no"?><svg xmlns="http://www.w3.org/2000/svg" xmlns:xlink="http://www.w3.org/1999/xlink" contentScriptType="application/ecmascript" contentStyleType="text/css" height="672px" preserveAspectRatio="xMidYMid" style="width:1043px;height:672px;" version="1.1" viewBox="0 0 1043 672" width="1043px" zoomAndPan="magnify"><defs><filter height="300%" id="f12krih8r2wy8h" width="300%" x="-1" y="-1"><feGaussianBlur result="blurOut" stdDeviation="2.0"/><feColorMatrix in="blurOut" result="blurOut2" type="matrix" values="0 0 0 0 0 0 0 0 0 0 0 0 0 0 0 0 0 0 .4 0"/><feOffset dx="4.0" dy="4.0" in="blurOut2" result="blurOut3"/><feBlend in="SourceGraphic" in2="blurOut3" mode="normal"/></filter></defs><g><!--cluster com.vaadin.flow.data.binder--><polygon fill="#FFFFFF" filter="url(#f12krih8r2wy8h)" points="22,24,251,24,258,46.2969,1021,46.2969,1021,660,22,660,22,24" style="stroke: #000000; stroke-width: 1.5;"/><line style="stroke: #000000; stroke-width: 1.5;" x1="22" x2="258" y1="46.2969" y2="46.2969"/><text fill="#000000" font-family="sans-serif" font-size="14" font-weight="bold" lengthAdjust="spacingAndGlyphs" textLength="223" x="26" y="38.9951">com.vaadin.flow.data.binder</text><!--class BindingValidationStatusHandler--><rect fill="#FEFECE" filter="url(#f12krih8r2wy8h)" height="52.8047" id="BindingValidationStatusHandler" style="stroke: #A80036; stroke-width: 1.5;" width="357" x="207.5" y="546.5"/><ellipse cx="283.25" cy="562.5" fill="#B4A7E5" rx="11" ry="11" style="stroke: #A80036; stroke-width: 1.0;"/><path d="M284.2031,559.2813 L284.2031,565.7969 L285.9219,565.7969 C286.375,565.7969 286.5156,565.8281 286.6875,565.9531 C286.9219,566.125 287.0313,566.375 287.0313,566.6563 C287.0313,567.2188 286.6719,567.5 285.9219,567.5 L280.7813,567.5 C280.375,567.5 280.1719,567.4531 280.0156,567.3281 C279.7969,567.1719 279.6563,566.9063 279.6563,566.6563 C279.6563,566.3594 279.8125,566.0781 280.0625,565.9219 C280.2188,565.8125 280.3438,565.7969 280.7813,565.7969 L282.5,565.7969 L282.5,559.2813 L280.7813,559.2813 C280.3594,559.2813 280.1719,559.25 280.0156,559.1406 C279.7969,558.9688 279.6563,558.7188 279.6563,558.4375 C279.6563,558.1563 279.8125,557.8594 280.0625,557.7031 C280.2188,557.6094 280.3438,557.5938 280.7813,557.5938 L285.9219,557.5938 C286.375,557.5938 286.5156,557.625 286.6875,557.7344 C286.9219,557.9063 287.0313,558.1719 287.0313,558.4375 C287.0313,558.7344 286.8906,559.0156 286.625,559.1719 C286.5,559.25 286.3125,559.2813 285.9219,559.2813 Z "/><text fill="#000000" font-family="sans-serif" font-size="12" font-style="italic" lengthAdjust="spacingAndGlyphs" textLength="197" x="303.75" y="566.6543">BindingValidationStatusHandler</text><line style="stroke: #A80036; stroke-width: 1.5;" x1="208.5" x2="563.5" y1="578.5" y2="578.5"/><ellipse cx="218.5" cy="590.4023" fill="#84BE84" rx="3" ry="3" style="stroke: #038048; stroke-width: 1.0;"/><text fill="#000000" font-family="sans-serif" font-size="11" font-style="italic" lengthAdjust="spacingAndGlyphs" textLength="331" x="227.5" y="592.7104"> statusChange(statusChange: BindingValidationStatus&lt;?&gt;)</text><!--class BindingValidationStatus--><rect fill="#FEFECE" filter="url(#f12krih8r2wy8h)" height="142.4375" id="BindingValidationStatus" style="stroke: #A80036; stroke-width: 1.5;" width="405" x="599.5" y="502"/><ellipse cx="717.75" cy="518" fill="#ADD1B2" rx="11" ry="11" style="stroke: #A80036; stroke-width: 1.0;"/><path d="M720.0938,513.6719 L720.2656,513.75 C720.4844,513.4375 720.6875,513.3438 720.9844,513.3438 C721.2813,513.3438 721.5625,513.4844 721.7188,513.75 C721.8125,513.9063 721.8281,514.0313 721.8281,514.4688 L721.8281,515.8906 C721.8281,516.3125 721.7969,516.5 721.6875,516.6563 C721.5156,516.875 721.25,517.0156 720.9844,517.0156 C720.7656,517.0156 720.5313,516.9063 720.3906,516.7656 C720.25,516.6406 720.2188,516.5156 720.1563,516.1094 C720.0625,515.7031 719.8906,515.4844 719.4063,515.2031 C718.9375,514.9531 718.3281,514.7969 717.75,514.7969 C716.0156,514.7969 714.7656,516.1094 714.7656,517.8906 L714.7656,518.9844 C714.7656,520.6875 716.0625,521.7813 718.1094,521.7813 C718.875,521.7813 719.5625,521.6563 719.9844,521.3906 C720.1719,521.2969 720.1719,521.2969 720.625,520.8125 C720.8125,520.625 721.0156,520.5469 721.2344,520.5469 C721.7031,520.5469 722.0938,520.9375 722.0938,521.3906 C722.0938,521.7813 721.7656,522.2344 721.1875,522.6406 C720.4375,523.1875 719.2813,523.4844 718.0625,523.4844 C715.1719,523.4844 713.0625,521.5938 713.0625,519.0156 L713.0625,517.8906 C713.0625,515.1719 715.0625,513.0938 717.6875,513.0938 C718.5625,513.0938 719.1563,513.2344 720.0938,513.6719 Z "/><text fill="#000000" font-family="sans-serif" font-size="12" lengthAdjust="spacingAndGlyphs" textLength="149" x="738.25" y="522.1543">BindingValidationStatus</text><rect fill="#FFFFFF" height="15.9688" style="stroke: #000000; stroke-width: 1.0; stroke-dasharray: 2.0,2.0;" width="9" x="998.5" y="499"/><text fill="#000000" font-family="sans-serif" font-size="12" font-style="italic" lengthAdjust="spacingAndGlyphs" textLength="7" x="999.5" y="511.1387">T</text><line style="stroke: #A80036; stroke-width: 1.5;" x1="600.5" x2="1003.5" y1="534" y2="534"/><ellipse cx="610.5" cy="545.9023" fill="#84BE84" rx="3" ry="3" style="stroke: #038048; stroke-width: 1.0;"/><text fill="#000000" font-family="sans-serif" font-size="11" lengthAdjust="spacingAndGlyphs" textLength="379" x="619.5" y="548.2104">BindingValidationStatus(result: Result&lt;T&gt;, source: Binding&lt;?, T&gt;)</text><ellipse cx="610.5" cy="558.707" fill="#84BE84" rx="3" ry="3" style="stroke: #038048; stroke-width: 1.0;"/><text fill="#000000" font-family="sans-serif" font-size="11" lengthAdjust="spacingAndGlyphs" textLength="157" x="619.5" y="561.0151">getBinding(): Binding&lt;?, T&gt;</text><ellipse cx="610.5" cy="571.5117" fill="#84BE84" rx="3" ry="3" style="stroke: #038048; stroke-width: 1.0;"/><text fill="#000000" font-family="sans-serif" font-size="11" lengthAdjust="spacingAndGlyphs" textLength="151" x="619.5" y="573.8198">getField(): HasValue&lt;?, ?&gt;</text><ellipse cx="610.5" cy="584.3164" fill="#84BE84" rx="3" ry="3" style="stroke: #038048; stroke-width: 1.0;"/><text fill="#000000" font-family="sans-serif" font-size="11" lengthAdjust="spacingAndGlyphs" textLength="184" x="619.5" y="586.6245">getMessage(): Optional&lt;String&gt;</text><ellipse cx="610.5" cy="597.1211" fill="#84BE84" rx="3" ry="3" style="stroke: #038048; stroke-width: 1.0;"/><text fill="#000000" font-family="sans-serif" font-size="11" lengthAdjust="spacingAndGlyphs" textLength="224" x="619.5" y="599.4292">getResult(): Optional&lt;ValidationResult&gt;</text><ellipse cx="610.5" cy="609.9258" fill="#84BE84" rx="3" ry="3" style="stroke: #038048; stroke-width: 1.0;"/><text fill="#000000" font-family="sans-serif" font-size="11" lengthAdjust="spacingAndGlyphs" textLength="108" x="619.5" y="612.2339">getStatus(): Status</text><ellipse cx="610.5" cy="622.7305" fill="#84BE84" rx="3" ry="3" style="stroke: #038048; stroke-width: 1.0;"/><text fill="#000000" font-family="sans-serif" font-size="11" lengthAdjust="spacingAndGlyphs" textLength="259" x="619.5" y="625.0386">getValidationResults(): List&lt;ValidationResult&gt;</text><ellipse cx="610.5" cy="635.5352" fill="#84BE84" rx="3" ry="3" style="stroke: #038048; stroke-width: 1.0;"/><text fill="#000000" font-family="sans-serif" font-size="11" lengthAdjust="spacingAndGlyphs" textLength="100" x="619.5" y="637.8433">isError(): boolean</text><!--class Binder--><rect fill="#FEFECE" filter="url(#f12krih8r2wy8h)" height="180.8516" id="Binder" style="stroke: #A80036; stroke-width: 1.5;" width="406" x="356" y="59"/><ellipse cx="528.75" cy="75" fill="#ADD1B2" rx="11" ry="11" style="stroke: #A80036; stroke-width: 1.0;"/><path d="M531.0938,70.6719 L531.2656,70.75 C531.4844,70.4375 531.6875,70.3438 531.9844,70.3438 C532.2813,70.3438 532.5625,70.4844 532.7188,70.75 C532.8125,70.9063 532.8281,71.0313 532.8281,71.4688 L532.8281,72.8906 C532.8281,73.3125 532.7969,73.5 532.6875,73.6563 C532.5156,73.875 532.25,74.0156 531.9844,74.0156 C531.7656,74.0156 531.5313,73.9063 531.3906,73.7656 C531.25,73.6406 531.2188,73.5156 531.1563,73.1094 C531.0625,72.7031 530.8906,72.4844 530.4063,72.2031 C529.9375,71.9531 529.3281,71.7969 528.75,71.7969 C527.0156,71.7969 525.7656,73.1094 525.7656,74.8906 L525.7656,75.9844 C525.7656,77.6875 527.0625,78.7813 529.1094,78.7813 C529.875,78.7813 530.5625,78.6563 530.9844,78.3906 C531.1719,78.2969 531.1719,78.2969 531.625,77.8125 C531.8125,77.625 532.0156,77.5469 532.2344,77.5469 C532.7031,77.5469 533.0938,77.9375 533.0938,78.3906 C533.0938,78.7813 532.7656,79.2344 532.1875,79.6406 C531.4375,80.1875 530.2813,80.4844 529.0625,80.4844 C526.1719,80.4844 524.0625,78.5938 524.0625,76.0156 L524.0625,74.8906 C524.0625,72.1719 526.0625,70.0938 528.6875,70.0938 C529.5625,70.0938 530.1563,70.2344 531.0938,70.6719 Z "/><text fill="#000000" font-family="sans-serif" font-size="12" lengthAdjust="spacingAndGlyphs" textLength="40" x="549.25" y="79.1543">Binder</text><rect fill="#FFFFFF" height="15.9688" style="stroke: #000000; stroke-width: 1.0; stroke-dasharray: 2.0,2.0;" width="10" x="755" y="56"/><text fill="#000000" font-family="sans-serif" font-size="12" font-style="italic" lengthAdjust="spacingAndGlyphs" textLength="8" x="756" y="68.1387">B</text><line style="stroke: #A80036; stroke-width: 1.5;" x1="357" x2="761" y1="91" y2="91"/><ellipse cx="367" cy="102.9023" fill="#84BE84" rx="3" ry="3" style="stroke: #038048; stroke-width: 1.0;"/><text fill="#000000" font-family="sans-serif" font-size="11" lengthAdjust="spacingAndGlyphs" textLength="37" x="376" y="105.2104">Bean()</text><ellipse cx="367" cy="115.707" fill="#84BE84" rx="3" ry="3" style="stroke: #038048; stroke-width: 1.0;"/><text fill="#000000" font-family="sans-serif" font-size="11" lengthAdjust="spacingAndGlyphs" textLength="103" x="376" y="118.0151">Bean(clazz: Class)</text><ellipse cx="367" cy="128.5117" fill="#84BE84" rx="3" ry="3" style="stroke: #038048; stroke-width: 1.0;"/><text fill="#000000" font-family="sans-serif" font-size="11" lengthAdjust="spacingAndGlyphs" textLength="320" x="376" y="130.8198">&lt;V&gt; forField(field: HasValue&lt;V&gt;): BindingBuilder&lt;B, V&gt;</text><ellipse cx="367" cy="141.3164" fill="#84BE84" rx="3" ry="3" style="stroke: #038048; stroke-width: 1.0;"/><text fill="#000000" font-family="sans-serif" font-size="11" lengthAdjust="spacingAndGlyphs" textLength="380" x="376" y="143.6245">&lt;V&gt; forMemberField(field: HasValue&lt;?, V&gt;): BindingBuilder&lt;B, V&gt;</text><ellipse cx="367" cy="154.1211" fill="#84BE84" rx="3" ry="3" style="stroke: #038048; stroke-width: 1.0;"/><text fill="#000000" font-family="sans-serif" font-size="11" lengthAdjust="spacingAndGlyphs" textLength="71" x="376" y="156.4292">getBean(): B</text><ellipse cx="367" cy="166.9258" fill="#84BE84" rx="3" ry="3" style="stroke: #038048; stroke-width: 1.0;"/><text fill="#000000" font-family="sans-serif" font-size="11" lengthAdjust="spacingAndGlyphs" textLength="98" x="376" y="169.2339">isValid(): boolean</text><ellipse cx="367" cy="179.7305" fill="#84BE84" rx="3" ry="3" style="stroke: #038048; stroke-width: 1.0;"/><text fill="#000000" font-family="sans-serif" font-size="11" lengthAdjust="spacingAndGlyphs" textLength="107" x="376" y="182.0386">readBean(bean: B)</text><ellipse cx="367" cy="192.5352" fill="#84BE84" rx="3" ry="3" style="stroke: #038048; stroke-width: 1.0;"/><text fill="#000000" font-family="sans-serif" font-size="11" lengthAdjust="spacingAndGlyphs" textLength="80" x="376" y="194.8433">removeBean()</text><ellipse cx="367" cy="205.3398" fill="#84BE84" rx="3" ry="3" style="stroke: #038048; stroke-width: 1.0;"/><text fill="#000000" font-family="sans-serif" font-size="11" lengthAdjust="spacingAndGlyphs" textLength="99" x="376" y="207.6479">setBean(bean: B)</text><ellipse cx="367" cy="218.1445" fill="#84BE84" rx="3" ry="3" style="stroke: #038048; stroke-width: 1.0;"/><text fill="#000000" font-family="sans-serif" font-size="11" lengthAdjust="spacingAndGlyphs" textLength="109" x="376" y="220.4526">writeBean(bean: B)</text><ellipse cx="367" cy="230.9492" fill="#84BE84" rx="3" ry="3" style="stroke: #038048; stroke-width: 1.0;"/><text fill="#000000" font-family="sans-serif" font-size="11" lengthAdjust="spacingAndGlyphs" textLength="143" x="376" y="233.2573">writeBeanIfValid(bean: B)</text><!--class Binding--><rect fill="#FEFECE" filter="url(#f12krih8r2wy8h)" height="142.4375" id="Binding" style="stroke: #A80036; stroke-width: 1.5;" width="376" x="629" y="300"/><ellipse cx="776.25" cy="316" fill="#B4A7E5" rx="11" ry="11" style="stroke: #A80036; stroke-width: 1.0;"/><path d="M777.2031,312.7813 L777.2031,319.2969 L778.9219,319.2969 C779.375,319.2969 779.5156,319.3281 779.6875,319.4531 C779.9219,319.625 780.0313,319.875 780.0313,320.1563 C780.0313,320.7188 779.6719,321 778.9219,321 L773.7813,321 C773.375,321 773.1719,320.9531 773.0156,320.8281 C772.7969,320.6719 772.6563,320.4063 772.6563,320.1563 C772.6563,319.8594 772.8125,319.5781 773.0625,319.4219 C773.2188,319.3125 773.3438,319.2969 773.7813,319.2969 L775.5,319.2969 L775.5,312.7813 L773.7813,312.7813 C773.3594,312.7813 773.1719,312.75 773.0156,312.6406 C772.7969,312.4688 772.6563,312.2188 772.6563,311.9375 C772.6563,311.6563 772.8125,311.3594 773.0625,311.2031 C773.2188,311.1094 773.3438,311.0938 773.7813,311.0938 L778.9219,311.0938 C779.375,311.0938 779.5156,311.125 779.6875,311.2344 C779.9219,311.4063 780.0313,311.6719 780.0313,311.9375 C780.0313,312.2344 779.8906,312.5156 779.625,312.6719 C779.5,312.75 779.3125,312.7813 778.9219,312.7813 Z "/><text fill="#000000" font-family="sans-serif" font-size="12" font-style="italic" lengthAdjust="spacingAndGlyphs" textLength="46" x="796.75" y="320.1543">Binding</text><rect fill="#FFFFFF" height="15.9688" style="stroke: #000000; stroke-width: 1.0; stroke-dasharray: 2.0,2.0;" width="25" x="983" y="297"/><text fill="#000000" font-family="sans-serif" font-size="12" font-style="italic" lengthAdjust="spacingAndGlyphs" textLength="23" x="984" y="309.1387">B, T</text><line style="stroke: #A80036; stroke-width: 1.5;" x1="630" x2="1004" y1="332" y2="332"/><ellipse cx="640" cy="343.9023" fill="#84BE84" rx="3" ry="3" style="stroke: #038048; stroke-width: 1.0;"/><text fill="#000000" font-family="sans-serif" font-size="11" font-style="italic" lengthAdjust="spacingAndGlyphs" textLength="155" x="649" y="346.2104"> getField(): HasValue&lt;?, ?&gt;</text><ellipse cx="640" cy="356.707" fill="#84BE84" rx="3" ry="3" style="stroke: #038048; stroke-width: 1.0;"/><text fill="#000000" font-family="sans-serif" font-size="11" font-style="italic" lengthAdjust="spacingAndGlyphs" textLength="350" x="649" y="359.0151"> getValidationStatusHandler(): BindingValidationStatusHandler</text><ellipse cx="640" cy="369.5117" fill="#84BE84" rx="3" ry="3" style="stroke: #038048; stroke-width: 1.0;"/><text fill="#000000" font-family="sans-serif" font-size="11" font-style="italic" lengthAdjust="spacingAndGlyphs" textLength="129" x="649" y="371.8198"> isReadOnly(): boolean</text><ellipse cx="640" cy="382.3164" fill="#84BE84" rx="3" ry="3" style="stroke: #038048; stroke-width: 1.0;"/><text fill="#000000" font-family="sans-serif" font-size="11" font-style="italic" lengthAdjust="spacingAndGlyphs" textLength="189" x="649" y="384.6245"> setReadOnly(readOnly: boolean)</text><ellipse cx="640" cy="395.1211" fill="#84BE84" rx="3" ry="3" style="stroke: #038048; stroke-width: 1.0;"/><text fill="#000000" font-family="sans-serif" font-size="11" font-style="italic" lengthAdjust="spacingAndGlyphs" textLength="82" x="649" y="397.4292"> read(bean: B)</text><ellipse cx="640" cy="407.9258" fill="#84BE84" rx="3" ry="3" style="stroke: #038048; stroke-width: 1.0;"/><text fill="#000000" font-family="sans-serif" font-size="11" font-style="italic" lengthAdjust="spacingAndGlyphs" textLength="50" x="649" y="410.2339"> unbind()</text><ellipse cx="640" cy="420.7305" fill="#84BE84" rx="3" ry="3" style="stroke: #038048; stroke-width: 1.0;"/><text fill="#000000" font-family="sans-serif" font-size="11" font-style="italic" lengthAdjust="spacingAndGlyphs" textLength="323" x="649" y="423.0386">validate(fireEvent: boolean): BindingValidationStatus&lt;T&gt;</text><ellipse cx="640" cy="433.5352" fill="#84BE84" rx="3" ry="3" style="stroke: #038048; stroke-width: 1.0;"/><text fill="#000000" font-family="sans-serif" font-size="11" font-style="italic" lengthAdjust="spacingAndGlyphs" textLength="39" x="649" y="435.8433">default</text><text fill="#000000" font-family="sans-serif" font-size="11" lengthAdjust="spacingAndGlyphs" textLength="223" x="688" y="435.8433"> validate(): BindingValidationStatus&lt;T&gt;</text><!--class BindingBuilder--><rect fill="#FEFECE" filter="url(#f12krih8r2wy8h)" height="116.8281" id="BindingBuilder" style="stroke: #A80036; stroke-width: 1.5;" width="555" x="38.5" y="312.5"/><ellipse cx="253.75" cy="328.5" fill="#B4A7E5" rx="11" ry="11" style="stroke: #A80036; stroke-width: 1.0;"/><path d="M254.7031,325.2813 L254.7031,331.7969 L256.4219,331.7969 C256.875,331.7969 257.0156,331.8281 257.1875,331.9531 C257.4219,332.125 257.5313,332.375 257.5313,332.6563 C257.5313,333.2188 257.1719,333.5 256.4219,333.5 L251.2813,333.5 C250.875,333.5 250.6719,333.4531 250.5156,333.3281 C250.2969,333.1719 250.1563,332.9063 250.1563,332.6563 C250.1563,332.3594 250.3125,332.0781 250.5625,331.9219 C250.7188,331.8125 250.8438,331.7969 251.2813,331.7969 L253,331.7969 L253,325.2813 L251.2813,325.2813 C250.8594,325.2813 250.6719,325.25 250.5156,325.1406 C250.2969,324.9688 250.1563,324.7188 250.1563,324.4375 C250.1563,324.1563 250.3125,323.8594 250.5625,323.7031 C250.7188,323.6094 250.8438,323.5938 251.2813,323.5938 L256.4219,323.5938 C256.875,323.5938 257.0156,323.625 257.1875,323.7344 C257.4219,323.9063 257.5313,324.1719 257.5313,324.4375 C257.5313,324.7344 257.3906,325.0156 257.125,325.1719 C257,325.25 256.8125,325.2813 256.4219,325.2813 Z "/><text fill="#000000" font-family="sans-serif" font-size="12" font-style="italic" lengthAdjust="spacingAndGlyphs" textLength="89" x="274.25" y="332.6543">BindingBuilder</text><rect fill="#FFFFFF" height="15.9688" style="stroke: #000000; stroke-width: 1.0; stroke-dasharray: 2.0,2.0;" width="25" x="571.5" y="309.5"/><text fill="#000000" font-family="sans-serif" font-size="12" font-style="italic" lengthAdjust="spacingAndGlyphs" textLength="23" x="572.5" y="321.6387">B, T</text><line style="stroke: #A80036; stroke-width: 1.5;" x1="39.5" x2="592.5" y1="344.5" y2="344.5"/><ellipse cx="49.5" cy="356.4023" fill="#84BE84" rx="3" ry="3" style="stroke: #038048; stroke-width: 1.0;"/><text fill="#000000" font-family="sans-serif" font-size="11" font-style="italic" lengthAdjust="spacingAndGlyphs" textLength="250" x="58.5" y="358.7104"> bind(propertyName: String): Binding&lt;B, T&gt;</text><ellipse cx="49.5" cy="369.207" fill="#84BE84" rx="3" ry="3" style="stroke: #038048; stroke-width: 1.0;"/><text fill="#000000" font-family="sans-serif" font-size="11" font-style="italic" lengthAdjust="spacingAndGlyphs" textLength="414" x="58.5" y="371.5151"> bind(getter: ValueProvider&lt;B, T&gt;, setter: Setter&lt;B, T&gt;): Binding&lt;B, T&gt;</text><ellipse cx="49.5" cy="382.0117" fill="#84BE84" rx="3" ry="3" style="stroke: #038048; stroke-width: 1.0;"/><text fill="#000000" font-family="sans-serif" font-size="11" font-style="italic" lengthAdjust="spacingAndGlyphs" textLength="155" x="58.5" y="384.3198"> getField(): HasValue&lt;?, ?&gt;</text><ellipse cx="49.5" cy="394.8164" fill="#84BE84" rx="3" ry="3" style="stroke: #038048; stroke-width: 1.0;"/><text fill="#000000" font-family="sans-serif" font-size="11" font-style="italic" lengthAdjust="spacingAndGlyphs" textLength="385" x="58.5" y="397.1245"> withConverter(converter: Converter&lt;T, N&gt;): BindingBuilder&lt;B, N&gt;</text><ellipse cx="49.5" cy="407.6211" fill="#84BE84" rx="3" ry="3" style="stroke: #038048; stroke-width: 1.0;"/><text fill="#000000" font-family="sans-serif" font-size="11" font-style="italic" lengthAdjust="spacingAndGlyphs" textLength="529" x="58.5" y="409.9292"> withValidationStatusHandler(handler: BindingValidationStatusHandler): BindingBuilder&lt;B, T&gt;</text><ellipse cx="49.5" cy="420.4258" fill="#84BE84" rx="3" ry="3" style="stroke: #038048; stroke-width: 1.0;"/><text fill="#000000" font-family="sans-serif" font-size="11" font-style="italic" lengthAdjust="spacingAndGlyphs" textLength="397" x="58.5" y="422.7339"> withValidator(validator: Validator&lt;? super T&gt;): BindingBuilder&lt;B, T&gt;</text><!--link Binder to Binding--><path d="M675.905,249.96 C695.696,266.797 715.87,283.961 734.541,299.846 " fill="none" id="Binder-Binding" style="stroke: #A80036; stroke-width: 1.0;"/><ellipse cx="670.4041" cy="245.2801" fill="#FFFFFF" rx="8" ry="8" style="stroke: #A80036; stroke-width: 1.0;"/><line style="stroke: #A80036; stroke-width: 1.0;" x1="676.4971" x2="664.311" y1="250.4642" y2="240.096"/><line style="stroke: #A80036; stroke-width: 1.0;" x1="665.22" x2="675.5881" y1="251.3731" y2="239.187"/><!--link Binder to BindingBuilder--><path d="M448.653,250.176 C425.044,271.501 400.87,293.338 379.735,312.429 " fill="none" id="Binder-BindingBuilder" style="stroke: #A80036; stroke-width: 1.0;"/><ellipse cx="453.8752" cy="245.4583" fill="#FFFFFF" rx="8" ry="8" style="stroke: #A80036; stroke-width: 1.0;"/><line style="stroke: #A80036; stroke-width: 1.0;" x1="447.9384" x2="459.812" y1="250.8206" y2="240.096"/><line style="stroke: #A80036; stroke-width: 1.0;" x1="448.5129" x2="459.2375" y1="239.5215" y2="251.3951"/><!--link Binding to BindingValidationStatusHandler--><path d="M665.954,442.091 C590.075,477.302 502.453,517.962 445.737,544.28 " fill="none" id="Binding-BindingValidationStatusHandler" style="stroke: #A80036; stroke-width: 1.0; stroke-dasharray: 7.0,7.0;"/><polygon fill="#A80036" points="441.028,546.465,450.8756,546.3059,445.5636,544.3607,447.5088,539.0488,441.028,546.465" style="stroke: #A80036; stroke-width: 1.0;"/><!--link BindingValidationStatusHandler to BindingValidationStatus--><path d="M564.75,573 C574.483,573 584.217,573 593.95,573 " fill="none" id="BindingValidationStatusHandler-BindingValidationStatus" style="stroke: #A80036; stroke-width: 1.0; stroke-dasharray: 7.0,7.0;"/><polygon fill="#A80036" points="599.04,573,590.04,569,594.04,573,590.04,577,599.04,573" style="stroke: #A80036; stroke-width: 1.0;"/><!--link BindingBuilder to BindingValidationStatusHandler--><path d="M336.153,429.58 C348.905,466.015 364.886,511.673 375.263,541.323 " fill="none" id="BindingBuilder-BindingValidationStatusHandler" style="stroke: #A80036; stroke-width: 1.0; stroke-dasharray: 7.0,7.0;"/><polygon fill="#A80036" points="377.006,546.304,377.8084,536.4879,375.3543,541.5847,370.2575,539.1306,377.006,546.304" style="stroke: #A80036; stroke-width: 1.0;"/><!--link Binding to BindingValidationStatus--><path d="M811.733,442.231 C810.405,459.927 808.976,478.991 807.631,496.915 " fill="none" id="Binding-BindingValidationStatus" style="stroke: #A80036; stroke-width: 1.0; stroke-dasharray: 7.0,7.0;"/><polygon fill="#A80036" points="807.255,501.938,811.9175,493.2627,807.6293,496.952,803.94,492.6638,807.255,501.938" style="stroke: #A80036; stroke-width: 1.0;"/><!--
@startuml
package "com.vaadin.flow.data.binder" {
 interface BindingValidationStatusHandler {
  + {abstract} statusChange(statusChange: BindingValidationStatus<?>)
 }
 class BindingValidationStatus<T> {
  + BindingValidationStatus(result: Result<T>, source: Binding<?, T>)
  + getBinding(): Binding<?, T>
  + getField(): HasValue<?, ?> 
  + getMessage(): Optional<String>
  + getResult(): Optional<ValidationResult>
  + getStatus(): Status
  + getValidationResults(): List<ValidationResult>
  + isError(): boolean
 }
 class Binder<B> {
  + Bean()
  + Bean(clazz: Class)
  + <V> forField(field: HasValue<V>): BindingBuilder<B, V>
  + <V> forMemberField(field: HasValue<?, V>): BindingBuilder<B, V>
  + getBean(): B
  + isValid(): boolean
  + readBean(bean: B)
  + removeBean()
  + setBean(bean: B)  
  + writeBean(bean: B)
  + writeBeanIfValid(bean: B)
 }
 interface Binding<B, T> {
  + {abstract} getField(): HasValue<?, ?>
  + {abstract} getValidationStatusHandler(): BindingValidationStatusHandler
  + {abstract} isReadOnly(): boolean
  + {abstract} setReadOnly(readOnly: boolean)
  + {abstract} read(bean: B)
  + {abstract} unbind()
  + {abstract} validate(fireEvent: boolean): BindingValidationStatus<T>
  + <i>default</i> validate(): BindingValidationStatus<T>
 }
 interface BindingBuilder<B, T> {
  + {abstract} bind(propertyName: String): Binding<B, T>
  + {abstract} bind(getter: ValueProvider<B, T>, setter: Setter<B, T>): Binding<B, T>
  + {abstract} getField(): HasValue<?, ?>
  + {abstract} withConverter(converter: Converter<T, N>): BindingBuilder<B, N>
  + {abstract} withValidationStatusHandler(handler: BindingValidationStatusHandler): BindingBuilder<B, T>
  + {abstract} withValidator(validator: Validator<? super T>): BindingBuilder<B, T>
 }
}

Binder +-down- Binding
Binder +-down- BindingBuilder
Binding .down.> BindingValidationStatusHandler
BindingValidationStatusHandler .right.> BindingValidationStatus
BindingBuilder .down.> BindingValidationStatusHandler
Binding .down.> BindingValidationStatus
hide empty members
@enduml

PlantUML version 1.2018.08(Sun Jun 24 12:31:00 UTC 2018)
(GPL source distribution)
Java Runtime: Java(TM) SE Runtime Environment
JVM: Java HotSpot(TM) 64-Bit Server VM
Java Version: 1.7.0_25-b15
Operating System: Linux
Default Encoding: UTF-8
Language: en
Country: US
--></g></svg>