<?xml version="1.0" encoding="UTF-8" standalone="no"?><svg xmlns="http://www.w3.org/2000/svg" xmlns:xlink="http://www.w3.org/1999/xlink" contentScriptType="application/ecmascript" contentStyleType="text/css" height="499px" preserveAspectRatio="xMidYMid" style="width:755px;height:499px;" version="1.1" viewBox="0 0 755 499" width="755px" zoomAndPan="magnify"><defs><filter height="300%" id="fec6jho8a3yw6" width="300%" x="-1" y="-1"><feGaussianBlur result="blurOut" stdDeviation="2.0"/><feColorMatrix in="blurOut" result="blurOut2" type="matrix" values="0 0 0 0 0 0 0 0 0 0 0 0 0 0 0 0 0 0 .4 0"/><feOffset dx="4.0" dy="4.0" in="blurOut2" result="blurOut3"/><feBlend in="SourceGraphic" in2="blurOut3" mode="normal"/></filter></defs><g><!--cluster com.vaadin.flow.component--><polygon fill="#FFFFFF" filter="url(#fec6jho8a3yw6)" points="22,24,250,24,257,46.2969,733,46.2969,733,487,22,487,22,24" style="stroke: #000000; stroke-width: 1.5;"/><line style="stroke: #000000; stroke-width: 1.5;" x1="22" x2="257" y1="46.2969" y2="46.2969"/><text fill="#000000" font-family="sans-serif" font-size="14" font-weight="bold" lengthAdjust="spacingAndGlyphs" textLength="222" x="26" y="38.9951">com.vaadin.flow.component</text><!--cluster button--><polygon fill="#FFFFFF" filter="url(#fec6jho8a3yw6)" points="429,380,487,380,494,402.2969,535,402.2969,535,463,429,463,429,380" style="stroke: #000000; stroke-width: 1.5;"/><line style="stroke: #000000; stroke-width: 1.5;" x1="429" x2="494" y1="402.2969" y2="402.2969"/><text fill="#000000" font-family="sans-serif" font-size="14" font-weight="bold" lengthAdjust="spacingAndGlyphs" textLength="52" x="433" y="394.9951">button</text><!--class Component--><rect fill="#FEFECE" filter="url(#fec6jho8a3yw6)" height="32" id="Component" style="stroke: #A80036; stroke-width: 1.5;" width="104" x="613" y="312.5"/><ellipse cx="628" cy="328.5" fill="#A9DCDF" rx="11" ry="11" style="stroke: #A80036; stroke-width: 1.0;"/><path d="M629.5781,330.3125 L625.5313,330.3125 L625.1406,331.2969 L625.5313,331.2969 C625.9844,331.2969 626.125,331.3281 626.2969,331.4531 C626.5156,331.625 626.6406,331.875 626.6406,332.1563 C626.6406,332.4375 626.5,332.7344 626.2344,332.875 C626.1094,332.9688 625.8906,333 625.5313,333 L623.2656,333 C622.5156,333 622.1406,332.7188 622.1406,332.1563 C622.1406,331.8594 622.2969,331.5781 622.5469,331.4219 C622.7031,331.3125 622.8594,331.2969 623.2813,331.2969 L625.9219,324.7813 L624.8438,324.7813 C624.4063,324.7813 624.2344,324.75 624.0625,324.6406 C623.8438,324.4688 623.7031,324.2188 623.7031,323.9375 C623.7031,323.6563 623.8594,323.375 624.1094,323.2031 C624.2656,323.1094 624.3906,323.0938 624.8438,323.0938 L628.5156,323.0938 L631.9063,331.2969 C632.375,331.2969 632.5313,331.3281 632.7031,331.4688 C632.9219,331.625 633.0625,331.875 633.0625,332.1563 C633.0625,332.4375 632.9063,332.7344 632.6563,332.875 C632.5156,332.9688 632.2969,333 631.9375,333 L629.5781,333 C629.1563,333 628.9531,332.9531 628.8125,332.8281 C628.5938,332.6719 628.4531,332.4219 628.4531,332.1563 C628.4531,331.8594 628.6094,331.5781 628.8594,331.4219 C629.0156,331.3125 629.125,331.2969 629.5781,331.2969 L629.9688,331.2969 Z M628.875,328.6094 L627.5469,325.3438 L626.2031,328.6094 Z "/><text fill="#000000" font-family="sans-serif" font-size="12" font-style="italic" lengthAdjust="spacingAndGlyphs" textLength="72" x="642" y="332.6543">Component</text><!--class ComponentEvent--><rect fill="#FEFECE" filter="url(#fec6jho8a3yw6)" height="32" id="ComponentEvent" style="stroke: #A80036; stroke-width: 1.5;" width="280" x="168" y="59"/><ellipse cx="183" cy="75" fill="#ADD1B2" rx="11" ry="11" style="stroke: #A80036; stroke-width: 1.0;"/><path d="M185.3438,70.6719 L185.5156,70.75 C185.7344,70.4375 185.9375,70.3438 186.2344,70.3438 C186.5313,70.3438 186.8125,70.4844 186.9688,70.75 C187.0625,70.9063 187.0781,71.0313 187.0781,71.4688 L187.0781,72.8906 C187.0781,73.3125 187.0469,73.5 186.9375,73.6563 C186.7656,73.875 186.5,74.0156 186.2344,74.0156 C186.0156,74.0156 185.7813,73.9063 185.6406,73.7656 C185.5,73.6406 185.4688,73.5156 185.4063,73.1094 C185.3125,72.7031 185.1406,72.4844 184.6563,72.2031 C184.1875,71.9531 183.5781,71.7969 183,71.7969 C181.2656,71.7969 180.0156,73.1094 180.0156,74.8906 L180.0156,75.9844 C180.0156,77.6875 181.3125,78.7813 183.3594,78.7813 C184.125,78.7813 184.8125,78.6563 185.2344,78.3906 C185.4219,78.2969 185.4219,78.2969 185.875,77.8125 C186.0625,77.625 186.2656,77.5469 186.4844,77.5469 C186.9531,77.5469 187.3438,77.9375 187.3438,78.3906 C187.3438,78.7813 187.0156,79.2344 186.4375,79.6406 C185.6875,80.1875 184.5313,80.4844 183.3125,80.4844 C180.4219,80.4844 178.3125,78.5938 178.3125,76.0156 L178.3125,74.8906 C178.3125,72.1719 180.3125,70.0938 182.9375,70.0938 C183.8125,70.0938 184.4063,70.2344 185.3438,70.6719 Z "/><text fill="#000000" font-family="sans-serif" font-size="12" lengthAdjust="spacingAndGlyphs" textLength="107" x="197" y="79.1543">ComponentEvent</text><rect fill="#FFFFFF" height="15.9688" style="stroke: #000000; stroke-width: 1.0; stroke-dasharray: 2.0,2.0;" width="139" x="312" y="56"/><text fill="#000000" font-family="sans-serif" font-size="12" font-style="italic" lengthAdjust="spacingAndGlyphs" textLength="137" x="313" y="68.1387">T extends Component</text><!--class ClickEvent--><rect fill="#FEFECE" filter="url(#fec6jho8a3yw6)" height="91.2188" id="ClickEvent" style="stroke: #A80036; stroke-width: 1.5;" width="499" x="58.5" y="151"/><ellipse cx="201.25" cy="167" fill="#ADD1B2" rx="11" ry="11" style="stroke: #A80036; stroke-width: 1.0;"/><path d="M203.5938,162.6719 L203.7656,162.75 C203.9844,162.4375 204.1875,162.3438 204.4844,162.3438 C204.7813,162.3438 205.0625,162.4844 205.2188,162.75 C205.3125,162.9063 205.3281,163.0313 205.3281,163.4688 L205.3281,164.8906 C205.3281,165.3125 205.2969,165.5 205.1875,165.6563 C205.0156,165.875 204.75,166.0156 204.4844,166.0156 C204.2656,166.0156 204.0313,165.9063 203.8906,165.7656 C203.75,165.6406 203.7188,165.5156 203.6563,165.1094 C203.5625,164.7031 203.3906,164.4844 202.9063,164.2031 C202.4375,163.9531 201.8281,163.7969 201.25,163.7969 C199.5156,163.7969 198.2656,165.1094 198.2656,166.8906 L198.2656,167.9844 C198.2656,169.6875 199.5625,170.7813 201.6094,170.7813 C202.375,170.7813 203.0625,170.6563 203.4844,170.3906 C203.6719,170.2969 203.6719,170.2969 204.125,169.8125 C204.3125,169.625 204.5156,169.5469 204.7344,169.5469 C205.2031,169.5469 205.5938,169.9375 205.5938,170.3906 C205.5938,170.7813 205.2656,171.2344 204.6875,171.6406 C203.9375,172.1875 202.7813,172.4844 201.5625,172.4844 C198.6719,172.4844 196.5625,170.5938 196.5625,168.0156 L196.5625,166.8906 C196.5625,164.1719 198.5625,162.0938 201.1875,162.0938 C202.0625,162.0938 202.6563,162.2344 203.5938,162.6719 Z "/><text fill="#000000" font-family="sans-serif" font-size="12" lengthAdjust="spacingAndGlyphs" textLength="63" x="221.75" y="171.1543">ClickEvent</text><rect fill="#FFFFFF" height="15.9688" style="stroke: #000000; stroke-width: 1.0; stroke-dasharray: 2.0,2.0;" width="140" x="420.5" y="148"/><text fill="#000000" font-family="sans-serif" font-size="12" font-style="italic" lengthAdjust="spacingAndGlyphs" textLength="138" x="421.5" y="160.1387">C extends Component</text><line style="stroke: #A80036; stroke-width: 1.5;" x1="59.5" x2="556.5" y1="183" y2="183"/><ellipse cx="69.5" cy="207.707" fill="#84BE84" rx="3" ry="3" style="stroke: #038048; stroke-width: 1.0;"/><text fill="#000000" font-family="sans-serif" font-size="11" lengthAdjust="spacingAndGlyphs" textLength="449" x="78.5" y="197.2104">ClickEvent(source: Component, fromClient: boolean, screenX: int, screenY: int,</text><text fill="#000000" font-family="sans-serif" font-size="11" lengthAdjust="spacingAndGlyphs" textLength="382" x="146.5" y="210.0151">clientX: int, clientY: int, clickCount: int, button: int, ctrlKey: boolean,</text><text fill="#000000" font-family="sans-serif" font-size="11" lengthAdjust="spacingAndGlyphs" textLength="405" x="146.5" y="222.8198">boolean shiftKey: boolean, boolean altKey: boolean, metaKey: boolean)</text><ellipse cx="69.5" cy="233.3164" fill="#84BE84" rx="3" ry="3" style="stroke: #038048; stroke-width: 1.0;"/><text fill="#000000" font-family="sans-serif" font-size="11" lengthAdjust="spacingAndGlyphs" textLength="49" x="78.5" y="235.6245">getters()</text><!--class ClickNotifier--><rect fill="#FEFECE" filter="url(#fec6jho8a3yw6)" height="52.8047" id="ClickNotifier" style="stroke: #A80036; stroke-width: 1.5;" width="539" x="38.5" y="302"/><ellipse cx="267.25" cy="318" fill="#B4A7E5" rx="11" ry="11" style="stroke: #A80036; stroke-width: 1.0;"/><path d="M268.2031,314.7813 L268.2031,321.2969 L269.9219,321.2969 C270.375,321.2969 270.5156,321.3281 270.6875,321.4531 C270.9219,321.625 271.0313,321.875 271.0313,322.1563 C271.0313,322.7188 270.6719,323 269.9219,323 L264.7813,323 C264.375,323 264.1719,322.9531 264.0156,322.8281 C263.7969,322.6719 263.6563,322.4063 263.6563,322.1563 C263.6563,321.8594 263.8125,321.5781 264.0625,321.4219 C264.2188,321.3125 264.3438,321.2969 264.7813,321.2969 L266.5,321.2969 L266.5,314.7813 L264.7813,314.7813 C264.3594,314.7813 264.1719,314.75 264.0156,314.6406 C263.7969,314.4688 263.6563,314.2188 263.6563,313.9375 C263.6563,313.6563 263.8125,313.3594 264.0625,313.2031 C264.2188,313.1094 264.3438,313.0938 264.7813,313.0938 L269.9219,313.0938 C270.375,313.0938 270.5156,313.125 270.6875,313.2344 C270.9219,313.4063 271.0313,313.6719 271.0313,313.9375 C271.0313,314.2344 270.8906,314.5156 270.625,314.6719 C270.5,314.75 270.3125,314.7813 269.9219,314.7813 Z "/><text fill="#000000" font-family="sans-serif" font-size="12" font-style="italic" lengthAdjust="spacingAndGlyphs" textLength="73" x="287.75" y="322.1543">ClickNotifier</text><line style="stroke: #A80036; stroke-width: 1.5;" x1="39.5" x2="576.5" y1="334" y2="334"/><ellipse cx="49.5" cy="345.9023" fill="#84BE84" rx="3" ry="3" style="stroke: #038048; stroke-width: 1.0;"/><text fill="#000000" font-family="sans-serif" font-size="11" font-style="italic" lengthAdjust="spacingAndGlyphs" textLength="39" x="58.5" y="348.2104">default</text><text fill="#000000" font-family="sans-serif" font-size="11" lengthAdjust="spacingAndGlyphs" textLength="470" x="101.5" y="348.2104">addClickListener(listener: ComponentEventListener&lt;ClickEvent&lt;T&gt;&gt;): Registration</text><!--class Button--><rect fill="#FEFECE" filter="url(#fec6jho8a3yw6)" height="32" id="Button" style="stroke: #A80036; stroke-width: 1.5;" width="74" x="445" y="415"/><ellipse cx="460" cy="431" fill="#ADD1B2" rx="11" ry="11" style="stroke: #A80036; stroke-width: 1.0;"/><path d="M462.3438,426.6719 L462.5156,426.75 C462.7344,426.4375 462.9375,426.3438 463.2344,426.3438 C463.5313,426.3438 463.8125,426.4844 463.9688,426.75 C464.0625,426.9063 464.0781,427.0313 464.0781,427.4688 L464.0781,428.8906 C464.0781,429.3125 464.0469,429.5 463.9375,429.6563 C463.7656,429.875 463.5,430.0156 463.2344,430.0156 C463.0156,430.0156 462.7813,429.9063 462.6406,429.7656 C462.5,429.6406 462.4688,429.5156 462.4063,429.1094 C462.3125,428.7031 462.1406,428.4844 461.6563,428.2031 C461.1875,427.9531 460.5781,427.7969 460,427.7969 C458.2656,427.7969 457.0156,429.1094 457.0156,430.8906 L457.0156,431.9844 C457.0156,433.6875 458.3125,434.7813 460.3594,434.7813 C461.125,434.7813 461.8125,434.6563 462.2344,434.3906 C462.4219,434.2969 462.4219,434.2969 462.875,433.8125 C463.0625,433.625 463.2656,433.5469 463.4844,433.5469 C463.9531,433.5469 464.3438,433.9375 464.3438,434.3906 C464.3438,434.7813 464.0156,435.2344 463.4375,435.6406 C462.6875,436.1875 461.5313,436.4844 460.3125,436.4844 C457.4219,436.4844 455.3125,434.5938 455.3125,432.0156 L455.3125,430.8906 C455.3125,428.1719 457.3125,426.0938 459.9375,426.0938 C460.8125,426.0938 461.4063,426.2344 462.3438,426.6719 Z "/><text fill="#000000" font-family="sans-serif" font-size="12" lengthAdjust="spacingAndGlyphs" textLength="42" x="474" y="435.1543">Button</text><!--link ComponentEvent to ClickEvent--><path d="M308,111.569 C308,123.925 308,137.94 308,150.93 " fill="none" id="ComponentEvent-ClickEvent" style="stroke: #A80036; stroke-width: 1.0;"/><polygon fill="none" points="301,111.135,308,91.135,315,111.135,301,111.135" style="stroke: #A80036; stroke-width: 1.0;"/><!--link Component to Button--><path d="M619.828,354.308 C585.282,373.28 538.767,398.824 509.584,414.8513 " fill="none" id="Component-Button" style="stroke: #A80036; stroke-width: 1.0;"/><polygon fill="none" points="616.703,348.038,637.603,344.546,623.442,360.309,616.703,348.038" style="stroke: #A80036; stroke-width: 1.0;"/><!--link ClickNotifier to Button--><path d="M370.043,365.335 C399.531,382.367 433.198,401.813 455.847,414.8942 " fill="none" id="ClickNotifier-Button" style="stroke: #A80036; stroke-width: 1.0; stroke-dasharray: 7.0,7.0;"/><polygon fill="none" points="366.175,371.185,352.358,355.12,373.178,359.062,366.175,371.185" style="stroke: #A80036; stroke-width: 1.0;"/><!--link ClickEvent to ClickNotifier--><path d="M308,247.408 C308,265.916 308,286.152 308,301.653 " fill="none" id="ClickEvent-ClickNotifier" style="stroke: #A80036; stroke-width: 1.0; stroke-dasharray: 7.0,7.0;"/><polygon fill="#A80036" points="308,242.239,304,251.239,308,247.239,312,251.239,308,242.239" style="stroke: #A80036; stroke-width: 1.0;"/><!--
@startuml
package "com.vaadin.flow.component" {
 abstract class Component
 class ComponentEvent<T extends Component>
 class ClickEvent<C extends Component> {
  + ClickEvent(source: Component, fromClient: boolean, screenX: int, screenY: int,\n                 clientX: int, clientY: int, clickCount: int, button: int, ctrlKey: boolean,\n                 boolean shiftKey: boolean, boolean altKey: boolean, metaKey: boolean)
  + getters()
 }
 interface ClickNotifier {
  + <i>default</i> addClickListener(listener: ComponentEventListener<ClickEvent<T>>): Registration
 }
 package button {
  class Button
 }
}
ClickEvent -up-|> ComponentEvent
Button -up-|> Component
Button .up.|> ClickNotifier
ClickNotifier .up.> ClickEvent
hide empty members
@enduml

PlantUML version 1.2018.08(Sun Jun 24 12:31:00 UTC 2018)
(GPL source distribution)
Java Runtime: Java(TM) SE Runtime Environment
JVM: Java HotSpot(TM) 64-Bit Server VM
Java Version: 1.7.0_25-b15
Operating System: Linux
Default Encoding: UTF-8
Language: en
Country: US
--></g></svg>