<?xml version="1.0" encoding="UTF-8" standalone="no"?><svg xmlns="http://www.w3.org/2000/svg" xmlns:xlink="http://www.w3.org/1999/xlink" contentScriptType="application/ecmascript" contentStyleType="text/css" height="371px" preserveAspectRatio="xMidYMid" style="width:496px;height:371px;" version="1.1" viewBox="0 0 496 371" width="496px" zoomAndPan="magnify"><defs><filter height="300%" id="fen4b6z136lnb" width="300%" x="-1" y="-1"><feGaussianBlur result="blurOut" stdDeviation="2.0"/><feColorMatrix in="blurOut" result="blurOut2" type="matrix" values="0 0 0 0 0 0 0 0 0 0 0 0 0 0 0 0 0 0 .4 0"/><feOffset dx="4.0" dy="4.0" in="blurOut2" result="blurOut3"/><feBlend in="SourceGraphic" in2="blurOut3" mode="normal"/></filter></defs><g><!--cluster com.vaadin.flow--><polygon fill="#FFFFFF" filter="url(#fen4b6z136lnb)" points="22,24,156,24,163,46.2969,474,46.2969,474,359,22,359,22,24" style="stroke: #000000; stroke-width: 1.5;"/><line style="stroke: #000000; stroke-width: 1.5;" x1="22" x2="163" y1="46.2969" y2="46.2969"/><text fill="#000000" font-family="sans-serif" font-size="14" font-weight="bold" lengthAdjust="spacingAndGlyphs" textLength="128" x="26" y="38.9951">com.vaadin.flow</text><!--cluster component--><polygon fill="#FFFFFF" filter="url(#fen4b6z136lnb)" points="186,67,281,67,288,89.2969,450,89.2969,450,335,186,335,186,67" style="stroke: #000000; stroke-width: 1.5;"/><line style="stroke: #000000; stroke-width: 1.5;" x1="186" x2="288" y1="89.2969" y2="89.2969"/><text fill="#000000" font-family="sans-serif" font-size="14" font-weight="bold" lengthAdjust="spacingAndGlyphs" textLength="89" x="190" y="81.9951">component</text><!--cluster dom--><polygon fill="#FFFFFF" filter="url(#fen4b6z136lnb)" points="46,216,86,216,93,238.2969,162,238.2969,162,299,46,299,46,216" style="stroke: #000000; stroke-width: 1.5;"/><line style="stroke: #000000; stroke-width: 1.5;" x1="46" x2="93" y1="238.2969" y2="238.2969"/><text fill="#000000" font-family="sans-serif" font-size="14" font-weight="bold" lengthAdjust="spacingAndGlyphs" textLength="34" x="50" y="230.9951">dom</text><!--class HasElement--><rect fill="#FEFECE" filter="url(#fen4b6z136lnb)" height="52.8047" id="HasElement" style="stroke: #A80036; stroke-width: 1.5;" width="152" x="242" y="102"/><ellipse cx="277.7" cy="118" fill="#B4A7E5" rx="11" ry="11" style="stroke: #A80036; stroke-width: 1.0;"/><path d="M278.6531,114.7813 L278.6531,121.2969 L280.3719,121.2969 C280.825,121.2969 280.9656,121.3281 281.1375,121.4531 C281.3719,121.625 281.4813,121.875 281.4813,122.1563 C281.4813,122.7188 281.1219,123 280.3719,123 L275.2313,123 C274.825,123 274.6219,122.9531 274.4656,122.8281 C274.2469,122.6719 274.1063,122.4063 274.1063,122.1563 C274.1063,121.8594 274.2625,121.5781 274.5125,121.4219 C274.6688,121.3125 274.7938,121.2969 275.2313,121.2969 L276.95,121.2969 L276.95,114.7813 L275.2313,114.7813 C274.8094,114.7813 274.6219,114.75 274.4656,114.6406 C274.2469,114.4688 274.1063,114.2188 274.1063,113.9375 C274.1063,113.6563 274.2625,113.3594 274.5125,113.2031 C274.6688,113.1094 274.7938,113.0938 275.2313,113.0938 L280.3719,113.0938 C280.825,113.0938 280.9656,113.125 281.1375,113.2344 C281.3719,113.4063 281.4813,113.6719 281.4813,113.9375 C281.4813,114.2344 281.3406,114.5156 281.075,114.6719 C280.95,114.75 280.7625,114.7813 280.3719,114.7813 Z "/><text fill="#000000" font-family="sans-serif" font-size="12" font-style="italic" lengthAdjust="spacingAndGlyphs" textLength="74" x="296.3" y="122.1543">HasElement</text><line style="stroke: #A80036; stroke-width: 1.5;" x1="243" x2="393" y1="134" y2="134"/><ellipse cx="253" cy="145.9023" fill="#84BE84" rx="3" ry="3" style="stroke: #038048; stroke-width: 1.0;"/><text fill="#000000" font-family="sans-serif" font-size="11" font-style="italic" lengthAdjust="spacingAndGlyphs" textLength="126" x="262" y="148.2104">getElement(): Element</text><!--class Component--><rect fill="#FEFECE" filter="url(#fen4b6z136lnb)" height="104.0234" id="Component" style="stroke: #A80036; stroke-width: 1.5;" width="232" x="202" y="215"/><ellipse cx="277.75" cy="231" fill="#A9DCDF" rx="11" ry="11" style="stroke: #A80036; stroke-width: 1.0;"/><path d="M279.3281,232.8125 L275.2813,232.8125 L274.8906,233.7969 L275.2813,233.7969 C275.7344,233.7969 275.875,233.8281 276.0469,233.9531 C276.2656,234.125 276.3906,234.375 276.3906,234.6563 C276.3906,234.9375 276.25,235.2344 275.9844,235.375 C275.8594,235.4688 275.6406,235.5 275.2813,235.5 L273.0156,235.5 C272.2656,235.5 271.8906,235.2188 271.8906,234.6563 C271.8906,234.3594 272.0469,234.0781 272.2969,233.9219 C272.4531,233.8125 272.6094,233.7969 273.0313,233.7969 L275.6719,227.2813 L274.5938,227.2813 C274.1563,227.2813 273.9844,227.25 273.8125,227.1406 C273.5938,226.9688 273.4531,226.7188 273.4531,226.4375 C273.4531,226.1563 273.6094,225.875 273.8594,225.7031 C274.0156,225.6094 274.1406,225.5938 274.5938,225.5938 L278.2656,225.5938 L281.6563,233.7969 C282.125,233.7969 282.2813,233.8281 282.4531,233.9688 C282.6719,234.125 282.8125,234.375 282.8125,234.6563 C282.8125,234.9375 282.6563,235.2344 282.4063,235.375 C282.2656,235.4688 282.0469,235.5 281.6875,235.5 L279.3281,235.5 C278.9063,235.5 278.7031,235.4531 278.5625,235.3281 C278.3438,235.1719 278.2031,234.9219 278.2031,234.6563 C278.2031,234.3594 278.3594,234.0781 278.6094,233.9219 C278.7656,233.8125 278.875,233.7969 279.3281,233.7969 L279.7188,233.7969 Z M278.625,231.1094 L277.2969,227.8438 L275.9531,231.1094 Z "/><text fill="#000000" font-family="sans-serif" font-size="12" font-style="italic" lengthAdjust="spacingAndGlyphs" textLength="72" x="298.25" y="235.1543">Component</text><line style="stroke: #A80036; stroke-width: 1.5;" x1="203" x2="433" y1="247" y2="247"/><ellipse cx="213" cy="258.9023" fill="#84BE84" rx="3" ry="3" style="stroke: #038048; stroke-width: 1.0;"/><text fill="#000000" font-family="sans-serif" font-size="11" lengthAdjust="spacingAndGlyphs" textLength="201" x="222" y="261.2104">getParent(): Optional&lt;Component&gt;</text><ellipse cx="213" cy="271.707" fill="#84BE84" rx="3" ry="3" style="stroke: #038048; stroke-width: 1.0;"/><text fill="#000000" font-family="sans-serif" font-size="11" lengthAdjust="spacingAndGlyphs" textLength="206" x="222" y="274.0151">getChildren(): Stream&lt;Component&gt;</text><ellipse cx="213" cy="284.5117" fill="#84BE84" rx="3" ry="3" style="stroke: #038048; stroke-width: 1.0;"/><text fill="#000000" font-family="sans-serif" font-size="11" lengthAdjust="spacingAndGlyphs" textLength="121" x="222" y="286.8198">getUI(): Optional&lt;UI&gt;</text><ellipse cx="213" cy="297.3164" fill="#84BE84" rx="3" ry="3" style="stroke: #038048; stroke-width: 1.0;"/><text fill="#000000" font-family="sans-serif" font-size="11" lengthAdjust="spacingAndGlyphs" textLength="108" x="222" y="299.6245">isVisible(): boolean</text><ellipse cx="213" cy="310.1211" fill="#84BE84" rx="3" ry="3" style="stroke: #038048; stroke-width: 1.0;"/><text fill="#000000" font-family="sans-serif" font-size="11" lengthAdjust="spacingAndGlyphs" textLength="152" x="222" y="312.4292">setVisible(visible: boolean)</text><!--class Element--><rect fill="#FEFECE" filter="url(#fen4b6z136lnb)" height="32" id="Element" style="stroke: #A80036; stroke-width: 1.5;" width="83" x="62.5" y="251"/><ellipse cx="77.5" cy="267" fill="#ADD1B2" rx="11" ry="11" style="stroke: #A80036; stroke-width: 1.0;"/><path d="M79.8438,262.6719 L80.0156,262.75 C80.2344,262.4375 80.4375,262.3438 80.7344,262.3438 C81.0313,262.3438 81.3125,262.4844 81.4688,262.75 C81.5625,262.9063 81.5781,263.0313 81.5781,263.4688 L81.5781,264.8906 C81.5781,265.3125 81.5469,265.5 81.4375,265.6563 C81.2656,265.875 81,266.0156 80.7344,266.0156 C80.5156,266.0156 80.2813,265.9063 80.1406,265.7656 C80,265.6406 79.9688,265.5156 79.9063,265.1094 C79.8125,264.7031 79.6406,264.4844 79.1563,264.2031 C78.6875,263.9531 78.0781,263.7969 77.5,263.7969 C75.7656,263.7969 74.5156,265.1094 74.5156,266.8906 L74.5156,267.9844 C74.5156,269.6875 75.8125,270.7813 77.8594,270.7813 C78.625,270.7813 79.3125,270.6563 79.7344,270.3906 C79.9219,270.2969 79.9219,270.2969 80.375,269.8125 C80.5625,269.625 80.7656,269.5469 80.9844,269.5469 C81.4531,269.5469 81.8438,269.9375 81.8438,270.3906 C81.8438,270.7813 81.5156,271.2344 80.9375,271.6406 C80.1875,272.1875 79.0313,272.4844 77.8125,272.4844 C74.9219,272.4844 72.8125,270.5938 72.8125,268.0156 L72.8125,266.8906 C72.8125,264.1719 74.8125,262.0938 77.4375,262.0938 C78.3125,262.0938 78.9063,262.2344 79.8438,262.6719 Z "/><text fill="#000000" font-family="sans-serif" font-size="12" lengthAdjust="spacingAndGlyphs" textLength="51" x="91.5" y="271.1543">Element</text><!--link Component to Element--><path d="M201.965,267 C184.997,267 168.03,267 151.063,267 " fill="none" id="Component-Element" style="stroke: #A80036; stroke-width: 1.0;"/><polygon fill="#A80036" points="145.797,267,154.797,271,150.797,267,154.797,263,145.797,267" style="stroke: #A80036; stroke-width: 1.0;"/><text fill="#000000" font-family="sans-serif" font-size="13" lengthAdjust="spacingAndGlyphs" textLength="8" x="153.3821" y="262.8357">1</text><!--link HasElement to Component--><path d="M318,175.186 C318,187.963 318,201.929 318,214.993 " fill="none" id="HasElement-Component" style="stroke: #A80036; stroke-width: 1.0; stroke-dasharray: 7.0,7.0;"/><polygon fill="none" points="311,175.175,318,155.175,325,175.175,311,175.175" style="stroke: #A80036; stroke-width: 1.0;"/><!--
@startuml
package "com.vaadin.flow" {
 package component {
  interface HasElement {
   + {abstract} getElement(): Element
  }
  abstract class Component {  
   + getParent(): Optional<Component>
   + getChildren(): Stream<Component>
   + getUI(): Optional<UI>
   + isVisible(): boolean
   + setVisible(visible: boolean)
  }
 }
 package dom {
  class Element
 }
}
Component -right-> "1" Element
Component .up.|> HasElement

hide empty members
@enduml

PlantUML version 1.2018.08(Sun Jun 24 12:31:00 UTC 2018)
(GPL source distribution)
Java Runtime: Java(TM) SE Runtime Environment
JVM: Java HotSpot(TM) 64-Bit Server VM
Java Version: 1.7.0_25-b15
Operating System: Linux
Default Encoding: UTF-8
Language: en
Country: US
--></g></svg>