<?xml version="1.0" encoding="UTF-8" standalone="no"?><svg xmlns="http://www.w3.org/2000/svg" xmlns:xlink="http://www.w3.org/1999/xlink" contentScriptType="application/ecmascript" contentStyleType="text/css" preserveAspectRatio="xMidYMid" version="1.1" viewBox="0 0 439 84" zoomAndPan="magnify"><defs><filter height="300%" id="f1rjh3sqomz0jn" width="300%" x="-1" y="-1"><feGaussianBlur result="blurOut" stdDeviation="2.0"/><feColorMatrix in="blurOut" result="blurOut2" type="matrix" values="0 0 0 0 0 0 0 0 0 0 0 0 0 0 0 0 0 0 .4 0"/><feOffset dx="4.0" dy="4.0" in="blurOut2" result="blurOut3"/><feBlend in="SourceGraphic" in2="blurOut3" mode="normal"/></filter></defs><g><!--class Observer--><rect fill="#FEFECE" filter="url(#f1rjh3sqomz0jn)" height="52.8047" id="Observer" style="stroke: #A80036; stroke-width: 1.5;" width="86" x="6" y="14.5"/><ellipse cx="21" cy="30.5" fill="#B4A7E5" rx="11" ry="11" style="stroke: #A80036; stroke-width: 1.0;"/><path d="M21.9531,27.2813 L21.9531,33.7969 L23.6719,33.7969 C24.125,33.7969 24.2656,33.8281 24.4375,33.9531 C24.6719,34.125 24.7813,34.375 24.7813,34.6563 C24.7813,35.2188 24.4219,35.5 23.6719,35.5 L18.5313,35.5 C18.125,35.5 17.9219,35.4531 17.7656,35.3281 C17.5469,35.1719 17.4063,34.9063 17.4063,34.6563 C17.4063,34.3594 17.5625,34.0781 17.8125,33.9219 C17.9688,33.8125 18.0938,33.7969 18.5313,33.7969 L20.25,33.7969 L20.25,27.2813 L18.5313,27.2813 C18.1094,27.2813 17.9219,27.25 17.7656,27.1406 C17.5469,26.9688 17.4063,26.7188 17.4063,26.4375 C17.4063,26.1563 17.5625,25.8594 17.8125,25.7031 C17.9688,25.6094 18.0938,25.5938 18.5313,25.5938 L23.6719,25.5938 C24.125,25.5938 24.2656,25.625 24.4375,25.7344 C24.6719,25.9063 24.7813,26.1719 24.7813,26.4375 C24.7813,26.7344 24.6406,27.0156 24.375,27.1719 C24.25,27.25 24.0625,27.2813 23.6719,27.2813 Z "/><text fill="#000000" font-family="sans-serif" font-size="12" font-style="italic" lengthAdjust="spacingAndGlyphs" textLength="54" x="35" y="34.6543">Observer</text><line style="stroke: #A80036; stroke-width: 1.5;" x1="7" x2="91" y1="46.5" y2="46.5"/><ellipse cx="17" cy="58.4023" fill="#84BE84" rx="3" ry="3" style="stroke: #038048; stroke-width: 1.0;"/><text fill="#000000" font-family="sans-serif" font-size="11" font-style="italic" lengthAdjust="spacingAndGlyphs" textLength="40" x="26" y="60.7104">notify()</text><!--class Subject--><rect fill="#FEFECE" filter="url(#f1rjh3sqomz0jn)" height="32" id="Subject" style="stroke: #A80036; stroke-width: 1.5;" width="79" x="349.5" y="25"/><ellipse cx="364.5" cy="41" fill="#B4A7E5" rx="11" ry="11" style="stroke: #A80036; stroke-width: 1.0;"/><path d="M365.4531,37.7813 L365.4531,44.2969 L367.1719,44.2969 C367.625,44.2969 367.7656,44.3281 367.9375,44.4531 C368.1719,44.625 368.2813,44.875 368.2813,45.1563 C368.2813,45.7188 367.9219,46 367.1719,46 L362.0313,46 C361.625,46 361.4219,45.9531 361.2656,45.8281 C361.0469,45.6719 360.9063,45.4063 360.9063,45.1563 C360.9063,44.8594 361.0625,44.5781 361.3125,44.4219 C361.4688,44.3125 361.5938,44.2969 362.0313,44.2969 L363.75,44.2969 L363.75,37.7813 L362.0313,37.7813 C361.6094,37.7813 361.4219,37.75 361.2656,37.6406 C361.0469,37.4688 360.9063,37.2188 360.9063,36.9375 C360.9063,36.6563 361.0625,36.3594 361.3125,36.2031 C361.4688,36.1094 361.5938,36.0938 362.0313,36.0938 L367.1719,36.0938 C367.625,36.0938 367.7656,36.125 367.9375,36.2344 C368.1719,36.4063 368.2813,36.6719 368.2813,36.9375 C368.2813,37.2344 368.1406,37.5156 367.875,37.6719 C367.75,37.75 367.5625,37.7813 367.1719,37.7813 Z "/><text fill="#000000" font-family="sans-serif" font-size="12" font-style="italic" lengthAdjust="spacingAndGlyphs" textLength="47" x="378.5" y="45.1543">Subject</text><!--class EventBus--><rect fill="#FEFECE" filter="url(#f1rjh3sqomz0jn)" height="65.6094" id="EventBus" style="stroke: #A80036; stroke-width: 1.5;" width="187" x="127.5" y="8"/><ellipse cx="187.75" cy="24" fill="#ADD1B2" rx="11" ry="11" style="stroke: #A80036; stroke-width: 1.0;"/><path d="M190.0938,19.6719 L190.2656,19.75 C190.4844,19.4375 190.6875,19.3438 190.9844,19.3438 C191.2813,19.3438 191.5625,19.4844 191.7188,19.75 C191.8125,19.9063 191.8281,20.0313 191.8281,20.4688 L191.8281,21.8906 C191.8281,22.3125 191.7969,22.5 191.6875,22.6563 C191.5156,22.875 191.25,23.0156 190.9844,23.0156 C190.7656,23.0156 190.5313,22.9063 190.3906,22.7656 C190.25,22.6406 190.2188,22.5156 190.1563,22.1094 C190.0625,21.7031 189.8906,21.4844 189.4063,21.2031 C188.9375,20.9531 188.3281,20.7969 187.75,20.7969 C186.0156,20.7969 184.7656,22.1094 184.7656,23.8906 L184.7656,24.9844 C184.7656,26.6875 186.0625,27.7813 188.1094,27.7813 C188.875,27.7813 189.5625,27.6563 189.9844,27.3906 C190.1719,27.2969 190.1719,27.2969 190.625,26.8125 C190.8125,26.625 191.0156,26.5469 191.2344,26.5469 C191.7031,26.5469 192.0938,26.9375 192.0938,27.3906 C192.0938,27.7813 191.7656,28.2344 191.1875,28.6406 C190.4375,29.1875 189.2813,29.4844 188.0625,29.4844 C185.1719,29.4844 183.0625,27.5938 183.0625,25.0156 L183.0625,23.8906 C183.0625,21.1719 185.0625,19.0938 187.6875,19.0938 C188.5625,19.0938 189.1563,19.2344 190.0938,19.6719 Z "/><text fill="#000000" font-family="sans-serif" font-size="12" lengthAdjust="spacingAndGlyphs" textLength="58" x="208.25" y="28.1543">EventBus</text><line style="stroke: #A80036; stroke-width: 1.5;" x1="128.5" x2="313.5" y1="40" y2="40"/><ellipse cx="138.5" cy="51.9023" fill="#84BE84" rx="3" ry="3" style="stroke: #038048; stroke-width: 1.0;"/><text fill="#000000" font-family="sans-serif" font-size="11" lengthAdjust="spacingAndGlyphs" textLength="161" x="147.5" y="54.2104">register(Observer:observer)</text><ellipse cx="138.5" cy="64.707" fill="#84BE84" rx="3" ry="3" style="stroke: #038048; stroke-width: 1.0;"/><text fill="#000000" font-family="sans-serif" font-size="11" lengthAdjust="spacingAndGlyphs" textLength="49" x="147.5" y="67.0151">publish()</text><!--link Observer to EventBus--><path d="M97.5209,41 C107.436,41 117.351,41 127.266,41 " fill="none" id="Observer-EventBus" style="stroke: #A80036; stroke-width: 1.0;"/><polygon fill="#A80036" points="92.3359,41,101.3359,45,97.3359,41,101.3359,37,92.3359,41" style="stroke: #A80036; stroke-width: 1.0;"/><text fill="#000000" font-family="sans-serif" font-size="13" lengthAdjust="spacingAndGlyphs" textLength="7" x="100.0931" y="36.8519">*</text><text fill="#000000" font-family="sans-serif" font-size="13" lengthAdjust="spacingAndGlyphs" textLength="7" x="112.5177" y="37.4901">*</text><!--link EventBus to Subject--><path d="M319.698,41 C329.609,41 339.52,41 349.43,41 " fill="none" id="EventBus-Subject" style="stroke: #A80036; stroke-width: 1.0;"/><polygon fill="#A80036" points="314.516,41,323.516,45,319.516,41,323.516,37,314.516,41" style="stroke: #A80036; stroke-width: 1.0;"/><text fill="#000000" font-family="sans-serif" font-size="13" lengthAdjust="spacingAndGlyphs" textLength="8" x="322.5915" y="37.4675">1</text><!--
@startuml
interface Observer {
 + {abstract} notify()
 }
interface Subject
class EventBus {
 + register(Observer:observer)
 + publish()
}

EventBus "*" -left-> "*" Observer
Subject -left-> "1" EventBus

hide empty attributes
hide empty methods
@enduml

PlantUML version 1.2017.20beta1(Unknown compile time)
(GPL source distribution)
Java Runtime: Java(TM) SE Runtime Environment
JVM: Java HotSpot(TM) 64-Bit Server VM
Java Version: 1.7.0_25-b15
Operating System: Linux
Default Encoding: UTF-8
Language: en
Country: US
--></g></svg>