<?xml version="1.0" encoding="UTF-8" standalone="no"?><svg xmlns="http://www.w3.org/2000/svg" xmlns:xlink="http://www.w3.org/1999/xlink" contentScriptType="application/ecmascript" contentStyleType="text/css" height="654px" preserveAspectRatio="xMidYMid" style="width:1181px;height:654px;" version="1.1" viewBox="0 0 1181 654" width="1181px" zoomAndPan="magnify"><defs><filter height="300%" id="f1wifc0qywy6bu" width="300%" x="-1" y="-1"><feGaussianBlur result="blurOut" stdDeviation="2.0"/><feColorMatrix in="blurOut" result="blurOut2" type="matrix" values="0 0 0 0 0 0 0 0 0 0 0 0 0 0 0 0 0 0 .4 0"/><feOffset dx="4.0" dy="4.0" in="blurOut2" result="blurOut3"/><feBlend in="SourceGraphic" in2="blurOut3" mode="normal"/></filter></defs><g><!--cluster com.vaadin.flow--><polygon fill="#FFFFFF" filter="url(#f1wifc0qywy6bu)" points="22,24,156,24,163,46.2969,1159,46.2969,1159,642,22,642,22,24" style="stroke: #000000; stroke-width: 1.5;"/><line style="stroke: #000000; stroke-width: 1.5;" x1="22" x2="163" y1="46.2969" y2="46.2969"/><text fill="#000000" font-family="sans-serif" font-size="14" font-weight="bold" lengthAdjust="spacingAndGlyphs" textLength="128" x="26" y="38.9951">com.vaadin.flow</text><!--cluster component.grid--><polygon fill="#FFFFFF" filter="url(#f1wifc0qywy6bu)" points="46,67,177,67,184,89.2969,1135,89.2969,1135,477,46,477,46,67" style="stroke: #000000; stroke-width: 1.5;"/><line style="stroke: #000000; stroke-width: 1.5;" x1="46" x2="184" y1="89.2969" y2="89.2969"/><text fill="#000000" font-family="sans-serif" font-size="14" font-weight="bold" lengthAdjust="spacingAndGlyphs" textLength="125" x="50" y="81.9951">component.grid</text><!--cluster data.renderer--><polygon fill="#FFFFFF" filter="url(#f1wifc0qywy6bu)" points="46,501,162,501,169,523.2969,580,523.2969,580,618,46,618,46,501" style="stroke: #000000; stroke-width: 1.5;"/><line style="stroke: #000000; stroke-width: 1.5;" x1="46" x2="169" y1="523.2969" y2="523.2969"/><text fill="#000000" font-family="sans-serif" font-size="14" font-weight="bold" lengthAdjust="spacingAndGlyphs" textLength="110" x="50" y="515.9951">data.renderer</text><!--class Grid--><rect fill="#FEFECE" filter="url(#f1wifc0qywy6bu)" height="358.5078" id="Grid" style="stroke: #A80036; stroke-width: 1.5;" width="622" x="497" y="102"/><ellipse cx="785.75" cy="118" fill="#ADD1B2" rx="11" ry="11" style="stroke: #A80036; stroke-width: 1.0;"/><path d="M788.0938,113.6719 L788.2656,113.75 C788.4844,113.4375 788.6875,113.3438 788.9844,113.3438 C789.2813,113.3438 789.5625,113.4844 789.7188,113.75 C789.8125,113.9063 789.8281,114.0313 789.8281,114.4688 L789.8281,115.8906 C789.8281,116.3125 789.7969,116.5 789.6875,116.6563 C789.5156,116.875 789.25,117.0156 788.9844,117.0156 C788.7656,117.0156 788.5313,116.9063 788.3906,116.7656 C788.25,116.6406 788.2188,116.5156 788.1563,116.1094 C788.0625,115.7031 787.8906,115.4844 787.4063,115.2031 C786.9375,114.9531 786.3281,114.7969 785.75,114.7969 C784.0156,114.7969 782.7656,116.1094 782.7656,117.8906 L782.7656,118.9844 C782.7656,120.6875 784.0625,121.7813 786.1094,121.7813 C786.875,121.7813 787.5625,121.6563 787.9844,121.3906 C788.1719,121.2969 788.1719,121.2969 788.625,120.8125 C788.8125,120.625 789.0156,120.5469 789.2344,120.5469 C789.7031,120.5469 790.0938,120.9375 790.0938,121.3906 C790.0938,121.7813 789.7656,122.2344 789.1875,122.6406 C788.4375,123.1875 787.2813,123.4844 786.0625,123.4844 C783.1719,123.4844 781.0625,121.5938 781.0625,119.0156 L781.0625,117.8906 C781.0625,115.1719 783.0625,113.0938 785.6875,113.0938 C786.5625,113.0938 787.1563,113.2344 788.0938,113.6719 Z "/><text fill="#000000" font-family="sans-serif" font-size="12" lengthAdjust="spacingAndGlyphs" textLength="25" x="806.25" y="122.1543">Grid</text><rect fill="#FFFFFF" height="15.9688" style="stroke: #000000; stroke-width: 1.0; stroke-dasharray: 2.0,2.0;" width="9" x="1113" y="99"/><text fill="#000000" font-family="sans-serif" font-size="12" font-style="italic" lengthAdjust="spacingAndGlyphs" textLength="7" x="1114" y="111.1387">T</text><line style="stroke: #A80036; stroke-width: 1.5;" x1="498" x2="1118" y1="134" y2="134"/><ellipse cx="508" cy="145.9023" fill="#84BE84" rx="3" ry="3" style="stroke: #038048; stroke-width: 1.0;"/><text fill="#000000" font-family="sans-serif" font-size="11" lengthAdjust="spacingAndGlyphs" textLength="32" x="517" y="148.2104">Grid()</text><ellipse cx="508" cy="158.707" fill="#84BE84" rx="3" ry="3" style="stroke: #038048; stroke-width: 1.0;"/><text fill="#000000" font-family="sans-serif" font-size="11" lengthAdjust="spacingAndGlyphs" textLength="152" x="517" y="161.0151">Grid(beanType: Class&lt;T&gt;)</text><ellipse cx="508" cy="171.5117" fill="#84BE84" rx="3" ry="3" style="stroke: #038048; stroke-width: 1.0;"/><text fill="#000000" font-family="sans-serif" font-size="11" lengthAdjust="spacingAndGlyphs" textLength="105" x="517" y="173.8198">Grid(pageSize: int)</text><line style="stroke: #A80036; stroke-width: 1.0; stroke-dasharray: 1.0,2.0;" x1="498" x2="1118" y1="180.4141" y2="180.4141"/><ellipse cx="508" cy="192.3164" fill="#84BE84" rx="3" ry="3" style="stroke: #038048; stroke-width: 1.0;"/><text fill="#000000" font-family="sans-serif" font-size="11" lengthAdjust="spacingAndGlyphs" textLength="283" x="517" y="194.6245">addColumn(renderer: Renderer&lt;T&gt;): Column&lt;T&gt;</text><ellipse cx="508" cy="205.1211" fill="#84BE84" rx="3" ry="3" style="stroke: #038048; stroke-width: 1.0;"/><text fill="#000000" font-family="sans-serif" font-size="11" lengthAdjust="spacingAndGlyphs" textLength="444" x="517" y="207.4292">addColumn(renderer: Renderer&lt;T&gt;, sortingProperties: String...): Column&lt;T&gt;</text><ellipse cx="508" cy="217.9258" fill="#84BE84" rx="3" ry="3" style="stroke: #038048; stroke-width: 1.0;"/><text fill="#000000" font-family="sans-serif" font-size="11" lengthAdjust="spacingAndGlyphs" textLength="271" x="517" y="220.2339">addColumn(propertyName: String): Column&lt;T&gt;</text><ellipse cx="508" cy="230.7305" fill="#84BE84" rx="3" ry="3" style="stroke: #038048; stroke-width: 1.0;"/><text fill="#000000" font-family="sans-serif" font-size="11" lengthAdjust="spacingAndGlyphs" textLength="350" x="517" y="233.0386">addColumn(valueProvider: ValueProvider&lt;T, ?&gt;): Column&lt;T&gt;</text><ellipse cx="508" cy="243.5352" fill="#84BE84" rx="3" ry="3" style="stroke: #038048; stroke-width: 1.0;"/><text fill="#000000" font-family="sans-serif" font-size="11" lengthAdjust="spacingAndGlyphs" textLength="596" x="517" y="245.8433">&lt;V extends Component&gt; addComponentColumn(componentProvider: ValueProvider&lt;T, V&gt;): Column&lt;T&gt;</text><ellipse cx="508" cy="256.3398" fill="#84BE84" rx="3" ry="3" style="stroke: #038048; stroke-width: 1.0;"/><text fill="#000000" font-family="sans-serif" font-size="11" lengthAdjust="spacingAndGlyphs" textLength="282" x="517" y="258.6479">getColumnByKey(columnKey: String): Column&lt;T&gt;</text><ellipse cx="508" cy="269.1445" fill="#84BE84" rx="3" ry="3" style="stroke: #038048; stroke-width: 1.0;"/><text fill="#000000" font-family="sans-serif" font-size="11" lengthAdjust="spacingAndGlyphs" textLength="165" x="517" y="271.4526">getColumns(): List&lt;Column&gt;</text><ellipse cx="508" cy="281.9492" fill="#84BE84" rx="3" ry="3" style="stroke: #038048; stroke-width: 1.0;"/><text fill="#000000" font-family="sans-serif" font-size="11" lengthAdjust="spacingAndGlyphs" textLength="211" x="517" y="284.2573">removeColumn(column: Column&lt;T&gt;)</text><ellipse cx="508" cy="294.7539" fill="#84BE84" rx="3" ry="3" style="stroke: #038048; stroke-width: 1.0;"/><text fill="#000000" font-family="sans-serif" font-size="11" lengthAdjust="spacingAndGlyphs" textLength="231" x="517" y="297.062">removeColumnByKey(columnKey: String)</text><ellipse cx="508" cy="307.5586" fill="#84BE84" rx="3" ry="3" style="stroke: #038048; stroke-width: 1.0;"/><text fill="#000000" font-family="sans-serif" font-size="11" lengthAdjust="spacingAndGlyphs" textLength="218" x="517" y="309.8667">setColumns(propertyNames: String...)</text><line style="stroke: #A80036; stroke-width: 1.0; stroke-dasharray: 1.0,2.0;" x1="498" x2="1118" y1="316.4609" y2="316.4609"/><ellipse cx="508" cy="328.3633" fill="#84BE84" rx="3" ry="3" style="stroke: #038048; stroke-width: 1.0;"/><text fill="#000000" font-family="sans-serif" font-size="11" lengthAdjust="spacingAndGlyphs" textLength="186" x="517" y="330.6714">appendHeaderRow(): HeaderRow</text><ellipse cx="508" cy="341.168" fill="#84BE84" rx="3" ry="3" style="stroke: #038048; stroke-width: 1.0;"/><text fill="#000000" font-family="sans-serif" font-size="11" lengthAdjust="spacingAndGlyphs" textLength="191" x="517" y="343.4761">prependHeaderRow(): HeaderRow</text><ellipse cx="508" cy="353.9727" fill="#84BE84" rx="3" ry="3" style="stroke: #038048; stroke-width: 1.0;"/><text fill="#000000" font-family="sans-serif" font-size="11" lengthAdjust="spacingAndGlyphs" textLength="207" x="517" y="356.2808">getHeaderRows(): List&lt;HeaderRow&gt;</text><ellipse cx="508" cy="366.7773" fill="#84BE84" rx="3" ry="3" style="stroke: #038048; stroke-width: 1.0;"/><text fill="#000000" font-family="sans-serif" font-size="11" lengthAdjust="spacingAndGlyphs" textLength="176" x="517" y="369.0854">appendFooterRow(): FooterRow</text><ellipse cx="508" cy="379.582" fill="#84BE84" rx="3" ry="3" style="stroke: #038048; stroke-width: 1.0;"/><text fill="#000000" font-family="sans-serif" font-size="11" lengthAdjust="spacingAndGlyphs" textLength="181" x="517" y="381.8901">prependFooterRow(): FooterRow</text><ellipse cx="508" cy="392.3867" fill="#84BE84" rx="3" ry="3" style="stroke: #038048; stroke-width: 1.0;"/><text fill="#000000" font-family="sans-serif" font-size="11" lengthAdjust="spacingAndGlyphs" textLength="197" x="517" y="394.6948">getFooterRows(): List&lt;FooterRow&gt;</text><line style="stroke: #A80036; stroke-width: 1.0; stroke-dasharray: 1.0,2.0;" x1="498" x2="1118" y1="401.2891" y2="401.2891"/><ellipse cx="508" cy="413.1914" fill="#84BE84" rx="3" ry="3" style="stroke: #038048; stroke-width: 1.0;"/><text fill="#000000" font-family="sans-serif" font-size="11" lengthAdjust="spacingAndGlyphs" textLength="96" x="517" y="415.4995">deselect(item: T)</text><ellipse cx="508" cy="425.9961" fill="#84BE84" rx="3" ry="3" style="stroke: #038048; stroke-width: 1.0;"/><text fill="#000000" font-family="sans-serif" font-size="11" lengthAdjust="spacingAndGlyphs" textLength="69" x="517" y="428.3042">deselectAll()</text><ellipse cx="508" cy="438.8008" fill="#84BE84" rx="3" ry="3" style="stroke: #038048; stroke-width: 1.0;"/><text fill="#000000" font-family="sans-serif" font-size="11" lengthAdjust="spacingAndGlyphs" textLength="82" x="517" y="441.1089">select(item: T)</text><ellipse cx="508" cy="451.6055" fill="#84BE84" rx="3" ry="3" style="stroke: #038048; stroke-width: 1.0;"/><text fill="#000000" font-family="sans-serif" font-size="11" lengthAdjust="spacingAndGlyphs" textLength="159" x="517" y="453.9136">getSelectedItems(): Set&lt;T&gt;</text><!--class Column--><rect fill="#FEFECE" filter="url(#f1wifc0qywy6bu)" height="219.2656" id="Column" style="stroke: #A80036; stroke-width: 1.5;" width="399" x="62.5" y="172"/><ellipse cx="229.25" cy="188" fill="#ADD1B2" rx="11" ry="11" style="stroke: #A80036; stroke-width: 1.0;"/><path d="M231.5938,183.6719 L231.7656,183.75 C231.9844,183.4375 232.1875,183.3438 232.4844,183.3438 C232.7813,183.3438 233.0625,183.4844 233.2188,183.75 C233.3125,183.9063 233.3281,184.0313 233.3281,184.4688 L233.3281,185.8906 C233.3281,186.3125 233.2969,186.5 233.1875,186.6563 C233.0156,186.875 232.75,187.0156 232.4844,187.0156 C232.2656,187.0156 232.0313,186.9063 231.8906,186.7656 C231.75,186.6406 231.7188,186.5156 231.6563,186.1094 C231.5625,185.7031 231.3906,185.4844 230.9063,185.2031 C230.4375,184.9531 229.8281,184.7969 229.25,184.7969 C227.5156,184.7969 226.2656,186.1094 226.2656,187.8906 L226.2656,188.9844 C226.2656,190.6875 227.5625,191.7813 229.6094,191.7813 C230.375,191.7813 231.0625,191.6563 231.4844,191.3906 C231.6719,191.2969 231.6719,191.2969 232.125,190.8125 C232.3125,190.625 232.5156,190.5469 232.7344,190.5469 C233.2031,190.5469 233.5938,190.9375 233.5938,191.3906 C233.5938,191.7813 233.2656,192.2344 232.6875,192.6406 C231.9375,193.1875 230.7813,193.4844 229.5625,193.4844 C226.6719,193.4844 224.5625,191.5938 224.5625,189.0156 L224.5625,187.8906 C224.5625,185.1719 226.5625,183.0938 229.1875,183.0938 C230.0625,183.0938 230.6563,183.2344 231.5938,183.6719 Z "/><text fill="#000000" font-family="sans-serif" font-size="12" lengthAdjust="spacingAndGlyphs" textLength="46" x="249.75" y="192.1543">Column</text><rect fill="#FFFFFF" height="15.9688" style="stroke: #000000; stroke-width: 1.0; stroke-dasharray: 2.0,2.0;" width="9" x="455.5" y="169"/><text fill="#000000" font-family="sans-serif" font-size="12" font-style="italic" lengthAdjust="spacingAndGlyphs" textLength="7" x="456.5" y="181.1387">T</text><line style="stroke: #A80036; stroke-width: 1.5;" x1="63.5" x2="460.5" y1="204" y2="204"/><ellipse cx="73.5" cy="215.9023" fill="#84BE84" rx="3" ry="3" style="stroke: #038048; stroke-width: 1.0;"/><text fill="#000000" font-family="sans-serif" font-size="11" lengthAdjust="spacingAndGlyphs" textLength="331" x="82.5" y="218.2104">(grid: Grid&lt;T&gt;, columnId: String, renderer: Renderer&lt;T&gt;)</text><ellipse cx="73.5" cy="228.707" fill="#84BE84" rx="3" ry="3" style="stroke: #038048; stroke-width: 1.0;"/><text fill="#000000" font-family="sans-serif" font-size="11" lengthAdjust="spacingAndGlyphs" textLength="350" x="82.5" y="231.0151">getComparator(sortDirection: SortDirection): Comparator&lt;T&gt;</text><ellipse cx="73.5" cy="241.5117" fill="#84BE84" rx="3" ry="3" style="stroke: #038048; stroke-width: 1.0;"/><text fill="#000000" font-family="sans-serif" font-size="11" lengthAdjust="spacingAndGlyphs" textLength="88" x="82.5" y="243.8198">getKey(): String</text><ellipse cx="73.5" cy="254.3164" fill="#84BE84" rx="3" ry="3" style="stroke: #038048; stroke-width: 1.0;"/><text fill="#000000" font-family="sans-serif" font-size="11" lengthAdjust="spacingAndGlyphs" textLength="373" x="82.5" y="256.6245">getSortOrder(direction: SortDirection): Stream&lt;QuerySortOrder&gt;</text><ellipse cx="73.5" cy="267.1211" fill="#84BE84" rx="3" ry="3" style="stroke: #038048; stroke-width: 1.0;"/><text fill="#000000" font-family="sans-serif" font-size="11" lengthAdjust="spacingAndGlyphs" textLength="119" x="82.5" y="269.4292">isSortable(): boolean</text><ellipse cx="73.5" cy="279.9258" fill="#84BE84" rx="3" ry="3" style="stroke: #038048; stroke-width: 1.0;"/><text fill="#000000" font-family="sans-serif" font-size="11" lengthAdjust="spacingAndGlyphs" textLength="337" x="82.5" y="282.2339">setComparator(comparator: Comparator&lt;T&gt;): Column&lt;T&gt;</text><ellipse cx="73.5" cy="292.7305" fill="#84BE84" rx="3" ry="3" style="stroke: #038048; stroke-width: 1.0;"/><text fill="#000000" font-family="sans-serif" font-size="11" lengthAdjust="spacingAndGlyphs" textLength="310" x="82.5" y="295.0386">setFooter(footerComponent: Component): Column&lt;T&gt;</text><ellipse cx="73.5" cy="305.5352" fill="#84BE84" rx="3" ry="3" style="stroke: #038048; stroke-width: 1.0;"/><text fill="#000000" font-family="sans-serif" font-size="11" lengthAdjust="spacingAndGlyphs" textLength="231" x="82.5" y="307.8433">setFooter(labelText: String): Column&lt;T&gt;</text><ellipse cx="73.5" cy="318.3398" fill="#84BE84" rx="3" ry="3" style="stroke: #038048; stroke-width: 1.0;"/><text fill="#000000" font-family="sans-serif" font-size="11" lengthAdjust="spacingAndGlyphs" textLength="321" x="82.5" y="320.6479">setHeader(headerComponent: Component): Column&lt;T&gt;</text><ellipse cx="73.5" cy="331.1445" fill="#84BE84" rx="3" ry="3" style="stroke: #038048; stroke-width: 1.0;"/><text fill="#000000" font-family="sans-serif" font-size="11" lengthAdjust="spacingAndGlyphs" textLength="236" x="82.5" y="333.4526">setHeader(labelText: String): Column&lt;T&gt;</text><ellipse cx="73.5" cy="343.9492" fill="#84BE84" rx="3" ry="3" style="stroke: #038048; stroke-width: 1.0;"/><text fill="#000000" font-family="sans-serif" font-size="11" lengthAdjust="spacingAndGlyphs" textLength="183" x="82.5" y="346.2573">setKey(key: String): Column&lt;T&gt;</text><ellipse cx="73.5" cy="356.7539" fill="#84BE84" rx="3" ry="3" style="stroke: #038048; stroke-width: 1.0;"/><text fill="#000000" font-family="sans-serif" font-size="11" lengthAdjust="spacingAndGlyphs" textLength="250" x="82.5" y="359.062">setSortable(sortable: boolean): Column&lt;T&gt;</text><ellipse cx="73.5" cy="369.5586" fill="#84BE84" rx="3" ry="3" style="stroke: #038048; stroke-width: 1.0;"/><text fill="#000000" font-family="sans-serif" font-size="11" lengthAdjust="spacingAndGlyphs" textLength="365" x="82.5" y="371.8667">setSortOrderProvider(provider: SortOrderProvider): Column&lt;T&gt;</text><ellipse cx="73.5" cy="382.3633" fill="#84BE84" rx="3" ry="3" style="stroke: #038048; stroke-width: 1.0;"/><text fill="#000000" font-family="sans-serif" font-size="11" lengthAdjust="spacingAndGlyphs" textLength="211" x="82.5" y="384.6714">setSortProperty(properties: String...)</text><!--class Renderer--><rect fill="#FEFECE" filter="url(#f1wifc0qywy6bu)" height="65.6094" id="Renderer" style="stroke: #A80036; stroke-width: 1.5;" width="501" x="62.5" y="536"/><ellipse cx="273.75" cy="552" fill="#ADD1B2" rx="11" ry="11" style="stroke: #A80036; stroke-width: 1.0;"/><path d="M276.0938,547.6719 L276.2656,547.75 C276.4844,547.4375 276.6875,547.3438 276.9844,547.3438 C277.2813,547.3438 277.5625,547.4844 277.7188,547.75 C277.8125,547.9063 277.8281,548.0313 277.8281,548.4688 L277.8281,549.8906 C277.8281,550.3125 277.7969,550.5 277.6875,550.6563 C277.5156,550.875 277.25,551.0156 276.9844,551.0156 C276.7656,551.0156 276.5313,550.9063 276.3906,550.7656 C276.25,550.6406 276.2188,550.5156 276.1563,550.1094 C276.0625,549.7031 275.8906,549.4844 275.4063,549.2031 C274.9375,548.9531 274.3281,548.7969 273.75,548.7969 C272.0156,548.7969 270.7656,550.1094 270.7656,551.8906 L270.7656,552.9844 C270.7656,554.6875 272.0625,555.7813 274.1094,555.7813 C274.875,555.7813 275.5625,555.6563 275.9844,555.3906 C276.1719,555.2969 276.1719,555.2969 276.625,554.8125 C276.8125,554.625 277.0156,554.5469 277.2344,554.5469 C277.7031,554.5469 278.0938,554.9375 278.0938,555.3906 C278.0938,555.7813 277.7656,556.2344 277.1875,556.6406 C276.4375,557.1875 275.2813,557.4844 274.0625,557.4844 C271.1719,557.4844 269.0625,555.5938 269.0625,553.0156 L269.0625,551.8906 C269.0625,549.1719 271.0625,547.0938 273.6875,547.0938 C274.5625,547.0938 275.1563,547.2344 276.0938,547.6719 Z "/><text fill="#000000" font-family="sans-serif" font-size="12" lengthAdjust="spacingAndGlyphs" textLength="58" x="294.25" y="556.1543">Renderer</text><rect fill="#FFFFFF" height="15.9688" style="stroke: #000000; stroke-width: 1.0; stroke-dasharray: 2.0,2.0;" width="10" x="556.5" y="533"/><text fill="#000000" font-family="sans-serif" font-size="12" font-style="italic" lengthAdjust="spacingAndGlyphs" textLength="8" x="557.5" y="545.1387">S</text><line style="stroke: #A80036; stroke-width: 1.5;" x1="63.5" x2="562.5" y1="568" y2="568"/><ellipse cx="73.5" cy="579.9023" fill="#84BE84" rx="3" ry="3" style="stroke: #038048; stroke-width: 1.0;"/><text fill="#000000" font-family="sans-serif" font-size="11" lengthAdjust="spacingAndGlyphs" textLength="318" x="82.5" y="582.2104">render(container: Element, keyMapper: DataKeyMapper)</text><ellipse cx="73.5" cy="592.707" fill="#84BE84" rx="3" ry="3" style="stroke: #038048; stroke-width: 1.0;"/><text fill="#000000" font-family="sans-serif" font-size="11" lengthAdjust="spacingAndGlyphs" textLength="475" x="82.5" y="595.0151">render(container: Element, keyMapper: DataKeyMapper, contentTemplate: Element)</text><!--link Column to Grid--><path d="M466.631,358.474 C476.706,359.992 486.782,361.175 496.857,362.022 " fill="none" id="Column-Grid" style="stroke: #A80036; stroke-width: 1.0;"/><polygon fill="#A80036" points="461.685,357.702,469.9601,363.0427,466.6251,358.4734,471.1944,355.1385,461.685,357.702" style="stroke: #A80036; stroke-width: 1.0;"/><text fill="#000000" font-family="sans-serif" font-size="13" lengthAdjust="spacingAndGlyphs" textLength="7" x="469.6219" y="357.45">*</text><!--link Column to Grid--><path d="M461.685,205.298 C468.371,204.218 475.058,203.285 481.744,202.5 " fill="none" id="Column-Grid" style="stroke: #A80036; stroke-width: 1.0;"/><ellipse cx="488.8973" cy="201.7795" fill="#FFFFFF" rx="8" ry="8" style="stroke: #A80036; stroke-width: 1.0;"/><line style="stroke: #A80036; stroke-width: 1.0;" x1="480.9375" x2="496.857" y1="202.5811" y2="200.978"/><line style="stroke: #A80036; stroke-width: 1.0;" x1="488.0957" x2="489.6988" y1="193.8198" y2="209.7393"/><!--link Column to Renderer--><path d="M281.426,391.25 C290.227,440.514 300.052,495.514 306.369,530.879 " fill="none" id="Column-Renderer" style="stroke: #A80036; stroke-width: 1.0; stroke-dasharray: 7.0,7.0;"/><polygon fill="#A80036" points="307.275,535.951,309.6284,526.3874,306.3949,531.0291,301.7533,527.7956,307.275,535.951" style="stroke: #A80036; stroke-width: 1.0;"/><!--
@startuml
package "com.vaadin.flow" {
 package "component.grid" {
  class Grid<T> {
   + Grid()
   + Grid(beanType: Class<T>)
   + Grid(pageSize: int)
....
   + addColumn(renderer: Renderer<T>): Column<T>
   + addColumn(renderer: Renderer<T>, sortingProperties: String...): Column<T>
   + addColumn(propertyName: String): Column<T>
   + addColumn(valueProvider: ValueProvider<T, ?>): Column<T>
   + <V extends Component> addComponentColumn(componentProvider: ValueProvider<T, V>): Column<T>
   + getColumnByKey(columnKey: String): Column<T>
   + getColumns(): List<Column>
   + removeColumn(column: Column<T>)
   + removeColumnByKey(columnKey: String)
   + setColumns(propertyNames: String...)
....
   + appendHeaderRow(): HeaderRow
   + prependHeaderRow(): HeaderRow
   + getHeaderRows(): List<HeaderRow>
   + appendFooterRow(): FooterRow
   + prependFooterRow(): FooterRow
   + getFooterRows(): List<FooterRow>
....
   + deselect(item: T)
   + deselectAll()
   + select(item: T)
   + getSelectedItems(): Set<T>
  }
  class Column<T> {
   + (grid: Grid<T>, columnId: String, renderer: Renderer<T>)
   + getComparator(sortDirection: SortDirection): Comparator<T>
   + getKey(): String 
   + getSortOrder(direction: SortDirection): Stream<QuerySortOrder>
   + isSortable(): boolean
   + setComparator(comparator: Comparator<T>): Column<T>
   + setFooter(footerComponent: Component): Column<T>
   + setFooter(labelText: String): Column<T>
   + setHeader(headerComponent: Component): Column<T>
   + setHeader(labelText: String): Column<T>
   + setKey(key: String): Column<T>
   + setSortable(sortable: boolean): Column<T>
   + setSortOrderProvider(provider: SortOrderProvider): Column<T>
   + setSortProperty(properties: String...)
  }
 }
 package "data.renderer" {
  class Renderer<S> {
   + render(container: Element, keyMapper: DataKeyMapper)
   + render(container: Element, keyMapper: DataKeyMapper, contentTemplate: Element)
  }
 }
}

Grid -left-> "*" Column
Column -+ Grid
Column ..> Renderer
hide empty members
@enduml

PlantUML version 1.2018.08(Sun Jun 24 12:31:00 UTC 2018)
(GPL source distribution)
Java Runtime: Java(TM) SE Runtime Environment
JVM: Java HotSpot(TM) 64-Bit Server VM
Java Version: 1.7.0_25-b15
Operating System: Linux
Default Encoding: UTF-8
Language: en
Country: US
--></g></svg>