<?xml version="1.0" encoding="UTF-8" standalone="no"?>
<svg xmlns="http://www.w3.org/2000/svg" xmlns:xlink="http://www.w3.org/1999/xlink" contentScriptType="application/ecmascript" contentStyleType="text/css" height="679px" preserveAspectRatio="none" style="width:1181px;height:679px;" version="1.1" viewBox="0 0 1181 679" width="1181px" zoomAndPan="magnify"><defs><filter height="300%" id="fjnlpr2do2yk7" width="300%" x="-1" y="-1"><feGaussianBlur result="blurOut" stdDeviation="2.0"/><feColorMatrix in="blurOut" result="blurOut2" type="matrix" values="0 0 0 0 0 0 0 0 0 0 0 0 0 0 0 0 0 0 .4 0"/><feOffset dx="4.0" dy="4.0" in="blurOut2" result="blurOut3"/><feBlend in="SourceGraphic" in2="blurOut3" mode="normal"/></filter></defs><g><!--cluster com.vaadin.flow--><polygon fill="#FFFFFF" filter="url(#fjnlpr2do2yk7)" points="22,24,156,24,163,46.2969,1159,46.2969,1159,667,22,667,22,24" style="stroke: #000000; stroke-width: 1.5;"/><line style="stroke: #000000; stroke-width: 1.5;" x1="22" x2="163" y1="46.2969" y2="46.2969"/><text fill="#000000" font-family="sans-serif" font-size="14" font-weight="bold" lengthAdjust="spacingAndGlyphs" textLength="128" x="26" y="38.9951">com.vaadin.flow</text><!--cluster component.grid--><polygon fill="#FFFFFF" filter="url(#fjnlpr2do2yk7)" points="46,67,177,67,184,89.2969,1135,89.2969,1135,477,46,477,46,67" style="stroke: #000000; stroke-width: 1.5;"/><line style="stroke: #000000; stroke-width: 1.5;" x1="46" x2="184" y1="89.2969" y2="89.2969"/><text fill="#000000" font-family="sans-serif" font-size="14" font-weight="bold" lengthAdjust="spacingAndGlyphs" textLength="125" x="50" y="81.9951">component.grid</text><!--cluster function--><polygon fill="#FFFFFF" filter="url(#fjnlpr2do2yk7)" points="691,520,762,520,769,542.2969,867,542.2969,867,624,691,624,691,520" style="stroke: #000000; stroke-width: 1.5;"/><line style="stroke: #000000; stroke-width: 1.5;" x1="691" x2="769" y1="542.2969" y2="542.2969"/><text fill="#000000" font-family="sans-serif" font-size="14" font-weight="bold" lengthAdjust="spacingAndGlyphs" textLength="65" x="695" y="534.9951">function</text><!--cluster data.renderer--><polygon fill="#FFFFFF" filter="url(#fjnlpr2do2yk7)" points="104,501,220,501,227,523.2969,638,523.2969,638,643,104,643,104,501" style="stroke: #000000; stroke-width: 1.5;"/><line style="stroke: #000000; stroke-width: 1.5;" x1="104" x2="227" y1="523.2969" y2="523.2969"/><text fill="#000000" font-family="sans-serif" font-size="14" font-weight="bold" lengthAdjust="spacingAndGlyphs" textLength="110" x="108" y="515.9951">data.renderer</text><!--class Grid--><rect fill="#FEFECE" filter="url(#fjnlpr2do2yk7)" height="358.5078" id="Grid" style="stroke: #A80036; stroke-width: 1.5;" width="622" x="497" y="102"/><ellipse cx="785.75" cy="118" fill="#ADD1B2" rx="11" ry="11" style="stroke: #A80036; stroke-width: 1.0;"/><path d="M788.0938,113.6719 L788.2656,113.75 C788.4844,113.4375 788.6875,113.3438 788.9844,113.3438 C789.2813,113.3438 789.5625,113.4844 789.7188,113.75 C789.8125,113.9063 789.8281,114.0313 789.8281,114.4688 L789.8281,115.8906 C789.8281,116.3125 789.7969,116.5 789.6875,116.6563 C789.5156,116.875 789.25,117.0156 788.9844,117.0156 C788.7656,117.0156 788.5313,116.9063 788.3906,116.7656 C788.25,116.6406 788.2188,116.5156 788.1563,116.1094 C788.0625,115.7031 787.8906,115.4844 787.4063,115.2031 C786.9375,114.9531 786.3281,114.7969 785.75,114.7969 C784.0156,114.7969 782.7656,116.1094 782.7656,117.8906 L782.7656,118.9844 C782.7656,120.6875 784.0625,121.7813 786.1094,121.7813 C786.875,121.7813 787.5625,121.6563 787.9844,121.3906 C788.1719,121.2969 788.1719,121.2969 788.625,120.8125 C788.8125,120.625 789.0156,120.5469 789.2344,120.5469 C789.7031,120.5469 790.0938,120.9375 790.0938,121.3906 C790.0938,121.7813 789.7656,122.2344 789.1875,122.6406 C788.4375,123.1875 787.2813,123.4844 786.0625,123.4844 C783.1719,123.4844 781.0625,121.5938 781.0625,119.0156 L781.0625,117.8906 C781.0625,115.1719 783.0625,113.0938 785.6875,113.0938 C786.5625,113.0938 787.1563,113.2344 788.0938,113.6719 Z "/><text fill="#000000" font-family="sans-serif" font-size="12" lengthAdjust="spacingAndGlyphs" textLength="25" x="806.25" y="122.1543">Grid</text><rect fill="#FFFFFF" height="15.9688" style="stroke: #000000; stroke-width: 1.0; stroke-dasharray: 2.0,2.0;" width="9" x="1113" y="99"/><text fill="#000000" font-family="sans-serif" font-size="12" font-style="italic" lengthAdjust="spacingAndGlyphs" textLength="7" x="1114" y="111.1387">T</text><line style="stroke: #A80036; stroke-width: 1.5;" x1="498" x2="1118" y1="134" y2="134"/><ellipse cx="508" cy="145.9023" fill="#84BE84" rx="3" ry="3" style="stroke: #038048; stroke-width: 1.0;"/><text fill="#000000" font-family="sans-serif" font-size="11" lengthAdjust="spacingAndGlyphs" textLength="32" x="517" y="148.2104">Grid()</text><ellipse cx="508" cy="158.707" fill="#84BE84" rx="3" ry="3" style="stroke: #038048; stroke-width: 1.0;"/><text fill="#000000" font-family="sans-serif" font-size="11" lengthAdjust="spacingAndGlyphs" textLength="152" x="517" y="161.0151">Grid(beanType: Class&lt;T&gt;)</text><ellipse cx="508" cy="171.5117" fill="#84BE84" rx="3" ry="3" style="stroke: #038048; stroke-width: 1.0;"/><text fill="#000000" font-family="sans-serif" font-size="11" lengthAdjust="spacingAndGlyphs" textLength="105" x="517" y="173.8198">Grid(pageSize: int)</text><line style="stroke: #A80036; stroke-width: 1.0; stroke-dasharray: 1.0,2.0;" x1="498" x2="1118" y1="180.4141" y2="180.4141"/><ellipse cx="508" cy="192.3164" fill="#84BE84" rx="3" ry="3" style="stroke: #038048; stroke-width: 1.0;"/><text fill="#000000" font-family="sans-serif" font-size="11" lengthAdjust="spacingAndGlyphs" textLength="283" x="517" y="194.6245">addColumn(renderer: Renderer&lt;T&gt;): Column&lt;T&gt;</text><ellipse cx="508" cy="205.1211" fill="#84BE84" rx="3" ry="3" style="stroke: #038048; stroke-width: 1.0;"/><text fill="#000000" font-family="sans-serif" font-size="11" lengthAdjust="spacingAndGlyphs" textLength="444" x="517" y="207.4292">addColumn(renderer: Renderer&lt;T&gt;, sortingProperties: String...): Column&lt;T&gt;</text><ellipse cx="508" cy="217.9258" fill="#84BE84" rx="3" ry="3" style="stroke: #038048; stroke-width: 1.0;"/><text fill="#000000" font-family="sans-serif" font-size="11" lengthAdjust="spacingAndGlyphs" textLength="271" x="517" y="220.2339">addColumn(propertyName: String): Column&lt;T&gt;</text><ellipse cx="508" cy="230.7305" fill="#84BE84" rx="3" ry="3" style="stroke: #038048; stroke-width: 1.0;"/><text fill="#000000" font-family="sans-serif" font-size="11" lengthAdjust="spacingAndGlyphs" textLength="350" x="517" y="233.0386">addColumn(valueProvider: ValueProvider&lt;T, ?&gt;): Column&lt;T&gt;</text><ellipse cx="508" cy="243.5352" fill="#84BE84" rx="3" ry="3" style="stroke: #038048; stroke-width: 1.0;"/><text fill="#000000" font-family="sans-serif" font-size="11" lengthAdjust="spacingAndGlyphs" textLength="596" x="517" y="245.8433">&lt;V extends Component&gt; addComponentColumn(componentProvider: ValueProvider&lt;T, V&gt;): Column&lt;T&gt;</text><ellipse cx="508" cy="256.3398" fill="#84BE84" rx="3" ry="3" style="stroke: #038048; stroke-width: 1.0;"/><text fill="#000000" font-family="sans-serif" font-size="11" lengthAdjust="spacingAndGlyphs" textLength="282" x="517" y="258.6479">getColumnByKey(columnKey: String): Column&lt;T&gt;</text><ellipse cx="508" cy="269.1445" fill="#84BE84" rx="3" ry="3" style="stroke: #038048; stroke-width: 1.0;"/><text fill="#000000" font-family="sans-serif" font-size="11" lengthAdjust="spacingAndGlyphs" textLength="165" x="517" y="271.4526">getColumns(): List&lt;Column&gt;</text><ellipse cx="508" cy="281.9492" fill="#84BE84" rx="3" ry="3" style="stroke: #038048; stroke-width: 1.0;"/><text fill="#000000" font-family="sans-serif" font-size="11" lengthAdjust="spacingAndGlyphs" textLength="211" x="517" y="284.2573">removeColumn(column: Column&lt;T&gt;)</text><ellipse cx="508" cy="294.7539" fill="#84BE84" rx="3" ry="3" style="stroke: #038048; stroke-width: 1.0;"/><text fill="#000000" font-family="sans-serif" font-size="11" lengthAdjust="spacingAndGlyphs" textLength="231" x="517" y="297.062">removeColumnByKey(columnKey: String)</text><ellipse cx="508" cy="307.5586" fill="#84BE84" rx="3" ry="3" style="stroke: #038048; stroke-width: 1.0;"/><text fill="#000000" font-family="sans-serif" font-size="11" lengthAdjust="spacingAndGlyphs" textLength="218" x="517" y="309.8667">setColumns(propertyNames: String...)</text><line style="stroke: #A80036; stroke-width: 1.0; stroke-dasharray: 1.0,2.0;" x1="498" x2="1118" y1="316.4609" y2="316.4609"/><ellipse cx="508" cy="328.3633" fill="#84BE84" rx="3" ry="3" style="stroke: #038048; stroke-width: 1.0;"/><text fill="#000000" font-family="sans-serif" font-size="11" lengthAdjust="spacingAndGlyphs" textLength="186" x="517" y="330.6714">appendHeaderRow(): HeaderRow</text><ellipse cx="508" cy="341.168" fill="#84BE84" rx="3" ry="3" style="stroke: #038048; stroke-width: 1.0;"/><text fill="#000000" font-family="sans-serif" font-size="11" lengthAdjust="spacingAndGlyphs" textLength="191" x="517" y="343.4761">prependHeaderRow(): HeaderRow</text><ellipse cx="508" cy="353.9727" fill="#84BE84" rx="3" ry="3" style="stroke: #038048; stroke-width: 1.0;"/><text fill="#000000" font-family="sans-serif" font-size="11" lengthAdjust="spacingAndGlyphs" textLength="207" x="517" y="356.2808">getHeaderRows(): List&lt;HeaderRow&gt;</text><ellipse cx="508" cy="366.7773" fill="#84BE84" rx="3" ry="3" style="stroke: #038048; stroke-width: 1.0;"/><text fill="#000000" font-family="sans-serif" font-size="11" lengthAdjust="spacingAndGlyphs" textLength="176" x="517" y="369.0854">appendFooterRow(): FooterRow</text><ellipse cx="508" cy="379.582" fill="#84BE84" rx="3" ry="3" style="stroke: #038048; stroke-width: 1.0;"/><text fill="#000000" font-family="sans-serif" font-size="11" lengthAdjust="spacingAndGlyphs" textLength="181" x="517" y="381.8901">prependFooterRow(): FooterRow</text><ellipse cx="508" cy="392.3867" fill="#84BE84" rx="3" ry="3" style="stroke: #038048; stroke-width: 1.0;"/><text fill="#000000" font-family="sans-serif" font-size="11" lengthAdjust="spacingAndGlyphs" textLength="197" x="517" y="394.6948">getFooterRows(): List&lt;FooterRow&gt;</text><line style="stroke: #A80036; stroke-width: 1.0; stroke-dasharray: 1.0,2.0;" x1="498" x2="1118" y1="401.2891" y2="401.2891"/><ellipse cx="508" cy="413.1914" fill="#84BE84" rx="3" ry="3" style="stroke: #038048; stroke-width: 1.0;"/><text fill="#000000" font-family="sans-serif" font-size="11" lengthAdjust="spacingAndGlyphs" textLength="96" x="517" y="415.4995">deselect(item: T)</text><ellipse cx="508" cy="425.9961" fill="#84BE84" rx="3" ry="3" style="stroke: #038048; stroke-width: 1.0;"/><text fill="#000000" font-family="sans-serif" font-size="11" lengthAdjust="spacingAndGlyphs" textLength="69" x="517" y="428.3042">deselectAll()</text><ellipse cx="508" cy="438.8008" fill="#84BE84" rx="3" ry="3" style="stroke: #038048; stroke-width: 1.0;"/><text fill="#000000" font-family="sans-serif" font-size="11" lengthAdjust="spacingAndGlyphs" textLength="82" x="517" y="441.1089">select(item: T)</text><ellipse cx="508" cy="451.6055" fill="#84BE84" rx="3" ry="3" style="stroke: #038048; stroke-width: 1.0;"/><text fill="#000000" font-family="sans-serif" font-size="11" lengthAdjust="spacingAndGlyphs" textLength="159" x="517" y="453.9136">getSelectedItems(): Set&lt;T&gt;</text><!--class Column--><rect fill="#FEFECE" filter="url(#fjnlpr2do2yk7)" height="219.2656" id="Column" style="stroke: #A80036; stroke-width: 1.5;" width="400" x="62" y="172"/><ellipse cx="229.25" cy="188" fill="#ADD1B2" rx="11" ry="11" style="stroke: #A80036; stroke-width: 1.0;"/><path d="M231.5938,183.6719 L231.7656,183.75 C231.9844,183.4375 232.1875,183.3438 232.4844,183.3438 C232.7813,183.3438 233.0625,183.4844 233.2188,183.75 C233.3125,183.9063 233.3281,184.0313 233.3281,184.4688 L233.3281,185.8906 C233.3281,186.3125 233.2969,186.5 233.1875,186.6563 C233.0156,186.875 232.75,187.0156 232.4844,187.0156 C232.2656,187.0156 232.0313,186.9063 231.8906,186.7656 C231.75,186.6406 231.7188,186.5156 231.6563,186.1094 C231.5625,185.7031 231.3906,185.4844 230.9063,185.2031 C230.4375,184.9531 229.8281,184.7969 229.25,184.7969 C227.5156,184.7969 226.2656,186.1094 226.2656,187.8906 L226.2656,188.9844 C226.2656,190.6875 227.5625,191.7813 229.6094,191.7813 C230.375,191.7813 231.0625,191.6563 231.4844,191.3906 C231.6719,191.2969 231.6719,191.2969 232.125,190.8125 C232.3125,190.625 232.5156,190.5469 232.7344,190.5469 C233.2031,190.5469 233.5938,190.9375 233.5938,191.3906 C233.5938,191.7813 233.2656,192.2344 232.6875,192.6406 C231.9375,193.1875 230.7813,193.4844 229.5625,193.4844 C226.6719,193.4844 224.5625,191.5938 224.5625,189.0156 L224.5625,187.8906 C224.5625,185.1719 226.5625,183.0938 229.1875,183.0938 C230.0625,183.0938 230.6563,183.2344 231.5938,183.6719 Z "/><text fill="#000000" font-family="sans-serif" font-size="12" lengthAdjust="spacingAndGlyphs" textLength="46" x="249.75" y="192.1543">Column</text><rect fill="#FFFFFF" height="15.9688" style="stroke: #000000; stroke-width: 1.0; stroke-dasharray: 2.0,2.0;" width="9" x="456" y="169"/><text fill="#000000" font-family="sans-serif" font-size="12" font-style="italic" lengthAdjust="spacingAndGlyphs" textLength="7" x="457" y="181.1387">T</text><line style="stroke: #A80036; stroke-width: 1.5;" x1="63" x2="461" y1="204" y2="204"/><ellipse cx="73" cy="215.9023" fill="#84BE84" rx="3" ry="3" style="stroke: #038048; stroke-width: 1.0;"/><text fill="#000000" font-family="sans-serif" font-size="11" lengthAdjust="spacingAndGlyphs" textLength="374" x="82" y="218.2104">Column(grid: Grid&lt;T&gt;, columnId: String, renderer: Renderer&lt;T&gt;)</text><ellipse cx="73" cy="228.707" fill="#84BE84" rx="3" ry="3" style="stroke: #038048; stroke-width: 1.0;"/><text fill="#000000" font-family="sans-serif" font-size="11" lengthAdjust="spacingAndGlyphs" textLength="350" x="82" y="231.0151">getComparator(sortDirection: SortDirection): Comparator&lt;T&gt;</text><ellipse cx="73" cy="241.5117" fill="#84BE84" rx="3" ry="3" style="stroke: #038048; stroke-width: 1.0;"/><text fill="#000000" font-family="sans-serif" font-size="11" lengthAdjust="spacingAndGlyphs" textLength="88" x="82" y="243.8198">getKey(): String</text><ellipse cx="73" cy="254.3164" fill="#84BE84" rx="3" ry="3" style="stroke: #038048; stroke-width: 1.0;"/><text fill="#000000" font-family="sans-serif" font-size="11" lengthAdjust="spacingAndGlyphs" textLength="373" x="82" y="256.6245">getSortOrder(direction: SortDirection): Stream&lt;QuerySortOrder&gt;</text><ellipse cx="73" cy="267.1211" fill="#84BE84" rx="3" ry="3" style="stroke: #038048; stroke-width: 1.0;"/><text fill="#000000" font-family="sans-serif" font-size="11" lengthAdjust="spacingAndGlyphs" textLength="119" x="82" y="269.4292">isSortable(): boolean</text><ellipse cx="73" cy="279.9258" fill="#84BE84" rx="3" ry="3" style="stroke: #038048; stroke-width: 1.0;"/><text fill="#000000" font-family="sans-serif" font-size="11" lengthAdjust="spacingAndGlyphs" textLength="337" x="82" y="282.2339">setComparator(comparator: Comparator&lt;T&gt;): Column&lt;T&gt;</text><ellipse cx="73" cy="292.7305" fill="#84BE84" rx="3" ry="3" style="stroke: #038048; stroke-width: 1.0;"/><text fill="#000000" font-family="sans-serif" font-size="11" lengthAdjust="spacingAndGlyphs" textLength="310" x="82" y="295.0386">setFooter(footerComponent: Component): Column&lt;T&gt;</text><ellipse cx="73" cy="305.5352" fill="#84BE84" rx="3" ry="3" style="stroke: #038048; stroke-width: 1.0;"/><text fill="#000000" font-family="sans-serif" font-size="11" lengthAdjust="spacingAndGlyphs" textLength="231" x="82" y="307.8433">setFooter(labelText: String): Column&lt;T&gt;</text><ellipse cx="73" cy="318.3398" fill="#84BE84" rx="3" ry="3" style="stroke: #038048; stroke-width: 1.0;"/><text fill="#000000" font-family="sans-serif" font-size="11" lengthAdjust="spacingAndGlyphs" textLength="321" x="82" y="320.6479">setHeader(headerComponent: Component): Column&lt;T&gt;</text><ellipse cx="73" cy="331.1445" fill="#84BE84" rx="3" ry="3" style="stroke: #038048; stroke-width: 1.0;"/><text fill="#000000" font-family="sans-serif" font-size="11" lengthAdjust="spacingAndGlyphs" textLength="236" x="82" y="333.4526">setHeader(labelText: String): Column&lt;T&gt;</text><ellipse cx="73" cy="343.9492" fill="#84BE84" rx="3" ry="3" style="stroke: #038048; stroke-width: 1.0;"/><text fill="#000000" font-family="sans-serif" font-size="11" lengthAdjust="spacingAndGlyphs" textLength="183" x="82" y="346.2573">setKey(key: String): Column&lt;T&gt;</text><ellipse cx="73" cy="356.7539" fill="#84BE84" rx="3" ry="3" style="stroke: #038048; stroke-width: 1.0;"/><text fill="#000000" font-family="sans-serif" font-size="11" lengthAdjust="spacingAndGlyphs" textLength="250" x="82" y="359.062">setSortable(sortable: boolean): Column&lt;T&gt;</text><ellipse cx="73" cy="369.5586" fill="#84BE84" rx="3" ry="3" style="stroke: #038048; stroke-width: 1.0;"/><text fill="#000000" font-family="sans-serif" font-size="11" lengthAdjust="spacingAndGlyphs" textLength="365" x="82" y="371.8667">setSortOrderProvider(provider: SortOrderProvider): Column&lt;T&gt;</text><ellipse cx="73" cy="382.3633" fill="#84BE84" rx="3" ry="3" style="stroke: #038048; stroke-width: 1.0;"/><text fill="#000000" font-family="sans-serif" font-size="11" lengthAdjust="spacingAndGlyphs" textLength="211" x="82" y="384.6714">setSortProperty(properties: String...)</text><!--class ValueProvider--><rect fill="#FEFECE" filter="url(#fjnlpr2do2yk7)" height="52.8047" id="ValueProvider" style="stroke: #A80036; stroke-width: 1.5;" width="144" x="707" y="555"/><ellipse cx="722" cy="571" fill="#B4A7E5" rx="11" ry="11" style="stroke: #A80036; stroke-width: 1.0;"/><path d="M722.9531,567.7813 L722.9531,574.2969 L724.6719,574.2969 C725.125,574.2969 725.2656,574.3281 725.4375,574.4531 C725.6719,574.625 725.7813,574.875 725.7813,575.1563 C725.7813,575.7188 725.4219,576 724.6719,576 L719.5313,576 C719.125,576 718.9219,575.9531 718.7656,575.8281 C718.5469,575.6719 718.4063,575.4063 718.4063,575.1563 C718.4063,574.8594 718.5625,574.5781 718.8125,574.4219 C718.9688,574.3125 719.0938,574.2969 719.5313,574.2969 L721.25,574.2969 L721.25,567.7813 L719.5313,567.7813 C719.1094,567.7813 718.9219,567.75 718.7656,567.6406 C718.5469,567.4688 718.4063,567.2188 718.4063,566.9375 C718.4063,566.6563 718.5625,566.3594 718.8125,566.2031 C718.9688,566.1094 719.0938,566.0938 719.5313,566.0938 L724.6719,566.0938 C725.125,566.0938 725.2656,566.125 725.4375,566.2344 C725.6719,566.4063 725.7813,566.6719 725.7813,566.9375 C725.7813,567.2344 725.6406,567.5156 725.375,567.6719 C725.25,567.75 725.0625,567.7813 724.6719,567.7813 Z "/><text fill="#000000" font-family="sans-serif" font-size="12" font-style="italic" lengthAdjust="spacingAndGlyphs" textLength="85" x="736" y="575.1543">ValueProvider</text><rect fill="#FFFFFF" height="15.9688" style="stroke: #000000; stroke-width: 1.0; stroke-dasharray: 2.0,2.0;" width="25" x="829" y="552"/><text fill="#000000" font-family="sans-serif" font-size="12" font-style="italic" lengthAdjust="spacingAndGlyphs" textLength="23" x="830" y="564.1387">S, T</text><line style="stroke: #A80036; stroke-width: 1.5;" x1="708" x2="850" y1="587" y2="587"/><ellipse cx="718" cy="598.9023" fill="#84BE84" rx="3" ry="3" style="stroke: #038048; stroke-width: 1.0;"/><text fill="#000000" font-family="sans-serif" font-size="11" font-style="italic" lengthAdjust="spacingAndGlyphs" textLength="107" x="727" y="601.2104">apply(source: S): T</text><!--class Renderer--><rect fill="#FEFECE" filter="url(#fjnlpr2do2yk7)" height="91.2188" id="Renderer" style="stroke: #A80036; stroke-width: 1.5;" width="501" x="120.5" y="536"/><ellipse cx="331.75" cy="552" fill="#ADD1B2" rx="11" ry="11" style="stroke: #A80036; stroke-width: 1.0;"/><path d="M334.0938,547.6719 L334.2656,547.75 C334.4844,547.4375 334.6875,547.3438 334.9844,547.3438 C335.2813,547.3438 335.5625,547.4844 335.7188,547.75 C335.8125,547.9063 335.8281,548.0313 335.8281,548.4688 L335.8281,549.8906 C335.8281,550.3125 335.7969,550.5 335.6875,550.6563 C335.5156,550.875 335.25,551.0156 334.9844,551.0156 C334.7656,551.0156 334.5313,550.9063 334.3906,550.7656 C334.25,550.6406 334.2188,550.5156 334.1563,550.1094 C334.0625,549.7031 333.8906,549.4844 333.4063,549.2031 C332.9375,548.9531 332.3281,548.7969 331.75,548.7969 C330.0156,548.7969 328.7656,550.1094 328.7656,551.8906 L328.7656,552.9844 C328.7656,554.6875 330.0625,555.7813 332.1094,555.7813 C332.875,555.7813 333.5625,555.6563 333.9844,555.3906 C334.1719,555.2969 334.1719,555.2969 334.625,554.8125 C334.8125,554.625 335.0156,554.5469 335.2344,554.5469 C335.7031,554.5469 336.0938,554.9375 336.0938,555.3906 C336.0938,555.7813 335.7656,556.2344 335.1875,556.6406 C334.4375,557.1875 333.2813,557.4844 332.0625,557.4844 C329.1719,557.4844 327.0625,555.5938 327.0625,553.0156 L327.0625,551.8906 C327.0625,549.1719 329.0625,547.0938 331.6875,547.0938 C332.5625,547.0938 333.1563,547.2344 334.0938,547.6719 Z "/><text fill="#000000" font-family="sans-serif" font-size="12" lengthAdjust="spacingAndGlyphs" textLength="58" x="352.25" y="556.1543">Renderer</text><rect fill="#FFFFFF" height="15.9688" style="stroke: #000000; stroke-width: 1.0; stroke-dasharray: 2.0,2.0;" width="10" x="614.5" y="533"/><text fill="#000000" font-family="sans-serif" font-size="12" font-style="italic" lengthAdjust="spacingAndGlyphs" textLength="8" x="615.5" y="545.1387">S</text><line style="stroke: #A80036; stroke-width: 1.5;" x1="121.5" x2="620.5" y1="568" y2="568"/><ellipse cx="131.5" cy="579.9023" fill="#84BE84" rx="3" ry="3" style="stroke: #038048; stroke-width: 1.0;"/><text fill="#000000" font-family="sans-serif" font-size="11" lengthAdjust="spacingAndGlyphs" textLength="318" x="140.5" y="582.2104">render(container: Element, keyMapper: DataKeyMapper)</text><ellipse cx="131.5" cy="592.707" fill="#84BE84" rx="3" ry="3" style="stroke: #038048; stroke-width: 1.0;"/><text fill="#000000" font-family="sans-serif" font-size="11" lengthAdjust="spacingAndGlyphs" textLength="475" x="140.5" y="595.0151">render(container: Element, keyMapper: DataKeyMapper, contentTemplate: Element)</text><ellipse cx="131.5" cy="605.5117" fill="#84BE84" rx="3" ry="3" style="stroke: #038048; stroke-width: 1.0;"/><text fill="#000000" font-family="sans-serif" font-size="11" lengthAdjust="spacingAndGlyphs" textLength="314" x="140.5" y="607.8198">getEventHandlers(): Map&lt;String, SerializableConsumer</text><text fill="#000000" font-family="sans-serif" font-size="11" lengthAdjust="spacingAndGlyphs" text-decoration="line-through" textLength="9" x="454.5" y="607.8198">&gt;</text><ellipse cx="131.5" cy="618.3164" fill="#84BE84" rx="3" ry="3" style="stroke: #038048; stroke-width: 1.0;"/><text fill="#000000" font-family="sans-serif" font-size="11" lengthAdjust="spacingAndGlyphs" textLength="320" x="140.5" y="620.6245">getValueProviders(): Map&lt;String, ValueProvider&lt;S, ?&gt;&gt;</text><!--link Column to Grid--><path d="M467.381,358.587 C477.253,360.058 487.126,361.207 496.999,362.034 " fill="none" id="Column-Grid" style="stroke: #A80036; stroke-width: 1.0;"/><polygon fill="#A80036" points="462.218,357.788,470.4993,363.119,467.159,358.5537,471.7244,355.2134,462.218,357.788" style="stroke: #A80036; stroke-width: 1.0;"/><text fill="#000000" font-family="sans-serif" font-size="13" lengthAdjust="spacingAndGlyphs" textLength="7" x="470.1757" y="357.5393">*</text><!--link Column to Grid--><path d="M462.218,205.212 C468.83,204.152 475.442,203.236 482.054,202.464 " fill="none" id="Column-Grid-1" style="stroke: #A80036; stroke-width: 1.0;"/><ellipse cx="489.0389" cy="201.7637" fill="#FFFFFF" rx="8" ry="8" style="stroke: #A80036; stroke-width: 1.0;"/><line style="stroke: #A80036; stroke-width: 1.0;" x1="481.0787" x2="496.999" y1="202.5614" y2="200.966"/><line style="stroke: #A80036; stroke-width: 1.0;" x1="488.2412" x2="489.8366" y1="193.8036" y2="209.7238"/><!--link Column to Renderer--><path d="M301.814,391.35 C319.275,439.086 338.909,492.764 352.788,530.709 " fill="none" id="Column-Renderer" style="stroke: #A80036; stroke-width: 1.0; stroke-dasharray: 7.0,7.0;"/><polygon fill="#A80036" points="354.622,535.723,355.2877,525.8967,352.9048,531.0271,347.7743,528.6442,354.622,535.723" style="stroke: #A80036; stroke-width: 1.0;"/><!--link Grid to ValueProvider--><path d="M790.628,461.009 C787.3,495.207 784.183,527.244 782.015,549.52 " fill="none" id="Grid-ValueProvider" style="stroke: #A80036; stroke-width: 1.0; stroke-dasharray: 7.0,7.0;"/><polygon fill="#A80036" points="781.512,554.685,786.365,546.1148,781.9964,549.7085,778.4027,545.3398,781.512,554.685" style="stroke: #A80036; stroke-width: 1.0;"/><!--link Renderer to ValueProvider--><path d="M621.617,581.5 C648.225,581.5 674.834,581.5 701.442,581.5 " fill="none" id="Renderer-ValueProvider" style="stroke: #A80036; stroke-width: 1.0; stroke-dasharray: 7.0,7.0;"/><polygon fill="#A80036" points="706.764,581.5,697.764,577.5,701.764,581.5,697.764,585.5,706.764,581.5" style="stroke: #A80036; stroke-width: 1.0;"/><!--
@startuml
package com.vaadin.flow {
 package component.grid {
  class Grid<T> {
   + Grid()
   + Grid(beanType: Class<T>)
   + Grid(pageSize: int)
....
   + addColumn(renderer: Renderer<T>): Column<T>
   + addColumn(renderer: Renderer<T>, sortingProperties: String...): Column<T>
   + addColumn(propertyName: String): Column<T>
   + addColumn(valueProvider: ValueProvider<T, ?>): Column<T>
   + <V extends Component> addComponentColumn(componentProvider: ValueProvider<T, V>): Column<T>
   + getColumnByKey(columnKey: String): Column<T>
   + getColumns(): List<Column>
   + removeColumn(column: Column<T>)
   + removeColumnByKey(columnKey: String)
   + setColumns(propertyNames: String...)
....
   + appendHeaderRow(): HeaderRow
   + prependHeaderRow(): HeaderRow
   + getHeaderRows(): List<HeaderRow>
   + appendFooterRow(): FooterRow
   + prependFooterRow(): FooterRow
   + getFooterRows(): List<FooterRow>
....
   + deselect(item: T)
   + deselectAll()
   + select(item: T)
   + getSelectedItems(): Set<T>
  }
  class Column<T> {
   + Column(grid: Grid<T>, columnId: String, renderer: Renderer<T>)
   + getComparator(sortDirection: SortDirection): Comparator<T>
   + getKey(): String 
   + getSortOrder(direction: SortDirection): Stream<QuerySortOrder>
   + isSortable(): boolean
   + setComparator(comparator: Comparator<T>): Column<T>
   + setFooter(footerComponent: Component): Column<T>
   + setFooter(labelText: String): Column<T>
   + setHeader(headerComponent: Component): Column<T>
   + setHeader(labelText: String): Column<T>
   + setKey(key: String): Column<T>
   + setSortable(sortable: boolean): Column<T>
   + setSortOrderProvider(provider: SortOrderProvider): Column<T>
   + setSortProperty(properties: String...)
  }
 }
 package function {
  interface ValueProvider<S, T> {
   +{abstract} apply(source: S): T
  }
 }
 package data.renderer {
  class Renderer<S> {
   + render(container: Element, keyMapper: DataKeyMapper)
   + render(container: Element, keyMapper: DataKeyMapper, contentTemplate: Element)
   + getEventHandlers(): Map<String, SerializableConsumer<S>>
   + getValueProviders(): Map<String, ValueProvider<S, ?>>
  }
 }
}

Grid -left-> "*" Column
Column -+ Grid
Column ..> Renderer
Grid ..> ValueProvider
Renderer .right.> ValueProvider

hide empty members
@enduml

PlantUML version 1.2019.08(Sat Jul 13 19:25:14 UTC 2019)
(GPL source distribution)
Java Runtime: Java(TM) SE Runtime Environment
JVM: Java HotSpot(TM) 64-Bit Server VM
Java Version: 1.7.0_25-b15
Operating System: Linux
Default Encoding: UTF-8
Language: en
Country: US
--></g></svg>