<?xml version="1.0" encoding="UTF-8" standalone="no"?><svg xmlns="http://www.w3.org/2000/svg" xmlns:xlink="http://www.w3.org/1999/xlink" contentScriptType="application/ecmascript" contentStyleType="text/css" height="753px" preserveAspectRatio="xMidYMid" style="width:992px;height:753px;" version="1.1" viewBox="0 0 992 753" width="992px" zoomAndPan="magnify"><defs><filter height="300%" id="f1wdlun2eez104" width="300%" x="-1" y="-1"><feGaussianBlur result="blurOut" stdDeviation="2.0"/><feColorMatrix in="blurOut" result="blurOut2" type="matrix" values="0 0 0 0 0 0 0 0 0 0 0 0 0 0 0 0 0 0 .4 0"/><feOffset dx="4.0" dy="4.0" in="blurOut2" result="blurOut3"/><feBlend in="SourceGraphic" in2="blurOut3" mode="normal"/></filter></defs><g><!--cluster com.vaadin.flow--><polygon fill="#FFFFFF" filter="url(#f1wdlun2eez104)" points="22,24,156,24,163,46.2969,970,46.2969,970,741,22,741,22,24" style="stroke: #000000; stroke-width: 1.5;"/><line style="stroke: #000000; stroke-width: 1.5;" x1="22" x2="163" y1="46.2969" y2="46.2969"/><text fill="#000000" font-family="sans-serif" font-size="14" font-weight="bold" lengthAdjust="spacingAndGlyphs" textLength="128" x="26" y="38.9951">com.vaadin.flow</text><!--cluster data--><polygon fill="#FFFFFF" filter="url(#f1wdlun2eez104)" points="46,67,86,67,93,89.2969,946,89.2969,946,543,46,543,46,67" style="stroke: #000000; stroke-width: 1.5;"/><line style="stroke: #000000; stroke-width: 1.5;" x1="46" x2="93" y1="89.2969" y2="89.2969"/><text fill="#000000" font-family="sans-serif" font-size="14" font-weight="bold" lengthAdjust="spacingAndGlyphs" textLength="34" x="50" y="81.9951">data</text><!--cluster binder--><polygon fill="#FFFFFF" filter="url(#f1wdlun2eez104)" points="570,161.5,627,161.5,634,183.7969,922,183.7969,922,487,570,487,570,161.5" style="stroke: #000000; stroke-width: 1.5;"/><line style="stroke: #000000; stroke-width: 1.5;" x1="570" x2="634" y1="183.7969" y2="183.7969"/><text fill="#000000" font-family="sans-serif" font-size="14" font-weight="bold" lengthAdjust="spacingAndGlyphs" textLength="51" x="574" y="176.4951">binder</text><!--cluster provider--><polygon fill="#FFFFFF" filter="url(#f1wdlun2eez104)" points="70,110,143,110,150,132.2969,546,132.2969,546,519,70,519,70,110" style="stroke: #000000; stroke-width: 1.5;"/><line style="stroke: #000000; stroke-width: 1.5;" x1="70" x2="150" y1="132.2969" y2="132.2969"/><text fill="#000000" font-family="sans-serif" font-size="14" font-weight="bold" lengthAdjust="spacingAndGlyphs" textLength="67" x="74" y="124.9951">provider</text><!--cluster component--><polygon fill="#FFFFFF" filter="url(#f1wdlun2eez104)" points="557,567,652,567,659,589.2969,820,589.2969,820,717,557,717,557,567" style="stroke: #000000; stroke-width: 1.5;"/><line style="stroke: #000000; stroke-width: 1.5;" x1="557" x2="659" y1="589.2969" y2="589.2969"/><text fill="#000000" font-family="sans-serif" font-size="14" font-weight="bold" lengthAdjust="spacingAndGlyphs" textLength="89" x="561" y="581.9951">component</text><!--cluster grid--><polygon fill="#FFFFFF" filter="url(#f1wdlun2eez104)" points="696,610,733,610,740,632.2969,796,632.2969,796,693,696,693,696,610" style="stroke: #000000; stroke-width: 1.5;"/><line style="stroke: #000000; stroke-width: 1.5;" x1="696" x2="740" y1="632.2969" y2="632.2969"/><text fill="#000000" font-family="sans-serif" font-size="14" font-weight="bold" lengthAdjust="spacingAndGlyphs" textLength="31" x="700" y="624.9951">grid</text><!--class HasItems--><rect fill="#FEFECE" filter="url(#f1wdlun2eez104)" height="78.4141" id="HasItems" style="stroke: #A80036; stroke-width: 1.5;" width="288" x="602" y="196.5"/><ellipse cx="707.75" cy="212.5" fill="#B4A7E5" rx="11" ry="11" style="stroke: #A80036; stroke-width: 1.0;"/><path d="M708.7031,209.2813 L708.7031,215.7969 L710.4219,215.7969 C710.875,215.7969 711.0156,215.8281 711.1875,215.9531 C711.4219,216.125 711.5313,216.375 711.5313,216.6563 C711.5313,217.2188 711.1719,217.5 710.4219,217.5 L705.2813,217.5 C704.875,217.5 704.6719,217.4531 704.5156,217.3281 C704.2969,217.1719 704.1563,216.9063 704.1563,216.6563 C704.1563,216.3594 704.3125,216.0781 704.5625,215.9219 C704.7188,215.8125 704.8438,215.7969 705.2813,215.7969 L707,215.7969 L707,209.2813 L705.2813,209.2813 C704.8594,209.2813 704.6719,209.25 704.5156,209.1406 C704.2969,208.9688 704.1563,208.7188 704.1563,208.4375 C704.1563,208.1563 704.3125,207.8594 704.5625,207.7031 C704.7188,207.6094 704.8438,207.5938 705.2813,207.5938 L710.4219,207.5938 C710.875,207.5938 711.0156,207.625 711.1875,207.7344 C711.4219,207.9063 711.5313,208.1719 711.5313,208.4375 C711.5313,208.7344 711.3906,209.0156 711.125,209.1719 C711,209.25 710.8125,209.2813 710.4219,209.2813 Z "/><text fill="#000000" font-family="sans-serif" font-size="12" font-style="italic" lengthAdjust="spacingAndGlyphs" textLength="57" x="728.25" y="216.6543">HasItems</text><rect fill="#FFFFFF" height="15.9688" style="stroke: #000000; stroke-width: 1.0; stroke-dasharray: 2.0,2.0;" width="9" x="884" y="193.5"/><text fill="#000000" font-family="sans-serif" font-size="12" font-style="italic" lengthAdjust="spacingAndGlyphs" textLength="7" x="885" y="205.6387">T</text><line style="stroke: #A80036; stroke-width: 1.5;" x1="603" x2="889" y1="228.5" y2="228.5"/><ellipse cx="613" cy="240.4023" fill="#84BE84" rx="3" ry="3" style="stroke: #038048; stroke-width: 1.0;"/><text fill="#000000" font-family="sans-serif" font-size="11" font-style="italic" lengthAdjust="spacingAndGlyphs" textLength="175" x="622" y="242.7104">setItems(items: Collection&lt;T&gt;)</text><ellipse cx="613" cy="253.207" fill="#84BE84" rx="3" ry="3" style="stroke: #038048; stroke-width: 1.0;"/><text fill="#000000" font-family="sans-serif" font-size="11" font-style="italic" lengthAdjust="spacingAndGlyphs" textLength="39" x="622" y="255.5151">default</text><text fill="#000000" font-family="sans-serif" font-size="11" lengthAdjust="spacingAndGlyphs" textLength="219" x="665" y="255.5151">setItems(streamOfItems: Stream&lt;T&gt;)</text><ellipse cx="613" cy="266.0117" fill="#84BE84" rx="3" ry="3" style="stroke: #038048; stroke-width: 1.0;"/><text fill="#000000" font-family="sans-serif" font-size="11" font-style="italic" lengthAdjust="spacingAndGlyphs" textLength="39" x="622" y="268.3198">default</text><text fill="#000000" font-family="sans-serif" font-size="11" lengthAdjust="spacingAndGlyphs" textLength="117" x="665" y="268.3198">setItems(items: T...)</text><!--class HasDataProvider--><rect fill="#FEFECE" filter="url(#f1wdlun2eez104)" height="52.8047" id="HasDataProvider" style="stroke: #A80036; stroke-width: 1.5;" width="319" x="586.5" y="418"/><ellipse cx="684.75" cy="434" fill="#B4A7E5" rx="11" ry="11" style="stroke: #A80036; stroke-width: 1.0;"/><path d="M685.7031,430.7813 L685.7031,437.2969 L687.4219,437.2969 C687.875,437.2969 688.0156,437.3281 688.1875,437.4531 C688.4219,437.625 688.5313,437.875 688.5313,438.1563 C688.5313,438.7188 688.1719,439 687.4219,439 L682.2813,439 C681.875,439 681.6719,438.9531 681.5156,438.8281 C681.2969,438.6719 681.1563,438.4063 681.1563,438.1563 C681.1563,437.8594 681.3125,437.5781 681.5625,437.4219 C681.7188,437.3125 681.8438,437.2969 682.2813,437.2969 L684,437.2969 L684,430.7813 L682.2813,430.7813 C681.8594,430.7813 681.6719,430.75 681.5156,430.6406 C681.2969,430.4688 681.1563,430.2188 681.1563,429.9375 C681.1563,429.6563 681.3125,429.3594 681.5625,429.2031 C681.7188,429.1094 681.8438,429.0938 682.2813,429.0938 L687.4219,429.0938 C687.875,429.0938 688.0156,429.125 688.1875,429.2344 C688.4219,429.4063 688.5313,429.6719 688.5313,429.9375 C688.5313,430.2344 688.3906,430.5156 688.125,430.6719 C688,430.75 687.8125,430.7813 687.4219,430.7813 Z "/><text fill="#000000" font-family="sans-serif" font-size="12" font-style="italic" lengthAdjust="spacingAndGlyphs" textLength="103" x="705.25" y="438.1543">HasDataProvider</text><rect fill="#FFFFFF" height="15.9688" style="stroke: #000000; stroke-width: 1.0; stroke-dasharray: 2.0,2.0;" width="9" x="899.5" y="415"/><text fill="#000000" font-family="sans-serif" font-size="12" font-style="italic" lengthAdjust="spacingAndGlyphs" textLength="7" x="900.5" y="427.1387">T</text><line style="stroke: #A80036; stroke-width: 1.5;" x1="587.5" x2="904.5" y1="450" y2="450"/><ellipse cx="597.5" cy="461.9023" fill="#84BE84" rx="3" ry="3" style="stroke: #038048; stroke-width: 1.0;"/><text fill="#000000" font-family="sans-serif" font-size="11" font-style="italic" lengthAdjust="spacingAndGlyphs" textLength="293" x="606.5" y="464.2104">setDataProvider(dataProvider: DataProvider&lt;T, ?&gt;)</text><!--class DataProvider--><rect fill="#FEFECE" filter="url(#f1wdlun2eez104)" height="116.8281" id="DataProvider" style="stroke: #A80036; stroke-width: 1.5;" width="444" x="86" y="386"/><ellipse cx="250.75" cy="402" fill="#B4A7E5" rx="11" ry="11" style="stroke: #A80036; stroke-width: 1.0;"/><path d="M251.7031,398.7813 L251.7031,405.2969 L253.4219,405.2969 C253.875,405.2969 254.0156,405.3281 254.1875,405.4531 C254.4219,405.625 254.5313,405.875 254.5313,406.1563 C254.5313,406.7188 254.1719,407 253.4219,407 L248.2813,407 C247.875,407 247.6719,406.9531 247.5156,406.8281 C247.2969,406.6719 247.1563,406.4063 247.1563,406.1563 C247.1563,405.8594 247.3125,405.5781 247.5625,405.4219 C247.7188,405.3125 247.8438,405.2969 248.2813,405.2969 L250,405.2969 L250,398.7813 L248.2813,398.7813 C247.8594,398.7813 247.6719,398.75 247.5156,398.6406 C247.2969,398.4688 247.1563,398.2188 247.1563,397.9375 C247.1563,397.6563 247.3125,397.3594 247.5625,397.2031 C247.7188,397.1094 247.8438,397.0938 248.2813,397.0938 L253.4219,397.0938 C253.875,397.0938 254.0156,397.125 254.1875,397.2344 C254.4219,397.4063 254.5313,397.6719 254.5313,397.9375 C254.5313,398.2344 254.3906,398.5156 254.125,398.6719 C254,398.75 253.8125,398.7813 253.4219,398.7813 Z "/><text fill="#000000" font-family="sans-serif" font-size="12" font-style="italic" lengthAdjust="spacingAndGlyphs" textLength="80" x="271.25" y="406.1543">DataProvider</text><rect fill="#FFFFFF" height="15.9688" style="stroke: #000000; stroke-width: 1.0; stroke-dasharray: 2.0,2.0;" width="24" x="509" y="383"/><text fill="#000000" font-family="sans-serif" font-size="12" font-style="italic" lengthAdjust="spacingAndGlyphs" textLength="22" x="510" y="395.1387">T, F</text><line style="stroke: #A80036; stroke-width: 1.5;" x1="87" x2="529" y1="418" y2="418"/><ellipse cx="97" cy="429.9023" fill="#84BE84" rx="3" ry="3" style="stroke: #038048; stroke-width: 1.0;"/><text fill="#000000" font-family="sans-serif" font-size="11" font-style="italic" lengthAdjust="spacingAndGlyphs" textLength="418" x="106" y="432.2104">addDataProviderListener(listener: DataProviderListener&lt;T&gt;): Registration</text><ellipse cx="97" cy="442.707" fill="#84BE84" rx="3" ry="3" style="stroke: #038048; stroke-width: 1.0;"/><text fill="#000000" font-family="sans-serif" font-size="11" font-style="italic" lengthAdjust="spacingAndGlyphs" textLength="225" x="106" y="445.0151">fetch(query: Query&lt;T, F&gt;): Stream&lt;T&gt;</text><ellipse cx="97" cy="455.5117" fill="#84BE84" rx="3" ry="3" style="stroke: #038048; stroke-width: 1.0;"/><text fill="#000000" font-family="sans-serif" font-size="11" font-style="italic" lengthAdjust="spacingAndGlyphs" textLength="126" x="106" y="457.8198">isInMemory(): boolean</text><ellipse cx="97" cy="468.3164" fill="#84BE84" rx="3" ry="3" style="stroke: #038048; stroke-width: 1.0;"/><text fill="#000000" font-family="sans-serif" font-size="11" font-style="italic" lengthAdjust="spacingAndGlyphs" textLength="63" x="106" y="470.6245">refreshAll()</text><ellipse cx="97" cy="481.1211" fill="#84BE84" rx="3" ry="3" style="stroke: #038048; stroke-width: 1.0;"/><text fill="#000000" font-family="sans-serif" font-size="11" font-style="italic" lengthAdjust="spacingAndGlyphs" textLength="114" x="106" y="483.4292">refreshItem(item: T)</text><ellipse cx="97" cy="493.9258" fill="#84BE84" rx="3" ry="3" style="stroke: #038048; stroke-width: 1.0;"/><text fill="#000000" font-family="sans-serif" font-size="11" font-style="italic" lengthAdjust="spacingAndGlyphs" textLength="145" x="106" y="496.2339">size(query: Query&lt;T, F&gt;)</text><!--class Query--><rect fill="#FEFECE" filter="url(#f1wdlun2eez104)" height="180.8516" id="Query" style="stroke: #A80036; stroke-width: 1.5;" width="327" x="144.5" y="145"/><ellipse cx="272.75" cy="161" fill="#ADD1B2" rx="11" ry="11" style="stroke: #A80036; stroke-width: 1.0;"/><path d="M275.0938,156.6719 L275.2656,156.75 C275.4844,156.4375 275.6875,156.3438 275.9844,156.3438 C276.2813,156.3438 276.5625,156.4844 276.7188,156.75 C276.8125,156.9063 276.8281,157.0313 276.8281,157.4688 L276.8281,158.8906 C276.8281,159.3125 276.7969,159.5 276.6875,159.6563 C276.5156,159.875 276.25,160.0156 275.9844,160.0156 C275.7656,160.0156 275.5313,159.9063 275.3906,159.7656 C275.25,159.6406 275.2188,159.5156 275.1563,159.1094 C275.0625,158.7031 274.8906,158.4844 274.4063,158.2031 C273.9375,157.9531 273.3281,157.7969 272.75,157.7969 C271.0156,157.7969 269.7656,159.1094 269.7656,160.8906 L269.7656,161.9844 C269.7656,163.6875 271.0625,164.7813 273.1094,164.7813 C273.875,164.7813 274.5625,164.6563 274.9844,164.3906 C275.1719,164.2969 275.1719,164.2969 275.625,163.8125 C275.8125,163.625 276.0156,163.5469 276.2344,163.5469 C276.7031,163.5469 277.0938,163.9375 277.0938,164.3906 C277.0938,164.7813 276.7656,165.2344 276.1875,165.6406 C275.4375,166.1875 274.2813,166.4844 273.0625,166.4844 C270.1719,166.4844 268.0625,164.5938 268.0625,162.0156 L268.0625,160.8906 C268.0625,158.1719 270.0625,156.0938 272.6875,156.0938 C273.5625,156.0938 274.1563,156.2344 275.0938,156.6719 Z "/><text fill="#000000" font-family="sans-serif" font-size="12" lengthAdjust="spacingAndGlyphs" textLength="36" x="293.25" y="165.1543">Query</text><rect fill="#FFFFFF" height="15.9688" style="stroke: #000000; stroke-width: 1.0; stroke-dasharray: 2.0,2.0;" width="24" x="450.5" y="142"/><text fill="#000000" font-family="sans-serif" font-size="12" font-style="italic" lengthAdjust="spacingAndGlyphs" textLength="22" x="451.5" y="154.1387">T, F</text><line style="stroke: #A80036; stroke-width: 1.5;" x1="145.5" x2="470.5" y1="177" y2="177"/><ellipse cx="155.5" cy="188.9023" fill="#84BE84" rx="3" ry="3" style="stroke: #038048; stroke-width: 1.0;"/><text fill="#000000" font-family="sans-serif" font-size="11" lengthAdjust="spacingAndGlyphs" textLength="42" x="164.5" y="191.2104">Query()</text><ellipse cx="155.5" cy="201.707" fill="#84BE84" rx="3" ry="3" style="stroke: #038048; stroke-width: 1.0;"/><text fill="#000000" font-family="sans-serif" font-size="11" lengthAdjust="spacingAndGlyphs" textLength="82" x="164.5" y="204.0151">Query(filter: F)</text><ellipse cx="155.5" cy="227.3164" fill="#84BE84" rx="3" ry="3" style="stroke: #038048; stroke-width: 1.0;"/><text fill="#000000" font-family="sans-serif" font-size="11" lengthAdjust="spacingAndGlyphs" textLength="151" x="164.5" y="216.8198">Query(offset: int, limit: int,</text><text fill="#000000" font-family="sans-serif" font-size="11" lengthAdjust="spacingAndGlyphs" textLength="204" x="196.5" y="229.6245">sortOrders: List&lt;QuerySortOrder&gt;,</text><text fill="#000000" font-family="sans-serif" font-size="11" lengthAdjust="spacingAndGlyphs" textLength="249" x="196.5" y="242.4292">inMemorySorting: Comparator&lt;T&gt;, filter: F)</text><ellipse cx="155.5" cy="252.9258" fill="#84BE84" rx="3" ry="3" style="stroke: #038048; stroke-width: 1.0;"/><text fill="#000000" font-family="sans-serif" font-size="11" lengthAdjust="spacingAndGlyphs" textLength="133" x="164.5" y="255.2339">getFilter(): Optional&lt;F&gt;</text><ellipse cx="155.5" cy="265.7305" fill="#84BE84" rx="3" ry="3" style="stroke: #038048; stroke-width: 1.0;"/><text fill="#000000" font-family="sans-serif" font-size="11" lengthAdjust="spacingAndGlyphs" textLength="223" x="164.5" y="268.0386">getInMemorySorting(): Comparator&lt;T&gt;</text><ellipse cx="155.5" cy="278.5352" fill="#84BE84" rx="3" ry="3" style="stroke: #038048; stroke-width: 1.0;"/><text fill="#000000" font-family="sans-serif" font-size="11" lengthAdjust="spacingAndGlyphs" textLength="75" x="164.5" y="280.8433">getLimit(): int</text><ellipse cx="155.5" cy="291.3398" fill="#84BE84" rx="3" ry="3" style="stroke: #038048; stroke-width: 1.0;"/><text fill="#000000" font-family="sans-serif" font-size="11" lengthAdjust="spacingAndGlyphs" textLength="83" x="164.5" y="293.6479">getOffset(): int</text><ellipse cx="155.5" cy="304.1445" fill="#84BE84" rx="3" ry="3" style="stroke: #038048; stroke-width: 1.0;"/><text fill="#000000" font-family="sans-serif" font-size="11" lengthAdjust="spacingAndGlyphs" textLength="301" x="164.5" y="306.4526">getSortingComparator(): Optional&lt;Comparator&lt;T&gt;&gt;</text><ellipse cx="155.5" cy="316.9492" fill="#84BE84" rx="3" ry="3" style="stroke: #038048; stroke-width: 1.0;"/><text fill="#000000" font-family="sans-serif" font-size="11" lengthAdjust="spacingAndGlyphs" textLength="227" x="164.5" y="319.2573">getSortOrders(): List&lt;QuerySortOrder&gt;</text><!--class Component--><rect fill="#FEFECE" filter="url(#f1wdlun2eez104)" height="32" id="Component" style="stroke: #A80036; stroke-width: 1.5;" width="104" x="573" y="645"/><ellipse cx="588" cy="661" fill="#ADD1B2" rx="11" ry="11" style="stroke: #A80036; stroke-width: 1.0;"/><path d="M590.3438,656.6719 L590.5156,656.75 C590.7344,656.4375 590.9375,656.3438 591.2344,656.3438 C591.5313,656.3438 591.8125,656.4844 591.9688,656.75 C592.0625,656.9063 592.0781,657.0313 592.0781,657.4688 L592.0781,658.8906 C592.0781,659.3125 592.0469,659.5 591.9375,659.6563 C591.7656,659.875 591.5,660.0156 591.2344,660.0156 C591.0156,660.0156 590.7813,659.9063 590.6406,659.7656 C590.5,659.6406 590.4688,659.5156 590.4063,659.1094 C590.3125,658.7031 590.1406,658.4844 589.6563,658.2031 C589.1875,657.9531 588.5781,657.7969 588,657.7969 C586.2656,657.7969 585.0156,659.1094 585.0156,660.8906 L585.0156,661.9844 C585.0156,663.6875 586.3125,664.7813 588.3594,664.7813 C589.125,664.7813 589.8125,664.6563 590.2344,664.3906 C590.4219,664.2969 590.4219,664.2969 590.875,663.8125 C591.0625,663.625 591.2656,663.5469 591.4844,663.5469 C591.9531,663.5469 592.3438,663.9375 592.3438,664.3906 C592.3438,664.7813 592.0156,665.2344 591.4375,665.6406 C590.6875,666.1875 589.5313,666.4844 588.3125,666.4844 C585.4219,666.4844 583.3125,664.5938 583.3125,662.0156 L583.3125,660.8906 C583.3125,658.1719 585.3125,656.0938 587.9375,656.0938 C588.8125,656.0938 589.4063,656.2344 590.3438,656.6719 Z "/><text fill="#000000" font-family="sans-serif" font-size="12" lengthAdjust="spacingAndGlyphs" textLength="72" x="602" y="665.1543">Component</text><!--class Grid--><rect fill="#FEFECE" filter="url(#f1wdlun2eez104)" height="32" id="Grid" style="stroke: #A80036; stroke-width: 1.5;" width="68" x="712" y="645"/><ellipse cx="727" cy="661" fill="#ADD1B2" rx="11" ry="11" style="stroke: #A80036; stroke-width: 1.0;"/><path d="M729.3438,656.6719 L729.5156,656.75 C729.7344,656.4375 729.9375,656.3438 730.2344,656.3438 C730.5313,656.3438 730.8125,656.4844 730.9688,656.75 C731.0625,656.9063 731.0781,657.0313 731.0781,657.4688 L731.0781,658.8906 C731.0781,659.3125 731.0469,659.5 730.9375,659.6563 C730.7656,659.875 730.5,660.0156 730.2344,660.0156 C730.0156,660.0156 729.7813,659.9063 729.6406,659.7656 C729.5,659.6406 729.4688,659.5156 729.4063,659.1094 C729.3125,658.7031 729.1406,658.4844 728.6563,658.2031 C728.1875,657.9531 727.5781,657.7969 727,657.7969 C725.2656,657.7969 724.0156,659.1094 724.0156,660.8906 L724.0156,661.9844 C724.0156,663.6875 725.3125,664.7813 727.3594,664.7813 C728.125,664.7813 728.8125,664.6563 729.2344,664.3906 C729.4219,664.2969 729.4219,664.2969 729.875,663.8125 C730.0625,663.625 730.2656,663.5469 730.4844,663.5469 C730.9531,663.5469 731.3438,663.9375 731.3438,664.3906 C731.3438,664.7813 731.0156,665.2344 730.4375,665.6406 C729.6875,666.1875 728.5313,666.4844 727.3125,666.4844 C724.4219,666.4844 722.3125,664.5938 722.3125,662.0156 L722.3125,660.8906 C722.3125,658.1719 724.3125,656.0938 726.9375,656.0938 C727.8125,656.0938 728.4063,656.2344 729.3438,656.6719 Z "/><text fill="#000000" font-family="sans-serif" font-size="12" lengthAdjust="spacingAndGlyphs" textLength="25" x="741" y="665.1543">Grid</text><rect fill="#FFFFFF" height="15.9688" style="stroke: #000000; stroke-width: 1.0; stroke-dasharray: 2.0,2.0;" width="9" x="774" y="642"/><text fill="#000000" font-family="sans-serif" font-size="12" font-style="italic" lengthAdjust="spacingAndGlyphs" textLength="7" x="775" y="654.1387">T</text><!--link HasItems to HasDataProvider--><path d="M746,295.211 C746,335.714 746,387.555 746,417.987 " fill="none" id="HasItems-HasDataProvider" style="stroke: #A80036; stroke-width: 1.0;"/><polygon fill="none" points="739,294.95,746,274.95,753,294.95,739,294.95" style="stroke: #A80036; stroke-width: 1.0;"/><!--link Component to Grid--><path d="M697.544,661 C702.273,661 707.003,661 711.732,661 " fill="none" id="Component-Grid" style="stroke: #A80036; stroke-width: 1.0;"/><polygon fill="none" points="697.465,667.9999,677.465,661,697.465,654,697.465,667.9999" style="stroke: #A80036; stroke-width: 1.0;"/><!--link HasDataProvider to Grid--><path d="M746,491.638 C746,540.091 746,613.521 746,644.91 " fill="none" id="HasDataProvider-Grid" style="stroke: #A80036; stroke-width: 1.0; stroke-dasharray: 7.0,7.0;"/><polygon fill="none" points="739,491.374,746,471.374,753,491.374,739,491.374" style="stroke: #A80036; stroke-width: 1.0;"/><!--link HasDataProvider to DataProvider--><path d="M586.422,444.5 C569.505,444.5 552.588,444.5 535.672,444.5 " fill="none" id="HasDataProvider-DataProvider" style="stroke: #A80036; stroke-width: 1.0; stroke-dasharray: 7.0,7.0;"/><polygon fill="#A80036" points="530.422,444.5,539.422,448.5,535.422,444.5,539.422,440.5,530.422,444.5" style="stroke: #A80036; stroke-width: 1.0;"/><!--link Query to DataProvider--><path d="M308,331.315 C308,349.884 308,368.828 308,385.735 " fill="none" id="Query-DataProvider" style="stroke: #A80036; stroke-width: 1.0; stroke-dasharray: 7.0,7.0;"/><polygon fill="#A80036" points="308,326.089,304,335.089,308,331.089,312,335.089,308,326.089" style="stroke: #A80036; stroke-width: 1.0;"/><!--
@startuml
package "com.vaadin.flow" {
 package data {
  package binder {
   interface HasItems<T> {
    + {abstract} setItems(items: Collection<T>)
    + <i>default</i> setItems(streamOfItems: Stream<T>)
    + <i>default</i> setItems(items: T...)
   }
   interface HasDataProvider<T> {
    + {abstract} setDataProvider(dataProvider: DataProvider<T, ?>)
   }
  }
  package provider {
   interface DataProvider<T, F> {
    + {abstract} addDataProviderListener(listener: DataProviderListener<T>): Registration
    + {abstract} fetch(query: Query<T, F>): Stream<T>
    + {abstract} isInMemory(): boolean
    + {abstract} refreshAll()
    + {abstract} refreshItem(item: T)
    + {abstract} size(query: Query<T, F>)
   }
   class Query<T, F> {
    + Query()
    + Query(filter: F)
    + Query(offset: int, limit: int,\n\tsortOrders: List<QuerySortOrder>,\n\tinMemorySorting: Comparator<T>, filter: F)
    + getFilter(): Optional<F>
    + getInMemorySorting(): Comparator<T>
    + getLimit(): int
    + getOffset(): int
    + getSortingComparator(): Optional<Comparator<T>>
    + getSortOrders(): List<QuerySortOrder>
   }
  }
 }
 package component {
  class Component
  package grid {
   class Grid<T>
  }
 }
}
HasDataProvider -up-|> HasItems
Grid -left-|> Component
Grid .up.|> HasDataProvider
HasDataProvider .right.> DataProvider
DataProvider .up.> Query
hide empty members
@enduml

PlantUML version 1.2018.08(Sun Jun 24 12:31:00 UTC 2018)
(GPL source distribution)
Java Runtime: Java(TM) SE Runtime Environment
JVM: Java HotSpot(TM) 64-Bit Server VM
Java Version: 1.7.0_25-b15
Operating System: Linux
Default Encoding: UTF-8
Language: en
Country: US
--></g></svg>