<?xml version="1.0" encoding="UTF-8" standalone="no"?><svg xmlns="http://www.w3.org/2000/svg" xmlns:xlink="http://www.w3.org/1999/xlink" contentScriptType="application/ecmascript" contentStyleType="text/css" height="600px" preserveAspectRatio="xMidYMid" style="width:1094px;height:600px;" version="1.1" viewBox="0 0 1094 600" width="1094px" zoomAndPan="magnify"><defs><filter height="300%" id="f1fs2k6f5ds2fg" width="300%" x="-1" y="-1"><feGaussianBlur result="blurOut" stdDeviation="2.0"/><feColorMatrix in="blurOut" result="blurOut2" type="matrix" values="0 0 0 0 0 0 0 0 0 0 0 0 0 0 0 0 0 0 .4 0"/><feOffset dx="4.0" dy="4.0" in="blurOut2" result="blurOut3"/><feBlend in="SourceGraphic" in2="blurOut3" mode="normal"/></filter></defs><g><!--cluster com.vaadin.flow.component--><polygon fill="#FFFFFF" filter="url(#f1fs2k6f5ds2fg)" points="22,24.5,250,24.5,257,46.7969,1072,46.7969,1072,588,22,588,22,24.5" style="stroke: #000000; stroke-width: 1.5;"/><line style="stroke: #000000; stroke-width: 1.5;" x1="22" x2="257" y1="46.7969" y2="46.7969"/><text fill="#000000" font-family="sans-serif" font-size="14" font-weight="bold" lengthAdjust="spacingAndGlyphs" textLength="222" x="26" y="39.4951">com.vaadin.flow.component</text><!--cluster orderedlayout--><polygon fill="#FFFFFF" filter="url(#f1fs2k6f5ds2fg)" points="99,481,217,481,224,503.2969,422,503.2969,422,564,99,564,99,481" style="stroke: #000000; stroke-width: 1.5;"/><line style="stroke: #000000; stroke-width: 1.5;" x1="99" x2="224" y1="503.2969" y2="503.2969"/><text fill="#000000" font-family="sans-serif" font-size="14" font-weight="bold" lengthAdjust="spacingAndGlyphs" textLength="112" x="103" y="495.9951">orderedlayout</text><!--cluster formlayout--><polygon fill="#FFFFFF" filter="url(#f1fs2k6f5ds2fg)" points="640,340,731,340,738,362.2969,1048,362.2969,1048,457,640,457,640,340" style="stroke: #000000; stroke-width: 1.5;"/><line style="stroke: #000000; stroke-width: 1.5;" x1="640" x2="738" y1="362.2969" y2="362.2969"/><text fill="#000000" font-family="sans-serif" font-size="14" font-weight="bold" lengthAdjust="spacingAndGlyphs" textLength="85" x="644" y="354.9951">formlayout</text><!--class HasElement--><rect fill="#FEFECE" filter="url(#f1fs2k6f5ds2fg)" height="32" id="HasElement" style="stroke: #A80036; stroke-width: 1.5;" width="106" x="773" y="76.5"/><ellipse cx="788" cy="92.5" fill="#B4A7E5" rx="11" ry="11" style="stroke: #A80036; stroke-width: 1.0;"/><path d="M788.9531,89.2813 L788.9531,95.7969 L790.6719,95.7969 C791.125,95.7969 791.2656,95.8281 791.4375,95.9531 C791.6719,96.125 791.7813,96.375 791.7813,96.6563 C791.7813,97.2188 791.4219,97.5 790.6719,97.5 L785.5313,97.5 C785.125,97.5 784.9219,97.4531 784.7656,97.3281 C784.5469,97.1719 784.4063,96.9063 784.4063,96.6563 C784.4063,96.3594 784.5625,96.0781 784.8125,95.9219 C784.9688,95.8125 785.0938,95.7969 785.5313,95.7969 L787.25,95.7969 L787.25,89.2813 L785.5313,89.2813 C785.1094,89.2813 784.9219,89.25 784.7656,89.1406 C784.5469,88.9688 784.4063,88.7188 784.4063,88.4375 C784.4063,88.1563 784.5625,87.8594 784.8125,87.7031 C784.9688,87.6094 785.0938,87.5938 785.5313,87.5938 L790.6719,87.5938 C791.125,87.5938 791.2656,87.625 791.4375,87.7344 C791.6719,87.9063 791.7813,88.1719 791.7813,88.4375 C791.7813,88.7344 791.6406,89.0156 791.375,89.1719 C791.25,89.25 791.0625,89.2813 790.6719,89.2813 Z "/><text fill="#000000" font-family="sans-serif" font-size="12" font-style="italic" lengthAdjust="spacingAndGlyphs" textLength="74" x="802" y="96.6543">HasElement</text><!--class HasEnabled--><rect fill="#FEFECE" filter="url(#f1fs2k6f5ds2fg)" height="65.6094" id="HasEnabled" style="stroke: #A80036; stroke-width: 1.5;" width="238" x="465" y="59.5"/><ellipse cx="542.75" cy="75.5" fill="#B4A7E5" rx="11" ry="11" style="stroke: #A80036; stroke-width: 1.0;"/><path d="M543.7031,72.2813 L543.7031,78.7969 L545.4219,78.7969 C545.875,78.7969 546.0156,78.8281 546.1875,78.9531 C546.4219,79.125 546.5313,79.375 546.5313,79.6563 C546.5313,80.2188 546.1719,80.5 545.4219,80.5 L540.2813,80.5 C539.875,80.5 539.6719,80.4531 539.5156,80.3281 C539.2969,80.1719 539.1563,79.9063 539.1563,79.6563 C539.1563,79.3594 539.3125,79.0781 539.5625,78.9219 C539.7188,78.8125 539.8438,78.7969 540.2813,78.7969 L542,78.7969 L542,72.2813 L540.2813,72.2813 C539.8594,72.2813 539.6719,72.25 539.5156,72.1406 C539.2969,71.9688 539.1563,71.7188 539.1563,71.4375 C539.1563,71.1563 539.3125,70.8594 539.5625,70.7031 C539.7188,70.6094 539.8438,70.5938 540.2813,70.5938 L545.4219,70.5938 C545.875,70.5938 546.0156,70.625 546.1875,70.7344 C546.4219,70.9063 546.5313,71.1719 546.5313,71.4375 C546.5313,71.7344 546.3906,72.0156 546.125,72.1719 C546,72.25 545.8125,72.2813 545.4219,72.2813 Z "/><text fill="#000000" font-family="sans-serif" font-size="12" font-style="italic" lengthAdjust="spacingAndGlyphs" textLength="74" x="563.25" y="79.6543">HasEnabled</text><line style="stroke: #A80036; stroke-width: 1.5;" x1="466" x2="702" y1="91.5" y2="91.5"/><ellipse cx="476" cy="103.4023" fill="#84BE84" rx="3" ry="3" style="stroke: #038048; stroke-width: 1.0;"/><text fill="#000000" font-family="sans-serif" font-size="11" font-style="italic" lengthAdjust="spacingAndGlyphs" textLength="39" x="485" y="105.7104">default</text><text fill="#000000" font-family="sans-serif" font-size="11" lengthAdjust="spacingAndGlyphs" textLength="116" x="528" y="105.7104">isEnabled(): boolean</text><ellipse cx="476" cy="116.207" fill="#84BE84" rx="3" ry="3" style="stroke: #038048; stroke-width: 1.0;"/><text fill="#000000" font-family="sans-serif" font-size="11" font-style="italic" lengthAdjust="spacingAndGlyphs" textLength="39" x="485" y="118.5151">default</text><text fill="#000000" font-family="sans-serif" font-size="11" lengthAdjust="spacingAndGlyphs" textLength="169" x="528" y="118.5151">setEnabled(enabled: boolean)</text><!--class HasComponents--><rect fill="#FEFECE" filter="url(#f1fs2k6f5ds2fg)" height="78.4141" id="HasComponents" style="stroke: #A80036; stroke-width: 1.5;" width="275" x="429.5" y="205"/><ellipse cx="512.25" cy="221" fill="#B4A7E5" rx="11" ry="11" style="stroke: #A80036; stroke-width: 1.0;"/><path d="M513.2031,217.7813 L513.2031,224.2969 L514.9219,224.2969 C515.375,224.2969 515.5156,224.3281 515.6875,224.4531 C515.9219,224.625 516.0313,224.875 516.0313,225.1563 C516.0313,225.7188 515.6719,226 514.9219,226 L509.7813,226 C509.375,226 509.1719,225.9531 509.0156,225.8281 C508.7969,225.6719 508.6563,225.4063 508.6563,225.1563 C508.6563,224.8594 508.8125,224.5781 509.0625,224.4219 C509.2188,224.3125 509.3438,224.2969 509.7813,224.2969 L511.5,224.2969 L511.5,217.7813 L509.7813,217.7813 C509.3594,217.7813 509.1719,217.75 509.0156,217.6406 C508.7969,217.4688 508.6563,217.2188 508.6563,216.9375 C508.6563,216.6563 508.8125,216.3594 509.0625,216.2031 C509.2188,216.1094 509.3438,216.0938 509.7813,216.0938 L514.9219,216.0938 C515.375,216.0938 515.5156,216.125 515.6875,216.2344 C515.9219,216.4063 516.0313,216.6719 516.0313,216.9375 C516.0313,217.2344 515.8906,217.5156 515.625,217.6719 C515.5,217.75 515.3125,217.7813 514.9219,217.7813 Z "/><text fill="#000000" font-family="sans-serif" font-size="12" font-style="italic" lengthAdjust="spacingAndGlyphs" textLength="101" x="532.75" y="225.1543">HasComponents</text><line style="stroke: #A80036; stroke-width: 1.5;" x1="430.5" x2="703.5" y1="237" y2="237"/><ellipse cx="440.5" cy="248.9023" fill="#84BE84" rx="3" ry="3" style="stroke: #038048; stroke-width: 1.0;"/><text fill="#000000" font-family="sans-serif" font-size="11" font-style="italic" lengthAdjust="spacingAndGlyphs" textLength="39" x="449.5" y="251.2104">default</text><text fill="#000000" font-family="sans-serif" font-size="11" lengthAdjust="spacingAndGlyphs" textLength="184" x="492.5" y="251.2104">add(components: Component...)</text><ellipse cx="440.5" cy="261.707" fill="#84BE84" rx="3" ry="3" style="stroke: #038048; stroke-width: 1.0;"/><text fill="#000000" font-family="sans-serif" font-size="11" font-style="italic" lengthAdjust="spacingAndGlyphs" textLength="39" x="449.5" y="264.0151">default</text><text fill="#000000" font-family="sans-serif" font-size="11" lengthAdjust="spacingAndGlyphs" textLength="206" x="492.5" y="264.0151">remove(components: Component...)</text><ellipse cx="440.5" cy="274.5117" fill="#84BE84" rx="3" ry="3" style="stroke: #038048; stroke-width: 1.0;"/><text fill="#000000" font-family="sans-serif" font-size="11" font-style="italic" lengthAdjust="spacingAndGlyphs" textLength="39" x="449.5" y="276.8198">default</text><text fill="#000000" font-family="sans-serif" font-size="11" lengthAdjust="spacingAndGlyphs" textLength="64" x="492.5" y="276.8198">removeAll()</text><!--class HasOrderedComponents--><rect fill="#FEFECE" filter="url(#f1fs2k6f5ds2fg)" height="91.2188" id="HasOrderedComponents" style="stroke: #A80036; stroke-width: 1.5;" width="443" x="177.5" y="362.5"/><ellipse cx="248.75" cy="378.5" fill="#B4A7E5" rx="11" ry="11" style="stroke: #A80036; stroke-width: 1.0;"/><path d="M249.7031,375.2813 L249.7031,381.7969 L251.4219,381.7969 C251.875,381.7969 252.0156,381.8281 252.1875,381.9531 C252.4219,382.125 252.5313,382.375 252.5313,382.6563 C252.5313,383.2188 252.1719,383.5 251.4219,383.5 L246.2813,383.5 C245.875,383.5 245.6719,383.4531 245.5156,383.3281 C245.2969,383.1719 245.1563,382.9063 245.1563,382.6563 C245.1563,382.3594 245.3125,382.0781 245.5625,381.9219 C245.7188,381.8125 245.8438,381.7969 246.2813,381.7969 L248,381.7969 L248,375.2813 L246.2813,375.2813 C245.8594,375.2813 245.6719,375.25 245.5156,375.1406 C245.2969,374.9688 245.1563,374.7188 245.1563,374.4375 C245.1563,374.1563 245.3125,373.8594 245.5625,373.7031 C245.7188,373.6094 245.8438,373.5938 246.2813,373.5938 L251.4219,373.5938 C251.875,373.5938 252.0156,373.625 252.1875,373.7344 C252.4219,373.9063 252.5313,374.1719 252.5313,374.4375 C252.5313,374.7344 252.3906,375.0156 252.125,375.1719 C252,375.25 251.8125,375.2813 251.4219,375.2813 Z "/><text fill="#000000" font-family="sans-serif" font-size="12" font-style="italic" lengthAdjust="spacingAndGlyphs" textLength="151" x="269.25" y="382.6543">HasOrderedComponents</text><rect fill="#FFFFFF" height="15.9688" style="stroke: #000000; stroke-width: 1.0; stroke-dasharray: 2.0,2.0;" width="139" x="484.5" y="359.5"/><text fill="#000000" font-family="sans-serif" font-size="12" font-style="italic" lengthAdjust="spacingAndGlyphs" textLength="137" x="485.5" y="371.6387">T extends Component</text><line style="stroke: #A80036; stroke-width: 1.5;" x1="178.5" x2="619.5" y1="394.5" y2="394.5"/><ellipse cx="188.5" cy="406.4023" fill="#84BE84" rx="3" ry="3" style="stroke: #038048; stroke-width: 1.0;"/><text fill="#000000" font-family="sans-serif" font-size="11" font-style="italic" lengthAdjust="spacingAndGlyphs" textLength="39" x="197.5" y="408.7104">default</text><text fill="#000000" font-family="sans-serif" font-size="11" lengthAdjust="spacingAndGlyphs" textLength="227" x="240.5" y="408.7104">getComponentAt(index: int): Component</text><ellipse cx="188.5" cy="419.207" fill="#84BE84" rx="3" ry="3" style="stroke: #038048; stroke-width: 1.0;"/><text fill="#000000" font-family="sans-serif" font-size="11" font-style="italic" lengthAdjust="spacingAndGlyphs" textLength="39" x="197.5" y="421.5151">default</text><text fill="#000000" font-family="sans-serif" font-size="11" lengthAdjust="spacingAndGlyphs" textLength="146" x="240.5" y="421.5151">getComponentCount(): int</text><ellipse cx="188.5" cy="432.0117" fill="#84BE84" rx="3" ry="3" style="stroke: #038048; stroke-width: 1.0;"/><text fill="#000000" font-family="sans-serif" font-size="11" font-style="italic" lengthAdjust="spacingAndGlyphs" textLength="39" x="197.5" y="434.3198">default</text><text fill="#000000" font-family="sans-serif" font-size="11" lengthAdjust="spacingAndGlyphs" textLength="209" x="240.5" y="434.3198">indexOf(component: Component): int</text><ellipse cx="188.5" cy="444.8164" fill="#84BE84" rx="3" ry="3" style="stroke: #038048; stroke-width: 1.0;"/><text fill="#000000" font-family="sans-serif" font-size="11" font-style="italic" lengthAdjust="spacingAndGlyphs" textLength="39" x="197.5" y="447.1245">default</text><text fill="#000000" font-family="sans-serif" font-size="11" lengthAdjust="spacingAndGlyphs" textLength="374" x="240.5" y="447.1245">replace(oldComponent: Component, newComponent: Component)</text><!--class HasSize--><rect fill="#FEFECE" filter="url(#f1fs2k6f5ds2fg)" height="116.8281" id="HasSize" style="stroke: #A80036; stroke-width: 1.5;" width="208" x="740" y="185.5"/><ellipse cx="815.75" cy="201.5" fill="#B4A7E5" rx="11" ry="11" style="stroke: #A80036; stroke-width: 1.0;"/><path d="M816.7031,198.2813 L816.7031,204.7969 L818.4219,204.7969 C818.875,204.7969 819.0156,204.8281 819.1875,204.9531 C819.4219,205.125 819.5313,205.375 819.5313,205.6563 C819.5313,206.2188 819.1719,206.5 818.4219,206.5 L813.2813,206.5 C812.875,206.5 812.6719,206.4531 812.5156,206.3281 C812.2969,206.1719 812.1563,205.9063 812.1563,205.6563 C812.1563,205.3594 812.3125,205.0781 812.5625,204.9219 C812.7188,204.8125 812.8438,204.7969 813.2813,204.7969 L815,204.7969 L815,198.2813 L813.2813,198.2813 C812.8594,198.2813 812.6719,198.25 812.5156,198.1406 C812.2969,197.9688 812.1563,197.7188 812.1563,197.4375 C812.1563,197.1563 812.3125,196.8594 812.5625,196.7031 C812.7188,196.6094 812.8438,196.5938 813.2813,196.5938 L818.4219,196.5938 C818.875,196.5938 819.0156,196.625 819.1875,196.7344 C819.4219,196.9063 819.5313,197.1719 819.5313,197.4375 C819.5313,197.7344 819.3906,198.0156 819.125,198.1719 C819,198.25 818.8125,198.2813 818.4219,198.2813 Z "/><text fill="#000000" font-family="sans-serif" font-size="12" font-style="italic" lengthAdjust="spacingAndGlyphs" textLength="48" x="836.25" y="205.6543">HasSize</text><line style="stroke: #A80036; stroke-width: 1.5;" x1="741" x2="947" y1="217.5" y2="217.5"/><ellipse cx="751" cy="229.4023" fill="#84BE84" rx="3" ry="3" style="stroke: #038048; stroke-width: 1.0;"/><text fill="#000000" font-family="sans-serif" font-size="11" font-style="italic" lengthAdjust="spacingAndGlyphs" textLength="39" x="760" y="231.7104">default</text><text fill="#000000" font-family="sans-serif" font-size="11" lengthAdjust="spacingAndGlyphs" textLength="104" x="803" y="231.7104">getHeight(): String</text><ellipse cx="751" cy="242.207" fill="#84BE84" rx="3" ry="3" style="stroke: #038048; stroke-width: 1.0;"/><text fill="#000000" font-family="sans-serif" font-size="11" font-style="italic" lengthAdjust="spacingAndGlyphs" textLength="39" x="760" y="244.5151">default</text><text fill="#000000" font-family="sans-serif" font-size="11" lengthAdjust="spacingAndGlyphs" textLength="98" x="803" y="244.5151">getWidth(): String</text><ellipse cx="751" cy="255.0117" fill="#84BE84" rx="3" ry="3" style="stroke: #038048; stroke-width: 1.0;"/><text fill="#000000" font-family="sans-serif" font-size="11" font-style="italic" lengthAdjust="spacingAndGlyphs" textLength="39" x="760" y="257.3198">default</text><text fill="#000000" font-family="sans-serif" font-size="11" lengthAdjust="spacingAndGlyphs" textLength="139" x="803" y="257.3198">setHeight(height: String)</text><ellipse cx="751" cy="267.8164" fill="#84BE84" rx="3" ry="3" style="stroke: #038048; stroke-width: 1.0;"/><text fill="#000000" font-family="sans-serif" font-size="11" font-style="italic" lengthAdjust="spacingAndGlyphs" textLength="39" x="760" y="270.1245">default</text><text fill="#000000" font-family="sans-serif" font-size="11" lengthAdjust="spacingAndGlyphs" textLength="128" x="803" y="270.1245">setWidth(width: String)</text><ellipse cx="751" cy="280.6211" fill="#84BE84" rx="3" ry="3" style="stroke: #038048; stroke-width: 1.0;"/><text fill="#000000" font-family="sans-serif" font-size="11" font-style="italic" lengthAdjust="spacingAndGlyphs" textLength="39" x="760" y="282.9292">default</text><text fill="#000000" font-family="sans-serif" font-size="11" lengthAdjust="spacingAndGlyphs" textLength="68" x="803" y="282.9292">setSizeFull()</text><ellipse cx="751" cy="293.4258" fill="#84BE84" rx="3" ry="3" style="stroke: #038048; stroke-width: 1.0;"/><text fill="#000000" font-family="sans-serif" font-size="11" font-style="italic" lengthAdjust="spacingAndGlyphs" textLength="39" x="760" y="295.7339">default</text><text fill="#000000" font-family="sans-serif" font-size="11" lengthAdjust="spacingAndGlyphs" textLength="106" x="803" y="295.7339">setSizeUndefined()</text><!--class Component--><rect fill="#FEFECE" filter="url(#f1fs2k6f5ds2fg)" height="32" id="Component" style="stroke: #A80036; stroke-width: 1.5;" width="104" x="38" y="392"/><ellipse cx="53" cy="408" fill="#A9DCDF" rx="11" ry="11" style="stroke: #A80036; stroke-width: 1.0;"/><path d="M54.5781,409.8125 L50.5313,409.8125 L50.1406,410.7969 L50.5313,410.7969 C50.9844,410.7969 51.125,410.8281 51.2969,410.9531 C51.5156,411.125 51.6406,411.375 51.6406,411.6563 C51.6406,411.9375 51.5,412.2344 51.2344,412.375 C51.1094,412.4688 50.8906,412.5 50.5313,412.5 L48.2656,412.5 C47.5156,412.5 47.1406,412.2188 47.1406,411.6563 C47.1406,411.3594 47.2969,411.0781 47.5469,410.9219 C47.7031,410.8125 47.8594,410.7969 48.2813,410.7969 L50.9219,404.2813 L49.8438,404.2813 C49.4063,404.2813 49.2344,404.25 49.0625,404.1406 C48.8438,403.9688 48.7031,403.7188 48.7031,403.4375 C48.7031,403.1563 48.8594,402.875 49.1094,402.7031 C49.2656,402.6094 49.3906,402.5938 49.8438,402.5938 L53.5156,402.5938 L56.9063,410.7969 C57.375,410.7969 57.5313,410.8281 57.7031,410.9688 C57.9219,411.125 58.0625,411.375 58.0625,411.6563 C58.0625,411.9375 57.9063,412.2344 57.6563,412.375 C57.5156,412.4688 57.2969,412.5 56.9375,412.5 L54.5781,412.5 C54.1563,412.5 53.9531,412.4531 53.8125,412.3281 C53.5938,412.1719 53.4531,411.9219 53.4531,411.6563 C53.4531,411.3594 53.6094,411.0781 53.8594,410.9219 C54.0156,410.8125 54.125,410.7969 54.5781,410.7969 L54.9688,410.7969 Z M53.875,408.1094 L52.5469,404.8438 L51.2031,408.1094 Z "/><text fill="#000000" font-family="sans-serif" font-size="12" font-style="italic" lengthAdjust="spacingAndGlyphs" textLength="72" x="67" y="412.1543">Component</text><!--class VerticalLayout--><rect fill="#FEFECE" filter="url(#f1fs2k6f5ds2fg)" height="32" id="VerticalLayout" style="stroke: #A80036; stroke-width: 1.5;" width="120" x="286" y="516"/><ellipse cx="301" cy="532" fill="#ADD1B2" rx="11" ry="11" style="stroke: #A80036; stroke-width: 1.0;"/><path d="M303.3438,527.6719 L303.5156,527.75 C303.7344,527.4375 303.9375,527.3438 304.2344,527.3438 C304.5313,527.3438 304.8125,527.4844 304.9688,527.75 C305.0625,527.9063 305.0781,528.0313 305.0781,528.4688 L305.0781,529.8906 C305.0781,530.3125 305.0469,530.5 304.9375,530.6563 C304.7656,530.875 304.5,531.0156 304.2344,531.0156 C304.0156,531.0156 303.7813,530.9063 303.6406,530.7656 C303.5,530.6406 303.4688,530.5156 303.4063,530.1094 C303.3125,529.7031 303.1406,529.4844 302.6563,529.2031 C302.1875,528.9531 301.5781,528.7969 301,528.7969 C299.2656,528.7969 298.0156,530.1094 298.0156,531.8906 L298.0156,532.9844 C298.0156,534.6875 299.3125,535.7813 301.3594,535.7813 C302.125,535.7813 302.8125,535.6563 303.2344,535.3906 C303.4219,535.2969 303.4219,535.2969 303.875,534.8125 C304.0625,534.625 304.2656,534.5469 304.4844,534.5469 C304.9531,534.5469 305.3438,534.9375 305.3438,535.3906 C305.3438,535.7813 305.0156,536.2344 304.4375,536.6406 C303.6875,537.1875 302.5313,537.4844 301.3125,537.4844 C298.4219,537.4844 296.3125,535.5938 296.3125,533.0156 L296.3125,531.8906 C296.3125,529.1719 298.3125,527.0938 300.9375,527.0938 C301.8125,527.0938 302.4063,527.2344 303.3438,527.6719 Z "/><text fill="#000000" font-family="sans-serif" font-size="12" lengthAdjust="spacingAndGlyphs" textLength="88" x="315" y="536.1543">VerticalLayout</text><!--class HorizontalLayout--><rect fill="#FEFECE" filter="url(#f1fs2k6f5ds2fg)" height="32" id="HorizontalLayout" style="stroke: #A80036; stroke-width: 1.5;" width="135" x="115.5" y="516"/><ellipse cx="130.5" cy="532" fill="#ADD1B2" rx="11" ry="11" style="stroke: #A80036; stroke-width: 1.0;"/><path d="M132.8438,527.6719 L133.0156,527.75 C133.2344,527.4375 133.4375,527.3438 133.7344,527.3438 C134.0313,527.3438 134.3125,527.4844 134.4688,527.75 C134.5625,527.9063 134.5781,528.0313 134.5781,528.4688 L134.5781,529.8906 C134.5781,530.3125 134.5469,530.5 134.4375,530.6563 C134.2656,530.875 134,531.0156 133.7344,531.0156 C133.5156,531.0156 133.2813,530.9063 133.1406,530.7656 C133,530.6406 132.9688,530.5156 132.9063,530.1094 C132.8125,529.7031 132.6406,529.4844 132.1563,529.2031 C131.6875,528.9531 131.0781,528.7969 130.5,528.7969 C128.7656,528.7969 127.5156,530.1094 127.5156,531.8906 L127.5156,532.9844 C127.5156,534.6875 128.8125,535.7813 130.8594,535.7813 C131.625,535.7813 132.3125,535.6563 132.7344,535.3906 C132.9219,535.2969 132.9219,535.2969 133.375,534.8125 C133.5625,534.625 133.7656,534.5469 133.9844,534.5469 C134.4531,534.5469 134.8438,534.9375 134.8438,535.3906 C134.8438,535.7813 134.5156,536.2344 133.9375,536.6406 C133.1875,537.1875 132.0313,537.4844 130.8125,537.4844 C127.9219,537.4844 125.8125,535.5938 125.8125,533.0156 L125.8125,531.8906 C125.8125,529.1719 127.8125,527.0938 130.4375,527.0938 C131.3125,527.0938 131.9063,527.2344 132.8438,527.6719 Z "/><text fill="#000000" font-family="sans-serif" font-size="12" lengthAdjust="spacingAndGlyphs" textLength="103" x="144.5" y="536.1543">HorizontalLayout</text><!--class FormLayout--><rect fill="#FEFECE" filter="url(#f1fs2k6f5ds2fg)" height="65.6094" id="FormLayout" style="stroke: #A80036; stroke-width: 1.5;" width="376" x="656" y="375"/><ellipse cx="803.75" cy="391" fill="#ADD1B2" rx="11" ry="11" style="stroke: #A80036; stroke-width: 1.0;"/><path d="M806.0938,386.6719 L806.2656,386.75 C806.4844,386.4375 806.6875,386.3438 806.9844,386.3438 C807.2813,386.3438 807.5625,386.4844 807.7188,386.75 C807.8125,386.9063 807.8281,387.0313 807.8281,387.4688 L807.8281,388.8906 C807.8281,389.3125 807.7969,389.5 807.6875,389.6563 C807.5156,389.875 807.25,390.0156 806.9844,390.0156 C806.7656,390.0156 806.5313,389.9063 806.3906,389.7656 C806.25,389.6406 806.2188,389.5156 806.1563,389.1094 C806.0625,388.7031 805.8906,388.4844 805.4063,388.2031 C804.9375,387.9531 804.3281,387.7969 803.75,387.7969 C802.0156,387.7969 800.7656,389.1094 800.7656,390.8906 L800.7656,391.9844 C800.7656,393.6875 802.0625,394.7813 804.1094,394.7813 C804.875,394.7813 805.5625,394.6563 805.9844,394.3906 C806.1719,394.2969 806.1719,394.2969 806.625,393.8125 C806.8125,393.625 807.0156,393.5469 807.2344,393.5469 C807.7031,393.5469 808.0938,393.9375 808.0938,394.3906 C808.0938,394.7813 807.7656,395.2344 807.1875,395.6406 C806.4375,396.1875 805.2813,396.4844 804.0625,396.4844 C801.1719,396.4844 799.0625,394.5938 799.0625,392.0156 L799.0625,390.8906 C799.0625,388.1719 801.0625,386.0938 803.6875,386.0938 C804.5625,386.0938 805.1563,386.2344 806.0938,386.6719 Z "/><text fill="#000000" font-family="sans-serif" font-size="12" lengthAdjust="spacingAndGlyphs" textLength="72" x="824.25" y="395.1543">FormLayout</text><line style="stroke: #A80036; stroke-width: 1.5;" x1="657" x2="1031" y1="407" y2="407"/><ellipse cx="667" cy="418.9023" fill="#84BE84" rx="3" ry="3" style="stroke: #038048; stroke-width: 1.0;"/><text fill="#000000" font-family="sans-serif" font-size="11" lengthAdjust="spacingAndGlyphs" textLength="319" x="676" y="421.2104">addFormItem(field: Component, label: String): FormItem</text><ellipse cx="667" cy="431.707" fill="#84BE84" rx="3" ry="3" style="stroke: #038048; stroke-width: 1.0;"/><text fill="#000000" font-family="sans-serif" font-size="11" lengthAdjust="spacingAndGlyphs" textLength="350" x="676" y="434.0151">addFormItem(field: Component, label: Component): FormItem</text><!--link HasEnabled to HasElement--><path d="M703.109,92.5 C719.605,92.5 736.1,92.5 752.595,92.5 " fill="none" id="HasEnabled-HasElement" style="stroke: #A80036; stroke-width: 1.0;"/><polygon fill="none" points="752.715,85.5,772.715,92.5,752.715,99.5,752.715,85.5" style="stroke: #A80036; stroke-width: 1.0;"/><!--link HasEnabled to HasComponents--><path d="M578.079,145.567 C575.86,165.082 573.382,186.876 571.333,204.895 " fill="none" id="HasEnabled-HasComponents" style="stroke: #A80036; stroke-width: 1.0;"/><polygon fill="none" points="571.138,144.653,580.353,125.572,585.048,146.234,571.138,144.653" style="stroke: #A80036; stroke-width: 1.0;"/><!--link HasComponents to HasOrderedComponents--><path d="M512.721,297.341 C491,318.286 466.236,342.166 445.374,362.282 " fill="none" id="HasComponents-HasOrderedComponents" style="stroke: #A80036; stroke-width: 1.0;"/><polygon fill="none" points="507.93,292.236,527.186,283.392,517.648,302.313,507.93,292.236" style="stroke: #A80036; stroke-width: 1.0;"/><!--link HasOrderedComponents to VerticalLayout--><path d="M371.514,472.269 C364.459,488.51 357.497,504.5358 352.632,515.7338 " fill="none" id="HasOrderedComponents-VerticalLayout" style="stroke: #A80036; stroke-width: 1.0; stroke-dasharray: 7.0,7.0;"/><polygon fill="none" points="365.176,469.29,379.566,453.736,378.017,474.869,365.176,469.29" style="stroke: #A80036; stroke-width: 1.0;"/><!--link HasOrderedComponents to HorizontalLayout--><path d="M285.837,462.991 C279.759,466.293 273.778,469.641 268,473 C245.142,486.289 220.304,503.598 203.415,515.8371 " fill="none" id="HasOrderedComponents-HorizontalLayout" style="stroke: #A80036; stroke-width: 1.0; stroke-dasharray: 7.0,7.0;"/><polygon fill="none" points="282.744,456.709,303.697,453.548,289.288,469.085,282.744,456.709" style="stroke: #A80036; stroke-width: 1.0;"/><!--link Component to VerticalLayout--><path d="M118.338,438.125 C130.184,448.46 144.739,459.005 160,465 C204.798,482.6 222.898,456.195 268,473 C292.827,482.25 316.539,501.969 331.166,515.837 " fill="none" id="Component-VerticalLayout" style="stroke: #A80036; stroke-width: 1.0;"/><polygon fill="none" points="113.3,442.995,103.6056,424.153,122.934,432.837,113.3,442.995" style="stroke: #A80036; stroke-width: 1.0;"/><!--link Component to HorizontalLayout--><path d="M114.114,440.634 C132.507,464.762 157.038,496.942 171.317,515.6741 " fill="none" id="Component-HorizontalLayout" style="stroke: #A80036; stroke-width: 1.0;"/><polygon fill="none" points="108.336,444.601,101.7785,424.451,119.47,436.113,108.336,444.601" style="stroke: #A80036; stroke-width: 1.0;"/><!--link HasElement to HasSize--><path d="M830.218,128.531 C832.253,145.437 834.749,166.163 837.054,185.311 " fill="none" id="HasElement-HasSize" style="stroke: #A80036; stroke-width: 1.0;"/><polygon fill="none" points="823.266,129.351,827.825,108.658,837.166,127.677,823.266,129.351" style="stroke: #A80036; stroke-width: 1.0;"/><!--link HasSize to FormLayout--><path d="M844,322.607 C844,340.964 844,359.555 844,374.597 " fill="none" id="HasSize-FormLayout" style="stroke: #A80036; stroke-width: 1.0; stroke-dasharray: 7.0,7.0;"/><polygon fill="none" points="837,322.571,844,302.571,851,322.571,837,322.571" style="stroke: #A80036; stroke-width: 1.0;"/><!--link HasComponents to FormLayout--><path d="M649.664,293.345 C694.677,319.67 749.14,351.522 788.944,374.801 " fill="none" id="HasComponents-FormLayout" style="stroke: #A80036; stroke-width: 1.0; stroke-dasharray: 7.0,7.0;"/><polygon fill="none" points="646.025,299.326,632.294,283.187,653.093,287.241,646.025,299.326" style="stroke: #A80036; stroke-width: 1.0;"/><!--
@startuml
package "com.vaadin.flow.component" {
 interface HasElement
 interface HasEnabled {
  + <i>default</i> isEnabled(): boolean
  + <i>default</i> setEnabled(enabled: boolean)
 }
 interface HasComponents {
  + <i>default</i> add(components: Component...)
  + <i>default</i> remove(components: Component...)
  + <i>default</i> removeAll()
 }
 interface HasOrderedComponents<T extends Component> {
  + <i>default</i> getComponentAt(index: int): Component
  + <i>default</i> getComponentCount(): int
  + <i>default</i> indexOf(component: Component): int
  + <i>default</i> replace(oldComponent: Component, newComponent: Component)
 }
 interface HasSize {
  + <i>default</i> getHeight(): String
  + <i>default</i> getWidth(): String
  + <i>default</i> setHeight(height: String)
  + <i>default</i> setWidth(width: String)
  + <i>default</i> setSizeFull()
  + <i>default</i> setSizeUndefined()
 }
 abstract class Component
 package orderedlayout {
  class VerticalLayout
  class HorizontalLayout
 }
 package formlayout {
  class FormLayout {
   + addFormItem(field: Component, label: String): FormItem
   + addFormItem(field: Component, label: Component): FormItem
  }
 }
}
HasEnabled -right-|> HasElement
HasComponents -left-|> HasEnabled
HasOrderedComponents -up-|> HasComponents
VerticalLayout .up.|> HasOrderedComponents
HorizontalLayout .up.|> HasOrderedComponents
VerticalLayout -up-|> Component
HorizontalLayout -up-|> Component
HasSize -up-|> HasElement
FormLayout .up.|> HasSize
FormLayout .up.|> HasComponents
hide empty members
@enduml

PlantUML version 1.2018.08(Sun Jun 24 12:31:00 UTC 2018)
(GPL source distribution)
Java Runtime: Java(TM) SE Runtime Environment
JVM: Java HotSpot(TM) 64-Bit Server VM
Java Version: 1.7.0_25-b15
Operating System: Linux
Default Encoding: UTF-8
Language: en
Country: US
--></g></svg>