<?xml version="1.0" encoding="UTF-8" standalone="no"?>
<svg xmlns="http://www.w3.org/2000/svg" xmlns:xlink="http://www.w3.org/1999/xlink" contentScriptType="application/ecmascript" contentStyleType="text/css" height="855px" preserveAspectRatio="none" style="width:1000px;height:855px;" version="1.1" viewBox="0 0 1000 855" width="1000px" zoomAndPan="magnify"><defs><filter height="300%" id="f4mv8ulw9kgvk" width="300%" x="-1" y="-1"><feGaussianBlur result="blurOut" stdDeviation="2.0"/><feColorMatrix in="blurOut" result="blurOut2" type="matrix" values="0 0 0 0 0 0 0 0 0 0 0 0 0 0 0 0 0 0 .4 0"/><feOffset dx="4.0" dy="4.0" in="blurOut2" result="blurOut3"/><feBlend in="SourceGraphic" in2="blurOut3" mode="normal"/></filter></defs><g><!--cluster com.vaadin.flow--><polygon fill="#FFFFFF" filter="url(#f4mv8ulw9kgvk)" points="22,24,156,24,163,46.2969,978,46.2969,978,843,22,843,22,24" style="stroke: #000000; stroke-width: 1.5;"/><line style="stroke: #000000; stroke-width: 1.5;" x1="22" x2="163" y1="46.2969" y2="46.2969"/><text fill="#000000" font-family="sans-serif" font-size="14" font-weight="bold" lengthAdjust="spacingAndGlyphs" textLength="128" x="26" y="38.9951">com.vaadin.flow</text><!--cluster data--><polygon fill="#FFFFFF" filter="url(#f4mv8ulw9kgvk)" points="46,67,86,67,93,89.2969,954,89.2969,954,645,46,645,46,67" style="stroke: #000000; stroke-width: 1.5;"/><line style="stroke: #000000; stroke-width: 1.5;" x1="46" x2="93" y1="89.2969" y2="89.2969"/><text fill="#000000" font-family="sans-serif" font-size="14" font-weight="bold" lengthAdjust="spacingAndGlyphs" textLength="34" x="50" y="81.9951">data</text><!--cluster binder--><polygon fill="#FFFFFF" filter="url(#f4mv8ulw9kgvk)" points="578,161.5,635,161.5,642,183.7969,930,183.7969,930,544.5,578,544.5,578,161.5" style="stroke: #000000; stroke-width: 1.5;"/><line style="stroke: #000000; stroke-width: 1.5;" x1="578" x2="642" y1="183.7969" y2="183.7969"/><text fill="#000000" font-family="sans-serif" font-size="14" font-weight="bold" lengthAdjust="spacingAndGlyphs" textLength="51" x="582" y="176.4951">binder</text><!--cluster provider--><polygon fill="#FFFFFF" filter="url(#f4mv8ulw9kgvk)" points="70,110,143,110,150,132.2969,554,132.2969,554,621,70,621,70,110" style="stroke: #000000; stroke-width: 1.5;"/><line style="stroke: #000000; stroke-width: 1.5;" x1="70" x2="150" y1="132.2969" y2="132.2969"/><text fill="#000000" font-family="sans-serif" font-size="14" font-weight="bold" lengthAdjust="spacingAndGlyphs" textLength="67" x="74" y="124.9951">provider</text><!--cluster component--><polygon fill="#FFFFFF" filter="url(#f4mv8ulw9kgvk)" points="565,669,660,669,667,691.2969,828,691.2969,828,819,565,819,565,669" style="stroke: #000000; stroke-width: 1.5;"/><line style="stroke: #000000; stroke-width: 1.5;" x1="565" x2="667" y1="691.2969" y2="691.2969"/><text fill="#000000" font-family="sans-serif" font-size="14" font-weight="bold" lengthAdjust="spacingAndGlyphs" textLength="89" x="569" y="683.9951">component</text><!--cluster grid--><polygon fill="#FFFFFF" filter="url(#f4mv8ulw9kgvk)" points="704,712,741,712,748,734.2969,804,734.2969,804,795,704,795,704,712" style="stroke: #000000; stroke-width: 1.5;"/><line style="stroke: #000000; stroke-width: 1.5;" x1="704" x2="748" y1="734.2969" y2="734.2969"/><text fill="#000000" font-family="sans-serif" font-size="14" font-weight="bold" lengthAdjust="spacingAndGlyphs" textLength="31" x="708" y="726.9951">grid</text><!--class HasItems--><rect fill="#FEFECE" filter="url(#f4mv8ulw9kgvk)" height="78.4141" id="HasItems" style="stroke: #A80036; stroke-width: 1.5;" width="245" x="631.5" y="196.5"/><ellipse cx="715.75" cy="212.5" fill="#B4A7E5" rx="11" ry="11" style="stroke: #A80036; stroke-width: 1.0;"/><path d="M716.7031,209.2813 L716.7031,215.7969 L718.4219,215.7969 C718.875,215.7969 719.0156,215.8281 719.1875,215.9531 C719.4219,216.125 719.5313,216.375 719.5313,216.6563 C719.5313,217.2188 719.1719,217.5 718.4219,217.5 L713.2813,217.5 C712.875,217.5 712.6719,217.4531 712.5156,217.3281 C712.2969,217.1719 712.1563,216.9063 712.1563,216.6563 C712.1563,216.3594 712.3125,216.0781 712.5625,215.9219 C712.7188,215.8125 712.8438,215.7969 713.2813,215.7969 L715,215.7969 L715,209.2813 L713.2813,209.2813 C712.8594,209.2813 712.6719,209.25 712.5156,209.1406 C712.2969,208.9688 712.1563,208.7188 712.1563,208.4375 C712.1563,208.1563 712.3125,207.8594 712.5625,207.7031 C712.7188,207.6094 712.8438,207.5938 713.2813,207.5938 L718.4219,207.5938 C718.875,207.5938 719.0156,207.625 719.1875,207.7344 C719.4219,207.9063 719.5313,208.1719 719.5313,208.4375 C719.5313,208.7344 719.3906,209.0156 719.125,209.1719 C719,209.25 718.8125,209.2813 718.4219,209.2813 Z "/><text fill="#000000" font-family="sans-serif" font-size="12" font-style="italic" lengthAdjust="spacingAndGlyphs" textLength="57" x="736.25" y="216.6543">HasItems</text><rect fill="#FFFFFF" height="15.9688" style="stroke: #000000; stroke-width: 1.0; stroke-dasharray: 2.0,2.0;" width="9" x="870.5" y="193.5"/><text fill="#000000" font-family="sans-serif" font-size="12" font-style="italic" lengthAdjust="spacingAndGlyphs" textLength="7" x="871.5" y="205.6387">T</text><line style="stroke: #A80036; stroke-width: 1.5;" x1="632.5" x2="875.5" y1="228.5" y2="228.5"/><ellipse cx="642.5" cy="240.4023" fill="#84BE84" rx="3" ry="3" style="stroke: #038048; stroke-width: 1.0;"/><text fill="#000000" font-family="sans-serif" font-size="11" font-style="italic" lengthAdjust="spacingAndGlyphs" textLength="175" x="651.5" y="242.7104">setItems(items: Collection&lt;T&gt;)</text><ellipse cx="642.5" cy="253.207" fill="#84BE84" rx="3" ry="3" style="stroke: #038048; stroke-width: 1.0;"/><text fill="#000000" font-family="sans-serif" font-size="11" lengthAdjust="spacingAndGlyphs" textLength="219" x="651.5" y="255.5151">setItems(streamOfItems: Stream&lt;T&gt;)</text><ellipse cx="642.5" cy="266.0117" fill="#84BE84" rx="3" ry="3" style="stroke: #038048; stroke-width: 1.0;"/><text fill="#000000" font-family="sans-serif" font-size="11" lengthAdjust="spacingAndGlyphs" textLength="117" x="651.5" y="268.3198">setItems(items: T...)</text><!--class HasDataProvider--><rect fill="#FEFECE" filter="url(#f4mv8ulw9kgvk)" height="65.6094" id="HasDataProvider" style="stroke: #A80036; stroke-width: 1.5;" width="319" x="594.5" y="462.5"/><ellipse cx="692.75" cy="478.5" fill="#B4A7E5" rx="11" ry="11" style="stroke: #A80036; stroke-width: 1.0;"/><path d="M693.7031,475.2813 L693.7031,481.7969 L695.4219,481.7969 C695.875,481.7969 696.0156,481.8281 696.1875,481.9531 C696.4219,482.125 696.5313,482.375 696.5313,482.6563 C696.5313,483.2188 696.1719,483.5 695.4219,483.5 L690.2813,483.5 C689.875,483.5 689.6719,483.4531 689.5156,483.3281 C689.2969,483.1719 689.1563,482.9063 689.1563,482.6563 C689.1563,482.3594 689.3125,482.0781 689.5625,481.9219 C689.7188,481.8125 689.8438,481.7969 690.2813,481.7969 L692,481.7969 L692,475.2813 L690.2813,475.2813 C689.8594,475.2813 689.6719,475.25 689.5156,475.1406 C689.2969,474.9688 689.1563,474.7188 689.1563,474.4375 C689.1563,474.1563 689.3125,473.8594 689.5625,473.7031 C689.7188,473.6094 689.8438,473.5938 690.2813,473.5938 L695.4219,473.5938 C695.875,473.5938 696.0156,473.625 696.1875,473.7344 C696.4219,473.9063 696.5313,474.1719 696.5313,474.4375 C696.5313,474.7344 696.3906,475.0156 696.125,475.1719 C696,475.25 695.8125,475.2813 695.4219,475.2813 Z "/><text fill="#000000" font-family="sans-serif" font-size="12" font-style="italic" lengthAdjust="spacingAndGlyphs" textLength="103" x="713.25" y="482.6543">HasDataProvider</text><rect fill="#FFFFFF" height="15.9688" style="stroke: #000000; stroke-width: 1.0; stroke-dasharray: 2.0,2.0;" width="9" x="907.5" y="459.5"/><text fill="#000000" font-family="sans-serif" font-size="12" font-style="italic" lengthAdjust="spacingAndGlyphs" textLength="7" x="908.5" y="471.6387">T</text><line style="stroke: #A80036; stroke-width: 1.5;" x1="595.5" x2="912.5" y1="494.5" y2="494.5"/><ellipse cx="605.5" cy="506.4023" fill="#84BE84" rx="3" ry="3" style="stroke: #038048; stroke-width: 1.0;"/><text fill="#000000" font-family="sans-serif" font-size="11" font-style="italic" lengthAdjust="spacingAndGlyphs" textLength="293" x="614.5" y="508.7104">setDataProvider(dataProvider: DataProvider&lt;T, ?&gt;)</text><ellipse cx="605.5" cy="519.207" fill="#84BE84" rx="3" ry="3" style="stroke: #038048; stroke-width: 1.0;"/><text fill="#000000" font-family="sans-serif" font-size="11" lengthAdjust="spacingAndGlyphs" textLength="178" x="614.5" y="521.5151">setItems(items: Collection&lt;T&gt;)</text><!--class DataProvider--><rect fill="#FEFECE" filter="url(#f4mv8ulw9kgvk)" height="219.2656" id="DataProvider" style="stroke: #A80036; stroke-width: 1.5;" width="452" x="86" y="386"/><ellipse cx="254.75" cy="402" fill="#B4A7E5" rx="11" ry="11" style="stroke: #A80036; stroke-width: 1.0;"/><path d="M255.7031,398.7813 L255.7031,405.2969 L257.4219,405.2969 C257.875,405.2969 258.0156,405.3281 258.1875,405.4531 C258.4219,405.625 258.5313,405.875 258.5313,406.1563 C258.5313,406.7188 258.1719,407 257.4219,407 L252.2813,407 C251.875,407 251.6719,406.9531 251.5156,406.8281 C251.2969,406.6719 251.1563,406.4063 251.1563,406.1563 C251.1563,405.8594 251.3125,405.5781 251.5625,405.4219 C251.7188,405.3125 251.8438,405.2969 252.2813,405.2969 L254,405.2969 L254,398.7813 L252.2813,398.7813 C251.8594,398.7813 251.6719,398.75 251.5156,398.6406 C251.2969,398.4688 251.1563,398.2188 251.1563,397.9375 C251.1563,397.6563 251.3125,397.3594 251.5625,397.2031 C251.7188,397.1094 251.8438,397.0938 252.2813,397.0938 L257.4219,397.0938 C257.875,397.0938 258.0156,397.125 258.1875,397.2344 C258.4219,397.4063 258.5313,397.6719 258.5313,397.9375 C258.5313,398.2344 258.3906,398.5156 258.125,398.6719 C258,398.75 257.8125,398.7813 257.4219,398.7813 Z "/><text fill="#000000" font-family="sans-serif" font-size="12" font-style="italic" lengthAdjust="spacingAndGlyphs" textLength="80" x="275.25" y="406.1543">DataProvider</text><rect fill="#FFFFFF" height="15.9688" style="stroke: #000000; stroke-width: 1.0; stroke-dasharray: 2.0,2.0;" width="24" x="517" y="383"/><text fill="#000000" font-family="sans-serif" font-size="12" font-style="italic" lengthAdjust="spacingAndGlyphs" textLength="22" x="518" y="395.1387">T, F</text><line style="stroke: #A80036; stroke-width: 1.5;" x1="87" x2="537" y1="418" y2="418"/><ellipse cx="97" cy="436.3047" fill="#84BE84" rx="3" ry="3" style="stroke: #038048; stroke-width: 1.0;"/><text fill="#000000" font-family="sans-serif" font-size="11" lengthAdjust="spacingAndGlyphs" text-decoration="underline" textLength="349" x="106" y="432.2104">&lt;T, F&gt; fromCallbacks(fetchCallback: FetchCallback&lt;T, Void&gt;,</text><text fill="#000000" font-family="sans-serif" font-size="11" lengthAdjust="spacingAndGlyphs" text-decoration="underline" textLength="394" x="138" y="445.0151">countCallback: CountCallback&lt;T, Void&gt;): CallbackDataProvider&lt;T, F&gt;</text><ellipse cx="97" cy="461.9141" fill="#84BE84" rx="3" ry="3" style="stroke: #038048; stroke-width: 1.0;"/><text fill="#000000" font-family="sans-serif" font-size="11" lengthAdjust="spacingAndGlyphs" text-decoration="underline" textLength="394" x="106" y="457.8198">&lt;T, F&gt; fromFilteringCallbacks(fetchCallback: FetchCallback&lt;T, Void&gt;,</text><text fill="#000000" font-family="sans-serif" font-size="11" lengthAdjust="spacingAndGlyphs" text-decoration="underline" textLength="394" x="138" y="470.6245">countCallback: CountCallback&lt;T, Void&gt;): CallbackDataProvider&lt;T, F&gt;</text><ellipse cx="97" cy="481.1211" fill="#84BE84" rx="3" ry="3" style="stroke: #038048; stroke-width: 1.0;"/><text fill="#000000" font-family="sans-serif" font-size="11" lengthAdjust="spacingAndGlyphs" text-decoration="underline" textLength="339" x="106" y="483.4292">&lt;T&gt; fromStream(items: Stream&lt;T&gt;): ListDataProvider&lt;T&gt;</text><ellipse cx="97" cy="493.9258" fill="#84BE84" rx="3" ry="3" style="stroke: #038048; stroke-width: 1.0;"/><text fill="#000000" font-family="sans-serif" font-size="11" lengthAdjust="spacingAndGlyphs" text-decoration="underline" textLength="349" x="106" y="496.2339">&lt;T&gt; ofCollection(items: Collection&lt;T&gt;): ListDataProvider&lt;T&gt;</text><ellipse cx="97" cy="506.7305" fill="#84BE84" rx="3" ry="3" style="stroke: #038048; stroke-width: 1.0;"/><text fill="#000000" font-family="sans-serif" font-size="11" lengthAdjust="spacingAndGlyphs" text-decoration="underline" textLength="253" x="106" y="509.0386">&lt;T&gt; ofItems(items: T): ListDataProvider&lt;T&gt;</text><ellipse cx="97" cy="519.5352" fill="#84BE84" rx="3" ry="3" style="stroke: #038048; stroke-width: 1.0;"/><text fill="#000000" font-family="sans-serif" font-size="11" font-style="italic" lengthAdjust="spacingAndGlyphs" textLength="418" x="106" y="521.8433">addDataProviderListener(listener: DataProviderListener&lt;T&gt;): Registration</text><ellipse cx="97" cy="532.3398" fill="#84BE84" rx="3" ry="3" style="stroke: #038048; stroke-width: 1.0;"/><text fill="#000000" font-family="sans-serif" font-size="11" font-style="italic" lengthAdjust="spacingAndGlyphs" textLength="225" x="106" y="534.6479">fetch(query: Query&lt;T, F&gt;): Stream&lt;T&gt;</text><ellipse cx="97" cy="545.1445" fill="#84BE84" rx="3" ry="3" style="stroke: #038048; stroke-width: 1.0;"/><text fill="#000000" font-family="sans-serif" font-size="11" font-style="italic" lengthAdjust="spacingAndGlyphs" textLength="126" x="106" y="547.4526">isInMemory(): boolean</text><ellipse cx="97" cy="557.9492" fill="#84BE84" rx="3" ry="3" style="stroke: #038048; stroke-width: 1.0;"/><text fill="#000000" font-family="sans-serif" font-size="11" font-style="italic" lengthAdjust="spacingAndGlyphs" textLength="63" x="106" y="560.2573">refreshAll()</text><ellipse cx="97" cy="570.7539" fill="#84BE84" rx="3" ry="3" style="stroke: #038048; stroke-width: 1.0;"/><text fill="#000000" font-family="sans-serif" font-size="11" font-style="italic" lengthAdjust="spacingAndGlyphs" textLength="114" x="106" y="573.062">refreshItem(item: T)</text><ellipse cx="97" cy="583.5586" fill="#84BE84" rx="3" ry="3" style="stroke: #038048; stroke-width: 1.0;"/><text fill="#000000" font-family="sans-serif" font-size="11" font-style="italic" lengthAdjust="spacingAndGlyphs" textLength="145" x="106" y="585.8667">size(query: Query&lt;T, F&gt;)</text><ellipse cx="97" cy="596.3633" fill="#84BE84" rx="3" ry="3" style="stroke: #038048; stroke-width: 1.0;"/><text fill="#000000" font-family="sans-serif" font-size="11" lengthAdjust="spacingAndGlyphs" textLength="76" x="106" y="598.6714">getId(item: T)</text><!--class Query--><rect fill="#FEFECE" filter="url(#f4mv8ulw9kgvk)" height="180.8516" id="Query" style="stroke: #A80036; stroke-width: 1.5;" width="327" x="148.5" y="145"/><ellipse cx="276.75" cy="161" fill="#ADD1B2" rx="11" ry="11" style="stroke: #A80036; stroke-width: 1.0;"/><path d="M279.0938,156.6719 L279.2656,156.75 C279.4844,156.4375 279.6875,156.3438 279.9844,156.3438 C280.2813,156.3438 280.5625,156.4844 280.7188,156.75 C280.8125,156.9063 280.8281,157.0313 280.8281,157.4688 L280.8281,158.8906 C280.8281,159.3125 280.7969,159.5 280.6875,159.6563 C280.5156,159.875 280.25,160.0156 279.9844,160.0156 C279.7656,160.0156 279.5313,159.9063 279.3906,159.7656 C279.25,159.6406 279.2188,159.5156 279.1563,159.1094 C279.0625,158.7031 278.8906,158.4844 278.4063,158.2031 C277.9375,157.9531 277.3281,157.7969 276.75,157.7969 C275.0156,157.7969 273.7656,159.1094 273.7656,160.8906 L273.7656,161.9844 C273.7656,163.6875 275.0625,164.7813 277.1094,164.7813 C277.875,164.7813 278.5625,164.6563 278.9844,164.3906 C279.1719,164.2969 279.1719,164.2969 279.625,163.8125 C279.8125,163.625 280.0156,163.5469 280.2344,163.5469 C280.7031,163.5469 281.0938,163.9375 281.0938,164.3906 C281.0938,164.7813 280.7656,165.2344 280.1875,165.6406 C279.4375,166.1875 278.2813,166.4844 277.0625,166.4844 C274.1719,166.4844 272.0625,164.5938 272.0625,162.0156 L272.0625,160.8906 C272.0625,158.1719 274.0625,156.0938 276.6875,156.0938 C277.5625,156.0938 278.1563,156.2344 279.0938,156.6719 Z "/><text fill="#000000" font-family="sans-serif" font-size="12" lengthAdjust="spacingAndGlyphs" textLength="36" x="297.25" y="165.1543">Query</text><rect fill="#FFFFFF" height="15.9688" style="stroke: #000000; stroke-width: 1.0; stroke-dasharray: 2.0,2.0;" width="24" x="454.5" y="142"/><text fill="#000000" font-family="sans-serif" font-size="12" font-style="italic" lengthAdjust="spacingAndGlyphs" textLength="22" x="455.5" y="154.1387">T, F</text><line style="stroke: #A80036; stroke-width: 1.5;" x1="149.5" x2="474.5" y1="177" y2="177"/><ellipse cx="159.5" cy="188.9023" fill="#84BE84" rx="3" ry="3" style="stroke: #038048; stroke-width: 1.0;"/><text fill="#000000" font-family="sans-serif" font-size="11" lengthAdjust="spacingAndGlyphs" textLength="42" x="168.5" y="191.2104">Query()</text><ellipse cx="159.5" cy="201.707" fill="#84BE84" rx="3" ry="3" style="stroke: #038048; stroke-width: 1.0;"/><text fill="#000000" font-family="sans-serif" font-size="11" lengthAdjust="spacingAndGlyphs" textLength="82" x="168.5" y="204.0151">Query(filter: F)</text><ellipse cx="159.5" cy="227.3164" fill="#84BE84" rx="3" ry="3" style="stroke: #038048; stroke-width: 1.0;"/><text fill="#000000" font-family="sans-serif" font-size="11" lengthAdjust="spacingAndGlyphs" textLength="151" x="168.5" y="216.8198">Query(offset: int, limit: int,</text><text fill="#000000" font-family="sans-serif" font-size="11" lengthAdjust="spacingAndGlyphs" textLength="204" x="200.5" y="229.6245">sortOrders: List&lt;QuerySortOrder&gt;,</text><text fill="#000000" font-family="sans-serif" font-size="11" lengthAdjust="spacingAndGlyphs" textLength="249" x="200.5" y="242.4292">inMemorySorting: Comparator&lt;T&gt;, filter: F)</text><ellipse cx="159.5" cy="252.9258" fill="#84BE84" rx="3" ry="3" style="stroke: #038048; stroke-width: 1.0;"/><text fill="#000000" font-family="sans-serif" font-size="11" lengthAdjust="spacingAndGlyphs" textLength="133" x="168.5" y="255.2339">getFilter(): Optional&lt;F&gt;</text><ellipse cx="159.5" cy="265.7305" fill="#84BE84" rx="3" ry="3" style="stroke: #038048; stroke-width: 1.0;"/><text fill="#000000" font-family="sans-serif" font-size="11" lengthAdjust="spacingAndGlyphs" textLength="223" x="168.5" y="268.0386">getInMemorySorting(): Comparator&lt;T&gt;</text><ellipse cx="159.5" cy="278.5352" fill="#84BE84" rx="3" ry="3" style="stroke: #038048; stroke-width: 1.0;"/><text fill="#000000" font-family="sans-serif" font-size="11" lengthAdjust="spacingAndGlyphs" textLength="75" x="168.5" y="280.8433">getLimit(): int</text><ellipse cx="159.5" cy="291.3398" fill="#84BE84" rx="3" ry="3" style="stroke: #038048; stroke-width: 1.0;"/><text fill="#000000" font-family="sans-serif" font-size="11" lengthAdjust="spacingAndGlyphs" textLength="83" x="168.5" y="293.6479">getOffset(): int</text><ellipse cx="159.5" cy="304.1445" fill="#84BE84" rx="3" ry="3" style="stroke: #038048; stroke-width: 1.0;"/><text fill="#000000" font-family="sans-serif" font-size="11" lengthAdjust="spacingAndGlyphs" textLength="301" x="168.5" y="306.4526">getSortingComparator(): Optional&lt;Comparator&lt;T&gt;&gt;</text><ellipse cx="159.5" cy="316.9492" fill="#84BE84" rx="3" ry="3" style="stroke: #038048; stroke-width: 1.0;"/><text fill="#000000" font-family="sans-serif" font-size="11" lengthAdjust="spacingAndGlyphs" textLength="227" x="168.5" y="319.2573">getSortOrders(): List&lt;QuerySortOrder&gt;</text><!--class Component--><rect fill="#FEFECE" filter="url(#f4mv8ulw9kgvk)" height="32" id="Component" style="stroke: #A80036; stroke-width: 1.5;" width="104" x="581" y="747"/><ellipse cx="596" cy="763" fill="#ADD1B2" rx="11" ry="11" style="stroke: #A80036; stroke-width: 1.0;"/><path d="M598.3438,758.6719 L598.5156,758.75 C598.7344,758.4375 598.9375,758.3438 599.2344,758.3438 C599.5313,758.3438 599.8125,758.4844 599.9688,758.75 C600.0625,758.9063 600.0781,759.0313 600.0781,759.4688 L600.0781,760.8906 C600.0781,761.3125 600.0469,761.5 599.9375,761.6563 C599.7656,761.875 599.5,762.0156 599.2344,762.0156 C599.0156,762.0156 598.7813,761.9063 598.6406,761.7656 C598.5,761.6406 598.4688,761.5156 598.4063,761.1094 C598.3125,760.7031 598.1406,760.4844 597.6563,760.2031 C597.1875,759.9531 596.5781,759.7969 596,759.7969 C594.2656,759.7969 593.0156,761.1094 593.0156,762.8906 L593.0156,763.9844 C593.0156,765.6875 594.3125,766.7813 596.3594,766.7813 C597.125,766.7813 597.8125,766.6563 598.2344,766.3906 C598.4219,766.2969 598.4219,766.2969 598.875,765.8125 C599.0625,765.625 599.2656,765.5469 599.4844,765.5469 C599.9531,765.5469 600.3438,765.9375 600.3438,766.3906 C600.3438,766.7813 600.0156,767.2344 599.4375,767.6406 C598.6875,768.1875 597.5313,768.4844 596.3125,768.4844 C593.4219,768.4844 591.3125,766.5938 591.3125,764.0156 L591.3125,762.8906 C591.3125,760.1719 593.3125,758.0938 595.9375,758.0938 C596.8125,758.0938 597.4063,758.2344 598.3438,758.6719 Z "/><text fill="#000000" font-family="sans-serif" font-size="12" lengthAdjust="spacingAndGlyphs" textLength="72" x="610" y="767.1543">Component</text><!--class Grid--><rect fill="#FEFECE" filter="url(#f4mv8ulw9kgvk)" height="32" id="Grid" style="stroke: #A80036; stroke-width: 1.5;" width="68" x="720" y="747"/><ellipse cx="735" cy="763" fill="#ADD1B2" rx="11" ry="11" style="stroke: #A80036; stroke-width: 1.0;"/><path d="M737.3438,758.6719 L737.5156,758.75 C737.7344,758.4375 737.9375,758.3438 738.2344,758.3438 C738.5313,758.3438 738.8125,758.4844 738.9688,758.75 C739.0625,758.9063 739.0781,759.0313 739.0781,759.4688 L739.0781,760.8906 C739.0781,761.3125 739.0469,761.5 738.9375,761.6563 C738.7656,761.875 738.5,762.0156 738.2344,762.0156 C738.0156,762.0156 737.7813,761.9063 737.6406,761.7656 C737.5,761.6406 737.4688,761.5156 737.4063,761.1094 C737.3125,760.7031 737.1406,760.4844 736.6563,760.2031 C736.1875,759.9531 735.5781,759.7969 735,759.7969 C733.2656,759.7969 732.0156,761.1094 732.0156,762.8906 L732.0156,763.9844 C732.0156,765.6875 733.3125,766.7813 735.3594,766.7813 C736.125,766.7813 736.8125,766.6563 737.2344,766.3906 C737.4219,766.2969 737.4219,766.2969 737.875,765.8125 C738.0625,765.625 738.2656,765.5469 738.4844,765.5469 C738.9531,765.5469 739.3438,765.9375 739.3438,766.3906 C739.3438,766.7813 739.0156,767.2344 738.4375,767.6406 C737.6875,768.1875 736.5313,768.4844 735.3125,768.4844 C732.4219,768.4844 730.3125,766.5938 730.3125,764.0156 L730.3125,762.8906 C730.3125,760.1719 732.3125,758.0938 734.9375,758.0938 C735.8125,758.0938 736.4063,758.2344 737.3438,758.6719 Z "/><text fill="#000000" font-family="sans-serif" font-size="12" lengthAdjust="spacingAndGlyphs" textLength="25" x="749" y="767.1543">Grid</text><rect fill="#FFFFFF" height="15.9688" style="stroke: #000000; stroke-width: 1.0; stroke-dasharray: 2.0,2.0;" width="9" x="782" y="744"/><text fill="#000000" font-family="sans-serif" font-size="12" font-style="italic" lengthAdjust="spacingAndGlyphs" textLength="7" x="783" y="756.1387">T</text><!--link HasItems to HasDataProvider--><path d="M754,294.6 C754,346.463 754,420.505 754,462.39 " fill="none" id="HasItems-HasDataProvider" style="stroke: #A80036; stroke-width: 1.0;"/><polygon fill="none" points="747,294.569,754,274.569,761,294.569,747,294.569" style="stroke: #A80036; stroke-width: 1.0;"/><!--link Component to Grid--><path d="M705.544,763 C710.273,763 715.003,763 719.732,763 " fill="none" id="Component-Grid" style="stroke: #A80036; stroke-width: 1.0;"/><polygon fill="none" points="705.465,769.9999,685.465,763,705.465,756,705.465,769.9999" style="stroke: #A80036; stroke-width: 1.0;"/><!--link HasDataProvider to Grid--><path d="M754,548.603 C754,610.224 754,709.177 754,746.809 " fill="none" id="HasDataProvider-Grid" style="stroke: #A80036; stroke-width: 1.0; stroke-dasharray: 7.0,7.0;"/><polygon fill="none" points="747,548.526,754,528.526,761,548.525,747,548.526" style="stroke: #A80036; stroke-width: 1.0;"/><!--link HasDataProvider to DataProvider--><path d="M594.242,495.5 C577.307,495.5 560.371,495.5 543.436,495.5 " fill="none" id="HasDataProvider-DataProvider" style="stroke: #A80036; stroke-width: 1.0; stroke-dasharray: 7.0,7.0;"/><polygon fill="#A80036" points="538.18,495.5,547.18,499.5,543.18,495.5,547.18,491.5,538.18,495.5" style="stroke: #A80036; stroke-width: 1.0;"/><!--link Query to DataProvider--><path d="M312,331.447 C312,349.062 312,367.589 312,385.581 " fill="none" id="Query-DataProvider" style="stroke: #A80036; stroke-width: 1.0; stroke-dasharray: 7.0,7.0;"/><polygon fill="#A80036" points="312,326.012,308,335.012,312,331.012,316,335.012,312,326.012" style="stroke: #A80036; stroke-width: 1.0;"/><!--
@startuml
package com.vaadin.flow {
 package data {
  package binder {
   interface HasItems<T> {
    + {abstract} setItems(items: Collection<T>)
    + setItems(streamOfItems: Stream<T>)
    + setItems(items: T...)
   }
   interface HasDataProvider<T> {
    + {abstract} setDataProvider(dataProvider: DataProvider<T, ?>)
    + setItems(items: Collection<T>)
   }
  }
  package provider {
   interface DataProvider<T, F> {
    +{static} <T, F> fromCallbacks(fetchCallback: FetchCallback<T, Void>,\n\tcountCallback: CountCallback<T, Void>): CallbackDataProvider<T, F>
    +{static} <T, F> fromFilteringCallbacks(fetchCallback: FetchCallback<T, Void>,\n\tcountCallback: CountCallback<T, Void>): CallbackDataProvider<T, F>
    +{static} <T> fromStream(items: Stream<T>): ListDataProvider<T>
    +{static} <T> ofCollection(items: Collection<T>): ListDataProvider<T>
    +{static} <T> ofItems(items: T): ListDataProvider<T>
    +{abstract} addDataProviderListener(listener: DataProviderListener<T>): Registration
    +{abstract} fetch(query: Query<T, F>): Stream<T>
    +{abstract} isInMemory(): boolean
    +{abstract} refreshAll()
    +{abstract} refreshItem(item: T)
    +{abstract} size(query: Query<T, F>)
    + getId(item: T)
   }
   class Query<T, F> {
    + Query()
    + Query(filter: F)
    + Query(offset: int, limit: int,\n\tsortOrders: List<QuerySortOrder>,\n\tinMemorySorting: Comparator<T>, filter: F)
    + getFilter(): Optional<F>
    + getInMemorySorting(): Comparator<T>
    + getLimit(): int
    + getOffset(): int
    + getSortingComparator(): Optional<Comparator<T>>
    + getSortOrders(): List<QuerySortOrder>
   }
  }
 }
 package component {
  class Component
  package grid {
   class Grid<T>
  }
 }
}
HasDataProvider -up-|> HasItems
Grid -left-|> Component
Grid .up.|> HasDataProvider
HasDataProvider .right.> DataProvider
DataProvider .up.> Query
hide empty members
@enduml

PlantUML version 1.2019.08(Sat Jul 13 19:25:14 UTC 2019)
(GPL source distribution)
Java Runtime: Java(TM) SE Runtime Environment
JVM: Java HotSpot(TM) 64-Bit Server VM
Java Version: 1.7.0_25-b15
Operating System: Linux
Default Encoding: UTF-8
Language: en
Country: US
--></g></svg>