<?xml version="1.0" encoding="UTF-8" standalone="no"?>
<svg xmlns="http://www.w3.org/2000/svg" xmlns:xlink="http://www.w3.org/1999/xlink" contentScriptType="application/ecmascript" contentStyleType="text/css" height="384px" preserveAspectRatio="none" style="width:857px;height:384px;" version="1.1" viewBox="0 0 857 384" width="857px" zoomAndPan="magnify"><defs><filter height="300%" id="fo5ctzdjtqtpj" width="300%" x="-1" y="-1"><feGaussianBlur result="blurOut" stdDeviation="2.0"/><feColorMatrix in="blurOut" result="blurOut2" type="matrix" values="0 0 0 0 0 0 0 0 0 0 0 0 0 0 0 0 0 0 .4 0"/><feOffset dx="4.0" dy="4.0" in="blurOut2" result="blurOut3"/><feBlend in="SourceGraphic" in2="blurOut3" mode="normal"/></filter></defs><g><!--cluster com.vaadin.flow.component--><polygon fill="#FFFFFF" filter="url(#fo5ctzdjtqtpj)" points="22,24,250,24,257,46.2969,835,46.2969,835,372,22,372,22,24" style="stroke: #000000; stroke-width: 1.5;"/><line style="stroke: #000000; stroke-width: 1.5;" x1="22" x2="257" y1="46.2969" y2="46.2969"/><text fill="#000000" font-family="sans-serif" font-size="14" font-weight="bold" lengthAdjust="spacingAndGlyphs" textLength="222" x="26" y="38.9951">com.vaadin.flow.component</text><!--cluster notification--><polygon fill="#FFFFFF" filter="url(#fo5ctzdjtqtpj)" points="46,116,140,116,147,138.2969,811,138.2969,811,348,46,348,46,116" style="stroke: #000000; stroke-width: 1.5;"/><line style="stroke: #000000; stroke-width: 1.5;" x1="46" x2="147" y1="138.2969" y2="138.2969"/><text fill="#000000" font-family="sans-serif" font-size="14" font-weight="bold" lengthAdjust="spacingAndGlyphs" textLength="88" x="50" y="130.9951">notification</text><!--class HasComponents--><rect fill="#FEFECE" filter="url(#fo5ctzdjtqtpj)" height="32" id="HasComponents" style="stroke: #A80036; stroke-width: 1.5;" width="133" x="446.5" y="59"/><ellipse cx="461.5" cy="75" fill="#B4A7E5" rx="11" ry="11" style="stroke: #A80036; stroke-width: 1.0;"/><path d="M462.4531,71.7813 L462.4531,78.2969 L464.1719,78.2969 C464.625,78.2969 464.7656,78.3281 464.9375,78.4531 C465.1719,78.625 465.2813,78.875 465.2813,79.1563 C465.2813,79.7188 464.9219,80 464.1719,80 L459.0313,80 C458.625,80 458.4219,79.9531 458.2656,79.8281 C458.0469,79.6719 457.9063,79.4063 457.9063,79.1563 C457.9063,78.8594 458.0625,78.5781 458.3125,78.4219 C458.4688,78.3125 458.5938,78.2969 459.0313,78.2969 L460.75,78.2969 L460.75,71.7813 L459.0313,71.7813 C458.6094,71.7813 458.4219,71.75 458.2656,71.6406 C458.0469,71.4688 457.9063,71.2188 457.9063,70.9375 C457.9063,70.6563 458.0625,70.3594 458.3125,70.2031 C458.4688,70.1094 458.5938,70.0938 459.0313,70.0938 L464.1719,70.0938 C464.625,70.0938 464.7656,70.125 464.9375,70.2344 C465.1719,70.4063 465.2813,70.6719 465.2813,70.9375 C465.2813,71.2344 465.1406,71.5156 464.875,71.6719 C464.75,71.75 464.5625,71.7813 464.1719,71.7813 Z "/><text fill="#000000" font-family="sans-serif" font-size="12" font-style="italic" lengthAdjust="spacingAndGlyphs" textLength="101" x="475.5" y="79.1543">HasComponents</text><!--class Component--><rect fill="#FEFECE" filter="url(#fo5ctzdjtqtpj)" height="32" id="Component" style="stroke: #A80036; stroke-width: 1.5;" width="104" x="307" y="59"/><ellipse cx="322" cy="75" fill="#A9DCDF" rx="11" ry="11" style="stroke: #A80036; stroke-width: 1.0;"/><path d="M323.5781,76.8125 L319.5313,76.8125 L319.1406,77.7969 L319.5313,77.7969 C319.9844,77.7969 320.125,77.8281 320.2969,77.9531 C320.5156,78.125 320.6406,78.375 320.6406,78.6563 C320.6406,78.9375 320.5,79.2344 320.2344,79.375 C320.1094,79.4688 319.8906,79.5 319.5313,79.5 L317.2656,79.5 C316.5156,79.5 316.1406,79.2188 316.1406,78.6563 C316.1406,78.3594 316.2969,78.0781 316.5469,77.9219 C316.7031,77.8125 316.8594,77.7969 317.2813,77.7969 L319.9219,71.2813 L318.8438,71.2813 C318.4063,71.2813 318.2344,71.25 318.0625,71.1406 C317.8438,70.9688 317.7031,70.7188 317.7031,70.4375 C317.7031,70.1563 317.8594,69.875 318.1094,69.7031 C318.2656,69.6094 318.3906,69.5938 318.8438,69.5938 L322.5156,69.5938 L325.9063,77.7969 C326.375,77.7969 326.5313,77.8281 326.7031,77.9688 C326.9219,78.125 327.0625,78.375 327.0625,78.6563 C327.0625,78.9375 326.9063,79.2344 326.6563,79.375 C326.5156,79.4688 326.2969,79.5 325.9375,79.5 L323.5781,79.5 C323.1563,79.5 322.9531,79.4531 322.8125,79.3281 C322.5938,79.1719 322.4531,78.9219 322.4531,78.6563 C322.4531,78.3594 322.6094,78.0781 322.8594,77.9219 C323.0156,77.8125 323.125,77.7969 323.5781,77.7969 L323.9688,77.7969 Z M322.875,75.1094 L321.5469,71.8438 L320.2031,75.1094 Z "/><text fill="#000000" font-family="sans-serif" font-size="12" font-style="italic" lengthAdjust="spacingAndGlyphs" textLength="72" x="336" y="79.1543">Component</text><!--class Notification--><rect fill="#FEFECE" filter="url(#fo5ctzdjtqtpj)" height="180.8516" id="Notification" style="stroke: #A80036; stroke-width: 1.5;" width="381" x="245.5" y="151"/><ellipse cx="396.25" cy="167" fill="#ADD1B2" rx="11" ry="11" style="stroke: #A80036; stroke-width: 1.0;"/><path d="M398.5938,162.6719 L398.7656,162.75 C398.9844,162.4375 399.1875,162.3438 399.4844,162.3438 C399.7813,162.3438 400.0625,162.4844 400.2188,162.75 C400.3125,162.9063 400.3281,163.0313 400.3281,163.4688 L400.3281,164.8906 C400.3281,165.3125 400.2969,165.5 400.1875,165.6563 C400.0156,165.875 399.75,166.0156 399.4844,166.0156 C399.2656,166.0156 399.0313,165.9063 398.8906,165.7656 C398.75,165.6406 398.7188,165.5156 398.6563,165.1094 C398.5625,164.7031 398.3906,164.4844 397.9063,164.2031 C397.4375,163.9531 396.8281,163.7969 396.25,163.7969 C394.5156,163.7969 393.2656,165.1094 393.2656,166.8906 L393.2656,167.9844 C393.2656,169.6875 394.5625,170.7813 396.6094,170.7813 C397.375,170.7813 398.0625,170.6563 398.4844,170.3906 C398.6719,170.2969 398.6719,170.2969 399.125,169.8125 C399.3125,169.625 399.5156,169.5469 399.7344,169.5469 C400.2031,169.5469 400.5938,169.9375 400.5938,170.3906 C400.5938,170.7813 400.2656,171.2344 399.6875,171.6406 C398.9375,172.1875 397.7813,172.4844 396.5625,172.4844 C393.6719,172.4844 391.5625,170.5938 391.5625,168.0156 L391.5625,166.8906 C391.5625,164.1719 393.5625,162.0938 396.1875,162.0938 C397.0625,162.0938 397.6563,162.2344 398.5938,162.6719 Z "/><text fill="#000000" font-family="sans-serif" font-size="12" lengthAdjust="spacingAndGlyphs" textLength="71" x="416.75" y="171.1543">Notification</text><line style="stroke: #A80036; stroke-width: 1.5;" x1="246.5" x2="625.5" y1="183" y2="183"/><ellipse cx="256.5" cy="194.9023" fill="#84BE84" rx="3" ry="3" style="stroke: #038048; stroke-width: 1.0;"/><text fill="#000000" font-family="sans-serif" font-size="11" lengthAdjust="spacingAndGlyphs" text-decoration="underline" textLength="172" x="265.5" y="197.2104">show(text: String): Notification</text><ellipse cx="256.5" cy="207.707" fill="#84BE84" rx="3" ry="3" style="stroke: #038048; stroke-width: 1.0;"/><text fill="#000000" font-family="sans-serif" font-size="11" lengthAdjust="spacingAndGlyphs" text-decoration="underline" textLength="355" x="265.5" y="210.0151">show(text: String, duration: int, position: Position): Notification</text><ellipse cx="256.5" cy="220.5117" fill="#84BE84" rx="3" ry="3" style="stroke: #038048; stroke-width: 1.0;"/><text fill="#000000" font-family="sans-serif" font-size="11" lengthAdjust="spacingAndGlyphs" textLength="71" x="265.5" y="222.8198">Notification()</text><ellipse cx="256.5" cy="233.3164" fill="#84BE84" rx="3" ry="3" style="stroke: #038048; stroke-width: 1.0;"/><text fill="#000000" font-family="sans-serif" font-size="11" lengthAdjust="spacingAndGlyphs" textLength="226" x="265.5" y="235.6245">Notification(components: Component...)</text><ellipse cx="256.5" cy="246.1211" fill="#84BE84" rx="3" ry="3" style="stroke: #038048; stroke-width: 1.0;"/><text fill="#000000" font-family="sans-serif" font-size="11" lengthAdjust="spacingAndGlyphs" textLength="134" x="265.5" y="248.4292">Notification(text: String)</text><ellipse cx="256.5" cy="258.9258" fill="#84BE84" rx="3" ry="3" style="stroke: #038048; stroke-width: 1.0;"/><text fill="#000000" font-family="sans-serif" font-size="11" lengthAdjust="spacingAndGlyphs" textLength="211" x="265.5" y="261.2339">Notification(text: String, duration: int)</text><ellipse cx="256.5" cy="271.7305" fill="#84BE84" rx="3" ry="3" style="stroke: #038048; stroke-width: 1.0;"/><text fill="#000000" font-family="sans-serif" font-size="11" lengthAdjust="spacingAndGlyphs" textLength="317" x="265.5" y="274.0386">Notification(text: String, duration: int, position: Position)</text><ellipse cx="256.5" cy="284.5352" fill="#84BE84" rx="3" ry="3" style="stroke: #038048; stroke-width: 1.0;"/><text fill="#000000" font-family="sans-serif" font-size="11" lengthAdjust="spacingAndGlyphs" textLength="36" x="265.5" y="286.8433">open()</text><ellipse cx="256.5" cy="297.3398" fill="#84BE84" rx="3" ry="3" style="stroke: #038048; stroke-width: 1.0;"/><text fill="#000000" font-family="sans-serif" font-size="11" lengthAdjust="spacingAndGlyphs" textLength="38" x="265.5" y="299.6479">close()</text><ellipse cx="256.5" cy="310.1445" fill="#84BE84" rx="3" ry="3" style="stroke: #038048; stroke-width: 1.0;"/><text fill="#000000" font-family="sans-serif" font-size="11" lengthAdjust="spacingAndGlyphs" textLength="115" x="265.5" y="312.4526">isOpened(): boolean</text><ellipse cx="256.5" cy="322.9492" fill="#84BE84" rx="3" ry="3" style="stroke: #038048; stroke-width: 1.0;"/><text fill="#000000" font-family="sans-serif" font-size="11" lengthAdjust="spacingAndGlyphs" textLength="284" x="265.5" y="325.2573">addThemeVariants(variants: NotificationVariant...)</text><!--class Position--><rect fill="#FEFECE" filter="url(#fo5ctzdjtqtpj)" height="155.2422" id="Position" style="stroke: #A80036; stroke-width: 1.5;" width="133" x="661.5" y="164"/><ellipse cx="699.45" cy="180" fill="#EB937F" rx="11" ry="11" style="stroke: #A80036; stroke-width: 1.0;"/><path d="M697.7469,180.875 L697.7469,183.2969 L702.1063,183.2969 L702.1063,182.4219 C702.1063,181.9375 702.1375,181.7969 702.2469,181.6406 C702.4188,181.3906 702.6844,181.2813 702.95,181.2813 C703.2313,181.2813 703.5125,181.4375 703.6844,181.6875 C703.7625,181.8438 703.7938,181.9844 703.7938,182.4219 L703.7938,185 L695.7938,185 C695.4031,185 695.1688,184.9531 695.0281,184.8281 C694.8094,184.6719 694.6688,184.4219 694.6688,184.1563 C694.6688,183.8594 694.825,183.5938 695.075,183.4219 C695.2313,183.3125 695.3875,183.2969 695.7938,183.2969 L696.0438,183.2969 L696.0438,176.7813 L695.7938,176.7813 C695.3719,176.7813 695.1844,176.75 695.0281,176.6406 C694.8094,176.4688 694.6688,176.2188 694.6688,175.9375 C694.6688,175.6563 694.825,175.3594 695.075,175.2031 C695.2313,175.1094 695.3563,175.0938 695.7938,175.0938 L703.4188,175.0938 L703.4188,177.6406 C703.4188,178.1094 703.3875,178.25 703.2781,178.4219 C703.1063,178.6406 702.8406,178.7813 702.575,178.7813 C702.2938,178.7813 702.0125,178.625 701.8406,178.375 C701.7625,178.2188 701.7313,178.0469 701.7313,177.6406 L701.7313,176.7813 L697.7469,176.7813 L697.7469,179.1875 L699.2,179.1875 L699.2,179.0625 C699.2,178.6094 699.2313,178.4531 699.3406,178.2813 C699.5125,178.0625 699.7781,177.9219 700.0281,177.9219 C700.4813,177.9219 700.7938,178.2344 700.8563,178.7031 C700.8719,178.8594 700.8719,178.9063 700.8719,179.0625 L700.8719,180.9844 C700.8719,181.4375 700.8406,181.5938 700.7156,181.75 C700.5594,181.9688 700.2938,182.1094 700.0438,182.1094 C699.7469,182.1094 699.4656,181.9531 699.3094,181.7031 C699.2313,181.5469 699.2,181.3906 699.2,180.9844 L699.2,180.875 Z "/><text fill="#000000" font-family="sans-serif" font-size="12" lengthAdjust="spacingAndGlyphs" textLength="50" x="718.55" y="184.1543">Position</text><line style="stroke: #A80036; stroke-width: 1.5;" x1="662.5" x2="793.5" y1="196" y2="196"/><ellipse cx="672.5" cy="207.9023" fill="none" rx="3" ry="3" style="stroke: #038048; stroke-width: 1.0;"/><text fill="#000000" font-family="sans-serif" font-size="11" lengthAdjust="spacingAndGlyphs" text-decoration="underline" textLength="81" x="681.5" y="210.2104">TOP_STRETCH</text><ellipse cx="672.5" cy="220.707" fill="none" rx="3" ry="3" style="stroke: #038048; stroke-width: 1.0;"/><text fill="#000000" font-family="sans-serif" font-size="11" lengthAdjust="spacingAndGlyphs" text-decoration="underline" textLength="65" x="681.5" y="223.0151">TOP_START</text><ellipse cx="672.5" cy="233.5117" fill="none" rx="3" ry="3" style="stroke: #038048; stroke-width: 1.0;"/><text fill="#000000" font-family="sans-serif" font-size="11" lengthAdjust="spacingAndGlyphs" text-decoration="underline" textLength="73" x="681.5" y="235.8198">TOP_CENTER</text><ellipse cx="672.5" cy="246.3164" fill="none" rx="3" ry="3" style="stroke: #038048; stroke-width: 1.0;"/><text fill="#000000" font-family="sans-serif" font-size="11" lengthAdjust="spacingAndGlyphs" text-decoration="underline" textLength="52" x="681.5" y="248.6245">TOP_END</text><ellipse cx="672.5" cy="259.1211" fill="none" rx="3" ry="3" style="stroke: #038048; stroke-width: 1.0;"/><text fill="#000000" font-family="sans-serif" font-size="11" lengthAdjust="spacingAndGlyphs" text-decoration="underline" textLength="41" x="681.5" y="261.4292">MIDDLE</text><ellipse cx="672.5" cy="271.9258" fill="none" rx="3" ry="3" style="stroke: #038048; stroke-width: 1.0;"/><text fill="#000000" font-family="sans-serif" font-size="11" lengthAdjust="spacingAndGlyphs" text-decoration="underline" textLength="91" x="681.5" y="274.2339">BOTTOM_START</text><ellipse cx="672.5" cy="284.7305" fill="none" rx="3" ry="3" style="stroke: #038048; stroke-width: 1.0;"/><text fill="#000000" font-family="sans-serif" font-size="11" lengthAdjust="spacingAndGlyphs" text-decoration="underline" textLength="99" x="681.5" y="287.0386">BOTTOM_CENTER</text><ellipse cx="672.5" cy="297.5352" fill="none" rx="3" ry="3" style="stroke: #038048; stroke-width: 1.0;"/><text fill="#000000" font-family="sans-serif" font-size="11" lengthAdjust="spacingAndGlyphs" text-decoration="underline" textLength="78" x="681.5" y="299.8433">BOTTOM_END</text><ellipse cx="672.5" cy="310.3398" fill="none" rx="3" ry="3" style="stroke: #038048; stroke-width: 1.0;"/><text fill="#000000" font-family="sans-serif" font-size="11" lengthAdjust="spacingAndGlyphs" text-decoration="underline" textLength="107" x="681.5" y="312.6479">BOTTOM_STRETCH</text><!--class NotificationVariant--><rect fill="#FEFECE" filter="url(#fo5ctzdjtqtpj)" height="91.2188" id="NotificationVariant" style="stroke: #A80036; stroke-width: 1.5;" width="148" x="62" y="196"/><ellipse cx="77" cy="212" fill="#EB937F" rx="11" ry="11" style="stroke: #A80036; stroke-width: 1.0;"/><path d="M75.2969,212.875 L75.2969,215.2969 L79.6563,215.2969 L79.6563,214.4219 C79.6563,213.9375 79.6875,213.7969 79.7969,213.6406 C79.9688,213.3906 80.2344,213.2813 80.5,213.2813 C80.7813,213.2813 81.0625,213.4375 81.2344,213.6875 C81.3125,213.8438 81.3438,213.9844 81.3438,214.4219 L81.3438,217 L73.3438,217 C72.9531,217 72.7188,216.9531 72.5781,216.8281 C72.3594,216.6719 72.2188,216.4219 72.2188,216.1563 C72.2188,215.8594 72.375,215.5938 72.625,215.4219 C72.7813,215.3125 72.9375,215.2969 73.3438,215.2969 L73.5938,215.2969 L73.5938,208.7813 L73.3438,208.7813 C72.9219,208.7813 72.7344,208.75 72.5781,208.6406 C72.3594,208.4688 72.2188,208.2188 72.2188,207.9375 C72.2188,207.6563 72.375,207.3594 72.625,207.2031 C72.7813,207.1094 72.9063,207.0938 73.3438,207.0938 L80.9688,207.0938 L80.9688,209.6406 C80.9688,210.1094 80.9375,210.25 80.8281,210.4219 C80.6563,210.6406 80.3906,210.7813 80.125,210.7813 C79.8438,210.7813 79.5625,210.625 79.3906,210.375 C79.3125,210.2188 79.2813,210.0469 79.2813,209.6406 L79.2813,208.7813 L75.2969,208.7813 L75.2969,211.1875 L76.75,211.1875 L76.75,211.0625 C76.75,210.6094 76.7813,210.4531 76.8906,210.2813 C77.0625,210.0625 77.3281,209.9219 77.5781,209.9219 C78.0313,209.9219 78.3438,210.2344 78.4063,210.7031 C78.4219,210.8594 78.4219,210.9063 78.4219,211.0625 L78.4219,212.9844 C78.4219,213.4375 78.3906,213.5938 78.2656,213.75 C78.1094,213.9688 77.8438,214.1094 77.5938,214.1094 C77.2969,214.1094 77.0156,213.9531 76.8594,213.7031 C76.7813,213.5469 76.75,213.3906 76.75,212.9844 L76.75,212.875 Z "/><text fill="#000000" font-family="sans-serif" font-size="12" lengthAdjust="spacingAndGlyphs" textLength="116" x="91" y="216.1543">NotificationVariant</text><line style="stroke: #A80036; stroke-width: 1.5;" x1="63" x2="209" y1="228" y2="228"/><ellipse cx="73" cy="239.9023" fill="none" rx="3" ry="3" style="stroke: #038048; stroke-width: 1.0;"/><text fill="#000000" font-family="sans-serif" font-size="11" lengthAdjust="spacingAndGlyphs" text-decoration="underline" textLength="85" x="82" y="242.2104">LUMO_PRIMARY</text><ellipse cx="73" cy="252.707" fill="none" rx="3" ry="3" style="stroke: #038048; stroke-width: 1.0;"/><text fill="#000000" font-family="sans-serif" font-size="11" lengthAdjust="spacingAndGlyphs" text-decoration="underline" textLength="99" x="82" y="255.0151">LUMO_CONTRAST</text><ellipse cx="73" cy="265.5117" fill="none" rx="3" ry="3" style="stroke: #038048; stroke-width: 1.0;"/><text fill="#000000" font-family="sans-serif" font-size="11" lengthAdjust="spacingAndGlyphs" text-decoration="underline" textLength="93" x="82" y="267.8198">LUMO_SUCCESS</text><ellipse cx="73" cy="278.3164" fill="none" rx="3" ry="3" style="stroke: #038048; stroke-width: 1.0;"/><text fill="#000000" font-family="sans-serif" font-size="11" lengthAdjust="spacingAndGlyphs" text-decoration="underline" textLength="75" x="82" y="280.6245">LUMO_ERROR</text><!--link Notification to Position--><path d="M641.821,241.5 C648.271,241.5 654.722,241.5 661.172,241.5 " fill="none" id="Notification-Position" style="stroke: #A80036; stroke-width: 1.0;"/><ellipse cx="634.77" cy="241.4992" fill="#FFFFFF" rx="8" ry="8" style="stroke: #A80036; stroke-width: 1.0;"/><line style="stroke: #A80036; stroke-width: 1.0;" x1="642.77" x2="626.77" y1="241.4985" y2="241.5"/><line style="stroke: #A80036; stroke-width: 1.0;" x1="634.7708" x2="634.7692" y1="249.4992" y2="233.4992"/><!--link Component to Notification--><path d="M374.787,109.728 C380.469,121.866 387.179,136.2 394.036,150.849 " fill="none" id="Component-Notification" style="stroke: #A80036; stroke-width: 1.0;"/><polygon fill="none" points="368.245,112.262,366.106,91.181,380.925,106.327,368.245,112.262" style="stroke: #A80036; stroke-width: 1.0;"/><!--link HasComponents to Notification--><path d="M497.213,109.728 C491.531,121.866 484.821,136.2 477.964,150.849 " fill="none" id="HasComponents-Notification" style="stroke: #A80036; stroke-width: 1.0; stroke-dasharray: 7.0,7.0;"/><polygon fill="none" points="491.075,106.327,505.894,91.181,503.755,112.262,491.075,106.327" style="stroke: #A80036; stroke-width: 1.0;"/><!--link NotificationVariant to Notification--><path d="M215.36,241.5 C225.378,241.5 235.396,241.5 245.415,241.5 " fill="none" id="NotificationVariant-Notification" style="stroke: #A80036; stroke-width: 1.0; stroke-dasharray: 7.0,7.0;"/><polygon fill="#A80036" points="210.121,241.5,219.121,245.5,215.121,241.5,219.121,237.5,210.121,241.5" style="stroke: #A80036; stroke-width: 1.0;"/><!--
@startuml
package com.vaadin.flow.component {
 interface HasComponents
 abstract class Component
 package notification {
  class Notification {
   + {static} show(text: String): Notification
   + {static} show(text: String, duration: int, position: Position): Notification
   + Notification()
   + Notification(components: Component...)
   + Notification(text: String)
   + Notification(text: String, duration: int)
   + Notification(text: String, duration: int, position: Position)
   + open()
   + close()
   + isOpened(): boolean
   + addThemeVariants(variants: NotificationVariant...)
  }
  enum Position {
    + {static} TOP_STRETCH
    + {static} TOP_START
    + {static} TOP_CENTER
    + {static} TOP_END
    + {static} MIDDLE
    + {static} BOTTOM_START
    + {static} BOTTOM_CENTER
    + {static} BOTTOM_END
    + {static} BOTTOM_STRETCH
  }
  enum NotificationVariant {
    + {static} LUMO_PRIMARY
    + {static} LUMO_CONTRAST
    + {static} LUMO_SUCCESS
    + {static} LUMO_ERROR
  }
 }
}
Position -right+ Notification
Notification -up-|> Component
Notification .up.|> HasComponents
Notification .left.> NotificationVariant
hide empty members
@enduml

PlantUML version 1.2019.08(Sat Jul 13 19:25:14 UTC 2019)
(GPL source distribution)
Java Runtime: Java(TM) SE Runtime Environment
JVM: Java HotSpot(TM) 64-Bit Server VM
Java Version: 1.7.0_25-b15
Operating System: Linux
Default Encoding: UTF-8
Language: en
Country: US
--></g></svg>