<?xml version="1.0" encoding="UTF-8" standalone="no"?>
<svg xmlns="http://www.w3.org/2000/svg" xmlns:xlink="http://www.w3.org/1999/xlink" contentScriptType="application/ecmascript" contentStyleType="text/css" height="579px" preserveAspectRatio="none" style="width:1053px;height:579px;" version="1.1" viewBox="0 0 1053 579" width="1053px" zoomAndPan="magnify"><defs><filter height="300%" id="fx4vzxm9uj5cz" width="300%" x="-1" y="-1"><feGaussianBlur result="blurOut" stdDeviation="2.0"/><feColorMatrix in="blurOut" result="blurOut2" type="matrix" values="0 0 0 0 0 0 0 0 0 0 0 0 0 0 0 0 0 0 .4 0"/><feOffset dx="4.0" dy="4.0" in="blurOut2" result="blurOut3"/><feBlend in="SourceGraphic" in2="blurOut3" mode="normal"/></filter></defs><g><!--cluster com.vaadin.flow--><polygon fill="#FFFFFF" filter="url(#fx4vzxm9uj5cz)" points="22,49,156,49,163,71.2969,1031,71.2969,1031,522,22,522,22,49" style="stroke: #000000; stroke-width: 1.5;"/><line style="stroke: #000000; stroke-width: 1.5;" x1="22" x2="163" y1="71.2969" y2="71.2969"/><text fill="#000000" font-family="sans-serif" font-size="14" font-weight="bold" lengthAdjust="spacingAndGlyphs" textLength="128" x="26" y="63.9951">com.vaadin.flow</text><!--cluster component--><polygon fill="#FFFFFF" filter="url(#fx4vzxm9uj5cz)" points="210,92,305,92,312,114.2969,1007,114.2969,1007,498,210,498,210,92" style="stroke: #000000; stroke-width: 1.5;"/><line style="stroke: #000000; stroke-width: 1.5;" x1="210" x2="312" y1="114.2969" y2="114.2969"/><text fill="#000000" font-family="sans-serif" font-size="14" font-weight="bold" lengthAdjust="spacingAndGlyphs" textLength="89" x="214" y="106.9951">component</text><!--cluster shared--><polygon fill="#FFFFFF" filter="url(#fx4vzxm9uj5cz)" points="46,92,107,92,114,114.2969,186,114.2969,186,196,46,196,46,92" style="stroke: #000000; stroke-width: 1.5;"/><line style="stroke: #000000; stroke-width: 1.5;" x1="46" x2="114" y1="114.2969" y2="114.2969"/><text fill="#000000" font-family="sans-serif" font-size="14" font-weight="bold" lengthAdjust="spacingAndGlyphs" textLength="55" x="50" y="106.9951">shared</text><!--class Component--><rect fill="#FEFECE" filter="url(#fx4vzxm9uj5cz)" height="52.8047" id="Component" style="stroke: #A80036; stroke-width: 1.5;" width="728" x="226" y="127"/><ellipse cx="549.75" cy="143" fill="#A9DCDF" rx="11" ry="11" style="stroke: #A80036; stroke-width: 1.0;"/><path d="M551.3281,144.8125 L547.2813,144.8125 L546.8906,145.7969 L547.2813,145.7969 C547.7344,145.7969 547.875,145.8281 548.0469,145.9531 C548.2656,146.125 548.3906,146.375 548.3906,146.6563 C548.3906,146.9375 548.25,147.2344 547.9844,147.375 C547.8594,147.4688 547.6406,147.5 547.2813,147.5 L545.0156,147.5 C544.2656,147.5 543.8906,147.2188 543.8906,146.6563 C543.8906,146.3594 544.0469,146.0781 544.2969,145.9219 C544.4531,145.8125 544.6094,145.7969 545.0313,145.7969 L547.6719,139.2813 L546.5938,139.2813 C546.1563,139.2813 545.9844,139.25 545.8125,139.1406 C545.5938,138.9688 545.4531,138.7188 545.4531,138.4375 C545.4531,138.1563 545.6094,137.875 545.8594,137.7031 C546.0156,137.6094 546.1406,137.5938 546.5938,137.5938 L550.2656,137.5938 L553.6563,145.7969 C554.125,145.7969 554.2813,145.8281 554.4531,145.9688 C554.6719,146.125 554.8125,146.375 554.8125,146.6563 C554.8125,146.9375 554.6563,147.2344 554.4063,147.375 C554.2656,147.4688 554.0469,147.5 553.6875,147.5 L551.3281,147.5 C550.9063,147.5 550.7031,147.4531 550.5625,147.3281 C550.3438,147.1719 550.2031,146.9219 550.2031,146.6563 C550.2031,146.3594 550.3594,146.0781 550.6094,145.9219 C550.7656,145.8125 550.875,145.7969 551.3281,145.7969 L551.7188,145.7969 Z M550.625,143.1094 L549.2969,139.8438 L547.9531,143.1094 Z "/><text fill="#000000" font-family="sans-serif" font-size="12" font-style="italic" lengthAdjust="spacingAndGlyphs" textLength="72" x="570.25" y="147.1543">Component</text><line style="stroke: #A80036; stroke-width: 1.5;" x1="227" x2="953" y1="159" y2="159"/><polygon fill="#FFFF44" points="237,165.9023,241,169.9023,237,173.9023,233,169.9023" style="stroke: #B38D22; stroke-width: 1.0;"/><text fill="#000000" font-family="sans-serif" font-size="11" lengthAdjust="spacingAndGlyphs" textLength="702" x="246" y="173.2104">&lt;T extends ComponentEvent&lt;?&gt;&gt; addListener(eventType: Class&lt;T&gt;, listener: ComponentEventListener&lt;T&gt;): Registration</text><!--class ComponentEventBus--><rect fill="#FEFECE" filter="url(#fx4vzxm9uj5cz)" height="91.2188" id="ComponentEventBus" style="stroke: #A80036; stroke-width: 1.5;" width="728" x="226" y="240"/><ellipse cx="520.75" cy="256" fill="#ADD1B2" rx="11" ry="11" style="stroke: #A80036; stroke-width: 1.0;"/><path d="M523.0938,251.6719 L523.2656,251.75 C523.4844,251.4375 523.6875,251.3438 523.9844,251.3438 C524.2813,251.3438 524.5625,251.4844 524.7188,251.75 C524.8125,251.9063 524.8281,252.0313 524.8281,252.4688 L524.8281,253.8906 C524.8281,254.3125 524.7969,254.5 524.6875,254.6563 C524.5156,254.875 524.25,255.0156 523.9844,255.0156 C523.7656,255.0156 523.5313,254.9063 523.3906,254.7656 C523.25,254.6406 523.2188,254.5156 523.1563,254.1094 C523.0625,253.7031 522.8906,253.4844 522.4063,253.2031 C521.9375,252.9531 521.3281,252.7969 520.75,252.7969 C519.0156,252.7969 517.7656,254.1094 517.7656,255.8906 L517.7656,256.9844 C517.7656,258.6875 519.0625,259.7813 521.1094,259.7813 C521.875,259.7813 522.5625,259.6563 522.9844,259.3906 C523.1719,259.2969 523.1719,259.2969 523.625,258.8125 C523.8125,258.625 524.0156,258.5469 524.2344,258.5469 C524.7031,258.5469 525.0938,258.9375 525.0938,259.3906 C525.0938,259.7813 524.7656,260.2344 524.1875,260.6406 C523.4375,261.1875 522.2813,261.4844 521.0625,261.4844 C518.1719,261.4844 516.0625,259.5938 516.0625,257.0156 L516.0625,255.8906 C516.0625,253.1719 518.0625,251.0938 520.6875,251.0938 C521.5625,251.0938 522.1563,251.2344 523.0938,251.6719 Z "/><text fill="#000000" font-family="sans-serif" font-size="12" lengthAdjust="spacingAndGlyphs" textLength="130" x="541.25" y="260.1543">ComponentEventBus</text><line style="stroke: #A80036; stroke-width: 1.5;" x1="227" x2="953" y1="272" y2="272"/><ellipse cx="237" cy="283.9023" fill="#84BE84" rx="3" ry="3" style="stroke: #038048; stroke-width: 1.0;"/><text fill="#000000" font-family="sans-serif" font-size="11" lengthAdjust="spacingAndGlyphs" textLength="262" x="246" y="286.2104">ComponentEventBus(component: Component)</text><ellipse cx="237" cy="296.707" fill="#84BE84" rx="3" ry="3" style="stroke: #038048; stroke-width: 1.0;"/><text fill="#000000" font-family="sans-serif" font-size="11" lengthAdjust="spacingAndGlyphs" textLength="702" x="246" y="299.0151">&lt;T extends ComponentEvent&lt;?&gt;&gt; addListener(eventType: Class&lt;T&gt;, listener: ComponentEventListener&lt;T&gt;): Registration</text><ellipse cx="237" cy="309.5117" fill="#84BE84" rx="3" ry="3" style="stroke: #038048; stroke-width: 1.0;"/><text fill="#000000" font-family="sans-serif" font-size="11" lengthAdjust="spacingAndGlyphs" textLength="193" x="246" y="311.8198">fireEvent(event: ComponentEvent)</text><ellipse cx="237" cy="322.3164" fill="#84BE84" rx="3" ry="3" style="stroke: #038048; stroke-width: 1.0;"/><text fill="#000000" font-family="sans-serif" font-size="11" lengthAdjust="spacingAndGlyphs" textLength="399" x="246" y="324.6245">hasListener(eventType: Class&lt;? extends ComponentEvent&gt;): boolean</text><!--class ComponentEvent--><rect fill="#FEFECE" filter="url(#fx4vzxm9uj5cz)" height="91.2188" id="ComponentEvent" style="stroke: #A80036; stroke-width: 1.5;" width="304" x="260" y="391"/><ellipse cx="285.8" cy="407" fill="#ADD1B2" rx="11" ry="11" style="stroke: #A80036; stroke-width: 1.0;"/><path d="M288.1438,402.6719 L288.3156,402.75 C288.5344,402.4375 288.7375,402.3438 289.0344,402.3438 C289.3313,402.3438 289.6125,402.4844 289.7688,402.75 C289.8625,402.9063 289.8781,403.0313 289.8781,403.4688 L289.8781,404.8906 C289.8781,405.3125 289.8469,405.5 289.7375,405.6563 C289.5656,405.875 289.3,406.0156 289.0344,406.0156 C288.8156,406.0156 288.5813,405.9063 288.4406,405.7656 C288.3,405.6406 288.2688,405.5156 288.2063,405.1094 C288.1125,404.7031 287.9406,404.4844 287.4563,404.2031 C286.9875,403.9531 286.3781,403.7969 285.8,403.7969 C284.0656,403.7969 282.8156,405.1094 282.8156,406.8906 L282.8156,407.9844 C282.8156,409.6875 284.1125,410.7813 286.1594,410.7813 C286.925,410.7813 287.6125,410.6563 288.0344,410.3906 C288.2219,410.2969 288.2219,410.2969 288.675,409.8125 C288.8625,409.625 289.0656,409.5469 289.2844,409.5469 C289.7531,409.5469 290.1438,409.9375 290.1438,410.3906 C290.1438,410.7813 289.8156,411.2344 289.2375,411.6406 C288.4875,412.1875 287.3313,412.4844 286.1125,412.4844 C283.2219,412.4844 281.1125,410.5938 281.1125,408.0156 L281.1125,406.8906 C281.1125,404.1719 283.1125,402.0938 285.7375,402.0938 C286.6125,402.0938 287.2063,402.2344 288.1438,402.6719 Z "/><text fill="#000000" font-family="sans-serif" font-size="12" lengthAdjust="spacingAndGlyphs" textLength="107" x="302.2" y="411.1543">ComponentEvent</text><rect fill="#FFFFFF" height="15.9688" style="stroke: #000000; stroke-width: 1.0; stroke-dasharray: 2.0,2.0;" width="139" x="428" y="388"/><text fill="#000000" font-family="sans-serif" font-size="12" font-style="italic" lengthAdjust="spacingAndGlyphs" textLength="137" x="429" y="400.1387">T extends Component</text><line style="stroke: #A80036; stroke-width: 1.5;" x1="261" x2="563" y1="423" y2="423"/><ellipse cx="271" cy="434.9023" fill="#84BE84" rx="3" ry="3" style="stroke: #038048; stroke-width: 1.0;"/><text fill="#000000" font-family="sans-serif" font-size="11" lengthAdjust="spacingAndGlyphs" textLength="278" x="280" y="437.2104">ComponentEvent(source: T, fromClient: boolean)</text><ellipse cx="271" cy="447.707" fill="#84BE84" rx="3" ry="3" style="stroke: #038048; stroke-width: 1.0;"/><text fill="#000000" font-family="sans-serif" font-size="11" lengthAdjust="spacingAndGlyphs" textLength="81" x="280" y="450.0151">getSource(): T</text><ellipse cx="271" cy="460.5117" fill="#84BE84" rx="3" ry="3" style="stroke: #038048; stroke-width: 1.0;"/><text fill="#000000" font-family="sans-serif" font-size="11" lengthAdjust="spacingAndGlyphs" textLength="132" x="280" y="462.8198">isFromClient(): boolean</text><ellipse cx="271" cy="473.3164" fill="#84BE84" rx="3" ry="3" style="stroke: #038048; stroke-width: 1.0;"/><text fill="#000000" font-family="sans-serif" font-size="11" lengthAdjust="spacingAndGlyphs" textLength="113" x="280" y="475.6245">unregisterListener()</text><!--class ComponentEventListener--><rect fill="#FEFECE" filter="url(#fx4vzxm9uj5cz)" height="52.8047" id="ComponentEventListener" style="stroke: #A80036; stroke-width: 1.5;" width="391" x="599.5" y="410"/><ellipse cx="614.5" cy="426" fill="#B4A7E5" rx="11" ry="11" style="stroke: #A80036; stroke-width: 1.0;"/><path d="M615.4531,422.7813 L615.4531,429.2969 L617.1719,429.2969 C617.625,429.2969 617.7656,429.3281 617.9375,429.4531 C618.1719,429.625 618.2813,429.875 618.2813,430.1563 C618.2813,430.7188 617.9219,431 617.1719,431 L612.0313,431 C611.625,431 611.4219,430.9531 611.2656,430.8281 C611.0469,430.6719 610.9063,430.4063 610.9063,430.1563 C610.9063,429.8594 611.0625,429.5781 611.3125,429.4219 C611.4688,429.3125 611.5938,429.2969 612.0313,429.2969 L613.75,429.2969 L613.75,422.7813 L612.0313,422.7813 C611.6094,422.7813 611.4219,422.75 611.2656,422.6406 C611.0469,422.4688 610.9063,422.2188 610.9063,421.9375 C610.9063,421.6563 611.0625,421.3594 611.3125,421.2031 C611.4688,421.1094 611.5938,421.0938 612.0313,421.0938 L617.1719,421.0938 C617.625,421.0938 617.7656,421.125 617.9375,421.2344 C618.1719,421.4063 618.2813,421.6719 618.2813,421.9375 C618.2813,422.2344 618.1406,422.5156 617.875,422.6719 C617.75,422.75 617.5625,422.7813 617.1719,422.7813 Z "/><text fill="#000000" font-family="sans-serif" font-size="12" font-style="italic" lengthAdjust="spacingAndGlyphs" textLength="157" x="628.5" y="430.1543">ComponentEventListener</text><rect fill="#FFFFFF" height="15.9688" style="stroke: #000000; stroke-width: 1.0; stroke-dasharray: 2.0,2.0;" width="200" x="793.5" y="407"/><text fill="#000000" font-family="sans-serif" font-size="12" font-style="italic" lengthAdjust="spacingAndGlyphs" textLength="198" x="794.5" y="419.1387">T extends ComponentEvent&lt;?&gt;</text><line style="stroke: #A80036; stroke-width: 1.5;" x1="600.5" x2="989.5" y1="442" y2="442"/><ellipse cx="610.5" cy="453.9023" fill="#84BE84" rx="3" ry="3" style="stroke: #038048; stroke-width: 1.0;"/><text fill="#000000" font-family="sans-serif" font-size="11" font-style="italic" lengthAdjust="spacingAndGlyphs" textLength="166" x="619.5" y="456.2104">onComponentEvent(event: T)</text><!--class Registration--><rect fill="#FEFECE" filter="url(#fx4vzxm9uj5cz)" height="52.8047" id="Registration" style="stroke: #A80036; stroke-width: 1.5;" width="107" x="62.5" y="127"/><ellipse cx="77.5" cy="143" fill="#B4A7E5" rx="11" ry="11" style="stroke: #A80036; stroke-width: 1.0;"/><path d="M78.4531,139.7813 L78.4531,146.2969 L80.1719,146.2969 C80.625,146.2969 80.7656,146.3281 80.9375,146.4531 C81.1719,146.625 81.2813,146.875 81.2813,147.1563 C81.2813,147.7188 80.9219,148 80.1719,148 L75.0313,148 C74.625,148 74.4219,147.9531 74.2656,147.8281 C74.0469,147.6719 73.9063,147.4063 73.9063,147.1563 C73.9063,146.8594 74.0625,146.5781 74.3125,146.4219 C74.4688,146.3125 74.5938,146.2969 75.0313,146.2969 L76.75,146.2969 L76.75,139.7813 L75.0313,139.7813 C74.6094,139.7813 74.4219,139.75 74.2656,139.6406 C74.0469,139.4688 73.9063,139.2188 73.9063,138.9375 C73.9063,138.6563 74.0625,138.3594 74.3125,138.2031 C74.4688,138.1094 74.5938,138.0938 75.0313,138.0938 L80.1719,138.0938 C80.625,138.0938 80.7656,138.125 80.9375,138.2344 C81.1719,138.4063 81.2813,138.6719 81.2813,138.9375 C81.2813,139.2344 81.1406,139.5156 80.875,139.6719 C80.75,139.75 80.5625,139.7813 80.1719,139.7813 Z "/><text fill="#000000" font-family="sans-serif" font-size="12" font-style="italic" lengthAdjust="spacingAndGlyphs" textLength="75" x="91.5" y="147.1543">Registration</text><line style="stroke: #A80036; stroke-width: 1.5;" x1="63.5" x2="168.5" y1="159" y2="159"/><ellipse cx="73.5" cy="170.9023" fill="#84BE84" rx="3" ry="3" style="stroke: #038048; stroke-width: 1.0;"/><text fill="#000000" font-family="sans-serif" font-size="11" font-style="italic" lengthAdjust="spacingAndGlyphs" textLength="52" x="82.5" y="173.2104">remove()</text><path d="M526.5,8 L526.5,33.1328 A0,0 0 0 0 526.5,33.1328 L586,33.1328 L590,126.831 L594,33.1328 L653.5,33.1328 A0,0 0 0 0 653.5,33.1328 L653.5,18 L643.5,8 L526.5,8 A0,0 0 0 0 526.5,8 " fill="#FBFB77" filter="url(#fx4vzxm9uj5cz)" style="stroke: #A80036; stroke-width: 1.0;"/><path d="M643.5,8 L643.5,18 L653.5,18 L643.5,8 " fill="#FBFB77" style="stroke: #A80036; stroke-width: 1.0;"/><text fill="#000000" font-family="sans-serif" font-size="13" lengthAdjust="spacingAndGlyphs" textLength="106" x="532.5" y="25.0669">ConcreteSubject</text><path d="M755.5,542 L755.5,567.1328 A0,0 0 0 0 755.5,567.1328 L834.5,567.1328 A0,0 0 0 0 834.5,567.1328 L834.5,552 L824.5,542 L799,542 L795,463.244 L791,542 L755.5,542 A0,0 0 0 0 755.5,542 " fill="#FBFB77" filter="url(#fx4vzxm9uj5cz)" style="stroke: #A80036; stroke-width: 1.0;"/><path d="M824.5,542 L824.5,552 L834.5,552 L824.5,542 " fill="#FBFB77" style="stroke: #A80036; stroke-width: 1.0;"/><text fill="#000000" font-family="sans-serif" font-size="13" lengthAdjust="spacingAndGlyphs" textLength="58" x="761.5" y="559.0669">Observer</text><!--link Component to ComponentEventBus--><path d="M579.604,180.184 C577.46,195.74 576.781,216.11 577.566,234.716 " fill="none" id="Component-ComponentEventBus" style="stroke: #A80036; stroke-width: 1.0;"/><polygon fill="#A80036" points="577.826,239.912,581.371,230.7233,577.576,234.9183,573.3811,231.1232,577.826,239.912" style="stroke: #A80036; stroke-width: 1.0;"/><text fill="#000000" font-family="sans-serif" font-size="13" lengthAdjust="spacingAndGlyphs" textLength="8" x="567.3494" y="228.8432">1</text><!--link ComponentEventBus to Component--><path d="M602.89,239.912 C603.994,222.006 603.599,201.801 601.707,185.539 " fill="none" id="ComponentEventBus-Component" style="stroke: #A80036; stroke-width: 1.0;"/><polygon fill="#A80036" points="601.007,180.184,598.2057,189.6261,601.6542,185.1419,606.1384,188.5905,601.007,180.184" style="stroke: #A80036; stroke-width: 1.0;"/><text fill="#000000" font-family="sans-serif" font-size="13" lengthAdjust="spacingAndGlyphs" textLength="8" x="594.5398" y="199.7645">1</text><!--link Component to ComponentEventListener--><path d="M810.984,180.008 C882.883,193.181 949.935,212.45 972,240 C997.283,271.568 992.052,295.876 972,331 C951.682,366.591 913.972,391.28 878.564,407.685 " fill="none" id="Component-ComponentEventListener" style="stroke: #A80036; stroke-width: 1.0; stroke-dasharray: 7.0,7.0;"/><polygon fill="#A80036" points="873.811,409.845,883.6595,409.7639,878.3632,407.7767,880.3503,402.4804,873.811,409.845" style="stroke: #A80036; stroke-width: 1.0;"/><!--link ComponentEventBus to ComponentEvent--><path d="M536.594,331.205 C515.385,348.958 490.948,369.415 469.364,387.482 " fill="none" id="ComponentEventBus-ComponentEvent" style="stroke: #A80036; stroke-width: 1.0; stroke-dasharray: 7.0,7.0;"/><polygon fill="#A80036" points="465.368,390.827,474.8366,388.1167,469.2018,387.6174,469.7012,381.9826,465.368,390.827" style="stroke: #A80036; stroke-width: 1.0;"/><!--link ComponentEventBus to ComponentEventListener--><path d="M651.229,331.003 C684.964,355.523 725.86,385.247 755.397,406.715 " fill="none" id="ComponentEventBus-ComponentEventListener" style="stroke: #A80036; stroke-width: 1.0; stroke-dasharray: 7.0,7.0;"/><polygon fill="#A80036" points="759.67,409.821,754.7423,401.2935,755.6257,406.881,750.0383,407.7644,759.67,409.821" style="stroke: #A80036; stroke-width: 1.0;"/><!--link Registration to Component--><path d="M174.967,153.5 C191.954,153.5 208.941,153.5 225.927,153.5 " fill="none" id="Registration-Component" style="stroke: #A80036; stroke-width: 1.0; stroke-dasharray: 7.0,7.0;"/><polygon fill="#A80036" points="169.695,153.5,178.695,157.5,174.695,153.5,178.695,149.5,169.695,153.5" style="stroke: #A80036; stroke-width: 1.0;"/><!--link Registration to ComponentEventBus--><path d="M162.883,182.438 C177.582,190.301 194.123,198.263 210,204 C248.847,218.036 290.857,229.964 332.295,239.989 " fill="none" id="Registration-ComponentEventBus" style="stroke: #A80036; stroke-width: 1.0; stroke-dasharray: 7.0,7.0;"/><polygon fill="#A80036" points="158.383,180.003,164.3959,187.8033,162.7808,182.3819,168.2022,180.7668,158.383,180.003" style="stroke: #A80036; stroke-width: 1.0;"/><!--link ComponentEvent to ComponentEventListener--><path d="M569.446,436.5 C579.426,436.5 589.405,436.5 599.384,436.5 " fill="none" id="ComponentEvent-ComponentEventListener" style="stroke: #A80036; stroke-width: 1.0; stroke-dasharray: 7.0,7.0;"/><polygon fill="#A80036" points="564.228,436.5,573.228,440.5,569.228,436.5,573.228,432.5,564.228,436.5" style="stroke: #A80036; stroke-width: 1.0;"/><!--
@startuml
package com.vaadin.flow {
 package component {
  abstract class Component {
   # <T extends ComponentEvent<?>> addListener(eventType: Class<T>, listener: ComponentEventListener<T>): Registration
  }
  class ComponentEventBus {
   + ComponentEventBus(component: Component)
   + <T extends ComponentEvent<?>> addListener(eventType: Class<T>, listener: ComponentEventListener<T>): Registration
   + fireEvent(event: ComponentEvent)
   + hasListener(eventType: Class<? extends ComponentEvent>): boolean
  }
  class ComponentEvent<T extends Component> {
   + ComponentEvent(source: T, fromClient: boolean)
   + getSource(): T
   + isFromClient(): boolean
   + unregisterListener()
  }
  interface ComponentEventListener<T extends ComponentEvent<?>> {
   + {abstract} onComponentEvent(event: T)
  }
 }
 package shared {
  interface Registration {
   +{abstract}remove()
  }
 }
}

Component - -> "1" ComponentEventBus
Component ..> ComponentEventListener
ComponentEventBus - -> "1" Component
ComponentEventBus ..> ComponentEvent
ComponentEventBus ..> ComponentEventListener
Component .left.> Registration
ComponentEventBus .left.> Registration
ComponentEventListener .left.> ComponentEvent

note top of Component: ConcreteSubject
note bottom of ComponentEventListener: Observer

hide empty members
@enduml

PlantUML version 1.2019.08(Sat Jul 13 19:25:14 UTC 2019)
(GPL source distribution)
Java Runtime: Java(TM) SE Runtime Environment
JVM: Java HotSpot(TM) 64-Bit Server VM
Java Version: 1.7.0_25-b15
Operating System: Linux
Default Encoding: UTF-8
Language: en
Country: US
--></g></svg>