<?xml version="1.0" encoding="UTF-8" standalone="no"?>
<svg xmlns="http://www.w3.org/2000/svg" xmlns:xlink="http://www.w3.org/1999/xlink" contentScriptType="application/ecmascript" contentStyleType="text/css" height="744px" preserveAspectRatio="none" style="width:903px;height:744px;" version="1.1" viewBox="0 0 903 744" width="903px" zoomAndPan="magnify"><defs><filter height="300%" id="fukafw5om478e" width="300%" x="-1" y="-1"><feGaussianBlur result="blurOut" stdDeviation="2.0"/><feColorMatrix in="blurOut" result="blurOut2" type="matrix" values="0 0 0 0 0 0 0 0 0 0 0 0 0 0 0 0 0 0 .4 0"/><feOffset dx="4.0" dy="4.0" in="blurOut2" result="blurOut3"/><feBlend in="SourceGraphic" in2="blurOut3" mode="normal"/></filter></defs><g><!--cluster com.vaadin.flow.router--><polygon fill="#FFFFFF" filter="url(#fukafw5om478e)" points="22,165,211,165,218,187.2969,881,187.2969,881,732,22,732,22,165" style="stroke: #000000; stroke-width: 1.5;"/><line style="stroke: #000000; stroke-width: 1.5;" x1="22" x2="218" y1="187.2969" y2="187.2969"/><text fill="#000000" font-family="sans-serif" font-size="14" font-weight="bold" lengthAdjust="spacingAndGlyphs" textLength="183" x="26" y="179.9951">com.vaadin.flow.router</text><!--cluster java.util--><polygon fill="#FFFFFF" filter="url(#fukafw5om478e)" points="511,24,577,24,584,46.2969,731,46.2969,731,141,511,141,511,24" style="stroke: #000000; stroke-width: 1.5;"/><line style="stroke: #000000; stroke-width: 1.5;" x1="511" x2="584" y1="46.2969" y2="46.2969"/><text fill="#000000" font-family="sans-serif" font-size="14" font-weight="bold" lengthAdjust="spacingAndGlyphs" textLength="60" x="515" y="38.9951">java.util</text><!--class HasUrlParameter--><rect fill="#FEFECE" filter="url(#fukafw5om478e)" height="52.8047" id="HasUrlParameter" style="stroke: #A80036; stroke-width: 1.5;" width="304" x="38" y="385.5"/><ellipse cx="127.75" cy="401.5" fill="#B4A7E5" rx="11" ry="11" style="stroke: #A80036; stroke-width: 1.0;"/><path d="M128.7031,398.2813 L128.7031,404.7969 L130.4219,404.7969 C130.875,404.7969 131.0156,404.8281 131.1875,404.9531 C131.4219,405.125 131.5313,405.375 131.5313,405.6563 C131.5313,406.2188 131.1719,406.5 130.4219,406.5 L125.2813,406.5 C124.875,406.5 124.6719,406.4531 124.5156,406.3281 C124.2969,406.1719 124.1563,405.9063 124.1563,405.6563 C124.1563,405.3594 124.3125,405.0781 124.5625,404.9219 C124.7188,404.8125 124.8438,404.7969 125.2813,404.7969 L127,404.7969 L127,398.2813 L125.2813,398.2813 C124.8594,398.2813 124.6719,398.25 124.5156,398.1406 C124.2969,397.9688 124.1563,397.7188 124.1563,397.4375 C124.1563,397.1563 124.3125,396.8594 124.5625,396.7031 C124.7188,396.6094 124.8438,396.5938 125.2813,396.5938 L130.4219,396.5938 C130.875,396.5938 131.0156,396.625 131.1875,396.7344 C131.4219,396.9063 131.5313,397.1719 131.5313,397.4375 C131.5313,397.7344 131.3906,398.0156 131.125,398.1719 C131,398.25 130.8125,398.2813 130.4219,398.2813 Z "/><text fill="#000000" font-family="sans-serif" font-size="12" font-style="italic" lengthAdjust="spacingAndGlyphs" textLength="105" x="148.25" y="405.6543">HasUrlParameter</text><rect fill="#FFFFFF" height="15.9688" style="stroke: #000000; stroke-width: 1.0; stroke-dasharray: 2.0,2.0;" width="9" x="336" y="382.5"/><text fill="#000000" font-family="sans-serif" font-size="12" font-style="italic" lengthAdjust="spacingAndGlyphs" textLength="7" x="337" y="394.6387">T</text><line style="stroke: #A80036; stroke-width: 1.5;" x1="39" x2="341" y1="417.5" y2="417.5"/><ellipse cx="49" cy="429.4023" fill="#84BE84" rx="3" ry="3" style="stroke: #038048; stroke-width: 1.0;"/><text fill="#000000" font-family="sans-serif" font-size="11" font-style="italic" lengthAdjust="spacingAndGlyphs" textLength="278" x="58" y="431.7104">setParameter(event: BeforeEvent, parameter: T)</text><!--class BeforeEvent--><rect fill="#FEFECE" filter="url(#fukafw5om478e)" height="424.1406" id="BeforeEvent" style="stroke: #A80036; stroke-width: 1.5;" width="487" x="377.5" y="200"/><ellipse cx="578.75" cy="216" fill="#A9DCDF" rx="11" ry="11" style="stroke: #A80036; stroke-width: 1.0;"/><path d="M580.3281,217.8125 L576.2813,217.8125 L575.8906,218.7969 L576.2813,218.7969 C576.7344,218.7969 576.875,218.8281 577.0469,218.9531 C577.2656,219.125 577.3906,219.375 577.3906,219.6563 C577.3906,219.9375 577.25,220.2344 576.9844,220.375 C576.8594,220.4688 576.6406,220.5 576.2813,220.5 L574.0156,220.5 C573.2656,220.5 572.8906,220.2188 572.8906,219.6563 C572.8906,219.3594 573.0469,219.0781 573.2969,218.9219 C573.4531,218.8125 573.6094,218.7969 574.0313,218.7969 L576.6719,212.2813 L575.5938,212.2813 C575.1563,212.2813 574.9844,212.25 574.8125,212.1406 C574.5938,211.9688 574.4531,211.7188 574.4531,211.4375 C574.4531,211.1563 574.6094,210.875 574.8594,210.7031 C575.0156,210.6094 575.1406,210.5938 575.5938,210.5938 L579.2656,210.5938 L582.6563,218.7969 C583.125,218.7969 583.2813,218.8281 583.4531,218.9688 C583.6719,219.125 583.8125,219.375 583.8125,219.6563 C583.8125,219.9375 583.6563,220.2344 583.4063,220.375 C583.2656,220.4688 583.0469,220.5 582.6875,220.5 L580.3281,220.5 C579.9063,220.5 579.7031,220.4531 579.5625,220.3281 C579.3438,220.1719 579.2031,219.9219 579.2031,219.6563 C579.2031,219.3594 579.3594,219.0781 579.6094,218.9219 C579.7656,218.8125 579.875,218.7969 580.3281,218.7969 L580.7188,218.7969 Z M579.625,216.1094 L578.2969,212.8438 L576.9531,216.1094 Z "/><text fill="#000000" font-family="sans-serif" font-size="12" font-style="italic" lengthAdjust="spacingAndGlyphs" textLength="76" x="599.25" y="220.1543">BeforeEvent</text><line style="stroke: #A80036; stroke-width: 1.5;" x1="378.5" x2="863.5" y1="232" y2="232"/><ellipse cx="388.5" cy="243.9023" fill="#84BE84" rx="3" ry="3" style="stroke: #038048; stroke-width: 1.0;"/><text fill="#000000" font-family="sans-serif" font-size="11" lengthAdjust="spacingAndGlyphs" textLength="394" x="397.5" y="246.2104">forwardTo(forwardTargetComponent: Class&lt;? extends Component&gt;)</text><ellipse cx="388.5" cy="256.707" fill="#84BE84" rx="3" ry="3" style="stroke: #038048; stroke-width: 1.0;"/><text fill="#000000" font-family="sans-serif" font-size="11" lengthAdjust="spacingAndGlyphs" textLength="427" x="397.5" y="259.0151">forwardTo(forwardTarget: NavigationHandler, targetState: NavigationState)</text><ellipse cx="388.5" cy="269.5117" fill="#84BE84" rx="3" ry="3" style="stroke: #038048; stroke-width: 1.0;"/><text fill="#000000" font-family="sans-serif" font-size="11" lengthAdjust="spacingAndGlyphs" textLength="227" x="397.5" y="271.8198">forwardTo(targetState: NavigationState)</text><ellipse cx="388.5" cy="282.3164" fill="#84BE84" rx="3" ry="3" style="stroke: #038048; stroke-width: 1.0;"/><text fill="#000000" font-family="sans-serif" font-size="11" lengthAdjust="spacingAndGlyphs" textLength="152" x="397.5" y="284.6245">forwardTo(location: String)</text><ellipse cx="388.5" cy="295.1211" fill="#84BE84" rx="3" ry="3" style="stroke: #038048; stroke-width: 1.0;"/><text fill="#000000" font-family="sans-serif" font-size="11" lengthAdjust="spacingAndGlyphs" textLength="301" x="397.5" y="297.4292">forwardTo(location: String, locationParams: List&lt;T&gt;)</text><ellipse cx="388.5" cy="307.9258" fill="#84BE84" rx="3" ry="3" style="stroke: #038048; stroke-width: 1.0;"/><text fill="#000000" font-family="sans-serif" font-size="11" lengthAdjust="spacingAndGlyphs" textLength="256" x="397.5" y="310.2339">forwardTo(location: String, locationParam: T)</text><ellipse cx="388.5" cy="320.7305" fill="#84BE84" rx="3" ry="3" style="stroke: #038048; stroke-width: 1.0;"/><text fill="#000000" font-family="sans-serif" font-size="11" lengthAdjust="spacingAndGlyphs" textLength="236" x="397.5" y="323.0386">getErrorParameter(): ErrorParameter&lt;?&gt;</text><ellipse cx="388.5" cy="333.5352" fill="#84BE84" rx="3" ry="3" style="stroke: #038048; stroke-width: 1.0;"/><text fill="#000000" font-family="sans-serif" font-size="11" lengthAdjust="spacingAndGlyphs" textLength="220" x="397.5" y="335.8433">getForwardTarget(): NavigationHandler</text><ellipse cx="388.5" cy="346.3398" fill="#84BE84" rx="3" ry="3" style="stroke: #038048; stroke-width: 1.0;"/><text fill="#000000" font-family="sans-serif" font-size="11" lengthAdjust="spacingAndGlyphs" textLength="256" x="397.5" y="348.6479">getForwardTargetParameters(): List&lt;String&gt;</text><ellipse cx="388.5" cy="359.1445" fill="#84BE84" rx="3" ry="3" style="stroke: #038048; stroke-width: 1.0;"/><text fill="#000000" font-family="sans-serif" font-size="11" lengthAdjust="spacingAndGlyphs" textLength="318" x="397.5" y="361.4526">getForwardTargetType(): Class&lt;? extends Component&gt;</text><ellipse cx="388.5" cy="371.9492" fill="#84BE84" rx="3" ry="3" style="stroke: #038048; stroke-width: 1.0;"/><text fill="#000000" font-family="sans-serif" font-size="11" lengthAdjust="spacingAndGlyphs" textLength="299" x="397.5" y="374.2573">getLayouts(): List&lt;Class&lt;? extends RouterLayout&gt;&gt;</text><ellipse cx="388.5" cy="384.7539" fill="#84BE84" rx="3" ry="3" style="stroke: #038048; stroke-width: 1.0;"/><text fill="#000000" font-family="sans-serif" font-size="11" lengthAdjust="spacingAndGlyphs" textLength="128" x="397.5" y="387.062">getLocation(): Location</text><ellipse cx="388.5" cy="397.5586" fill="#84BE84" rx="3" ry="3" style="stroke: #038048; stroke-width: 1.0;"/><text fill="#000000" font-family="sans-serif" font-size="11" lengthAdjust="spacingAndGlyphs" textLength="186" x="397.5" y="399.8667">getNavigationTarget(): Class&lt;?&gt;</text><ellipse cx="388.5" cy="410.3633" fill="#84BE84" rx="3" ry="3" style="stroke: #038048; stroke-width: 1.0;"/><text fill="#000000" font-family="sans-serif" font-size="11" lengthAdjust="spacingAndGlyphs" textLength="218" x="397.5" y="412.6714">getRerouteTarget(): NavigationHandler</text><ellipse cx="388.5" cy="423.168" fill="#84BE84" rx="3" ry="3" style="stroke: #038048; stroke-width: 1.0;"/><text fill="#000000" font-family="sans-serif" font-size="11" lengthAdjust="spacingAndGlyphs" textLength="304" x="397.5" y="425.4761">getRouteTargetType(): Class&lt;? extends Component&gt;</text><ellipse cx="388.5" cy="435.9727" fill="#84BE84" rx="3" ry="3" style="stroke: #038048; stroke-width: 1.0;"/><text fill="#000000" font-family="sans-serif" font-size="11" lengthAdjust="spacingAndGlyphs" textLength="111" x="397.5" y="438.2808">getSource(): Router</text><ellipse cx="388.5" cy="448.7773" fill="#84BE84" rx="3" ry="3" style="stroke: #038048; stroke-width: 1.0;"/><text fill="#000000" font-family="sans-serif" font-size="11" lengthAdjust="spacingAndGlyphs" textLength="175" x="397.5" y="451.0854">getTrigger(): NavigationTrigger</text><ellipse cx="388.5" cy="461.582" fill="#84BE84" rx="3" ry="3" style="stroke: #038048; stroke-width: 1.0;"/><text fill="#000000" font-family="sans-serif" font-size="11" lengthAdjust="spacingAndGlyphs" textLength="56" x="397.5" y="463.8901">getUI(): UI</text><ellipse cx="388.5" cy="474.3867" fill="#84BE84" rx="3" ry="3" style="stroke: #038048; stroke-width: 1.0;"/><text fill="#000000" font-family="sans-serif" font-size="11" lengthAdjust="spacingAndGlyphs" textLength="171" x="397.5" y="476.6948">hasErrorParameter(): boolean</text><ellipse cx="388.5" cy="487.1914" fill="#84BE84" rx="3" ry="3" style="stroke: #038048; stroke-width: 1.0;"/><text fill="#000000" font-family="sans-serif" font-size="11" lengthAdjust="spacingAndGlyphs" textLength="165" x="397.5" y="489.4995">hasForwardTarget(): boolean</text><ellipse cx="388.5" cy="499.9961" fill="#84BE84" rx="3" ry="3" style="stroke: #038048; stroke-width: 1.0;"/><text fill="#000000" font-family="sans-serif" font-size="11" lengthAdjust="spacingAndGlyphs" textLength="163" x="397.5" y="502.3042">hasRerouteTarget(): boolean</text><ellipse cx="388.5" cy="512.8008" fill="#84BE84" rx="3" ry="3" style="stroke: #038048; stroke-width: 1.0;"/><text fill="#000000" font-family="sans-serif" font-size="11" lengthAdjust="spacingAndGlyphs" textLength="340" x="397.5" y="515.1089">rerouteTo(routeTargetType: Class&lt;? extends Component&gt;)</text><ellipse cx="388.5" cy="525.6055" fill="#84BE84" rx="3" ry="3" style="stroke: #038048; stroke-width: 1.0;"/><text fill="#000000" font-family="sans-serif" font-size="11" lengthAdjust="spacingAndGlyphs" textLength="423" x="397.5" y="527.9136">rerouteTo(rerouteTarget: NavigationHandler, targetState: NavigationState)</text><ellipse cx="388.5" cy="538.4102" fill="#84BE84" rx="3" ry="3" style="stroke: #038048; stroke-width: 1.0;"/><text fill="#000000" font-family="sans-serif" font-size="11" lengthAdjust="spacingAndGlyphs" textLength="225" x="397.5" y="540.7183">rerouteTo(targetState: NavigationState)</text><ellipse cx="388.5" cy="551.2148" fill="#84BE84" rx="3" ry="3" style="stroke: #038048; stroke-width: 1.0;"/><text fill="#000000" font-family="sans-serif" font-size="11" lengthAdjust="spacingAndGlyphs" textLength="150" x="397.5" y="553.5229">rerouteTo(location: String)</text><ellipse cx="388.5" cy="564.0195" fill="#84BE84" rx="3" ry="3" style="stroke: #038048; stroke-width: 1.0;"/><text fill="#000000" font-family="sans-serif" font-size="11" lengthAdjust="spacingAndGlyphs" textLength="299" x="397.5" y="566.3276">rerouteTo(location: String, locationParams: List&lt;T&gt;)</text><ellipse cx="388.5" cy="576.8242" fill="#84BE84" rx="3" ry="3" style="stroke: #038048; stroke-width: 1.0;"/><text fill="#000000" font-family="sans-serif" font-size="11" lengthAdjust="spacingAndGlyphs" textLength="254" x="397.5" y="579.1323">rerouteTo(location: String, locationParam: T)</text><ellipse cx="388.5" cy="589.6289" fill="#84BE84" rx="3" ry="3" style="stroke: #038048; stroke-width: 1.0;"/><text fill="#000000" font-family="sans-serif" font-size="11" lengthAdjust="spacingAndGlyphs" textLength="318" x="397.5" y="591.937">rerouteToError(exception: Class&lt;? extends Exception&gt;)</text><ellipse cx="388.5" cy="602.4336" fill="#84BE84" rx="3" ry="3" style="stroke: #038048; stroke-width: 1.0;"/><text fill="#000000" font-family="sans-serif" font-size="11" lengthAdjust="spacingAndGlyphs" textLength="461" x="397.5" y="604.7417">rerouteToError(exception: Class&lt;? extends Exception&gt;, customMessage: String)</text><ellipse cx="388.5" cy="615.2383" fill="#84BE84" rx="3" ry="3" style="stroke: #038048; stroke-width: 1.0;"/><text fill="#000000" font-family="sans-serif" font-size="11" lengthAdjust="spacingAndGlyphs" textLength="352" x="397.5" y="617.5464">rerouteToError(exception: Exception, customMessage: String)</text><!--class BeforeLeaveEvent--><rect fill="#FEFECE" filter="url(#fukafw5om478e)" height="32" id="BeforeLeaveEvent" style="stroke: #A80036; stroke-width: 1.5;" width="144" x="515" y="684"/><ellipse cx="530" cy="700" fill="#ADD1B2" rx="11" ry="11" style="stroke: #A80036; stroke-width: 1.0;"/><path d="M532.3438,695.6719 L532.5156,695.75 C532.7344,695.4375 532.9375,695.3438 533.2344,695.3438 C533.5313,695.3438 533.8125,695.4844 533.9688,695.75 C534.0625,695.9063 534.0781,696.0313 534.0781,696.4688 L534.0781,697.8906 C534.0781,698.3125 534.0469,698.5 533.9375,698.6563 C533.7656,698.875 533.5,699.0156 533.2344,699.0156 C533.0156,699.0156 532.7813,698.9063 532.6406,698.7656 C532.5,698.6406 532.4688,698.5156 532.4063,698.1094 C532.3125,697.7031 532.1406,697.4844 531.6563,697.2031 C531.1875,696.9531 530.5781,696.7969 530,696.7969 C528.2656,696.7969 527.0156,698.1094 527.0156,699.8906 L527.0156,700.9844 C527.0156,702.6875 528.3125,703.7813 530.3594,703.7813 C531.125,703.7813 531.8125,703.6563 532.2344,703.3906 C532.4219,703.2969 532.4219,703.2969 532.875,702.8125 C533.0625,702.625 533.2656,702.5469 533.4844,702.5469 C533.9531,702.5469 534.3438,702.9375 534.3438,703.3906 C534.3438,703.7813 534.0156,704.2344 533.4375,704.6406 C532.6875,705.1875 531.5313,705.4844 530.3125,705.4844 C527.4219,705.4844 525.3125,703.5938 525.3125,701.0156 L525.3125,699.8906 C525.3125,697.1719 527.3125,695.0938 529.9375,695.0938 C530.8125,695.0938 531.4063,695.2344 532.3438,695.6719 Z "/><text fill="#000000" font-family="sans-serif" font-size="12" lengthAdjust="spacingAndGlyphs" textLength="112" x="544" y="704.1543">BeforeLeaveEvent</text><!--class BeforeEnterEvent--><rect fill="#FEFECE" filter="url(#fukafw5om478e)" height="32" id="BeforeEnterEvent" style="stroke: #A80036; stroke-width: 1.5;" width="142" x="694" y="684"/><ellipse cx="709" cy="700" fill="#ADD1B2" rx="11" ry="11" style="stroke: #A80036; stroke-width: 1.0;"/><path d="M711.3438,695.6719 L711.5156,695.75 C711.7344,695.4375 711.9375,695.3438 712.2344,695.3438 C712.5313,695.3438 712.8125,695.4844 712.9688,695.75 C713.0625,695.9063 713.0781,696.0313 713.0781,696.4688 L713.0781,697.8906 C713.0781,698.3125 713.0469,698.5 712.9375,698.6563 C712.7656,698.875 712.5,699.0156 712.2344,699.0156 C712.0156,699.0156 711.7813,698.9063 711.6406,698.7656 C711.5,698.6406 711.4688,698.5156 711.4063,698.1094 C711.3125,697.7031 711.1406,697.4844 710.6563,697.2031 C710.1875,696.9531 709.5781,696.7969 709,696.7969 C707.2656,696.7969 706.0156,698.1094 706.0156,699.8906 L706.0156,700.9844 C706.0156,702.6875 707.3125,703.7813 709.3594,703.7813 C710.125,703.7813 710.8125,703.6563 711.2344,703.3906 C711.4219,703.2969 711.4219,703.2969 711.875,702.8125 C712.0625,702.625 712.2656,702.5469 712.4844,702.5469 C712.9531,702.5469 713.3438,702.9375 713.3438,703.3906 C713.3438,703.7813 713.0156,704.2344 712.4375,704.6406 C711.6875,705.1875 710.5313,705.4844 709.3125,705.4844 C706.4219,705.4844 704.3125,703.5938 704.3125,701.0156 L704.3125,699.8906 C704.3125,697.1719 706.3125,695.0938 708.9375,695.0938 C709.8125,695.0938 710.4063,695.2344 711.3438,695.6719 Z "/><text fill="#000000" font-family="sans-serif" font-size="12" lengthAdjust="spacingAndGlyphs" textLength="110" x="723" y="704.1543">BeforeEnterEvent</text><!--class OptionalParameter--><rect fill="#FEFECE" filter="url(#fukafw5om478e)" height="32" id="OptionalParameter" style="stroke: #A80036; stroke-width: 1.5;" width="150" x="115" y="684"/><ellipse cx="130" cy="700" fill="#E3664A" rx="11" ry="11" style="stroke: #A80036; stroke-width: 1.0;"/><path d="M131.9219,697.25 L131.9219,696.7031 C131.9219,695.5781 131.1875,694.7969 130.1406,694.7969 C128.7031,694.7969 127.6406,696.4375 127.6406,698.6094 L127.6406,701.2656 C127.6406,702.5625 127.9219,703.6094 128.5,704.4063 C128.9063,705 129.4375,705.2656 130.1875,705.2656 C130.9375,705.2656 131.6094,705.0469 131.9375,704.7188 C132.1719,704.4688 132.2656,704.4219 132.4688,704.4219 C132.8438,704.4219 133.1406,704.7344 133.1406,705.125 C133.1406,705.9219 131.75,706.5781 130.1406,706.5781 C128.7344,706.5781 127.8125,706.0156 127.0938,704.7656 C126.5781,703.8438 126.2969,702.625 126.2969,701.375 L126.2969,698.5156 C126.2969,695.5781 127.9063,693.4531 130.1094,693.4531 C131.9531,693.4531 133.2656,694.8125 133.2656,696.7031 L133.2656,701.4844 C133.5313,701.6094 133.6563,701.7969 133.6563,702.0781 C133.6563,702.5625 133.3438,702.7813 132.7188,702.7813 L131.9219,702.7813 L131.9219,702.7188 C131.6563,702.7656 131.5156,702.7813 131.3594,702.7813 C129.9063,702.7813 128.7031,701.5625 128.7031,700.1563 C128.7031,698.5781 130.0156,697.3906 131.9219,697.25 Z M131.9219,701.3594 L131.9219,698.625 C130.7969,698.7344 130.0469,699.3438 130.0469,700.1719 C130.0469,700.875 130.6563,701.4063 131.4844,701.4063 C131.5938,701.4063 131.6875,701.4063 131.9219,701.3594 Z "/><text fill="#000000" font-family="sans-serif" font-size="12" lengthAdjust="spacingAndGlyphs" textLength="118" x="144" y="704.1543">OptionalParameter</text><!--class WildcardParameter--><rect fill="#FEFECE" filter="url(#fukafw5om478e)" height="32" id="WildcardParameter" style="stroke: #A80036; stroke-width: 1.5;" width="151" x="300.5" y="684"/><ellipse cx="315.5" cy="700" fill="#E3664A" rx="11" ry="11" style="stroke: #A80036; stroke-width: 1.0;"/><path d="M317.4219,697.25 L317.4219,696.7031 C317.4219,695.5781 316.6875,694.7969 315.6406,694.7969 C314.2031,694.7969 313.1406,696.4375 313.1406,698.6094 L313.1406,701.2656 C313.1406,702.5625 313.4219,703.6094 314,704.4063 C314.4063,705 314.9375,705.2656 315.6875,705.2656 C316.4375,705.2656 317.1094,705.0469 317.4375,704.7188 C317.6719,704.4688 317.7656,704.4219 317.9688,704.4219 C318.3438,704.4219 318.6406,704.7344 318.6406,705.125 C318.6406,705.9219 317.25,706.5781 315.6406,706.5781 C314.2344,706.5781 313.3125,706.0156 312.5938,704.7656 C312.0781,703.8438 311.7969,702.625 311.7969,701.375 L311.7969,698.5156 C311.7969,695.5781 313.4063,693.4531 315.6094,693.4531 C317.4531,693.4531 318.7656,694.8125 318.7656,696.7031 L318.7656,701.4844 C319.0313,701.6094 319.1563,701.7969 319.1563,702.0781 C319.1563,702.5625 318.8438,702.7813 318.2188,702.7813 L317.4219,702.7813 L317.4219,702.7188 C317.1563,702.7656 317.0156,702.7813 316.8594,702.7813 C315.4063,702.7813 314.2031,701.5625 314.2031,700.1563 C314.2031,698.5781 315.5156,697.3906 317.4219,697.25 Z M317.4219,701.3594 L317.4219,698.625 C316.2969,698.7344 315.5469,699.3438 315.5469,700.1719 C315.5469,700.875 316.1563,701.4063 316.9844,701.4063 C317.0938,701.4063 317.1875,701.4063 317.4219,701.3594 Z "/><text fill="#000000" font-family="sans-serif" font-size="12" lengthAdjust="spacingAndGlyphs" textLength="119" x="329.5" y="704.1543">WildcardParameter</text><!--class EventObject--><rect fill="#FEFECE" filter="url(#fukafw5om478e)" height="65.6094" id="EventObject" style="stroke: #A80036; stroke-width: 1.5;" width="188" x="527" y="59"/><ellipse cx="579.25" cy="75" fill="#ADD1B2" rx="11" ry="11" style="stroke: #A80036; stroke-width: 1.0;"/><path d="M581.5938,70.6719 L581.7656,70.75 C581.9844,70.4375 582.1875,70.3438 582.4844,70.3438 C582.7813,70.3438 583.0625,70.4844 583.2188,70.75 C583.3125,70.9063 583.3281,71.0313 583.3281,71.4688 L583.3281,72.8906 C583.3281,73.3125 583.2969,73.5 583.1875,73.6563 C583.0156,73.875 582.75,74.0156 582.4844,74.0156 C582.2656,74.0156 582.0313,73.9063 581.8906,73.7656 C581.75,73.6406 581.7188,73.5156 581.6563,73.1094 C581.5625,72.7031 581.3906,72.4844 580.9063,72.2031 C580.4375,71.9531 579.8281,71.7969 579.25,71.7969 C577.5156,71.7969 576.2656,73.1094 576.2656,74.8906 L576.2656,75.9844 C576.2656,77.6875 577.5625,78.7813 579.6094,78.7813 C580.375,78.7813 581.0625,78.6563 581.4844,78.3906 C581.6719,78.2969 581.6719,78.2969 582.125,77.8125 C582.3125,77.625 582.5156,77.5469 582.7344,77.5469 C583.2031,77.5469 583.5938,77.9375 583.5938,78.3906 C583.5938,78.7813 583.2656,79.2344 582.6875,79.6406 C581.9375,80.1875 580.7813,80.4844 579.5625,80.4844 C576.6719,80.4844 574.5625,78.5938 574.5625,76.0156 L574.5625,74.8906 C574.5625,72.1719 576.5625,70.0938 579.1875,70.0938 C580.0625,70.0938 580.6563,70.2344 581.5938,70.6719 Z "/><text fill="#000000" font-family="sans-serif" font-size="12" lengthAdjust="spacingAndGlyphs" textLength="75" x="599.75" y="79.1543">EventObject</text><line style="stroke: #A80036; stroke-width: 1.5;" x1="528" x2="714" y1="91" y2="91"/><ellipse cx="538" cy="102.9023" fill="#84BE84" rx="3" ry="3" style="stroke: #038048; stroke-width: 1.0;"/><text fill="#000000" font-family="sans-serif" font-size="11" lengthAdjust="spacingAndGlyphs" textLength="162" x="547" y="105.2104">EventSource(source: Object)</text><ellipse cx="538" cy="115.707" fill="#84BE84" rx="3" ry="3" style="stroke: #038048; stroke-width: 1.0;"/><text fill="#000000" font-family="sans-serif" font-size="11" lengthAdjust="spacingAndGlyphs" textLength="110" x="547" y="118.0151">getSource(): Object</text><!--link EventObject to BeforeEvent--><path d="M621,145.502 C621,161.413 621,179.958 621,199.715 " fill="none" id="EventObject-BeforeEvent" style="stroke: #A80036; stroke-width: 1.0;"/><polygon fill="none" points="614,145.242,621,125.242,628,145.242,614,145.242" style="stroke: #A80036; stroke-width: 1.0;"/><!--link BeforeEvent to BeforeLeaveEvent--><path d="M593.509,644.245 C591.588,660.4079 589.96,674.1016 588.813,683.7521 " fill="none" id="BeforeEvent-BeforeLeaveEvent" style="stroke: #A80036; stroke-width: 1.0;"/><polygon fill="none" points="586.577,643.264,595.889,624.23,600.479,644.917,586.577,643.264" style="stroke: #A80036; stroke-width: 1.0;"/><!--link BeforeEvent to BeforeEnterEvent--><path d="M736.362,642.123 C744.966,659.2095 752.252,673.682 757.323,683.7521 " fill="none" id="BeforeEvent-BeforeEnterEvent" style="stroke: #A80036; stroke-width: 1.0;"/><polygon fill="none" points="730.096,645.242,727.354,624.23,742.6,638.946,730.096,645.242" style="stroke: #A80036; stroke-width: 1.0;"/><!--link HasUrlParameter to BeforeEvent--><path d="M342.365,412 C352.329,412 362.293,412 372.256,412 " fill="none" id="HasUrlParameter-BeforeEvent" style="stroke: #A80036; stroke-width: 1.0; stroke-dasharray: 7.0,7.0;"/><polygon fill="#A80036" points="377.467,412,368.467,408,372.467,412,368.467,416,377.467,412" style="stroke: #A80036; stroke-width: 1.0;"/><!--link HasUrlParameter to OptionalParameter--><!--link OptionalParameter to WildcardParameter--><!--
@startuml
package com.vaadin.flow.router {
 interface HasUrlParameter<T> {
  + {abstract} setParameter(event: BeforeEvent, parameter: T)
 }
 abstract class BeforeEvent {
  + forwardTo(forwardTargetComponent: Class<? extends Component>)
  + forwardTo(forwardTarget: NavigationHandler, targetState: NavigationState)
  + forwardTo(targetState: NavigationState)
  + forwardTo(location: String)
  + forwardTo(location: String, locationParams: List<T>)
  + forwardTo(location: String, locationParam: T)
  + getErrorParameter(): ErrorParameter<?>
  + getForwardTarget(): NavigationHandler
  + getForwardTargetParameters(): List<String>
  + getForwardTargetType(): Class<? extends Component>
  + getLayouts(): List<Class<? extends RouterLayout>>
  + getLocation(): Location
  + getNavigationTarget(): Class<?>
  + getRerouteTarget(): NavigationHandler
  + getRouteTargetType(): Class<? extends Component>
  + getSource(): Router
  + getTrigger(): NavigationTrigger
  + getUI(): UI
  + hasErrorParameter(): boolean
  + hasForwardTarget(): boolean
  + hasRerouteTarget(): boolean
  + rerouteTo(routeTargetType: Class<? extends Component>)
  + rerouteTo(rerouteTarget: NavigationHandler, targetState: NavigationState)
  + rerouteTo(targetState: NavigationState)
  + rerouteTo(location: String)
  + rerouteTo(location: String, locationParams: List<T>)
  + rerouteTo(location: String, locationParam: T)
  + rerouteToError(exception: Class<? extends Exception>)
  + rerouteToError(exception: Class<? extends Exception>, customMessage: String)
  + rerouteToError(exception: Exception, customMessage: String)  
 }
 class BeforeLeaveEvent
 class BeforeEnterEvent
 annotation OptionalParameter
 annotation WildcardParameter
}
package java.util {
 class EventObject {
  + EventSource(source: Object)
  + getSource(): Object
 }
}
BeforeEvent -up-|> EventObject
BeforeLeaveEvent -up-|> BeforeEvent
BeforeEnterEvent -up-|> BeforeEvent
HasUrlParameter .right.> BeforeEvent
OptionalParameter -[hidden]up- HasUrlParameter
OptionalParameter -[hidden]right- WildcardParameter
hide empty members
@enduml

PlantUML version 1.2019.08(Sat Jul 13 19:25:14 UTC 2019)
(GPL source distribution)
Java Runtime: Java(TM) SE Runtime Environment
JVM: Java HotSpot(TM) 64-Bit Server VM
Java Version: 1.7.0_25-b15
Operating System: Linux
Default Encoding: UTF-8
Language: en
Country: US
--></g></svg>