<?xml version="1.0" encoding="UTF-8" standalone="no"?><svg xmlns="http://www.w3.org/2000/svg" xmlns:xlink="http://www.w3.org/1999/xlink" contentScriptType="application/ecmascript" contentStyleType="text/css" height="612px" preserveAspectRatio="xMidYMid" style="width:1068px;height:612px;" version="1.1" viewBox="0 0 1068 612" width="1068px" zoomAndPan="magnify"><defs><filter height="300%" id="f1ojs4uznz3l4x" width="300%" x="-1" y="-1"><feGaussianBlur result="blurOut" stdDeviation="2.0"/><feColorMatrix in="blurOut" result="blurOut2" type="matrix" values="0 0 0 0 0 0 0 0 0 0 0 0 0 0 0 0 0 0 .4 0"/><feOffset dx="4.0" dy="4.0" in="blurOut2" result="blurOut3"/><feBlend in="SourceGraphic" in2="blurOut3" mode="normal"/></filter></defs><g><!--cluster com.vaadin.flow--><polygon fill="#FFFFFF" filter="url(#f1ojs4uznz3l4x)" points="22,152,156,152,163,174.2969,1046,174.2969,1046,600,22,600,22,152" style="stroke: #000000; stroke-width: 1.5;"/><line style="stroke: #000000; stroke-width: 1.5;" x1="22" x2="163" y1="174.2969" y2="174.2969"/><text fill="#000000" font-family="sans-serif" font-size="14" font-weight="bold" lengthAdjust="spacingAndGlyphs" textLength="128" x="26" y="166.9951">com.vaadin.flow</text><!--cluster router--><polygon fill="#FFFFFF" filter="url(#f1ojs4uznz3l4x)" points="414,205.5,470,205.5,477,227.7969,778,227.7969,778,576,414,576,414,205.5" style="stroke: #000000; stroke-width: 1.5;"/><line style="stroke: #000000; stroke-width: 1.5;" x1="414" x2="477" y1="227.7969" y2="227.7969"/><text fill="#000000" font-family="sans-serif" font-size="14" font-weight="bold" lengthAdjust="spacingAndGlyphs" textLength="50" x="418" y="220.4951">router</text><!--cluster component--><polygon fill="#FFFFFF" filter="url(#f1ojs4uznz3l4x)" points="802,205.5,897,205.5,904,227.7969,1022,227.7969,1022,418.5,802,418.5,802,205.5" style="stroke: #000000; stroke-width: 1.5;"/><line style="stroke: #000000; stroke-width: 1.5;" x1="802" x2="904" y1="227.7969" y2="227.7969"/><text fill="#000000" font-family="sans-serif" font-size="14" font-weight="bold" lengthAdjust="spacingAndGlyphs" textLength="89" x="806" y="220.4951">component</text><!--cluster server.startup--><polygon fill="#FFFFFF" filter="url(#f1ojs4uznz3l4x)" points="46,195,166,195,173,217.2969,390,217.2969,390,299,46,299,46,195" style="stroke: #000000; stroke-width: 1.5;"/><line style="stroke: #000000; stroke-width: 1.5;" x1="46" x2="173" y1="217.2969" y2="217.2969"/><text fill="#000000" font-family="sans-serif" font-size="14" font-weight="bold" lengthAdjust="spacingAndGlyphs" textLength="114" x="50" y="209.9951">server.startup</text><!--cluster javax.servlet--><polygon fill="#FFFFFF" filter="url(#f1ojs4uznz3l4x)" points="47,24,153,24,160,46.2969,389,46.2969,389,128,47,128,47,24" style="stroke: #000000; stroke-width: 1.5;"/><line style="stroke: #000000; stroke-width: 1.5;" x1="47" x2="160" y1="46.2969" y2="46.2969"/><text fill="#000000" font-family="sans-serif" font-size="14" font-weight="bold" lengthAdjust="spacingAndGlyphs" textLength="100" x="51" y="38.9951">javax.servlet</text><!--class RouterLayout--><rect fill="#FEFECE" filter="url(#f1ojs4uznz3l4x)" height="32" id="RouterLayout" style="stroke: #A80036; stroke-width: 1.5;" width="117" x="644.5" y="240.5"/><ellipse cx="659.5" cy="256.5" fill="#B4A7E5" rx="11" ry="11" style="stroke: #A80036; stroke-width: 1.0;"/><path d="M660.4531,253.2813 L660.4531,259.7969 L662.1719,259.7969 C662.625,259.7969 662.7656,259.8281 662.9375,259.9531 C663.1719,260.125 663.2813,260.375 663.2813,260.6563 C663.2813,261.2188 662.9219,261.5 662.1719,261.5 L657.0313,261.5 C656.625,261.5 656.4219,261.4531 656.2656,261.3281 C656.0469,261.1719 655.9063,260.9063 655.9063,260.6563 C655.9063,260.3594 656.0625,260.0781 656.3125,259.9219 C656.4688,259.8125 656.5938,259.7969 657.0313,259.7969 L658.75,259.7969 L658.75,253.2813 L657.0313,253.2813 C656.6094,253.2813 656.4219,253.25 656.2656,253.1406 C656.0469,252.9688 655.9063,252.7188 655.9063,252.4375 C655.9063,252.1563 656.0625,251.8594 656.3125,251.7031 C656.4688,251.6094 656.5938,251.5938 657.0313,251.5938 L662.1719,251.5938 C662.625,251.5938 662.7656,251.625 662.9375,251.7344 C663.1719,251.9063 663.2813,252.1719 663.2813,252.4375 C663.2813,252.7344 663.1406,253.0156 662.875,253.1719 C662.75,253.25 662.5625,253.2813 662.1719,253.2813 Z "/><text fill="#000000" font-family="sans-serif" font-size="12" font-style="italic" lengthAdjust="spacingAndGlyphs" textLength="85" x="673.5" y="260.6543">RouterLayout</text><!--class RouteData--><rect fill="#FEFECE" filter="url(#f1ojs4uznz3l4x)" height="91.2188" id="RouteData" style="stroke: #A80036; stroke-width: 1.5;" width="303" x="430.5" y="469"/><ellipse cx="544.25" cy="485" fill="#ADD1B2" rx="11" ry="11" style="stroke: #A80036; stroke-width: 1.0;"/><path d="M546.5938,480.6719 L546.7656,480.75 C546.9844,480.4375 547.1875,480.3438 547.4844,480.3438 C547.7813,480.3438 548.0625,480.4844 548.2188,480.75 C548.3125,480.9063 548.3281,481.0313 548.3281,481.4688 L548.3281,482.8906 C548.3281,483.3125 548.2969,483.5 548.1875,483.6563 C548.0156,483.875 547.75,484.0156 547.4844,484.0156 C547.2656,484.0156 547.0313,483.9063 546.8906,483.7656 C546.75,483.6406 546.7188,483.5156 546.6563,483.1094 C546.5625,482.7031 546.3906,482.4844 545.9063,482.2031 C545.4375,481.9531 544.8281,481.7969 544.25,481.7969 C542.5156,481.7969 541.2656,483.1094 541.2656,484.8906 L541.2656,485.9844 C541.2656,487.6875 542.5625,488.7813 544.6094,488.7813 C545.375,488.7813 546.0625,488.6563 546.4844,488.3906 C546.6719,488.2969 546.6719,488.2969 547.125,487.8125 C547.3125,487.625 547.5156,487.5469 547.7344,487.5469 C548.2031,487.5469 548.5938,487.9375 548.5938,488.3906 C548.5938,488.7813 548.2656,489.2344 547.6875,489.6406 C546.9375,490.1875 545.7813,490.4844 544.5625,490.4844 C541.6719,490.4844 539.5625,488.5938 539.5625,486.0156 L539.5625,484.8906 C539.5625,482.1719 541.5625,480.0938 544.1875,480.0938 C545.0625,480.0938 545.6563,480.2344 546.5938,480.6719 Z "/><text fill="#000000" font-family="sans-serif" font-size="12" lengthAdjust="spacingAndGlyphs" textLength="67" x="564.75" y="489.1543">RouteData</text><line style="stroke: #A80036; stroke-width: 1.5;" x1="431.5" x2="732.5" y1="501" y2="501"/><rect fill="none" height="6" style="stroke: #C82930; stroke-width: 1.0;" width="6" x="438.5" y="509.9023"/><text fill="#000000" font-family="sans-serif" font-size="11" lengthAdjust="spacingAndGlyphs" textLength="265" x="450.5" y="515.2104">parentLayout: Class&lt;? extends RouterLayout&gt;</text><rect fill="none" height="6" style="stroke: #C82930; stroke-width: 1.0;" width="6" x="438.5" y="522.707"/><text fill="#000000" font-family="sans-serif" font-size="11" lengthAdjust="spacingAndGlyphs" textLength="57" x="450.5" y="528.0151">url: String</text><rect fill="none" height="6" style="stroke: #C82930; stroke-width: 1.0;" width="6" x="438.5" y="535.5117"/><text fill="#000000" font-family="sans-serif" font-size="11" lengthAdjust="spacingAndGlyphs" textLength="169" x="450.5" y="540.8198">parameters: List&lt;Class&lt;?&gt;&gt;</text><rect fill="none" height="6" style="stroke: #C82930; stroke-width: 1.0;" width="6" x="438.5" y="548.3164"/><text fill="#000000" font-family="sans-serif" font-size="11" lengthAdjust="spacingAndGlyphs" textLength="277" x="450.5" y="553.6245">navigationTarget: Class&lt;? extends Component&gt;</text><!--class Router--><rect fill="#FEFECE" filter="url(#f1ojs4uznz3l4x)" height="32" id="Router" style="stroke: #A80036; stroke-width: 1.5;" width="74" x="535" y="240.5"/><ellipse cx="550" cy="256.5" fill="#ADD1B2" rx="11" ry="11" style="stroke: #A80036; stroke-width: 1.0;"/><path d="M552.3438,252.1719 L552.5156,252.25 C552.7344,251.9375 552.9375,251.8438 553.2344,251.8438 C553.5313,251.8438 553.8125,251.9844 553.9688,252.25 C554.0625,252.4063 554.0781,252.5313 554.0781,252.9688 L554.0781,254.3906 C554.0781,254.8125 554.0469,255 553.9375,255.1563 C553.7656,255.375 553.5,255.5156 553.2344,255.5156 C553.0156,255.5156 552.7813,255.4063 552.6406,255.2656 C552.5,255.1406 552.4688,255.0156 552.4063,254.6094 C552.3125,254.2031 552.1406,253.9844 551.6563,253.7031 C551.1875,253.4531 550.5781,253.2969 550,253.2969 C548.2656,253.2969 547.0156,254.6094 547.0156,256.3906 L547.0156,257.4844 C547.0156,259.1875 548.3125,260.2813 550.3594,260.2813 C551.125,260.2813 551.8125,260.1563 552.2344,259.8906 C552.4219,259.7969 552.4219,259.7969 552.875,259.3125 C553.0625,259.125 553.2656,259.0469 553.4844,259.0469 C553.9531,259.0469 554.3438,259.4375 554.3438,259.8906 C554.3438,260.2813 554.0156,260.7344 553.4375,261.1406 C552.6875,261.6875 551.5313,261.9844 550.3125,261.9844 C547.4219,261.9844 545.3125,260.0938 545.3125,257.5156 L545.3125,256.3906 C545.3125,253.6719 547.3125,251.5938 549.9375,251.5938 C550.8125,251.5938 551.4063,251.7344 552.3438,252.1719 Z "/><text fill="#000000" font-family="sans-serif" font-size="12" lengthAdjust="spacingAndGlyphs" textLength="42" x="564" y="260.6543">Router</text><!--class RouteRegistry--><rect fill="#FEFECE" filter="url(#f1ojs4uznz3l4x)" height="65.6094" id="RouteRegistry" style="stroke: #A80036; stroke-width: 1.5;" width="273" x="435.5" y="343"/><ellipse cx="524.25" cy="359" fill="#ADD1B2" rx="11" ry="11" style="stroke: #A80036; stroke-width: 1.0;"/><path d="M526.5938,354.6719 L526.7656,354.75 C526.9844,354.4375 527.1875,354.3438 527.4844,354.3438 C527.7813,354.3438 528.0625,354.4844 528.2188,354.75 C528.3125,354.9063 528.3281,355.0313 528.3281,355.4688 L528.3281,356.8906 C528.3281,357.3125 528.2969,357.5 528.1875,357.6563 C528.0156,357.875 527.75,358.0156 527.4844,358.0156 C527.2656,358.0156 527.0313,357.9063 526.8906,357.7656 C526.75,357.6406 526.7188,357.5156 526.6563,357.1094 C526.5625,356.7031 526.3906,356.4844 525.9063,356.2031 C525.4375,355.9531 524.8281,355.7969 524.25,355.7969 C522.5156,355.7969 521.2656,357.1094 521.2656,358.8906 L521.2656,359.9844 C521.2656,361.6875 522.5625,362.7813 524.6094,362.7813 C525.375,362.7813 526.0625,362.6563 526.4844,362.3906 C526.6719,362.2969 526.6719,362.2969 527.125,361.8125 C527.3125,361.625 527.5156,361.5469 527.7344,361.5469 C528.2031,361.5469 528.5938,361.9375 528.5938,362.3906 C528.5938,362.7813 528.2656,363.2344 527.6875,363.6406 C526.9375,364.1875 525.7813,364.4844 524.5625,364.4844 C521.6719,364.4844 519.5625,362.5938 519.5625,360.0156 L519.5625,358.8906 C519.5625,356.1719 521.5625,354.0938 524.1875,354.0938 C525.0625,354.0938 525.6563,354.2344 526.5938,354.6719 Z "/><text fill="#000000" font-family="sans-serif" font-size="12" lengthAdjust="spacingAndGlyphs" textLength="87" x="544.75" y="363.1543">RouteRegistry</text><line style="stroke: #A80036; stroke-width: 1.5;" x1="436.5" x2="707.5" y1="375" y2="375"/><ellipse cx="446.5" cy="386.9023" fill="#84BE84" rx="3" ry="3" style="stroke: #038048; stroke-width: 1.0;"/><text fill="#000000" font-family="sans-serif" font-size="11" lengthAdjust="spacingAndGlyphs" text-decoration="underline" textLength="247" x="455.5" y="389.2104">getInstance(servletContext: ServletContext)</text><line style="stroke: #000000; stroke-width: 1.0;" x1="455.5" x2="702.5" y1="391.2104" y2="391.2104"/><ellipse cx="446.5" cy="399.707" fill="#84BE84" rx="3" ry="3" style="stroke: #038048; stroke-width: 1.0;"/><text fill="#000000" font-family="sans-serif" font-size="11" lengthAdjust="spacingAndGlyphs" textLength="230" x="455.5" y="402.0151">getRegisteredRoutes(): List&lt;RouteData&gt;</text><!--class Route--><rect fill="#FEFECE" filter="url(#f1ojs4uznz3l4x)" height="32" id="Route" style="stroke: #A80036; stroke-width: 1.5;" width="69" x="430.5" y="240.5"/><ellipse cx="445.5" cy="256.5" fill="#E3664A" rx="11" ry="11" style="stroke: #A80036; stroke-width: 1.0;"/><path d="M447.4219,253.75 L447.4219,253.2031 C447.4219,252.0781 446.6875,251.2969 445.6406,251.2969 C444.2031,251.2969 443.1406,252.9375 443.1406,255.1094 L443.1406,257.7656 C443.1406,259.0625 443.4219,260.1094 444,260.9063 C444.4063,261.5 444.9375,261.7656 445.6875,261.7656 C446.4375,261.7656 447.1094,261.5469 447.4375,261.2188 C447.6719,260.9688 447.7656,260.9219 447.9688,260.9219 C448.3438,260.9219 448.6406,261.2344 448.6406,261.625 C448.6406,262.4219 447.25,263.0781 445.6406,263.0781 C444.2344,263.0781 443.3125,262.5156 442.5938,261.2656 C442.0781,260.3438 441.7969,259.125 441.7969,257.875 L441.7969,255.0156 C441.7969,252.0781 443.4063,249.9531 445.6094,249.9531 C447.4531,249.9531 448.7656,251.3125 448.7656,253.2031 L448.7656,257.9844 C449.0313,258.1094 449.1563,258.2969 449.1563,258.5781 C449.1563,259.0625 448.8438,259.2813 448.2188,259.2813 L447.4219,259.2813 L447.4219,259.2188 C447.1563,259.2656 447.0156,259.2813 446.8594,259.2813 C445.4063,259.2813 444.2031,258.0625 444.2031,256.6563 C444.2031,255.0781 445.5156,253.8906 447.4219,253.75 Z M447.4219,257.8594 L447.4219,255.125 C446.2969,255.2344 445.5469,255.8438 445.5469,256.6719 C445.5469,257.375 446.1563,257.9063 446.9844,257.9063 C447.0938,257.9063 447.1875,257.9063 447.4219,257.8594 Z "/><text fill="#000000" font-family="sans-serif" font-size="12" lengthAdjust="spacingAndGlyphs" textLength="37" x="459.5" y="260.6543">Route</text><!--class UI--><rect fill="#FEFECE" filter="url(#f1ojs4uznz3l4x)" height="52.8047" id="UI" style="stroke: #A80036; stroke-width: 1.5;" width="187" x="818.5" y="349.5"/><ellipse cx="901.75" cy="365.5" fill="#ADD1B2" rx="11" ry="11" style="stroke: #A80036; stroke-width: 1.0;"/><path d="M904.0938,361.1719 L904.2656,361.25 C904.4844,360.9375 904.6875,360.8438 904.9844,360.8438 C905.2813,360.8438 905.5625,360.9844 905.7188,361.25 C905.8125,361.4063 905.8281,361.5313 905.8281,361.9688 L905.8281,363.3906 C905.8281,363.8125 905.7969,364 905.6875,364.1563 C905.5156,364.375 905.25,364.5156 904.9844,364.5156 C904.7656,364.5156 904.5313,364.4063 904.3906,364.2656 C904.25,364.1406 904.2188,364.0156 904.1563,363.6094 C904.0625,363.2031 903.8906,362.9844 903.4063,362.7031 C902.9375,362.4531 902.3281,362.2969 901.75,362.2969 C900.0156,362.2969 898.7656,363.6094 898.7656,365.3906 L898.7656,366.4844 C898.7656,368.1875 900.0625,369.2813 902.1094,369.2813 C902.875,369.2813 903.5625,369.1563 903.9844,368.8906 C904.1719,368.7969 904.1719,368.7969 904.625,368.3125 C904.8125,368.125 905.0156,368.0469 905.2344,368.0469 C905.7031,368.0469 906.0938,368.4375 906.0938,368.8906 C906.0938,369.2813 905.7656,369.7344 905.1875,370.1406 C904.4375,370.6875 903.2813,370.9844 902.0625,370.9844 C899.1719,370.9844 897.0625,369.0938 897.0625,366.5156 L897.0625,365.3906 C897.0625,362.6719 899.0625,360.5938 901.6875,360.5938 C902.5625,360.5938 903.1563,360.7344 904.0938,361.1719 Z "/><text fill="#000000" font-family="sans-serif" font-size="12" lengthAdjust="spacingAndGlyphs" textLength="12" x="922.25" y="369.6543">UI</text><line style="stroke: #A80036; stroke-width: 1.5;" x1="819.5" x2="1004.5" y1="381.5" y2="381.5"/><polygon fill="#FFFF44" points="829.5,388.4023,833.5,392.4023,829.5,396.4023,825.5,392.4023" style="stroke: #B38D22; stroke-width: 1.0;"/><text fill="#000000" font-family="sans-serif" font-size="11" lengthAdjust="spacingAndGlyphs" textLength="161" x="838.5" y="395.7104">init(request: VaadinRequest)</text><!--class Component--><rect fill="#FEFECE" filter="url(#f1ojs4uznz3l4x)" height="32" id="Component" style="stroke: #A80036; stroke-width: 1.5;" width="104" x="860" y="240.5"/><ellipse cx="875" cy="256.5" fill="#A9DCDF" rx="11" ry="11" style="stroke: #A80036; stroke-width: 1.0;"/><path d="M876.5781,258.3125 L872.5313,258.3125 L872.1406,259.2969 L872.5313,259.2969 C872.9844,259.2969 873.125,259.3281 873.2969,259.4531 C873.5156,259.625 873.6406,259.875 873.6406,260.1563 C873.6406,260.4375 873.5,260.7344 873.2344,260.875 C873.1094,260.9688 872.8906,261 872.5313,261 L870.2656,261 C869.5156,261 869.1406,260.7188 869.1406,260.1563 C869.1406,259.8594 869.2969,259.5781 869.5469,259.4219 C869.7031,259.3125 869.8594,259.2969 870.2813,259.2969 L872.9219,252.7813 L871.8438,252.7813 C871.4063,252.7813 871.2344,252.75 871.0625,252.6406 C870.8438,252.4688 870.7031,252.2188 870.7031,251.9375 C870.7031,251.6563 870.8594,251.375 871.1094,251.2031 C871.2656,251.1094 871.3906,251.0938 871.8438,251.0938 L875.5156,251.0938 L878.9063,259.2969 C879.375,259.2969 879.5313,259.3281 879.7031,259.4688 C879.9219,259.625 880.0625,259.875 880.0625,260.1563 C880.0625,260.4375 879.9063,260.7344 879.6563,260.875 C879.5156,260.9688 879.2969,261 878.9375,261 L876.5781,261 C876.1563,261 875.9531,260.9531 875.8125,260.8281 C875.5938,260.6719 875.4531,260.4219 875.4531,260.1563 C875.4531,259.8594 875.6094,259.5781 875.8594,259.4219 C876.0156,259.3125 876.125,259.2969 876.5781,259.2969 L876.9688,259.2969 Z M875.875,256.6094 L874.5469,253.3438 L873.2031,256.6094 Z "/><text fill="#000000" font-family="sans-serif" font-size="12" font-style="italic" lengthAdjust="spacingAndGlyphs" textLength="72" x="889" y="260.6543">Component</text><!--class RouteRegistryInitializer--><rect fill="#FEFECE" filter="url(#f1ojs4uznz3l4x)" height="52.8047" id="RouteRegistryInitializer" style="stroke: #A80036; stroke-width: 1.5;" width="312" x="62" y="230"/><ellipse cx="143.25" cy="246" fill="#ADD1B2" rx="11" ry="11" style="stroke: #A80036; stroke-width: 1.0;"/><path d="M145.5938,241.6719 L145.7656,241.75 C145.9844,241.4375 146.1875,241.3438 146.4844,241.3438 C146.7813,241.3438 147.0625,241.4844 147.2188,241.75 C147.3125,241.9063 147.3281,242.0313 147.3281,242.4688 L147.3281,243.8906 C147.3281,244.3125 147.2969,244.5 147.1875,244.6563 C147.0156,244.875 146.75,245.0156 146.4844,245.0156 C146.2656,245.0156 146.0313,244.9063 145.8906,244.7656 C145.75,244.6406 145.7188,244.5156 145.6563,244.1094 C145.5625,243.7031 145.3906,243.4844 144.9063,243.2031 C144.4375,242.9531 143.8281,242.7969 143.25,242.7969 C141.5156,242.7969 140.2656,244.1094 140.2656,245.8906 L140.2656,246.9844 C140.2656,248.6875 141.5625,249.7813 143.6094,249.7813 C144.375,249.7813 145.0625,249.6563 145.4844,249.3906 C145.6719,249.2969 145.6719,249.2969 146.125,248.8125 C146.3125,248.625 146.5156,248.5469 146.7344,248.5469 C147.2031,248.5469 147.5938,248.9375 147.5938,249.3906 C147.5938,249.7813 147.2656,250.2344 146.6875,250.6406 C145.9375,251.1875 144.7813,251.4844 143.5625,251.4844 C140.6719,251.4844 138.5625,249.5938 138.5625,247.0156 L138.5625,245.8906 C138.5625,243.1719 140.5625,241.0938 143.1875,241.0938 C144.0625,241.0938 144.6563,241.2344 145.5938,241.6719 Z "/><text fill="#000000" font-family="sans-serif" font-size="12" lengthAdjust="spacingAndGlyphs" textLength="141" x="163.75" y="250.1543">RouteRegistryInitializer</text><line style="stroke: #A80036; stroke-width: 1.5;" x1="63" x2="373" y1="262" y2="262"/><ellipse cx="73" cy="273.9023" fill="#84BE84" rx="3" ry="3" style="stroke: #038048; stroke-width: 1.0;"/><text fill="#000000" font-family="sans-serif" font-size="11" lengthAdjust="spacingAndGlyphs" textLength="286" x="82" y="276.2104">onStartup(c: Set&lt;Class&lt;?&gt;&gt;, ctx: ServletContext)</text><!--class ServletContainerInitializer--><rect fill="#FEFECE" filter="url(#f1ojs4uznz3l4x)" height="52.8047" id="ServletContainerInitializer" style="stroke: #A80036; stroke-width: 1.5;" width="310" x="63" y="59"/><ellipse cx="133.75" cy="75" fill="#B4A7E5" rx="11" ry="11" style="stroke: #A80036; stroke-width: 1.0;"/><path d="M134.7031,71.7813 L134.7031,78.2969 L136.4219,78.2969 C136.875,78.2969 137.0156,78.3281 137.1875,78.4531 C137.4219,78.625 137.5313,78.875 137.5313,79.1563 C137.5313,79.7188 137.1719,80 136.4219,80 L131.2813,80 C130.875,80 130.6719,79.9531 130.5156,79.8281 C130.2969,79.6719 130.1563,79.4063 130.1563,79.1563 C130.1563,78.8594 130.3125,78.5781 130.5625,78.4219 C130.7188,78.3125 130.8438,78.2969 131.2813,78.2969 L133,78.2969 L133,71.7813 L131.2813,71.7813 C130.8594,71.7813 130.6719,71.75 130.5156,71.6406 C130.2969,71.4688 130.1563,71.2188 130.1563,70.9375 C130.1563,70.6563 130.3125,70.3594 130.5625,70.2031 C130.7188,70.1094 130.8438,70.0938 131.2813,70.0938 L136.4219,70.0938 C136.875,70.0938 137.0156,70.125 137.1875,70.2344 C137.4219,70.4063 137.5313,70.6719 137.5313,70.9375 C137.5313,71.2344 137.3906,71.5156 137.125,71.6719 C137,71.75 136.8125,71.7813 136.4219,71.7813 Z "/><text fill="#000000" font-family="sans-serif" font-size="12" font-style="italic" lengthAdjust="spacingAndGlyphs" textLength="160" x="154.25" y="79.1543">ServletContainerInitializer</text><line style="stroke: #A80036; stroke-width: 1.5;" x1="64" x2="372" y1="91" y2="91"/><ellipse cx="74" cy="102.9023" fill="#84BE84" rx="3" ry="3" style="stroke: #038048; stroke-width: 1.0;"/><text fill="#000000" font-family="sans-serif" font-size="11" font-style="italic" lengthAdjust="spacingAndGlyphs" textLength="284" x="83" y="105.2104">onStartup(c: Set&lt;Class&lt;?&gt;&gt;, ctx: ServletContext)</text><!--link Component to UI--><path d="M912,292.976 C912,311.119 912,332.794 912,349.305 " fill="none" id="Component-UI" style="stroke: #A80036; stroke-width: 1.0;"/><polygon fill="none" points="905,292.861,912,272.861,919,292.861,905,292.861" style="stroke: #A80036; stroke-width: 1.0;"/><!--link RouterLayout to UI--><path d="M747.795,282.684 C782.814,302.372 831.295,329.627 866.494,349.417 " fill="none" id="RouterLayout-UI" style="stroke: #A80036; stroke-width: 1.0; stroke-dasharray: 7.0,7.0;"/><polygon fill="none" points="743.899,288.524,729.895,272.621,750.759,276.32,743.899,288.524" style="stroke: #A80036; stroke-width: 1.0;"/><!--link Router to UI--><path d="M588.522,276.456 C598.637,286.934 612.413,299.342 627,307 C688.086,339.069 710.892,326.987 778,343 C791.028,346.109 804.769,349.389 818.287,352.616 " fill="none" id="Router-UI" style="stroke: #A80036; stroke-width: 1.0;"/><polygon fill="#A80036" points="584.966,272.696,588.242,281.9841,588.4008,276.3294,594.0555,276.4883,584.966,272.696" style="stroke: #A80036; stroke-width: 1.0;"/><text fill="#000000" font-family="sans-serif" font-size="13" lengthAdjust="spacingAndGlyphs" textLength="8" x="579.936" y="292.6342">1</text><!--link ServletContainerInitializer to RouteRegistryInitializer--><path d="M218,132.584 C218,163.886 218,204.123 218,229.868 " fill="none" id="ServletContainerInitializer-RouteRegistryInitializer" style="stroke: #A80036; stroke-width: 1.0; stroke-dasharray: 7.0,7.0;"/><polygon fill="none" points="211,132.167,218,112.167,225,132.167,211,132.167" style="stroke: #A80036; stroke-width: 1.0;"/><!--link RouteRegistryInitializer to RouteRegistry--><path d="M295.249,283.141 C346.594,300.183 414.566,322.744 470.296,341.242 " fill="none" id="RouteRegistryInitializer-RouteRegistry" style="stroke: #A80036; stroke-width: 1.0; stroke-dasharray: 7.0,7.0;"/><polygon fill="#A80036" points="475.308,342.906,468.027,336.2738,470.5627,341.3304,465.5061,343.8662,475.308,342.906" style="stroke: #A80036; stroke-width: 1.0;"/><!--link RouteRegistryInitializer to Route--><path d="M374.305,256.5 C391.214,256.5 408.124,256.5 425.033,256.5 " fill="none" id="RouteRegistryInitializer-Route" style="stroke: #A80036; stroke-width: 1.0; stroke-dasharray: 7.0,7.0;"/><polygon fill="#A80036" points="430.281,256.5,421.281,252.5,425.281,256.5,421.281,260.5,430.281,256.5" style="stroke: #A80036; stroke-width: 1.0;"/><!--link Router to RouteRegistry--><path d="M572,272.861 C572,289.217 572,315.709 572,337.614 " fill="none" id="Router-RouteRegistry" style="stroke: #A80036; stroke-width: 1.0;"/><polygon fill="#A80036" points="572,342.786,576,333.786,572,337.786,568,333.786,572,342.786" style="stroke: #A80036; stroke-width: 1.0;"/><text fill="#000000" font-family="sans-serif" font-size="13" lengthAdjust="spacingAndGlyphs" textLength="8" x="563.2125" y="331.8889">1</text><!--link RouteRegistry to RouteData--><path d="M574.345,409.003 C575.537,425.281 577.014,445.435 578.351,463.687 " fill="none" id="RouteRegistry-RouteData" style="stroke: #A80036; stroke-width: 1.0;"/><polygon fill="#A80036" points="578.724,468.78,582.0551,459.5116,578.3583,463.7934,574.0765,460.0966,578.724,468.78" style="stroke: #A80036; stroke-width: 1.0;"/><text fill="#000000" font-family="sans-serif" font-size="13" lengthAdjust="spacingAndGlyphs" textLength="7" x="570.7288" y="458.0239">*</text><!--link Route to Router--><!--
@startuml
package "com.vaadin.flow" {
 package router {
  interface RouterLayout
  class RouteData {
   - parentLayout: Class<? extends RouterLayout>
   - url: String
   - parameters: List<Class<?>>
   - navigationTarget: Class<? extends Component>
  }
  class Router
  class RouteRegistry {
   + {static} getInstance(servletContext: ServletContext)
   + getRegisteredRoutes(): List<RouteData>
  }
  annotation Route
 }
 package component {
  class UI {
   # init(request: VaadinRequest)
  }
  abstract class Component
  UI -up-|> Component
 }
 package "server.startup" {
  class RouteRegistryInitializer {
   + onStartup(c: Set<Class<?>>, ctx: ServletContext)
  }
 }
}
package "javax.servlet" {
 interface ServletContainerInitializer {
  + {abstract} onStartup(c: Set<Class<?>>, ctx: ServletContext)
 }
}
UI .up.|> RouterLayout
UI -left-> "1" Router
RouteRegistryInitializer .up.|> ServletContainerInitializer
RouteRegistryInitializer .right.> RouteRegistry
RouteRegistryInitializer .right.> Route
Router -down-> "1" RouteRegistry
RouteRegistry -down-> "*" RouteData
Route -[hidden]right- Router
hide empty members
@enduml

PlantUML version 1.2018.08(Sun Jun 24 12:31:00 UTC 2018)
(GPL source distribution)
Java Runtime: Java(TM) SE Runtime Environment
JVM: Java HotSpot(TM) 64-Bit Server VM
Java Version: 1.7.0_25-b15
Operating System: Linux
Default Encoding: UTF-8
Language: en
Country: US
--></g></svg>