<?xml version="1.0" encoding="UTF-8" standalone="no"?>
<svg xmlns="http://www.w3.org/2000/svg" xmlns:xlink="http://www.w3.org/1999/xlink" contentScriptType="application/ecmascript" contentStyleType="text/css" height="694px" preserveAspectRatio="none" style="width:1014px;height:694px;" version="1.1" viewBox="0 0 1014 694" width="1014px" zoomAndPan="magnify"><defs><filter height="300%" id="f1cjz5gmw91s4x" width="300%" x="-1" y="-1"><feGaussianBlur result="blurOut" stdDeviation="2.0"/><feColorMatrix in="blurOut" result="blurOut2" type="matrix" values="0 0 0 0 0 0 0 0 0 0 0 0 0 0 0 0 0 0 .4 0"/><feOffset dx="4.0" dy="4.0" in="blurOut2" result="blurOut3"/><feBlend in="SourceGraphic" in2="blurOut3" mode="normal"/></filter></defs><g><!--cluster com.vaadin.flow--><polygon fill="#FFFFFF" filter="url(#f1cjz5gmw91s4x)" points="22,152,156,152,163,174.2969,992,174.2969,992,682,22,682,22,152" style="stroke: #000000; stroke-width: 1.5;"/><line style="stroke: #000000; stroke-width: 1.5;" x1="22" x2="163" y1="174.2969" y2="174.2969"/><text fill="#000000" font-family="sans-serif" font-size="14" font-weight="bold" lengthAdjust="spacingAndGlyphs" textLength="128" x="26" y="166.9951">com.vaadin.flow</text><!--cluster router--><polygon fill="#FFFFFF" filter="url(#f1cjz5gmw91s4x)" points="564,248.5,620,248.5,627,270.7969,968,270.7969,968,658,564,658,564,248.5" style="stroke: #000000; stroke-width: 1.5;"/><line style="stroke: #000000; stroke-width: 1.5;" x1="564" x2="627" y1="270.7969" y2="270.7969"/><text fill="#000000" font-family="sans-serif" font-size="14" font-weight="bold" lengthAdjust="spacingAndGlyphs" textLength="50" x="568" y="263.4951">router</text><!--cluster server--><polygon fill="#FFFFFF" filter="url(#f1cjz5gmw91s4x)" points="46,195,104,195,111,217.2969,540,217.2969,540,641,46,641,46,195" style="stroke: #000000; stroke-width: 1.5;"/><line style="stroke: #000000; stroke-width: 1.5;" x1="46" x2="111" y1="217.2969" y2="217.2969"/><text fill="#000000" font-family="sans-serif" font-size="14" font-weight="bold" lengthAdjust="spacingAndGlyphs" textLength="52" x="50" y="209.9951">server</text><!--cluster startup--><polygon fill="#FFFFFF" filter="url(#f1cjz5gmw91s4x)" points="146,238,209,238,216,260.2969,490,260.2969,490,342,146,342,146,238" style="stroke: #000000; stroke-width: 1.5;"/><line style="stroke: #000000; stroke-width: 1.5;" x1="146" x2="216" y1="260.2969" y2="260.2969"/><text fill="#000000" font-family="sans-serif" font-size="14" font-weight="bold" lengthAdjust="spacingAndGlyphs" textLength="57" x="150" y="252.9951">startup</text><!--cluster javax.servlet--><polygon fill="#FFFFFF" filter="url(#f1cjz5gmw91s4x)" points="147,24,253,24,260,46.2969,489,46.2969,489,128,147,128,147,24" style="stroke: #000000; stroke-width: 1.5;"/><line style="stroke: #000000; stroke-width: 1.5;" x1="147" x2="260" y1="46.2969" y2="46.2969"/><text fill="#000000" font-family="sans-serif" font-size="14" font-weight="bold" lengthAdjust="spacingAndGlyphs" textLength="100" x="151" y="38.9951">javax.servlet</text><!--class RouteData--><rect fill="#FEFECE" filter="url(#f1cjz5gmw91s4x)" height="104.0234" id="RouteData" style="stroke: #A80036; stroke-width: 1.5;" width="362" x="580" y="399"/><ellipse cx="723.25" cy="415" fill="#ADD1B2" rx="11" ry="11" style="stroke: #A80036; stroke-width: 1.0;"/><path d="M725.5938,410.6719 L725.7656,410.75 C725.9844,410.4375 726.1875,410.3438 726.4844,410.3438 C726.7813,410.3438 727.0625,410.4844 727.2188,410.75 C727.3125,410.9063 727.3281,411.0313 727.3281,411.4688 L727.3281,412.8906 C727.3281,413.3125 727.2969,413.5 727.1875,413.6563 C727.0156,413.875 726.75,414.0156 726.4844,414.0156 C726.2656,414.0156 726.0313,413.9063 725.8906,413.7656 C725.75,413.6406 725.7188,413.5156 725.6563,413.1094 C725.5625,412.7031 725.3906,412.4844 724.9063,412.2031 C724.4375,411.9531 723.8281,411.7969 723.25,411.7969 C721.5156,411.7969 720.2656,413.1094 720.2656,414.8906 L720.2656,415.9844 C720.2656,417.6875 721.5625,418.7813 723.6094,418.7813 C724.375,418.7813 725.0625,418.6563 725.4844,418.3906 C725.6719,418.2969 725.6719,418.2969 726.125,417.8125 C726.3125,417.625 726.5156,417.5469 726.7344,417.5469 C727.2031,417.5469 727.5938,417.9375 727.5938,418.3906 C727.5938,418.7813 727.2656,419.2344 726.6875,419.6406 C725.9375,420.1875 724.7813,420.4844 723.5625,420.4844 C720.6719,420.4844 718.5625,418.5938 718.5625,416.0156 L718.5625,414.8906 C718.5625,412.1719 720.5625,410.0938 723.1875,410.0938 C724.0625,410.0938 724.6563,410.2344 725.5938,410.6719 Z "/><text fill="#000000" font-family="sans-serif" font-size="12" lengthAdjust="spacingAndGlyphs" textLength="67" x="743.75" y="419.1543">RouteData</text><line style="stroke: #A80036; stroke-width: 1.5;" x1="581" x2="941" y1="431" y2="431"/><ellipse cx="591" cy="442.9023" fill="#84BE84" rx="3" ry="3" style="stroke: #038048; stroke-width: 1.0;"/><text fill="#000000" font-family="sans-serif" font-size="11" lengthAdjust="spacingAndGlyphs" textLength="304" x="600" y="445.2104">getNavigationTarget(): Class&lt;? extends Component&gt;</text><ellipse cx="591" cy="455.707" fill="#84BE84" rx="3" ry="3" style="stroke: #038048; stroke-width: 1.0;"/><text fill="#000000" font-family="sans-serif" font-size="11" lengthAdjust="spacingAndGlyphs" textLength="195" x="600" y="458.0151">getParameters(): List&lt;Class&lt;?&gt;&gt;</text><ellipse cx="591" cy="468.5117" fill="#84BE84" rx="3" ry="3" style="stroke: #038048; stroke-width: 1.0;"/><text fill="#000000" font-family="sans-serif" font-size="11" lengthAdjust="spacingAndGlyphs" textLength="291" x="600" y="470.8198">getParentLayout(): Class&lt;? extends RouterLayout&gt;</text><ellipse cx="591" cy="481.3164" fill="#84BE84" rx="3" ry="3" style="stroke: #038048; stroke-width: 1.0;"/><text fill="#000000" font-family="sans-serif" font-size="11" lengthAdjust="spacingAndGlyphs" textLength="336" x="600" y="483.6245">getParentLayouts(): List&lt;Class&lt;? extends RouterLayout&gt;&gt;</text><ellipse cx="591" cy="494.1211" fill="#84BE84" rx="3" ry="3" style="stroke: #038048; stroke-width: 1.0;"/><text fill="#000000" font-family="sans-serif" font-size="11" lengthAdjust="spacingAndGlyphs" textLength="84" x="600" y="496.4292">getUrl(): String</text><!--class Router--><rect fill="#FEFECE" filter="url(#f1cjz5gmw91s4x)" height="65.6094" id="Router" style="stroke: #A80036; stroke-width: 1.5;" width="372" x="580" y="576"/><ellipse cx="740.75" cy="592" fill="#ADD1B2" rx="11" ry="11" style="stroke: #A80036; stroke-width: 1.0;"/><path d="M743.0938,587.6719 L743.2656,587.75 C743.4844,587.4375 743.6875,587.3438 743.9844,587.3438 C744.2813,587.3438 744.5625,587.4844 744.7188,587.75 C744.8125,587.9063 744.8281,588.0313 744.8281,588.4688 L744.8281,589.8906 C744.8281,590.3125 744.7969,590.5 744.6875,590.6563 C744.5156,590.875 744.25,591.0156 743.9844,591.0156 C743.7656,591.0156 743.5313,590.9063 743.3906,590.7656 C743.25,590.6406 743.2188,590.5156 743.1563,590.1094 C743.0625,589.7031 742.8906,589.4844 742.4063,589.2031 C741.9375,588.9531 741.3281,588.7969 740.75,588.7969 C739.0156,588.7969 737.7656,590.1094 737.7656,591.8906 L737.7656,592.9844 C737.7656,594.6875 739.0625,595.7813 741.1094,595.7813 C741.875,595.7813 742.5625,595.6563 742.9844,595.3906 C743.1719,595.2969 743.1719,595.2969 743.625,594.8125 C743.8125,594.625 744.0156,594.5469 744.2344,594.5469 C744.7031,594.5469 745.0938,594.9375 745.0938,595.3906 C745.0938,595.7813 744.7656,596.2344 744.1875,596.6406 C743.4375,597.1875 742.2813,597.4844 741.0625,597.4844 C738.1719,597.4844 736.0625,595.5938 736.0625,593.0156 L736.0625,591.8906 C736.0625,589.1719 738.0625,587.0938 740.6875,587.0938 C741.5625,587.0938 742.1563,587.2344 743.0938,587.6719 Z "/><text fill="#000000" font-family="sans-serif" font-size="12" lengthAdjust="spacingAndGlyphs" textLength="42" x="761.25" y="596.1543">Router</text><line style="stroke: #A80036; stroke-width: 1.5;" x1="581" x2="951" y1="608" y2="608"/><ellipse cx="591" cy="619.9023" fill="#84BE84" rx="3" ry="3" style="stroke: #038048; stroke-width: 1.0;"/><text fill="#000000" font-family="sans-serif" font-size="11" lengthAdjust="spacingAndGlyphs" textLength="256" x="600" y="622.2104">initializeUI(ui: UI, initRequest: VaadinRequest)</text><ellipse cx="591" cy="632.707" fill="#84BE84" rx="3" ry="3" style="stroke: #038048; stroke-width: 1.0;"/><text fill="#000000" font-family="sans-serif" font-size="11" lengthAdjust="spacingAndGlyphs" textLength="346" x="600" y="635.0151">navigate(ui: UI, location: Location, trigger: NavigationTrigger)</text><!--class Route--><rect fill="#FEFECE" filter="url(#f1cjz5gmw91s4x)" height="32" id="Route" style="stroke: #A80036; stroke-width: 1.5;" width="69" x="653.5" y="283.5"/><ellipse cx="668.5" cy="299.5" fill="#E3664A" rx="11" ry="11" style="stroke: #A80036; stroke-width: 1.0;"/><path d="M670.4219,296.75 L670.4219,296.2031 C670.4219,295.0781 669.6875,294.2969 668.6406,294.2969 C667.2031,294.2969 666.1406,295.9375 666.1406,298.1094 L666.1406,300.7656 C666.1406,302.0625 666.4219,303.1094 667,303.9063 C667.4063,304.5 667.9375,304.7656 668.6875,304.7656 C669.4375,304.7656 670.1094,304.5469 670.4375,304.2188 C670.6719,303.9688 670.7656,303.9219 670.9688,303.9219 C671.3438,303.9219 671.6406,304.2344 671.6406,304.625 C671.6406,305.4219 670.25,306.0781 668.6406,306.0781 C667.2344,306.0781 666.3125,305.5156 665.5938,304.2656 C665.0781,303.3438 664.7969,302.125 664.7969,300.875 L664.7969,298.0156 C664.7969,295.0781 666.4063,292.9531 668.6094,292.9531 C670.4531,292.9531 671.7656,294.3125 671.7656,296.2031 L671.7656,300.9844 C672.0313,301.1094 672.1563,301.2969 672.1563,301.5781 C672.1563,302.0625 671.8438,302.2813 671.2188,302.2813 L670.4219,302.2813 L670.4219,302.2188 C670.1563,302.2656 670.0156,302.2813 669.8594,302.2813 C668.4063,302.2813 667.2031,301.0625 667.2031,299.6563 C667.2031,298.0781 668.5156,296.8906 670.4219,296.75 Z M670.4219,300.8594 L670.4219,298.125 C669.2969,298.2344 668.5469,298.8438 668.5469,299.6719 C668.5469,300.375 669.1563,300.9063 669.9844,300.9063 C670.0938,300.9063 670.1875,300.9063 670.4219,300.8594 Z "/><text fill="#000000" font-family="sans-serif" font-size="12" lengthAdjust="spacingAndGlyphs" textLength="37" x="682.5" y="303.6543">Route</text><!--class RouteRegistry--><rect fill="#FEFECE" filter="url(#f1cjz5gmw91s4x)" height="129.6328" id="RouteRegistry" style="stroke: #A80036; stroke-width: 1.5;" width="461" x="62.5" y="386"/><ellipse cx="245.25" cy="402" fill="#B4A7E5" rx="11" ry="11" style="stroke: #A80036; stroke-width: 1.0;"/><path d="M246.2031,398.7813 L246.2031,405.2969 L247.9219,405.2969 C248.375,405.2969 248.5156,405.3281 248.6875,405.4531 C248.9219,405.625 249.0313,405.875 249.0313,406.1563 C249.0313,406.7188 248.6719,407 247.9219,407 L242.7813,407 C242.375,407 242.1719,406.9531 242.0156,406.8281 C241.7969,406.6719 241.6563,406.4063 241.6563,406.1563 C241.6563,405.8594 241.8125,405.5781 242.0625,405.4219 C242.2188,405.3125 242.3438,405.2969 242.7813,405.2969 L244.5,405.2969 L244.5,398.7813 L242.7813,398.7813 C242.3594,398.7813 242.1719,398.75 242.0156,398.6406 C241.7969,398.4688 241.6563,398.2188 241.6563,397.9375 C241.6563,397.6563 241.8125,397.3594 242.0625,397.2031 C242.2188,397.1094 242.3438,397.0938 242.7813,397.0938 L247.9219,397.0938 C248.375,397.0938 248.5156,397.125 248.6875,397.2344 C248.9219,397.4063 249.0313,397.6719 249.0313,397.9375 C249.0313,398.2344 248.8906,398.5156 248.625,398.6719 C248.5,398.75 248.3125,398.7813 247.9219,398.7813 Z "/><text fill="#000000" font-family="sans-serif" font-size="12" font-style="italic" lengthAdjust="spacingAndGlyphs" textLength="87" x="265.75" y="406.1543">RouteRegistry</text><line style="stroke: #A80036; stroke-width: 1.5;" x1="63.5" x2="522.5" y1="418" y2="418"/><ellipse cx="73.5" cy="429.9023" fill="#84BE84" rx="3" ry="3" style="stroke: #038048; stroke-width: 1.0;"/><text fill="#000000" font-family="sans-serif" font-size="11" font-style="italic" lengthAdjust="spacingAndGlyphs" textLength="230" x="82.5" y="432.2104">getRegisteredRoutes(): List&lt;RouteData&gt;</text><ellipse cx="73.5" cy="442.707" fill="#84BE84" rx="3" ry="3" style="stroke: #038048; stroke-width: 1.0;"/><text fill="#000000" font-family="sans-serif" font-size="11" font-style="italic" lengthAdjust="spacingAndGlyphs" textLength="361" x="82.5" y="445.0151">removeRoute(navigationTarget: Class&lt;? extends Component&gt;)</text><ellipse cx="73.5" cy="455.5117" fill="#84BE84" rx="3" ry="3" style="stroke: #038048; stroke-width: 1.0;"/><text fill="#000000" font-family="sans-serif" font-size="11" font-style="italic" lengthAdjust="spacingAndGlyphs" textLength="151" x="82.5" y="457.8198">removeRoute(path: String)</text><ellipse cx="73.5" cy="468.3164" fill="#84BE84" rx="3" ry="3" style="stroke: #038048; stroke-width: 1.0;"/><text fill="#000000" font-family="sans-serif" font-size="11" font-style="italic" lengthAdjust="spacingAndGlyphs" textLength="435" x="82.5" y="470.6245">removeRoute(path: String, navigationTarget: Class&lt;? extends Component&gt;)</text><ellipse cx="73.5" cy="481.1211" fill="#84BE84" rx="3" ry="3" style="stroke: #038048; stroke-width: 1.0;"/><text fill="#000000" font-family="sans-serif" font-size="11" font-style="italic" lengthAdjust="spacingAndGlyphs" textLength="38" x="82.5" y="483.4292">clean()</text><ellipse cx="73.5" cy="500.3281" fill="#84BE84" rx="3" ry="3" style="stroke: #038048; stroke-width: 1.0;"/><text fill="#000000" font-family="sans-serif" font-size="11" font-style="italic" lengthAdjust="spacingAndGlyphs" textLength="408" x="82.5" y="496.2339">setRoute(path: String, navigationTarget: Class&lt;? extends Component&gt;,</text><text fill="#000000" font-family="sans-serif" font-size="11" font-style="italic" lengthAdjust="spacingAndGlyphs" textLength="301" x="114.5" y="509.0386">parentChain: List&lt;Class&lt;? extends RouterLayout&gt;&gt;)</text><!--class SessionRouteRegistry--><rect fill="#FEFECE" filter="url(#f1cjz5gmw91s4x)" height="32" id="SessionRouteRegistry" style="stroke: #A80036; stroke-width: 1.5;" width="168" x="97" y="593"/><ellipse cx="112" cy="609" fill="#ADD1B2" rx="11" ry="11" style="stroke: #A80036; stroke-width: 1.0;"/><path d="M114.3438,604.6719 L114.5156,604.75 C114.7344,604.4375 114.9375,604.3438 115.2344,604.3438 C115.5313,604.3438 115.8125,604.4844 115.9688,604.75 C116.0625,604.9063 116.0781,605.0313 116.0781,605.4688 L116.0781,606.8906 C116.0781,607.3125 116.0469,607.5 115.9375,607.6563 C115.7656,607.875 115.5,608.0156 115.2344,608.0156 C115.0156,608.0156 114.7813,607.9063 114.6406,607.7656 C114.5,607.6406 114.4688,607.5156 114.4063,607.1094 C114.3125,606.7031 114.1406,606.4844 113.6563,606.2031 C113.1875,605.9531 112.5781,605.7969 112,605.7969 C110.2656,605.7969 109.0156,607.1094 109.0156,608.8906 L109.0156,609.9844 C109.0156,611.6875 110.3125,612.7813 112.3594,612.7813 C113.125,612.7813 113.8125,612.6563 114.2344,612.3906 C114.4219,612.2969 114.4219,612.2969 114.875,611.8125 C115.0625,611.625 115.2656,611.5469 115.4844,611.5469 C115.9531,611.5469 116.3438,611.9375 116.3438,612.3906 C116.3438,612.7813 116.0156,613.2344 115.4375,613.6406 C114.6875,614.1875 113.5313,614.4844 112.3125,614.4844 C109.4219,614.4844 107.3125,612.5938 107.3125,610.0156 L107.3125,608.8906 C107.3125,606.1719 109.3125,604.0938 111.9375,604.0938 C112.8125,604.0938 113.4063,604.2344 114.3438,604.6719 Z "/><text fill="#000000" font-family="sans-serif" font-size="12" lengthAdjust="spacingAndGlyphs" textLength="136" x="126" y="613.1543">SessionRouteRegistry</text><!--class ApplicationRouteRegistry--><rect fill="#FEFECE" filter="url(#f1cjz5gmw91s4x)" height="32" id="ApplicationRouteRegistry" style="stroke: #A80036; stroke-width: 1.5;" width="188" x="300" y="593"/><ellipse cx="315" cy="609" fill="#ADD1B2" rx="11" ry="11" style="stroke: #A80036; stroke-width: 1.0;"/><path d="M317.3438,604.6719 L317.5156,604.75 C317.7344,604.4375 317.9375,604.3438 318.2344,604.3438 C318.5313,604.3438 318.8125,604.4844 318.9688,604.75 C319.0625,604.9063 319.0781,605.0313 319.0781,605.4688 L319.0781,606.8906 C319.0781,607.3125 319.0469,607.5 318.9375,607.6563 C318.7656,607.875 318.5,608.0156 318.2344,608.0156 C318.0156,608.0156 317.7813,607.9063 317.6406,607.7656 C317.5,607.6406 317.4688,607.5156 317.4063,607.1094 C317.3125,606.7031 317.1406,606.4844 316.6563,606.2031 C316.1875,605.9531 315.5781,605.7969 315,605.7969 C313.2656,605.7969 312.0156,607.1094 312.0156,608.8906 L312.0156,609.9844 C312.0156,611.6875 313.3125,612.7813 315.3594,612.7813 C316.125,612.7813 316.8125,612.6563 317.2344,612.3906 C317.4219,612.2969 317.4219,612.2969 317.875,611.8125 C318.0625,611.625 318.2656,611.5469 318.4844,611.5469 C318.9531,611.5469 319.3438,611.9375 319.3438,612.3906 C319.3438,612.7813 319.0156,613.2344 318.4375,613.6406 C317.6875,614.1875 316.5313,614.4844 315.3125,614.4844 C312.4219,614.4844 310.3125,612.5938 310.3125,610.0156 L310.3125,608.8906 C310.3125,606.1719 312.3125,604.0938 314.9375,604.0938 C315.8125,604.0938 316.4063,604.2344 317.3438,604.6719 Z "/><text fill="#000000" font-family="sans-serif" font-size="12" lengthAdjust="spacingAndGlyphs" textLength="156" x="329" y="613.1543">ApplicationRouteRegistry</text><!--class RouteRegistryInitializer--><rect fill="#FEFECE" filter="url(#f1cjz5gmw91s4x)" height="52.8047" id="RouteRegistryInitializer" style="stroke: #A80036; stroke-width: 1.5;" width="312" x="162" y="273"/><ellipse cx="243.25" cy="289" fill="#ADD1B2" rx="11" ry="11" style="stroke: #A80036; stroke-width: 1.0;"/><path d="M245.5938,284.6719 L245.7656,284.75 C245.9844,284.4375 246.1875,284.3438 246.4844,284.3438 C246.7813,284.3438 247.0625,284.4844 247.2188,284.75 C247.3125,284.9063 247.3281,285.0313 247.3281,285.4688 L247.3281,286.8906 C247.3281,287.3125 247.2969,287.5 247.1875,287.6563 C247.0156,287.875 246.75,288.0156 246.4844,288.0156 C246.2656,288.0156 246.0313,287.9063 245.8906,287.7656 C245.75,287.6406 245.7188,287.5156 245.6563,287.1094 C245.5625,286.7031 245.3906,286.4844 244.9063,286.2031 C244.4375,285.9531 243.8281,285.7969 243.25,285.7969 C241.5156,285.7969 240.2656,287.1094 240.2656,288.8906 L240.2656,289.9844 C240.2656,291.6875 241.5625,292.7813 243.6094,292.7813 C244.375,292.7813 245.0625,292.6563 245.4844,292.3906 C245.6719,292.2969 245.6719,292.2969 246.125,291.8125 C246.3125,291.625 246.5156,291.5469 246.7344,291.5469 C247.2031,291.5469 247.5938,291.9375 247.5938,292.3906 C247.5938,292.7813 247.2656,293.2344 246.6875,293.6406 C245.9375,294.1875 244.7813,294.4844 243.5625,294.4844 C240.6719,294.4844 238.5625,292.5938 238.5625,290.0156 L238.5625,288.8906 C238.5625,286.1719 240.5625,284.0938 243.1875,284.0938 C244.0625,284.0938 244.6563,284.2344 245.5938,284.6719 Z "/><text fill="#000000" font-family="sans-serif" font-size="12" lengthAdjust="spacingAndGlyphs" textLength="141" x="263.75" y="293.1543">RouteRegistryInitializer</text><line style="stroke: #A80036; stroke-width: 1.5;" x1="163" x2="473" y1="305" y2="305"/><ellipse cx="173" cy="316.9023" fill="#84BE84" rx="3" ry="3" style="stroke: #038048; stroke-width: 1.0;"/><text fill="#000000" font-family="sans-serif" font-size="11" lengthAdjust="spacingAndGlyphs" textLength="286" x="182" y="319.2104">onStartup(c: Set&lt;Class&lt;?&gt;&gt;, ctx: ServletContext)</text><!--class ServletContainerInitializer--><rect fill="#FEFECE" filter="url(#f1cjz5gmw91s4x)" height="52.8047" id="ServletContainerInitializer" style="stroke: #A80036; stroke-width: 1.5;" width="310" x="163" y="59"/><ellipse cx="233.75" cy="75" fill="#B4A7E5" rx="11" ry="11" style="stroke: #A80036; stroke-width: 1.0;"/><path d="M234.7031,71.7813 L234.7031,78.2969 L236.4219,78.2969 C236.875,78.2969 237.0156,78.3281 237.1875,78.4531 C237.4219,78.625 237.5313,78.875 237.5313,79.1563 C237.5313,79.7188 237.1719,80 236.4219,80 L231.2813,80 C230.875,80 230.6719,79.9531 230.5156,79.8281 C230.2969,79.6719 230.1563,79.4063 230.1563,79.1563 C230.1563,78.8594 230.3125,78.5781 230.5625,78.4219 C230.7188,78.3125 230.8438,78.2969 231.2813,78.2969 L233,78.2969 L233,71.7813 L231.2813,71.7813 C230.8594,71.7813 230.6719,71.75 230.5156,71.6406 C230.2969,71.4688 230.1563,71.2188 230.1563,70.9375 C230.1563,70.6563 230.3125,70.3594 230.5625,70.2031 C230.7188,70.1094 230.8438,70.0938 231.2813,70.0938 L236.4219,70.0938 C236.875,70.0938 237.0156,70.125 237.1875,70.2344 C237.4219,70.4063 237.5313,70.6719 237.5313,70.9375 C237.5313,71.2344 237.3906,71.5156 237.125,71.6719 C237,71.75 236.8125,71.7813 236.4219,71.7813 Z "/><text fill="#000000" font-family="sans-serif" font-size="12" font-style="italic" lengthAdjust="spacingAndGlyphs" textLength="160" x="254.25" y="79.1543">ServletContainerInitializer</text><line style="stroke: #A80036; stroke-width: 1.5;" x1="164" x2="472" y1="91" y2="91"/><ellipse cx="174" cy="102.9023" fill="#84BE84" rx="3" ry="3" style="stroke: #038048; stroke-width: 1.0;"/><text fill="#000000" font-family="sans-serif" font-size="11" font-style="italic" lengthAdjust="spacingAndGlyphs" textLength="284" x="183" y="105.2104">onStartup(c: Set&lt;Class&lt;?&gt;&gt;, ctx: ServletContext)</text><!--link ServletContainerInitializer to RouteRegistryInitializer--><path d="M318,132.213 C318,175.202 318,238.01 318,272.837 " fill="none" id="ServletContainerInitializer-RouteRegistryInitializer" style="stroke: #A80036; stroke-width: 1.0; stroke-dasharray: 7.0,7.0;"/><polygon fill="none" points="311,132.072,318,112.072,325,132.072,311,132.072" style="stroke: #A80036; stroke-width: 1.0;"/><!--link RouteRegistryInitializer to RouteRegistry--><path d="M313.702,326.2 C311.167,341.362 307.826,361.343 304.569,380.818 " fill="none" id="RouteRegistryInitializer-RouteRegistry" style="stroke: #A80036; stroke-width: 1.0; stroke-dasharray: 7.0,7.0;"/><polygon fill="#A80036" points="303.743,385.756,309.1743,377.5401,304.5687,380.8246,301.2842,376.219,303.743,385.756" style="stroke: #A80036; stroke-width: 1.0;"/><!--link Route to RouteRegistryInitializer--><path d="M648.073,299.5 C590.08,299.5 532.087,299.5 474.094,299.5 " fill="none" id="Route-RouteRegistryInitializer" style="stroke: #A80036; stroke-width: 1.0; stroke-dasharray: 7.0,7.0;"/><polygon fill="#A80036" points="653.324,299.5,644.324,295.5,648.324,299.5,644.324,303.5,653.324,299.5" style="stroke: #A80036; stroke-width: 1.0;"/><!--link RouteRegistry to SessionRouteRegistry--><path d="M235.056,532.707 C218.466,555.815 202.104,578.606 191.803,592.954 " fill="none" id="RouteRegistry-SessionRouteRegistry" style="stroke: #A80036; stroke-width: 1.0; stroke-dasharray: 7.0,7.0;"/><polygon fill="none" points="229.448,528.516,246.799,516.352,240.821,536.681,229.448,528.516" style="stroke: #A80036; stroke-width: 1.0;"/><!--link RouteRegistry to ApplicationRouteRegistry--><path d="M345.686,533.377 C360.498,556.255 375.059,578.744 384.258,592.954 " fill="none" id="RouteRegistry-ApplicationRouteRegistry" style="stroke: #A80036; stroke-width: 1.0; stroke-dasharray: 7.0,7.0;"/><polygon fill="none" points="339.657,536.945,334.664,516.352,351.409,529.336,339.657,536.945" style="stroke: #A80036; stroke-width: 1.0;"/><!--link Router to RouteRegistry--><path d="M668.848,575.958 C617.711,559.093 553.065,537.772 491.869,517.589 " fill="none" id="Router-RouteRegistry" style="stroke: #A80036; stroke-width: 1.0;"/><polygon fill="#A80036" points="487.093,516.014,494.3878,522.6311,491.8415,517.5797,496.8929,515.0334,487.093,516.014" style="stroke: #A80036; stroke-width: 1.0;"/><text fill="#000000" font-family="sans-serif" font-size="13" lengthAdjust="spacingAndGlyphs" textLength="8" x="498.6963" y="535.5847">1</text><!--link RouteRegistry to RouteData--><path d="M523.801,451 C540.735,451 557.668,451 574.602,451 " fill="none" id="RouteRegistry-RouteData" style="stroke: #A80036; stroke-width: 1.0;"/><polygon fill="#A80036" points="579.858,451,570.858,447,574.858,451,570.858,455,579.858,451" style="stroke: #A80036; stroke-width: 1.0;"/><text fill="#000000" font-family="sans-serif" font-size="13" lengthAdjust="spacingAndGlyphs" textLength="7" x="565.0684" y="447.7528">*</text><!--link RouteData to Router--><!--link Route to RouteData--><!--
@startuml
package com.vaadin.flow {
 package router {
  class RouteData {
   + getNavigationTarget(): Class<? extends Component>
   + getParameters(): List<Class<?>>
   + getParentLayout(): Class<? extends RouterLayout>
   + getParentLayouts(): List<Class<? extends RouterLayout>>
   + getUrl(): String
  }
  class Router {
   + initializeUI(ui: UI, initRequest: VaadinRequest)
   + navigate(ui: UI, location: Location, trigger: NavigationTrigger)
  }
  annotation Route
 }
 package server {
  interface RouteRegistry {
   +{abstract} getRegisteredRoutes(): List<RouteData>
   +{abstract} removeRoute(navigationTarget: Class<? extends Component>)
   +{abstract} removeRoute(path: String)
   +{abstract} removeRoute(path: String, navigationTarget: Class<? extends Component>)
   +{abstract} clean()
   +{abstract} setRoute(path: String, navigationTarget: Class<? extends Component>,\n\tparentChain: List<Class<? extends RouterLayout>>)
  }
  class SessionRouteRegistry
  class ApplicationRouteRegistry
  package startup {
   class RouteRegistryInitializer {
    + onStartup(c: Set<Class<?>>, ctx: ServletContext)
   }
  }
 }
}
package javax.servlet {
 interface ServletContainerInitializer {
  + {abstract} onStartup(c: Set<Class<?>>, ctx: ServletContext)
 }
}

RouteRegistryInitializer .up.|> ServletContainerInitializer
RouteRegistryInitializer ..> RouteRegistry
RouteRegistryInitializer .left.> Route

SessionRouteRegistry .up.|> RouteRegistry
ApplicationRouteRegistry .up.|> RouteRegistry

Router - -> "1" RouteRegistry
RouteRegistry - -> "*" RouteData

Router -[hidden]up- RouteData
RouteData -[hidden]up- Route

hide empty members
@enduml

PlantUML version 1.2019.08(Sat Jul 13 19:25:14 UTC 2019)
(GPL source distribution)
Java Runtime: Java(TM) SE Runtime Environment
JVM: Java HotSpot(TM) 64-Bit Server VM
Java Version: 1.7.0_25-b15
Operating System: Linux
Default Encoding: UTF-8
Language: en
Country: US
--></g></svg>