<?xml version="1.0" encoding="UTF-8" standalone="no"?>
<svg xmlns="http://www.w3.org/2000/svg" xmlns:xlink="http://www.w3.org/1999/xlink" contentScriptType="application/ecmascript" contentStyleType="text/css" height="647px" preserveAspectRatio="none" style="width:1088px;height:647px;" version="1.1" viewBox="0 0 1088 647" width="1088px" zoomAndPan="magnify"><defs><filter height="300%" id="f60xjbxz7p43m" width="300%" x="-1" y="-1"><feGaussianBlur result="blurOut" stdDeviation="2.0"/><feColorMatrix in="blurOut" result="blurOut2" type="matrix" values="0 0 0 0 0 0 0 0 0 0 0 0 0 0 0 0 0 0 .4 0"/><feOffset dx="4.0" dy="4.0" in="blurOut2" result="blurOut3"/><feBlend in="SourceGraphic" in2="blurOut3" mode="normal"/></filter></defs><g><!--cluster com.vaadin.flow--><polygon fill="#FFFFFF" filter="url(#f60xjbxz7p43m)" points="22,24,156,24,163,46.2969,1066,46.2969,1066,635,22,635,22,24" style="stroke: #000000; stroke-width: 1.5;"/><line style="stroke: #000000; stroke-width: 1.5;" x1="22" x2="163" y1="46.2969" y2="46.2969"/><text fill="#000000" font-family="sans-serif" font-size="14" font-weight="bold" lengthAdjust="spacingAndGlyphs" textLength="128" x="26" y="38.9951">com.vaadin.flow</text><!--cluster router--><polygon fill="#FFFFFF" filter="url(#f60xjbxz7p43m)" points="46,392,102,392,109,414.2969,1042,414.2969,1042,611,46,611,46,392" style="stroke: #000000; stroke-width: 1.5;"/><line style="stroke: #000000; stroke-width: 1.5;" x1="46" x2="109" y1="414.2969" y2="414.2969"/><text fill="#000000" font-family="sans-serif" font-size="14" font-weight="bold" lengthAdjust="spacingAndGlyphs" textLength="50" x="50" y="406.9951">router</text><!--cluster component--><polygon fill="#FFFFFF" filter="url(#f60xjbxz7p43m)" points="130,67,225,67,232,89.2969,592,89.2969,592,368,130,368,130,67" style="stroke: #000000; stroke-width: 1.5;"/><line style="stroke: #000000; stroke-width: 1.5;" x1="130" x2="232" y1="89.2969" y2="89.2969"/><text fill="#000000" font-family="sans-serif" font-size="14" font-weight="bold" lengthAdjust="spacingAndGlyphs" textLength="89" x="134" y="81.9951">component</text><!--class RouterLink--><rect fill="#FEFECE" filter="url(#f60xjbxz7p43m)" height="168.0469" id="RouterLink" style="stroke: #A80036; stroke-width: 1.5;" width="555" x="62.5" y="427"/><ellipse cx="302.75" cy="443" fill="#ADD1B2" rx="11" ry="11" style="stroke: #A80036; stroke-width: 1.0;"/><path d="M305.0938,438.6719 L305.2656,438.75 C305.4844,438.4375 305.6875,438.3438 305.9844,438.3438 C306.2813,438.3438 306.5625,438.4844 306.7188,438.75 C306.8125,438.9063 306.8281,439.0313 306.8281,439.4688 L306.8281,440.8906 C306.8281,441.3125 306.7969,441.5 306.6875,441.6563 C306.5156,441.875 306.25,442.0156 305.9844,442.0156 C305.7656,442.0156 305.5313,441.9063 305.3906,441.7656 C305.25,441.6406 305.2188,441.5156 305.1563,441.1094 C305.0625,440.7031 304.8906,440.4844 304.4063,440.2031 C303.9375,439.9531 303.3281,439.7969 302.75,439.7969 C301.0156,439.7969 299.7656,441.1094 299.7656,442.8906 L299.7656,443.9844 C299.7656,445.6875 301.0625,446.7813 303.1094,446.7813 C303.875,446.7813 304.5625,446.6563 304.9844,446.3906 C305.1719,446.2969 305.1719,446.2969 305.625,445.8125 C305.8125,445.625 306.0156,445.5469 306.2344,445.5469 C306.7031,445.5469 307.0938,445.9375 307.0938,446.3906 C307.0938,446.7813 306.7656,447.2344 306.1875,447.6406 C305.4375,448.1875 304.2813,448.4844 303.0625,448.4844 C300.1719,448.4844 298.0625,446.5938 298.0625,444.0156 L298.0625,442.8906 C298.0625,440.1719 300.0625,438.0938 302.6875,438.0938 C303.5625,438.0938 304.1563,438.2344 305.0938,438.6719 Z "/><text fill="#000000" font-family="sans-serif" font-size="12" lengthAdjust="spacingAndGlyphs" textLength="66" x="323.25" y="447.1543">RouterLink</text><line style="stroke: #A80036; stroke-width: 1.5;" x1="63.5" x2="616.5" y1="459" y2="459"/><ellipse cx="73.5" cy="470.9023" fill="#84BE84" rx="3" ry="3" style="stroke: #038048; stroke-width: 1.0;"/><text fill="#000000" font-family="sans-serif" font-size="11" lengthAdjust="spacingAndGlyphs" textLength="67" x="82.5" y="473.2104">RouterLink()</text><ellipse cx="73.5" cy="483.707" fill="#84BE84" rx="3" ry="3" style="stroke: #038048; stroke-width: 1.0;"/><text fill="#000000" font-family="sans-serif" font-size="11" lengthAdjust="spacingAndGlyphs" textLength="529" x="82.5" y="486.0151">RouterLink(router: Router, text: String, navigationTarget: Class&lt;? extends C&gt;, parameter: T)</text><ellipse cx="73.5" cy="496.5117" fill="#84BE84" rx="3" ry="3" style="stroke: #038048; stroke-width: 1.0;"/><text fill="#000000" font-family="sans-serif" font-size="11" lengthAdjust="spacingAndGlyphs" textLength="503" x="82.5" y="498.8198">RouterLink(router: Router, text: String, navigationTarget: Class&lt;? extends Component&gt;)</text><ellipse cx="73.5" cy="509.3164" fill="#84BE84" rx="3" ry="3" style="stroke: #038048; stroke-width: 1.0;"/><text fill="#000000" font-family="sans-serif" font-size="11" lengthAdjust="spacingAndGlyphs" textLength="441" x="82.5" y="511.6245">RouterLink(text: String, navigationTarget: Class&lt;? extends C&gt;, parameter: T)</text><ellipse cx="73.5" cy="522.1211" fill="#84BE84" rx="3" ry="3" style="stroke: #038048; stroke-width: 1.0;"/><text fill="#000000" font-family="sans-serif" font-size="11" lengthAdjust="spacingAndGlyphs" textLength="415" x="82.5" y="524.4292">RouterLink(text: String, navigationTarget: Class&lt;? extends Component&gt;)</text><ellipse cx="73.5" cy="534.9258" fill="#84BE84" rx="3" ry="3" style="stroke: #038048; stroke-width: 1.0;"/><text fill="#000000" font-family="sans-serif" font-size="11" lengthAdjust="spacingAndGlyphs" textLength="92" x="82.5" y="537.2339">getHref(): String</text><ellipse cx="73.5" cy="547.7305" fill="#84BE84" rx="3" ry="3" style="stroke: #038048; stroke-width: 1.0;"/><text fill="#000000" font-family="sans-serif" font-size="11" lengthAdjust="spacingAndGlyphs" textLength="301" x="82.5" y="550.0386">getQueryParameters(): Optional&lt;QueryParameters&gt;</text><ellipse cx="73.5" cy="560.5352" fill="#84BE84" rx="3" ry="3" style="stroke: #038048; stroke-width: 1.0;"/><text fill="#000000" font-family="sans-serif" font-size="11" lengthAdjust="spacingAndGlyphs" textLength="335" x="82.5" y="562.8433">setQueryParameters(queryParameters: QueryParameters)</text><ellipse cx="73.5" cy="573.3398" fill="#84BE84" rx="3" ry="3" style="stroke: #038048; stroke-width: 1.0;"/><text fill="#000000" font-family="sans-serif" font-size="11" lengthAdjust="spacingAndGlyphs" textLength="520" x="82.5" y="575.6479">setRoute(router: Router, text: String, navigationTarget: Class&lt;? extends C&gt;, parameter: T)</text><ellipse cx="73.5" cy="586.1445" fill="#84BE84" rx="3" ry="3" style="stroke: #038048; stroke-width: 1.0;"/><text fill="#000000" font-family="sans-serif" font-size="11" lengthAdjust="spacingAndGlyphs" textLength="494" x="82.5" y="588.4526">setRoute(router: Router, text: String, navigationTarget: Class&lt;? extends Component&gt;)</text><!--class QueryParameters--><rect fill="#FEFECE" filter="url(#f60xjbxz7p43m)" height="104.0234" id="QueryParameters" style="stroke: #A80036; stroke-width: 1.5;" width="373" x="652.5" y="459"/><ellipse cx="780.25" cy="475" fill="#ADD1B2" rx="11" ry="11" style="stroke: #A80036; stroke-width: 1.0;"/><path d="M782.5938,470.6719 L782.7656,470.75 C782.9844,470.4375 783.1875,470.3438 783.4844,470.3438 C783.7813,470.3438 784.0625,470.4844 784.2188,470.75 C784.3125,470.9063 784.3281,471.0313 784.3281,471.4688 L784.3281,472.8906 C784.3281,473.3125 784.2969,473.5 784.1875,473.6563 C784.0156,473.875 783.75,474.0156 783.4844,474.0156 C783.2656,474.0156 783.0313,473.9063 782.8906,473.7656 C782.75,473.6406 782.7188,473.5156 782.6563,473.1094 C782.5625,472.7031 782.3906,472.4844 781.9063,472.2031 C781.4375,471.9531 780.8281,471.7969 780.25,471.7969 C778.5156,471.7969 777.2656,473.1094 777.2656,474.8906 L777.2656,475.9844 C777.2656,477.6875 778.5625,478.7813 780.6094,478.7813 C781.375,478.7813 782.0625,478.6563 782.4844,478.3906 C782.6719,478.2969 782.6719,478.2969 783.125,477.8125 C783.3125,477.625 783.5156,477.5469 783.7344,477.5469 C784.2031,477.5469 784.5938,477.9375 784.5938,478.3906 C784.5938,478.7813 784.2656,479.2344 783.6875,479.6406 C782.9375,480.1875 781.7813,480.4844 780.5625,480.4844 C777.6719,480.4844 775.5625,478.5938 775.5625,476.0156 L775.5625,474.8906 C775.5625,472.1719 777.5625,470.0938 780.1875,470.0938 C781.0625,470.0938 781.6563,470.2344 782.5938,470.6719 Z "/><text fill="#000000" font-family="sans-serif" font-size="12" lengthAdjust="spacingAndGlyphs" textLength="109" x="800.75" y="479.1543">QueryParameters</text><line style="stroke: #A80036; stroke-width: 1.5;" x1="653.5" x2="1024.5" y1="491" y2="491"/><ellipse cx="663.5" cy="502.9023" fill="#84BE84" rx="3" ry="3" style="stroke: #038048; stroke-width: 1.0;"/><text fill="#000000" font-family="sans-serif" font-size="11" lengthAdjust="spacingAndGlyphs" textLength="339" x="672.5" y="505.2104">QueryParameters(parameters: Map&lt;String, List&lt;String&gt;&gt;)</text><ellipse cx="663.5" cy="515.707" fill="#84BE84" rx="3" ry="3" style="stroke: #038048; stroke-width: 1.0;"/><text fill="#000000" font-family="sans-serif" font-size="11" lengthAdjust="spacingAndGlyphs" text-decoration="underline" textLength="152" x="672.5" y="518.0151">empty(): QueryParameters</text><ellipse cx="663.5" cy="528.5117" fill="#84BE84" rx="3" ry="3" style="stroke: #038048; stroke-width: 1.0;"/><text fill="#000000" font-family="sans-serif" font-size="11" lengthAdjust="spacingAndGlyphs" text-decoration="underline" textLength="347" x="672.5" y="530.8198">simple(parameters: Map&lt;String, String&gt;): QueryParameters</text><ellipse cx="663.5" cy="541.3164" fill="#84BE84" rx="3" ry="3" style="stroke: #038048; stroke-width: 1.0;"/><text fill="#000000" font-family="sans-serif" font-size="11" lengthAdjust="spacingAndGlyphs" text-decoration="underline" textLength="334" x="672.5" y="543.6245">full(parameters: Map&lt;String, String[]&gt;): QueryParameters</text><ellipse cx="663.5" cy="554.1211" fill="#84BE84" rx="3" ry="3" style="stroke: #038048; stroke-width: 1.0;"/><text fill="#000000" font-family="sans-serif" font-size="11" lengthAdjust="spacingAndGlyphs" textLength="256" x="672.5" y="556.4292">getParameters(): Map&lt;String, List&lt;String&gt;&gt;</text><!--class HasElement--><rect fill="#FEFECE" filter="url(#f60xjbxz7p43m)" height="32" id="HasElement" style="stroke: #A80036; stroke-width: 1.5;" width="106" x="311" y="102"/><ellipse cx="326" cy="118" fill="#B4A7E5" rx="11" ry="11" style="stroke: #A80036; stroke-width: 1.0;"/><path d="M326.9531,114.7813 L326.9531,121.2969 L328.6719,121.2969 C329.125,121.2969 329.2656,121.3281 329.4375,121.4531 C329.6719,121.625 329.7813,121.875 329.7813,122.1563 C329.7813,122.7188 329.4219,123 328.6719,123 L323.5313,123 C323.125,123 322.9219,122.9531 322.7656,122.8281 C322.5469,122.6719 322.4063,122.4063 322.4063,122.1563 C322.4063,121.8594 322.5625,121.5781 322.8125,121.4219 C322.9688,121.3125 323.0938,121.2969 323.5313,121.2969 L325.25,121.2969 L325.25,114.7813 L323.5313,114.7813 C323.1094,114.7813 322.9219,114.75 322.7656,114.6406 C322.5469,114.4688 322.4063,114.2188 322.4063,113.9375 C322.4063,113.6563 322.5625,113.3594 322.8125,113.2031 C322.9688,113.1094 323.0938,113.0938 323.5313,113.0938 L328.6719,113.0938 C329.125,113.0938 329.2656,113.125 329.4375,113.2344 C329.6719,113.4063 329.7813,113.6719 329.7813,113.9375 C329.7813,114.2344 329.6406,114.5156 329.375,114.6719 C329.25,114.75 329.0625,114.7813 328.6719,114.7813 Z "/><text fill="#000000" font-family="sans-serif" font-size="12" font-style="italic" lengthAdjust="spacingAndGlyphs" textLength="74" x="340" y="122.1543">HasElement</text><!--class HasText--><rect fill="#FEFECE" filter="url(#f60xjbxz7p43m)" height="65.6094" id="HasText" style="stroke: #A80036; stroke-width: 1.5;" width="139" x="146.5" y="194"/><ellipse cx="187.15" cy="210" fill="#B4A7E5" rx="11" ry="11" style="stroke: #A80036; stroke-width: 1.0;"/><path d="M188.1031,206.7813 L188.1031,213.2969 L189.8219,213.2969 C190.275,213.2969 190.4156,213.3281 190.5875,213.4531 C190.8219,213.625 190.9313,213.875 190.9313,214.1563 C190.9313,214.7188 190.5719,215 189.8219,215 L184.6813,215 C184.275,215 184.0719,214.9531 183.9156,214.8281 C183.6969,214.6719 183.5563,214.4063 183.5563,214.1563 C183.5563,213.8594 183.7125,213.5781 183.9625,213.4219 C184.1188,213.3125 184.2438,213.2969 184.6813,213.2969 L186.4,213.2969 L186.4,206.7813 L184.6813,206.7813 C184.2594,206.7813 184.0719,206.75 183.9156,206.6406 C183.6969,206.4688 183.5563,206.2188 183.5563,205.9375 C183.5563,205.6563 183.7125,205.3594 183.9625,205.2031 C184.1188,205.1094 184.2438,205.0938 184.6813,205.0938 L189.8219,205.0938 C190.275,205.0938 190.4156,205.125 190.5875,205.2344 C190.8219,205.4063 190.9313,205.6719 190.9313,205.9375 C190.9313,206.2344 190.7906,206.5156 190.525,206.6719 C190.4,206.75 190.2125,206.7813 189.8219,206.7813 Z "/><text fill="#000000" font-family="sans-serif" font-size="12" font-style="italic" lengthAdjust="spacingAndGlyphs" textLength="50" x="206.85" y="214.1543">HasText</text><line style="stroke: #A80036; stroke-width: 1.5;" x1="147.5" x2="284.5" y1="226" y2="226"/><ellipse cx="157.5" cy="237.9023" fill="#84BE84" rx="3" ry="3" style="stroke: #038048; stroke-width: 1.0;"/><text fill="#000000" font-family="sans-serif" font-size="11" lengthAdjust="spacingAndGlyphs" textLength="92" x="166.5" y="240.2104">getText(): String</text><ellipse cx="157.5" cy="250.707" fill="#84BE84" rx="3" ry="3" style="stroke: #038048; stroke-width: 1.0;"/><text fill="#000000" font-family="sans-serif" font-size="11" lengthAdjust="spacingAndGlyphs" textLength="113" x="166.5" y="253.0151">setText(text: String)</text><!--class HasComponents--><rect fill="#FEFECE" filter="url(#f60xjbxz7p43m)" height="32" id="HasComponents" style="stroke: #A80036; stroke-width: 1.5;" width="133" x="442.5" y="211"/><ellipse cx="457.5" cy="227" fill="#B4A7E5" rx="11" ry="11" style="stroke: #A80036; stroke-width: 1.0;"/><path d="M458.4531,223.7813 L458.4531,230.2969 L460.1719,230.2969 C460.625,230.2969 460.7656,230.3281 460.9375,230.4531 C461.1719,230.625 461.2813,230.875 461.2813,231.1563 C461.2813,231.7188 460.9219,232 460.1719,232 L455.0313,232 C454.625,232 454.4219,231.9531 454.2656,231.8281 C454.0469,231.6719 453.9063,231.4063 453.9063,231.1563 C453.9063,230.8594 454.0625,230.5781 454.3125,230.4219 C454.4688,230.3125 454.5938,230.2969 455.0313,230.2969 L456.75,230.2969 L456.75,223.7813 L455.0313,223.7813 C454.6094,223.7813 454.4219,223.75 454.2656,223.6406 C454.0469,223.4688 453.9063,223.2188 453.9063,222.9375 C453.9063,222.6563 454.0625,222.3594 454.3125,222.2031 C454.4688,222.1094 454.5938,222.0938 455.0313,222.0938 L460.1719,222.0938 C460.625,222.0938 460.7656,222.125 460.9375,222.2344 C461.1719,222.4063 461.2813,222.6719 461.2813,222.9375 C461.2813,223.2344 461.1406,223.5156 460.875,223.6719 C460.75,223.75 460.5625,223.7813 460.1719,223.7813 Z "/><text fill="#000000" font-family="sans-serif" font-size="12" font-style="italic" lengthAdjust="spacingAndGlyphs" textLength="101" x="471.5" y="231.1543">HasComponents</text><!--class HasStyle--><rect fill="#FEFECE" filter="url(#f60xjbxz7p43m)" height="32" id="HasStyle" style="stroke: #A80036; stroke-width: 1.5;" width="86" x="321" y="211"/><ellipse cx="336" cy="227" fill="#B4A7E5" rx="11" ry="11" style="stroke: #A80036; stroke-width: 1.0;"/><path d="M336.9531,223.7813 L336.9531,230.2969 L338.6719,230.2969 C339.125,230.2969 339.2656,230.3281 339.4375,230.4531 C339.6719,230.625 339.7813,230.875 339.7813,231.1563 C339.7813,231.7188 339.4219,232 338.6719,232 L333.5313,232 C333.125,232 332.9219,231.9531 332.7656,231.8281 C332.5469,231.6719 332.4063,231.4063 332.4063,231.1563 C332.4063,230.8594 332.5625,230.5781 332.8125,230.4219 C332.9688,230.3125 333.0938,230.2969 333.5313,230.2969 L335.25,230.2969 L335.25,223.7813 L333.5313,223.7813 C333.1094,223.7813 332.9219,223.75 332.7656,223.6406 C332.5469,223.4688 332.4063,223.2188 332.4063,222.9375 C332.4063,222.6563 332.5625,222.3594 332.8125,222.2031 C332.9688,222.1094 333.0938,222.0938 333.5313,222.0938 L338.6719,222.0938 C339.125,222.0938 339.2656,222.125 339.4375,222.2344 C339.6719,222.4063 339.7813,222.6719 339.7813,222.9375 C339.7813,223.2344 339.6406,223.5156 339.375,223.6719 C339.25,223.75 339.0625,223.7813 338.6719,223.7813 Z "/><text fill="#000000" font-family="sans-serif" font-size="12" font-style="italic" lengthAdjust="spacingAndGlyphs" textLength="54" x="350" y="231.1543">HasStyle</text><!--class Component--><rect fill="#FEFECE" filter="url(#f60xjbxz7p43m)" height="32" id="Component" style="stroke: #A80036; stroke-width: 1.5;" width="104" x="167" y="320"/><ellipse cx="182" cy="336" fill="#ADD1B2" rx="11" ry="11" style="stroke: #A80036; stroke-width: 1.0;"/><path d="M184.3438,331.6719 L184.5156,331.75 C184.7344,331.4375 184.9375,331.3438 185.2344,331.3438 C185.5313,331.3438 185.8125,331.4844 185.9688,331.75 C186.0625,331.9063 186.0781,332.0313 186.0781,332.4688 L186.0781,333.8906 C186.0781,334.3125 186.0469,334.5 185.9375,334.6563 C185.7656,334.875 185.5,335.0156 185.2344,335.0156 C185.0156,335.0156 184.7813,334.9063 184.6406,334.7656 C184.5,334.6406 184.4688,334.5156 184.4063,334.1094 C184.3125,333.7031 184.1406,333.4844 183.6563,333.2031 C183.1875,332.9531 182.5781,332.7969 182,332.7969 C180.2656,332.7969 179.0156,334.1094 179.0156,335.8906 L179.0156,336.9844 C179.0156,338.6875 180.3125,339.7813 182.3594,339.7813 C183.125,339.7813 183.8125,339.6563 184.2344,339.3906 C184.4219,339.2969 184.4219,339.2969 184.875,338.8125 C185.0625,338.625 185.2656,338.5469 185.4844,338.5469 C185.9531,338.5469 186.3438,338.9375 186.3438,339.3906 C186.3438,339.7813 186.0156,340.2344 185.4375,340.6406 C184.6875,341.1875 183.5313,341.4844 182.3125,341.4844 C179.4219,341.4844 177.3125,339.5938 177.3125,337.0156 L177.3125,335.8906 C177.3125,333.1719 179.3125,331.0938 181.9375,331.0938 C182.8125,331.0938 183.4063,331.2344 184.3438,331.6719 Z "/><text fill="#000000" font-family="sans-serif" font-size="12" lengthAdjust="spacingAndGlyphs" textLength="72" x="196" y="340.1543">Component</text><!--link HasElement to HasText--><path d="M326.894,145.826 C306.758,160.384 281.724,178.483 260.54,193.799 " fill="none" id="HasElement-HasText" style="stroke: #A80036; stroke-width: 1.0;"/><polygon fill="none" points="322.8,140.149,343.109,134.104,331.003,151.494,322.8,140.149" style="stroke: #A80036; stroke-width: 1.0;"/><!--link HasElement to HasStyle--><path d="M364,154.454 C364,173.537 364,196.088 364,210.698 " fill="none" id="HasElement-HasStyle" style="stroke: #A80036; stroke-width: 1.0;"/><polygon fill="none" points="357,154.331,364,134.33,371,154.33,357,154.331" style="stroke: #A80036; stroke-width: 1.0;"/><!--link HasElement to HasComponents--><path d="M400.785,146.145 C428.652,166.709 465.904,194.198 488.637,210.973 " fill="none" id="HasElement-HasComponents" style="stroke: #A80036; stroke-width: 1.0;"/><polygon fill="none" points="396.404,151.611,384.467,134.104,404.717,140.346,396.404,151.611" style="stroke: #A80036; stroke-width: 1.0;"/><!--link HasText to RouterLink--><path d="M259.918,275.779 C270.639,289.322 281.242,304.593 289,320 C305.743,353.25 317.475,392.63 325.426,426.893 " fill="none" id="HasText-RouterLink" style="stroke: #A80036; stroke-width: 1.0; stroke-dasharray: 7.0,7.0;"/><polygon fill="none" points="254.385,280.073,246.967,260.224,265.144,271.115,254.385,280.073" style="stroke: #A80036; stroke-width: 1.0;"/><!--link HasComponents to RouterLink--><path d="M489.609,260.356 C465.425,300.711 423.19,371.186 389.749,426.987 " fill="none" id="HasComponents-RouterLink" style="stroke: #A80036; stroke-width: 1.0; stroke-dasharray: 7.0,7.0;"/><polygon fill="none" points="483.628,256.718,499.914,243.162,495.637,263.915,483.628,256.718" style="stroke: #A80036; stroke-width: 1.0;"/><!--link HasStyle to RouterLink--><path d="M361.008,263.154 C357.54,303.907 351.706,372.454 347.065,426.987 " fill="none" id="HasStyle-RouterLink" style="stroke: #A80036; stroke-width: 1.0; stroke-dasharray: 7.0,7.0;"/><polygon fill="none" points="354.039,262.496,362.71,243.162,367.988,263.683,354.039,262.496" style="stroke: #A80036; stroke-width: 1.0;"/><!--link Component to RouterLink--><path d="M241.002,368.458 C252.525,384.932 267.234,405.962 281.768,426.743 " fill="none" id="Component-RouterLink" style="stroke: #A80036; stroke-width: 1.0;"/><polygon fill="none" points="235.253,372.451,229.526,352.05,246.725,364.427,235.253,372.451" style="stroke: #A80036; stroke-width: 1.0;"/><!--link RouterLink to QueryParameters--><path d="M617.764,511 C627.576,511 637.388,511 647.201,511 " fill="none" id="RouterLink-QueryParameters" style="stroke: #A80036; stroke-width: 1.0;"/><polygon fill="#A80036" points="652.332,511,643.332,507,647.332,511,643.332,515,652.332,511" style="stroke: #A80036; stroke-width: 1.0;"/><!--link HasText to Component--><!--
@startuml
package com.vaadin.flow {
 package router {
  class RouterLink {
   + RouterLink()
   + RouterLink(router: Router, text: String, navigationTarget: Class<? extends C>, parameter: T)
   + RouterLink(router: Router, text: String, navigationTarget: Class<? extends Component>)
   + RouterLink(text: String, navigationTarget: Class<? extends C>, parameter: T)
   + RouterLink(text: String, navigationTarget: Class<? extends Component>)
   + getHref(): String
   + getQueryParameters(): Optional<QueryParameters>
   + setQueryParameters(queryParameters: QueryParameters)
   + setRoute(router: Router, text: String, navigationTarget: Class<? extends C>, parameter: T)
   + setRoute(router: Router, text: String, navigationTarget: Class<? extends Component>)
  }
  class QueryParameters {
   + QueryParameters(parameters: Map<String, List<String>>)
   +{static}empty(): QueryParameters
   +{static}simple(parameters: Map<String, String>): QueryParameters
   +{static}full(parameters: Map<String, String[]>): QueryParameters
   + getParameters(): Map<String, List<String>>
  }
 }
 package component {
  interface HasElement
  interface HasText {
   + getText(): String
   + setText(text: String)
  }
  interface HasComponents
  interface HasStyle
  class Component
 }
}
HasText -up-|> HasElement
HasStyle -up-|> HasElement
HasComponents -up-|> HasElement
RouterLink .up.|> HasText
RouterLink .up.|> HasComponents
RouterLink .up.|> HasStyle
RouterLink -up-|> Component
RouterLink -right-> QueryParameters
Component -[hidden]up- HasText
hide empty members
@enduml

PlantUML version 1.2019.08(Sat Jul 13 19:25:14 UTC 2019)
(GPL source distribution)
Java Runtime: Java(TM) SE Runtime Environment
JVM: Java HotSpot(TM) 64-Bit Server VM
Java Version: 1.7.0_25-b15
Operating System: Linux
Default Encoding: UTF-8
Language: en
Country: US
--></g></svg>