<?xml version="1.0" encoding="UTF-8" standalone="no"?>
<svg xmlns="http://www.w3.org/2000/svg" xmlns:xlink="http://www.w3.org/1999/xlink" contentScriptType="application/ecmascript" contentStyleType="text/css" height="346px" preserveAspectRatio="none" style="width:826px;height:346px;" version="1.1" viewBox="0 0 826 346" width="826px" zoomAndPan="magnify"><defs><filter height="300%" id="f1kb8bdybnuyyn" width="300%" x="-1" y="-1"><feGaussianBlur result="blurOut" stdDeviation="2.0"/><feColorMatrix in="blurOut" result="blurOut2" type="matrix" values="0 0 0 0 0 0 0 0 0 0 0 0 0 0 0 0 0 0 .4 0"/><feOffset dx="4.0" dy="4.0" in="blurOut2" result="blurOut3"/><feBlend in="SourceGraphic" in2="blurOut3" mode="normal"/></filter></defs><g><!--cluster com.vaadin.flow--><polygon fill="#FFFFFF" filter="url(#f1kb8bdybnuyyn)" points="22,24,156,24,163,46.2969,804,46.2969,804,334,22,334,22,24" style="stroke: #000000; stroke-width: 1.5;"/><line style="stroke: #000000; stroke-width: 1.5;" x1="22" x2="163" y1="46.2969" y2="46.2969"/><text fill="#000000" font-family="sans-serif" font-size="14" font-weight="bold" lengthAdjust="spacingAndGlyphs" textLength="128" x="26" y="38.9951">com.vaadin.flow</text><!--cluster router--><polygon fill="#FFFFFF" filter="url(#f1kb8bdybnuyyn)" points="376,67,432,67,439,89.2969,780,89.2969,780,310,376,310,376,67" style="stroke: #000000; stroke-width: 1.5;"/><line style="stroke: #000000; stroke-width: 1.5;" x1="376" x2="439" y1="89.2969" y2="89.2969"/><text fill="#000000" font-family="sans-serif" font-size="14" font-weight="bold" lengthAdjust="spacingAndGlyphs" textLength="50" x="380" y="81.9951">router</text><!--cluster component--><polygon fill="#FFFFFF" filter="url(#f1kb8bdybnuyyn)" points="46,84,141,84,148,106.2969,352,106.2969,352,310,46,310,46,84" style="stroke: #000000; stroke-width: 1.5;"/><line style="stroke: #000000; stroke-width: 1.5;" x1="46" x2="148" y1="106.2969" y2="106.2969"/><text fill="#000000" font-family="sans-serif" font-size="14" font-weight="bold" lengthAdjust="spacingAndGlyphs" textLength="89" x="50" y="98.9951">component</text><!--class RouterLayout--><rect fill="#FEFECE" filter="url(#f1kb8bdybnuyyn)" height="65.6094" id="RouterLayout" style="stroke: #A80036; stroke-width: 1.5;" width="313" x="406.5" y="102"/><ellipse cx="516.25" cy="118" fill="#B4A7E5" rx="11" ry="11" style="stroke: #A80036; stroke-width: 1.0;"/><path d="M517.2031,114.7813 L517.2031,121.2969 L518.9219,121.2969 C519.375,121.2969 519.5156,121.3281 519.6875,121.4531 C519.9219,121.625 520.0313,121.875 520.0313,122.1563 C520.0313,122.7188 519.6719,123 518.9219,123 L513.7813,123 C513.375,123 513.1719,122.9531 513.0156,122.8281 C512.7969,122.6719 512.6563,122.4063 512.6563,122.1563 C512.6563,121.8594 512.8125,121.5781 513.0625,121.4219 C513.2188,121.3125 513.3438,121.2969 513.7813,121.2969 L515.5,121.2969 L515.5,114.7813 L513.7813,114.7813 C513.3594,114.7813 513.1719,114.75 513.0156,114.6406 C512.7969,114.4688 512.6563,114.2188 512.6563,113.9375 C512.6563,113.6563 512.8125,113.3594 513.0625,113.2031 C513.2188,113.1094 513.3438,113.0938 513.7813,113.0938 L518.9219,113.0938 C519.375,113.0938 519.5156,113.125 519.6875,113.2344 C519.9219,113.4063 520.0313,113.6719 520.0313,113.9375 C520.0313,114.2344 519.8906,114.5156 519.625,114.6719 C519.5,114.75 519.3125,114.7813 518.9219,114.7813 Z "/><text fill="#000000" font-family="sans-serif" font-size="12" font-style="italic" lengthAdjust="spacingAndGlyphs" textLength="85" x="536.75" y="122.1543">RouterLayout</text><line style="stroke: #A80036; stroke-width: 1.5;" x1="407.5" x2="718.5" y1="134" y2="134"/><ellipse cx="417.5" cy="145.9023" fill="#84BE84" rx="3" ry="3" style="stroke: #038048; stroke-width: 1.0;"/><text fill="#000000" font-family="sans-serif" font-size="11" lengthAdjust="spacingAndGlyphs" textLength="274" x="426.5" y="148.2104">showRouterLayoutContent(content: HasElement)</text><ellipse cx="417.5" cy="158.707" fill="#84BE84" rx="3" ry="3" style="stroke: #038048; stroke-width: 1.0;"/><text fill="#000000" font-family="sans-serif" font-size="11" lengthAdjust="spacingAndGlyphs" textLength="287" x="426.5" y="161.0151">removeRouterLayoutContent(content: HasElement)</text><!--class Router--><rect fill="#FEFECE" filter="url(#f1kb8bdybnuyyn)" height="65.6094" id="Router" style="stroke: #A80036; stroke-width: 1.5;" width="372" x="392" y="228"/><ellipse cx="552.75" cy="244" fill="#ADD1B2" rx="11" ry="11" style="stroke: #A80036; stroke-width: 1.0;"/><path d="M555.0938,239.6719 L555.2656,239.75 C555.4844,239.4375 555.6875,239.3438 555.9844,239.3438 C556.2813,239.3438 556.5625,239.4844 556.7188,239.75 C556.8125,239.9063 556.8281,240.0313 556.8281,240.4688 L556.8281,241.8906 C556.8281,242.3125 556.7969,242.5 556.6875,242.6563 C556.5156,242.875 556.25,243.0156 555.9844,243.0156 C555.7656,243.0156 555.5313,242.9063 555.3906,242.7656 C555.25,242.6406 555.2188,242.5156 555.1563,242.1094 C555.0625,241.7031 554.8906,241.4844 554.4063,241.2031 C553.9375,240.9531 553.3281,240.7969 552.75,240.7969 C551.0156,240.7969 549.7656,242.1094 549.7656,243.8906 L549.7656,244.9844 C549.7656,246.6875 551.0625,247.7813 553.1094,247.7813 C553.875,247.7813 554.5625,247.6563 554.9844,247.3906 C555.1719,247.2969 555.1719,247.2969 555.625,246.8125 C555.8125,246.625 556.0156,246.5469 556.2344,246.5469 C556.7031,246.5469 557.0938,246.9375 557.0938,247.3906 C557.0938,247.7813 556.7656,248.2344 556.1875,248.6406 C555.4375,249.1875 554.2813,249.4844 553.0625,249.4844 C550.1719,249.4844 548.0625,247.5938 548.0625,245.0156 L548.0625,243.8906 C548.0625,241.1719 550.0625,239.0938 552.6875,239.0938 C553.5625,239.0938 554.1563,239.2344 555.0938,239.6719 Z "/><text fill="#000000" font-family="sans-serif" font-size="12" lengthAdjust="spacingAndGlyphs" textLength="42" x="573.25" y="248.1543">Router</text><line style="stroke: #A80036; stroke-width: 1.5;" x1="393" x2="763" y1="260" y2="260"/><ellipse cx="403" cy="271.9023" fill="#84BE84" rx="3" ry="3" style="stroke: #038048; stroke-width: 1.0;"/><text fill="#000000" font-family="sans-serif" font-size="11" lengthAdjust="spacingAndGlyphs" textLength="256" x="412" y="274.2104">initializeUI(ui: UI, initRequest: VaadinRequest)</text><ellipse cx="403" cy="284.707" fill="#84BE84" rx="3" ry="3" style="stroke: #038048; stroke-width: 1.0;"/><text fill="#000000" font-family="sans-serif" font-size="11" lengthAdjust="spacingAndGlyphs" textLength="346" x="412" y="287.0151">navigate(ui: UI, location: Location, trigger: NavigationTrigger)</text><!--class UI--><rect fill="#FEFECE" filter="url(#f1kb8bdybnuyyn)" height="65.6094" id="UI" style="stroke: #A80036; stroke-width: 1.5;" width="273" x="62.5" y="228"/><ellipse cx="188.75" cy="244" fill="#ADD1B2" rx="11" ry="11" style="stroke: #A80036; stroke-width: 1.0;"/><path d="M191.0938,239.6719 L191.2656,239.75 C191.4844,239.4375 191.6875,239.3438 191.9844,239.3438 C192.2813,239.3438 192.5625,239.4844 192.7188,239.75 C192.8125,239.9063 192.8281,240.0313 192.8281,240.4688 L192.8281,241.8906 C192.8281,242.3125 192.7969,242.5 192.6875,242.6563 C192.5156,242.875 192.25,243.0156 191.9844,243.0156 C191.7656,243.0156 191.5313,242.9063 191.3906,242.7656 C191.25,242.6406 191.2188,242.5156 191.1563,242.1094 C191.0625,241.7031 190.8906,241.4844 190.4063,241.2031 C189.9375,240.9531 189.3281,240.7969 188.75,240.7969 C187.0156,240.7969 185.7656,242.1094 185.7656,243.8906 L185.7656,244.9844 C185.7656,246.6875 187.0625,247.7813 189.1094,247.7813 C189.875,247.7813 190.5625,247.6563 190.9844,247.3906 C191.1719,247.2969 191.1719,247.2969 191.625,246.8125 C191.8125,246.625 192.0156,246.5469 192.2344,246.5469 C192.7031,246.5469 193.0938,246.9375 193.0938,247.3906 C193.0938,247.7813 192.7656,248.2344 192.1875,248.6406 C191.4375,249.1875 190.2813,249.4844 189.0625,249.4844 C186.1719,249.4844 184.0625,247.5938 184.0625,245.0156 L184.0625,243.8906 C184.0625,241.1719 186.0625,239.0938 188.6875,239.0938 C189.5625,239.0938 190.1563,239.2344 191.0938,239.6719 Z "/><text fill="#000000" font-family="sans-serif" font-size="12" lengthAdjust="spacingAndGlyphs" textLength="12" x="209.25" y="248.1543">UI</text><line style="stroke: #A80036; stroke-width: 1.5;" x1="63.5" x2="334.5" y1="260" y2="260"/><ellipse cx="73.5" cy="271.9023" fill="#84BE84" rx="3" ry="3" style="stroke: #038048; stroke-width: 1.0;"/><text fill="#000000" font-family="sans-serif" font-size="11" lengthAdjust="spacingAndGlyphs" text-decoration="underline" textLength="247" x="82.5" y="274.2104">getInstance(servletContext: ServletContext)</text><polygon fill="#FFFF44" points="73.5,279.707,77.5,283.707,73.5,287.707,69.5,283.707" style="stroke: #B38D22; stroke-width: 1.0;"/><text fill="#000000" font-family="sans-serif" font-size="11" lengthAdjust="spacingAndGlyphs" textLength="161" x="82.5" y="287.0151">init(request: VaadinRequest)</text><!--class Component--><rect fill="#FEFECE" filter="url(#f1kb8bdybnuyyn)" height="32" id="Component" style="stroke: #A80036; stroke-width: 1.5;" width="104" x="147" y="119"/><ellipse cx="162" cy="135" fill="#A9DCDF" rx="11" ry="11" style="stroke: #A80036; stroke-width: 1.0;"/><path d="M163.5781,136.8125 L159.5313,136.8125 L159.1406,137.7969 L159.5313,137.7969 C159.9844,137.7969 160.125,137.8281 160.2969,137.9531 C160.5156,138.125 160.6406,138.375 160.6406,138.6563 C160.6406,138.9375 160.5,139.2344 160.2344,139.375 C160.1094,139.4688 159.8906,139.5 159.5313,139.5 L157.2656,139.5 C156.5156,139.5 156.1406,139.2188 156.1406,138.6563 C156.1406,138.3594 156.2969,138.0781 156.5469,137.9219 C156.7031,137.8125 156.8594,137.7969 157.2813,137.7969 L159.9219,131.2813 L158.8438,131.2813 C158.4063,131.2813 158.2344,131.25 158.0625,131.1406 C157.8438,130.9688 157.7031,130.7188 157.7031,130.4375 C157.7031,130.1563 157.8594,129.875 158.1094,129.7031 C158.2656,129.6094 158.3906,129.5938 158.8438,129.5938 L162.5156,129.5938 L165.9063,137.7969 C166.375,137.7969 166.5313,137.8281 166.7031,137.9688 C166.9219,138.125 167.0625,138.375 167.0625,138.6563 C167.0625,138.9375 166.9063,139.2344 166.6563,139.375 C166.5156,139.4688 166.2969,139.5 165.9375,139.5 L163.5781,139.5 C163.1563,139.5 162.9531,139.4531 162.8125,139.3281 C162.5938,139.1719 162.4531,138.9219 162.4531,138.6563 C162.4531,138.3594 162.6094,138.0781 162.8594,137.9219 C163.0156,137.8125 163.125,137.7969 163.5781,137.7969 L163.9688,137.7969 Z M162.875,135.1094 L161.5469,131.8438 L160.2031,135.1094 Z "/><text fill="#000000" font-family="sans-serif" font-size="12" font-style="italic" lengthAdjust="spacingAndGlyphs" textLength="72" x="176" y="139.1543">Component</text><!--link RouterLayout to UI--><path d="M449.61,174.627 C399.356,191.747 340.927,211.651 293.133,227.933 " fill="none" id="RouterLayout-UI" style="stroke: #A80036; stroke-width: 1.0; stroke-dasharray: 7.0,7.0;"/><polygon fill="none" points="447.599,167.918,468.788,168.094,452.113,181.17,447.599,167.918" style="stroke: #A80036; stroke-width: 1.0;"/><!--link Component to UI--><path d="M199,171.264 C199,189.106 199,210.601 199,227.966 " fill="none" id="Component-UI" style="stroke: #A80036; stroke-width: 1.0;"/><polygon fill="none" points="192,171.205,199,151.205,206,171.205,192,171.205" style="stroke: #A80036; stroke-width: 1.0;"/><!--link UI to Router--><path d="M335.573,261 C352.594,261 369.615,261 386.636,261 " fill="none" id="UI-Router" style="stroke: #A80036; stroke-width: 1.0;"/><polygon fill="#A80036" points="391.919,261,382.919,257,386.919,261,382.919,265,391.919,261" style="stroke: #A80036; stroke-width: 1.0;"/><text fill="#000000" font-family="sans-serif" font-size="13" lengthAdjust="spacingAndGlyphs" textLength="8" x="375.9" y="257.7615">1</text><!--link RouterLayout to Router--><!--
@startuml
package com.vaadin.flow {
 package router {
  interface RouterLayout {
   + showRouterLayoutContent(content: HasElement)
   + removeRouterLayoutContent(content: HasElement)
  }
  class Router {
   + initializeUI(ui: UI, initRequest: VaadinRequest)
   + navigate(ui: UI, location: Location, trigger: NavigationTrigger)
  }
 }
 package component {
  class UI {
   + {static} getInstance(servletContext: ServletContext)
   # init(request: VaadinRequest)
  }
  abstract class Component
 }
}
UI .up.|> RouterLayout
UI -up-|> Component

UI -right-> "1" Router

Router -[hidden]up- RouterLayout

hide empty members
@enduml

PlantUML version 1.2019.08(Sat Jul 13 19:25:14 UTC 2019)
(GPL source distribution)
Java Runtime: Java(TM) SE Runtime Environment
JVM: Java HotSpot(TM) 64-Bit Server VM
Java Version: 1.7.0_25-b15
Operating System: Linux
Default Encoding: UTF-8
Language: en
Country: US
--></g></svg>