<?xml version="1.0" encoding="UTF-8" standalone="no"?><svg xmlns="http://www.w3.org/2000/svg" xmlns:xlink="http://www.w3.org/1999/xlink" contentScriptType="application/ecmascript" contentStyleType="text/css" height="335px" preserveAspectRatio="xMidYMid" style="width:523px;height:335px;" version="1.1" viewBox="0 0 523 335" width="523px" zoomAndPan="magnify"><defs><filter height="300%" id="fwknwm6dsludq" width="300%" x="-1" y="-1"><feGaussianBlur result="blurOut" stdDeviation="2.0"/><feColorMatrix in="blurOut" result="blurOut2" type="matrix" values="0 0 0 0 0 0 0 0 0 0 0 0 0 0 0 0 0 0 .4 0"/><feOffset dx="4.0" dy="4.0" in="blurOut2" result="blurOut3"/><feBlend in="SourceGraphic" in2="blurOut3" mode="normal"/></filter></defs><g><!--cluster com.vaadin.flow.server--><polygon fill="#FFFFFF" filter="url(#fwknwm6dsludq)" points="22,152,213,152,220,174.2969,501,174.2969,501,323,22,323,22,152" style="stroke: #000000; stroke-width: 1.5;"/><line style="stroke: #000000; stroke-width: 1.5;" x1="22" x2="220" y1="174.2969" y2="174.2969"/><text fill="#000000" font-family="sans-serif" font-size="14" font-weight="bold" lengthAdjust="spacingAndGlyphs" textLength="185" x="26" y="166.9951">com.vaadin.flow.server</text><!--cluster startup--><polygon fill="#FFFFFF" filter="url(#fwknwm6dsludq)" points="175,195,238,195,245,217.2969,477,217.2969,477,299,175,299,175,195" style="stroke: #000000; stroke-width: 1.5;"/><line style="stroke: #000000; stroke-width: 1.5;" x1="175" x2="245" y1="217.2969" y2="217.2969"/><text fill="#000000" font-family="sans-serif" font-size="14" font-weight="bold" lengthAdjust="spacingAndGlyphs" textLength="57" x="179" y="209.9951">startup</text><!--cluster javax.servlet--><polygon fill="#FFFFFF" filter="url(#fwknwm6dsludq)" points="33,24,139,24,146,46.2969,474,46.2969,474,128,33,128,33,24" style="stroke: #000000; stroke-width: 1.5;"/><line style="stroke: #000000; stroke-width: 1.5;" x1="33" x2="146" y1="46.2969" y2="46.2969"/><text fill="#000000" font-family="sans-serif" font-size="14" font-weight="bold" lengthAdjust="spacingAndGlyphs" textLength="100" x="37" y="38.9951">javax.servlet</text><!--class VaadinServlet--><rect fill="#FEFECE" filter="url(#fwknwm6dsludq)" height="32" id="VaadinServlet" style="stroke: #A80036; stroke-width: 1.5;" width="118" x="38" y="240.5"/><ellipse cx="53" cy="256.5" fill="#ADD1B2" rx="11" ry="11" style="stroke: #A80036; stroke-width: 1.0;"/><path d="M55.3438,252.1719 L55.5156,252.25 C55.7344,251.9375 55.9375,251.8438 56.2344,251.8438 C56.5313,251.8438 56.8125,251.9844 56.9688,252.25 C57.0625,252.4063 57.0781,252.5313 57.0781,252.9688 L57.0781,254.3906 C57.0781,254.8125 57.0469,255 56.9375,255.1563 C56.7656,255.375 56.5,255.5156 56.2344,255.5156 C56.0156,255.5156 55.7813,255.4063 55.6406,255.2656 C55.5,255.1406 55.4688,255.0156 55.4063,254.6094 C55.3125,254.2031 55.1406,253.9844 54.6563,253.7031 C54.1875,253.4531 53.5781,253.2969 53,253.2969 C51.2656,253.2969 50.0156,254.6094 50.0156,256.3906 L50.0156,257.4844 C50.0156,259.1875 51.3125,260.2813 53.3594,260.2813 C54.125,260.2813 54.8125,260.1563 55.2344,259.8906 C55.4219,259.7969 55.4219,259.7969 55.875,259.3125 C56.0625,259.125 56.2656,259.0469 56.4844,259.0469 C56.9531,259.0469 57.3438,259.4375 57.3438,259.8906 C57.3438,260.2813 57.0156,260.7344 56.4375,261.1406 C55.6875,261.6875 54.5313,261.9844 53.3125,261.9844 C50.4219,261.9844 48.3125,260.0938 48.3125,257.5156 L48.3125,256.3906 C48.3125,253.6719 50.3125,251.5938 52.9375,251.5938 C53.8125,251.5938 54.4063,251.7344 55.3438,252.1719 Z "/><text fill="#000000" font-family="sans-serif" font-size="12" lengthAdjust="spacingAndGlyphs" textLength="86" x="67" y="260.6543">VaadinServlet</text><!--class ServletDeployer--><rect fill="#FEFECE" filter="url(#fwknwm6dsludq)" height="52.8047" id="ServletDeployer" style="stroke: #A80036; stroke-width: 1.5;" width="269" x="191.5" y="230"/><ellipse cx="272.75" cy="246" fill="#ADD1B2" rx="11" ry="11" style="stroke: #A80036; stroke-width: 1.0;"/><path d="M275.0938,241.6719 L275.2656,241.75 C275.4844,241.4375 275.6875,241.3438 275.9844,241.3438 C276.2813,241.3438 276.5625,241.4844 276.7188,241.75 C276.8125,241.9063 276.8281,242.0313 276.8281,242.4688 L276.8281,243.8906 C276.8281,244.3125 276.7969,244.5 276.6875,244.6563 C276.5156,244.875 276.25,245.0156 275.9844,245.0156 C275.7656,245.0156 275.5313,244.9063 275.3906,244.7656 C275.25,244.6406 275.2188,244.5156 275.1563,244.1094 C275.0625,243.7031 274.8906,243.4844 274.4063,243.2031 C273.9375,242.9531 273.3281,242.7969 272.75,242.7969 C271.0156,242.7969 269.7656,244.1094 269.7656,245.8906 L269.7656,246.9844 C269.7656,248.6875 271.0625,249.7813 273.1094,249.7813 C273.875,249.7813 274.5625,249.6563 274.9844,249.3906 C275.1719,249.2969 275.1719,249.2969 275.625,248.8125 C275.8125,248.625 276.0156,248.5469 276.2344,248.5469 C276.7031,248.5469 277.0938,248.9375 277.0938,249.3906 C277.0938,249.7813 276.7656,250.2344 276.1875,250.6406 C275.4375,251.1875 274.2813,251.4844 273.0625,251.4844 C270.1719,251.4844 268.0625,249.5938 268.0625,247.0156 L268.0625,245.8906 C268.0625,243.1719 270.0625,241.0938 272.6875,241.0938 C273.5625,241.0938 274.1563,241.2344 275.0938,241.6719 Z "/><text fill="#000000" font-family="sans-serif" font-size="12" lengthAdjust="spacingAndGlyphs" textLength="98" x="293.25" y="250.1543">ServletDeployer</text><line style="stroke: #A80036; stroke-width: 1.5;" x1="192.5" x2="459.5" y1="262" y2="262"/><ellipse cx="202.5" cy="273.9023" fill="#84BE84" rx="3" ry="3" style="stroke: #038048; stroke-width: 1.0;"/><text fill="#000000" font-family="sans-serif" font-size="11" lengthAdjust="spacingAndGlyphs" textLength="243" x="211.5" y="276.2104">contextInitialized(sce: ServletContextEvent)</text><!--class ServletContextListener--><rect fill="#FEFECE" filter="url(#fwknwm6dsludq)" height="52.8047" id="ServletContextListener" style="stroke: #A80036; stroke-width: 1.5;" width="272" x="186" y="59"/><ellipse cx="246.75" cy="75" fill="#B4A7E5" rx="11" ry="11" style="stroke: #A80036; stroke-width: 1.0;"/><path d="M247.7031,71.7813 L247.7031,78.2969 L249.4219,78.2969 C249.875,78.2969 250.0156,78.3281 250.1875,78.4531 C250.4219,78.625 250.5313,78.875 250.5313,79.1563 C250.5313,79.7188 250.1719,80 249.4219,80 L244.2813,80 C243.875,80 243.6719,79.9531 243.5156,79.8281 C243.2969,79.6719 243.1563,79.4063 243.1563,79.1563 C243.1563,78.8594 243.3125,78.5781 243.5625,78.4219 C243.7188,78.3125 243.8438,78.2969 244.2813,78.2969 L246,78.2969 L246,71.7813 L244.2813,71.7813 C243.8594,71.7813 243.6719,71.75 243.5156,71.6406 C243.2969,71.4688 243.1563,71.2188 243.1563,70.9375 C243.1563,70.6563 243.3125,70.3594 243.5625,70.2031 C243.7188,70.1094 243.8438,70.0938 244.2813,70.0938 L249.4219,70.0938 C249.875,70.0938 250.0156,70.125 250.1875,70.2344 C250.4219,70.4063 250.5313,70.6719 250.5313,70.9375 C250.5313,71.2344 250.3906,71.5156 250.125,71.6719 C250,71.75 249.8125,71.7813 249.4219,71.7813 Z "/><text fill="#000000" font-family="sans-serif" font-size="12" font-style="italic" lengthAdjust="spacingAndGlyphs" textLength="142" x="267.25" y="79.1543">ServletContextListener</text><line style="stroke: #A80036; stroke-width: 1.5;" x1="187" x2="457" y1="91" y2="91"/><ellipse cx="197" cy="102.9023" fill="#84BE84" rx="3" ry="3" style="stroke: #038048; stroke-width: 1.0;"/><text fill="#000000" font-family="sans-serif" font-size="11" font-style="italic" lengthAdjust="spacingAndGlyphs" textLength="246" x="206" y="105.2104">contextInitialized(sce: ServletContextEvent)</text><!--class HttpServlet--><rect fill="#FEFECE" filter="url(#fwknwm6dsludq)" height="32" id="HttpServlet" style="stroke: #A80036; stroke-width: 1.5;" width="102" x="49" y="69.5"/><ellipse cx="64" cy="85.5" fill="#ADD1B2" rx="11" ry="11" style="stroke: #A80036; stroke-width: 1.0;"/><path d="M66.3438,81.1719 L66.5156,81.25 C66.7344,80.9375 66.9375,80.8438 67.2344,80.8438 C67.5313,80.8438 67.8125,80.9844 67.9688,81.25 C68.0625,81.4063 68.0781,81.5313 68.0781,81.9688 L68.0781,83.3906 C68.0781,83.8125 68.0469,84 67.9375,84.1563 C67.7656,84.375 67.5,84.5156 67.2344,84.5156 C67.0156,84.5156 66.7813,84.4063 66.6406,84.2656 C66.5,84.1406 66.4688,84.0156 66.4063,83.6094 C66.3125,83.2031 66.1406,82.9844 65.6563,82.7031 C65.1875,82.4531 64.5781,82.2969 64,82.2969 C62.2656,82.2969 61.0156,83.6094 61.0156,85.3906 L61.0156,86.4844 C61.0156,88.1875 62.3125,89.2813 64.3594,89.2813 C65.125,89.2813 65.8125,89.1563 66.2344,88.8906 C66.4219,88.7969 66.4219,88.7969 66.875,88.3125 C67.0625,88.125 67.2656,88.0469 67.4844,88.0469 C67.9531,88.0469 68.3438,88.4375 68.3438,88.8906 C68.3438,89.2813 68.0156,89.7344 67.4375,90.1406 C66.6875,90.6875 65.5313,90.9844 64.3125,90.9844 C61.4219,90.9844 59.3125,89.0938 59.3125,86.5156 L59.3125,85.3906 C59.3125,82.6719 61.3125,80.5938 63.9375,80.5938 C64.8125,80.5938 65.4063,80.7344 66.3438,81.1719 Z "/><text fill="#000000" font-family="sans-serif" font-size="12" lengthAdjust="spacingAndGlyphs" textLength="70" x="78" y="89.6543">HttpServlet</text><!--link VaadinServlet to ServletDeployer--><path d="M161.262,256.5 C171.25,256.5 181.238,256.5 191.226,256.5 " fill="none" id="VaadinServlet-ServletDeployer" style="stroke: #A80036; stroke-width: 1.0; stroke-dasharray: 7.0,7.0;"/><polygon fill="#A80036" points="156.039,256.5,165.039,260.5,161.039,256.5,165.039,252.5,156.039,256.5" style="stroke: #A80036; stroke-width: 1.0;"/><!--link ServletContextListener to ServletDeployer--><path d="M323.091,132.584 C323.832,163.886 324.784,204.123 325.393,229.868 " fill="none" id="ServletContextListener-ServletDeployer" style="stroke: #A80036; stroke-width: 1.0; stroke-dasharray: 7.0,7.0;"/><polygon fill="none" points="316.083,132.328,322.608,112.167,330.079,131.996,316.083,132.328" style="stroke: #A80036; stroke-width: 1.0;"/><!--link HttpServlet to VaadinServlet--><path d="M99.3706,121.954 C98.7212,158.541 97.7386,213.891 97.2687,240.3606 " fill="none" id="HttpServlet-VaadinServlet" style="stroke: #A80036; stroke-width: 1.0;"/><polygon fill="none" points="92.3745,121.668,99.7285,101.796,106.372,121.917,92.3745,121.668" style="stroke: #A80036; stroke-width: 1.0;"/><!--
@startuml
package "com.vaadin.flow.server" {
 class VaadinServlet
 package startup {
  class ServletDeployer {
   + contextInitialized(sce: ServletContextEvent)
  }
 }
 ServletDeployer .left.> VaadinServlet
}
package "javax.servlet" {
 interface ServletContextListener {
  + {abstract} contextInitialized(sce: ServletContextEvent)
 }
 class HttpServlet
}
ServletDeployer .up.|> ServletContextListener
VaadinServlet -up-|> HttpServlet
hide empty members
@enduml

PlantUML version 1.2018.08(Sun Jun 24 12:31:00 UTC 2018)
(GPL source distribution)
Java Runtime: Java(TM) SE Runtime Environment
JVM: Java HotSpot(TM) 64-Bit Server VM
Java Version: 1.7.0_25-b15
Operating System: Linux
Default Encoding: UTF-8
Language: en
Country: US
--></g></svg>