<?xml version="1.0" encoding="UTF-8" standalone="no"?>
<svg xmlns="http://www.w3.org/2000/svg" xmlns:xlink="http://www.w3.org/1999/xlink" contentScriptType="application/ecmascript" contentStyleType="text/css" height="513px" preserveAspectRatio="none" style="width:1298px;height:513px;" version="1.1" viewBox="0 0 1298 513" width="1298px" zoomAndPan="magnify"><defs><filter height="300%" id="fr62y8mt7nili" width="300%" x="-1" y="-1"><feGaussianBlur result="blurOut" stdDeviation="2.0"/><feColorMatrix in="blurOut" result="blurOut2" type="matrix" values="0 0 0 0 0 0 0 0 0 0 0 0 0 0 0 0 0 0 .4 0"/><feOffset dx="4.0" dy="4.0" in="blurOut2" result="blurOut3"/><feBlend in="SourceGraphic" in2="blurOut3" mode="normal"/></filter></defs><g><!--cluster com.vaadin.flow.data.binder--><polygon fill="#FFFFFF" filter="url(#fr62y8mt7nili)" points="22,131,251,131,258,153.2969,1276,153.2969,1276,501,22,501,22,131" style="stroke: #000000; stroke-width: 1.5;"/><line style="stroke: #000000; stroke-width: 1.5;" x1="22" x2="258" y1="153.2969" y2="153.2969"/><text fill="#000000" font-family="sans-serif" font-size="14" font-weight="bold" lengthAdjust="spacingAndGlyphs" textLength="223" x="26" y="145.9951">com.vaadin.flow.data.binder</text><!--cluster java.util.function--><polygon fill="#FFFFFF" filter="url(#fr62y8mt7nili)" points="559,24,695,24,702,46.2969,1015,46.2969,1015,107,559,107,559,24" style="stroke: #000000; stroke-width: 1.5;"/><line style="stroke: #000000; stroke-width: 1.5;" x1="559" x2="702" y1="46.2969" y2="46.2969"/><text fill="#000000" font-family="sans-serif" font-size="14" font-weight="bold" lengthAdjust="spacingAndGlyphs" textLength="130" x="563" y="38.9951">java.util.function</text><!--class HasValidator--><rect fill="#FEFECE" filter="url(#fr62y8mt7nili)" height="52.8047" id="HasValidator" style="stroke: #A80036; stroke-width: 1.5;" width="225" x="38.5" y="198"/><ellipse cx="101.25" cy="214" fill="#B4A7E5" rx="11" ry="11" style="stroke: #A80036; stroke-width: 1.0;"/><path d="M102.2031,210.7813 L102.2031,217.2969 L103.9219,217.2969 C104.375,217.2969 104.5156,217.3281 104.6875,217.4531 C104.9219,217.625 105.0313,217.875 105.0313,218.1563 C105.0313,218.7188 104.6719,219 103.9219,219 L98.7813,219 C98.375,219 98.1719,218.9531 98.0156,218.8281 C97.7969,218.6719 97.6563,218.4063 97.6563,218.1563 C97.6563,217.8594 97.8125,217.5781 98.0625,217.4219 C98.2188,217.3125 98.3438,217.2969 98.7813,217.2969 L100.5,217.2969 L100.5,210.7813 L98.7813,210.7813 C98.3594,210.7813 98.1719,210.75 98.0156,210.6406 C97.7969,210.4688 97.6563,210.2188 97.6563,209.9375 C97.6563,209.6563 97.8125,209.3594 98.0625,209.2031 C98.2188,209.1094 98.3438,209.0938 98.7813,209.0938 L103.9219,209.0938 C104.375,209.0938 104.5156,209.125 104.6875,209.2344 C104.9219,209.4063 105.0313,209.6719 105.0313,209.9375 C105.0313,210.2344 104.8906,210.5156 104.625,210.6719 C104.5,210.75 104.3125,210.7813 103.9219,210.7813 Z "/><text fill="#000000" font-family="sans-serif" font-size="12" font-style="italic" lengthAdjust="spacingAndGlyphs" textLength="79" x="121.75" y="218.1543">HasValidator</text><rect fill="#FFFFFF" height="15.9688" style="stroke: #000000; stroke-width: 1.0; stroke-dasharray: 2.0,2.0;" width="10" x="256.5" y="195"/><text fill="#000000" font-family="sans-serif" font-size="12" font-style="italic" lengthAdjust="spacingAndGlyphs" textLength="8" x="257.5" y="207.1387">V</text><line style="stroke: #A80036; stroke-width: 1.5;" x1="39.5" x2="262.5" y1="230" y2="230"/><ellipse cx="49.5" cy="241.9023" fill="#84BE84" rx="3" ry="3" style="stroke: #038048; stroke-width: 1.0;"/><text fill="#000000" font-family="sans-serif" font-size="11" lengthAdjust="spacingAndGlyphs" textLength="199" x="58.5" y="244.2104">getDefaultValidator(): Validator&lt;V&gt;</text><!--class Validator--><rect fill="#FEFECE" filter="url(#fr62y8mt7nili)" height="116.8281" id="Validator" style="stroke: #A80036; stroke-width: 1.5;" width="694" x="299" y="166"/><ellipse cx="608.25" cy="182" fill="#B4A7E5" rx="11" ry="11" style="stroke: #A80036; stroke-width: 1.0;"/><path d="M609.2031,178.7813 L609.2031,185.2969 L610.9219,185.2969 C611.375,185.2969 611.5156,185.3281 611.6875,185.4531 C611.9219,185.625 612.0313,185.875 612.0313,186.1563 C612.0313,186.7188 611.6719,187 610.9219,187 L605.7813,187 C605.375,187 605.1719,186.9531 605.0156,186.8281 C604.7969,186.6719 604.6563,186.4063 604.6563,186.1563 C604.6563,185.8594 604.8125,185.5781 605.0625,185.4219 C605.2188,185.3125 605.3438,185.2969 605.7813,185.2969 L607.5,185.2969 L607.5,178.7813 L605.7813,178.7813 C605.3594,178.7813 605.1719,178.75 605.0156,178.6406 C604.7969,178.4688 604.6563,178.2188 604.6563,177.9375 C604.6563,177.6563 604.8125,177.3594 605.0625,177.2031 C605.2188,177.1094 605.3438,177.0938 605.7813,177.0938 L610.9219,177.0938 C611.375,177.0938 611.5156,177.125 611.6875,177.2344 C611.9219,177.4063 612.0313,177.6719 612.0313,177.9375 C612.0313,178.2344 611.8906,178.5156 611.625,178.6719 C611.5,178.75 611.3125,178.7813 610.9219,178.7813 Z "/><text fill="#000000" font-family="sans-serif" font-size="12" font-style="italic" lengthAdjust="spacingAndGlyphs" textLength="56" x="628.75" y="186.1543">Validator</text><rect fill="#FFFFFF" height="15.9688" style="stroke: #000000; stroke-width: 1.0; stroke-dasharray: 2.0,2.0;" width="9" x="987" y="163"/><text fill="#000000" font-family="sans-serif" font-size="12" font-style="italic" lengthAdjust="spacingAndGlyphs" textLength="7" x="988" y="175.1387">T</text><line style="stroke: #A80036; stroke-width: 1.5;" x1="300" x2="992" y1="198" y2="198"/><ellipse cx="310" cy="209.9023" fill="#84BE84" rx="3" ry="3" style="stroke: #038048; stroke-width: 1.0;"/><text fill="#000000" font-family="sans-serif" font-size="11" lengthAdjust="spacingAndGlyphs" text-decoration="underline" textLength="536" x="319" y="212.2104">&lt;T&gt; from(guard: Predicate&lt;T&gt;, errorMessageProvider: ErrorMessageProvider): Validator&lt;T&gt;</text><ellipse cx="310" cy="222.707" fill="#84BE84" rx="3" ry="3" style="stroke: #038048; stroke-width: 1.0;"/><text fill="#000000" font-family="sans-serif" font-size="11" lengthAdjust="spacingAndGlyphs" text-decoration="underline" textLength="668" x="319" y="225.0151">&lt;T&gt; from(guard: Predicate&lt;T&gt;, errorMessageProvider: ErrorMessageProvider, errorLevel: ErrorLevel): Validator&lt;T&gt;</text><ellipse cx="310" cy="235.5117" fill="#84BE84" rx="3" ry="3" style="stroke: #038048; stroke-width: 1.0;"/><text fill="#000000" font-family="sans-serif" font-size="11" lengthAdjust="spacingAndGlyphs" text-decoration="underline" textLength="396" x="319" y="237.8198">&lt;T&gt; from(guard: Predicate&lt;T&gt;, errorMessage: String): Validator&lt;T&gt;</text><ellipse cx="310" cy="248.3164" fill="#84BE84" rx="3" ry="3" style="stroke: #038048; stroke-width: 1.0;"/><text fill="#000000" font-family="sans-serif" font-size="11" lengthAdjust="spacingAndGlyphs" text-decoration="underline" textLength="528" x="319" y="250.6245">&lt;T&gt; from(guard: Predicate&lt;T&gt;, errorMessage: String, errorLevel: ErrorLevel): Validator&lt;T&gt;</text><ellipse cx="310" cy="261.1211" fill="#84BE84" rx="3" ry="3" style="stroke: #038048; stroke-width: 1.0;"/><text fill="#000000" font-family="sans-serif" font-size="11" lengthAdjust="spacingAndGlyphs" text-decoration="underline" textLength="187" x="319" y="263.4292">&lt;T&gt; alwaysPass(): Validator&lt;T&gt;</text><ellipse cx="310" cy="273.9258" fill="#84BE84" rx="3" ry="3" style="stroke: #038048; stroke-width: 1.0;"/><text fill="#000000" font-family="sans-serif" font-size="11" font-style="italic" lengthAdjust="spacingAndGlyphs" textLength="318" x="319" y="276.2339">apply(value: T, context: ValueContext): ValidationResult</text><!--class ErrorLevel--><rect fill="#FEFECE" filter="url(#fr62y8mt7nili)" height="104.0234" id="ErrorLevel" style="stroke: #A80036; stroke-width: 1.5;" width="94" x="186" y="362"/><ellipse cx="201" cy="378" fill="#EB937F" rx="11" ry="11" style="stroke: #A80036; stroke-width: 1.0;"/><path d="M199.2969,378.875 L199.2969,381.2969 L203.6563,381.2969 L203.6563,380.4219 C203.6563,379.9375 203.6875,379.7969 203.7969,379.6406 C203.9688,379.3906 204.2344,379.2813 204.5,379.2813 C204.7813,379.2813 205.0625,379.4375 205.2344,379.6875 C205.3125,379.8438 205.3438,379.9844 205.3438,380.4219 L205.3438,383 L197.3438,383 C196.9531,383 196.7188,382.9531 196.5781,382.8281 C196.3594,382.6719 196.2188,382.4219 196.2188,382.1563 C196.2188,381.8594 196.375,381.5938 196.625,381.4219 C196.7813,381.3125 196.9375,381.2969 197.3438,381.2969 L197.5938,381.2969 L197.5938,374.7813 L197.3438,374.7813 C196.9219,374.7813 196.7344,374.75 196.5781,374.6406 C196.3594,374.4688 196.2188,374.2188 196.2188,373.9375 C196.2188,373.6563 196.375,373.3594 196.625,373.2031 C196.7813,373.1094 196.9063,373.0938 197.3438,373.0938 L204.9688,373.0938 L204.9688,375.6406 C204.9688,376.1094 204.9375,376.25 204.8281,376.4219 C204.6563,376.6406 204.3906,376.7813 204.125,376.7813 C203.8438,376.7813 203.5625,376.625 203.3906,376.375 C203.3125,376.2188 203.2813,376.0469 203.2813,375.6406 L203.2813,374.7813 L199.2969,374.7813 L199.2969,377.1875 L200.75,377.1875 L200.75,377.0625 C200.75,376.6094 200.7813,376.4531 200.8906,376.2813 C201.0625,376.0625 201.3281,375.9219 201.5781,375.9219 C202.0313,375.9219 202.3438,376.2344 202.4063,376.7031 C202.4219,376.8594 202.4219,376.9063 202.4219,377.0625 L202.4219,378.9844 C202.4219,379.4375 202.3906,379.5938 202.2656,379.75 C202.1094,379.9688 201.8438,380.1094 201.5938,380.1094 C201.2969,380.1094 201.0156,379.9531 200.8594,379.7031 C200.7813,379.5469 200.75,379.3906 200.75,378.9844 L200.75,378.875 Z "/><text fill="#000000" font-family="sans-serif" font-size="12" lengthAdjust="spacingAndGlyphs" textLength="62" x="215" y="382.1543">ErrorLevel</text><line style="stroke: #A80036; stroke-width: 1.5;" x1="187" x2="279" y1="394" y2="394"/><ellipse cx="197" cy="405.9023" fill="none" rx="3" ry="3" style="stroke: #038048; stroke-width: 1.0;"/><text fill="#000000" font-family="sans-serif" font-size="11" lengthAdjust="spacingAndGlyphs" text-decoration="underline" textLength="26" x="206" y="408.2104">INFO</text><ellipse cx="197" cy="418.707" fill="none" rx="3" ry="3" style="stroke: #038048; stroke-width: 1.0;"/><text fill="#000000" font-family="sans-serif" font-size="11" lengthAdjust="spacingAndGlyphs" text-decoration="underline" textLength="51" x="206" y="421.0151">WARNING</text><ellipse cx="197" cy="431.5117" fill="none" rx="3" ry="3" style="stroke: #038048; stroke-width: 1.0;"/><text fill="#000000" font-family="sans-serif" font-size="11" lengthAdjust="spacingAndGlyphs" text-decoration="underline" textLength="37" x="206" y="433.8198">ERROR</text><ellipse cx="197" cy="444.3164" fill="none" rx="3" ry="3" style="stroke: #038048; stroke-width: 1.0;"/><text fill="#000000" font-family="sans-serif" font-size="11" lengthAdjust="spacingAndGlyphs" text-decoration="underline" textLength="49" x="206" y="446.6245">CRITICAL</text><ellipse cx="197" cy="457.1211" fill="none" rx="3" ry="3" style="stroke: #038048; stroke-width: 1.0;"/><text fill="#000000" font-family="sans-serif" font-size="11" lengthAdjust="spacingAndGlyphs" text-decoration="underline" textLength="46" x="206" y="459.4292">SYSTEM</text><!--class ValidationResult--><rect fill="#FEFECE" filter="url(#fr62y8mt7nili)" height="116.8281" id="ValidationResult" style="stroke: #A80036; stroke-width: 1.5;" width="422" x="315" y="355.5"/><ellipse cx="471.75" cy="371.5" fill="#B4A7E5" rx="11" ry="11" style="stroke: #A80036; stroke-width: 1.0;"/><path d="M472.7031,368.2813 L472.7031,374.7969 L474.4219,374.7969 C474.875,374.7969 475.0156,374.8281 475.1875,374.9531 C475.4219,375.125 475.5313,375.375 475.5313,375.6563 C475.5313,376.2188 475.1719,376.5 474.4219,376.5 L469.2813,376.5 C468.875,376.5 468.6719,376.4531 468.5156,376.3281 C468.2969,376.1719 468.1563,375.9063 468.1563,375.6563 C468.1563,375.3594 468.3125,375.0781 468.5625,374.9219 C468.7188,374.8125 468.8438,374.7969 469.2813,374.7969 L471,374.7969 L471,368.2813 L469.2813,368.2813 C468.8594,368.2813 468.6719,368.25 468.5156,368.1406 C468.2969,367.9688 468.1563,367.7188 468.1563,367.4375 C468.1563,367.1563 468.3125,366.8594 468.5625,366.7031 C468.7188,366.6094 468.8438,366.5938 469.2813,366.5938 L474.4219,366.5938 C474.875,366.5938 475.0156,366.625 475.1875,366.7344 C475.4219,366.9063 475.5313,367.1719 475.5313,367.4375 C475.5313,367.7344 475.3906,368.0156 475.125,368.1719 C475,368.25 474.8125,368.2813 474.4219,368.2813 Z "/><text fill="#000000" font-family="sans-serif" font-size="12" font-style="italic" lengthAdjust="spacingAndGlyphs" textLength="100" x="492.25" y="375.6543">ValidationResult</text><line style="stroke: #A80036; stroke-width: 1.5;" x1="316" x2="736" y1="387.5" y2="387.5"/><ellipse cx="326" cy="399.4023" fill="#84BE84" rx="3" ry="3" style="stroke: #038048; stroke-width: 1.0;"/><text fill="#000000" font-family="sans-serif" font-size="11" lengthAdjust="spacingAndGlyphs" text-decoration="underline" textLength="396" x="335" y="401.7104">create(errorMessage: String, errorLevel: ErrorLevel): ValidationResult</text><ellipse cx="326" cy="412.207" fill="#84BE84" rx="3" ry="3" style="stroke: #038048; stroke-width: 1.0;"/><text fill="#000000" font-family="sans-serif" font-size="11" lengthAdjust="spacingAndGlyphs" text-decoration="underline" textLength="257" x="335" y="414.5151">error(errorMessage: String): ValidationResult</text><ellipse cx="326" cy="425.0117" fill="#84BE84" rx="3" ry="3" style="stroke: #038048; stroke-width: 1.0;"/><text fill="#000000" font-family="sans-serif" font-size="11" lengthAdjust="spacingAndGlyphs" text-decoration="underline" textLength="119" x="335" y="427.3198">ok(): ValidationResult</text><ellipse cx="326" cy="437.8164" fill="#84BE84" rx="3" ry="3" style="stroke: #038048; stroke-width: 1.0;"/><text fill="#000000" font-family="sans-serif" font-size="11" font-style="italic" lengthAdjust="spacingAndGlyphs" textLength="217" x="335" y="440.1245">getErrorLevel(): Optional&lt;ErrorLevel&gt;</text><ellipse cx="326" cy="450.6211" fill="#84BE84" rx="3" ry="3" style="stroke: #038048; stroke-width: 1.0;"/><text fill="#000000" font-family="sans-serif" font-size="11" font-style="italic" lengthAdjust="spacingAndGlyphs" textLength="145" x="335" y="452.9292">getErrorMessage(): String</text><ellipse cx="326" cy="463.4258" fill="#84BE84" rx="3" ry="3" style="stroke: #038048; stroke-width: 1.0;"/><text fill="#000000" font-family="sans-serif" font-size="11" lengthAdjust="spacingAndGlyphs" textLength="100" x="335" y="465.7339">isError(): boolean</text><!--class ErrorMessageProvider--><rect fill="#FEFECE" filter="url(#fr62y8mt7nili)" height="52.8047" id="ErrorMessageProvider" style="stroke: #A80036; stroke-width: 1.5;" width="232" x="1028" y="198"/><ellipse cx="1072.25" cy="214" fill="#B4A7E5" rx="11" ry="11" style="stroke: #A80036; stroke-width: 1.0;"/><path d="M1073.2031,210.7813 L1073.2031,217.2969 L1074.9219,217.2969 C1075.375,217.2969 1075.5156,217.3281 1075.6875,217.4531 C1075.9219,217.625 1076.0313,217.875 1076.0313,218.1563 C1076.0313,218.7188 1075.6719,219 1074.9219,219 L1069.7813,219 C1069.375,219 1069.1719,218.9531 1069.0156,218.8281 C1068.7969,218.6719 1068.6563,218.4063 1068.6563,218.1563 C1068.6563,217.8594 1068.8125,217.5781 1069.0625,217.4219 C1069.2188,217.3125 1069.3438,217.2969 1069.7813,217.2969 L1071.5,217.2969 L1071.5,210.7813 L1069.7813,210.7813 C1069.3594,210.7813 1069.1719,210.75 1069.0156,210.6406 C1068.7969,210.4688 1068.6563,210.2188 1068.6563,209.9375 C1068.6563,209.6563 1068.8125,209.3594 1069.0625,209.2031 C1069.2188,209.1094 1069.3438,209.0938 1069.7813,209.0938 L1074.9219,209.0938 C1075.375,209.0938 1075.5156,209.125 1075.6875,209.2344 C1075.9219,209.4063 1076.0313,209.6719 1076.0313,209.9375 C1076.0313,210.2344 1075.8906,210.5156 1075.625,210.6719 C1075.5,210.75 1075.3125,210.7813 1074.9219,210.7813 Z "/><text fill="#000000" font-family="sans-serif" font-size="12" font-style="italic" lengthAdjust="spacingAndGlyphs" textLength="135" x="1092.75" y="218.1543">ErrorMessageProvider</text><line style="stroke: #A80036; stroke-width: 1.5;" x1="1029" x2="1259" y1="230" y2="230"/><ellipse cx="1039" cy="241.9023" fill="#84BE84" rx="3" ry="3" style="stroke: #038048; stroke-width: 1.0;"/><text fill="#000000" font-family="sans-serif" font-size="11" font-style="italic" lengthAdjust="spacingAndGlyphs" textLength="206" x="1048" y="244.2104">apply(context: ValueContext): String</text><!--class ValueContext--><rect fill="#FEFECE" filter="url(#fr62y8mt7nili)" height="142.4375" id="ValueContext" style="stroke: #A80036; stroke-width: 1.5;" width="488" x="772" y="343"/><ellipse cx="970.25" cy="359" fill="#ADD1B2" rx="11" ry="11" style="stroke: #A80036; stroke-width: 1.0;"/><path d="M972.5938,354.6719 L972.7656,354.75 C972.9844,354.4375 973.1875,354.3438 973.4844,354.3438 C973.7813,354.3438 974.0625,354.4844 974.2188,354.75 C974.3125,354.9063 974.3281,355.0313 974.3281,355.4688 L974.3281,356.8906 C974.3281,357.3125 974.2969,357.5 974.1875,357.6563 C974.0156,357.875 973.75,358.0156 973.4844,358.0156 C973.2656,358.0156 973.0313,357.9063 972.8906,357.7656 C972.75,357.6406 972.7188,357.5156 972.6563,357.1094 C972.5625,356.7031 972.3906,356.4844 971.9063,356.2031 C971.4375,355.9531 970.8281,355.7969 970.25,355.7969 C968.5156,355.7969 967.2656,357.1094 967.2656,358.8906 L967.2656,359.9844 C967.2656,361.6875 968.5625,362.7813 970.6094,362.7813 C971.375,362.7813 972.0625,362.6563 972.4844,362.3906 C972.6719,362.2969 972.6719,362.2969 973.125,361.8125 C973.3125,361.625 973.5156,361.5469 973.7344,361.5469 C974.2031,361.5469 974.5938,361.9375 974.5938,362.3906 C974.5938,362.7813 974.2656,363.2344 973.6875,363.6406 C972.9375,364.1875 971.7813,364.4844 970.5625,364.4844 C967.6719,364.4844 965.5625,362.5938 965.5625,360.0156 L965.5625,358.8906 C965.5625,356.1719 967.5625,354.0938 970.1875,354.0938 C971.0625,354.0938 971.6563,354.2344 972.5938,354.6719 Z "/><text fill="#000000" font-family="sans-serif" font-size="12" lengthAdjust="spacingAndGlyphs" textLength="83" x="990.75" y="363.1543">ValueContext</text><line style="stroke: #A80036; stroke-width: 1.5;" x1="773" x2="1259" y1="375" y2="375"/><ellipse cx="783" cy="386.9023" fill="#84BE84" rx="3" ry="3" style="stroke: #038048; stroke-width: 1.0;"/><text fill="#000000" font-family="sans-serif" font-size="11" lengthAdjust="spacingAndGlyphs" textLength="82" x="792" y="389.2104">ValueContext()</text><ellipse cx="783" cy="399.707" fill="#84BE84" rx="3" ry="3" style="stroke: #038048; stroke-width: 1.0;"/><text fill="#000000" font-family="sans-serif" font-size="11" lengthAdjust="spacingAndGlyphs" textLength="218" x="792" y="402.0151">ValueContext(component: Component)</text><ellipse cx="783" cy="412.5117" fill="#84BE84" rx="3" ry="3" style="stroke: #038048; stroke-width: 1.0;"/><text fill="#000000" font-family="sans-serif" font-size="11" lengthAdjust="spacingAndGlyphs" textLength="377" x="792" y="414.8198">ValueContext(component: Component, hasValue: HasValue&lt;?, ?&gt;)</text><ellipse cx="783" cy="425.3164" fill="#84BE84" rx="3" ry="3" style="stroke: #038048; stroke-width: 1.0;"/><text fill="#000000" font-family="sans-serif" font-size="11" lengthAdjust="spacingAndGlyphs" textLength="462" x="792" y="427.6245">ValueContext(component: Component, hasValue: HasValue&lt;?, ?&gt;, locale: Locale)</text><ellipse cx="783" cy="438.1211" fill="#84BE84" rx="3" ry="3" style="stroke: #038048; stroke-width: 1.0;"/><text fill="#000000" font-family="sans-serif" font-size="11" lengthAdjust="spacingAndGlyphs" textLength="159" x="792" y="440.4292">ValueContext(locale: Locale)</text><ellipse cx="783" cy="450.9258" fill="#84BE84" rx="3" ry="3" style="stroke: #038048; stroke-width: 1.0;"/><text fill="#000000" font-family="sans-serif" font-size="11" lengthAdjust="spacingAndGlyphs" textLength="229" x="792" y="453.2339">getComponent(): Optional&lt;Component&gt;</text><ellipse cx="783" cy="463.7305" fill="#84BE84" rx="3" ry="3" style="stroke: #038048; stroke-width: 1.0;"/><text fill="#000000" font-family="sans-serif" font-size="11" lengthAdjust="spacingAndGlyphs" textLength="243" x="792" y="466.0386">getHasValue(): Optional&lt;HasValue&lt;?, ?&gt;&gt;</text><ellipse cx="783" cy="476.5352" fill="#84BE84" rx="3" ry="3" style="stroke: #038048; stroke-width: 1.0;"/><text fill="#000000" font-family="sans-serif" font-size="11" lengthAdjust="spacingAndGlyphs" textLength="171" x="792" y="478.8433">getLocale(): Optional&lt;Locale&gt;</text><!--class BiFunction--><rect fill="#FEFECE" filter="url(#fr62y8mt7nili)" height="32" id="BiFunction" style="stroke: #A80036; stroke-width: 1.5;" width="141" x="575.5" y="59"/><ellipse cx="590.5" cy="75" fill="#B4A7E5" rx="11" ry="11" style="stroke: #A80036; stroke-width: 1.0;"/><path d="M591.4531,71.7813 L591.4531,78.2969 L593.1719,78.2969 C593.625,78.2969 593.7656,78.3281 593.9375,78.4531 C594.1719,78.625 594.2813,78.875 594.2813,79.1563 C594.2813,79.7188 593.9219,80 593.1719,80 L588.0313,80 C587.625,80 587.4219,79.9531 587.2656,79.8281 C587.0469,79.6719 586.9063,79.4063 586.9063,79.1563 C586.9063,78.8594 587.0625,78.5781 587.3125,78.4219 C587.4688,78.3125 587.5938,78.2969 588.0313,78.2969 L589.75,78.2969 L589.75,71.7813 L588.0313,71.7813 C587.6094,71.7813 587.4219,71.75 587.2656,71.6406 C587.0469,71.4688 586.9063,71.2188 586.9063,70.9375 C586.9063,70.6563 587.0625,70.3594 587.3125,70.2031 C587.4688,70.1094 587.5938,70.0938 588.0313,70.0938 L593.1719,70.0938 C593.625,70.0938 593.7656,70.125 593.9375,70.2344 C594.1719,70.4063 594.2813,70.6719 594.2813,70.9375 C594.2813,71.2344 594.1406,71.5156 593.875,71.6719 C593.75,71.75 593.5625,71.7813 593.1719,71.7813 Z "/><text fill="#000000" font-family="sans-serif" font-size="12" font-style="italic" lengthAdjust="spacingAndGlyphs" textLength="65" x="604.5" y="79.1543">BiFunction</text><rect fill="#FFFFFF" height="15.9688" style="stroke: #000000; stroke-width: 1.0; stroke-dasharray: 2.0,2.0;" width="42" x="677.5" y="56"/><text fill="#000000" font-family="sans-serif" font-size="12" font-style="italic" lengthAdjust="spacingAndGlyphs" textLength="40" x="678.5" y="68.1387">T, U, R</text><!--class Function--><rect fill="#FEFECE" filter="url(#fr62y8mt7nili)" height="32" id="Function" style="stroke: #A80036; stroke-width: 1.5;" width="109" x="889.5" y="59"/><ellipse cx="904.5" cy="75" fill="#B4A7E5" rx="11" ry="11" style="stroke: #A80036; stroke-width: 1.0;"/><path d="M905.4531,71.7813 L905.4531,78.2969 L907.1719,78.2969 C907.625,78.2969 907.7656,78.3281 907.9375,78.4531 C908.1719,78.625 908.2813,78.875 908.2813,79.1563 C908.2813,79.7188 907.9219,80 907.1719,80 L902.0313,80 C901.625,80 901.4219,79.9531 901.2656,79.8281 C901.0469,79.6719 900.9063,79.4063 900.9063,79.1563 C900.9063,78.8594 901.0625,78.5781 901.3125,78.4219 C901.4688,78.3125 901.5938,78.2969 902.0313,78.2969 L903.75,78.2969 L903.75,71.7813 L902.0313,71.7813 C901.6094,71.7813 901.4219,71.75 901.2656,71.6406 C901.0469,71.4688 900.9063,71.2188 900.9063,70.9375 C900.9063,70.6563 901.0625,70.3594 901.3125,70.2031 C901.4688,70.1094 901.5938,70.0938 902.0313,70.0938 L907.1719,70.0938 C907.625,70.0938 907.7656,70.125 907.9375,70.2344 C908.1719,70.4063 908.2813,70.6719 908.2813,70.9375 C908.2813,71.2344 908.1406,71.5156 907.875,71.6719 C907.75,71.75 907.5625,71.7813 907.1719,71.7813 Z "/><text fill="#000000" font-family="sans-serif" font-size="12" font-style="italic" lengthAdjust="spacingAndGlyphs" textLength="54" x="918.5" y="79.1543">Function</text><rect fill="#FFFFFF" height="15.9688" style="stroke: #000000; stroke-width: 1.0; stroke-dasharray: 2.0,2.0;" width="21" x="980.5" y="56"/><text fill="#000000" font-family="sans-serif" font-size="12" font-style="italic" lengthAdjust="spacingAndGlyphs" textLength="19" x="981.5" y="68.1387">T,R</text><!--class Predicate--><rect fill="#FEFECE" filter="url(#fr62y8mt7nili)" height="32" id="Predicate" style="stroke: #A80036; stroke-width: 1.5;" width="102" x="752" y="59"/><ellipse cx="767" cy="75" fill="#B4A7E5" rx="11" ry="11" style="stroke: #A80036; stroke-width: 1.0;"/><path d="M767.9531,71.7813 L767.9531,78.2969 L769.6719,78.2969 C770.125,78.2969 770.2656,78.3281 770.4375,78.4531 C770.6719,78.625 770.7813,78.875 770.7813,79.1563 C770.7813,79.7188 770.4219,80 769.6719,80 L764.5313,80 C764.125,80 763.9219,79.9531 763.7656,79.8281 C763.5469,79.6719 763.4063,79.4063 763.4063,79.1563 C763.4063,78.8594 763.5625,78.5781 763.8125,78.4219 C763.9688,78.3125 764.0938,78.2969 764.5313,78.2969 L766.25,78.2969 L766.25,71.7813 L764.5313,71.7813 C764.1094,71.7813 763.9219,71.75 763.7656,71.6406 C763.5469,71.4688 763.4063,71.2188 763.4063,70.9375 C763.4063,70.6563 763.5625,70.3594 763.8125,70.2031 C763.9688,70.1094 764.0938,70.0938 764.5313,70.0938 L769.6719,70.0938 C770.125,70.0938 770.2656,70.125 770.4375,70.2344 C770.6719,70.4063 770.7813,70.6719 770.7813,70.9375 C770.7813,71.2344 770.6406,71.5156 770.375,71.6719 C770.25,71.75 770.0625,71.7813 769.6719,71.7813 Z "/><text fill="#000000" font-family="sans-serif" font-size="12" font-style="italic" lengthAdjust="spacingAndGlyphs" textLength="59" x="781" y="79.1543">Predicate</text><rect fill="#FFFFFF" height="15.9688" style="stroke: #000000; stroke-width: 1.0; stroke-dasharray: 2.0,2.0;" width="9" x="848" y="56"/><text fill="#000000" font-family="sans-serif" font-size="12" font-style="italic" lengthAdjust="spacingAndGlyphs" textLength="7" x="849" y="68.1387">T</text><!--link BiFunction to Validator--><path d="M646,111.444 C646,127.725 646,147.453 646,165.791 " fill="none" id="BiFunction-Validator" style="stroke: #A80036; stroke-width: 1.0;"/><polygon fill="none" points="639,111.23,646,91.23,653,111.23,639,111.23" style="stroke: #A80036; stroke-width: 1.0;"/><!--link Function to ErrorMessageProvider--><path d="M982.349,102.553 C991.764,109.168 1001.784,116.289 1011,123 C1045.39,148.044 1084.14,177.464 1110.9,197.977 " fill="none" id="Function-ErrorMessageProvider" style="stroke: #A80036; stroke-width: 1.0;"/><polygon fill="none" points="978.257,108.234,965.863,91.047,986.27,96.754,978.257,108.234" style="stroke: #A80036; stroke-width: 1.0;"/><!--link HasValidator to Validator--><path d="M263.632,224.5 C273.595,224.5 283.559,224.5 293.522,224.5 " fill="none" id="HasValidator-Validator" style="stroke: #A80036; stroke-width: 1.0; stroke-dasharray: 7.0,7.0;"/><polygon fill="#A80036" points="298.732,224.5,289.732,220.5,293.732,224.5,289.732,228.5,298.732,224.5" style="stroke: #A80036; stroke-width: 1.0;"/><!--link Validator to ErrorMessageProvider--><path d="M993.238,224.5 C1003.101,224.5 1012.96,224.5 1022.83,224.5 " fill="none" id="Validator-ErrorMessageProvider" style="stroke: #A80036; stroke-width: 1.0; stroke-dasharray: 7.0,7.0;"/><polygon fill="#A80036" points="1027.98,224.5,1018.98,220.5,1022.98,224.5,1018.98,228.5,1027.98,224.5" style="stroke: #A80036; stroke-width: 1.0;"/><!--link Validator to ValidationResult--><path d="M609.181,283.03 C595.423,304.527 579.744,329.025 565.735,350.914 " fill="none" id="Validator-ValidationResult" style="stroke: #A80036; stroke-width: 1.0; stroke-dasharray: 7.0,7.0;"/><polygon fill="#A80036" points="562.957,355.255,571.1766,349.8293,565.6515,351.0432,564.4377,345.5181,562.957,355.255" style="stroke: #A80036; stroke-width: 1.0;"/><!--link ErrorLevel to ValidationResult--><path d="M285.343,414 C295.154,414 304.965,414 314.776,414 " fill="none" id="ErrorLevel-ValidationResult" style="stroke: #A80036; stroke-width: 1.0; stroke-dasharray: 7.0,7.0;"/><polygon fill="#A80036" points="280.212,414,289.212,418,285.212,414,289.212,410,280.212,414" style="stroke: #A80036; stroke-width: 1.0;"/><!--link ErrorMessageProvider to ValueContext--><path d="M1126.47,251.178 C1111.07,273.735 1087.89,307.699 1066.72,338.696 " fill="none" id="ErrorMessageProvider-ValueContext" style="stroke: #A80036; stroke-width: 1.0; stroke-dasharray: 7.0,7.0;"/><polygon fill="#A80036" points="1063.89,342.852,1072.2681,337.6743,1066.7092,338.7226,1065.6609,333.1637,1063.89,342.852" style="stroke: #A80036; stroke-width: 1.0;"/><!--link Predicate to Validator--><path d="M783.128,94.67 C764.087,112.558 734.349,140.497 707.426,165.791 " fill="none" id="Predicate-Validator" style="stroke: #A80036; stroke-width: 1.0; stroke-dasharray: 7.0,7.0;"/><polygon fill="#A80036" points="786.79,91.23,777.4921,94.4779,783.1462,94.6538,782.9702,100.308,786.79,91.23" style="stroke: #A80036; stroke-width: 1.0;"/><!--
@startuml
package com.vaadin.flow.data.binder {
 interface HasValidator<V> {
  + getDefaultValidator(): Validator<V>
 }
 interface Validator<T> {
  + {static} <T> from(guard: Predicate<T>, errorMessageProvider: ErrorMessageProvider): Validator<T>
  + {static} <T> from(guard: Predicate<T>, errorMessageProvider: ErrorMessageProvider, errorLevel: ErrorLevel): Validator<T>
  + {static} <T> from(guard: Predicate<T>, errorMessage: String): Validator<T>
  + {static} <T> from(guard: Predicate<T>, errorMessage: String, errorLevel: ErrorLevel): Validator<T>
  + {static} <T> alwaysPass(): Validator<T>
  + {abstract} apply(value: T, context: ValueContext): ValidationResult
 }
 enum ErrorLevel {
  + {static} INFO
  + {static} WARNING
  + {static} ERROR
  + {static} CRITICAL
  + {static} SYSTEM
 }
 interface ValidationResult {
  + {static}create(errorMessage: String, errorLevel: ErrorLevel): ValidationResult
  + {static}error(errorMessage: String): ValidationResult
  + {static}ok(): ValidationResult
  + {abstract} getErrorLevel(): Optional<ErrorLevel>
  + {abstract} getErrorMessage(): String
  + isError(): boolean
 }
 interface ErrorMessageProvider {
  + {abstract} apply(context: ValueContext): String
 }
 class ValueContext {
  + ValueContext()
  + ValueContext(component: Component)
  + ValueContext(component: Component, hasValue: HasValue<?, ?>)
  + ValueContext(component: Component, hasValue: HasValue<?, ?>, locale: Locale)
  + ValueContext(locale: Locale)
  + getComponent(): Optional<Component>
  + getHasValue(): Optional<HasValue<?, ?>> 
  + getLocale(): Optional<Locale>
 }
}
package java.util.function {
 interface BiFunction<T, U, R>
 interface Function<T,R>
 interface Predicate<T>
}
Validator -up-|> BiFunction
ErrorMessageProvider -up-|> Function
HasValidator .right.> Validator
Validator .right.> ErrorMessageProvider
Validator .down.> ValidationResult
ValidationResult .left.> ErrorLevel
ErrorMessageProvider .down.> ValueContext
Validator .up.> Predicate
hide empty members
@enduml

PlantUML version 1.2019.08(Sat Jul 13 19:25:14 UTC 2019)
(GPL source distribution)
Java Runtime: Java(TM) SE Runtime Environment
JVM: Java HotSpot(TM) 64-Bit Server VM
Java Version: 1.7.0_25-b15
Operating System: Linux
Default Encoding: UTF-8
Language: en
Country: US
--></g></svg>